<?xml version="1.0" encoding="utf-8"?>
<!-- Generator: Adobe Illustrator 26.1.0, SVG Export Plug-In . SVG Version: 6.00 Build 0)  -->
<svg version="1.1" id="Camada_1" xmlns="http://www.w3.org/2000/svg" xmlns:xlink="http://www.w3.org/1999/xlink" x="0px" y="0px"
	 viewBox="0 0 670 179.2" style="enable-background:new 0 0 670 179.2;" xml:space="preserve">
<style type="text/css">
	.st0{fill:none;}
	.st1{fill:none;stroke:#6DAFCC;}
	.st2{fill:none;stroke:#1B8992;}
	.st3{fill:none;stroke:#108141;}
	.st4{fill:none;stroke:#F4BB2A;}
	.st5{clip-path:url(#SVGID_00000052807946235948107980000015985174703783050633_);}
	.st6{fill:#6DAFCC;}
	.st7{enable-background:new    ;}
	.st8{fill:#FFFFFF;}
	.st9{clip-path:url(#SVGID_00000016060014034412144010000013241888582508359331_);}
	.st10{fill:#1B8992;}
	.st11{clip-path:url(#SVGID_00000154420366414891105680000007000895938295946911_);}
	.st12{fill:#108141;}
	.st13{clip-path:url(#SVGID_00000108280187253408789680000001006593264830640568_);}
	.st14{fill:#F4BB2A;}
	.st15{clip-path:url(#SVGID_00000172437788897395232960000014134529775956927676_);}
	.st16{fill:#3E6D93;}
	.st17{fill:#7D7D7D;}
</style>
<g id="img-slide-40" transform="translate(-111 -237.333)">
	<g id="Ret창ngulo_1171" transform="translate(512 243)">
		<path class="st0" d="M34,0h201c18.8,0,34,15.2,34,34l0,0c0,18.8-15.2,34-34,34H34C15.2,68,0,52.8,0,34l0,0C0,15.2,15.2,0,34,0z"/>
		<path class="st1" d="M34,0.5h201c18.5,0,33.5,15,33.5,33.5l0,0c0,18.5-15,33.5-33.5,33.5H34c-18.5,0-33.5-15-33.5-33.5l0,0
			C0.5,15.5,15.5,0.5,34,0.5z"/>
	</g>
	<g id="Ret창ngulo_1174" transform="translate(111 243)">
		<path class="st0" d="M34,0h201c18.8,0,34,15.2,34,34l0,0c0,18.8-15.2,34-34,34H34C15.2,68,0,52.8,0,34l0,0C0,15.2,15.2,0,34,0z"/>
		<path class="st2" d="M34,0.5h201c18.5,0,33.5,15,33.5,33.5l0,0c0,18.5-15,33.5-33.5,33.5H34c-18.5,0-33.5-15-33.5-33.5l0,0
			C0.5,15.5,15.5,0.5,34,0.5z"/>
	</g>
	<g id="Ret창ngulo_1172" transform="translate(512 342)">
		<path class="st0" d="M34,0h201c18.8,0,34,15.2,34,34l0,0c0,18.8-15.2,34-34,34H34C15.2,68,0,52.8,0,34l0,0C0,15.2,15.2,0,34,0z"/>
		<path class="st3" d="M34,0.5h201c18.5,0,33.5,15,33.5,33.5l0,0c0,18.5-15,33.5-33.5,33.5H34c-18.5,0-33.5-15-33.5-33.5l0,0
			C0.5,15.5,15.5,0.5,34,0.5z"/>
	</g>
	<g id="Ret창ngulo_1173" transform="translate(111 342)">
		<path class="st0" d="M34,0h201c18.8,0,34,15.2,34,34l0,0c0,18.8-15.2,34-34,34H34C15.2,68,0,52.8,0,34l0,0C0,15.2,15.2,0,34,0z"/>
		<path class="st4" d="M34,0.5h201c18.5,0,33.5,15,33.5,33.5l0,0c0,18.5-15,33.5-33.5,33.5H34c-18.5,0-33.5-15-33.5-33.5l0,0
			C0.5,15.5,15.5,0.5,34,0.5z"/>
	</g>
	<g id="Grupo_1889" transform="translate(307 237.333)">
		<g id="Grupo_1880">
			<g>
				<defs>
					<rect id="SVGID_1_" width="274.4" height="179.2"/>
				</defs>
				<clipPath id="SVGID_00000157281852257331480860000018171829900370283148_">
					<use xlink:href="#SVGID_1_"  style="overflow:visible;"/>
				</clipPath>
				<g id="Grupo_1879" style="clip-path:url(#SVGID_00000157281852257331480860000018171829900370283148_);">
					<path id="Caminho_2162" class="st6" d="M233.2,82.5h-43.1c-22.8,0-41.2-18.5-41.2-41.2S167.3,0,190.1,0h43.1
						c22.8,0,41.3,18.5,41.3,41.2S256,82.5,233.2,82.5"/>
				</g>
			</g>
		</g>
		<g class="st7">
			<path class="st8" d="M196.7,40.8c-0.2-0.4-0.5-0.6-0.8-0.8c-0.3-0.2-0.7-0.3-1.2-0.3c-0.5,0-0.9,0.1-1.3,0.3
				c-0.4,0.2-0.7,0.5-0.9,1c-0.2,0.4-0.3,0.9-0.3,1.4c0,0.6,0.1,1,0.3,1.5c0.2,0.4,0.5,0.7,0.9,1c0.4,0.2,0.8,0.3,1.4,0.3
				c0.6,0,1.2-0.2,1.6-0.5s0.7-0.8,0.8-1.4h-2.9V42h4.5v1.5c-0.1,0.6-0.4,1.1-0.7,1.6c-0.4,0.5-0.8,0.9-1.4,1.2s-1.2,0.5-2,0.5
				c-0.8,0-1.5-0.2-2.2-0.5c-0.7-0.4-1.2-0.9-1.5-1.5c-0.4-0.6-0.6-1.4-0.6-2.2c0-0.8,0.2-1.6,0.6-2.2c0.4-0.7,0.9-1.2,1.5-1.5
				c0.7-0.4,1.4-0.5,2.2-0.5c0.9,0,1.8,0.2,2.5,0.7c0.7,0.5,1.2,1.1,1.4,1.9H196.7z"/>
			<path class="st8" d="M201.7,39.6v2.1h2.8v1.3h-2.8v2.2h3.2v1.4H200v-8.4h4.9v1.4H201.7z"/>
			<path class="st8" d="M207.7,46.4c-0.5-0.2-0.8-0.5-1.1-0.9c-0.3-0.4-0.4-0.8-0.4-1.3h1.8c0,0.3,0.1,0.6,0.4,0.8
				c0.2,0.2,0.5,0.3,0.9,0.3c0.4,0,0.7-0.1,0.9-0.3c0.2-0.2,0.3-0.4,0.3-0.7c0-0.2-0.1-0.5-0.2-0.6s-0.3-0.3-0.6-0.4
				c-0.2-0.1-0.5-0.2-0.9-0.3c-0.5-0.2-1-0.3-1.3-0.5s-0.6-0.4-0.9-0.7s-0.4-0.7-0.4-1.3c0-0.5,0.1-0.9,0.4-1.3
				c0.2-0.4,0.6-0.6,1-0.8c0.4-0.2,1-0.3,1.5-0.3c0.9,0,1.6,0.2,2.1,0.6c0.5,0.4,0.8,1,0.9,1.8h-1.8c0-0.3-0.1-0.5-0.4-0.7
				c-0.2-0.2-0.5-0.3-0.9-0.3c-0.3,0-0.6,0.1-0.8,0.3c-0.2,0.2-0.3,0.4-0.3,0.7c0,0.2,0.1,0.4,0.2,0.6c0.1,0.1,0.3,0.3,0.6,0.4
				c0.2,0.1,0.5,0.2,0.9,0.3c0.5,0.2,1,0.3,1.3,0.5c0.3,0.2,0.6,0.4,0.9,0.7c0.2,0.3,0.4,0.7,0.4,1.3c0,0.4-0.1,0.9-0.3,1.2
				s-0.6,0.7-1,0.9c-0.4,0.2-1,0.3-1.6,0.3C208.7,46.7,208.2,46.6,207.7,46.4z"/>
			<path class="st8" d="M219.4,38.3v1.4h-2.2v7h-1.7v-7h-2.2v-1.4H219.4z"/>
			<path class="st8" d="M225.8,45h-3.3l-0.6,1.6h-1.8l3-8.4h2l3,8.4h-1.8L225.8,45z M222.5,36.4c0.3-0.3,0.6-0.4,1-0.4
				c0.2,0,0.3,0,0.4,0.1c0.1,0.1,0.3,0.1,0.4,0.2c0.2,0.2,0.4,0.2,0.6,0.2c0.3,0,0.5-0.2,0.5-0.5h0.9c-0.1,0.5-0.2,0.9-0.5,1.2
				c-0.3,0.3-0.6,0.4-1,0.4c-0.2,0-0.3,0-0.4-0.1c-0.1-0.1-0.3-0.1-0.4-0.2c-0.2-0.2-0.4-0.2-0.6-0.2c-0.3,0-0.5,0.2-0.5,0.5H222
				C222,37.1,222.2,36.7,222.5,36.4z M225.3,43.7l-1.2-3.5l-1.2,3.5H225.3z"/>
			<path class="st8" d="M231,46.2c-0.7-0.4-1.2-0.9-1.6-1.5c-0.4-0.7-0.6-1.4-0.6-2.2c0-0.8,0.2-1.5,0.6-2.2
				c0.4-0.7,0.9-1.2,1.6-1.5c0.7-0.4,1.4-0.6,2.2-0.6c0.8,0,1.5,0.2,2.2,0.6c0.7,0.4,1.2,0.9,1.5,1.5c0.4,0.7,0.6,1.4,0.6,2.2
				c0,0.8-0.2,1.6-0.6,2.2c-0.4,0.7-0.9,1.2-1.6,1.5c-0.7,0.4-1.4,0.6-2.2,0.6S231.6,46.5,231,46.2z M234.5,44.9
				c0.4-0.2,0.7-0.6,0.9-1c0.2-0.4,0.3-0.9,0.3-1.5s-0.1-1-0.3-1.5s-0.5-0.7-0.9-1c-0.4-0.2-0.8-0.3-1.3-0.3c-0.5,0-1,0.1-1.3,0.3
				c-0.4,0.2-0.7,0.5-0.9,1c-0.2,0.4-0.3,0.9-0.3,1.5s0.1,1.1,0.3,1.5c0.2,0.4,0.5,0.8,0.9,1c0.4,0.2,0.8,0.3,1.3,0.3
				C233.6,45.2,234.1,45.1,234.5,44.9z"/>
		</g>
		<g id="Grupo_1882">
			<g>
				<defs>
					<rect id="SVGID_00000162339725063198823270000009351497466077434811_" width="274.4" height="179.2"/>
				</defs>
				<clipPath id="SVGID_00000003093679093645094460000001875021104178794113_">
					<use xlink:href="#SVGID_00000162339725063198823270000009351497466077434811_"  style="overflow:visible;"/>
				</clipPath>
				<g id="Grupo_1881" style="clip-path:url(#SVGID_00000003093679093645094460000001875021104178794113_);">
					<path id="Caminho_2163" class="st10" d="M84.3,82.5H41.2C18.5,82.5,0,64,0,41.2S18.5,0,41.2,0h43.1c22.8,0,41.2,18.5,41.2,41.2
						S107.1,82.5,84.3,82.5"/>
				</g>
			</g>
		</g>
		<g class="st7">
			<path class="st8" d="M46.5,38.3v2.1h2.8v1.3h-2.8v2.2h3.2v1.4h-4.9v-8.4h4.9v1.4H46.5z"/>
			<path class="st8" d="M58.3,45.3h-1.7l-3.8-5.7v5.7h-1.7v-8.4h1.7l3.8,5.8v-5.8h1.7V45.3z"/>
			<path class="st8" d="M61.3,45.1c-0.5-0.2-0.8-0.5-1.1-0.9c-0.3-0.4-0.4-0.8-0.4-1.3h1.8c0,0.3,0.1,0.6,0.4,0.8
				c0.2,0.2,0.5,0.3,0.9,0.3c0.4,0,0.7-0.1,0.9-0.3c0.2-0.2,0.3-0.4,0.3-0.7c0-0.2-0.1-0.5-0.2-0.6s-0.3-0.3-0.6-0.4
				s-0.5-0.2-0.9-0.3c-0.5-0.2-1-0.3-1.3-0.5s-0.6-0.4-0.9-0.7s-0.4-0.7-0.4-1.3c0-0.5,0.1-0.9,0.4-1.3c0.2-0.4,0.6-0.6,1-0.8
				c0.4-0.2,1-0.3,1.5-0.3c0.9,0,1.6,0.2,2.1,0.6s0.8,1,0.9,1.8h-1.8c0-0.3-0.1-0.5-0.4-0.7c-0.2-0.2-0.5-0.3-0.9-0.3
				c-0.3,0-0.6,0.1-0.8,0.3c-0.2,0.2-0.3,0.4-0.3,0.7c0,0.2,0.1,0.4,0.2,0.6c0.1,0.1,0.3,0.3,0.6,0.4c0.2,0.1,0.5,0.2,0.9,0.3
				c0.5,0.2,1,0.3,1.3,0.5c0.3,0.2,0.6,0.4,0.9,0.7c0.2,0.3,0.4,0.7,0.4,1.3c0,0.4-0.1,0.9-0.3,1.2s-0.6,0.7-1,0.9
				c-0.4,0.2-1,0.3-1.6,0.3C62.3,45.4,61.8,45.3,61.3,45.1z"/>
			<path class="st8" d="M69,36.9v8.4h-1.7v-8.4H69z"/>
			<path class="st8" d="M77.8,45.3h-1.7l-3.8-5.7v5.7h-1.7v-8.4h1.7l3.8,5.8v-5.8h1.7V45.3z"/>
			<path class="st8" d="M81.2,44.8c-0.7-0.4-1.2-0.9-1.6-1.5c-0.4-0.7-0.6-1.4-0.6-2.2c0-0.8,0.2-1.5,0.6-2.2
				c0.4-0.7,0.9-1.2,1.6-1.5c0.7-0.4,1.4-0.6,2.2-0.6c0.8,0,1.5,0.2,2.2,0.6c0.7,0.4,1.2,0.9,1.5,1.5c0.4,0.7,0.6,1.4,0.6,2.2
				c0,0.8-0.2,1.6-0.6,2.2c-0.4,0.7-0.9,1.2-1.6,1.5c-0.7,0.4-1.4,0.6-2.2,0.6S81.8,45.2,81.2,44.8z M84.7,43.5
				c0.4-0.2,0.7-0.6,0.9-1c0.2-0.4,0.3-0.9,0.3-1.5s-0.1-1-0.3-1.5c-0.2-0.4-0.5-0.7-0.9-1c-0.4-0.2-0.8-0.3-1.3-0.3
				c-0.5,0-0.9,0.1-1.3,0.3c-0.4,0.2-0.7,0.5-0.9,1c-0.2,0.4-0.3,0.9-0.3,1.5s0.1,1.1,0.3,1.5c0.2,0.4,0.5,0.8,0.9,1
				c0.4,0.2,0.8,0.3,1.3,0.3C83.8,43.9,84.3,43.8,84.7,43.5z"/>
		</g>
		<g id="Grupo_1884">
			<g>
				<defs>
					<rect id="SVGID_00000018201044881245271310000012679087872329694389_" width="274.4" height="179.2"/>
				</defs>
				<clipPath id="SVGID_00000031173155251518785710000002934506289925960602_">
					<use xlink:href="#SVGID_00000018201044881245271310000012679087872329694389_"  style="overflow:visible;"/>
				</clipPath>
				<g id="Grupo_1883" style="clip-path:url(#SVGID_00000031173155251518785710000002934506289925960602_);">
					<path id="Caminho_2164" class="st12" d="M233.2,179.2h-43.1c-22.8,0-41.2-18.5-41.2-41.2c0-22.8,18.5-41.3,41.2-41.3h43.1
						c22.8,0,41.3,18.5,41.3,41.3C274.4,160.8,256,179.2,233.2,179.2"/>
				</g>
			</g>
		</g>
		<g class="st7">
			<path class="st8" d="M195.4,138h-3.3l-0.6,1.6h-1.8l3-8.4h2l3,8.4H196L195.4,138z M195,136.7l-1.2-3.5l-1.2,3.5H195z"/>
			<path class="st8" d="M204.6,131.2v1.4h-2.2v7h-1.7v-7h-2.2v-1.4H204.6z"/>
			<path class="st8" d="M207.5,132.6v2.1h2.8v1.3h-2.8v2.2h3.2v1.4h-4.9v-8.4h4.9v1.4H207.5z"/>
			<path class="st8" d="M219.4,139.6h-1.7l-3.8-5.7v5.7h-1.7v-8.4h1.7l3.8,5.8v-5.8h1.7V139.6z"/>
			<path class="st8" d="M226.1,137.9c0.3-0.2,0.6-0.5,0.8-0.9h1.9c-0.2,0.8-0.7,1.4-1.3,1.9s-1.3,0.7-2.1,0.8v0.5
				c0.4,0,0.8,0.1,1.1,0.3c0.3,0.2,0.4,0.5,0.4,1c0,0.4-0.2,0.8-0.5,1c-0.3,0.2-0.7,0.3-1.1,0.3h-1.7v-1h1.4c0.2,0,0.3,0,0.4-0.1
				c0.1-0.1,0.2-0.2,0.2-0.3c0-0.1-0.1-0.2-0.2-0.3c-0.1-0.1-0.2-0.1-0.4-0.1h-0.7v-1.4c-0.7-0.1-1.4-0.3-1.9-0.7
				c-0.6-0.4-1-0.9-1.3-1.5c-0.3-0.6-0.5-1.3-0.5-2.1c0-0.8,0.2-1.6,0.6-2.2s0.9-1.2,1.5-1.5c0.6-0.4,1.4-0.5,2.2-0.5
				c0.9,0,1.8,0.2,2.5,0.7c0.7,0.5,1.2,1.1,1.5,2h-1.9c-0.2-0.4-0.5-0.7-0.8-0.9s-0.8-0.3-1.2-0.3c-0.5,0-0.9,0.1-1.3,0.3
				c-0.4,0.2-0.7,0.5-0.9,1s-0.3,0.9-0.3,1.5c0,0.6,0.1,1,0.3,1.5s0.5,0.7,0.9,1c0.4,0.2,0.8,0.3,1.3,0.3
				C225.3,138.2,225.7,138.1,226.1,137.9z"/>
			<path class="st8" d="M235.4,138H232l-0.6,1.6h-1.8l3-8.4h2l3,8.4h-1.8L235.4,138z M232,129.4c0.3-0.3,0.6-0.4,1-0.4
				c0.2,0,0.3,0,0.4,0.1c0.1,0.1,0.3,0.1,0.4,0.2c0.2,0.2,0.4,0.2,0.6,0.2c0.3,0,0.5-0.2,0.5-0.5h0.9c-0.1,0.5-0.2,0.9-0.5,1.2
				c-0.3,0.3-0.6,0.4-1,0.4c-0.2,0-0.3,0-0.4-0.1s-0.3-0.1-0.4-0.2c-0.2-0.2-0.4-0.2-0.6-0.2c-0.3,0-0.5,0.2-0.5,0.5h-0.9
				C231.6,130,231.8,129.7,232,129.4z M234.9,136.7l-1.2-3.5l-1.2,3.5H234.9z"/>
			<path class="st8" d="M240.6,139.1c-0.7-0.4-1.2-0.9-1.6-1.5s-0.6-1.4-0.6-2.2c0-0.8,0.2-1.5,0.6-2.2s0.9-1.2,1.6-1.5
				c0.7-0.4,1.4-0.6,2.2-0.6c0.8,0,1.5,0.2,2.2,0.6c0.7,0.4,1.2,0.9,1.5,1.5c0.4,0.7,0.6,1.4,0.6,2.2c0,0.8-0.2,1.6-0.6,2.2
				c-0.4,0.7-0.9,1.2-1.6,1.5s-1.4,0.6-2.2,0.6S241.2,139.5,240.6,139.1z M244,137.8c0.4-0.2,0.7-0.6,0.9-1c0.2-0.4,0.3-0.9,0.3-1.5
				s-0.1-1-0.3-1.5s-0.5-0.7-0.9-1c-0.4-0.2-0.8-0.3-1.3-0.3c-0.5,0-0.9,0.1-1.3,0.3c-0.4,0.2-0.7,0.5-0.9,1
				c-0.2,0.4-0.3,0.9-0.3,1.5s0.1,1.1,0.3,1.5c0.2,0.4,0.5,0.8,0.9,1c0.4,0.2,0.8,0.3,1.3,0.3C243.2,138.2,243.7,138.1,244,137.8z"
				/>
		</g>
		<g id="Grupo_1886">
			<g>
				<defs>
					<rect id="SVGID_00000090287207170591497310000012048634462399761852_" width="274.4" height="179.2"/>
				</defs>
				<clipPath id="SVGID_00000029036908942112968150000015579014810760108726_">
					<use xlink:href="#SVGID_00000090287207170591497310000012048634462399761852_"  style="overflow:visible;"/>
				</clipPath>
				<g id="Grupo_1885" style="clip-path:url(#SVGID_00000029036908942112968150000015579014810760108726_);">
					<path id="Caminho_2165" class="st14" d="M84.3,179.2H41.2C18.5,179.2,0,160.8,0,138c0-22.8,18.5-41.3,41.2-41.3h43.1
						c22.8,0,41.2,18.5,41.2,41.3C125.6,160.8,107.1,179.2,84.3,179.2"/>
				</g>
			</g>
		</g>
		<g class="st7">
			<path class="st8" d="M32.7,127c0.4-0.7,0.9-1.2,1.5-1.5c0.6-0.4,1.4-0.5,2.2-0.5c0.9,0,1.8,0.2,2.5,0.7c0.7,0.5,1.2,1.1,1.5,2
				h-1.9c-0.2-0.4-0.5-0.7-0.8-0.9c-0.3-0.2-0.8-0.3-1.2-0.3c-0.5,0-0.9,0.1-1.3,0.3c-0.4,0.2-0.7,0.5-0.9,1s-0.3,0.9-0.3,1.5
				c0,0.6,0.1,1,0.3,1.5s0.5,0.7,0.9,1c0.4,0.2,0.8,0.3,1.3,0.3c0.5,0,0.9-0.1,1.2-0.3c0.3-0.2,0.6-0.5,0.8-0.9h1.9
				c-0.3,0.9-0.8,1.5-1.5,2c-0.7,0.5-1.5,0.7-2.5,0.7c-0.8,0-1.5-0.2-2.2-0.5c-0.6-0.4-1.2-0.9-1.5-1.5c-0.4-0.6-0.6-1.4-0.6-2.2
				C32.1,128.4,32.3,127.7,32.7,127z"/>
			<path class="st8" d="M43.5,133c-0.7-0.4-1.2-0.9-1.6-1.5c-0.4-0.7-0.6-1.4-0.6-2.2c0-0.8,0.2-1.5,0.6-2.2
				c0.4-0.7,0.9-1.2,1.6-1.5c0.7-0.4,1.4-0.6,2.2-0.6c0.8,0,1.5,0.2,2.2,0.6c0.7,0.4,1.2,0.9,1.5,1.5c0.4,0.7,0.6,1.4,0.6,2.2
				c0,0.8-0.2,1.6-0.6,2.2c-0.4,0.7-0.9,1.2-1.6,1.5c-0.7,0.4-1.4,0.6-2.2,0.6S44.1,133.3,43.5,133z M47,131.7
				c0.4-0.2,0.7-0.6,0.9-1c0.2-0.4,0.3-0.9,0.3-1.5s-0.1-1-0.3-1.5c-0.2-0.4-0.5-0.7-0.9-1c-0.4-0.2-0.8-0.3-1.3-0.3
				c-0.5,0-0.9,0.1-1.3,0.3c-0.4,0.2-0.7,0.5-0.9,1c-0.2,0.4-0.3,0.9-0.3,1.5s0.1,1.1,0.3,1.5c0.2,0.4,0.5,0.8,0.9,1
				c0.4,0.2,0.8,0.3,1.3,0.3C46.2,132,46.6,131.9,47,131.7z"/>
			<path class="st8" d="M58.3,133.4h-1.7l-3.8-5.7v5.7h-1.7v-8.4h1.7l3.8,5.8v-5.8h1.7V133.4z"/>
			<path class="st8" d="M65.7,125.1v1.4h-2.2v7h-1.7v-7h-2.2v-1.4H65.7z"/>
			<path class="st8" d="M71.2,133.4l-1.8-3.3h-0.8v3.3h-1.7v-8.4h3.1c0.6,0,1.2,0.1,1.7,0.3c0.5,0.2,0.8,0.5,1,0.9
				c0.2,0.4,0.3,0.8,0.3,1.3c0,0.6-0.2,1-0.5,1.5c-0.3,0.4-0.8,0.8-1.4,0.9l2,3.4H71.2z M68.6,128.9H70c0.5,0,0.8-0.1,1-0.3
				c0.2-0.2,0.3-0.5,0.3-0.9c0-0.4-0.1-0.7-0.3-0.9c-0.2-0.2-0.6-0.3-1-0.3h-1.4V128.9z"/>
			<path class="st8" d="M76.3,133c-0.7-0.4-1.2-0.9-1.6-1.5c-0.4-0.7-0.6-1.4-0.6-2.2c0-0.8,0.2-1.5,0.6-2.2
				c0.4-0.7,0.9-1.2,1.6-1.5c0.7-0.4,1.4-0.6,2.2-0.6c0.8,0,1.5,0.2,2.2,0.6c0.7,0.4,1.2,0.9,1.5,1.5c0.4,0.7,0.6,1.4,0.6,2.2
				c0,0.8-0.2,1.6-0.6,2.2c-0.4,0.7-0.9,1.2-1.6,1.5c-0.7,0.4-1.4,0.6-2.2,0.6S77,133.3,76.3,133z M79.8,131.7
				c0.4-0.2,0.7-0.6,0.9-1c0.2-0.4,0.3-0.9,0.3-1.5s-0.1-1-0.3-1.5c-0.2-0.4-0.5-0.7-0.9-1c-0.4-0.2-0.8-0.3-1.3-0.3
				c-0.5,0-0.9,0.1-1.3,0.3c-0.4,0.2-0.7,0.5-0.9,1c-0.2,0.4-0.3,0.9-0.3,1.5s0.1,1.1,0.3,1.5c0.2,0.4,0.5,0.8,0.9,1
				c0.4,0.2,0.8,0.3,1.3,0.3C79,132,79.5,131.9,79.8,131.7z"/>
			<path class="st8" d="M85.7,132.1h2.8v1.3H84v-8.4h1.7V132.1z"/>
			<path class="st8" d="M91.2,126.4v2.1H94v1.3h-2.8v2.2h3.2v1.4h-4.9v-8.4h4.9v1.4H91.2z"/>
		</g>
		<g class="st7">
			<path class="st8" d="M42.4,145.5c-0.5-0.2-0.8-0.5-1.1-0.9c-0.3-0.4-0.4-0.8-0.4-1.3h1.8c0,0.3,0.1,0.6,0.4,0.8
				c0.2,0.2,0.5,0.3,0.9,0.3c0.4,0,0.7-0.1,0.9-0.3c0.2-0.2,0.3-0.4,0.3-0.7c0-0.2-0.1-0.5-0.2-0.6s-0.3-0.3-0.6-0.4
				s-0.5-0.2-0.9-0.3c-0.5-0.2-1-0.3-1.3-0.5s-0.6-0.4-0.9-0.7s-0.4-0.7-0.4-1.3c0-0.5,0.1-0.9,0.4-1.3c0.2-0.4,0.6-0.6,1-0.8
				c0.4-0.2,1-0.3,1.5-0.3c0.9,0,1.6,0.2,2.1,0.6s0.8,1,0.9,1.8H45c0-0.3-0.1-0.5-0.4-0.7c-0.2-0.2-0.5-0.3-0.9-0.3
				c-0.3,0-0.6,0.1-0.8,0.3c-0.2,0.2-0.3,0.4-0.3,0.7c0,0.2,0.1,0.4,0.2,0.6c0.1,0.1,0.3,0.3,0.6,0.4c0.2,0.1,0.5,0.2,0.9,0.3
				c0.5,0.2,1,0.3,1.3,0.5c0.3,0.2,0.6,0.4,0.9,0.7c0.2,0.3,0.4,0.7,0.4,1.3c0,0.4-0.1,0.9-0.3,1.2s-0.6,0.7-1,0.9
				c-0.4,0.2-1,0.3-1.6,0.3C43.4,145.8,42.9,145.7,42.4,145.5z"/>
			<path class="st8" d="M50.1,145.3c-0.7-0.4-1.2-0.9-1.6-1.5c-0.4-0.7-0.6-1.4-0.6-2.2c0-0.8,0.2-1.5,0.6-2.2
				c0.4-0.7,0.9-1.2,1.6-1.5c0.7-0.4,1.4-0.6,2.2-0.6c0.8,0,1.5,0.2,2.2,0.6c0.7,0.4,1.2,0.9,1.5,1.5c0.4,0.7,0.6,1.4,0.6,2.2
				c0,0.8-0.2,1.6-0.6,2.2c-0.4,0.7-0.9,1.2-1.6,1.5c-0.7,0.4-1.4,0.6-2.2,0.6S50.8,145.7,50.1,145.3z M53.6,144
				c0.4-0.2,0.7-0.6,0.9-1c0.2-0.4,0.3-0.9,0.3-1.5s-0.1-1-0.3-1.5c-0.2-0.4-0.5-0.7-0.9-1c-0.4-0.2-0.8-0.3-1.3-0.3
				c-0.5,0-0.9,0.1-1.3,0.3c-0.4,0.2-0.7,0.5-0.9,1c-0.2,0.4-0.3,0.9-0.3,1.5s0.1,1.1,0.3,1.5c0.2,0.4,0.5,0.8,0.9,1
				c0.4,0.2,0.8,0.3,1.3,0.3C52.8,144.3,53.2,144.2,53.6,144z"/>
			<path class="st8" d="M58,139.3c0.4-0.7,0.9-1.2,1.5-1.5c0.6-0.4,1.4-0.5,2.2-0.5c0.9,0,1.8,0.2,2.5,0.7c0.7,0.5,1.2,1.1,1.5,2
				h-1.9c-0.2-0.4-0.5-0.7-0.8-0.9c-0.3-0.2-0.8-0.3-1.2-0.3c-0.5,0-0.9,0.1-1.3,0.3c-0.4,0.2-0.7,0.5-0.9,1s-0.3,0.9-0.3,1.5
				c0,0.6,0.1,1,0.3,1.5s0.5,0.7,0.9,1c0.4,0.2,0.8,0.3,1.3,0.3c0.5,0,0.9-0.1,1.2-0.3c0.3-0.2,0.6-0.5,0.8-0.9h1.9
				c-0.3,0.9-0.8,1.5-1.5,2c-0.7,0.5-1.5,0.7-2.5,0.7c-0.8,0-1.5-0.2-2.2-0.5c-0.6-0.4-1.2-0.9-1.5-1.5c-0.4-0.6-0.6-1.4-0.6-2.2
				C57.4,140.7,57.6,140,58,139.3z"/>
			<path class="st8" d="M68.7,137.4v8.4H67v-8.4H68.7z"/>
			<path class="st8" d="M75.5,144.2h-3.3l-0.6,1.6h-1.8l3-8.4h2l3,8.4h-1.8L75.5,144.2z M75,142.8l-1.2-3.5l-1.2,3.5H75z"/>
			<path class="st8" d="M80.6,144.4h2.8v1.3H79v-8.4h1.7V144.4z"/>
		</g>
		<g id="Grupo_1888">
			<g>
				<defs>
					<rect id="SVGID_00000079443725610753542280000014038412990303879098_" width="274.4" height="179.2"/>
				</defs>
				<clipPath id="SVGID_00000118382452501780595940000000936219073540447894_">
					<use xlink:href="#SVGID_00000079443725610753542280000014038412990303879098_"  style="overflow:visible;"/>
				</clipPath>
				<g id="Grupo_1887" style="clip-path:url(#SVGID_00000118382452501780595940000000936219073540447894_);">
					<path id="Caminho_2166" class="st8" d="M190.5,89.9c0,26.3-21.3,47.7-47.7,47.7c-26.3,0-47.7-21.3-47.7-47.7
						c0-26.3,21.3-47.7,47.7-47.7C169.2,42.3,190.5,63.6,190.5,89.9L190.5,89.9"/>
					<path id="Caminho_2167" class="st16" d="M188,85.9c0,26.3-21.3,47.7-47.7,47.7c-26.3,0-47.7-21.3-47.7-47.7
						c0-26.3,21.3-47.7,47.7-47.7C166.6,38.2,188,59.5,188,85.9L188,85.9"/>
				</g>
			</g>
		</g>
		<g class="st7">
			<path class="st8" d="M126.6,81h-7.3v4h6.4v3.7h-6.4V93h7.3v3.8h-12V77.2h12V81z"/>
		</g>
		<g class="st7">
			<path class="st8" d="M138.3,89.8h-3v7.1h-4.8V77.2h7.8c4.8,0,7.2,2.7,7.2,6.3C145.5,86.7,143.3,89.8,138.3,89.8z M137.9,86
				c1.9,0,2.7-1,2.7-2.5s-0.8-2.5-2.7-2.5h-2.6V86H137.9z"/>
		</g>
		<g class="st7">
			<path class="st8" d="M155.9,97c-4.2,0-7.5-2.1-7.7-6.1h5.1c0.1,1.5,1.1,2.2,2.4,2.2c1.4,0,2.3-0.7,2.3-1.8c0-3.6-9.8-1.7-9.8-8.7
				c0-3.7,3.1-5.8,7.2-5.8c4.3,0,7.2,2.1,7.4,5.9h-5.2c-0.1-1.3-1-2-2.3-2c-1.1,0-2,0.6-2,1.8c0,3.4,9.7,1.9,9.7,8.5
				C163.1,94.3,160.5,97,155.9,97z"/>
		</g>
	</g>
	<g class="st7">
		<path class="st17" d="M619.6,260.1h-1.3c-0.5-1-1.4-1.5-2.5-1.5c-1.8,0-3.1,1.3-3.1,3.3c0,2,1.3,3.3,3.1,3.3
			c1.6,0,2.8-1.1,2.9-2.7h-3.3v-0.9h4.5v0.8c-0.2,2.1-1.8,3.7-4.1,3.7c-2.3,0-4.2-1.8-4.2-4.3s1.8-4.3,4.2-4.3
			C617.5,257.5,618.9,258.5,619.6,260.1z"/>
		<path class="st17" d="M624.1,266.1c-1.9,0-3.2-1.3-3.2-3.4c0-2.1,1.3-3.4,3.2-3.4c1.9,0,3.2,1.3,3.2,3.1c0,0.2,0,0.4,0,0.7H622
			c0.1,1.3,1,2.1,2.1,2.1c1,0,1.6-0.5,1.8-1.2h1.2C626.8,265.2,625.7,266.1,624.1,266.1z M622,262.2h4.2c0-1.3-0.9-2-2.1-2
			C623,260.2,622.1,261,622,262.2z"/>
		<path class="st17" d="M631,266.1c-1.5,0-2.6-0.8-2.7-2h1.1c0.1,0.6,0.6,1.1,1.5,1.1c0.9,0,1.3-0.4,1.3-1c0-1.5-3.9-0.6-3.9-3.1
			c0-1,0.9-1.8,2.4-1.8c1.5,0,2.4,0.8,2.5,2.1h-1.1c0-0.7-0.6-1.1-1.4-1.1c-0.8,0-1.3,0.4-1.3,0.9c0,1.6,3.8,0.7,3.9,3.1
			C633.4,265.3,632.5,266.1,631,266.1z"/>
		<path class="st17" d="M635.2,260.3h-0.9v-0.9h0.9v-1.7h1.1v1.7h1.7v0.9h-1.7v3.9c0,0.6,0.2,0.9,0.9,0.9h0.8v0.9h-1
			c-1.2,0-1.8-0.5-1.8-1.8V260.3z"/>
		<path class="st17" d="M642.2,266.1c-1.9,0-3.3-1.3-3.3-3.4c0-2.1,1.5-3.4,3.3-3.4c1.9,0,3.3,1.3,3.3,3.4
			C645.6,264.8,644.1,266.1,642.2,266.1z M642.2,265.1c1.1,0,2.3-0.8,2.3-2.4c0-1.7-1.1-2.4-2.2-2.4c-1.2,0-2.2,0.8-2.2,2.4
			C640,264.4,641.1,265.1,642.2,265.1z"/>
		<path class="st17" d="M648.1,266H647v-6.6h1.1v1.1c0.4-0.7,1.1-1.2,2.1-1.2v1.1h-0.3c-1,0-1.8,0.5-1.8,2V266z"/>
		<path class="st17" d="M654.3,266.1c-1.9,0-3.3-1.3-3.3-3.4c0-2.1,1.3-3.4,3.3-3.4c1.9,0,3.2,1.3,3.2,3.1c0,0.2,0,0.4,0,0.7h-5.3
			c0.1,1.3,1,2.1,2.1,2.1c1,0,1.6-0.5,1.8-1.2h1.2C657,265.2,656,266.1,654.3,266.1z M652.2,262.2h4.1c0-1.3-0.9-2-2.1-2
			C653.2,260.2,652.3,261,652.2,262.2z"/>
		<path class="st17" d="M661.3,266.1c-1.5,0-2.6-0.8-2.7-2h1.1c0.1,0.6,0.6,1.1,1.5,1.1c0.9,0,1.3-0.4,1.3-1c0-1.5-3.9-0.6-3.9-3.1
			c0-1,0.9-1.8,2.4-1.8c1.5,0,2.4,0.8,2.5,2.1h-1.1c0-0.7-0.6-1.1-1.4-1.1c-0.8,0-1.3,0.4-1.3,0.9c0,1.6,3.8,0.7,3.9,3.1
			C663.7,265.3,662.7,266.1,661.3,266.1z"/>
		<path class="st17" d="M671.2,266.1c-1.9,0-3.3-1.3-3.3-3.4c0-2.1,1.3-3.4,3.3-3.4c1.9,0,3.2,1.3,3.2,3.1c0,0.2,0,0.4,0,0.7h-5.3
			c0.1,1.3,1,2.1,2.1,2.1c1,0,1.6-0.5,1.8-1.2h1.2C673.9,265.2,672.9,266.1,671.2,266.1z M669.1,262.2h4.1c0-1.3-0.9-2-2.1-2
			C670.1,260.2,669.2,261,669.1,262.2z"/>
		<path class="st17" d="M678.2,266.1c-1.5,0-2.6-0.8-2.7-2h1.1c0.1,0.6,0.6,1.1,1.5,1.1c0.9,0,1.3-0.4,1.3-1c0-1.5-3.9-0.6-3.9-3.1
			c0-1,0.9-1.8,2.4-1.8c1.5,0,2.4,0.8,2.5,2.1h-1.1c0-0.7-0.6-1.1-1.4-1.1c-0.8,0-1.3,0.4-1.3,0.9c0,1.6,3.8,0.7,3.9,3.1
			C680.6,265.3,679.6,266.1,678.2,266.1z"/>
		<path class="st17" d="M682.3,260.3h-0.9v-0.9h0.9v-1.7h1.1v1.7h1.7v0.9h-1.7v3.9c0,0.6,0.2,0.9,0.9,0.9h0.8v0.9h-1
			c-1.2,0-1.8-0.5-1.8-1.8V260.3z"/>
		<path class="st17" d="M689.2,259.3c1.2,0,2.1,0.6,2.4,1.3v-1.2h1.1v6.6h-1.1v-1.2c-0.4,0.7-1.2,1.3-2.5,1.3
			c-1.8,0-3.1-1.4-3.1-3.4C686.1,260.6,687.4,259.3,689.2,259.3z M689.4,260.3c-1.2,0-2.2,0.9-2.2,2.4c0,1.5,1,2.5,2.2,2.5
			s2.2-0.9,2.2-2.4C691.6,261.2,690.6,260.3,689.4,260.3z"/>
		<path class="st17" d="M697.3,259.3c1,0,2,0.5,2.4,1.3v-3.5h1.1v8.9h-1.1v-1.2c-0.4,0.7-1.2,1.3-2.4,1.3c-1.8,0-3.1-1.4-3.1-3.4
			C694.2,260.6,695.5,259.3,697.3,259.3z M697.5,260.3c-1.2,0-2.2,0.9-2.2,2.4c0,1.5,1,2.5,2.2,2.5c1.2,0,2.2-0.9,2.2-2.4
			C699.7,261.2,698.7,260.3,697.5,260.3z"/>
		<path class="st17" d="M708.5,266h-1.1v-1c-0.4,0.7-1.2,1.1-2.1,1.1c-1.5,0-2.7-0.9-2.7-2.8v-3.8h1.1v3.7c0,1.3,0.7,2,1.8,2
			c1.1,0,1.9-0.7,1.9-2.1v-3.6h1.1V266z"/>
		<path class="st17" d="M713.1,259.3c1.2,0,2.1,0.6,2.4,1.3v-1.2h1.1v6.6h-1.1v-1.2c-0.4,0.7-1.2,1.3-2.5,1.3
			c-1.8,0-3.1-1.4-3.1-3.4C710,260.6,711.3,259.3,713.1,259.3z M713.3,260.3c-1.2,0-2.2,0.9-2.2,2.4c0,1.5,1,2.5,2.2,2.5
			s2.2-0.9,2.2-2.4C715.5,261.2,714.5,260.3,713.3,260.3z"/>
		<path class="st17" d="M718.3,257.6c0-0.4,0.3-0.7,0.7-0.7c0.4,0,0.7,0.3,0.7,0.7c0,0.4-0.3,0.7-0.7,0.7
			C718.6,258.4,718.3,258,718.3,257.6z M718.5,259.4h1.1v6.6h-1.1V259.4z"/>
		<path class="st17" d="M723.8,266.1c-1.5,0-2.6-0.8-2.7-2h1.1c0.1,0.6,0.6,1.1,1.5,1.1c0.9,0,1.3-0.4,1.3-1c0-1.5-3.9-0.6-3.9-3.1
			c0-1,0.9-1.8,2.4-1.8c1.5,0,2.4,0.8,2.5,2.1H725c0-0.7-0.6-1.1-1.4-1.1c-0.8,0-1.3,0.4-1.3,0.9c0,1.6,3.8,0.7,3.9,3.1
			C726.2,265.3,725.2,266.1,723.8,266.1z"/>
		<path class="st17" d="M733.7,266.1c-1.9,0-3.2-1.3-3.2-3.4c0-2.1,1.3-3.4,3.2-3.4c1.9,0,3.2,1.3,3.2,3.1c0,0.2,0,0.4,0,0.7h-5.3
			c0.1,1.3,1,2.1,2.1,2.1c1,0,1.6-0.5,1.8-1.2h1.2C736.4,265.2,735.4,266.1,733.7,266.1z M731.6,262.2h4.2c0-1.3-0.9-2-2.1-2
			C732.6,260.2,731.7,261,731.6,262.2z"/>
	</g>
	<g class="st7">
		<path class="st17" d="M621.4,276.3c0-1.3-0.7-2-1.8-2c-1.1,0-1.9,0.7-1.9,2.1v3.6h-1.1v-3.7c0-1.3-0.7-2-1.8-2
			c-1.1,0-1.9,0.7-1.9,2.1v3.6h-1.1v-6.6h1.1v0.9c0.4-0.7,1.2-1.1,2.1-1.1c1.1,0,2,0.5,2.4,1.5c0.4-0.9,1.3-1.5,2.3-1.5
			c1.5,0,2.7,0.9,2.7,2.8v3.9h-1.1V276.3z"/>
		<path class="st17" d="M630.1,280H629v-1c-0.4,0.7-1.2,1.1-2.1,1.1c-1.5,0-2.7-0.9-2.7-2.8v-3.8h1.1v3.7c0,1.3,0.7,2,1.8,2
			c1.1,0,1.9-0.7,1.9-2.1v-3.6h1.1V280z"/>
		<path class="st17" d="M636.8,276.3c0-1.3-0.7-2-1.8-2c-1.1,0-1.9,0.7-1.9,2.1v3.6H632v-6.6h1.1v0.9c0.4-0.7,1.2-1.1,2.1-1.1
			c1.5,0,2.7,0.9,2.7,2.8v3.9h-1.1V276.3z"/>
		<path class="st17" d="M639.5,271.6c0-0.4,0.3-0.7,0.7-0.7c0.4,0,0.7,0.3,0.7,0.7c0,0.4-0.3,0.7-0.7,0.7
			C639.8,272.4,639.5,272,639.5,271.6z M639.6,273.4h1.1v6.6h-1.1V273.4z"/>
		<path class="st17" d="M645.4,273.3c1.6,0,2.7,0.8,3,2.2h-1.2c-0.2-0.8-0.9-1.3-1.9-1.3c-1.2,0-2.1,0.9-2.1,2.5
			c0,1.6,0.9,2.5,2.1,2.5c1,0,1.6-0.5,1.9-1.3h1.2c-0.3,1.3-1.4,2.2-3,2.2c-1.9,0-3.2-1.3-3.2-3.4
			C642.2,274.6,643.5,273.3,645.4,273.3z"/>
		<path class="st17" d="M649.7,271.6c0-0.4,0.3-0.7,0.7-0.7c0.4,0,0.7,0.3,0.7,0.7c0,0.4-0.3,0.7-0.7,0.7
			C650,272.4,649.7,272,649.7,271.6z M649.9,273.4h1.1v6.6h-1.1V273.4z"/>
		<path class="st17" d="M656.4,273.3c1.8,0,3.1,1.3,3.1,3.4c0,2-1.4,3.4-3.1,3.4c-1.2,0-2.1-0.6-2.5-1.3v4.3h-1.1v-9.7h1.1v1.2
			C654.3,273.9,655.2,273.3,656.4,273.3z M656.2,274.3c-1.2,0-2.2,0.9-2.2,2.4c0,1.5,1,2.4,2.2,2.4c1.2,0,2.2-0.9,2.2-2.5
			C658.4,275.1,657.4,274.3,656.2,274.3z"/>
		<path class="st17" d="M663.7,273.3c1.2,0,2.1,0.6,2.4,1.3v-1.2h1.1v6.6h-1.1v-1.2c-0.4,0.7-1.2,1.3-2.5,1.3
			c-1.8,0-3.1-1.4-3.1-3.4C660.5,274.6,661.9,273.3,663.7,273.3z M663.9,274.3c-1.2,0-2.2,0.9-2.2,2.4c0,1.5,1,2.5,2.2,2.5
			s2.2-0.9,2.2-2.4C666.1,275.2,665.1,274.3,663.9,274.3z"/>
		<path class="st17" d="M668.9,271.6c0-0.4,0.3-0.7,0.7-0.7c0.4,0,0.7,0.3,0.7,0.7c0,0.4-0.3,0.7-0.7,0.7
			C669.2,272.4,668.9,272,668.9,271.6z M669.1,273.4h1.1v6.6h-1.1V273.4z"/>
		<path class="st17" d="M674.3,280.1c-1.5,0-2.6-0.8-2.7-2h1.1c0.1,0.6,0.6,1.1,1.5,1.1c0.9,0,1.3-0.4,1.3-1c0-1.5-3.9-0.6-3.9-3.1
			c0-1,0.9-1.8,2.4-1.8c1.5,0,2.4,0.8,2.5,2.1h-1.1c0-0.7-0.6-1.1-1.4-1.1c-0.8,0-1.3,0.4-1.3,0.9c0,1.6,3.8,0.7,3.9,3.1
			C676.7,279.3,675.8,280.1,674.3,280.1z"/>
		<path class="st17" d="M684.2,273.3c1,0,2,0.5,2.4,1.3v-3.5h1.1v8.9h-1.1v-1.2c-0.4,0.7-1.2,1.3-2.4,1.3c-1.8,0-3.1-1.4-3.1-3.4
			C681.1,274.6,682.4,273.3,684.2,273.3z M684.4,274.3c-1.2,0-2.2,0.9-2.2,2.4c0,1.5,1,2.5,2.2,2.5c1.2,0,2.2-0.9,2.2-2.4
			C686.6,275.2,685.6,274.3,684.4,274.3z"/>
		<path class="st17" d="M692.4,280.1c-1.9,0-3.3-1.3-3.3-3.4c0-2.1,1.3-3.4,3.3-3.4c1.9,0,3.2,1.3,3.2,3.1c0,0.2,0,0.4,0,0.7h-5.3
			c0.1,1.3,1,2.1,2.1,2.1c1,0,1.6-0.5,1.8-1.2h1.2C695.1,279.2,694.1,280.1,692.4,280.1z M690.3,276.2h4.1c0-1.3-0.9-2-2.1-2
			C691.3,274.2,690.4,275,690.3,276.2z"/>
		<path class="st17" d="M702.6,280.1c-1.5,0-2.6-0.8-2.7-2h1.1c0.1,0.6,0.6,1.1,1.5,1.1c0.9,0,1.3-0.4,1.3-1c0-1.5-3.9-0.6-3.9-3.1
			c0-1,0.9-1.8,2.4-1.8c1.5,0,2.4,0.8,2.5,2.1h-1.1c0-0.7-0.6-1.1-1.4-1.1c-0.8,0-1.3,0.4-1.3,0.9c0,1.6,3.8,0.7,3.9,3.1
			C705,279.3,704,280.1,702.6,280.1z"/>
		<path class="st17" d="M709.2,273.3c1.2,0,2.1,0.6,2.4,1.3v-1.2h1.1v6.6h-1.1v-1.2c-0.4,0.7-1.2,1.3-2.5,1.3
			c-1.8,0-3.1-1.4-3.1-3.4C706.1,274.6,707.4,273.3,709.2,273.3z M709.4,274.3c-1.2,0-2.2,0.9-2.2,2.4c0,1.5,1,2.5,2.2,2.5
			c1.2,0,2.2-0.9,2.2-2.4C711.7,275.2,710.6,274.3,709.4,274.3z"/>
		<path class="st17" d="M720.4,280h-1.1v-1c-0.4,0.7-1.2,1.1-2.1,1.1c-1.5,0-2.7-0.9-2.7-2.8v-3.8h1.1v3.7c0,1.3,0.7,2,1.8,2
			c1.1,0,1.9-0.7,1.9-2.1v-3.6h1.1V280z M718.7,270.6v0.9l-2.6,1.4v-0.8L718.7,270.6z"/>
		<path class="st17" d="M725,273.3c1,0,2,0.5,2.4,1.3v-3.5h1.1v8.9h-1.1v-1.2c-0.4,0.7-1.2,1.3-2.4,1.3c-1.8,0-3.1-1.4-3.1-3.4
			C721.9,274.6,723.2,273.3,725,273.3z M725.2,274.3c-1.2,0-2.2,0.9-2.2,2.4c0,1.5,1,2.5,2.2,2.5s2.2-0.9,2.2-2.4
			C727.4,275.2,726.4,274.3,725.2,274.3z"/>
		<path class="st17" d="M733.2,280.1c-1.9,0-3.2-1.3-3.2-3.4c0-2.1,1.3-3.4,3.2-3.4c1.9,0,3.2,1.3,3.2,3.1c0,0.2,0,0.4,0,0.7h-5.3
			c0.1,1.3,1,2.1,2.1,2.1c1,0,1.6-0.5,1.8-1.2h1.2C735.9,279.2,734.9,280.1,733.2,280.1z M731.1,276.2h4.2c0-1.3-0.9-2-2.1-2
			C732.1,274.2,731.2,275,731.1,276.2z"/>
	</g>
	<g class="st7">
		<path class="st17" d="M615.7,290.7c1.8,0,3.2,0.9,3.9,2.5h-1.3c-0.5-1-1.3-1.6-2.6-1.6c-1.8,0-3.1,1.3-3.1,3.3
			c0,2,1.3,3.3,3.1,3.3c1.2,0,2.1-0.6,2.6-1.6h1.3c-0.6,1.6-2.1,2.5-3.9,2.5c-2.3,0-4.2-1.8-4.2-4.3S613.4,290.7,615.7,290.7z"/>
		<path class="st17" d="M624.1,299.2c-1.9,0-3.3-1.3-3.3-3.4c0-2.1,1.5-3.4,3.3-3.4c1.9,0,3.3,1.3,3.3,3.4
			C627.4,297.9,625.9,299.2,624.1,299.2z M624.1,298.3c1.1,0,2.3-0.8,2.3-2.4c0-1.7-1.1-2.4-2.2-2.4c-1.2,0-2.2,0.8-2.2,2.4
			C621.9,297.5,622.9,298.3,624.1,298.3z"/>
		<path class="st17" d="M638.4,295.4c0-1.3-0.7-2-1.8-2c-1.1,0-1.9,0.7-1.9,2.1v3.6h-1.1v-3.7c0-1.3-0.7-2-1.8-2
			c-1.1,0-1.9,0.7-1.9,2.1v3.6h-1.1v-6.6h1.1v0.9c0.4-0.7,1.2-1.1,2.1-1.1c1.1,0,2,0.5,2.4,1.5c0.4-0.9,1.3-1.5,2.3-1.5
			c1.5,0,2.7,0.9,2.7,2.8v3.9h-1.1V295.4z"/>
		<path class="st17" d="M641,290.7c0-0.4,0.3-0.7,0.7-0.7c0.4,0,0.7,0.3,0.7,0.7c0,0.4-0.3,0.7-0.7,0.7
			C641.4,291.5,641,291.2,641,290.7z M641.2,292.6h1.1v6.6h-1.1V292.6z"/>
		<path class="st17" d="M646.5,299.2c-1.5,0-2.6-0.8-2.7-2h1.1c0.1,0.6,0.6,1.1,1.5,1.1c0.9,0,1.3-0.4,1.3-1c0-1.5-3.9-0.6-3.9-3.1
			c0-1,0.9-1.8,2.4-1.8c1.5,0,2.4,0.8,2.5,2.1h-1.1c0-0.7-0.6-1.1-1.4-1.1c-0.8,0-1.3,0.4-1.3,0.9c0,1.6,3.8,0.7,3.9,3.1
			C648.9,298.4,648,299.2,646.5,299.2z"/>
		<path class="st17" d="M652.8,299.2c-1.5,0-2.6-0.8-2.7-2h1.1c0.1,0.6,0.6,1.1,1.5,1.1c0.9,0,1.3-0.4,1.3-1c0-1.5-3.9-0.6-3.9-3.1
			c0-1,0.9-1.8,2.4-1.8c1.5,0,2.4,0.8,2.5,2.1H654c0-0.7-0.6-1.1-1.4-1.1c-0.8,0-1.3,0.4-1.3,0.9c0,1.6,3.8,0.7,3.9,3.1
			C655.2,298.4,654.2,299.2,652.8,299.2z"/>
		<path class="st17" d="M659.6,299.2c-1.9,0-3.3-1.3-3.3-3.4c0-2.1,1.5-3.4,3.3-3.4c1.9,0,3.3,1.3,3.3,3.4
			C662.9,297.9,661.4,299.2,659.6,299.2z M659.6,298.3c1.1,0,2.3-0.8,2.3-2.4c0-1.7-1.1-2.4-2.2-2.4c-1.2,0-2.2,0.8-2.2,2.4
			C657.4,297.5,658.4,298.3,659.6,298.3z M659.1,290.5c0.6,0,0.9,0.6,1.4,0.6c0.3,0,0.5-0.2,0.5-0.5h0.6c-0.1,0.8-0.6,1.2-1.2,1.2
			c-0.6,0-0.9-0.6-1.4-0.6c-0.3,0-0.5,0.2-0.5,0.5h-0.6C658,290.9,658.4,290.5,659.1,290.5z"/>
		<path class="st17" d="M667.2,299.2c-1.9,0-3.3-1.3-3.3-3.4c0-2.1,1.3-3.4,3.3-3.4c1.9,0,3.2,1.3,3.2,3.1c0,0.2,0,0.4,0,0.7h-5.3
			c0.1,1.3,1,2.1,2.1,2.1c1,0,1.6-0.5,1.8-1.2h1.2C669.9,298.3,668.9,299.2,667.2,299.2z M665.1,295.4h4.1c0-1.3-0.9-2-2.1-2
			C666.1,293.4,665.2,294.1,665.1,295.4z"/>
		<path class="st17" d="M674.2,299.2c-1.5,0-2.6-0.8-2.7-2h1.1c0.1,0.6,0.6,1.1,1.5,1.1c0.9,0,1.3-0.4,1.3-1c0-1.5-3.9-0.6-3.9-3.1
			c0-1,0.9-1.8,2.4-1.8c1.5,0,2.4,0.8,2.5,2.1h-1.1c0-0.7-0.6-1.1-1.4-1.1c-0.8,0-1.3,0.4-1.3,0.9c0,1.6,3.8,0.7,3.9,3.1
			C676.6,298.4,675.6,299.2,674.2,299.2z"/>
	</g>
	<circle id="Elipse_38" class="st6" cx="603.5" cy="262.5" r="2.5"/>
	<circle id="Elipse_43" class="st6" cx="603.5" cy="294.5" r="2.5"/>
	<g id="Grupo_1893" transform="translate(0 8)">
		<g class="st7">
			<path class="st17" d="M167.7,253.5c1.8,0,3.2,0.9,3.9,2.5h-1.3c-0.5-1-1.3-1.6-2.6-1.6c-1.8,0-3.1,1.3-3.1,3.3
				c0,2,1.3,3.3,3.1,3.3c1.2,0,2.1-0.6,2.6-1.6h1.3c-0.6,1.6-2.1,2.5-3.9,2.5c-2.3,0-4.2-1.8-4.2-4.3
				C163.5,255.3,165.4,253.5,167.7,253.5z"/>
			<path class="st17" d="M176,262.1c-1.9,0-3.3-1.3-3.3-3.4c0-2.1,1.3-3.4,3.3-3.4c1.9,0,3.2,1.3,3.2,3.1c0,0.2,0,0.4,0,0.7h-5.3
				c0.1,1.3,1,2.1,2.1,2.1c1,0,1.6-0.5,1.8-1.2h1.2C178.7,261.2,177.7,262.1,176,262.1z M173.9,258.2h4.1c0-1.3-0.9-2-2.1-2
				C174.9,256.2,174,257,173.9,258.2z"/>
			<path class="st17" d="M185.4,258.3c0-1.3-0.7-2-1.8-2c-1.1,0-1.9,0.7-1.9,2.1v3.6h-1.1v-6.6h1.1v0.9c0.4-0.7,1.2-1.1,2.1-1.1
				c1.5,0,2.7,0.9,2.7,2.8v3.9h-1.1V258.3z"/>
			<path class="st17" d="M188.5,256.3h-0.9v-0.9h0.9v-1.7h1.1v1.7h1.7v0.9h-1.7v3.9c0,0.6,0.2,0.9,0.9,0.9h0.8v0.9h-1
				c-1.2,0-1.8-0.5-1.8-1.8V256.3z"/>
			<path class="st17" d="M193.8,262h-1.1v-6.6h1.1v1.1c0.4-0.7,1.1-1.2,2.1-1.2v1.1h-0.3c-1,0-1.8,0.5-1.8,2V262z"/>
			<path class="st17" d="M200,262.1c-1.9,0-3.3-1.3-3.3-3.4c0-2.1,1.5-3.4,3.3-3.4c1.9,0,3.3,1.3,3.3,3.4
				C203.4,260.8,201.9,262.1,200,262.1z M200,261.1c1.1,0,2.3-0.8,2.3-2.4c0-1.7-1.1-2.4-2.2-2.4c-1.2,0-2.2,0.8-2.2,2.4
				C197.9,260.4,198.9,261.1,200,261.1z"/>
			<path class="st17" d="M207.2,262.1c-1.5,0-2.6-0.8-2.7-2h1.1c0.1,0.6,0.6,1.1,1.5,1.1c0.9,0,1.3-0.4,1.3-1c0-1.5-3.9-0.6-3.9-3.1
				c0-1,0.9-1.8,2.4-1.8c1.5,0,2.4,0.8,2.5,2.1h-1.1c0-0.7-0.6-1.1-1.4-1.1c-0.8,0-1.3,0.4-1.3,0.9c0,1.6,3.8,0.7,3.9,3.1
				C209.6,261.3,208.6,262.1,207.2,262.1z"/>
			<path class="st17" d="M217,255.3c1.2,0,2.1,0.6,2.4,1.3v-1.2h1.1v6.6h-1.1v-1.2c-0.4,0.7-1.2,1.3-2.5,1.3c-1.8,0-3.1-1.4-3.1-3.4
				C213.9,256.6,215.2,255.3,217,255.3z M217.2,256.3c-1.2,0-2.2,0.9-2.2,2.4c0,1.5,1,2.5,2.2,2.5c1.2,0,2.2-0.9,2.2-2.4
				C219.5,257.2,218.4,256.3,217.2,256.3z"/>
			<path class="st17" d="M225.2,255.3c1.6,0,2.7,0.8,3,2.2h-1.2c-0.2-0.8-0.9-1.3-1.9-1.3c-1.2,0-2.1,0.9-2.1,2.5
				c0,1.6,0.9,2.5,2.1,2.5c1,0,1.6-0.5,1.9-1.3h1.2c-0.3,1.3-1.4,2.2-3,2.2c-1.9,0-3.2-1.3-3.2-3.4
				C222,256.6,223.3,255.3,225.2,255.3z"/>
			<path class="st17" d="M232.4,255.3c1.2,0,2.1,0.6,2.4,1.3v-1.2h1.1v6.6h-1.1v-1.2c-0.4,0.7-1.2,1.3-2.5,1.3
				c-1.8,0-3.1-1.4-3.1-3.4C229.3,256.6,230.6,255.3,232.4,255.3z M232.6,256.3c-1.2,0-2.2,0.9-2.2,2.4c0,1.5,1,2.5,2.2,2.5
				c1.2,0,2.2-0.9,2.2-2.4C234.9,257.2,233.8,256.3,232.6,256.3z"/>
			<path class="st17" d="M240.5,255.3c1,0,2,0.5,2.4,1.3v-3.5h1.1v8.9H243v-1.2c-0.4,0.7-1.2,1.3-2.4,1.3c-1.8,0-3.1-1.4-3.1-3.4
				C237.4,256.6,238.8,255.3,240.5,255.3z M240.7,256.3c-1.2,0-2.2,0.9-2.2,2.4c0,1.5,1,2.5,2.2,2.5c1.2,0,2.2-0.9,2.2-2.4
				C243,257.2,241.9,256.3,240.7,256.3z"/>
			<path class="st17" d="M248.8,262.1c-1.9,0-3.3-1.3-3.3-3.4c0-2.1,1.3-3.4,3.3-3.4c1.9,0,3.2,1.3,3.2,3.1c0,0.2,0,0.4,0,0.7h-5.3
				c0.1,1.3,1,2.1,2.1,2.1c1,0,1.6-0.5,1.8-1.2h1.2C251.4,261.2,250.4,262.1,248.8,262.1z M246.6,258.2h4.1c0-1.3-0.9-2-2.1-2
				C247.6,256.2,246.8,257,246.6,258.2z M250.4,254.8l-1.7-1l-1.7,1V254l1.7-1l1.7,1V254.8z"/>
			<path class="st17" d="M262.8,258.3c0-1.3-0.7-2-1.8-2c-1.1,0-1.9,0.7-1.9,2.1v3.6h-1.1v-3.7c0-1.3-0.7-2-1.8-2
				c-1.1,0-1.9,0.7-1.9,2.1v3.6h-1.1v-6.6h1.1v0.9c0.4-0.7,1.2-1.1,2.1-1.1c1.1,0,2,0.5,2.4,1.5c0.4-0.9,1.3-1.5,2.3-1.5
				c1.5,0,2.7,0.9,2.7,2.8v3.9h-1.1V258.3z"/>
			<path class="st17" d="M265.5,253.6c0-0.4,0.3-0.7,0.7-0.7c0.4,0,0.7,0.3,0.7,0.7c0,0.4-0.3,0.7-0.7,0.7
				C265.9,254.4,265.5,254,265.5,253.6z M265.7,255.4h1.1v6.6h-1.1V255.4z"/>
			<path class="st17" d="M271.5,255.3c1.6,0,2.7,0.8,3,2.2h-1.2c-0.2-0.8-0.9-1.3-1.9-1.3c-1.2,0-2.1,0.9-2.1,2.5
				c0,1.6,0.9,2.5,2.1,2.5c1,0,1.6-0.5,1.9-1.3h1.2c-0.3,1.3-1.4,2.2-3,2.2c-1.9,0-3.2-1.3-3.2-3.4
				C268.3,256.6,269.6,255.3,271.5,255.3z"/>
			<path class="st17" d="M278.8,262.1c-1.9,0-3.3-1.3-3.3-3.4c0-2.1,1.5-3.4,3.3-3.4c1.9,0,3.3,1.3,3.3,3.4
				C282.2,260.8,280.7,262.1,278.8,262.1z M278.8,261.1c1.1,0,2.3-0.8,2.3-2.4c0-1.7-1.1-2.4-2.2-2.4c-1.2,0-2.2,0.8-2.2,2.4
				C276.7,260.4,277.7,261.1,278.8,261.1z"/>
			<path class="st17" d="M286,262.1c-1.5,0-2.6-0.8-2.7-2h1.1c0.1,0.6,0.6,1.1,1.5,1.1c0.9,0,1.3-0.4,1.3-1c0-1.5-3.9-0.6-3.9-3.1
				c0-1,0.9-1.8,2.4-1.8c1.5,0,2.4,0.8,2.5,2.1h-1.1c0-0.7-0.6-1.1-1.4-1.1c-0.8,0-1.3,0.4-1.3,0.9c0,1.6,3.8,0.7,3.9,3.1
				C288.4,261.3,287.4,262.1,286,262.1z"/>
		</g>
		<g class="st7">
			<path class="st17" d="M163.9,276.6h1.1v5.3c0,1.5,0.8,2.2,2.1,2.2s2.1-0.7,2.1-2.2v-5.3h1.1v5.3c0,2.2-1.4,3.2-3.2,3.2
				s-3.1-1-3.1-3.2V276.6z"/>
			<path class="st17" d="M176.8,281.3c0-1.3-0.7-2-1.8-2c-1.1,0-1.9,0.7-1.9,2.1v3.6H172v-6.6h1.1v0.9c0.4-0.7,1.2-1.1,2.1-1.1
				c1.5,0,2.7,0.9,2.7,2.8v3.9h-1.1V281.3z"/>
			<path class="st17" d="M179.5,276.6c0-0.4,0.3-0.7,0.7-0.7c0.4,0,0.7,0.3,0.7,0.7c0,0.4-0.3,0.7-0.7,0.7
				C179.8,277.4,179.5,277,179.5,276.6z M179.7,278.4h1.1v6.6h-1.1V278.4z"/>
			<path class="st17" d="M183.1,278.4l2.1,5.6l2-5.6h1.2l-2.6,6.6h-1.3l-2.6-6.6H183.1z"/>
			<path class="st17" d="M192.2,285.1c-1.9,0-3.3-1.3-3.3-3.4c0-2.1,1.3-3.4,3.3-3.4c1.9,0,3.2,1.3,3.2,3.1c0,0.2,0,0.4,0,0.7h-5.3
				c0.1,1.3,1,2.1,2.1,2.1c1,0,1.6-0.5,1.8-1.2h1.2C194.9,284.2,193.9,285.1,192.2,285.1z M190.1,281.2h4.1c0-1.3-0.9-2-2.1-2
				C191.1,279.2,190.2,280,190.1,281.2z"/>
			<path class="st17" d="M197.9,285h-1.1v-6.6h1.1v1.1c0.4-0.7,1.1-1.2,2.1-1.2v1.1h-0.3c-1,0-1.8,0.5-1.8,2V285z"/>
			<path class="st17" d="M203.6,285.1c-1.5,0-2.6-0.8-2.7-2h1.1c0.1,0.6,0.6,1.1,1.5,1.1c0.9,0,1.3-0.4,1.3-1c0-1.5-3.9-0.6-3.9-3.1
				c0-1,0.9-1.8,2.4-1.8c1.5,0,2.4,0.8,2.5,2.1h-1.1c0-0.7-0.6-1.1-1.4-1.1c-0.8,0-1.3,0.4-1.3,0.9c0,1.6,3.8,0.7,3.9,3.1
				C206,284.3,205.1,285.1,203.6,285.1z"/>
			<path class="st17" d="M207.4,276.6c0-0.4,0.3-0.7,0.7-0.7c0.4,0,0.7,0.3,0.7,0.7c0,0.4-0.3,0.7-0.7,0.7
				C207.7,277.4,207.4,277,207.4,276.6z M207.6,278.4h1.1v6.6h-1.1V278.4z"/>
			<path class="st17" d="M213.2,278.3c1,0,2,0.5,2.4,1.3v-3.5h1.1v8.9h-1.1v-1.2c-0.4,0.7-1.2,1.3-2.4,1.3c-1.8,0-3.1-1.4-3.1-3.4
				C210.1,279.6,211.5,278.3,213.2,278.3z M213.4,279.3c-1.2,0-2.2,0.9-2.2,2.4c0,1.5,1,2.5,2.2,2.5c1.2,0,2.2-0.9,2.2-2.4
				C215.7,280.2,214.6,279.3,213.4,279.3z"/>
			<path class="st17" d="M221.3,278.3c1.2,0,2.1,0.6,2.4,1.3v-1.2h1.1v6.6h-1.1v-1.2c-0.4,0.7-1.2,1.3-2.5,1.3
				c-1.8,0-3.1-1.4-3.1-3.4C218.2,279.6,219.6,278.3,221.3,278.3z M221.6,279.3c-1.2,0-2.2,0.9-2.2,2.4c0,1.5,1,2.5,2.2,2.5
				c1.2,0,2.2-0.9,2.2-2.4C223.8,280.2,222.8,279.3,221.6,279.3z"/>
			<path class="st17" d="M229.5,278.3c1,0,2,0.5,2.4,1.3v-3.5h1.1v8.9h-1.1v-1.2c-0.4,0.7-1.2,1.3-2.4,1.3c-1.8,0-3.1-1.4-3.1-3.4
				C226.3,279.6,227.7,278.3,229.5,278.3z M229.7,279.3c-1.2,0-2.2,0.9-2.2,2.4c0,1.5,1,2.5,2.2,2.5c1.2,0,2.2-0.9,2.2-2.4
				C231.9,280.2,230.9,279.3,229.7,279.3z"/>
			<path class="st17" d="M237.7,285.1c-1.9,0-3.3-1.3-3.3-3.4c0-2.1,1.3-3.4,3.3-3.4c1.9,0,3.2,1.3,3.2,3.1c0,0.2,0,0.4,0,0.7h-5.3
				c0.1,1.3,1,2.1,2.1,2.1c1,0,1.6-0.5,1.8-1.2h1.2C240.4,284.2,239.3,285.1,237.7,285.1z M235.6,281.2h4.1c0-1.3-0.9-2-2.1-2
				C236.6,279.2,235.7,280,235.6,281.2z"/>
			<path class="st17" d="M244.6,285.1c-1.5,0-2.6-0.8-2.7-2h1.1c0.1,0.6,0.6,1.1,1.5,1.1c0.9,0,1.3-0.4,1.3-1c0-1.5-3.9-0.6-3.9-3.1
				c0-1,0.9-1.8,2.4-1.8c1.5,0,2.4,0.8,2.5,2.1h-1.1c0-0.7-0.6-1.1-1.4-1.1c-0.8,0-1.3,0.4-1.3,0.9c0,1.6,3.8,0.7,3.9,3.1
				C247,284.3,246.1,285.1,244.6,285.1z"/>
		</g>
		<circle id="Elipse_44" class="st10" cx="154.5" cy="257.5" r="2.5"/>
		<circle id="Elipse_45" class="st10" cx="154.5" cy="280.5" r="2.5"/>
	</g>
	<g id="Grupo_1895" transform="translate(0 10)">
		<g class="st7">
			<path class="st17" d="M165.2,351.7h1.2l3.1,6.9l3.1-6.9h1.2v8.3h-1.1v-6.2l-2.8,6.2H169l-2.8-6.2v6.2h-1.1V351.7z"/>
			<path class="st17" d="M178.4,360.1c-1.9,0-3.3-1.3-3.3-3.4c0-2.1,1.5-3.4,3.3-3.4c1.9,0,3.3,1.3,3.3,3.4
				C181.7,358.8,180.2,360.1,178.4,360.1z M178.4,359.1c1.1,0,2.3-0.8,2.3-2.4c0-1.7-1.1-2.4-2.2-2.4c-1.2,0-2.2,0.8-2.2,2.4
				C176.2,358.4,177.2,359.1,178.4,359.1z"/>
			<path class="st17" d="M183.6,353.4l2.1,5.6l2-5.6h1.2l-2.6,6.6H185l-2.6-6.6H183.6z"/>
			<path class="st17" d="M189.7,351.6c0-0.4,0.3-0.7,0.7-0.7c0.4,0,0.7,0.3,0.7,0.7c0,0.4-0.3,0.7-0.7,0.7
				C190,352.4,189.7,352,189.7,351.6z M189.9,353.4h1.1v6.6h-1.1V353.4z"/>
			<path class="st17" d="M202.3,356.3c0-1.3-0.7-2-1.8-2c-1.1,0-1.9,0.7-1.9,2.1v3.6h-1.1v-3.7c0-1.3-0.7-2-1.8-2
				c-1.1,0-1.9,0.7-1.9,2.1v3.6h-1.1v-6.6h1.1v0.9c0.4-0.7,1.2-1.1,2.1-1.1c1.1,0,2,0.5,2.4,1.5c0.4-0.9,1.3-1.5,2.3-1.5
				c1.5,0,2.7,0.9,2.7,2.8v3.9h-1.1V356.3z"/>
			<path class="st17" d="M208.1,360.1c-1.9,0-3.3-1.3-3.3-3.4c0-2.1,1.3-3.4,3.3-3.4c1.9,0,3.2,1.3,3.2,3.1c0,0.2,0,0.4,0,0.7h-5.3
				c0.1,1.3,1,2.1,2.1,2.1c1,0,1.6-0.5,1.8-1.2h1.2C210.7,359.2,209.7,360.1,208.1,360.1z M205.9,356.2h4.1c0-1.3-0.9-2-2.1-2
				C206.9,354.2,206.1,355,205.9,356.2z"/>
			<path class="st17" d="M217.5,356.3c0-1.3-0.7-2-1.8-2c-1.1,0-1.9,0.7-1.9,2.1v3.6h-1.1v-6.6h1.1v0.9c0.4-0.7,1.2-1.1,2.1-1.1
				c1.5,0,2.7,0.9,2.7,2.8v3.9h-1.1V356.3z"/>
			<path class="st17" d="M220.6,354.3h-0.9v-0.9h0.9v-1.7h1.1v1.7h1.7v0.9h-1.7v3.9c0,0.6,0.2,0.9,0.9,0.9h0.8v0.9h-1
				c-1.2,0-1.8-0.5-1.8-1.8V354.3z"/>
			<path class="st17" d="M227.6,360.1c-1.9,0-3.3-1.3-3.3-3.4c0-2.1,1.5-3.4,3.3-3.4c1.9,0,3.3,1.3,3.3,3.4
				C230.9,358.8,229.4,360.1,227.6,360.1z M227.6,359.1c1.1,0,2.3-0.8,2.3-2.4c0-1.7-1.1-2.4-2.2-2.4c-1.2,0-2.2,0.8-2.2,2.4
				C225.4,358.4,226.4,359.1,227.6,359.1z"/>
			<path class="st17" d="M234.7,360.1c-1.5,0-2.6-0.8-2.7-2h1.1c0.1,0.6,0.6,1.1,1.5,1.1c0.9,0,1.3-0.4,1.3-1c0-1.5-3.9-0.6-3.9-3.1
				c0-1,0.9-1.8,2.4-1.8c1.5,0,2.4,0.8,2.5,2.1H236c0-0.7-0.6-1.1-1.4-1.1c-0.8,0-1.3,0.4-1.3,0.9c0,1.6,3.8,0.7,3.9,3.1
				C237.1,359.3,236.2,360.1,234.7,360.1z"/>
			<path class="st17" d="M244.2,360.1c-1.5,0-2.6-0.8-2.7-2h1.1c0.1,0.6,0.6,1.1,1.5,1.1c0.9,0,1.3-0.4,1.3-1c0-1.5-3.9-0.6-3.9-3.1
				c0-1,0.9-1.8,2.4-1.8c1.5,0,2.4,0.8,2.5,2.1h-1.1c0-0.7-0.6-1.1-1.4-1.1c-0.8,0-1.3,0.4-1.3,0.9c0,1.6,3.8,0.7,3.9,3.1
				C246.6,359.3,245.6,360.1,244.2,360.1z"/>
			<path class="st17" d="M251,360.1c-1.9,0-3.3-1.3-3.3-3.4c0-2.1,1.5-3.4,3.3-3.4c1.9,0,3.3,1.3,3.3,3.4
				C254.3,358.8,252.9,360.1,251,360.1z M251,359.1c1.1,0,2.3-0.8,2.3-2.4c0-1.7-1.1-2.4-2.2-2.4c-1.2,0-2.2,0.8-2.2,2.4
				C248.8,358.4,249.8,359.1,251,359.1z"/>
			<path class="st17" d="M258.6,353.3c1.6,0,2.7,0.8,3,2.2h-1.2c-0.2-0.8-0.9-1.3-1.9-1.3c-1.2,0-2.1,0.9-2.1,2.5
				c0,1.6,0.9,2.5,2.1,2.5c1,0,1.6-0.5,1.9-1.3h1.2c-0.3,1.3-1.4,2.2-3,2.2c-1.9,0-3.2-1.3-3.2-3.4
				C255.4,354.6,256.7,353.3,258.6,353.3z"/>
			<path class="st17" d="M262.9,351.6c0-0.4,0.3-0.7,0.7-0.7c0.4,0,0.7,0.3,0.7,0.7c0,0.4-0.3,0.7-0.7,0.7
				C263.2,352.4,262.9,352,262.9,351.6z M263.1,353.4h1.1v6.6h-1.1V353.4z"/>
			<path class="st17" d="M268.7,353.3c1.2,0,2.1,0.6,2.4,1.3v-1.2h1.1v6.6h-1.1v-1.2c-0.4,0.7-1.2,1.3-2.5,1.3
				c-1.8,0-3.1-1.4-3.1-3.4C265.6,354.6,267,353.3,268.7,353.3z M269,354.3c-1.2,0-2.2,0.9-2.2,2.4c0,1.5,1,2.5,2.2,2.5
				c1.2,0,2.2-0.9,2.2-2.4C271.2,355.2,270.2,354.3,269,354.3z"/>
			<path class="st17" d="M274,351.6c0-0.4,0.3-0.7,0.7-0.7c0.4,0,0.7,0.3,0.7,0.7c0,0.4-0.3,0.7-0.7,0.7
				C274.3,352.4,274,352,274,351.6z M274.1,353.4h1.1v6.6h-1.1V353.4z"/>
			<path class="st17" d="M279.4,360.1c-1.5,0-2.6-0.8-2.7-2h1.1c0.1,0.6,0.6,1.1,1.5,1.1c0.9,0,1.3-0.4,1.3-1c0-1.5-3.9-0.6-3.9-3.1
				c0-1,0.9-1.8,2.4-1.8c1.5,0,2.4,0.8,2.5,2.1h-1.1c0-0.7-0.6-1.1-1.4-1.1c-0.8,0-1.3,0.4-1.3,0.9c0,1.6,3.8,0.7,3.9,3.1
				C281.8,359.3,280.9,360.1,279.4,360.1z"/>
		</g>
		<g class="st7">
			<path class="st17" d="M167.8,381.1c-1.7,0-2.9-0.9-2.9-2.3h1.2c0.1,0.7,0.6,1.4,1.7,1.4c1.1,0,1.7-0.6,1.7-1.4
				c0-2.3-4.5-0.8-4.5-3.9c0-1.4,1.1-2.3,2.8-2.3c1.6,0,2.6,0.9,2.8,2.1h-1.2c-0.1-0.6-0.6-1.2-1.6-1.2c-0.9,0-1.6,0.4-1.6,1.3
				c0,2.2,4.5,0.8,4.5,3.9C170.6,379.9,169.6,381.1,167.8,381.1z"/>
			<path class="st17" d="M172,372.6c0-0.4,0.3-0.7,0.7-0.7c0.4,0,0.7,0.3,0.7,0.7c0,0.4-0.3,0.7-0.7,0.7
				C172.3,373.4,172,373,172,372.6z M172.2,374.4h1.1v6.6h-1.1V374.4z"/>
			<path class="st17" d="M180,377.3c0-1.3-0.7-2-1.8-2c-1.1,0-1.9,0.7-1.9,2.1v3.6h-1.1v-6.6h1.1v0.9c0.4-0.7,1.2-1.1,2.1-1.1
				c1.5,0,2.7,0.9,2.7,2.8v3.9H180V377.3z"/>
			<path class="st17" d="M185.6,374.3c1,0,2,0.5,2.4,1.3v-3.5h1.1v8.9H188v-1.2c-0.4,0.7-1.2,1.3-2.4,1.3c-1.8,0-3.1-1.4-3.1-3.4
				C182.4,375.6,183.8,374.3,185.6,374.3z M185.8,375.3c-1.2,0-2.2,0.9-2.2,2.4c0,1.5,1,2.5,2.2,2.5c1.2,0,2.2-0.9,2.2-2.4
				C188,376.2,187,375.3,185.8,375.3z"/>
			<path class="st17" d="M190.8,372.6c0-0.4,0.3-0.7,0.7-0.7c0.4,0,0.7,0.3,0.7,0.7c0,0.4-0.3,0.7-0.7,0.7
				C191.1,373.4,190.8,373,190.8,372.6z M190.9,374.4h1.1v6.6h-1.1V374.4z"/>
			<path class="st17" d="M196.7,374.3c1.6,0,2.7,0.8,3,2.2h-1.2c-0.2-0.8-0.9-1.3-1.9-1.3c-1.2,0-2.1,0.9-2.1,2.5
				c0,1.6,0.9,2.5,2.1,2.5c1,0,1.6-0.5,1.9-1.3h1.2c-0.3,1.3-1.4,2.2-3,2.2c-1.9,0-3.2-1.3-3.2-3.4
				C193.5,375.6,194.8,374.3,196.7,374.3z"/>
			<path class="st17" d="M203.9,374.3c1.2,0,2.1,0.6,2.4,1.3v-1.2h1.1v6.6h-1.1v-1.2c-0.4,0.7-1.2,1.3-2.5,1.3
				c-1.8,0-3.1-1.4-3.1-3.4C200.8,375.6,202.1,374.3,203.9,374.3z M204.1,375.3c-1.2,0-2.2,0.9-2.2,2.4c0,1.5,1,2.5,2.2,2.5
				c1.2,0,2.2-0.9,2.2-2.4C206.3,376.2,205.3,375.3,204.1,375.3z"/>
			<path class="st17" d="M209.5,375.3h-0.9v-0.9h0.9v-1.7h1.1v1.7h1.7v0.9h-1.7v3.9c0,0.6,0.2,0.9,0.9,0.9h0.8v0.9h-1
				c-1.2,0-1.8-0.5-1.8-1.8V375.3z"/>
			<path class="st17" d="M216.5,381.1c-1.9,0-3.3-1.3-3.3-3.4c0-2.1,1.5-3.4,3.3-3.4c1.9,0,3.3,1.3,3.3,3.4
				C219.9,379.8,218.4,381.1,216.5,381.1z M216.5,380.1c1.1,0,2.3-0.8,2.3-2.4c0-1.7-1.1-2.4-2.2-2.4c-1.2,0-2.2,0.8-2.2,2.4
				C214.4,379.4,215.4,380.1,216.5,380.1z"/>
			<path class="st17" d="M223.7,381.1c-1.5,0-2.6-0.8-2.7-2h1.1c0.1,0.6,0.6,1.1,1.5,1.1c0.9,0,1.3-0.4,1.3-1c0-1.5-3.9-0.6-3.9-3.1
				c0-1,0.9-1.8,2.4-1.8c1.5,0,2.4,0.8,2.5,2.1h-1.1c0-0.7-0.6-1.1-1.4-1.1c-0.8,0-1.3,0.4-1.3,0.9c0,1.6,3.8,0.7,3.9,3.1
				C226.1,380.3,225.1,381.1,223.7,381.1z"/>
		</g>
		<circle id="Elipse_46" class="st14" cx="154.5" cy="355.5" r="2.5"/>
		<circle id="Elipse_47" class="st14" cx="154.5" cy="376.5" r="2.5"/>
	</g>
	<g class="st7">
		<path class="st17" d="M611.6,355.5H610v3.5h-1.1v-8.4h2.7c2,0,2.9,1.1,2.9,2.4C614.5,354.4,613.7,355.5,611.6,355.5z M611.6,354.6
			c1.2,0,1.8-0.6,1.8-1.5c0-1-0.5-1.5-1.8-1.5H610v3.1H611.6z"/>
		<path class="st17" d="M617,359h-1.1v-6.6h1.1v1.1c0.4-0.7,1.1-1.2,2.1-1.2v1.1h-0.3c-1,0-1.8,0.5-1.8,2V359z"/>
		<path class="st17" d="M623.2,359.1c-1.9,0-3.3-1.3-3.3-3.4c0-2.1,1.5-3.4,3.3-3.4c1.9,0,3.3,1.3,3.3,3.4
			C626.6,357.8,625.1,359.1,623.2,359.1z M623.2,358.1c1.1,0,2.3-0.8,2.3-2.4c0-1.7-1.1-2.4-2.2-2.4c-1.2,0-2.2,0.8-2.2,2.4
			C621.1,357.4,622.1,358.1,623.2,358.1z"/>
		<path class="st17" d="M628.2,353.3h-0.9v-0.9h0.9V352c0-1.5,0.7-2.1,2.4-2.1v0.9c-1,0-1.3,0.4-1.3,1.2v0.5h1.4v0.9h-1.4v5.7h-1.1
			V353.3z"/>
		<path class="st17" d="M631.8,350.6c0-0.4,0.3-0.7,0.7-0.7c0.4,0,0.7,0.3,0.7,0.7c0,0.4-0.3,0.7-0.7,0.7
			C632.1,351.4,631.8,351,631.8,350.6z M632,352.4h1.1v6.6H632V352.4z"/>
		<path class="st17" d="M637.3,359.1c-1.5,0-2.6-0.8-2.7-2h1.1c0.1,0.6,0.6,1.1,1.5,1.1c0.9,0,1.3-0.4,1.3-1c0-1.5-3.9-0.6-3.9-3.1
			c0-1,0.9-1.8,2.4-1.8c1.5,0,2.4,0.8,2.5,2.1h-1.1c0-0.7-0.6-1.1-1.4-1.1c-0.8,0-1.3,0.4-1.3,0.9c0,1.6,3.8,0.7,3.9,3.1
			C639.7,358.3,638.7,359.1,637.3,359.1z"/>
		<path class="st17" d="M643.5,359.1c-1.5,0-2.6-0.8-2.7-2h1.1c0.1,0.6,0.6,1.1,1.5,1.1c0.9,0,1.3-0.4,1.3-1c0-1.5-3.9-0.6-3.9-3.1
			c0-1,0.9-1.8,2.4-1.8c1.5,0,2.4,0.8,2.5,2.1h-1.1c0-0.7-0.6-1.1-1.4-1.1c-0.8,0-1.3,0.4-1.3,0.9c0,1.6,3.8,0.7,3.9,3.1
			C645.9,358.3,645,359.1,643.5,359.1z"/>
		<path class="st17" d="M647.3,350.6c0-0.4,0.3-0.7,0.7-0.7c0.4,0,0.7,0.3,0.7,0.7c0,0.4-0.3,0.7-0.7,0.7
			C647.6,351.4,647.3,351,647.3,350.6z M647.5,352.4h1.1v6.6h-1.1V352.4z"/>
		<path class="st17" d="M653.3,359.1c-1.9,0-3.3-1.3-3.3-3.4c0-2.1,1.5-3.4,3.3-3.4c1.9,0,3.3,1.3,3.3,3.4
			C656.6,357.8,655.1,359.1,653.3,359.1z M653.3,358.1c1.1,0,2.3-0.8,2.3-2.4c0-1.7-1.1-2.4-2.2-2.4c-1.2,0-2.2,0.8-2.2,2.4
			C651.1,357.4,652.1,358.1,653.3,358.1z"/>
		<path class="st17" d="M662.9,355.3c0-1.3-0.7-2-1.8-2c-1.1,0-1.9,0.7-1.9,2.1v3.6h-1.1v-6.6h1.1v0.9c0.4-0.7,1.2-1.1,2.1-1.1
			c1.5,0,2.7,0.9,2.7,2.8v3.9h-1.1V355.3z"/>
		<path class="st17" d="M668.5,352.3c1.2,0,2.1,0.6,2.4,1.3v-1.2h1.1v6.6h-1.1v-1.2c-0.4,0.7-1.2,1.3-2.5,1.3
			c-1.8,0-3.1-1.4-3.1-3.4C665.4,353.6,666.7,352.3,668.5,352.3z M668.7,353.3c-1.2,0-2.2,0.9-2.2,2.4c0,1.5,1,2.5,2.2,2.5
			s2.2-0.9,2.2-2.4C670.9,354.2,669.9,353.3,668.7,353.3z"/>
		<path class="st17" d="M673.7,350.6c0-0.4,0.3-0.7,0.7-0.7c0.4,0,0.7,0.3,0.7,0.7c0,0.4-0.3,0.7-0.7,0.7
			C674,351.4,673.7,351,673.7,350.6z M673.9,352.4h1.1v6.6h-1.1V352.4z"/>
		<path class="st17" d="M679.2,359.1c-1.5,0-2.6-0.8-2.7-2h1.1c0.1,0.6,0.6,1.1,1.5,1.1c0.9,0,1.3-0.4,1.3-1c0-1.5-3.9-0.6-3.9-3.1
			c0-1,0.9-1.8,2.4-1.8c1.5,0,2.4,0.8,2.5,2.1h-1.1c0-0.7-0.6-1.1-1.4-1.1c-0.8,0-1.3,0.4-1.3,0.9c0,1.6,3.8,0.7,3.9,3.1
			C681.6,358.3,680.6,359.1,679.2,359.1z"/>
	</g>
	<g class="st7">
		<path class="st17" d="M613.4,373.5H610v2.8h3v0.9h-3v2.9h3.4v0.9h-4.5v-8.4h4.5V373.5z"/>
		<path class="st17" d="M617.4,381.1c-1.5,0-2.6-0.8-2.7-2h1.1c0.1,0.6,0.6,1.1,1.5,1.1c0.9,0,1.3-0.4,1.3-1c0-1.5-3.9-0.6-3.9-3.1
			c0-1,0.9-1.8,2.4-1.8c1.5,0,2.4,0.8,2.5,2.1h-1.1c0-0.7-0.6-1.1-1.4-1.1c-0.8,0-1.3,0.4-1.3,0.9c0,1.6,3.8,0.7,3.9,3.1
			C619.8,380.3,618.9,381.1,617.4,381.1z"/>
		<path class="st17" d="M621.6,375.3h-0.9v-0.9h0.9v-1.7h1.1v1.7h1.7v0.9h-1.7v3.9c0,0.6,0.2,0.9,0.9,0.9h0.8v0.9h-1
			c-1.2,0-1.8-0.5-1.8-1.8V375.3z"/>
		<path class="st17" d="M631.5,381h-1.1v-1c-0.4,0.7-1.2,1.1-2.1,1.1c-1.5,0-2.7-0.9-2.7-2.8v-3.8h1.1v3.7c0,1.3,0.7,2,1.8,2
			c1.1,0,1.9-0.7,1.9-2.1v-3.6h1.1V381z"/>
		<path class="st17" d="M636.1,374.3c1,0,2,0.5,2.4,1.3v-3.5h1.1v8.9h-1.1v-1.2c-0.4,0.7-1.2,1.3-2.4,1.3c-1.8,0-3.1-1.4-3.1-3.4
			C633,375.6,634.3,374.3,636.1,374.3z M636.3,375.3c-1.2,0-2.2,0.9-2.2,2.4c0,1.5,1,2.5,2.2,2.5c1.2,0,2.2-0.9,2.2-2.4
			C638.5,376.2,637.5,375.3,636.3,375.3z"/>
		<path class="st17" d="M644.2,374.3c1.2,0,2.1,0.6,2.4,1.3v-1.2h1.1v6.6h-1.1v-1.2c-0.4,0.7-1.2,1.3-2.5,1.3
			c-1.8,0-3.1-1.4-3.1-3.4C641.1,375.6,642.5,374.3,644.2,374.3z M644.4,375.3c-1.2,0-2.2,0.9-2.2,2.4c0,1.5,1,2.5,2.2,2.5
			s2.2-0.9,2.2-2.4C646.7,376.2,645.6,375.3,644.4,375.3z"/>
		<path class="st17" d="M654.4,377.3c0-1.3-0.7-2-1.8-2c-1.1,0-1.9,0.7-1.9,2.1v3.6h-1.1v-6.6h1.1v0.9c0.4-0.7,1.2-1.1,2.1-1.1
			c1.5,0,2.7,0.9,2.7,2.8v3.9h-1.1V377.3z"/>
		<path class="st17" d="M657.5,375.3h-0.9v-0.9h0.9v-1.7h1.1v1.7h1.7v0.9h-1.7v3.9c0,0.6,0.2,0.9,0.9,0.9h0.8v0.9h-1
			c-1.2,0-1.8-0.5-1.8-1.8V375.3z"/>
		<path class="st17" d="M664.5,381.1c-1.9,0-3.3-1.3-3.3-3.4c0-2.1,1.3-3.4,3.3-3.4c1.9,0,3.2,1.3,3.2,3.1c0,0.2,0,0.4,0,0.7h-5.3
			c0.1,1.3,1,2.1,2.1,2.1c1,0,1.6-0.5,1.8-1.2h1.2C667.2,380.2,666.1,381.1,664.5,381.1z M662.4,377.2h4.1c0-1.3-0.9-2-2.1-2
			C663.4,375.2,662.5,376,662.4,377.2z"/>
		<path class="st17" d="M671.4,381.1c-1.5,0-2.6-0.8-2.7-2h1.1c0.1,0.6,0.6,1.1,1.5,1.1c0.9,0,1.3-0.4,1.3-1c0-1.5-3.9-0.6-3.9-3.1
			c0-1,0.9-1.8,2.4-1.8c1.5,0,2.4,0.8,2.5,2.1h-1.1c0-0.7-0.6-1.1-1.4-1.1c-0.8,0-1.3,0.4-1.3,0.9c0,1.6,3.8,0.7,3.9,3.1
			C673.8,380.3,672.9,381.1,671.4,381.1z"/>
	</g>
	<g class="st7">
		<path class="st17" d="M608.9,393.6h1.1v5.3c0,1.5,0.8,2.2,2.1,2.2s2.1-0.7,2.1-2.2v-5.3h1.1v5.3c0,2.2-1.4,3.2-3.2,3.2
			s-3.1-1-3.1-3.2V393.6z"/>
		<path class="st17" d="M619.3,402.1c-1.5,0-2.6-0.8-2.7-2h1.1c0.1,0.6,0.6,1.1,1.5,1.1c0.9,0,1.3-0.4,1.3-1c0-1.5-3.9-0.6-3.9-3.1
			c0-1,0.9-1.8,2.4-1.8c1.5,0,2.4,0.8,2.5,2.1h-1.1c0-0.7-0.6-1.1-1.4-1.1c-0.8,0-1.3,0.4-1.3,0.9c0,1.6,3.8,0.7,3.9,3.1
			C621.7,401.3,620.8,402.1,619.3,402.1z"/>
		<path class="st17" d="M629.1,402H628v-1c-0.4,0.7-1.2,1.1-2.1,1.1c-1.5,0-2.7-0.9-2.7-2.8v-3.8h1.1v3.7c0,1.3,0.7,2,1.8,2
			c1.1,0,1.9-0.7,1.9-2.1v-3.6h1.1V402z"/>
		<path class="st17" d="M633.7,395.3c1.2,0,2.1,0.6,2.4,1.3v-1.2h1.1v6.6h-1.1v-1.2c-0.4,0.7-1.2,1.3-2.5,1.3
			c-1.8,0-3.1-1.4-3.1-3.4C630.6,396.6,631.9,395.3,633.7,395.3z M633.9,396.3c-1.2,0-2.2,0.9-2.2,2.4c0,1.5,1,2.5,2.2,2.5
			c1.2,0,2.2-0.9,2.2-2.4C636.1,397.2,635.1,396.3,633.9,396.3z M635.3,392.6v0.9l-2.6,1.4v-0.8L635.3,392.6z"/>
		<path class="st17" d="M640.2,402h-1.1v-6.6h1.1v1.1c0.4-0.7,1.1-1.2,2.1-1.2v1.1H642c-1,0-1.8,0.5-1.8,2V402z"/>
		<path class="st17" d="M643.4,393.6c0-0.4,0.3-0.7,0.7-0.7c0.4,0,0.7,0.3,0.7,0.7c0,0.4-0.3,0.7-0.7,0.7
			C643.7,394.4,643.4,394,643.4,393.6z M643.6,395.4h1.1v6.6h-1.1V395.4z"/>
		<path class="st17" d="M649.4,402.1c-1.9,0-3.3-1.3-3.3-3.4c0-2.1,1.5-3.4,3.3-3.4c1.9,0,3.3,1.3,3.3,3.4
			C652.7,400.8,651.2,402.1,649.4,402.1z M649.4,401.1c1.1,0,2.3-0.8,2.3-2.4c0-1.7-1.1-2.4-2.2-2.4c-1.2,0-2.2,0.8-2.2,2.4
			C647.2,400.4,648.2,401.1,649.4,401.1z"/>
		<path class="st17" d="M656.5,402.1c-1.5,0-2.6-0.8-2.7-2h1.1c0.1,0.6,0.6,1.1,1.5,1.1c0.9,0,1.3-0.4,1.3-1c0-1.5-3.9-0.6-3.9-3.1
			c0-1,0.9-1.8,2.4-1.8c1.5,0,2.4,0.8,2.5,2.1h-1.1c0-0.7-0.6-1.1-1.4-1.1c-0.8,0-1.3,0.4-1.3,0.9c0,1.6,3.8,0.7,3.9,3.1
			C658.9,401.3,658,402.1,656.5,402.1z"/>
	</g>
	<circle id="Elipse_48" class="st12" cx="600.5" cy="354.5" r="2.5"/>
	<circle id="Elipse_49" class="st12" cx="600.5" cy="376.5" r="2.5"/>
	<circle id="Elipse_50" class="st12" cx="600.5" cy="397.5" r="2.5"/>
</g>
</svg>
