<?xml version="1.0" encoding="utf-8"?>
<!-- Generator: Adobe Illustrator 26.1.0, SVG Export Plug-In . SVG Version: 6.00 Build 0)  -->
<svg version="1.1" id="Camada_1" xmlns="http://www.w3.org/2000/svg" xmlns:xlink="http://www.w3.org/1999/xlink" x="0px" y="0px"
	 viewBox="0 0 489.9 128.8" style="enable-background:new 0 0 489.9 128.8;" xml:space="preserve">
<style type="text/css">
	.st0{clip-path:url(#SVGID_00000036249148889705303500000005514726290494324634_);}
	.st1{clip-path:url(#SVGID_00000109007433796574681370000012699060091078983344_);}
	.st2{fill:#F4BB2A;}
	.st3{clip-path:url(#SVGID_00000154387212764297639220000001017031356348529560_);}
	.st4{clip-path:url(#SVGID_00000128487327996127305680000008218249855453479855_);}
	.st5{clip-path:url(#SVGID_00000070837020449739509920000014382897271768841370_);}
	.st6{clip-path:url(#SVGID_00000021837064756021711080000007236697714008757919_);}
	.st7{enable-background:new    ;}
	.st8{fill:#FFFFFF;}
	.st9{clip-path:url(#SVGID_00000067917301278374204290000016756699369068786609_);}
	.st10{clip-path:url(#SVGID_00000113340259279022086530000008426844535132234130_);}
	.st11{fill:#108141;}
	.st12{clip-path:url(#SVGID_00000093855796152178462670000008829407600965333150_);}
	.st13{clip-path:url(#SVGID_00000058557858241711096360000003613314680119103137_);}
	.st14{clip-path:url(#SVGID_00000121993466253085906290000010995566653981678995_);}
	.st15{clip-path:url(#SVGID_00000147179962702698877400000013406994879475702439_);}
	.st16{clip-path:url(#SVGID_00000081616826565924802020000011490152795994357141_);}
	.st17{clip-path:url(#SVGID_00000157305892024378544070000004703565150550819209_);}
	.st18{fill:#29696D;}
	.st19{clip-path:url(#SVGID_00000156563297725145246450000012856030620658424749_);}
	.st20{clip-path:url(#SVGID_00000055678754306720279530000012756862087605328055_);}
	.st21{clip-path:url(#SVGID_00000135685840260481562130000006181195844782304437_);}
	.st22{clip-path:url(#SVGID_00000132062995479708778050000013436815463645434554_);}
	.st23{clip-path:url(#SVGID_00000164476723811096278650000001532915919236666036_);}
	.st24{clip-path:url(#SVGID_00000029743416578167310030000009832839530506100155_);}
	.st25{fill:#54BFCD;}
	.st26{clip-path:url(#SVGID_00000003813608785854361780000009553030063108898951_);}
	.st27{clip-path:url(#SVGID_00000016062361365329248050000008029147856209124744_);}
	.st28{clip-path:url(#SVGID_00000065045476601471805190000004646340410990197133_);}
	.st29{clip-path:url(#SVGID_00000005241550499581986340000016800951693679180163_);}
</style>
<g id="img-slide-36" transform="translate(-122 -244)">
	<g id="Grupo_254" transform="translate(122 244)">
		<g>
			<defs>
				<rect id="SVGID_1_" width="28.9" height="128.8"/>
			</defs>
			<clipPath id="SVGID_00000172405975018313892450000003302452275001613967_">
				<use xlink:href="#SVGID_1_"  style="overflow:visible;"/>
			</clipPath>
			<g id="Grupo_253" style="clip-path:url(#SVGID_00000172405975018313892450000003302452275001613967_);">
				<g id="Grupo_242" transform="translate(0 14.893)">
					<g>
						<defs>
							<polygon id="SVGID_00000078738519281251700020000012796980944821272193_" points="0,0 0,41.1 8.4,49.5 0,57.9 0,99 20.5,99 
								20.5,57.9 28.9,49.5 20.5,41.1 20.5,0 							"/>
						</defs>
						<clipPath id="SVGID_00000118367903418642362160000000231036976673166987_">
							<use xlink:href="#SVGID_00000078738519281251700020000012796980944821272193_"  style="overflow:visible;"/>
						</clipPath>
						<g id="Grupo_241" style="clip-path:url(#SVGID_00000118367903418642362160000000231036976673166987_);">
							<path id="Caminho_461" class="st2" d="M-49.5,49.5l64-64l64,64l-64,64L-49.5,49.5z"/>
						</g>
					</g>
				</g>
				<g id="Grupo_252">
					<g>
						<defs>
							<polygon id="SVGID_00000140701731741264561880000008047462043601712535_" points="0,0 0,56 8.4,64.4 0,72.8 0,128.8 
								20.5,128.8 20.5,72.8 28.9,64.4 20.5,56 20.5,0 							"/>
						</defs>
						<clipPath id="SVGID_00000140016095449770799640000010204135937668229762_">
							<use xlink:href="#SVGID_00000140701731741264561880000008047462043601712535_"  style="overflow:visible;"/>
						</clipPath>
						<g id="Grupo_251" style="clip-path:url(#SVGID_00000140016095449770799640000010204135937668229762_);">
							<g id="Grupo_250">
								<g id="Grupo_249">
									<g>
										<defs>
											<rect id="SVGID_00000001633956558067698350000007449840770740105148_" width="16.6" height="128.8"/>
										</defs>
										<clipPath id="SVGID_00000057837515201746557200000009605860050765262735_">
											<use xlink:href="#SVGID_00000001633956558067698350000007449840770740105148_"  style="overflow:visible;"/>
										</clipPath>
										<g id="Grupo_248" style="clip-path:url(#SVGID_00000057837515201746557200000009605860050765262735_);">
											<g id="Grupo_247">
												<g>
													<defs>
														<path id="SVGID_00000168116559515831109880000016838332524693166780_" d="M0,128.8h11.1V75.7c0-3.6,5.5-7.4,5.5-11.4
															c0-3.6-5.5-8-5.5-11.6V0H0v56c0,1,7.2,7.2,7.2,8.4c0,0.8-7.2,7.5-7.2,8.5V128.8z"/>
													</defs>
													<clipPath id="SVGID_00000106841555474527627410000008984875690735416745_">
														<use xlink:href="#SVGID_00000168116559515831109880000016838332524693166780_"  style="overflow:visible;"/>
													</clipPath>
													<g id="Grupo_246" style="clip-path:url(#SVGID_00000106841555474527627410000008984875690735416745_);">
														<g id="Grupo_245">
															<g id="Grupo_244">
																<g>
																	<defs>
																		<rect id="SVGID_00000019654451408730390960000015848157082405484164_" width="16.6" height="128.8"/>
																	</defs>
																	<clipPath id="SVGID_00000117638293665030556660000005893384026610089379_">
																		<use xlink:href="#SVGID_00000019654451408730390960000015848157082405484164_"  style="overflow:visible;"/>
																	</clipPath>
																	<g id="Grupo_243" style="clip-path:url(#SVGID_00000117638293665030556660000005893384026610089379_);">
																		<g id="Retângulo_72" transform="translate(0 -0.021)">
																			
																				<image style="overflow:visible;enable-background:new    ;" width="121" height="941" id="image" xlink:href="39E854F4.png"  transform="matrix(0.1369 0 0 0.1369 0 -2.095422e-02)">
																			</image>
																		</g>
																	</g>
																</g>
															</g>
														</g>
													</g>
												</g>
											</g>
										</g>
									</g>
								</g>
							</g>
						</g>
					</g>
				</g>
				<g class="st7">
					<path class="st8" d="M16.8,20v6.3h-0.6v-5.7h-1.5V20H16.8z"/>
				</g>
			</g>
		</g>
	</g>
	<g id="Grupo_255" transform="translate(276 244)">
		<g>
			<defs>
				<rect id="SVGID_00000182521014097340237580000005443451463553452426_" width="28.9" height="128.8"/>
			</defs>
			<clipPath id="SVGID_00000079449233785807838170000010424088375631959990_">
				<use xlink:href="#SVGID_00000182521014097340237580000005443451463553452426_"  style="overflow:visible;"/>
			</clipPath>
			<g id="Grupo_253-2" style="clip-path:url(#SVGID_00000079449233785807838170000010424088375631959990_);">
				<g id="Grupo_242-2" transform="translate(0 14.893)">
					<g>
						<defs>
							<polygon id="SVGID_00000106841446910667797220000004901599626409668287_" points="0,0 0,41.1 8.4,49.5 0,57.9 0,99 20.5,99 
								20.5,57.9 28.9,49.5 20.5,41.1 20.5,0 							"/>
						</defs>
						<clipPath id="SVGID_00000091708208532704214660000001457484374605877393_">
							<use xlink:href="#SVGID_00000106841446910667797220000004901599626409668287_"  style="overflow:visible;"/>
						</clipPath>
						<g id="Grupo_241-2" style="clip-path:url(#SVGID_00000091708208532704214660000001457484374605877393_);">
							
								<rect id="Retângulo_71" x="-30.8" y="4.3" transform="matrix(0.7071 -0.7071 0.7071 0.7071 -30.7664 24.7334)" class="st11" width="90.5" height="90.5"/>
						</g>
					</g>
				</g>
				<g id="Grupo_252-2">
					<g>
						<defs>
							<polygon id="SVGID_00000103250761973477819230000015053158395014370736_" points="0,0 0,56 8.4,64.4 0,72.8 0,128.8 
								20.5,128.8 20.5,72.8 28.9,64.4 20.5,56 20.5,0 							"/>
						</defs>
						<clipPath id="SVGID_00000124148643342278573100000001038419165256815006_">
							<use xlink:href="#SVGID_00000103250761973477819230000015053158395014370736_"  style="overflow:visible;"/>
						</clipPath>
						<g id="Grupo_251-2" style="clip-path:url(#SVGID_00000124148643342278573100000001038419165256815006_);">
							<g id="Grupo_250-2">
								<g id="Grupo_249-2">
									<g>
										<defs>
											<rect id="SVGID_00000124861936672800286480000004454965704452211339_" width="16.6" height="128.8"/>
										</defs>
										<clipPath id="SVGID_00000113341339722043080840000005010923318688996529_">
											<use xlink:href="#SVGID_00000124861936672800286480000004454965704452211339_"  style="overflow:visible;"/>
										</clipPath>
										<g id="Grupo_248-2" style="clip-path:url(#SVGID_00000113341339722043080840000005010923318688996529_);">
											<g id="Grupo_247-2">
												<g>
													<defs>
														<path id="SVGID_00000028282836002015986540000005690577486086401933_" d="M0,128.8h11.1V75.7c0-3.6,5.5-7.4,5.5-11.4
															c0-3.6-5.5-8-5.5-11.6V0H0v56c0,1,7.2,7.2,7.2,8.4c0,0.8-7.2,7.5-7.2,8.5V128.8z"/>
													</defs>
													<clipPath id="SVGID_00000084493034065794338250000006928067872559452840_">
														<use xlink:href="#SVGID_00000028282836002015986540000005690577486086401933_"  style="overflow:visible;"/>
													</clipPath>
													<g id="Grupo_246-2" style="clip-path:url(#SVGID_00000084493034065794338250000006928067872559452840_);">
														<g id="Grupo_245-2">
															<g id="Grupo_244-2">
																<g>
																	<defs>
																		<rect id="SVGID_00000146497949676237877520000004712226280457309352_" width="16.6" height="128.8"/>
																	</defs>
																	<clipPath id="SVGID_00000039819486630537880490000000863565542118961852_">
																		<use xlink:href="#SVGID_00000146497949676237877520000004712226280457309352_"  style="overflow:visible;"/>
																	</clipPath>
																	<g id="Grupo_243-2" style="clip-path:url(#SVGID_00000039819486630537880490000000863565542118961852_);">
																		<g id="Retângulo_72-2" transform="translate(0 -0.021)">
																			
																				<image style="overflow:visible;enable-background:new    ;" width="121" height="941" id="image_00000182509219451304444440000010534858078936389559_" xlink:href="39E854F4.png"  transform="matrix(0.1369 0 0 0.1369 0 -2.095422e-02)">
																			</image>
																		</g>
																	</g>
																</g>
															</g>
														</g>
													</g>
												</g>
											</g>
										</g>
									</g>
								</g>
							</g>
						</g>
					</g>
				</g>
				<g class="st7">
					<path class="st8" d="M18.4,25.7v0.6h-4.4v-0.5l2.6-2.6c0.7-0.7,0.8-1.1,0.8-1.6c0-0.7-0.5-1.2-1.5-1.2c-0.7,0-1.3,0.2-1.7,0.7
						l-0.5-0.4C14.2,20.3,15,20,16,20c1.3,0,2.1,0.6,2.1,1.7c0,0.6-0.2,1.1-1,2l-2.1,2.1H18.4z"/>
				</g>
			</g>
		</g>
	</g>
	<g id="Grupo_256" transform="translate(430 244)">
		<g>
			<defs>
				<rect id="SVGID_00000120544308437821348640000002725528009627020420_" width="28.9" height="128.8"/>
			</defs>
			<clipPath id="SVGID_00000098189025866150025010000008115397761318649786_">
				<use xlink:href="#SVGID_00000120544308437821348640000002725528009627020420_"  style="overflow:visible;"/>
			</clipPath>
			<g id="Grupo_253-3" style="clip-path:url(#SVGID_00000098189025866150025010000008115397761318649786_);">
				<g id="Grupo_242-3" transform="translate(0 14.893)">
					<g>
						<defs>
							<polygon id="SVGID_00000141445091260839761720000015263541933980255901_" points="0,0 0,41.1 8.4,49.5 0,57.9 0,99 20.5,99 
								20.5,57.9 28.9,49.5 20.5,41.1 20.5,0 							"/>
						</defs>
						<clipPath id="SVGID_00000156569989933263520670000017414957254378527141_">
							<use xlink:href="#SVGID_00000141445091260839761720000015263541933980255901_"  style="overflow:visible;"/>
						</clipPath>
						<g id="Grupo_241-3" style="clip-path:url(#SVGID_00000156569989933263520670000017414957254378527141_);">
							
								<rect id="Retângulo_71-2" x="-30.8" y="4.3" transform="matrix(0.7071 -0.7071 0.7071 0.7071 -30.7664 24.7334)" class="st18" width="90.5" height="90.5"/>
						</g>
					</g>
				</g>
				<g id="Grupo_252-3">
					<g>
						<defs>
							<polygon id="SVGID_00000093152512373930211940000014326578016790669234_" points="0,0 0,56 8.4,64.4 0,72.8 0,128.8 
								20.5,128.8 20.5,72.8 28.9,64.4 20.5,56 20.5,0 							"/>
						</defs>
						<clipPath id="SVGID_00000101093683083684430880000011516027910564110524_">
							<use xlink:href="#SVGID_00000093152512373930211940000014326578016790669234_"  style="overflow:visible;"/>
						</clipPath>
						<g id="Grupo_251-3" style="clip-path:url(#SVGID_00000101093683083684430880000011516027910564110524_);">
							<g id="Grupo_250-3">
								<g id="Grupo_249-3">
									<g>
										<defs>
											<rect id="SVGID_00000004546199283461251770000007831970598635339669_" width="16.6" height="128.8"/>
										</defs>
										<clipPath id="SVGID_00000181783803881831632360000008230509179056736152_">
											<use xlink:href="#SVGID_00000004546199283461251770000007831970598635339669_"  style="overflow:visible;"/>
										</clipPath>
										<g id="Grupo_248-3" style="clip-path:url(#SVGID_00000181783803881831632360000008230509179056736152_);">
											<g id="Grupo_247-3">
												<g>
													<defs>
														<path id="SVGID_00000046309556776350749980000006699060018303922838_" d="M0,128.8h11.1V75.7c0-3.6,5.5-7.4,5.5-11.4
															c0-3.6-5.5-8-5.5-11.6V0H0v56c0,1,7.2,7.2,7.2,8.4c0,0.8-7.2,7.5-7.2,8.5V128.8z"/>
													</defs>
													<clipPath id="SVGID_00000016787441936910971350000008678116450557815179_">
														<use xlink:href="#SVGID_00000046309556776350749980000006699060018303922838_"  style="overflow:visible;"/>
													</clipPath>
													<g id="Grupo_246-3" style="clip-path:url(#SVGID_00000016787441936910971350000008678116450557815179_);">
														<g id="Grupo_245-3">
															<g id="Grupo_244-3">
																<g>
																	<defs>
																		<rect id="SVGID_00000015330750753499231160000000932256578681574578_" width="16.6" height="128.8"/>
																	</defs>
																	<clipPath id="SVGID_00000149360244777410752850000003825798023334864024_">
																		<use xlink:href="#SVGID_00000015330750753499231160000000932256578681574578_"  style="overflow:visible;"/>
																	</clipPath>
																	<g id="Grupo_243-3" style="clip-path:url(#SVGID_00000149360244777410752850000003825798023334864024_);">
																		<g id="Retângulo_72-3" transform="translate(0 -0.021)">
																			
																				<image style="overflow:visible;enable-background:new    ;" width="121" height="941" id="image_00000066493145436896027610000001085209091673306527_" xlink:href="39E854F4.png"  transform="matrix(0.1369 0 0 0.1369 0 -2.095422e-02)">
																			</image>
																		</g>
																	</g>
																</g>
															</g>
														</g>
													</g>
												</g>
											</g>
										</g>
									</g>
								</g>
							</g>
						</g>
					</g>
				</g>
				<g class="st7">
					<path class="st8" d="M17.2,24.5c0,1.1-0.8,1.9-2.3,1.9c-0.9,0-1.8-0.3-2.3-0.8L13,25c0.4,0.4,1.1,0.7,2,0.7
						c1,0,1.6-0.5,1.6-1.3c0-0.8-0.5-1.3-1.7-1.3h-0.5v-0.5l1.7-2.2h-3.2V20H17v0.5l-1.8,2.2C16.6,22.8,17.2,23.5,17.2,24.5z"/>
				</g>
			</g>
		</g>
	</g>
	<g id="Grupo_257" transform="translate(583 244)">
		<g>
			<defs>
				<rect id="SVGID_00000152240793574729009360000006061312380350700688_" width="28.9" height="128.8"/>
			</defs>
			<clipPath id="SVGID_00000098909134506539112250000009887638907874118553_">
				<use xlink:href="#SVGID_00000152240793574729009360000006061312380350700688_"  style="overflow:visible;"/>
			</clipPath>
			<g id="Grupo_253-4" style="clip-path:url(#SVGID_00000098909134506539112250000009887638907874118553_);">
				<g id="Grupo_242-4" transform="translate(0 14.893)">
					<g>
						<defs>
							<polygon id="SVGID_00000021102481925758463810000012079397959051224704_" points="0,0 0,41.1 8.4,49.5 0,57.9 0,99 20.5,99 
								20.5,57.9 28.9,49.5 20.5,41.1 20.5,0 							"/>
						</defs>
						<clipPath id="SVGID_00000175312657820141605440000009676309869328491176_">
							<use xlink:href="#SVGID_00000021102481925758463810000012079397959051224704_"  style="overflow:visible;"/>
						</clipPath>
						<g id="Grupo_241-4" style="clip-path:url(#SVGID_00000175312657820141605440000009676309869328491176_);">
							
								<rect id="Retângulo_71-3" x="-30.8" y="4.3" transform="matrix(0.7071 -0.7071 0.7071 0.7071 -30.7664 24.7334)" class="st25" width="90.5" height="90.5"/>
						</g>
					</g>
				</g>
				<g id="Grupo_252-4">
					<g>
						<defs>
							<polygon id="SVGID_00000088104716735010127750000005788535133824711843_" points="0,0 0,56 8.4,64.4 0,72.8 0,128.8 
								20.5,128.8 20.5,72.8 28.9,64.4 20.5,56 20.5,0 							"/>
						</defs>
						<clipPath id="SVGID_00000054247483147448171190000012304887065408789122_">
							<use xlink:href="#SVGID_00000088104716735010127750000005788535133824711843_"  style="overflow:visible;"/>
						</clipPath>
						<g id="Grupo_251-4" style="clip-path:url(#SVGID_00000054247483147448171190000012304887065408789122_);">
							<g id="Grupo_250-4">
								<g id="Grupo_249-4">
									<g>
										<defs>
											<rect id="SVGID_00000096055805099295920010000002668063275522969017_" width="16.6" height="128.8"/>
										</defs>
										<clipPath id="SVGID_00000041288128322735593690000005966107950609844611_">
											<use xlink:href="#SVGID_00000096055805099295920010000002668063275522969017_"  style="overflow:visible;"/>
										</clipPath>
										<g id="Grupo_248-4" style="clip-path:url(#SVGID_00000041288128322735593690000005966107950609844611_);">
											<g id="Grupo_247-4">
												<g>
													<defs>
														<path id="SVGID_00000162315351602544683470000004054413280735893182_" d="M0,128.8h11.1V75.7c0-3.6,5.5-7.4,5.5-11.4
															c0-3.6-5.5-8-5.5-11.6V0H0v56c0,1,7.2,7.2,7.2,8.4c0,0.8-7.2,7.5-7.2,8.5V128.8z"/>
													</defs>
													<clipPath id="SVGID_00000025402967595293052740000003088125689656821162_">
														<use xlink:href="#SVGID_00000162315351602544683470000004054413280735893182_"  style="overflow:visible;"/>
													</clipPath>
													<g id="Grupo_246-4" style="clip-path:url(#SVGID_00000025402967595293052740000003088125689656821162_);">
														<g id="Grupo_245-4">
															<g id="Grupo_244-4">
																<g>
																	<defs>
																		<rect id="SVGID_00000072244667173562984010000004541573193175144067_" width="16.6" height="128.8"/>
																	</defs>
																	<clipPath id="SVGID_00000082365746081608297070000017599161505867897477_">
																		<use xlink:href="#SVGID_00000072244667173562984010000004541573193175144067_"  style="overflow:visible;"/>
																	</clipPath>
																	<g id="Grupo_243-4" style="clip-path:url(#SVGID_00000082365746081608297070000017599161505867897477_);">
																		<g id="Retângulo_72-4" transform="translate(0 -0.021)">
																			
																				<image style="overflow:visible;enable-background:new    ;" width="121" height="941" id="image_00000072238596282958752640000014785532857689749166_" xlink:href="39E854FC.png"  transform="matrix(0.1369 0 0 0.1369 0 -2.095422e-02)">
																			</image>
																		</g>
																	</g>
																</g>
															</g>
														</g>
													</g>
												</g>
											</g>
										</g>
									</g>
								</g>
							</g>
						</g>
					</g>
				</g>
				<g class="st7">
					<path class="st8" d="M18.4,24.7h-1.3v1.7h-0.6v-1.7H13v-0.5l3.3-4.2H17l-3.2,4.1h2.7v-1.5h0.6v1.5h1.3V24.7z"/>
				</g>
			</g>
		</g>
	</g>
</g>
</svg>
