<?xml version="1.0" encoding="utf-8"?>
<!-- Generator: Adobe Illustrator 26.1.0, SVG Export Plug-In . SVG Version: 6.00 Build 0)  -->
<svg version="1.1" id="Camada_1" xmlns="http://www.w3.org/2000/svg" xmlns:xlink="http://www.w3.org/1999/xlink" x="0px" y="0px"
	 viewBox="0 0 335 317" style="enable-background:new 0 0 335 317;" xml:space="preserve">
<style type="text/css">
	.st0{fill:#108141;}
	.st1{fill:#3E6D93;}
	.st2{fill:#1B8992;}
	.st3{fill:#294667;}
	.st4{fill:#F5781D;}
	.st5{enable-background:new    ;}
	.st6{fill:#F55151;}
	.st7{fill:#FFFFFF;}
</style>
<g id="img-slide-73" transform="translate(-264 -79)">
	<g id="Grupo_1685" transform="translate(264 79)">
		<g id="Grupo_1684" transform="translate(52.834 58.395)">
			<g id="Grupo_1683" transform="translate(0)">
				<g id="Caminho_2086">
					<path class="st0" d="M44.7,219.7c-0.9,0-1.7-0.7-1.7-1.6l-1.2-12c-0.1-1,0.6-1.8,1.6-1.9c0.9-0.1,1.8,0.6,1.9,1.5l0.8,8.5
						l6.2-5.9c0.7-0.7,1.8-0.7,2.5,0c0.7,0.7,0.7,1.8,0,2.5c0,0,0,0-0.1,0.1l-8.8,8.3C45.6,219.5,45.1,219.7,44.7,219.7z"/>
				</g>
				<g id="Caminho_2087">
					<path class="st1" d="M186,218.6c-0.1,0-0.3,0-0.4,0l-11.8-2.6c-0.9-0.2-1.6-1.1-1.4-2.1c0.2-0.9,1.1-1.6,2.1-1.4c0,0,0,0,0,0
						l8.3,1.8l-3.7-7.8c-0.4-0.9,0-1.9,0.8-2.3s1.9,0,2.3,0.8l5.2,11c0.4,0.9,0,1.9-0.8,2.3C186.5,218.6,186.2,218.6,186,218.6
						L186,218.6z"/>
				</g>
				<g id="Caminho_2088">
					<path class="st2" d="M222.5,94.3c-1,0-1.7-0.8-1.7-1.8c0-0.3,0.1-0.6,0.2-0.9l4.3-7.3l-8.5,1.1c-1,0.1-1.8-0.6-1.9-1.5
						c-0.1-0.9,0.6-1.8,1.5-1.9l12.1-1.5c1-0.1,1.8,0.6,2,1.5c0,0.4,0,0.8-0.2,1.1L224,93.5C223.7,94,223.1,94.3,222.5,94.3z"/>
				</g>
				<g id="Caminho_2089">
					<path class="st3" d="M111.4,13.7c-1,0-1.8-0.8-1.8-1.8c0-0.1,0-0.2,0-0.3l2.2-11.9c0.2-0.9,1.1-1.6,2-1.4
						c0.4,0.1,0.7,0.3,1,0.6l8,9c0.6,0.7,0.6,1.8-0.1,2.5c-0.7,0.6-1.8,0.6-2.5-0.1l-5.7-6.4l-1.6,8.4
						C113,13.1,112.3,13.7,111.4,13.7z"/>
				</g>
				<g id="Caminho_2090">
					<path class="st4" d="M10.6,91.5c-0.3,0-0.6-0.1-0.8-0.2l-10.7-5.8C-1.7,85-2,83.9-1.5,83.1c0.2-0.3,0.5-0.6,0.8-0.8l11.1-4.8
						c0.9-0.4,1.9,0.1,2.3,1c0.4,0.9,0,1.9-0.9,2.3L4,84.1l7.5,4.1c0.8,0.5,1.2,1.5,0.7,2.4C11.9,91.1,11.3,91.5,10.6,91.5z"/>
				</g>
				<g id="Caminho_2091">
					<path class="st0" d="M30.2,160c-0.5,0-0.9-0.3-1.1-0.7c-8.8-19.9-10.6-42.2-5-63.2c0.2-0.7,0.9-1.1,1.5-0.9s1.1,0.9,0.9,1.5
						l0,0c-5.4,20.5-3.7,42.2,4.9,61.5c0.3,0.6,0,1.4-0.6,1.7C30.5,160,30.4,160,30.2,160z"/>
				</g>
				<g id="Caminho_2092">
					<path class="st1" d="M115.6,215.6c-18.6,0-36.8-5.4-52.5-15.5c-0.6-0.4-0.8-1.1-0.4-1.7c0.4-0.6,1.1-0.8,1.7-0.4c0,0,0,0,0,0
						c15.3,9.9,33.1,15.1,51.3,15.1c3.2,0,6.5-0.2,9.7-0.5c0.7-0.1,1.3,0.5,1.4,1.1c0.1,0.7-0.4,1.3-1.1,1.3
						C122.3,215.5,118.9,215.6,115.6,215.6z"/>
				</g>
				<g id="Caminho_2093">
					<path class="st2" d="M173,192.9c-0.7,0-1.3-0.6-1.3-1.2c0-0.4,0.2-0.7,0.5-1c16.4-13.4,27.8-31.9,32.2-52.6
						c0.1-0.7,0.8-1.1,1.5-0.9c0.7,0.1,1.1,0.8,1,1.5c-4.5,21.3-16.2,40.3-33.1,54.1C173.5,192.8,173.3,192.9,173,192.9z"/>
				</g>
				<g id="Caminho_2094">
					<path class="st3" d="M200.7,87.9c-0.5,0-1-0.3-1.2-0.8c-7.7-19.7-21.8-36.3-40.1-46.9c-0.6-0.4-0.8-1.1-0.4-1.7
						c0.3-0.6,1.1-0.8,1.7-0.4c18.8,10.9,33.4,27.9,41.2,48.2c0.2,0.6-0.1,1.4-0.7,1.6C201,87.8,200.9,87.9,200.7,87.9L200.7,87.9z"
						/>
				</g>
				<g id="Caminho_2095">
					<path class="st4" d="M51.6,53c-0.7,0-1.2-0.6-1.2-1.3c0-0.4,0.2-0.7,0.4-0.9C67,36.3,87.6,27.7,109.3,26.5
						c0.7,0,1.3,0.5,1.3,1.2s-0.5,1.3-1.2,1.3l0,0c-21.1,1.2-41.2,9.5-57,23.6C52.2,52.9,51.9,53,51.6,53z"/>
				</g>
				<g id="Caminho_2096">
					<path class="st0" d="M44.7,219.7c-1,0-1.7-0.8-1.7-1.8c0-0.2,0.1-0.5,0.2-0.7c8.4-18.4,7.7-39.7-1.9-57.4
						c-2.9-5.3-5.1-10.9-6.8-16.7c-3.2-11.2-4-22.9-2.4-34.4c0.8-5.7,2.2-11.2,4.1-16.6c0.3-0.9,1.3-1.4,2.2-1.1
						c0.9,0.3,1.4,1.3,1.1,2.2c-7.6,21.3-5.8,44.9,4.9,64.8c2.6,4.8,4.6,9.8,5.9,15.1c1.3,5.1,2.1,10.3,2.2,15.5
						c0.1,5.2-0.3,10.3-1.4,15.4c-1,5-2.6,9.9-4.7,14.6C46,219.3,45.4,219.7,44.7,219.7z"/>
				</g>
				<g id="Caminho_2097">
					<path class="st1" d="M186,218.6c-0.4,0-0.9-0.2-1.2-0.5c-14.9-13.7-35.3-19.6-55.2-15.9c-5.9,1.1-11.9,1.5-18,1.3
						c-11.6-0.4-23-3.2-33.4-8.3c-5.1-2.5-10-5.5-14.5-9c-0.8-0.6-0.9-1.7-0.3-2.5c0.6-0.7,1.7-0.9,2.4-0.3
						c17.9,13.8,40.9,19.4,63.1,15.3c21-3.8,42.5,2.4,58.2,16.8c0.7,0.7,0.8,1.8,0.1,2.5C186.9,218.4,186.4,218.6,186,218.6
						L186,218.6z"/>
				</g>
				<g id="Caminho_2098">
					<path class="st2" d="M160.7,189.3c-1,0-1.8-0.8-1.8-1.7c0-0.6,0.3-1.1,0.8-1.4c18.7-12.8,31.1-32.9,34.1-55.3
						c2.8-21.1,15.4-39.7,33.9-50.2c0.8-0.5,1.9-0.2,2.4,0.7s0.2,1.9-0.7,2.4c-17.6,9.9-29.6,27.6-32.2,47.6
						c-0.8,6-2.2,11.8-4.3,17.5c-4,10.9-10.2,20.9-18.3,29.2c-4,4.1-8.3,7.8-13,11C161.4,189.2,161,189.3,160.7,189.3z"/>
				</g>
				<g id="Caminho_2099">
					<path class="st3" d="M192.9,98.9c-0.8,0-1.5-0.5-1.7-1.3C184.9,76,169.6,58,149.2,48.1c-4.9-2.3-9.5-5.3-13.7-8.7
						c-4.1-3.3-7.7-7.1-10.9-11.3c-3.1-4.1-5.8-8.5-7.9-13.2c-2.1-4.7-3.7-9.6-4.8-14.6c-0.2-0.9,0.4-1.9,1.4-2
						c0.9-0.2,1.8,0.4,2,1.3c4,19.8,17.1,36.6,35.3,45.3c5.4,2.6,10.6,5.8,15.3,9.5c9.1,7.2,16.7,16.1,22.1,26.4
						c2.7,5,4.8,10.3,6.5,15.8c0.3,0.9-0.3,1.9-1.2,2.2C193.3,98.9,193.1,98.9,192.9,98.9L192.9,98.9z"/>
				</g>
				<g id="Caminho_2100">
					<path class="st4" d="M7.5,86.1c-2.6,0-5.1-0.1-7.7-0.4c-1-0.1-1.7-1-1.5-1.9c0.1-1,1-1.7,1.9-1.5c20.1,2.4,40.1-4.9,54-19.6
						C58.4,58.2,63,54.3,68,51c9.6-6.5,20.5-10.9,31.9-12.9c5.6-1,11.3-1.4,17-1.3c1,0,1.7,0.8,1.7,1.8c0,1-0.8,1.7-1.8,1.7
						c-0.8,0-1.5,0-2.3,0c-21.8,0-42.7,8.9-57.8,24.7c-3.7,3.9-7.9,7.4-12.5,10.3c-4.4,2.8-9.1,5.1-14.1,6.9
						C22.9,84.8,15.2,86.1,7.5,86.1z"/>
				</g>
			</g>
			<g class="st5">
				<path class="st6" d="M65.4,123.8h-3.7l-0.6,1.7h-2.5l3.6-9.8H65l3.6,9.8H66L65.4,123.8z M63.6,118.3l-1.2,3.6h2.4L63.6,118.3z"
					/>
				<path class="st6" d="M78.5,120.6c0,2.9-2,4.9-5.2,4.9h-3.7v-9.8h3.7C76.5,115.7,78.5,117.7,78.5,120.6z M73.2,123.4
					c1.8,0,2.9-1,2.9-2.8c0-1.8-1.1-2.9-2.9-2.9H72v5.7H73.2z"/>
				<path class="st6" d="M86.5,115.7h2.5l-3.5,9.8h-3l-3.5-9.8h2.5l2.4,7.4L86.5,115.7z"/>
				<path class="st6" d="M96.1,117.6h-3.6v2h3.2v1.8h-3.2v2.2h3.6v1.9h-6v-9.8h6V117.6z"/>
				<path class="st6" d="M101.6,115.7c2.4,0,3.6,1.4,3.6,3.1c0,1.2-0.7,2.4-2.2,2.8l2.3,3.9h-2.7l-2-3.7H100v3.7h-2.4v-9.8H101.6z
					 M101.5,117.7H100v2.4h1.5c0.9,0,1.3-0.5,1.3-1.2C102.8,118.1,102.4,117.7,101.5,117.7z"/>
				<path class="st6" d="M106.2,115.7h7.6v1.9h-2.6v7.9h-2.4v-7.9h-2.6V115.7z"/>
				<path class="st6" d="M121,117.6h-3.6v2h3.2v1.8h-3.2v2.2h3.6v1.9h-6v-9.8h6V117.6z M120.1,115.1L118,114l-2.2,1.1v-1.7l2.2-1.1
					l2.2,1.1V115.1z"/>
				<path class="st6" d="M131.4,115.7v9.8H129l-4-6.1v6.1h-2.4v-9.8h2.4l4,6.1v-6.1H131.4z"/>
				<path class="st6" d="M137.7,115.6c2.3,0,4.1,1.3,4.7,3.4h-2.6c-0.4-0.8-1.1-1.3-2.1-1.3c-1.5,0-2.5,1.1-2.5,2.8
					c0,1.7,1,2.8,2.5,2.8c0.9,0,1.7-0.4,2.1-1.3h2.6c-0.6,2.1-2.3,3.4-4.7,3.4c-2.9,0-4.9-2.1-4.9-5S134.8,115.6,137.7,115.6z"/>
				<path class="st6" d="M143.8,115.7h2.4v9.8h-2.4V115.7z"/>
				<path class="st6" d="M154,123.8h-3.7l-0.6,1.7h-2.5l3.6-9.8h2.8l3.6,9.8h-2.5L154,123.8z M152.2,118.3l-1.2,3.6h2.4L152.2,118.3
					z"/>
				<path class="st6" d="M161.8,125.6c-2.1,0-3.8-1.1-3.8-3h2.5c0.1,0.8,0.5,1.1,1.2,1.1c0.7,0,1.1-0.3,1.1-0.9
					c0-1.8-4.9-0.8-4.9-4.3c0-1.9,1.5-2.9,3.6-2.9c2.1,0,3.6,1.1,3.7,2.9h-2.6c0-0.6-0.5-1-1.1-1c-0.6,0-1,0.3-1,0.9
					c0,1.7,4.9,0.9,4.9,4.2C165.4,124.2,164.1,125.6,161.8,125.6z"/>
			</g>
		</g>
		<g id="Elipse_24">
			<circle class="st3" cx="162.5" cy="20.5" r="20.5"/>
		</g>
		<g id="Elipse_25">
			<circle class="st2" cx="314.5" cy="132.5" r="20.5"/>
		</g>
		<g id="Elipse_28">
			<circle class="st4" cx="20.5" cy="132.5" r="20.5"/>
		</g>
		<g id="Elipse_26">
			<ellipse class="st1" cx="266" cy="296.5" rx="20" ry="20.5"/>
		</g>
		<g id="Elipse_27">
			<circle class="st0" cx="66.5" cy="296.5" r="20.5"/>
		</g>
	</g>
	<g class="st5">
		<path class="st7" d="M424.9,94.7h-1.8v-2.9h5V105h-3.2V94.7z"/>
	</g>
	<g class="st5">
		<path class="st7" d="M572.6,215.5c2.8-2.3,5.8-4.6,5.8-6.8c0-1-0.4-1.6-1.4-1.6c-0.9,0-1.5,0.7-1.5,2h-3c0.1-3.2,2.2-4.6,4.6-4.6
			c3,0,4.3,1.7,4.3,4c0,2.9-2.6,5.2-4.7,6.8h4.9v2.5h-9V215.5z"/>
	</g>
	<g class="st5">
		<path class="st7" d="M288.2,204.8v2.7h-5.6v2.5c0.5-0.5,1.4-0.9,2.4-0.9c2.9,0,4,2.2,4,4.3c0,2.8-1.6,4.6-4.5,4.6
			c-3,0-4.7-1.6-4.8-3.9h3c0.1,0.7,0.6,1.3,1.7,1.3c1.2,0,1.7-0.8,1.7-2c0-1.2-0.6-1.8-1.7-1.8c-0.9,0-1.4,0.5-1.5,1.1h-3v-7.8
			H288.2z"/>
	</g>
	<g class="st5">
		<path class="st7" d="M529,369.5c2.8,0,4.3,1.6,4.3,3.6c0,1.7-1.1,2.6-2,3v0.1c1.3,0.4,2.2,1.4,2.2,3.2c0,2.2-1.6,3.8-4.3,3.8
			c-2.7,0-4.7-1.3-4.8-4.3h3c0,1,0.6,1.7,1.7,1.7c1,0,1.5-0.6,1.5-1.5c0-1.2-0.7-1.6-2.3-1.6h-0.6v-2.5h0.6c1,0,2.1-0.3,2.1-1.4
			c0-0.9-0.5-1.4-1.4-1.4c-1,0-1.4,0.7-1.4,1.4h-3C524.6,371,526.3,369.5,529,369.5z"/>
	</g>
	<g class="st5">
		<path class="st7" d="M329.8,380.7h-6v-2.5l5.7-8.1h3.4v8h1.5v2.7h-1.5v2.3h-3.1V380.7z M330.1,378v-4.6l-3,4.6H330.1z"/>
	</g>
</g>
</svg>
