<svg xmlns="http://www.w3.org/2000/svg" width="687" height="293" viewBox="0 0 687 293">
  <g id="img-slide-8" transform="translate(-94 -154.25)">
    <g id="Grupo_1623" data-name="Grupo 1623" transform="translate(-52 46)">
      <path id="Caminho_1528" data-name="Caminho 1528" d="M0,116.079V87.353H17.494a82.264,82.264,0,0,1,3.714-13.969L6.093,64.658,20.456,39.781l15.15,8.746A83.3,83.3,0,0,1,45.822,38.316L37.08,23.172,61.957,8.809l8.731,15.124a82.309,82.309,0,0,1,13.969-3.71V2.738h28.728V20.23a82.245,82.245,0,0,1,13.967,3.716L136.08,8.829l24.877,14.363-8.748,15.152A83.319,83.319,0,0,1,162.422,48.56l15.143-8.744,14.363,24.877L176.8,73.426a82.253,82.253,0,0,1,3.71,13.969H198V116.12H180.506a82.265,82.265,0,0,1-3.714,13.969l15.115,8.726-14.363,24.877-15.15-8.746a83.3,83.3,0,0,1-10.216,10.212L160.92,180.3l-24.877,14.363-8.731-15.122a82.508,82.508,0,0,1-13.969,3.708v17.488H84.618V183.244a82.27,82.27,0,0,1-13.969-3.716L61.92,194.645,37.043,180.282l8.748-15.152a83.32,83.32,0,0,1-10.214-10.216l-15.143,8.744L6.071,138.781,21.2,130.048a82.047,82.047,0,0,1-3.708-13.969ZM99,155.26a53.523,53.523,0,1,0-53.522-53.522A53.523,53.523,0,0,0,99,155.26" transform="translate(303 200.512)" fill="#6aaac6" opacity="0.8"/>
      <text id="Especialização_e_fragmentação_do_trabalho." data-name="Especialização e
fragmentação 
do trabalho." transform="translate(402 286.25)" fill="#294667" font-size="14" font-family="Poppins-Bold, Poppins" font-weight="700"><tspan x="-59.409" y="0">Especialização e</tspan><tspan x="-53.991" y="21">fragmentação </tspan><tspan x="-44.009" y="42">do trabalho.</tspan></text>
    </g>
    <g id="Grupo_1695" data-name="Grupo 1695" transform="translate(280 -27)">
      <path id="Caminho_1528-2" data-name="Caminho 1528" d="M0,116.079V87.353H17.494a82.264,82.264,0,0,1,3.714-13.969L6.093,64.658,20.456,39.781l15.15,8.746A83.3,83.3,0,0,1,45.822,38.316L37.08,23.172,61.957,8.809l8.731,15.124a82.309,82.309,0,0,1,13.969-3.71V2.738h28.728V20.23a82.245,82.245,0,0,1,13.967,3.716L136.08,8.829l24.877,14.363-8.748,15.152A83.319,83.319,0,0,1,162.422,48.56l15.143-8.744,14.363,24.877L176.8,73.426a82.253,82.253,0,0,1,3.71,13.969H198V116.12H180.506a82.265,82.265,0,0,1-3.714,13.969l15.115,8.726-14.363,24.877-15.15-8.746a83.3,83.3,0,0,1-10.216,10.212L160.92,180.3l-24.877,14.363-8.731-15.122a82.508,82.508,0,0,1-13.969,3.708v17.488H84.618V183.244a82.27,82.27,0,0,1-13.969-3.716L61.92,194.645,37.043,180.282l8.748-15.152a83.32,83.32,0,0,1-10.214-10.216l-15.143,8.744L6.071,138.781,21.2,130.048a82.047,82.047,0,0,1-3.708-13.969ZM99,155.26a53.523,53.523,0,1,0-53.522-53.522A53.523,53.523,0,0,0,99,155.26" transform="translate(303 200.512)" fill="#6aaac6" opacity="0.8"/>
      <text id="_Distinção_de_poder_entre_dirigentes_e_executores." data-name=" Distinção de poder entre 
dirigentes e executores." transform="translate(402 296.25)" fill="#294667" font-size="13" font-family="Poppins-Bold, Poppins" font-weight="700"><tspan x="-84.565" y="0" xml:space="preserve"> Distinção de poder entre </tspan><tspan x="-80.028" y="20">dirigentes e executores.</tspan></text>
    </g>
    <g id="Grupo_1621" data-name="Grupo 1621" transform="translate(-188 -57.75)">
      <path id="Caminho_2072" data-name="Caminho 2072" d="M0,97.475V73.465H14.623a68.761,68.761,0,0,1,3.1-11.676L5.093,54.494,17.1,33.7l12.663,7.31A69.628,69.628,0,0,1,38.3,32.476L30.994,19.818,51.787,7.813l7.3,12.641a68.8,68.8,0,0,1,11.676-3.1V2.738H94.773V17.359a68.745,68.745,0,0,1,11.674,3.106l7.3-12.636,20.793,12.005L127.225,32.5a69.643,69.643,0,0,1,8.537,8.539L148.42,33.73l12.005,20.793-12.641,7.3a68.752,68.752,0,0,1,3.1,11.676H165.5V97.51H150.877a68.762,68.762,0,0,1-3.1,11.676l12.634,7.294L148.4,137.273l-12.663-7.31A69.631,69.631,0,0,1,127.2,138.5l7.307,12.658-20.793,12.005-7.3-12.64a68.963,68.963,0,0,1-11.676,3.1v14.617H70.728V153.615a68.765,68.765,0,0,1-11.676-3.106l-7.3,12.636L30.963,151.14l7.312-12.665a69.644,69.644,0,0,1-8.537-8.539L17.08,137.244,5.075,116.451l12.641-7.3a68.58,68.58,0,0,1-3.1-11.676Zm82.75,32.75A44.738,44.738,0,1,0,38.013,85.488,44.738,44.738,0,0,0,82.75,130.225" transform="translate(599 209.262)" fill="#e4e4e4" opacity="0.6"/>
      <text id="Eleição_e_treinamento_do_homem_adequando-o_à_função." data-name="Eleição e treinamento 
do homem, adequando-o 
à função." transform="translate(682 279)" fill="#294667" font-size="14" font-family="Poppins-Bold, Poppins" font-weight="700"><tspan x="-79.87" y="0">Eleição e treinamento </tspan><tspan x="-94.5" y="21">do homem, adequando-o </tspan><tspan x="-33.614" y="42">à função.</tspan></text>
    </g>
    <g id="Grupo_1622" data-name="Grupo 1622" transform="translate(10 -51)">
      <path id="Caminho_2073" data-name="Caminho 2073" d="M0,97.475V73.465H14.623a68.761,68.761,0,0,1,3.1-11.676L5.093,54.494,17.1,33.7l12.663,7.31A69.628,69.628,0,0,1,38.3,32.476L30.994,19.818,51.787,7.813l7.3,12.641a68.8,68.8,0,0,1,11.676-3.1V2.738H94.773V17.359a68.745,68.745,0,0,1,11.674,3.106l7.3-12.636,20.793,12.005L127.225,32.5a69.643,69.643,0,0,1,8.537,8.539L148.42,33.73l12.005,20.793-12.641,7.3a68.752,68.752,0,0,1,3.1,11.676H165.5V97.51H150.877a68.762,68.762,0,0,1-3.1,11.676l12.634,7.294L148.4,137.273l-12.663-7.31A69.631,69.631,0,0,1,127.2,138.5l7.307,12.658-20.793,12.005-7.3-12.64a68.963,68.963,0,0,1-11.676,3.1v14.617H70.728V153.615a68.765,68.765,0,0,1-11.676-3.106l-7.3,12.636L30.963,151.14l7.312-12.665a69.644,69.644,0,0,1-8.537-8.539L17.08,137.244,5.075,116.451l12.641-7.3a68.58,68.58,0,0,1-3.1-11.676Zm82.75,32.75A44.738,44.738,0,1,0,38.013,85.488,44.738,44.738,0,0,0,82.75,130.225" transform="translate(84 209.512)" fill="#e4e4e4" opacity="0.6"/>
      <text id="Programação_prévia_e_controle_rigoroso." data-name="Programação prévia e 
controle rigoroso." transform="translate(167 289.25)" fill="#294667" font-size="14" font-family="Poppins-Bold, Poppins" font-weight="700"><tspan x="-81.963" y="0">Programação prévia e </tspan><tspan x="-63.637" y="21">controle rigoroso.</tspan></text>
    </g>
  </g>
</svg>
