<?xml version="1.0" encoding="utf-8"?>
<!-- Generator: Adobe Illustrator 26.1.0, SVG Export Plug-In . SVG Version: 6.00 Build 0)  -->
<svg version="1.1" id="Camada_1" xmlns="http://www.w3.org/2000/svg" xmlns:xlink="http://www.w3.org/1999/xlink" x="0px" y="0px"
	 viewBox="0 0 631.9 265.5" style="enable-background:new 0 0 631.9 265.5;" xml:space="preserve">
<style type="text/css">
	.st0{clip-path:url(#SVGID_00000119103148173463857120000002629646339300114830_);}
	.st1{fill:#F29F00;}
	.st2{clip-path:url(#SVGID_00000025439524959052492870000010499789739045195954_);}
	.st3{clip-path:url(#SVGID_00000067916315501323498210000016019486583953920656_);}
	.st4{clip-path:url(#SVGID_00000060732700608189478740000013468336161738391980_);}
	.st5{clip-path:url(#SVGID_00000085252678876362945170000007543103211304453548_);}
	.st6{enable-background:new    ;}
	.st7{clip-path:url(#SVGID_00000176723131827408916440000013961492617455471033_);}
	.st8{fill:#1B8891;}
	.st9{clip-path:url(#SVGID_00000042738098616265655000000009945931522645999521_);}
	.st10{clip-path:url(#SVGID_00000000922608227707245840000011036117487002821766_);}
	.st11{clip-path:url(#SVGID_00000168827799616476683980000016692926939156551860_);}
	.st12{clip-path:url(#SVGID_00000137114904110247986550000010483489501176678048_);}
	.st13{clip-path:url(#SVGID_00000101089690660763033230000004047570239083093924_);}
	.st14{fill:#284565;}
	.st15{clip-path:url(#SVGID_00000044886526824400859610000014893979325620030892_);}
	.st16{fill:#6AAAC6;}
	.st17{clip-path:url(#SVGID_00000127015131226040175880000006336916408516345771_);}
	.st18{clip-path:url(#SVGID_00000170277244282279957510000015305349493047412141_);}
	.st19{clip-path:url(#SVGID_00000001647467040880891960000017147136920628368541_);}
	.st20{clip-path:url(#SVGID_00000169534947977481647380000009480901874960884867_);}
	.st21{clip-path:url(#SVGID_00000086668372985802066450000014867412090472279983_);}
	.st22{clip-path:url(#SVGID_00000080198559017983095320000018157579696863291521_);}
	.st23{clip-path:url(#SVGID_00000165925738517173685030000015259803824414211235_);}
</style>
<g>
	<g id="img-slide-63" transform="translate(-69.5 -172)">
		<g id="Grupo_2001">
			<g id="Grupo_1997" transform="translate(-259 10.858)">
				<g id="Grupo_1665" transform="translate(328.5 176)">
					<g>
						<g>
							<defs>
								<polygon id="SVGID_1_" points="8.4,0 8.4,41 16.8,49.4 8.4,57.8 8.4,98.8 28.9,98.8 28.9,57.8 37.3,49.4 28.9,41 28.9,0 
																	"/>
							</defs>
							<clipPath id="SVGID_00000142880054519228443090000000543338382198085274_">
								<use xlink:href="#SVGID_1_"  style="overflow:visible;"/>
							</clipPath>
							<g id="Grupo_1664" style="clip-path:url(#SVGID_00000142880054519228443090000000543338382198085274_);">
								
									<rect id="Ret창ngulo_1142" x="-22.3" y="4.3" transform="matrix(0.7071 -0.7071 0.7071 0.7071 -28.2525 30.6673)" class="st1" width="90.3" height="90.3"/>
							</g>
						</g>
					</g>
				</g>
				<g id="Grupo_1996" transform="translate(0 -4.858)">
					<g id="Grupo_1675" transform="translate(328.5 166)">
						<g>
							<g>
								<defs>
									<polygon id="SVGID_00000003815948375585811260000006989640248100779916_" points="8.4,0 8.4,55.8 16.8,64.2 8.4,72.7 
										8.4,128.5 28.9,128.5 28.9,72.7 37.3,64.2 28.9,55.8 28.9,0 									"/>
								</defs>
								<clipPath id="SVGID_00000153682083734038567820000008088191477565713588_">
									<use xlink:href="#SVGID_00000003815948375585811260000006989640248100779916_"  style="overflow:visible;"/>
								</clipPath>
								<g id="Grupo_1674" style="clip-path:url(#SVGID_00000153682083734038567820000008088191477565713588_);">
									<g id="Grupo_1673">
										<g id="Grupo_1672">
											<g>
												<g>
													<defs>
														<rect id="SVGID_00000054241144323813642500000008175970775696941993_" x="8.4" width="16.5" height="128.5"/>
													</defs>
													<clipPath id="SVGID_00000041982158228855071070000010382479478956346272_">
														<use xlink:href="#SVGID_00000054241144323813642500000008175970775696941993_"  style="overflow:visible;"/>
													</clipPath>
													<g id="Grupo_1671" style="clip-path:url(#SVGID_00000041982158228855071070000010382479478956346272_);">
														<g id="Grupo_1670">
															<g>
																<g>
																	<defs>
																		<path id="SVGID_00000124152171129623791560000005454815657058613428_" d="M8.4,128.5h11.1V75.6
																			c0-3.6,5.5-7.4,5.5-11.3c0-3.6-5.5-8-5.5-11.6V0H8.4v55.8c0,1,7.2,7.2,7.2,8.4c0,0.8-7.2,7.5-7.2,8.4V128.5z"/>
																	</defs>
																	<clipPath id="SVGID_00000170275607173254647330000017593929153045394836_">
																		<use xlink:href="#SVGID_00000124152171129623791560000005454815657058613428_"  style="overflow:visible;"/>
																	</clipPath>
																	<g id="Grupo_1669" style="clip-path:url(#SVGID_00000170275607173254647330000017593929153045394836_);">
																		<g id="Grupo_1668">
																			<g id="Grupo_1667">
																				<g>
																					<g>
																						<defs>
																							
																								<rect id="SVGID_00000090267225600293440530000014106005781661390223_" x="8.4" width="16.5" height="128.5"/>
																						</defs>
																						<clipPath id="SVGID_00000157267200819499917660000007088999332632561563_">
																							<use xlink:href="#SVGID_00000090267225600293440530000014106005781661390223_"  style="overflow:visible;"/>
																						</clipPath>
																						<g id="Grupo_1666" style="clip-path:url(#SVGID_00000157267200819499917660000007088999332632561563_);">
																							
																								<image style="overflow:visible;enable-background:new    ;" width="124" height="952" id="Ret창ngulo_1143" xlink:href="A2F1F69E.jpg"  transform="matrix(0.1333 0 0 0.1333 8.417 0.8491)">
																							</image>
																						</g>
																					</g>
																				</g>
																			</g>
																		</g>
																	</g>
																</g>
															</g>
														</g>
													</g>
												</g>
											</g>
										</g>
									</g>
								</g>
							</g>
						</g>
					</g>
					<g class="st6">
						<path d="M395.1,190.1c-2.4,0-4.2-1.8-4.2-4.3s1.8-4.3,4.2-4.3c2.4,0,4.2,1.8,4.2,4.3S397.5,190.1,395.1,190.1z M395.1,189.1
							c1.8,0,3.1-1.3,3.1-3.3c0-2.1-1.3-3.3-3.1-3.3s-3.1,1.3-3.1,3.3C392,187.9,393.4,189.1,395.1,189.1z"/>
						<path d="M403.1,190.1c-1.5,0-2.6-0.8-2.7-2h1.1c0.1,0.6,0.6,1.1,1.5,1.1s1.3-0.4,1.3-1c0-1.5-3.9-0.6-3.9-3.1
							c0-1,0.9-1.8,2.4-1.8s2.4,0.8,2.5,2.1h-1.1c0-0.7-0.6-1.1-1.4-1.1s-1.3,0.4-1.3,0.9c0,1.6,3.8,0.7,3.9,3.1
							C405.5,189.3,404.6,190.1,403.1,190.1z"/>
						<path d="M413,183.3c1.6,0,2.7,0.8,3,2.2h-1.2c-0.2-0.8-0.9-1.3-1.9-1.3c-1.2,0-2.1,0.9-2.1,2.5s0.9,2.5,2.1,2.5
							c1,0,1.6-0.5,1.9-1.3h1.2c-0.3,1.3-1.4,2.2-3,2.2c-1.9,0-3.2-1.3-3.2-3.4S411.2,183.3,413,183.3z"/>
						<path d="M420.4,190.1c-1.9,0-3.3-1.3-3.3-3.4c0-2.1,1.5-3.4,3.3-3.4c1.9,0,3.3,1.3,3.3,3.4
							C423.8,188.8,422.3,190.1,420.4,190.1z M420.4,189.1c1.1,0,2.3-0.8,2.3-2.4c0-1.7-1.1-2.4-2.2-2.4c-1.2,0-2.2,0.8-2.2,2.4
							C418.2,188.4,419.3,189.1,420.4,189.1z"/>
						<path d="M425.2,181.1h1.1v8.9h-1.1V181.1z"/>
						<path d="M431,190.1c-1.9,0-3.3-1.3-3.3-3.4c0-2.1,1.3-3.4,3.3-3.4c1.9,0,3.2,1.3,3.2,3.1c0,0.2,0,0.4,0,0.7h-5.3
							c0.1,1.3,1,2.1,2.1,2.1c1,0,1.6-0.5,1.8-1.2h1.2C433.7,189.2,432.6,190.1,431,190.1z M428.9,186.2h4.1c0-1.3-0.9-2-2.1-2
							C429.9,184.2,429,185,428.9,186.2z"/>
						<path d="M438.3,183.3c1.2,0,2.1,0.6,2.4,1.3v-1.2h1.1v6.7c0,1.8-1.2,3.1-3.1,3.1c-1.7,0-3-0.9-3.2-2.3h1.1
							c0.2,0.8,1,1.3,2.1,1.3c1.2,0,2-0.7,2-2.1v-1.4c-0.4,0.7-1.2,1.3-2.4,1.3c-1.8,0-3.1-1.4-3.1-3.4
							C435.2,184.6,436.5,183.3,438.3,183.3z M438.5,184.3c-1.2,0-2.2,0.9-2.2,2.4s1,2.5,2.2,2.5s2.2-0.9,2.2-2.4
							C440.8,185.2,439.7,184.3,438.5,184.3z"/>
						<path d="M443.5,181.6c0-0.4,0.3-0.7,0.7-0.7c0.4,0,0.7,0.3,0.7,0.7s-0.3,0.7-0.7,0.7C443.9,182.4,443.5,182,443.5,181.6z
							 M443.7,183.4h1.1v6.6h-1.1V183.4z"/>
						<path d="M449.4,183.3c1.2,0,2.1,0.6,2.4,1.3v-1.2h1.1v6.6h-1.1v-1.2c-0.4,0.7-1.2,1.3-2.5,1.3c-1.8,0-3.1-1.4-3.1-3.4
							C446.3,184.6,447.6,183.3,449.4,183.3z M449.6,184.3c-1.2,0-2.2,0.9-2.2,2.4s1,2.5,2.2,2.5s2.2-0.9,2.2-2.4
							C451.8,185.2,450.8,184.3,449.6,184.3z"/>
						<path d="M457.5,183.3c1,0,2,0.5,2.4,1.3v-3.5h1.1v8.9h-1.1v-1.2c-0.4,0.7-1.2,1.3-2.4,1.3c-1.8,0-3.1-1.4-3.1-3.4
							C454.4,184.6,455.7,183.3,457.5,183.3z M457.7,184.3c-1.2,0-2.2,0.9-2.2,2.4s1,2.5,2.2,2.5s2.2-0.9,2.2-2.4
							C459.9,185.2,458.9,184.3,457.7,184.3z"/>
						<path d="M465.8,190.1c-1.9,0-3.3-1.3-3.3-3.4c0-2.1,1.5-3.4,3.3-3.4c1.9,0,3.3,1.3,3.3,3.4
							C469.1,188.8,467.6,190.1,465.8,190.1z M465.8,189.1c1.1,0,2.3-0.8,2.3-2.4c0-1.7-1.1-2.4-2.2-2.4c-1.2,0-2.2,0.8-2.2,2.4
							C463.6,188.4,464.6,189.1,465.8,189.1z"/>
						<path d="M472.9,190.1c-1.5,0-2.6-0.8-2.7-2h1.1c0.1,0.6,0.6,1.1,1.5,1.1s1.3-0.4,1.3-1c0-1.5-3.9-0.6-3.9-3.1
							c0-1,0.9-1.8,2.4-1.8s2.4,0.8,2.5,2.1H474c0-0.7-0.6-1.1-1.4-1.1s-1.3,0.4-1.3,0.9c0,1.6,3.8,0.7,3.9,3.1
							C475.3,189.3,474.3,190.1,472.9,190.1z"/>
						<path d="M482.7,183.3c1.2,0,2.1,0.6,2.4,1.3v-1.2h1.1v6.7c0,1.8-1.2,3.1-3.1,3.1c-1.7,0-3-0.9-3.2-2.3h1.1
							c0.2,0.8,1,1.3,2.1,1.3c1.2,0,2-0.7,2-2.1v-1.4c-0.4,0.7-1.2,1.3-2.4,1.3c-1.8,0-3.1-1.4-3.1-3.4
							C479.6,184.6,481,183.3,482.7,183.3z M483,184.3c-1.2,0-2.2,0.9-2.2,2.4s1,2.5,2.2,2.5s2.2-0.9,2.2-2.4
							C485.2,185.2,484.2,184.3,483,184.3z"/>
						<path d="M491,190.1c-1.9,0-3.3-1.3-3.3-3.4c0-2.1,1.3-3.4,3.3-3.4c1.9,0,3.2,1.3,3.2,3.1c0,0.2,0,0.4,0,0.7h-5.3
							c0.1,1.3,1,2.1,2.1,2.1c1,0,1.6-0.5,1.8-1.2h1.2C493.7,189.2,492.6,190.1,491,190.1z M488.9,186.2h4.1c0-1.3-0.9-2-2.1-2
							C489.9,184.2,489,185,488.9,186.2z"/>
						<path d="M497.9,190.1c-1.5,0-2.6-0.8-2.7-2h1.1c0.1,0.6,0.6,1.1,1.5,1.1s1.3-0.4,1.3-1c0-1.5-3.9-0.6-3.9-3.1
							c0-1,0.9-1.8,2.4-1.8s2.4,0.8,2.5,2.1H499c0-0.7-0.6-1.1-1.4-1.1s-1.3,0.4-1.3,0.9c0,1.6,3.8,0.7,3.9,3.1
							C500.3,189.3,499.4,190.1,497.9,190.1z"/>
						<path d="M502.1,184.3h-0.9v-0.9h0.9v-1.7h1.1v1.7h1.7v0.9h-1.7v3.9c0,0.6,0.2,0.9,0.9,0.9h0.8v0.9h-1c-1.2,0-1.8-0.5-1.8-1.8
							V184.3z"/>
						<path d="M509.1,190.1c-1.9,0-3.3-1.3-3.3-3.4c0-2.1,1.5-3.4,3.3-3.4c1.9,0,3.3,1.3,3.3,3.4C512.5,188.8,511,190.1,509.1,190.1
							z M509.1,189.1c1.1,0,2.3-0.8,2.3-2.4c0-1.7-1.1-2.4-2.2-2.4c-1.2,0-2.2,0.8-2.2,2.4C506.9,188.4,507.9,189.1,509.1,189.1z"/>
						<path d="M515,190h-1.1v-6.6h1.1v1.1c0.4-0.7,1.1-1.2,2.1-1.2v1.1h-0.3c-1,0-1.8,0.5-1.8,2V190z"/>
						<path d="M521.2,190.1c-1.9,0-3.3-1.3-3.3-3.4c0-2.1,1.3-3.4,3.3-3.4c1.9,0,3.2,1.3,3.2,3.1c0,0.2,0,0.4,0,0.7h-5.3
							c0.1,1.3,1,2.1,2.1,2.1c1,0,1.6-0.5,1.8-1.2h1.2C523.9,189.2,522.8,190.1,521.2,190.1z M519.1,186.2h4.1c0-1.3-0.9-2-2.1-2
							C520.1,184.2,519.2,185,519.1,186.2z"/>
						<path d="M528.1,190.1c-1.5,0-2.6-0.8-2.7-2h1.1c0.1,0.6,0.6,1.1,1.5,1.1s1.3-0.4,1.3-1c0-1.5-3.9-0.6-3.9-3.1
							c0-1,0.9-1.8,2.4-1.8s2.4,0.8,2.5,2.1h-1.1c0-0.7-0.6-1.1-1.4-1.1c-0.8,0-1.3,0.4-1.3,0.9c0,1.6,3.8,0.7,3.9,3.1
							C530.5,189.3,529.6,190.1,528.1,190.1z"/>
					</g>
					<g class="st6">
						<path d="M393.7,208.1c-1.5,0-2.6-0.8-2.7-2h1.1c0.1,0.6,0.6,1.1,1.5,1.1s1.3-0.4,1.3-1c0-1.5-3.9-0.6-3.9-3.1
							c0-1,0.9-1.8,2.4-1.8s2.4,0.8,2.5,2.1h-1.1c0-0.7-0.6-1.1-1.4-1.1s-1.3,0.4-1.3,0.9c0,1.6,3.8,0.7,3.9,3.1
							C396.1,207.3,395.1,208.1,393.7,208.1z"/>
						<path d="M400.3,201.3c1.2,0,2.1,0.6,2.4,1.3v-1.2h1.1v6.6h-1.1v-1.2c-0.4,0.7-1.2,1.3-2.5,1.3c-1.8,0-3.1-1.4-3.1-3.4
							C397.2,202.6,398.6,201.3,400.3,201.3z M400.5,202.3c-1.2,0-2.2,0.9-2.2,2.4s1,2.5,2.2,2.5s2.2-0.9,2.2-2.4
							C402.8,203.2,401.7,202.3,400.5,202.3z M400.2,199.5c0.6,0,0.9,0.6,1.4,0.6c0.3,0,0.5-0.2,0.5-0.5h0.6
							c-0.1,0.8-0.6,1.2-1.2,1.2s-0.9-0.6-1.4-0.6c-0.3,0-0.5,0.2-0.5,0.5H399C399.1,199.9,399.6,199.5,400.2,199.5z"/>
						<path d="M408.6,208.1c-1.9,0-3.3-1.3-3.3-3.4c0-2.1,1.5-3.4,3.3-3.4c1.9,0,3.3,1.3,3.3,3.4C412,206.8,410.5,208.1,408.6,208.1
							z M408.6,207.1c1.1,0,2.3-0.8,2.3-2.4c0-1.7-1.1-2.4-2.2-2.4c-1.2,0-2.2,0.8-2.2,2.4C406.4,206.4,407.4,207.1,408.6,207.1z"/>
						<path d="M419.4,201.3c1.6,0,2.7,0.8,3,2.2h-1.2c-0.2-0.8-0.9-1.3-1.9-1.3c-1.2,0-2.1,0.9-2.1,2.5s0.9,2.5,2.1,2.5
							c1,0,1.6-0.5,1.9-1.3h1.2c-0.3,1.3-1.4,2.2-3,2.2c-1.9,0-3.2-1.3-3.2-3.4C416.2,202.6,417.5,201.3,419.4,201.3z"/>
						<path d="M426.8,208.1c-1.9,0-3.3-1.3-3.3-3.4c0-2.1,1.5-3.4,3.3-3.4c1.9,0,3.3,1.3,3.3,3.4
							C430.1,206.8,428.6,208.1,426.8,208.1z M426.8,207.1c1.1,0,2.3-0.8,2.3-2.4c0-1.7-1.1-2.4-2.2-2.4c-1.2,0-2.2,0.8-2.2,2.4
							C424.6,206.4,425.6,207.1,426.8,207.1z"/>
						<path d="M441.1,204.3c0-1.3-0.7-2-1.8-2c-1.1,0-1.9,0.7-1.9,2.1v3.6h-1.1v-3.7c0-1.3-0.7-2-1.8-2c-1.1,0-1.9,0.7-1.9,2.1v3.6
							h-1.1v-6.6h1.1v0.9c0.4-0.7,1.2-1.1,2.1-1.1c1.1,0,2,0.5,2.4,1.5c0.4-0.9,1.3-1.5,2.3-1.5c1.5,0,2.7,0.9,2.7,2.8v3.9H441
							L441.1,204.3L441.1,204.3z"/>
						<path d="M447.5,201.3c1.8,0,3.1,1.3,3.1,3.4c0,2-1.4,3.4-3.1,3.4c-1.2,0-2.1-0.6-2.5-1.3v4.3h-1.1v-9.7h1.1v1.2
							C445.4,201.9,446.3,201.3,447.5,201.3z M447.2,202.3c-1.2,0-2.2,0.9-2.2,2.4s1,2.4,2.2,2.4s2.2-0.9,2.2-2.5
							C449.5,203.1,448.5,202.3,447.2,202.3z"/>
						<path d="M454.9,208.1c-1.9,0-3.3-1.3-3.3-3.4c0-2.1,1.5-3.4,3.3-3.4c1.9,0,3.3,1.3,3.3,3.4
							C458.3,206.8,456.8,208.1,454.9,208.1z M454.9,207.1c1.1,0,2.3-0.8,2.3-2.4c0-1.7-1.1-2.4-2.2-2.4c-1.2,0-2.2,0.8-2.2,2.4
							C452.7,206.4,453.8,207.1,454.9,207.1z"/>
						<path d="M462,208.1c-1.5,0-2.6-0.8-2.7-2h1.1c0.1,0.6,0.6,1.1,1.5,1.1s1.3-0.4,1.3-1c0-1.5-3.9-0.6-3.9-3.1
							c0-1,0.9-1.8,2.4-1.8s2.4,0.8,2.5,2.1h-1.1c0-0.7-0.6-1.1-1.4-1.1s-1.3,0.4-1.3,0.9c0,1.6,3.8,0.7,3.9,3.1
							C464.4,207.3,463.5,208.1,462,208.1z"/>
						<path d="M466.2,202.3h-0.9v-0.9h0.9v-1.7h1.1v1.7h1.7v0.9h-1.7v3.9c0,0.6,0.2,0.9,0.9,0.9h0.8v0.9h-1c-1.2,0-1.8-0.5-1.8-1.8
							V202.3z"/>
						<path d="M473.2,208.1c-1.9,0-3.3-1.3-3.3-3.4c0-2.1,1.5-3.4,3.3-3.4c1.9,0,3.3,1.3,3.3,3.4
							C476.6,206.8,475.1,208.1,473.2,208.1z M473.2,207.1c1.1,0,2.3-0.8,2.3-2.4c0-1.7-1.1-2.4-2.2-2.4c-1.2,0-2.2,0.8-2.2,2.4
							C471.1,206.4,472.1,207.1,473.2,207.1z"/>
						<path d="M480.4,208.1c-1.5,0-2.6-0.8-2.7-2h1.1c0.1,0.6,0.6,1.1,1.5,1.1s1.3-0.4,1.3-1c0-1.5-3.9-0.6-3.9-3.1
							c0-1,0.9-1.8,2.4-1.8s2.4,0.8,2.5,2.1h-1.1c0-0.7-0.6-1.1-1.4-1.1s-1.3,0.4-1.3,0.9c0,1.6,3.8,0.7,3.9,3.1
							C482.8,207.3,481.8,208.1,480.4,208.1z"/>
						<path d="M491,201.3c1.8,0,3.1,1.3,3.1,3.4c0,2-1.4,3.4-3.1,3.4c-1.2,0-2.1-0.6-2.5-1.3v4.3h-1.1v-9.7h1.1v1.2
							C489,201.9,489.8,201.3,491,201.3z M490.8,202.3c-1.2,0-2.2,0.9-2.2,2.4s1,2.4,2.2,2.4s2.2-0.9,2.2-2.5
							C493,203.1,492,202.3,490.8,202.3z"/>
						<path d="M498.5,208.1c-1.9,0-3.3-1.3-3.3-3.4c0-2.1,1.5-3.4,3.3-3.4c1.9,0,3.3,1.3,3.3,3.4S500.3,208.1,498.5,208.1z
							 M498.5,207.1c1.1,0,2.3-0.8,2.3-2.4c0-1.7-1.1-2.4-2.2-2.4c-1.2,0-2.2,0.8-2.2,2.4C496.3,206.4,497.3,207.1,498.5,207.1z"/>
						<path d="M504.4,208h-1.1v-6.6h1.1v1.1c0.4-0.7,1.1-1.2,2.1-1.2v1.1h-0.3c-1,0-1.8,0.5-1.8,2L504.4,208L504.4,208z"/>
					</g>
					<g class="st6">
						<path d="M392.4,226h-1.1v-6.6h1.1v1.1c0.4-0.7,1.1-1.2,2.1-1.2v1.1h-0.3c-1,0-1.8,0.5-1.8,2L392.4,226L392.4,226z"/>
						<path d="M398.7,226.1c-1.9,0-3.3-1.3-3.3-3.4c0-2.1,1.3-3.4,3.3-3.4c1.9,0,3.2,1.3,3.2,3.1c0,0.2,0,0.4,0,0.7h-5.3
							c0.1,1.3,1,2.1,2.1,2.1c1,0,1.6-0.5,1.8-1.2h1.2C401.3,225.2,400.3,226.1,398.7,226.1z M396.5,222.2h4.1c0-1.3-0.9-2-2.1-2
							C397.5,220.2,396.7,221,396.5,222.2z"/>
						<path d="M406.8,219.3c1.8,0,3.1,1.3,3.1,3.4c0,2-1.4,3.4-3.1,3.4c-1.2,0-2.1-0.6-2.5-1.3v4.3h-1.1v-9.7h1.1v1.2
							C404.7,219.9,405.6,219.3,406.8,219.3z M406.6,220.3c-1.2,0-2.2,0.9-2.2,2.4s1,2.4,2.2,2.4s2.2-0.9,2.2-2.5
							C408.8,221.1,407.8,220.3,406.6,220.3z"/>
						<path d="M412.5,226h-1.1v-6.6h1.1v1.1c0.4-0.7,1.1-1.2,2.1-1.2v1.1h-0.3c-1,0-1.8,0.5-1.8,2L412.5,226L412.5,226z"/>
						<path d="M418.7,226.1c-1.9,0-3.3-1.3-3.3-3.4c0-2.1,1.3-3.4,3.3-3.4c1.9,0,3.2,1.3,3.2,3.1c0,0.2,0,0.4,0,0.7h-5.3
							c0.1,1.3,1,2.1,2.1,2.1c1,0,1.6-0.5,1.8-1.2h1.2C421.4,225.2,420.3,226.1,418.7,226.1z M416.6,222.2h4.1c0-1.3-0.9-2-2.1-2
							C417.6,220.2,416.7,221,416.6,222.2z"/>
						<path d="M425.6,226.1c-1.5,0-2.6-0.8-2.7-2h1.1c0.1,0.6,0.6,1.1,1.5,1.1s1.3-0.4,1.3-1c0-1.5-3.9-0.6-3.9-3.1
							c0-1,0.9-1.8,2.4-1.8s2.4,0.8,2.5,2.1h-1.1c0-0.7-0.6-1.1-1.4-1.1s-1.3,0.4-1.3,0.9c0,1.6,3.8,0.7,3.9,3.1
							C428,225.3,427.1,226.1,425.6,226.1z"/>
						<path d="M432.4,226.1c-1.9,0-3.3-1.3-3.3-3.4c0-2.1,1.3-3.4,3.3-3.4c1.9,0,3.2,1.3,3.2,3.1c0,0.2,0,0.4,0,0.7h-5.3
							c0.1,1.3,1,2.1,2.1,2.1c1,0,1.6-0.5,1.8-1.2h1.2C435.1,225.2,434,226.1,432.4,226.1z M430.3,222.2h4.1c0-1.3-0.9-2-2.1-2
							C431.3,220.2,430.4,221,430.3,222.2z"/>
						<path d="M441.8,222.3c0-1.3-0.7-2-1.8-2c-1.1,0-1.9,0.7-1.9,2.1v3.6H437v-6.6h1.1v0.9c0.4-0.7,1.2-1.1,2.1-1.1
							c1.5,0,2.7,0.9,2.7,2.8v3.9h-1.1L441.8,222.3L441.8,222.3z"/>
						<path d="M444.9,220.3H444v-0.9h0.9v-1.7h1.1v1.7h1.7v0.9H446v3.9c0,0.6,0.2,0.9,0.9,0.9h0.8v0.9h-1c-1.2,0-1.8-0.5-1.8-1.8
							V220.3z"/>
						<path d="M451.7,219.3c1.2,0,2.1,0.6,2.4,1.3v-1.2h1.1v6.6h-1.1v-1.2c-0.4,0.7-1.2,1.3-2.5,1.3c-1.8,0-3.1-1.4-3.1-3.4
							C448.6,220.6,450,219.3,451.7,219.3z M452,220.3c-1.2,0-2.2,0.9-2.2,2.4s1,2.5,2.2,2.5s2.2-0.9,2.2-2.4
							C454.2,221.2,453.2,220.3,452,220.3z"/>
						<path d="M462,222.3c0-1.3-0.7-2-1.8-2c-1.1,0-1.9,0.7-1.9,2.1v3.6h-1.1v-6.6h1.1v0.9c0.4-0.7,1.2-1.1,2.1-1.1
							c1.5,0,2.7,0.9,2.7,2.8v3.9H462V222.3z"/>
						<path d="M465.1,220.3h-0.9v-0.9h0.9v-1.7h1.1v1.7h1.7v0.9h-1.7v3.9c0,0.6,0.2,0.9,0.9,0.9h0.8v0.9h-1c-1.2,0-1.8-0.5-1.8-1.8
							V220.3z"/>
						<path d="M472,226.1c-1.9,0-3.3-1.3-3.3-3.4c0-2.1,1.3-3.4,3.3-3.4c1.9,0,3.2,1.3,3.2,3.1c0,0.2,0,0.4,0,0.7h-5.3
							c0.1,1.3,1,2.1,2.1,2.1c1,0,1.6-0.5,1.8-1.2h1.2C474.7,225.2,473.7,226.1,472,226.1z M469.9,222.2h4.1c0-1.3-0.9-2-2.1-2
							C470.9,220.2,470,221,469.9,222.2z"/>
						<path d="M479,226.1c-1.5,0-2.6-0.8-2.7-2h1.1c0.1,0.6,0.6,1.1,1.5,1.1s1.3-0.4,1.3-1c0-1.5-3.9-0.6-3.9-3.1
							c0-1,0.9-1.8,2.4-1.8s2.4,0.8,2.5,2.1h-1.1c0-0.7-0.6-1.1-1.4-1.1s-1.3,0.4-1.3,0.9c0,1.6,3.8,0.7,3.9,3.1
							C481.4,225.3,480.4,226.1,479,226.1z"/>
						<path d="M485.9,217.6c0-0.4,0.3-0.7,0.7-0.7c0.4,0,0.7,0.3,0.7,0.7s-0.3,0.7-0.7,0.7C486.2,218.4,485.9,218,485.9,217.6z
							 M486.1,219.4h1.1v6.6h-1.1V219.4z"/>
						<path d="M493.9,222.3c0-1.3-0.7-2-1.8-2c-1.1,0-1.9,0.7-1.9,2.1v3.6h-1.1v-6.6h1.1v0.9c0.4-0.7,1.2-1.1,2.1-1.1
							c1.5,0,2.7,0.9,2.7,2.8v3.9h-1.1L493.9,222.3L493.9,222.3z"/>
						<path d="M499.5,219.3c1,0,2,0.5,2.4,1.3v-3.5h1.1v8.9h-1.1v-1.2c-0.4,0.7-1.2,1.3-2.4,1.3c-1.8,0-3.1-1.4-3.1-3.4
							C496.3,220.6,497.7,219.3,499.5,219.3z M499.7,220.3c-1.2,0-2.2,0.9-2.2,2.4s1,2.5,2.2,2.5s2.2-0.9,2.2-2.4
							C501.9,221.2,500.9,220.3,499.7,220.3z"/>
						<path d="M504.7,217.6c0-0.4,0.3-0.7,0.7-0.7c0.4,0,0.7,0.3,0.7,0.7s-0.3,0.7-0.7,0.7C505,218.4,504.7,218,504.7,217.6z
							 M504.8,219.4h1.1v6.6h-1.1V219.4z"/>
						<path d="M510.6,219.3c1.6,0,2.7,0.8,3,2.2h-1.2c-0.2-0.8-0.9-1.3-1.9-1.3c-1.2,0-2.1,0.9-2.1,2.5s0.9,2.5,2.1,2.5
							c1,0,1.6-0.5,1.9-1.3h1.2c-0.3,1.3-1.4,2.2-3,2.2c-1.9,0-3.2-1.3-3.2-3.4C507.4,220.6,508.7,219.3,510.6,219.3z"/>
						<path d="M517.8,219.3c1.2,0,2.1,0.6,2.4,1.3v-1.2h1.1v6.6h-1.1v-1.2c-0.4,0.7-1.2,1.3-2.5,1.3c-1.8,0-3.1-1.4-3.1-3.4
							C514.7,220.6,516,219.3,517.8,219.3z M518,220.3c-1.2,0-2.2,0.9-2.2,2.4s1,2.5,2.2,2.5s2.2-0.9,2.2-2.4
							C520.2,221.2,519.2,220.3,518,220.3z"/>
						<path d="M525.9,219.3c1,0,2,0.5,2.4,1.3v-3.5h1.1v8.9h-1.1v-1.2c-0.4,0.7-1.2,1.3-2.4,1.3c-1.8,0-3.1-1.4-3.1-3.4
							C522.8,220.6,524.1,219.3,525.9,219.3z M526.1,220.3c-1.2,0-2.2,0.9-2.2,2.4s1,2.5,2.2,2.5s2.2-0.9,2.2-2.4
							C528.4,221.2,527.3,220.3,526.1,220.3z"/>
						<path d="M534.2,226.1c-1.9,0-3.3-1.3-3.3-3.4c0-2.1,1.5-3.4,3.3-3.4c1.9,0,3.3,1.3,3.3,3.4S536,226.1,534.2,226.1z
							 M534.2,225.1c1.1,0,2.3-0.8,2.3-2.4c0-1.7-1.1-2.4-2.2-2.4c-1.2,0-2.2,0.8-2.2,2.4C532,224.4,533,225.1,534.2,225.1z"/>
						<path d="M541.3,226.1c-1.5,0-2.6-0.8-2.7-2h1.1c0.1,0.6,0.6,1.1,1.5,1.1s1.3-0.4,1.3-1c0-1.5-3.9-0.6-3.9-3.1
							c0-1,0.9-1.8,2.4-1.8s2.4,0.8,2.5,2.1h-1.1c0-0.7-0.6-1.1-1.4-1.1c-0.8,0-1.3,0.4-1.3,0.9c0,1.6,3.8,0.7,3.9,3.1
							C543.7,225.3,542.8,226.1,541.3,226.1z"/>
					</g>
					<g class="st6">
						<path d="M394.1,237.3c1,0,2,0.5,2.4,1.3v-3.5h1.1v8.9h-1.1v-1.2c-0.4,0.7-1.2,1.3-2.4,1.3c-1.8,0-3.1-1.4-3.1-3.4
							C390.9,238.6,392.3,237.3,394.1,237.3z M394.3,238.3c-1.2,0-2.2,0.9-2.2,2.4s1,2.5,2.2,2.5s2.2-0.9,2.2-2.4
							C396.5,239.2,395.5,238.3,394.3,238.3z"/>
						<path d="M402.3,244.1c-1.9,0-3.3-1.3-3.3-3.4c0-2.1,1.3-3.4,3.3-3.4c1.9,0,3.2,1.3,3.2,3.1c0,0.2,0,0.4,0,0.7h-5.3
							c0.1,1.3,1,2.1,2.1,2.1c1,0,1.6-0.5,1.8-1.2h1.2C405,243.2,403.9,244.1,402.3,244.1z M400.2,240.2h4.1c0-1.3-0.9-2-2.1-2
							C401.2,238.2,400.3,239,400.2,240.2z"/>
						<path d="M410.3,238.3h-0.9v-0.9h0.9v-1.7h1.1v1.7h1.7v0.9h-1.7v3.9c0,0.6,0.2,0.9,0.9,0.9h0.8v0.9h-1c-1.2,0-1.8-0.5-1.8-1.8
							V238.3z"/>
						<path d="M417.3,244.1c-1.9,0-3.3-1.3-3.3-3.4c0-2.1,1.5-3.4,3.3-3.4c1.9,0,3.3,1.3,3.3,3.4
							C420.7,242.8,419.2,244.1,417.3,244.1z M417.3,243.1c1.1,0,2.3-0.8,2.3-2.4c0-1.7-1.1-2.4-2.2-2.4c-1.2,0-2.2,0.8-2.2,2.4
							C415.2,242.4,416.2,243.1,417.3,243.1z"/>
						<path d="M424.9,237.3c1,0,2,0.5,2.4,1.3v-3.5h1.1v8.9h-1.1v-1.2c-0.4,0.7-1.2,1.3-2.4,1.3c-1.8,0-3.1-1.4-3.1-3.4
							C421.7,238.6,423.1,237.3,424.9,237.3z M425.1,238.3c-1.2,0-2.2,0.9-2.2,2.4s1,2.5,2.2,2.5s2.2-0.9,2.2-2.4
							C427.3,239.2,426.3,238.3,425.1,238.3z"/>
						<path d="M433.1,244.1c-1.9,0-3.3-1.3-3.3-3.4c0-2.1,1.5-3.4,3.3-3.4c1.9,0,3.3,1.3,3.3,3.4C436.5,242.8,435,244.1,433.1,244.1
							z M433.1,243.1c1.1,0,2.3-0.8,2.3-2.4c0-1.7-1.1-2.4-2.2-2.4c-1.2,0-2.2,0.8-2.2,2.4C431,242.4,432,243.1,433.1,243.1z"/>
						<path d="M440.3,244.1c-1.5,0-2.6-0.8-2.7-2h1.1c0.1,0.6,0.6,1.1,1.5,1.1s1.3-0.4,1.3-1c0-1.5-3.9-0.6-3.9-3.1
							c0-1,0.9-1.8,2.4-1.8s2.4,0.8,2.5,2.1h-1.1c0-0.7-0.6-1.1-1.4-1.1s-1.3,0.4-1.3,0.9c0,1.6,3.8,0.7,3.9,3.1
							C442.7,243.3,441.7,244.1,440.3,244.1z"/>
						<path d="M450.3,244.1c-1.9,0-3.3-1.3-3.3-3.4c0-2.1,1.5-3.4,3.3-3.4c1.9,0,3.3,1.3,3.3,3.4
							C453.6,242.8,452.1,244.1,450.3,244.1z M450.3,243.1c1.1,0,2.3-0.8,2.3-2.4c0-1.7-1.1-2.4-2.2-2.4c-1.2,0-2.2,0.8-2.2,2.4
							C448.1,242.4,449.1,243.1,450.3,243.1z"/>
						<path d="M457.4,244.1c-1.5,0-2.6-0.8-2.7-2h1.1c0.1,0.6,0.6,1.1,1.5,1.1s1.3-0.4,1.3-1c0-1.5-3.9-0.6-3.9-3.1
							c0-1,0.9-1.8,2.4-1.8s2.4,0.8,2.5,2.1h-1.1c0-0.7-0.6-1.1-1.4-1.1s-1.3,0.4-1.3,0.9c0,1.6,3.8,0.7,3.9,3.1
							C459.8,243.3,458.9,244.1,457.4,244.1z"/>
						<path d="M466.9,244.1c-1.5,0-2.6-0.8-2.7-2h1.1c0.1,0.6,0.6,1.1,1.5,1.1s1.3-0.4,1.3-1c0-1.5-3.9-0.6-3.9-3.1
							c0-1,0.9-1.8,2.4-1.8s2.4,0.8,2.5,2.1H468c0-0.7-0.6-1.1-1.4-1.1s-1.3,0.4-1.3,0.9c0,1.6,3.8,0.7,3.9,3.1
							C469.3,243.3,468.3,244.1,466.9,244.1z"/>
						<path d="M473.7,244.1c-1.9,0-3.3-1.3-3.3-3.4c0-2.1,1.3-3.4,3.3-3.4c1.9,0,3.2,1.3,3.2,3.1c0,0.2,0,0.4,0,0.7h-5.3
							c0.1,1.3,1,2.1,2.1,2.1c1,0,1.6-0.5,1.8-1.2h1.2C476.3,243.2,475.3,244.1,473.7,244.1z M471.5,240.2h4.1c0-1.3-0.9-2-2.1-2
							C472.5,238.2,471.7,239,471.5,240.2z"/>
						<path d="M478.5,238.3h-0.9v-0.9h0.9v-1.7h1.1v1.7h1.7v0.9h-1.7v3.9c0,0.6,0.2,0.9,0.9,0.9h0.8v0.9h-1c-1.2,0-1.8-0.5-1.8-1.8
							V238.3z"/>
						<path d="M485.5,244.1c-1.9,0-3.3-1.3-3.3-3.4c0-2.1,1.5-3.4,3.3-3.4c1.9,0,3.3,1.3,3.3,3.4
							C488.9,242.8,487.4,244.1,485.5,244.1z M485.5,243.1c1.1,0,2.3-0.8,2.3-2.4c0-1.7-1.1-2.4-2.2-2.4c-1.2,0-2.2,0.8-2.2,2.4
							C483.3,242.4,484.4,243.1,485.5,243.1z"/>
						<path d="M491.4,244h-1.1v-6.6h1.1v1.1c0.4-0.7,1.1-1.2,2.1-1.2v1.1h-0.3c-1,0-1.8,0.5-1.8,2L491.4,244L491.4,244z"/>
						<path d="M497.6,244.1c-1.9,0-3.3-1.3-3.3-3.4c0-2.1,1.3-3.4,3.3-3.4c1.9,0,3.2,1.3,3.2,3.1c0,0.2,0,0.4,0,0.7h-5.3
							c0.1,1.3,1,2.1,2.1,2.1c1,0,1.6-0.5,1.8-1.2h1.2C500.3,243.2,499.3,244.1,497.6,244.1z M495.5,240.2h4.1c0-1.3-0.9-2-2.1-2
							C496.5,238.2,495.6,239,495.5,240.2z"/>
						<path d="M504.5,244.1c-1.5,0-2.6-0.8-2.7-2h1.1c0.1,0.6,0.6,1.1,1.5,1.1s1.3-0.4,1.3-1c0-1.5-3.9-0.6-3.9-3.1
							c0-1,0.9-1.8,2.4-1.8s2.4,0.8,2.5,2.1h-1.1c0-0.7-0.6-1.1-1.4-1.1s-1.3,0.4-1.3,0.9c0,1.6,3.8,0.7,3.9,3.1
							C506.9,243.3,506,244.1,504.5,244.1z"/>
						<path d="M514.5,244.1c-1.9,0-3.3-1.3-3.3-3.4c0-2.1,1.3-3.4,3.3-3.4c1.9,0,3.2,1.3,3.2,3.1c0,0.2,0,0.4,0,0.7h-5.3
							c0.1,1.3,1,2.1,2.1,2.1c1,0,1.6-0.5,1.8-1.2h1.2C517.2,243.2,516.2,244.1,514.5,244.1z M512.4,240.2h4.1c0-1.3-0.9-2-2.1-2
							C513.4,238.2,512.5,239,512.4,240.2z"/>
					</g>
					<g class="st6">
						<path d="M394.1,255.3c1.2,0,2.1,0.6,2.4,1.3v-1.2h1.1v6.7c0,1.8-1.2,3.1-3.1,3.1c-1.7,0-3-0.9-3.2-2.3h1.1
							c0.2,0.8,1,1.3,2.1,1.3c1.2,0,2-0.7,2-2.1v-1.4c-0.4,0.7-1.2,1.3-2.4,1.3c-1.8,0-3.1-1.4-3.1-3.4
							C390.9,256.6,392.3,255.3,394.1,255.3z M394.3,256.3c-1.2,0-2.2,0.9-2.2,2.4s1,2.5,2.2,2.5s2.2-0.9,2.2-2.4
							C396.5,257.2,395.5,256.3,394.3,256.3z"/>
						<path d="M400.5,262h-1.1v-6.6h1.1v1.1c0.4-0.7,1.1-1.2,2.1-1.2v1.1h-0.3c-1,0-1.8,0.5-1.8,2L400.5,262L400.5,262z"/>
						<path d="M409.8,262h-1.1v-1c-0.4,0.7-1.2,1.1-2.1,1.1c-1.5,0-2.7-0.9-2.7-2.8v-3.8h1.1v3.7c0,1.3,0.7,2,1.8,2
							c1.1,0,1.9-0.7,1.9-2.1v-3.6h1.1L409.8,262L409.8,262z"/>
						<path d="M415.2,255.3c1.8,0,3.1,1.3,3.1,3.4c0,2-1.4,3.4-3.1,3.4c-1.2,0-2.1-0.6-2.5-1.3v4.3h-1.1v-9.7h1.1v1.2
							C413.1,255.9,414,255.3,415.2,255.3z M414.9,256.3c-1.2,0-2.2,0.9-2.2,2.4s1,2.4,2.2,2.4s2.2-0.9,2.2-2.5
							C417.2,257.1,416.1,256.3,414.9,256.3z"/>
						<path d="M422.6,262.1c-1.9,0-3.3-1.3-3.3-3.4s1.5-3.4,3.3-3.4c1.9,0,3.3,1.3,3.3,3.4C426,260.8,424.5,262.1,422.6,262.1z
							 M422.6,261.1c1.1,0,2.3-0.8,2.3-2.4c0-1.7-1.1-2.4-2.2-2.4c-1.2,0-2.2,0.8-2.2,2.4C420.4,260.4,421.4,261.1,422.6,261.1z"/>
						<path d="M429.7,262.1c-1.5,0-2.6-0.8-2.7-2h1.1c0.1,0.6,0.6,1.1,1.5,1.1s1.3-0.4,1.3-1c0-1.5-3.9-0.6-3.9-3.1
							c0-1,0.9-1.8,2.4-1.8s2.4,0.8,2.5,2.1H431c0-0.7-0.6-1.1-1.4-1.1s-1.3,0.4-1.3,0.9c0,1.6,3.8,0.7,3.9,3.1
							C432.1,261.3,431.2,262.1,429.7,262.1z"/>
						<path d="M439.6,255.3c1,0,2,0.5,2.4,1.3v-3.5h1.1v8.9H442v-1.2c-0.4,0.7-1.2,1.3-2.4,1.3c-1.8,0-3.1-1.4-3.1-3.4
							C436.5,256.6,437.8,255.3,439.6,255.3z M439.8,256.3c-1.2,0-2.2,0.9-2.2,2.4s1,2.5,2.2,2.5s2.2-0.9,2.2-2.4
							C442,257.2,441,256.3,439.8,256.3z"/>
						<path d="M447.8,262.1c-1.9,0-3.3-1.3-3.3-3.4s1.3-3.4,3.3-3.4c1.9,0,3.2,1.3,3.2,3.1c0,0.2,0,0.4,0,0.7h-5.3
							c0.1,1.3,1,2.1,2.1,2.1c1,0,1.6-0.5,1.8-1.2h1.2C450.5,261.2,449.5,262.1,447.8,262.1z M445.7,258.2h4.1c0-1.3-0.9-2-2.1-2
							C446.7,256.2,445.8,257,445.7,258.2z"/>
						<path d="M455.9,256.3H455v-0.9h0.9v-1.7h1.1v1.7h1.7v0.9H457v3.9c0,0.6,0.2,0.9,0.9,0.9h0.8v0.9h-1c-1.2,0-1.8-0.5-1.8-1.8
							V256.3z"/>
						<path d="M461.1,262H460v-6.6h1.1v1.1c0.4-0.7,1.1-1.2,2.1-1.2v1.1h-0.3c-1,0-1.8,0.5-1.8,2L461.1,262L461.1,262z"/>
						<path d="M467.2,255.3c1.2,0,2.1,0.6,2.4,1.3v-1.2h1.1v6.6h-1.1v-1.2c-0.4,0.7-1.2,1.3-2.5,1.3c-1.8,0-3.1-1.4-3.1-3.4
							C464.1,256.6,465.4,255.3,467.2,255.3z M467.4,256.3c-1.2,0-2.2,0.9-2.2,2.4s1,2.5,2.2,2.5s2.2-0.9,2.2-2.4
							C469.6,257.2,468.6,256.3,467.4,256.3z"/>
						<path d="M476.1,255.3c1.8,0,3.1,1.3,3.1,3.4c0,2-1.4,3.4-3.1,3.4c-1.2,0-2.1-0.6-2.5-1.3v1.2h-1.1v-8.9h1.1v3.5
							C474.1,255.9,475,255.3,476.1,255.3z M475.9,256.3c-1.2,0-2.2,0.9-2.2,2.4s1,2.4,2.2,2.4s2.2-0.9,2.2-2.5
							C478.1,257.1,477.1,256.3,475.9,256.3z"/>
						<path d="M483.4,255.3c1.2,0,2.1,0.6,2.4,1.3v-1.2h1.1v6.6h-1.1v-1.2c-0.4,0.7-1.2,1.3-2.5,1.3c-1.8,0-3.1-1.4-3.1-3.4
							C480.3,256.6,481.6,255.3,483.4,255.3z M483.6,256.3c-1.2,0-2.2,0.9-2.2,2.4s1,2.5,2.2,2.5s2.2-0.9,2.2-2.4
							C485.8,257.2,484.8,256.3,483.6,256.3z"/>
						<path d="M488.8,253.1h1.1v8.9h-1.1V253.1z"/>
						<path d="M491.8,253.1h1.1v3.2c0.4-0.7,1.2-1.1,2.2-1.1c1.5,0,2.6,0.9,2.6,2.8v3.9h-1.1v-3.7c0-1.3-0.7-2-1.8-2
							c-1.1,0-1.9,0.7-1.9,2.1v3.6h-1.1L491.8,253.1L491.8,253.1z"/>
						<path d="M502.3,262.1c-1.9,0-3.3-1.3-3.3-3.4s1.5-3.4,3.3-3.4c1.9,0,3.3,1.3,3.3,3.4C505.7,260.8,504.2,262.1,502.3,262.1z
							 M502.3,261.1c1.1,0,2.3-0.8,2.3-2.4c0-1.7-1.1-2.4-2.2-2.4c-1.2,0-2.2,0.8-2.2,2.4C500.1,260.4,501.2,261.1,502.3,261.1z"/>
						<path d="M513,255.3c1,0,2,0.5,2.4,1.3v-3.5h1.1v8.9h-1.1v-1.2c-0.4,0.7-1.2,1.3-2.4,1.3c-1.8,0-3.1-1.4-3.1-3.4
							C509.9,256.6,511.3,255.3,513,255.3z M513.2,256.3c-1.2,0-2.2,0.9-2.2,2.4s1,2.5,2.2,2.5s2.2-0.9,2.2-2.4
							C515.5,257.2,514.4,256.3,513.2,256.3z"/>
						<path d="M521.3,262.1c-1.9,0-3.3-1.3-3.3-3.4s1.5-3.4,3.3-3.4c1.9,0,3.3,1.3,3.3,3.4C524.7,260.8,523.2,262.1,521.3,262.1z
							 M521.3,261.1c1.1,0,2.3-0.8,2.3-2.4c0-1.7-1.1-2.4-2.2-2.4c-1.2,0-2.2,0.8-2.2,2.4C519.1,260.4,520.2,261.1,521.3,261.1z"/>
					</g>
					<g class="st6">
						<path d="M393.7,280.1c-1.5,0-2.6-0.8-2.7-2h1.1c0.1,0.6,0.6,1.1,1.5,1.1s1.3-0.4,1.3-1c0-1.5-3.9-0.6-3.9-3.1
							c0-1,0.9-1.8,2.4-1.8s2.4,0.8,2.5,2.1h-1.1c0-0.7-0.6-1.1-1.4-1.1s-1.3,0.4-1.3,0.9c0,1.6,3.8,0.7,3.9,3.1
							C396.1,279.3,395.1,280.1,393.7,280.1z"/>
						<path d="M400.4,280.1c-1.9,0-3.3-1.3-3.3-3.4s1.3-3.4,3.3-3.4c1.9,0,3.2,1.3,3.2,3.1c0,0.2,0,0.4,0,0.7h-5.3
							c0.1,1.3,1,2.1,2.1,2.1c1,0,1.6-0.5,1.8-1.2h1.2C403.1,279.2,402.1,280.1,400.4,280.1z M398.3,276.2h4.1c0-1.3-0.9-2-2.1-2
							C399.3,274.2,398.4,275,398.3,276.2z"/>
						<path d="M406.1,280H405v-6.6h1.1v1.1c0.4-0.7,1.1-1.2,2.1-1.2v1.1H408c-1,0-1.8,0.5-1.8,2v3.6H406.1z"/>
						<path d="M409.9,273.4l2.1,5.6l2-5.6h1.2l-2.6,6.6h-1.3l-2.6-6.6H409.9z"/>
						<path d="M416.1,271.6c0-0.4,0.3-0.7,0.7-0.7c0.4,0,0.7,0.3,0.7,0.7c0,0.4-0.3,0.7-0.7,0.7C416.4,272.4,416.1,272,416.1,271.6z
							 M416.3,273.4h1.1v6.6h-1.1V273.4z"/>
						<path d="M422,273.3c1.6,0,2.7,0.8,3,2.2h-1.2c-0.2-0.8-0.9-1.3-1.9-1.3c-1.2,0-2.1,0.9-2.1,2.5s0.9,2.5,2.1,2.5
							c1,0,1.6-0.5,1.9-1.3h1.2c-0.3,1.2-1.3,2.1-2.7,2.2v0.6c0.9,0,1.5,0.4,1.5,1.2c0,0.8-0.6,1.2-1.5,1.2H421v-0.7h1.2
							c0.5,0,0.8-0.1,0.8-0.5s-0.3-0.5-0.8-0.5h-0.6v-1.3c-1.7-0.2-2.8-1.5-2.8-3.4C418.8,274.6,420.1,273.3,422,273.3z"/>
						<path d="M429.4,280.1c-1.9,0-3.3-1.3-3.3-3.4s1.5-3.4,3.3-3.4c1.9,0,3.3,1.3,3.3,3.4C432.7,278.8,431.2,280.1,429.4,280.1z
							 M429.4,279.1c1.1,0,2.3-0.8,2.3-2.4c0-1.7-1.1-2.4-2.2-2.4c-1.2,0-2.2,0.8-2.2,2.4C427.2,278.4,428.2,279.1,429.4,279.1z"/>
						<path d="M434.5,280.1c-0.4,0-0.7-0.3-0.7-0.7s0.3-0.7,0.7-0.7c0.4,0,0.7,0.3,0.7,0.7S434.9,280.1,434.5,280.1z"/>
					</g>
				</g>
			</g>
			<g id="Grupo_1999" transform="translate(-112.644 6)">
				<g id="Grupo_1641" transform="translate(601.657 180.858)">
					<g>
						<g>
							<defs>
								<polygon id="SVGID_00000134955681793532730540000007212506979222445973_" points="28.9,41 28.9,0 8.4,0 8.4,41 16.8,49.4 
									8.4,57.8 8.4,98.8 28.9,98.8 28.9,57.8 37.3,49.4 								"/>
							</defs>
							<clipPath id="SVGID_00000021086728178491649160000016149743685141915060_">
								<use xlink:href="#SVGID_00000134955681793532730540000007212506979222445973_"  style="overflow:visible;"/>
							</clipPath>
							<g id="Grupo_1640" style="clip-path:url(#SVGID_00000021086728178491649160000016149743685141915060_);">
								
									<rect id="Ret창ngulo_1134" x="-22.3" y="4.3" transform="matrix(0.7071 -0.7071 0.7071 0.7071 -28.2521 30.6677)" class="st8" width="90.3" height="90.3"/>
							</g>
						</g>
					</g>
				</g>
				<g id="Grupo_1995">
					<g id="Grupo_1651" transform="translate(601.657 166)">
						<g>
							<g>
								<defs>
									<polygon id="SVGID_00000031915049755161111940000001742875742620724912_" points="8.4,0 8.4,55.8 16.8,64.2 8.4,72.7 
										8.4,128.5 28.9,128.5 28.9,72.7 37.3,64.2 28.9,55.8 28.9,0 									"/>
								</defs>
								<clipPath id="SVGID_00000165952005846383517580000000145554970956319675_">
									<use xlink:href="#SVGID_00000031915049755161111940000001742875742620724912_"  style="overflow:visible;"/>
								</clipPath>
								<g id="Grupo_1650" style="clip-path:url(#SVGID_00000165952005846383517580000000145554970956319675_);">
									<g id="Grupo_1649">
										<g id="Grupo_1648">
											<g>
												<g>
													<defs>
														<rect id="SVGID_00000120549294747981266720000011395902556088853930_" x="8.4" width="16.5" height="128.5"/>
													</defs>
													<clipPath id="SVGID_00000045586282523364904670000017646301321240445352_">
														<use xlink:href="#SVGID_00000120549294747981266720000011395902556088853930_"  style="overflow:visible;"/>
													</clipPath>
													<g id="Grupo_1647" style="clip-path:url(#SVGID_00000045586282523364904670000017646301321240445352_);">
														<g id="Grupo_1646">
															<g>
																<g>
																	<defs>
																		<path id="SVGID_00000078767692790615251970000011417212828935864255_" d="M8.4,128.5h11.1V75.6
																			c0-3.6,5.5-7.4,5.5-11.3c0-3.6-5.5-8-5.5-11.6V0H8.4v55.8c0,1,7.2,7.2,7.2,8.4c0,0.8-7.2,7.5-7.2,8.4V128.5z"/>
																	</defs>
																	<clipPath id="SVGID_00000163037512865058554030000012366860242066393265_">
																		<use xlink:href="#SVGID_00000078767692790615251970000011417212828935864255_"  style="overflow:visible;"/>
																	</clipPath>
																	<g id="Grupo_1645" style="clip-path:url(#SVGID_00000163037512865058554030000012366860242066393265_);">
																		<g id="Grupo_1644">
																			<g id="Grupo_1643">
																				<g>
																					<g>
																						<defs>
																							
																								<rect id="SVGID_00000026155070121544968030000009141867113348824765_" x="8.4" width="16.5" height="128.5"/>
																						</defs>
																						<clipPath id="SVGID_00000052794111189146283000000007512842267342750141_">
																							<use xlink:href="#SVGID_00000026155070121544968030000009141867113348824765_"  style="overflow:visible;"/>
																						</clipPath>
																						<g id="Grupo_1642" style="clip-path:url(#SVGID_00000052794111189146283000000007512842267342750141_);">
																							
																								<image style="overflow:visible;enable-background:new    ;" width="132" height="952" id="Ret창ngulo_1135" xlink:href="A2F1F6A2.jpg"  transform="matrix(0.1252 0 0 0.1252 8.417 4.6945)">
																							</image>
																						</g>
																					</g>
																				</g>
																			</g>
																		</g>
																	</g>
																</g>
															</g>
														</g>
													</g>
												</g>
											</g>
										</g>
									</g>
								</g>
							</g>
						</g>
					</g>
					<g class="st6">
						<path d="M669.3,195.1h-3.6L665,197h-1.2l3-8.3h1.3l3,8.3H670L669.3,195.1z M667.5,190l-1.5,4.2h3L667.5,190z"/>
						<path d="M674.8,197.1c-1.5,0-2.6-0.8-2.7-2h1.1c0.1,0.6,0.6,1.1,1.5,1.1s1.3-0.4,1.3-1c0-1.5-3.9-0.6-3.9-3.1
							c0-1,0.9-1.8,2.4-1.8s2.4,0.8,2.5,2.1h-1c0-0.7-0.6-1.1-1.4-1.1c-0.8,0-1.3,0.4-1.3,0.9c0,1.6,3.8,0.7,3.9,3.1
							C677.2,196.3,676.2,197.1,674.8,197.1z"/>
						<path d="M684.7,197.1c-1.9,0-3.3-1.3-3.3-3.4c0-2.1,1.3-3.4,3.3-3.4c1.9,0,3.2,1.3,3.2,3.1c0,0.2,0,0.4,0,0.7h-5.3
							c0.1,1.3,1,2.1,2.1,2.1c1,0,1.6-0.5,1.8-1.2h1.2C687.4,196.2,686.4,197.1,684.7,197.1z M682.6,193.2h4.1c0-1.3-0.9-2-2.1-2
							C683.6,191.2,682.7,192,682.6,193.2z"/>
						<path d="M692.1,190.3c1.2,0,2.1,0.6,2.4,1.3v-1.2h1.1v9.7h-1.1v-4.3c-0.4,0.7-1.2,1.3-2.5,1.3c-1.7,0-3.1-1.4-3.1-3.4
							C688.9,191.6,690.3,190.3,692.1,190.3z M692.3,191.3c-1.2,0-2.2,0.9-2.2,2.4s1,2.5,2.2,2.5s2.2-0.9,2.2-2.4
							C694.5,192.2,693.5,191.3,692.3,191.3z"/>
						<path d="M703.3,197h-1.1v-1c-0.4,0.7-1.2,1.1-2.1,1.1c-1.5,0-2.7-0.9-2.7-2.8v-3.8h1.1v3.7c0,1.3,0.7,2,1.8,2s1.9-0.7,1.9-2.1
							v-3.6h1.1V197z"/>
						<path d="M704.9,188.6c0-0.4,0.3-0.7,0.7-0.7s0.7,0.3,0.7,0.7s-0.3,0.7-0.7,0.7C705.3,189.4,704.9,189,704.9,188.6z
							 M705.1,190.4h1.1v6.6h-1.1V190.4z"/>
						<path d="M711.6,190.3c1.8,0,3.1,1.3,3.1,3.4c0,2-1.4,3.4-3.1,3.4c-1.2,0-2.1-0.6-2.5-1.3v4.3H708v-9.7h1.1v1.2
							C709.6,190.9,710.4,190.3,711.6,190.3z M711.4,191.3c-1.2,0-2.2,0.9-2.2,2.4s1,2.4,2.2,2.4s2.2-0.9,2.2-2.5
							C713.6,192.1,712.6,191.3,711.4,191.3z"/>
						<path d="M719,197.1c-1.9,0-3.2-1.3-3.2-3.4c0-2.1,1.3-3.4,3.2-3.4s3.2,1.3,3.2,3.1c0,0.2,0,0.4,0,0.7h-5.3
							c0.1,1.3,1,2.1,2.1,2.1c1,0,1.6-0.5,1.8-1.2h1.2C721.7,196.2,720.7,197.1,719,197.1z M716.9,193.2h4.2c0-1.3-0.9-2-2.1-2
							C717.9,191.2,717,192,716.9,193.2z"/>
						<path d="M726,197.1c-1.5,0-2.6-0.8-2.7-2h1.1c0.1,0.6,0.6,1.1,1.5,1.1s1.3-0.4,1.3-1c0-1.5-3.9-0.6-3.9-3.1
							c0-1,0.9-1.8,2.4-1.8s2.4,0.8,2.5,2.1h-1.1c0-0.7-0.6-1.1-1.4-1.1c-0.8,0-1.3,0.4-1.3,0.9c0,1.6,3.8,0.7,3.9,3.1
							C728.4,196.3,727.4,197.1,726,197.1z"/>
						<path d="M735.8,190.3c1,0,2,0.5,2.4,1.3v-3.5h1.1v8.9h-1.1v-1.2c-0.4,0.7-1.2,1.3-2.4,1.3c-1.8,0-3.1-1.4-3.1-3.4
							C732.7,191.6,734,190.3,735.8,190.3z M736,191.3c-1.2,0-2.2,0.9-2.2,2.4s1,2.5,2.2,2.5s2.2-0.9,2.2-2.4
							C738.3,192.2,737.2,191.3,736,191.3z"/>
						<path d="M744.1,197.1c-1.9,0-3.2-1.3-3.2-3.4c0-2.1,1.3-3.4,3.2-3.4s3.2,1.3,3.2,3.1c0,0.2,0,0.4,0,0.7H742
							c0.1,1.3,1,2.1,2.1,2.1c1,0,1.6-0.5,1.8-1.2h1.2C746.7,196.2,745.7,197.1,744.1,197.1z M741.9,193.2h4.2c0-1.3-0.9-2-2.1-2
							C742.9,191.2,742.1,192,741.9,193.2z"/>
						<path d="M752.1,191.3h-0.9v-0.9h0.9v-1.7h1.1v1.7h1.7v0.9h-1.7v3.9c0,0.6,0.2,0.9,0.9,0.9h0.8v0.9h-1c-1.2,0-1.8-0.5-1.8-1.8
							V191.3z"/>
						<path d="M757.3,197h-1.1v-6.6h1.1v1.1c0.4-0.7,1.1-1.2,2.1-1.2v1.1h-0.3c-1,0-1.8,0.5-1.8,2V197z"/>
						<path d="M763.4,190.3c1.2,0,2.1,0.6,2.4,1.3v-1.2h1.1v6.6h-1.1v-1.2c-0.4,0.7-1.2,1.3-2.5,1.3c-1.8,0-3.1-1.4-3.1-3.4
							C760.3,191.6,761.6,190.3,763.4,190.3z M763.6,191.3c-1.2,0-2.2,0.9-2.2,2.4s1,2.5,2.2,2.5s2.2-0.9,2.2-2.4
							C765.9,192.2,764.8,191.3,763.6,191.3z"/>
						<path d="M772.4,190.3c1.8,0,3.1,1.3,3.1,3.4c0,2-1.4,3.4-3.1,3.4c-1.2,0-2.1-0.6-2.5-1.3v1.2h-1.1v-8.9h1.1v3.5
							C770.3,190.9,771.2,190.3,772.4,190.3z M772.1,191.3c-1.2,0-2.2,0.9-2.2,2.4s1,2.4,2.2,2.4s2.2-0.9,2.2-2.5
							C774.4,192.1,773.3,191.3,772.1,191.3z"/>
						<path d="M779.6,190.3c1.2,0,2.1,0.6,2.4,1.3v-1.2h1.1v6.6H782v-1.2c-0.4,0.7-1.2,1.3-2.5,1.3c-1.8,0-3.1-1.4-3.1-3.4
							C776.5,191.6,777.9,190.3,779.6,190.3z M779.9,191.3c-1.2,0-2.2,0.9-2.2,2.4s1,2.5,2.2,2.5s2.2-0.9,2.2-2.4
							C782.1,192.2,781,191.3,779.9,191.3z"/>
						<path d="M785,188.1h1.1v8.9H785V188.1z"/>
						<path d="M788,188.1h1.1v3.2c0.4-0.7,1.2-1.1,2.2-1.1c1.5,0,2.6,0.9,2.6,2.8v3.9h-1.1v-3.7c0-1.3-0.7-2-1.8-2s-1.9,0.7-1.9,2.1
							v3.6H788V188.1z"/>
						<path d="M798.5,197.1c-1.9,0-3.3-1.3-3.3-3.4c0-2.1,1.5-3.4,3.3-3.4c1.9,0,3.3,1.3,3.3,3.4
							C801.9,195.8,800.4,197.1,798.5,197.1z M798.5,196.1c1.1,0,2.3-0.8,2.3-2.4c0-1.7-1.1-2.4-2.2-2.4c-1.2,0-2.2,0.8-2.2,2.4
							C796.4,195.4,797.4,196.1,798.5,196.1z"/>
					</g>
					<g class="st6">
						<path d="M667.1,208.3c1,0,2,0.5,2.4,1.3v-3.5h1.1v8.9h-1.1v-1.2c-0.4,0.7-1.2,1.3-2.4,1.3c-1.8,0-3.1-1.4-3.1-3.4
							C663.9,209.6,665.3,208.3,667.1,208.3z M667.3,209.3c-1.2,0-2.2,0.9-2.2,2.4s1,2.5,2.2,2.5s2.2-0.9,2.2-2.4
							C669.5,210.2,668.5,209.3,667.3,209.3z"/>
						<path d="M675.3,215.1c-1.9,0-3.2-1.3-3.2-3.4c0-2.1,1.3-3.4,3.2-3.4s3.2,1.3,3.2,3.1c0,0.2,0,0.4,0,0.7h-5.3
							c0.1,1.3,1,2.1,2.1,2.1c1,0,1.6-0.5,1.8-1.2h1.2C678,214.2,676.9,215.1,675.3,215.1z M673.2,211.2h4.2c0-1.3-0.9-2-2.1-2
							C674.2,209.2,673.3,210,673.2,211.2z"/>
						<path d="M680.3,208.4l2.1,5.6l2-5.6h1.2L683,215h-1.3l-2.6-6.6H680.3z"/>
						<path d="M689.5,215.1c-1.9,0-3.2-1.3-3.2-3.4c0-2.1,1.3-3.4,3.2-3.4s3.2,1.3,3.2,3.1c0,0.2,0,0.4,0,0.7h-5.3
							c0.1,1.3,1,2.1,2.1,2.1c1,0,1.6-0.5,1.8-1.2h1.2C692.2,214.2,691.1,215.1,689.5,215.1z M687.3,211.2h4.2c0-1.3-0.9-2-2.1-2
							C688.4,209.2,687.5,210,687.3,211.2z"/>
						<path d="M703.6,211.3c0-1.3-0.7-2-1.8-2s-1.9,0.7-1.9,2.1v3.6h-1.1v-3.7c0-1.3-0.7-2-1.8-2s-1.9,0.7-1.9,2.1v3.6H694v-6.6h1.1
							v0.9c0.4-0.7,1.2-1.1,2.1-1.1c1.1,0,2,0.5,2.4,1.5c0.4-0.9,1.3-1.5,2.3-1.5c1.5,0,2.7,0.9,2.7,2.8v3.9h-1.1L703.6,211.3
							L703.6,211.3z"/>
						<path d="M709.9,209.3H709v-0.9h0.9v-1.7h1.1v1.7h1.7v0.9H711v3.9c0,0.6,0.2,0.9,0.9,0.9h0.8v0.9h-1c-1.2,0-1.8-0.5-1.8-1.8
							V209.3z"/>
						<path d="M716.8,215.1c-1.9,0-3.3-1.3-3.3-3.4c0-2.1,1.3-3.4,3.3-3.4c1.9,0,3.2,1.3,3.2,3.1c0,0.2,0,0.4,0,0.7h-5.3
							c0.1,1.3,1,2.1,2.1,2.1c1,0,1.6-0.5,1.8-1.2h1.2C719.5,214.2,718.5,215.1,716.8,215.1z M714.7,211.2h4.1c0-1.3-0.9-2-2.1-2
							C715.7,209.2,714.8,210,714.7,211.2z"/>
						<path d="M722.5,215h-1.1v-6.6h1.1v1.1c0.4-0.7,1.1-1.2,2.1-1.2v1.1h-0.3c-1,0-1.8,0.5-1.8,2V215z"/>
						<path d="M732.7,208.3c1.8,0,3.1,1.3,3.1,3.4c0,2-1.4,3.4-3.1,3.4c-1.2,0-2.1-0.6-2.5-1.3v4.3h-1.1v-9.7h1.1v1.2
							C730.6,208.9,731.5,208.3,732.7,208.3z M732.4,209.3c-1.2,0-2.2,0.9-2.2,2.4s1,2.4,2.2,2.4s2.2-0.9,2.2-2.5
							C734.7,210.1,733.6,209.3,732.4,209.3z"/>
						<path d="M740.1,215.1c-1.9,0-3.2-1.3-3.2-3.4c0-2.1,1.3-3.4,3.2-3.4s3.2,1.3,3.2,3.1c0,0.2,0,0.4,0,0.7H738
							c0.1,1.3,1,2.1,2.1,2.1c1,0,1.6-0.5,1.8-1.2h1.2C742.8,214.2,741.7,215.1,740.1,215.1z M737.9,211.2h4.2c0-1.3-0.9-2-2.1-2
							C739,209.2,738.1,210,737.9,211.2z"/>
						<path d="M745.8,215h-1.1v-6.6h1.1v1.1c0.4-0.7,1.1-1.2,2.1-1.2v1.1h-0.3c-1,0-1.8,0.5-1.8,2V215z"/>
						<path d="M758.6,211.3c0-1.3-0.7-2-1.8-2s-1.9,0.7-1.9,2.1v3.6h-1.1v-3.7c0-1.3-0.7-2-1.8-2s-1.9,0.7-1.9,2.1v3.6H749v-6.6h1.1
							v0.9c0.4-0.7,1.2-1.1,2.1-1.1c1.1,0,2,0.5,2.4,1.5c0.4-0.9,1.3-1.5,2.3-1.5c1.5,0,2.7,0.9,2.7,2.8v3.9h-1.1L758.6,211.3
							L758.6,211.3z"/>
						<path d="M761.3,206.6c0-0.4,0.3-0.7,0.7-0.7s0.7,0.3,0.7,0.7s-0.3,0.7-0.7,0.7C761.6,207.4,761.3,207,761.3,206.6z
							 M761.5,208.4h1.1v6.6h-1.1V208.4z"/>
						<path d="M766.8,215.1c-1.5,0-2.6-0.8-2.7-2h1.1c0.1,0.6,0.6,1.1,1.5,1.1s1.3-0.4,1.3-1c0-1.5-3.9-0.6-3.9-3.1
							c0-1,0.9-1.8,2.4-1.8s2.4,0.8,2.5,2.1h-1c0-0.7-0.6-1.1-1.4-1.1c-0.8,0-1.3,0.4-1.3,0.9c0,1.6,3.8,0.7,3.9,3.1
							C769.2,214.3,768.2,215.1,766.8,215.1z"/>
						<path d="M773,215.1c-1.5,0-2.6-0.8-2.7-2h1.1c0.1,0.6,0.6,1.1,1.5,1.1s1.3-0.4,1.3-1c0-1.5-3.9-0.6-3.9-3.1
							c0-1,0.9-1.8,2.4-1.8s2.4,0.8,2.5,2.1h-1.1c0-0.7-0.6-1.1-1.4-1.1c-0.8,0-1.3,0.4-1.3,0.9c0,1.6,3.8,0.7,3.9,3.1
							C775.4,214.3,774.5,215.1,773,215.1z"/>
						<path d="M779.7,208.3c1.2,0,2.1,0.6,2.4,1.3v-1.2h1.1v6.6h-1.1v-1.2c-0.4,0.7-1.2,1.3-2.5,1.3c-1.8,0-3.1-1.4-3.1-3.4
							C776.6,209.6,777.9,208.3,779.7,208.3z M779.9,209.3c-1.2,0-2.2,0.9-2.2,2.4s1,2.5,2.2,2.5s2.2-0.9,2.2-2.4
							C782.1,210.2,781.1,209.3,779.9,209.3z M779.6,206.5c0.6,0,0.9,0.6,1.4,0.6c0.3,0,0.5-0.2,0.5-0.5h0.6
							c-0.1,0.8-0.6,1.2-1.2,1.2c-0.6,0-0.9-0.6-1.4-0.6c-0.3,0-0.5,0.2-0.5,0.5h-0.6C778.5,206.9,778.9,206.5,779.6,206.5z"/>
						<path d="M788,215.1c-1.9,0-3.3-1.3-3.3-3.4c0-2.1,1.5-3.4,3.3-3.4c1.9,0,3.3,1.3,3.3,3.4S789.8,215.1,788,215.1z M788,214.1
							c1.1,0,2.3-0.8,2.3-2.4c0-1.7-1.1-2.4-2.2-2.4c-1.2,0-2.2,0.8-2.2,2.4C785.8,213.4,786.8,214.1,788,214.1z"/>
					</g>
					<g class="st6">
						<path d="M667.9,226.3c1.8,0,3.1,1.3,3.1,3.4c0,2-1.4,3.4-3.1,3.4c-1.2,0-2.1-0.6-2.5-1.3v4.3h-1.1v-9.7h1.1v1.2
							C665.8,226.9,666.7,226.3,667.9,226.3z M667.7,227.3c-1.2,0-2.2,0.9-2.2,2.4s1,2.4,2.2,2.4s2.2-0.9,2.2-2.5
							C669.9,228.1,668.9,227.3,667.7,227.3z"/>
						<path d="M675.2,226.3c1.2,0,2.1,0.6,2.4,1.3v-1.2h1.1v6.6h-1.1v-1.2c-0.4,0.7-1.2,1.3-2.5,1.3c-1.8,0-3.1-1.4-3.1-3.4
							C672,227.6,673.4,226.3,675.2,226.3z M675.4,227.3c-1.2,0-2.2,0.9-2.2,2.4s1,2.5,2.2,2.5s2.2-0.9,2.2-2.4
							C677.6,228.2,676.6,227.3,675.4,227.3z"/>
						<path d="M681.7,233h-1.1v-6.6h1.1v1.1c0.4-0.7,1.1-1.2,2.1-1.2v1.1h-0.3c-1,0-1.8,0.5-1.8,2V233z"/>
						<path d="M687.8,226.3c1.2,0,2.1,0.6,2.4,1.3v-1.2h1.1v6.6h-1.1v-1.2c-0.4,0.7-1.2,1.3-2.5,1.3c-1.8,0-3.1-1.4-3.1-3.4
							C684.6,227.6,686,226.3,687.8,226.3z M688,227.3c-1.2,0-2.2,0.9-2.2,2.4s1,2.5,2.2,2.5s2.2-0.9,2.2-2.4
							C690.2,228.2,689.2,227.3,688,227.3z"/>
						<path d="M696.6,227.3h-0.9v-0.9h0.9V226c0-1.5,0.7-2.1,2.4-2.1v0.9c-1,0-1.3,0.4-1.3,1.2v0.5h1.4v0.9h-1.4v5.7h-1.1
							L696.6,227.3L696.6,227.3z"/>
						<path d="M703,226.3c1.2,0,2.1,0.6,2.4,1.3v-1.2h1.1v6.6h-1.1v-1.2c-0.4,0.7-1.2,1.3-2.5,1.3c-1.8,0-3.1-1.4-3.1-3.4
							C699.9,227.6,701.3,226.3,703,226.3z M703.2,227.3c-1.2,0-2.2,0.9-2.2,2.4s1,2.5,2.2,2.5s2.2-0.9,2.2-2.4
							C705.5,228.2,704.4,227.3,703.2,227.3z"/>
						<path d="M712.4,227.3l-3.2,4.8h3.2v0.9H708v-0.9l3.2-4.8H708v-0.9h4.4V227.3z"/>
						<path d="M716.7,233.1c-1.9,0-3.2-1.3-3.2-3.4c0-2.1,1.3-3.4,3.2-3.4s3.2,1.3,3.2,3.1c0,0.2,0,0.4,0,0.7h-5.3
							c0.1,1.3,1,2.1,2.1,2.1c1,0,1.6-0.5,1.8-1.2h1.2C719.4,232.2,718.3,233.1,716.7,233.1z M714.6,229.2h4.2c0-1.3-0.9-2-2.1-2
							C715.6,227.2,714.7,228,714.6,229.2z"/>
						<path d="M722.4,233h-1.1v-6.6h1.1v1.1c0.4-0.7,1.1-1.2,2.1-1.2v1.1h-0.3c-1,0-1.8,0.5-1.8,2V233z"/>
						<path d="M731.7,226.3c1,0,2,0.5,2.4,1.3v-3.5h1.1v8.9h-1.1v-1.2c-0.4,0.7-1.2,1.3-2.4,1.3c-1.8,0-3.1-1.4-3.1-3.4
							C728.6,227.6,729.9,226.3,731.7,226.3z M731.9,227.3c-1.2,0-2.2,0.9-2.2,2.4s1,2.5,2.2,2.5s2.2-0.9,2.2-2.4
							C734.2,228.2,733.1,227.3,731.9,227.3z"/>
						<path d="M736.9,224.6c0-0.4,0.3-0.7,0.7-0.7s0.7,0.3,0.7,0.7s-0.3,0.7-0.7,0.7C737.3,225.4,736.9,225,736.9,224.6z
							 M737.1,226.4h1.1v6.6h-1.1V226.4z"/>
						<path d="M742.4,233.1c-1.5,0-2.6-0.8-2.7-2h1.1c0.1,0.6,0.6,1.1,1.5,1.1s1.3-0.4,1.3-1c0-1.5-3.9-0.6-3.9-3.1
							c0-1,0.9-1.8,2.4-1.8s2.4,0.8,2.5,2.1h-1.1c0-0.7-0.6-1.1-1.4-1.1c-0.8,0-1.3,0.4-1.3,0.9c0,1.6,3.8,0.7,3.9,3.1
							C744.8,232.3,743.8,233.1,742.4,233.1z"/>
						<path d="M749.1,226.3c1.6,0,2.7,0.8,3,2.2H751c-0.2-0.8-0.9-1.3-1.9-1.3c-1.2,0-2.1,0.9-2.1,2.5s0.9,2.5,2.1,2.5
							c1,0,1.6-0.5,1.9-1.3h1.2c-0.3,1.3-1.4,2.2-3,2.2c-1.9,0-3.2-1.3-3.2-3.4C745.9,227.6,747.2,226.3,749.1,226.3z"/>
						<path d="M759.4,233h-1.1v-1c-0.4,0.7-1.2,1.1-2.1,1.1c-1.5,0-2.7-0.9-2.7-2.8v-3.8h1.1v3.7c0,1.3,0.7,2,1.8,2s1.9-0.7,1.9-2.1
							v-3.6h1.1V233z"/>
						<path d="M763.6,233.1c-1.5,0-2.6-0.8-2.7-2h1.1c0.1,0.6,0.6,1.1,1.5,1.1s1.3-0.4,1.3-1c0-1.5-3.9-0.6-3.9-3.1
							c0-1,0.9-1.8,2.4-1.8s2.4,0.8,2.5,2.1h-1.1c0-0.7-0.6-1.1-1.4-1.1c-0.8,0-1.3,0.4-1.3,0.9c0,1.6,3.8,0.7,3.9,3.1
							C766,232.3,765.1,233.1,763.6,233.1z"/>
						<path d="M769.9,233.1c-1.5,0-2.6-0.8-2.7-2h1.1c0.1,0.6,0.6,1.1,1.5,1.1s1.3-0.4,1.3-1c0-1.5-3.9-0.6-3.9-3.1
							c0-1,0.9-1.8,2.4-1.8s2.4,0.8,2.5,2.1H771c0-0.7-0.6-1.1-1.4-1.1c-0.8,0-1.3,0.4-1.3,0.9c0,1.6,3.8,0.7,3.9,3.1
							C772.3,232.3,771.3,233.1,769.9,233.1z"/>
						<path d="M776.7,233.1c-1.9,0-3.3-1.3-3.3-3.4c0-2.1,1.5-3.4,3.3-3.4c1.9,0,3.3,1.3,3.3,3.4
							C780.1,231.8,778.6,233.1,776.7,233.1z M776.7,232.1c1.1,0,2.3-0.8,2.3-2.4c0-1.7-1.1-2.4-2.2-2.4c-1.2,0-2.2,0.8-2.2,2.4
							C774.5,231.4,775.5,232.1,776.7,232.1z M776.2,224.4c0.6,0,0.9,0.6,1.4,0.6c0.3,0,0.5-0.2,0.5-0.5h0.6
							c-0.1,0.8-0.6,1.2-1.2,1.2c-0.6,0-0.9-0.6-1.4-0.6c-0.3,0-0.5,0.2-0.5,0.5H775C775.1,224.8,775.6,224.4,776.2,224.4z"/>
						<path d="M784.3,233.1c-1.9,0-3.2-1.3-3.2-3.4c0-2.1,1.3-3.4,3.2-3.4s3.2,1.3,3.2,3.1c0,0.2,0,0.4,0,0.7h-5.3
							c0.1,1.3,1,2.1,2.1,2.1c1,0,1.6-0.5,1.8-1.2h1.2C787,232.2,786,233.1,784.3,233.1z M782.2,229.2h4.2c0-1.3-0.9-2-2.1-2
							C783.2,227.2,782.3,228,782.2,229.2z"/>
						<path d="M791.3,233.1c-1.5,0-2.6-0.8-2.7-2h1.1c0.1,0.6,0.6,1.1,1.5,1.1s1.3-0.4,1.3-1c0-1.5-3.9-0.6-3.9-3.1
							c0-1,0.9-1.8,2.4-1.8s2.4,0.8,2.5,2.1h-1.1c0-0.7-0.6-1.1-1.4-1.1c-0.8,0-1.3,0.4-1.3,0.9c0,1.6,3.8,0.7,3.9,3.1
							C793.7,232.3,792.7,233.1,791.3,233.1z"/>
					</g>
					<g class="st6">
						<path d="M667.2,251.1c-1.9,0-3.2-1.3-3.2-3.4c0-2.1,1.3-3.4,3.2-3.4s3.2,1.3,3.2,3.1c0,0.2,0,0.4,0,0.7H665
							c0.1,1.3,1,2.1,2.1,2.1c1,0,1.6-0.5,1.8-1.2h1.2C669.9,250.2,668.8,251.1,667.2,251.1z M665.1,247.2h4.2c0-1.3-0.9-2-2.1-2
							C666.1,245.2,665.2,246,665.1,247.2z"/>
						<path d="M676.6,247.3c0-1.3-0.7-2-1.8-2s-1.9,0.7-1.9,2.1v3.6h-1.1v-6.6h1.1v0.9c0.4-0.7,1.2-1.1,2.1-1.1
							c1.5,0,2.7,0.9,2.7,2.8v3.9h-1.1V247.3z"/>
						<path d="M679.7,245.3h-0.9v-0.9h0.9v-1.7h1.1v1.7h1.7v0.9h-1.7v3.9c0,0.6,0.2,0.9,0.9,0.9h0.8v0.9h-1c-1.2,0-1.8-0.5-1.8-1.8
							V245.3z"/>
						<path d="M684.9,251h-1.1v-6.6h1.1v1.1c0.4-0.7,1.1-1.2,2.1-1.2v1.1h-0.3c-1,0-1.8,0.5-1.8,2V251z"/>
						<path d="M691.1,251.1c-1.9,0-3.3-1.3-3.3-3.4c0-2.1,1.3-3.4,3.3-3.4c1.9,0,3.2,1.3,3.2,3.1c0,0.2,0,0.4,0,0.7H689
							c0.1,1.3,1,2.1,2.1,2.1c1,0,1.6-0.5,1.8-1.2h1.2C693.8,250.2,692.8,251.1,691.1,251.1z M689,247.2h4.1c0-1.3-0.9-2-2.1-2
							C690,245.2,689.1,246,689,247.2z"/>
						<path d="M701.3,251.1c-1.5,0-2.6-0.8-2.7-2h1.1c0.1,0.6,0.6,1.1,1.5,1.1s1.3-0.4,1.3-1c0-1.5-3.9-0.6-3.9-3.1
							c0-1,0.9-1.8,2.4-1.8s2.4,0.8,2.5,2.1h-1.1c0-0.7-0.6-1.1-1.4-1.1c-0.8,0-1.3,0.4-1.3,0.9c0,1.6,3.8,0.7,3.9,3.1
							C703.7,250.3,702.7,251.1,701.3,251.1z"/>
						<path d="M708.1,251.1c-1.9,0-3.2-1.3-3.2-3.4c0-2.1,1.3-3.4,3.2-3.4s3.2,1.3,3.2,3.1c0,0.2,0,0.4,0,0.7H706
							c0.1,1.3,1,2.1,2.1,2.1c1,0,1.6-0.5,1.8-1.2h1.2C710.7,250.2,709.7,251.1,708.1,251.1z M705.9,247.2h4.2c0-1.3-0.9-2-2.1-2
							C706.9,245.2,706.1,246,705.9,247.2z"/>
						<path d="M718.5,251h-1.1v-1c-0.4,0.7-1.2,1.1-2.1,1.1c-1.5,0-2.7-0.9-2.7-2.8v-3.8h1.1v3.7c0,1.3,0.7,2,1.8,2s1.9-0.7,1.9-2.1
							v-3.6h1.1V251z"/>
						<path d="M722.7,251.1c-1.5,0-2.6-0.8-2.7-2h1.1c0.1,0.6,0.6,1.1,1.5,1.1s1.3-0.4,1.3-1c0-1.5-3.9-0.6-3.9-3.1
							c0-1,0.9-1.8,2.4-1.8s2.4,0.8,2.5,2.1h-1.1c0-0.7-0.6-1.1-1.4-1.1c-0.8,0-1.3,0.4-1.3,0.9c0,1.6,3.8,0.7,3.9,3.1
							C725.1,250.3,724.1,251.1,722.7,251.1z"/>
						<path d="M739.3,247.3c0-1.3-0.7-2-1.8-2s-1.9,0.7-1.9,2.1v3.6h-1.1v-3.7c0-1.3-0.7-2-1.8-2s-1.9,0.7-1.9,2.1v3.6h-1.1v-6.6
							h1.1v0.9c0.4-0.7,1.2-1.1,2.1-1.1c1.1,0,2,0.5,2.4,1.5c0.4-0.9,1.3-1.5,2.3-1.5c1.5,0,2.7,0.9,2.7,2.8v3.9h-1.1L739.3,247.3
							L739.3,247.3z"/>
						<path d="M745,251.1c-1.9,0-3.3-1.3-3.3-3.4c0-2.1,1.3-3.4,3.3-3.4c1.9,0,3.2,1.3,3.2,3.1c0,0.2,0,0.4,0,0.7h-5.3
							c0.1,1.3,1,2.1,2.1,2.1c1,0,1.6-0.5,1.8-1.2h1.2C747.7,250.2,746.6,251.1,745,251.1z M742.9,247.2h4.1c0-1.3-0.9-2-2.1-2
							C743.9,245.2,743,246,742.9,247.2z"/>
						<path d="M759.1,247.3c0-1.3-0.7-2-1.8-2s-1.9,0.7-1.9,2.1v3.6h-1.1v-3.7c0-1.3-0.7-2-1.8-2s-1.9,0.7-1.9,2.1v3.6h-1.1v-6.6
							h1.1v0.9c0.4-0.7,1.2-1.1,2.1-1.1c1.1,0,2,0.5,2.4,1.5c0.4-0.9,1.3-1.5,2.3-1.5c1.5,0,2.7,0.9,2.7,2.8v3.9H759L759.1,247.3
							L759.1,247.3z"/>
						<path d="M765.5,244.3c1.8,0,3.1,1.3,3.1,3.4c0,2-1.4,3.4-3.1,3.4c-1.2,0-2.1-0.6-2.5-1.3v1.2h-1v-8.9h1.1v3.5
							C763.5,244.9,764.3,244.3,765.5,244.3z M765.3,245.3c-1.2,0-2.2,0.9-2.2,2.4s1,2.4,2.2,2.4s2.2-0.9,2.2-2.5
							C767.5,246.1,766.5,245.3,765.3,245.3z"/>
						<path d="M771.2,251h-1.1v-6.6h1.1v1.1c0.4-0.7,1.1-1.2,2.1-1.2v1.1H773c-1,0-1.8,0.5-1.8,2V251z"/>
						<path d="M777.4,251.1c-1.9,0-3.3-1.3-3.3-3.4c0-2.1,1.5-3.4,3.3-3.4c1.9,0,3.3,1.3,3.3,3.4
							C780.8,249.8,779.3,251.1,777.4,251.1z M777.4,250.1c1.1,0,2.3-0.8,2.3-2.4c0-1.7-1.1-2.4-2.2-2.4c-1.2,0-2.2,0.8-2.2,2.4
							C775.3,249.4,776.3,250.1,777.4,250.1z"/>
						<path d="M784.6,251.1c-1.5,0-2.6-0.8-2.7-2h1.1c0.1,0.6,0.6,1.1,1.5,1.1s1.3-0.4,1.3-1c0-1.5-3.9-0.6-3.9-3.1
							c0-1,0.9-1.8,2.4-1.8s2.4,0.8,2.5,2.1h-1.1c0-0.7-0.6-1.1-1.4-1.1c-0.8,0-1.3,0.4-1.3,0.9c0,1.6,3.8,0.7,3.9,3.1
							C787,250.3,786,251.1,784.6,251.1z"/>
					</g>
					<g class="st6">
						<path d="M667.1,262.3c1.2,0,2.1,0.6,2.4,1.3v-1.2h1.1v6.6h-1.1v-1.2c-0.4,0.7-1.2,1.3-2.5,1.3c-1.8,0-3.1-1.4-3.1-3.4
							C663.9,263.6,665.3,262.3,667.1,262.3z M667.3,263.3c-1.2,0-2.2,0.9-2.2,2.4s1,2.5,2.2,2.5s2.2-0.9,2.2-2.4
							C669.5,264.2,668.5,263.3,667.3,263.3z"/>
						<path d="M677.3,265.3c0-1.3-0.7-2-1.8-2s-1.9,0.7-1.9,2.1v3.6h-1.1v-6.6h1.1v0.9c0.4-0.7,1.2-1.1,2.1-1.1
							c1.5,0,2.7,0.9,2.7,2.8v3.9h-1.1V265.3z"/>
						<path d="M680.4,263.3h-0.9v-0.9h0.9v-1.7h1.1v1.7h1.7v0.9h-1.7v3.9c0,0.6,0.2,0.9,0.9,0.9h0.8v0.9h-1c-1.2,0-1.8-0.5-1.8-1.8
							V263.3z"/>
						<path d="M687.3,269.1c-1.9,0-3.2-1.3-3.2-3.4s1.3-3.4,3.2-3.4s3.2,1.3,3.2,3.1c0,0.2,0,0.4,0,0.7h-5.3c0.1,1.3,1,2.1,2.1,2.1
							c1,0,1.6-0.5,1.8-1.2h1.2C690,268.2,689,269.1,687.3,269.1z M685.2,265.2h4.2c0-1.3-0.9-2-2.1-2
							C686.2,263.2,685.3,264,685.2,265.2z"/>
						<path d="M694.3,269.1c-1.5,0-2.6-0.8-2.7-2h1.1c0.1,0.6,0.6,1.1,1.5,1.1s1.3-0.4,1.3-1c0-1.5-3.9-0.6-3.9-3.1
							c0-1,0.9-1.8,2.4-1.8s2.4,0.8,2.5,2.1h-1.1c0-0.7-0.6-1.1-1.4-1.1c-0.8,0-1.3,0.4-1.3,0.9c0,1.6,3.8,0.7,3.9,3.1
							C696.7,268.3,695.7,269.1,694.3,269.1z"/>
						<path d="M704.1,262.3c1,0,2,0.5,2.4,1.3v-3.5h1.1v8.9h-1.1v-1.2c-0.4,0.7-1.2,1.3-2.4,1.3c-1.8,0-3.1-1.4-3.1-3.4
							C701,263.6,702.4,262.3,704.1,262.3z M704.3,263.3c-1.2,0-2.2,0.9-2.2,2.4s1,2.5,2.2,2.5s2.2-0.9,2.2-2.4
							C706.6,264.2,705.5,263.3,704.3,263.3z"/>
						<path d="M712.2,262.3c1.2,0,2.1,0.6,2.4,1.3v-1.2h1.1v6.6h-1.1v-1.2c-0.4,0.7-1.2,1.3-2.5,1.3c-1.8,0-3.1-1.4-3.1-3.4
							C709.1,263.6,710.5,262.3,712.2,262.3z M712.4,263.3c-1.2,0-2.2,0.9-2.2,2.4s1,2.5,2.2,2.5s2.2-0.9,2.2-2.4
							C714.7,264.2,713.6,263.3,712.4,263.3z"/>
						<path d="M720,269.1c-1.5,0-2.6-0.8-2.7-2h1.1c0.1,0.6,0.6,1.1,1.5,1.1s1.3-0.4,1.3-1c0-1.5-3.9-0.6-3.9-3.1
							c0-1,0.9-1.8,2.4-1.8s2.4,0.8,2.5,2.1h-1.1c0-0.7-0.6-1.1-1.4-1.1c-0.8,0-1.3,0.4-1.3,0.9c0,1.6,3.8,0.7,3.9,3.1
							C722.4,268.3,721.4,269.1,720,269.1z"/>
						<path d="M728.2,269h-1.1v-6.6h1.1v1.1c0.4-0.7,1.1-1.2,2.1-1.2v1.1H730c-1,0-1.8,0.5-1.8,2V269z"/>
						<path d="M734.4,269.1c-1.9,0-3.3-1.3-3.3-3.4s1.3-3.4,3.3-3.4c1.9,0,3.2,1.3,3.2,3.1c0,0.2,0,0.4,0,0.7h-5.3
							c0.1,1.3,1,2.1,2.1,2.1c1,0,1.6-0.5,1.8-1.2h1.2C737.1,268.2,736,269.1,734.4,269.1z M732.3,265.2h4.1c0-1.3-0.9-2-2.1-2
							C733.3,263.2,732.4,264,732.3,265.2z"/>
						<path d="M744.8,269h-1.1v-1c-0.4,0.7-1.2,1.1-2.1,1.1c-1.5,0-2.7-0.9-2.7-2.8v-3.8h1.1v3.7c0,1.3,0.7,2,1.8,2s1.9-0.7,1.9-2.1
							v-3.6h1.1V269z"/>
						<path d="M751.5,265.3c0-1.3-0.7-2-1.8-2s-1.9,0.7-1.9,2.1v3.6h-1.1v-6.6h1.1v0.9c0.4-0.7,1.2-1.1,2.1-1.1
							c1.5,0,2.7,0.9,2.7,2.8v3.9h-1.1V265.3z"/>
						<path d="M754.2,260.6c0-0.4,0.3-0.7,0.7-0.7s0.7,0.3,0.7,0.7c0,0.4-0.3,0.7-0.7,0.7C754.5,261.4,754.2,261,754.2,260.6z
							 M754.4,262.4h1.1v6.6h-1.1V262.4z"/>
						<path d="M760.2,269.1c-1.9,0-3.3-1.3-3.3-3.4s1.5-3.4,3.3-3.4c1.9,0,3.3,1.3,3.3,3.4C763.6,267.8,762.1,269.1,760.2,269.1z
							 M760.2,268.1c1.1,0,2.3-0.8,2.3-2.4c0-1.7-1.1-2.4-2.2-2.4c-1.2,0-2.2,0.8-2.2,2.4C758,267.4,759.1,268.1,760.2,268.1z
							 M759.7,260.4c0.6,0,0.9,0.6,1.4,0.6c0.3,0,0.5-0.2,0.5-0.5h0.6c-0.1,0.8-0.6,1.2-1.2,1.2c-0.6,0-0.9-0.6-1.4-0.6
							c-0.3,0-0.5,0.2-0.5,0.5h-0.6C758.6,260.8,759.1,260.4,759.7,260.4z"/>
						<path d="M767.9,269.1c-1.9,0-3.3-1.3-3.3-3.4s1.3-3.4,3.3-3.4c1.9,0,3.2,1.3,3.2,3.1c0,0.2,0,0.4,0,0.7h-5.3
							c0.1,1.3,1,2.1,2.1,2.1c1,0,1.6-0.5,1.8-1.2h1.2C770.5,268.2,769.5,269.1,767.9,269.1z M765.7,265.2h4.1c0-1.3-0.9-2-2.1-2
							C766.7,263.2,765.8,264,765.7,265.2z"/>
						<path d="M774.8,269.1c-1.5,0-2.6-0.8-2.7-2h1.1c0.1,0.6,0.6,1.1,1.5,1.1s1.3-0.4,1.3-1c0-1.5-3.9-0.6-3.9-3.1
							c0-1,0.9-1.8,2.4-1.8s2.4,0.8,2.5,2.1h-1c0-0.7-0.6-1.1-1.4-1.1c-0.8,0-1.3,0.4-1.3,0.9c0,1.6,3.8,0.7,3.9,3.1
							C777.2,268.3,776.2,269.1,774.8,269.1z"/>
						<path d="M779.1,269.1c-0.4,0-0.7-0.3-0.7-0.7s0.3-0.7,0.7-0.7s0.7,0.3,0.7,0.7S779.5,269.1,779.1,269.1z"/>
					</g>
				</g>
			</g>
		</g>
		<g id="Grupo_2002">
			<g id="Grupo_1998" transform="translate(-259 14.5)">
				<g id="Grupo_1994">
					<g id="Grupo_1653" transform="translate(328.5 309)">
						<g>
							<g>
								<defs>
									<polygon id="SVGID_00000099650264242597360190000012063260921587611042_" points="8.4,0 8.4,41 16.8,49.4 8.4,57.8 
										8.4,98.8 28.9,98.8 28.9,57.8 37.3,49.4 28.9,41 28.9,0 									"/>
								</defs>
								<clipPath id="SVGID_00000162331164940939677970000005695636235362400932_">
									<use xlink:href="#SVGID_00000099650264242597360190000012063260921587611042_"  style="overflow:visible;"/>
								</clipPath>
								<g id="Grupo_1652" style="clip-path:url(#SVGID_00000162331164940939677970000005695636235362400932_);">
									
										<rect id="Ret창ngulo_1138" x="-22.3" y="4.3" transform="matrix(0.7071 -0.7071 0.7071 0.7071 -28.2521 30.6677)" class="st14" width="90.3" height="90.3"/>
								</g>
							</g>
						</g>
					</g>
					<g class="st6">
						<path d="M394,336.6c2,0,2.9,1.1,2.9,2.5c0,1.1-0.6,2.1-2,2.4l2.1,3.5h-1.3l-2-3.4h-1.3v3.4h-1.1v-8.4H394z M394,337.5h-1.6
							v3.2h1.6c1.2,0,1.8-0.7,1.8-1.6S395.3,337.5,394,337.5z"/>
						<path d="M401.5,345.1c-1.9,0-3.3-1.3-3.3-3.4s1.3-3.4,3.3-3.4c1.9,0,3.2,1.3,3.2,3.1c0,0.2,0,0.4,0,0.7h-5.3
							c0.1,1.3,1,2.1,2.1,2.1c1,0,1.6-0.5,1.8-1.2h1.2C404.2,344.2,403.1,345.1,401.5,345.1z M399.4,341.2h4.1c0-1.3-0.9-2-2.1-2
							C400.4,339.2,399.5,340,399.4,341.2z"/>
						<path d="M411.9,345h-1.1v-1c-0.4,0.7-1.2,1.1-2.1,1.1c-1.5,0-2.7-0.9-2.7-2.8v-3.8h1.1v3.7c0,1.3,0.7,2,1.8,2
							c1.1,0,1.9-0.7,1.9-2.1v-3.6h1.1L411.9,345L411.9,345z"/>
						<path d="M418.6,341.3c0-1.3-0.7-2-1.8-2c-1.1,0-1.9,0.7-1.9,2.1v3.6h-1.1v-6.6h1.1v0.9c0.4-0.7,1.2-1.1,2.1-1.1
							c1.5,0,2.7,0.9,2.7,2.8v3.9h-1.1L418.6,341.3L418.6,341.3z"/>
						<path d="M421.3,336.6c0-0.4,0.3-0.7,0.7-0.7c0.4,0,0.7,0.3,0.7,0.7c0,0.4-0.3,0.7-0.7,0.7C421.6,337.4,421.3,337,421.3,336.6z
							 M421.4,338.4h1.1v6.6h-1.1V338.4z"/>
						<path d="M427.3,345.1c-1.9,0-3.3-1.3-3.3-3.4s1.5-3.4,3.3-3.4c1.9,0,3.3,1.3,3.3,3.4C430.6,343.8,429.1,345.1,427.3,345.1z
							 M427.3,344.1c1.1,0,2.3-0.8,2.3-2.4c0-1.7-1.1-2.4-2.2-2.4c-1.2,0-2.2,0.8-2.2,2.4C425.1,343.4,426.1,344.1,427.3,344.1z
							 M426.8,336.4c0.6,0,0.9,0.6,1.4,0.6c0.3,0,0.5-0.2,0.5-0.5h0.6c-0.1,0.8-0.6,1.2-1.2,1.2s-0.9-0.6-1.4-0.6
							c-0.3,0-0.5,0.2-0.5,0.5h-0.6C425.7,336.8,426.1,336.4,426.8,336.4z"/>
						<path d="M434.9,345.1c-1.9,0-3.3-1.3-3.3-3.4s1.3-3.4,3.3-3.4c1.9,0,3.2,1.3,3.2,3.1c0,0.2,0,0.4,0,0.7h-5.3
							c0.1,1.3,1,2.1,2.1,2.1c1,0,1.6-0.5,1.8-1.2h1.2C437.6,344.2,436.5,345.1,434.9,345.1z M432.8,341.2h4.1c0-1.3-0.9-2-2.1-2
							C433.8,339.2,432.9,340,432.8,341.2z"/>
						<path d="M441.8,345.1c-1.5,0-2.6-0.8-2.7-2h1.1c0.1,0.6,0.6,1.1,1.5,1.1s1.3-0.4,1.3-1c0-1.5-3.9-0.6-3.9-3.1
							c0-1,0.9-1.8,2.4-1.8s2.4,0.8,2.5,2.1h-1.1c0-0.7-0.6-1.1-1.4-1.1s-1.3,0.4-1.3,0.9c0,1.6,3.8,0.7,3.9,3.1
							C444.2,344.3,443.3,345.1,441.8,345.1z"/>
						<path d="M452.5,338.3c1.8,0,3.1,1.3,3.1,3.4c0,2-1.4,3.4-3.1,3.4c-1.2,0-2.1-0.6-2.5-1.3v4.3h-1v-9.7h1.1v1.2
							C450.5,338.9,451.3,338.3,452.5,338.3z M452.3,339.3c-1.2,0-2.2,0.9-2.2,2.4s1,2.4,2.2,2.4s2.2-0.9,2.2-2.5
							C454.5,340.1,453.5,339.3,452.3,339.3z"/>
						<path d="M458.2,345h-1.1v-6.6h1.1v1.1c0.4-0.7,1.1-1.2,2.1-1.2v1.1H460c-1,0-1.8,0.5-1.8,2V345z"/>
						<path d="M464.4,345.1c-1.9,0-3.3-1.3-3.3-3.4s1.3-3.4,3.3-3.4c1.9,0,3.2,1.3,3.2,3.1c0,0.2,0,0.4,0,0.7h-5.3
							c0.1,1.3,1,2.1,2.1,2.1c1,0,1.6-0.5,1.8-1.2h1.2C467.1,344.2,466,345.1,464.4,345.1z M462.3,341.2h4.1c0-1.3-0.9-2-2.1-2
							C463.3,339.2,462.4,340,462.3,341.2z"/>
						<path d="M471.8,338.3c1.6,0,2.7,0.8,3,2.2h-1.2c-0.2-0.8-0.9-1.3-1.9-1.3c-1.2,0-2.1,0.9-2.1,2.5s0.9,2.5,2.1,2.5
							c1,0,1.6-0.5,1.9-1.3h1.2c-0.3,1.3-1.4,2.2-3,2.2c-1.9,0-3.2-1.3-3.2-3.4C468.6,339.6,469.9,338.3,471.8,338.3z"/>
						<path d="M476.1,336.6c0-0.4,0.3-0.7,0.7-0.7c0.4,0,0.7,0.3,0.7,0.7c0,0.4-0.3,0.7-0.7,0.7C476.4,337.4,476.1,337,476.1,336.6z
							 M476.3,338.4h1.1v6.6h-1.1V338.4z"/>
						<path d="M481.6,345.1c-1.5,0-2.6-0.8-2.7-2h1.1c0.1,0.6,0.6,1.1,1.5,1.1s1.3-0.4,1.3-1c0-1.5-3.9-0.6-3.9-3.1
							c0-1,0.9-1.8,2.4-1.8s2.4,0.8,2.5,2.1h-1.1c0-0.7-0.6-1.1-1.4-1.1s-1.3,0.4-1.3,0.9c0,1.6,3.8,0.7,3.9,3.1
							C484,344.3,483,345.1,481.6,345.1z"/>
						<path d="M488.2,338.3c1.2,0,2.1,0.6,2.4,1.3v-1.2h1.1v6.6h-1.1v-1.2c-0.4,0.7-1.2,1.3-2.5,1.3c-1.8,0-3.1-1.4-3.1-3.4
							C485.1,339.6,486.5,338.3,488.2,338.3z M488.4,339.3c-1.2,0-2.2,0.9-2.2,2.4s1,2.5,2.2,2.5s2.2-0.9,2.2-2.4
							C490.7,340.2,489.6,339.3,488.4,339.3z"/>
						<path d="M503.1,341.3c0-1.3-0.7-2-1.8-2c-1.1,0-1.9,0.7-1.9,2.1v3.6h-1.1v-3.7c0-1.3-0.7-2-1.8-2c-1.1,0-1.9,0.7-1.9,2.1v3.6
							h-1.1v-6.6h1.1v0.9c0.4-0.7,1.2-1.1,2.1-1.1c1.1,0,2,0.5,2.4,1.5c0.4-0.9,1.3-1.5,2.3-1.5c1.5,0,2.7,0.9,2.7,2.8v3.9H503
							L503.1,341.3L503.1,341.3z"/>
					</g>
					<g class="st6">
						<path d="M394.1,356.3c1.2,0,2.1,0.6,2.4,1.3v-1.2h1.1v6.6h-1.1v-1.2c-0.4,0.7-1.2,1.3-2.5,1.3c-1.8,0-3.1-1.4-3.1-3.4
							C390.9,357.6,392.3,356.3,394.1,356.3z M394.3,357.3c-1.2,0-2.2,0.9-2.2,2.4s1,2.5,2.2,2.5s2.2-0.9,2.2-2.4
							C396.5,358.2,395.5,357.3,394.3,357.3z"/>
						<path d="M402.2,356.3c1.6,0,2.7,0.8,3,2.2H404c-0.2-0.8-0.9-1.3-1.9-1.3c-1.2,0-2.1,0.9-2.1,2.5s0.9,2.5,2.1,2.5
							c1,0,1.6-0.5,1.9-1.3h1.2c-0.3,1.3-1.4,2.2-3,2.2c-1.9,0-3.2-1.3-3.2-3.4C399,357.6,400.4,356.3,402.2,356.3z"/>
						<path d="M409.6,363.1c-1.9,0-3.3-1.3-3.3-3.4s1.5-3.4,3.3-3.4c1.9,0,3.3,1.3,3.3,3.4C413,361.8,411.5,363.1,409.6,363.1z
							 M409.6,362.1c1.1,0,2.3-0.8,2.3-2.4c0-1.7-1.1-2.4-2.2-2.4c-1.2,0-2.2,0.8-2.2,2.4C407.4,361.4,408.5,362.1,409.6,362.1z"/>
						<path d="M419.2,359.3c0-1.3-0.7-2-1.8-2c-1.1,0-1.9,0.7-1.9,2.1v3.6h-1.1v-6.6h1.1v0.9c0.4-0.7,1.2-1.1,2.1-1.1
							c1.5,0,2.7,0.9,2.7,2.8v3.9h-1.1L419.2,359.3L419.2,359.3z"/>
						<path d="M422.3,357.3h-0.9v-0.9h0.9v-1.7h1.1v1.7h1.7v0.9h-1.7v3.9c0,0.6,0.2,0.9,0.9,0.9h0.8v0.9h-1c-1.2,0-1.8-0.5-1.8-1.8
							V357.3z"/>
						<path d="M429.3,363.1c-1.9,0-3.3-1.3-3.3-3.4s1.3-3.4,3.3-3.4c1.9,0,3.2,1.3,3.2,3.1c0,0.2,0,0.4,0,0.7h-5.3
							c0.1,1.3,1,2.1,2.1,2.1c1,0,1.6-0.5,1.8-1.2h1.2C432,362.2,430.9,363.1,429.3,363.1z M427.2,359.2h4.1c0-1.3-0.9-2-2.1-2
							C428.2,357.2,427.3,358,427.2,359.2z"/>
						<path d="M436.7,356.3c1.6,0,2.7,0.8,3,2.2h-1.2c-0.2-0.8-0.9-1.3-1.9-1.3c-1.2,0-2.1,0.9-2.1,2.5s0.9,2.5,2.1,2.5
							c1,0,1.6-0.5,1.9-1.3h1.2c-0.3,1.3-1.4,2.2-3,2.2c-1.9,0-3.2-1.3-3.2-3.4C433.5,357.6,434.8,356.3,436.7,356.3z"/>
						<path d="M444,363.1c-1.9,0-3.3-1.3-3.3-3.4s1.3-3.4,3.3-3.4c1.9,0,3.2,1.3,3.2,3.1c0,0.2,0,0.4,0,0.7h-5.3
							c0.1,1.3,1,2.1,2.1,2.1c1,0,1.6-0.5,1.8-1.2h1.2C446.7,362.2,445.7,363.1,444,363.1z M441.9,359.2h4.1c0-1.3-0.9-2-2.1-2
							C442.9,357.2,442,358,441.9,359.2z"/>
						<path d="M449.7,363h-1.1v-6.6h1.1v1.1c0.4-0.7,1.1-1.2,2.1-1.2v1.1h-0.3c-1,0-1.8,0.5-1.8,2L449.7,363L449.7,363z"/>
						<path d="M459.1,356.3c1.6,0,2.7,0.8,3,2.2H461c-0.2-0.8-0.9-1.3-1.9-1.3c-1.2,0-2.1,0.9-2.1,2.5s0.9,2.5,2.1,2.5
							c1,0,1.6-0.5,1.9-1.3h1.2c-0.3,1.3-1.4,2.2-3,2.2c-1.9,0-3.2-1.3-3.2-3.4C455.9,357.6,457.2,356.3,459.1,356.3z"/>
						<path d="M466.5,363.1c-1.9,0-3.3-1.3-3.3-3.4s1.5-3.4,3.3-3.4c1.9,0,3.3,1.3,3.3,3.4C469.8,361.8,468.3,363.1,466.5,363.1z
							 M466.5,362.1c1.1,0,2.3-0.8,2.3-2.4c0-1.7-1.1-2.4-2.2-2.4c-1.2,0-2.2,0.8-2.2,2.4C464.3,361.4,465.3,362.1,466.5,362.1z"/>
						<path d="M480.8,359.3c0-1.3-0.7-2-1.8-2c-1.1,0-1.9,0.7-1.9,2.1v3.6H476v-3.7c0-1.3-0.7-2-1.8-2c-1.1,0-1.9,0.7-1.9,2.1v3.6
							h-1.1v-6.6h1.1v0.9c0.4-0.7,1.2-1.1,2.1-1.1c1.1,0,2,0.5,2.4,1.5c0.4-0.9,1.3-1.5,2.3-1.5c1.5,0,2.7,0.9,2.7,2.8v3.9h-1.1
							L480.8,359.3L480.8,359.3z"/>
					</g>
					<g class="st6">
						<path d="M392.4,381h-1.1v-6.6h1.1v1.1c0.4-0.7,1.1-1.2,2.1-1.2v1.1h-0.3c-1,0-1.8,0.5-1.8,2L392.4,381L392.4,381z"/>
						<path d="M398.7,381.1c-1.9,0-3.3-1.3-3.3-3.4s1.3-3.4,3.3-3.4c1.9,0,3.2,1.3,3.2,3.1c0,0.2,0,0.4,0,0.7h-5.3
							c0.1,1.3,1,2.1,2.1,2.1c1,0,1.6-0.5,1.8-1.2h1.2C401.3,380.2,400.3,381.1,398.7,381.1z M396.5,377.2h4.1c0-1.3-0.9-2-2.1-2
							C397.5,375.2,396.7,376,396.5,377.2z"/>
						<path d="M406,374.3c1.2,0,2.1,0.6,2.4,1.3v-1.2h1.1v6.7c0,1.8-1.2,3.1-3.1,3.1c-1.7,0-3-0.9-3.2-2.3h1.1
							c0.2,0.8,1,1.3,2.1,1.3c1.2,0,2-0.7,2-2.1v-1.4c-0.4,0.7-1.2,1.3-2.4,1.3c-1.8,0-3.1-1.4-3.1-3.4
							C402.8,375.6,404.2,374.3,406,374.3z M406.2,375.3c-1.2,0-2.2,0.9-2.2,2.4s1,2.5,2.2,2.5s2.2-0.9,2.2-2.4
							C408.4,376.2,407.4,375.3,406.2,375.3z"/>
						<path d="M417.2,381h-1.1v-1c-0.4,0.7-1.2,1.1-2.1,1.1c-1.5,0-2.7-0.9-2.7-2.8v-3.8h1.1v3.7c0,1.3,0.7,2,1.8,2
							c1.1,0,1.9-0.7,1.9-2.1v-3.6h1.1L417.2,381L417.2,381z"/>
						<path d="M419,372.1h1.1v8.9H419V372.1z"/>
						<path d="M424.7,374.3c1.2,0,2.1,0.6,2.4,1.3v-1.2h1.1v6.6h-1.1v-1.2c-0.4,0.7-1.2,1.3-2.5,1.3c-1.8,0-3.1-1.4-3.1-3.4
							C421.6,375.6,422.9,374.3,424.7,374.3z M424.9,375.3c-1.2,0-2.2,0.9-2.2,2.4s1,2.5,2.2,2.5s2.2-0.9,2.2-2.4
							C427.2,376.2,426.1,375.3,424.9,375.3z"/>
						<path d="M431.2,381h-1.1v-6.6h1.1v1.1c0.4-0.7,1.1-1.2,2.1-1.2v1.1H433c-1,0-1.8,0.5-1.8,2V381z"/>
						<path d="M434.4,372.6c0-0.4,0.3-0.7,0.7-0.7c0.4,0,0.7,0.3,0.7,0.7c0,0.4-0.3,0.7-0.7,0.7C434.7,373.4,434.4,373,434.4,372.6z
							 M434.6,374.4h1.1v6.6h-1.1V374.4z"/>
						<path d="M440.3,374.3c1,0,2,0.5,2.4,1.3v-3.5h1.1v8.9h-1.1v-1.2c-0.4,0.7-1.2,1.3-2.4,1.3c-1.8,0-3.1-1.4-3.1-3.4
							C437.1,375.6,438.5,374.3,440.3,374.3z M440.5,375.3c-1.2,0-2.2,0.9-2.2,2.4s1,2.5,2.2,2.5s2.2-0.9,2.2-2.4
							C442.7,376.2,441.7,375.3,440.5,375.3z"/>
						<path d="M448.4,374.3c1.2,0,2.1,0.6,2.4,1.3v-1.2h1.1v6.6h-1.1v-1.2c-0.4,0.7-1.2,1.3-2.5,1.3c-1.8,0-3.1-1.4-3.1-3.4
							C445.2,375.6,446.6,374.3,448.4,374.3z M448.6,375.3c-1.2,0-2.2,0.9-2.2,2.4s1,2.5,2.2,2.5s2.2-0.9,2.2-2.4
							C450.8,376.2,449.8,375.3,448.6,375.3z"/>
						<path d="M456.5,374.3c1,0,2,0.5,2.4,1.3v-3.5h1.1v8.9h-1.1v-1.2c-0.4,0.7-1.2,1.3-2.4,1.3c-1.8,0-3.1-1.4-3.1-3.4
							C453.4,375.6,454.7,374.3,456.5,374.3z M456.7,375.3c-1.2,0-2.2,0.9-2.2,2.4s1,2.5,2.2,2.5s2.2-0.9,2.2-2.4
							C458.9,376.2,457.9,375.3,456.7,375.3z"/>
						<path d="M464.7,381.1c-1.9,0-3.3-1.3-3.3-3.4s1.3-3.4,3.3-3.4c1.9,0,3.2,1.3,3.2,3.1c0,0.2,0,0.4,0,0.7h-5.3
							c0.1,1.3,1,2.1,2.1,2.1c1,0,1.6-0.5,1.8-1.2h1.2C467.4,380.2,466.3,381.1,464.7,381.1z M462.6,377.2h4.1c0-1.3-0.9-2-2.1-2
							C463.6,375.2,462.7,376,462.6,377.2z"/>
						<path d="M469.7,381.1c-0.4,0-0.7-0.3-0.7-0.7s0.3-0.7,0.7-0.7c0.4,0,0.7,0.3,0.7,0.7S470.1,381.1,469.7,381.1z"/>
					</g>
				</g>
			</g>
			<g id="Grupo_2000" transform="translate(-113.648 14)">
				<g id="Grupo_1629" transform="translate(601.657 309)">
					<g>
						<g>
							<defs>
								<polygon id="SVGID_00000074418539065660927340000000026654695597622435_" points="28.9,41 28.9,0 8.4,0 8.4,41 16.8,49.4 
									8.4,57.8 8.4,98.8 28.9,98.8 28.9,57.8 37.3,49.4 								"/>
							</defs>
							<clipPath id="SVGID_00000040536885535689191350000004005792869993298622_">
								<use xlink:href="#SVGID_00000074418539065660927340000000026654695597622435_"  style="overflow:visible;"/>
							</clipPath>
							<g id="Grupo_1628" style="clip-path:url(#SVGID_00000040536885535689191350000004005792869993298622_);">
								
									<rect id="Ret창ngulo_1130" x="-22.3" y="4.3" transform="matrix(0.7071 -0.7071 0.7071 0.7071 -28.2521 30.6677)" class="st16" width="90.3" height="90.3"/>
							</g>
						</g>
					</g>
				</g>
				<g id="Grupo_1639" transform="translate(601.657 295)">
					<g>
						<g>
							<defs>
								<polygon id="SVGID_00000118395551524756234160000011365914386919355041_" points="8.4,0 8.4,55.8 16.8,64.2 8.4,72.7 
									8.4,128.5 28.9,128.5 28.9,72.7 37.3,64.2 28.9,55.8 28.9,0 								"/>
							</defs>
							<clipPath id="SVGID_00000050654981676681919430000000141038661114149021_">
								<use xlink:href="#SVGID_00000118395551524756234160000011365914386919355041_"  style="overflow:visible;"/>
							</clipPath>
							<g id="Grupo_1638" style="clip-path:url(#SVGID_00000050654981676681919430000000141038661114149021_);">
								<g id="Grupo_1637">
									<g id="Grupo_1636">
										<g>
											<g>
												<defs>
													<rect id="SVGID_00000030456796873451695300000009132103722688705946_" x="8.4" width="16.5" height="128.5"/>
												</defs>
												<clipPath id="SVGID_00000170992865851722527820000003563117267692804276_">
													<use xlink:href="#SVGID_00000030456796873451695300000009132103722688705946_"  style="overflow:visible;"/>
												</clipPath>
												<g id="Grupo_1635" style="clip-path:url(#SVGID_00000170992865851722527820000003563117267692804276_);">
													<g id="Grupo_1634" transform="translate(0 0)">
														<g>
															<g>
																<defs>
																	<path id="SVGID_00000041293587881087425720000008230781475725224594_" d="M8.4,128.5h11.1V75.6
																		c0-3.6,5.5-7.4,5.5-11.3c0-3.6-5.5-8-5.5-11.6V0H8.4v55.8c0,1,7.2,7.2,7.2,8.4c0,0.8-7.2,7.5-7.2,8.4V128.5z"/>
																</defs>
																<clipPath id="SVGID_00000062159890492652435520000006109220234288658855_">
																	<use xlink:href="#SVGID_00000041293587881087425720000008230781475725224594_"  style="overflow:visible;"/>
																</clipPath>
																<g id="Grupo_1633" style="clip-path:url(#SVGID_00000062159890492652435520000006109220234288658855_);">
																	<g id="Grupo_1632" transform="translate(0 0)">
																		<g id="Grupo_1631">
																			<g>
																				<g>
																					<defs>
																						<rect id="SVGID_00000056385320426796557940000016190092381034637997_" x="8.4" width="16.5" height="128.5"/>
																					</defs>
																					<clipPath id="SVGID_00000115514965253842458540000012350879605849294224_">
																						<use xlink:href="#SVGID_00000056385320426796557940000016190092381034637997_"  style="overflow:visible;"/>
																					</clipPath>
																					<g id="Grupo_1630" style="clip-path:url(#SVGID_00000115514965253842458540000012350879605849294224_);">
																						
																							<image style="overflow:visible;enable-background:new    ;" width="132" height="952" id="Ret창ngulo_1131" xlink:href="A2F1F6A5.jpg"  transform="matrix(0.1252 0 0 0.1252 8.417 4.6472)">
																						</image>
																					</g>
																				</g>
																			</g>
																		</g>
																	</g>
																</g>
															</g>
														</g>
													</g>
												</g>
											</g>
										</g>
									</g>
								</g>
							</g>
						</g>
					</g>
				</g>
				<g class="st6">
					<path d="M667,327.6c2,0,2.9,1.1,2.9,2.5c0,1.1-0.6,2.1-2,2.4l2.1,3.5h-1.3l-2-3.4h-1.3v3.4h-1.1v-8.4H667z M667,328.5h-1.6v3.2
						h1.6c1.2,0,1.8-0.7,1.8-1.6S668.3,328.5,667,328.5z"/>
					<path d="M674.5,336.1c-1.9,0-3.3-1.3-3.3-3.4s1.3-3.4,3.3-3.4c1.9,0,3.2,1.3,3.2,3.1c0,0.2,0,0.4,0,0.7h-5.3
						c0.1,1.3,1,2.1,2.1,2.1c1,0,1.6-0.5,1.8-1.2h1.2C677.2,335.2,676.1,336.1,674.5,336.1z M672.4,332.2h4.1c0-1.3-0.9-2-2.1-2
						C673.4,330.2,672.5,331,672.4,332.2z"/>
					<path d="M684.9,336h-1.1v-1c-0.4,0.7-1.2,1.1-2.1,1.1c-1.5,0-2.7-0.9-2.7-2.8v-3.8h1.1v3.7c0,1.3,0.7,2,1.8,2s1.9-0.7,1.9-2.1
						v-3.6h1.1V336z"/>
					<path d="M691.6,332.3c0-1.3-0.7-2-1.8-2s-1.9,0.7-1.9,2.1v3.6h-1.1v-6.6h1.1v0.9c0.4-0.7,1.2-1.1,2.1-1.1
						c1.5,0,2.7,0.9,2.7,2.8v3.9h-1.1V332.3z"/>
					<path d="M694.3,327.6c0-0.4,0.3-0.7,0.7-0.7s0.7,0.3,0.7,0.7c0,0.4-0.3,0.7-0.7,0.7C694.6,328.4,694.3,328,694.3,327.6z
						 M694.4,329.4h1.1v6.6h-1.1V329.4z"/>
					<path d="M700.3,336.1c-1.9,0-3.3-1.3-3.3-3.4s1.5-3.4,3.3-3.4c1.9,0,3.3,1.3,3.3,3.4C703.6,334.8,702.1,336.1,700.3,336.1z
						 M700.3,335.1c1.1,0,2.3-0.8,2.3-2.4c0-1.7-1.1-2.4-2.2-2.4c-1.2,0-2.2,0.8-2.2,2.4C698.1,334.4,699.1,335.1,700.3,335.1z
						 M699.8,327.4c0.6,0,0.9,0.6,1.4,0.6c0.3,0,0.5-0.2,0.5-0.5h0.6c-0.1,0.8-0.6,1.2-1.2,1.2c-0.6,0-0.9-0.6-1.4-0.6
						c-0.3,0-0.5,0.2-0.5,0.5h-0.6C698.7,327.8,699.1,327.4,699.8,327.4z"/>
					<path d="M707.9,336.1c-1.9,0-3.3-1.3-3.3-3.4s1.3-3.4,3.3-3.4c1.9,0,3.2,1.3,3.2,3.1c0,0.2,0,0.4,0,0.7h-5.3
						c0.1,1.3,1,2.1,2.1,2.1c1,0,1.6-0.5,1.8-1.2h1.2C710.6,335.2,709.5,336.1,707.9,336.1z M705.8,332.2h4.1c0-1.3-0.9-2-2.1-2
						C706.8,330.2,705.9,331,705.8,332.2z"/>
					<path d="M714.8,336.1c-1.5,0-2.6-0.8-2.7-2h1.1c0.1,0.6,0.6,1.1,1.5,1.1s1.3-0.4,1.3-1c0-1.5-3.9-0.6-3.9-3.1
						c0-1,0.9-1.8,2.4-1.8s2.4,0.8,2.5,2.1h-1.1c0-0.7-0.6-1.1-1.4-1.1c-0.8,0-1.3,0.4-1.3,0.9c0,1.6,3.8,0.7,3.9,3.1
						C717.2,335.3,716.3,336.1,714.8,336.1z"/>
					<path d="M724.8,329.3c1.6,0,2.7,0.8,3,2.2h-1.2c-0.2-0.8-0.9-1.3-1.9-1.3c-1.2,0-2.1,0.9-2.1,2.5s0.9,2.5,2.1,2.5
						c1,0,1.6-0.5,1.9-1.3h1.2c-0.3,1.3-1.4,2.2-3,2.2c-1.9,0-3.2-1.3-3.2-3.4C721.6,330.6,722.9,329.3,724.8,329.3z"/>
					<path d="M732.1,336.1c-1.9,0-3.3-1.3-3.3-3.4s1.5-3.4,3.3-3.4c1.9,0,3.3,1.3,3.3,3.4C735.5,334.8,734,336.1,732.1,336.1z
						 M732.1,335.1c1.1,0,2.3-0.8,2.3-2.4c0-1.7-1.1-2.4-2.2-2.4c-1.2,0-2.2,0.8-2.2,2.4C730,334.4,731,335.1,732.1,335.1z"/>
					<path d="M746.4,332.3c0-1.3-0.7-2-1.8-2s-1.9,0.7-1.9,2.1v3.6h-1.1v-3.7c0-1.3-0.7-2-1.8-2s-1.9,0.7-1.9,2.1v3.6h-1.1v-6.6h1.1
						v0.9c0.4-0.7,1.2-1.1,2.1-1.1c1.1,0,2,0.5,2.4,1.5c0.4-0.9,1.3-1.5,2.3-1.5c1.5,0,2.7,0.9,2.7,2.8v3.9h-1.1L746.4,332.3
						L746.4,332.3z"/>
					<path d="M756.1,329.3c1.8,0,3.1,1.3,3.1,3.4c0,2-1.4,3.4-3.1,3.4c-1.2,0-2.1-0.6-2.5-1.3v4.3h-1.1v-9.7h1.1v1.2
						C754,329.9,754.9,329.3,756.1,329.3z M755.8,330.3c-1.2,0-2.2,0.9-2.2,2.4s1,2.4,2.2,2.4s2.2-0.9,2.2-2.5
						C758.1,331.1,757,330.3,755.8,330.3z"/>
					<path d="M763.3,329.3c1.2,0,2.1,0.6,2.4,1.3v-1.2h1.1v6.6h-1.1v-1.2c-0.4,0.7-1.2,1.3-2.5,1.3c-1.8,0-3.1-1.4-3.1-3.4
						C760.2,330.6,761.6,329.3,763.3,329.3z M763.5,330.3c-1.2,0-2.2,0.9-2.2,2.4s1,2.5,2.2,2.5s2.2-0.9,2.2-2.4
						C765.8,331.2,764.7,330.3,763.5,330.3z"/>
					<path d="M774.6,336h-1.1v-1c-0.4,0.7-1.2,1.1-2.1,1.1c-1.5,0-2.7-0.9-2.7-2.8v-3.8h1.1v3.7c0,1.3,0.7,2,1.8,2s1.9-0.7,1.9-2.1
						v-3.6h1.1V336z"/>
					<path d="M776.6,330.3h-0.9v-0.9h0.9v-1.7h1.1v1.7h1.7v0.9h-1.7v3.9c0,0.6,0.2,0.9,0.9,0.9h0.8v0.9h-1c-1.2,0-1.8-0.5-1.8-1.8
						V330.3z"/>
					<path d="M783.5,329.3c1.2,0,2.1,0.6,2.4,1.3v-1.2h1.1v6.6h-1.1v-1.2c-0.4,0.7-1.2,1.3-2.5,1.3c-1.8,0-3.1-1.4-3.1-3.4
						C780.4,330.6,781.7,329.3,783.5,329.3z M783.7,330.3c-1.2,0-2.2,0.9-2.2,2.4s1,2.5,2.2,2.5s2.2-0.9,2.2-2.4
						C785.9,331.2,784.9,330.3,783.7,330.3z"/>
					<path d="M791.2,336.1c-1.5,0-2.6-0.8-2.7-2h1.1c0.1,0.6,0.6,1.1,1.5,1.1s1.3-0.4,1.3-1c0-1.5-3.9-0.6-3.9-3.1
						c0-1,0.9-1.8,2.4-1.8s2.4,0.8,2.5,2.1h-1.1c0-0.7-0.6-1.1-1.4-1.1c-0.8,0-1.3,0.4-1.3,0.9c0,1.6,3.8,0.7,3.9,3.1
						C793.6,335.3,792.7,336.1,791.2,336.1z"/>
				</g>
				<g class="st6">
					<path d="M667.1,347.3c1,0,2,0.5,2.4,1.3v-3.5h1.1v8.9h-1.1v-1.2c-0.4,0.7-1.2,1.3-2.4,1.3c-1.8,0-3.1-1.4-3.1-3.4
						C663.9,348.6,665.3,347.3,667.1,347.3z M667.3,348.3c-1.2,0-2.2,0.9-2.2,2.4s1,2.5,2.2,2.5s2.2-0.9,2.2-2.4
						C669.5,349.2,668.5,348.3,667.3,348.3z"/>
					<path d="M675.3,354.1c-1.9,0-3.2-1.3-3.2-3.4s1.3-3.4,3.2-3.4s3.2,1.3,3.2,3.1c0,0.2,0,0.4,0,0.7h-5.3c0.1,1.3,1,2.1,2.1,2.1
						c1,0,1.6-0.5,1.8-1.2h1.2C678,353.2,676.9,354.1,675.3,354.1z M673.2,350.2h4.2c0-1.3-0.9-2-2.1-2
						C674.2,348.2,673.3,349,673.2,350.2z"/>
					<path d="M680.1,348.3h-0.9v-0.9h0.9V347c0-1.5,0.7-2.1,2.4-2.1v0.9c-1,0-1.3,0.4-1.3,1.2v0.5h1.4v0.9h-1.4v5.7h-1.1
						L680.1,348.3L680.1,348.3z"/>
					<path d="M683.7,345.6c0-0.4,0.3-0.7,0.7-0.7s0.7,0.3,0.7,0.7c0,0.4-0.3,0.7-0.7,0.7C684,346.4,683.7,346,683.7,345.6z
						 M683.8,347.4h1.1v6.6h-1.1V347.4z"/>
					<path d="M691.6,350.3c0-1.3-0.7-2-1.8-2s-1.9,0.7-1.9,2.1v3.6h-1.1v-6.6h1.1v0.9c0.4-0.7,1.2-1.1,2.1-1.1
						c1.5,0,2.7,0.9,2.7,2.8v3.9h-1.1V350.3z"/>
					<path d="M694.3,345.6c0-0.4,0.3-0.7,0.7-0.7s0.7,0.3,0.7,0.7c0,0.4-0.3,0.7-0.7,0.7C694.6,346.4,694.3,346,694.3,345.6z
						 M694.5,347.4h1.1v6.6h-1.1V347.4z"/>
					<path d="M700.1,347.3c1,0,2,0.5,2.4,1.3v-3.5h1.1v8.9h-1.1v-1.2c-0.4,0.7-1.2,1.3-2.4,1.3c-1.8,0-3.1-1.4-3.1-3.4
						C697,348.6,698.4,347.3,700.1,347.3z M700.4,348.3c-1.2,0-2.2,0.9-2.2,2.4s1,2.5,2.2,2.5s2.2-0.9,2.2-2.4
						C702.6,349.2,701.5,348.3,700.4,348.3z"/>
					<path d="M708.2,347.3c1.2,0,2.1,0.6,2.4,1.3v-1.2h1.1v6.6h-1.1v-1.2c-0.4,0.7-1.2,1.3-2.5,1.3c-1.8,0-3.1-1.4-3.1-3.4
						C705.1,348.6,706.5,347.3,708.2,347.3z M708.5,348.3c-1.2,0-2.2,0.9-2.2,2.4s1,2.5,2.2,2.5s2.2-0.9,2.2-2.4
						C710.7,349.2,709.7,348.3,708.5,348.3z"/>
					<path d="M716,354.1c-1.5,0-2.6-0.8-2.7-2h1.1c0.1,0.6,0.6,1.1,1.5,1.1s1.3-0.4,1.3-1c0-1.5-3.9-0.6-3.9-3.1
						c0-1,0.9-1.8,2.4-1.8s2.4,0.8,2.5,2.1h-1.1c0-0.7-0.6-1.1-1.4-1.1c-0.8,0-1.3,0.4-1.3,0.9c0,1.6,3.8,0.7,3.9,3.1
						C718.4,353.3,717.4,354.1,716,354.1z"/>
					<path d="M719.8,352.5h1.2l-1.3,3.2H719L719.8,352.5z"/>
					<path d="M729,347.3c1.8,0,3.1,1.3,3.1,3.4c0,2-1.4,3.4-3.1,3.4c-1.2,0-2.1-0.6-2.5-1.3v4.3h-1.1v-9.7h1.1v1.2
						C727,347.9,727.8,347.3,729,347.3z M728.8,348.3c-1.2,0-2.2,0.9-2.2,2.4s1,2.4,2.2,2.4s2.2-0.9,2.2-2.5
						C731,349.1,730,348.3,728.8,348.3z"/>
					<path d="M736.3,347.3c1.2,0,2.1,0.6,2.4,1.3v-1.2h1.1v6.6h-1.1v-1.2c-0.4,0.7-1.2,1.3-2.5,1.3c-1.8,0-3.1-1.4-3.1-3.4
						C733.2,348.6,734.6,347.3,736.3,347.3z M736.5,348.3c-1.2,0-2.2,0.9-2.2,2.4s1,2.5,2.2,2.5s2.2-0.9,2.2-2.4
						C738.8,349.2,737.7,348.3,736.5,348.3z"/>
					<path d="M742.8,354h-1.1v-6.6h1.1v1.1c0.4-0.7,1.1-1.2,2.1-1.2v1.1h-0.3c-1,0-1.8,0.5-1.8,2V354z"/>
					<path d="M748.9,347.3c1.2,0,2.1,0.6,2.4,1.3v-1.2h1.1v6.6h-1.1v-1.2c-0.4,0.7-1.2,1.3-2.5,1.3c-1.8,0-3.1-1.4-3.1-3.4
						C745.8,348.6,747.1,347.3,748.9,347.3z M749.1,348.3c-1.2,0-2.2,0.9-2.2,2.4s1,2.5,2.2,2.5s2.2-0.9,2.2-2.4
						C751.3,349.2,750.3,348.3,749.1,348.3z"/>
					<path d="M760.2,347.3c1.2,0,2.1,0.6,2.4,1.3v-1.2h1.1v9.7h-1.1v-4.3c-0.4,0.7-1.2,1.3-2.5,1.3c-1.7,0-3.1-1.4-3.1-3.4
						C757.1,348.6,758.5,347.3,760.2,347.3z M760.4,348.3c-1.2,0-2.2,0.9-2.2,2.4s1,2.5,2.2,2.5s2.2-0.9,2.2-2.4
						C762.7,349.2,761.6,348.3,760.4,348.3z"/>
					<path d="M771.4,354h-1.1v-1c-0.4,0.7-1.2,1.1-2.1,1.1c-1.5,0-2.7-0.9-2.7-2.8v-3.8h1.1v3.7c0,1.3,0.7,2,1.8,2s1.9-0.7,1.9-2.1
						v-3.6h1.1V354z"/>
					<path d="M776.1,354.1c-1.9,0-3.3-1.3-3.3-3.4s1.3-3.4,3.3-3.4c1.9,0,3.2,1.3,3.2,3.1c0,0.2,0,0.4,0,0.7H774
						c0.1,1.3,1,2.1,2.1,2.1c1,0,1.6-0.5,1.8-1.2h1.2C778.8,353.2,777.8,354.1,776.1,354.1z M774,350.2h4.1c0-1.3-0.9-2-2.1-2
						C775,348.2,774.1,349,774,350.2z"/>
					<path d="M786.7,347.3c1.2,0,2.1,0.6,2.4,1.3v-1.2h1.1v6.6h-1.1v-1.2c-0.4,0.7-1.2,1.3-2.5,1.3c-1.8,0-3.1-1.4-3.1-3.4
						C783.5,348.6,784.9,347.3,786.7,347.3z M786.9,348.3c-1.2,0-2.2,0.9-2.2,2.4s1,2.5,2.2,2.5s2.2-0.9,2.2-2.4
						C789.1,349.2,788.1,348.3,786.9,348.3z"/>
				</g>
				<g class="st6">
					<path d="M673.8,368.3c0-1.3-0.7-2-1.8-2s-1.9,0.7-1.9,2.1v3.6H669v-3.7c0-1.3-0.7-2-1.8-2s-1.9,0.7-1.9,2.1v3.6h-1.1v-6.6h1.1
						v0.9c0.4-0.7,1.2-1.1,2.1-1.1c1.1,0,2,0.5,2.4,1.5c0.4-0.9,1.3-1.5,2.3-1.5c1.5,0,2.7,0.9,2.7,2.8v3.9h-1.1L673.8,368.3
						L673.8,368.3z"/>
					<path d="M679.6,372.1c-1.9,0-3.3-1.3-3.3-3.4s1.5-3.4,3.3-3.4c1.9,0,3.3,1.3,3.3,3.4C682.9,370.8,681.4,372.1,679.6,372.1z
						 M679.6,371.1c1.1,0,2.3-0.8,2.3-2.4c0-1.7-1.1-2.4-2.2-2.4c-1.2,0-2.2,0.8-2.2,2.4C677.4,370.4,678.4,371.1,679.6,371.1z"/>
					<path d="M687.9,365.3c1.8,0,3.1,1.3,3.1,3.4c0,2-1.4,3.4-3.1,3.4c-1.2,0-2.1-0.6-2.5-1.3v1.2h-1.1v-8.9h1.1v3.5
						C685.9,365.9,686.8,365.3,687.9,365.3z M687.7,366.3c-1.2,0-2.2,0.9-2.2,2.4s1,2.4,2.2,2.4s2.2-0.9,2.2-2.5
						C689.9,367.1,688.9,366.3,687.7,366.3z"/>
					<path d="M692.3,363.6c0-0.4,0.3-0.7,0.7-0.7s0.7,0.3,0.7,0.7c0,0.4-0.3,0.7-0.7,0.7C692.6,364.4,692.3,364,692.3,363.6z
						 M692.5,365.4h1.1v6.6h-1.1V365.4z"/>
					<path d="M695.4,363.1h1.1v8.9h-1.1V363.1z"/>
					<path d="M698.2,363.6c0-0.4,0.3-0.7,0.7-0.7s0.7,0.3,0.7,0.7c0,0.4-0.3,0.7-0.7,0.7C698.5,364.4,698.2,364,698.2,363.6z
						 M698.4,365.4h1.1v6.6h-1.1V365.4z"/>
					<path d="M705.4,366.3l-3.2,4.8h3.2v0.9h-4.5v-0.9l3.2-4.8h-3.2v-0.9h4.4L705.4,366.3L705.4,366.3z"/>
					<path d="M709.5,365.3c1.2,0,2.1,0.6,2.4,1.3v-1.2h1.1v6.6h-1v-1.2c-0.4,0.7-1.2,1.3-2.5,1.3c-1.8,0-3.1-1.4-3.1-3.4
						C706.4,366.6,707.8,365.3,709.5,365.3z M709.7,366.3c-1.2,0-2.2,0.9-2.2,2.4s1,2.5,2.2,2.5s2.2-0.9,2.2-2.4
						C712,367.2,710.9,366.3,709.7,366.3z"/>
					<path d="M717.7,365.3c1.6,0,2.7,0.8,3,2.2h-1.2c-0.2-0.8-0.9-1.3-1.9-1.3c-1.2,0-2.1,0.9-2.1,2.5s0.9,2.5,2.1,2.5
						c1,0,1.6-0.5,1.9-1.3h1.2c-0.3,1.2-1.3,2.1-2.7,2.2v0.6c0.9,0,1.5,0.4,1.5,1.2c0,0.8-0.6,1.2-1.5,1.2h-1.4v-0.7h1.2
						c0.5,0,0.8-0.1,0.8-0.5s-0.3-0.5-0.8-0.5h-0.6v-1.3c-1.7-0.2-2.8-1.5-2.8-3.4C714.5,366.6,715.8,365.3,717.7,365.3z"/>
					<path d="M724.9,365.3c1.2,0,2.1,0.6,2.4,1.3v-1.2h1.1v6.6h-1.1v-1.2c-0.4,0.7-1.2,1.3-2.5,1.3c-1.8,0-3.1-1.4-3.1-3.4
						C721.8,366.6,723.2,365.3,724.9,365.3z M725.1,366.3c-1.2,0-2.2,0.9-2.2,2.4s1,2.5,2.2,2.5s2.2-0.9,2.2-2.4
						C727.4,367.2,726.3,366.3,725.1,366.3z M724.8,363.5c0.6,0,0.9,0.6,1.4,0.6c0.3,0,0.5-0.2,0.5-0.5h0.6
						c-0.1,0.8-0.6,1.2-1.2,1.2c-0.6,0-0.9-0.6-1.4-0.6c-0.3,0-0.5,0.2-0.5,0.5h-0.6C723.7,363.9,724.2,363.5,724.8,363.5z"/>
					<path d="M733.2,372.1c-1.9,0-3.3-1.3-3.3-3.4s1.5-3.4,3.3-3.4c1.9,0,3.3,1.3,3.3,3.4C736.6,370.8,735.1,372.1,733.2,372.1z
						 M733.2,371.1c1.1,0,2.3-0.8,2.3-2.4c0-1.7-1.1-2.4-2.2-2.4c-1.2,0-2.2,0.8-2.2,2.4C731,370.4,732,371.1,733.2,371.1z"/>
					<path d="M744,372.1c-1.9,0-3.2-1.3-3.2-3.4s1.3-3.4,3.2-3.4s3.2,1.3,3.2,3.1c0,0.2,0,0.4,0,0.7h-5.3c0.1,1.3,1,2.1,2.1,2.1
						c1,0,1.6-0.5,1.8-1.2h1.2C746.7,371.2,745.7,372.1,744,372.1z M741.9,368.2h4.2c0-1.3-0.9-2-2.1-2
						C742.9,366.2,742,367,741.9,368.2z"/>
					<path d="M758.1,368.3c0-1.3-0.7-2-1.8-2s-1.9,0.7-1.9,2.1v3.6h-1.1v-3.7c0-1.3-0.7-2-1.8-2s-1.9,0.7-1.9,2.1v3.6h-1.1v-6.6h1.1
						v0.9c0.4-0.7,1.2-1.1,2.1-1.1c1.1,0,2,0.5,2.4,1.5c0.4-0.9,1.3-1.5,2.3-1.5c1.5,0,2.7,0.9,2.7,2.8v3.9H758L758.1,368.3
						L758.1,368.3z"/>
					<path d="M764.4,366.3h-0.9v-0.9h0.9v-1.7h1.1v1.7h1.7v0.9h-1.7v3.9c0,0.6,0.2,0.9,0.9,0.9h0.8v0.9h-1c-1.2,0-1.8-0.5-1.8-1.8
						V366.3z"/>
					<path d="M771.4,372.1c-1.9,0-3.3-1.3-3.3-3.4s1.5-3.4,3.3-3.4c1.9,0,3.3,1.3,3.3,3.4C774.8,370.8,773.3,372.1,771.4,372.1z
						 M771.4,371.1c1.1,0,2.3-0.8,2.3-2.4c0-1.7-1.1-2.4-2.2-2.4c-1.2,0-2.2,0.8-2.2,2.4C769.3,370.4,770.3,371.1,771.4,371.1z"/>
					<path d="M777.3,372h-1.1v-6.6h1.1v1.1c0.4-0.7,1.1-1.2,2.1-1.2v1.1h-0.3c-1,0-1.8,0.5-1.8,2V372z"/>
					<path d="M785.5,368.3c0-1.3-0.7-2-1.8-2s-1.9,0.7-1.9,2.1v3.6h-1.1v-6.6h1.1v0.9c0.4-0.7,1.2-1.1,2.1-1.1
						c1.5,0,2.7,0.9,2.7,2.8v3.9h-1.1V368.3z"/>
					<path d="M791.3,372.1c-1.9,0-3.3-1.3-3.3-3.4s1.5-3.4,3.3-3.4c1.9,0,3.3,1.3,3.3,3.4C794.6,370.8,793.1,372.1,791.3,372.1z
						 M791.3,371.1c1.1,0,2.3-0.8,2.3-2.4c0-1.7-1.1-2.4-2.2-2.4c-1.2,0-2.2,0.8-2.2,2.4C789.1,370.4,790.1,371.1,791.3,371.1z"/>
				</g>
				<g class="st6">
					<path d="M667.1,383.3c1,0,2,0.5,2.4,1.3v-3.5h1.1v8.9h-1.1v-1.2c-0.4,0.7-1.2,1.3-2.4,1.3c-1.8,0-3.1-1.4-3.1-3.4
						C663.9,384.6,665.3,383.3,667.1,383.3z M667.3,384.3c-1.2,0-2.2,0.9-2.2,2.4s1,2.5,2.2,2.5s2.2-0.9,2.2-2.4
						C669.5,385.2,668.5,384.3,667.3,384.3z"/>
					<path d="M675.3,390.1c-1.9,0-3.2-1.3-3.2-3.4s1.3-3.4,3.2-3.4s3.2,1.3,3.2,3.1c0,0.2,0,0.4,0,0.7h-5.3c0.1,1.3,1,2.1,2.1,2.1
						c1,0,1.6-0.5,1.8-1.2h1.2C678,389.2,676.9,390.1,675.3,390.1z M673.2,386.2h4.2c0-1.3-0.9-2-2.1-2
						C674.2,384.2,673.3,385,673.2,386.2z"/>
					<path d="M679.9,381.1h1.1v8.9h-1.1V381.1z"/>
					<path d="M685.7,390.1c-1.9,0-3.3-1.3-3.3-3.4s1.3-3.4,3.3-3.4c1.9,0,3.2,1.3,3.2,3.1c0,0.2,0,0.4,0,0.7h-5.3
						c0.1,1.3,1,2.1,2.1,2.1c1,0,1.6-0.5,1.8-1.2h1.2C688.4,389.2,687.3,390.1,685.7,390.1z M683.6,386.2h4.1c0-1.3-0.9-2-2.1-2
						C684.6,384.2,683.7,385,683.6,386.2z"/>
					<path d="M695.8,390.1c-1.5,0-2.6-0.8-2.7-2h1.1c0.1,0.6,0.6,1.1,1.5,1.1s1.3-0.4,1.3-1c0-1.5-3.9-0.6-3.9-3.1
						c0-1,0.9-1.8,2.4-1.8s2.4,0.8,2.5,2.1h-1.1c0-0.7-0.6-1.1-1.4-1.1c-0.8,0-1.3,0.4-1.3,0.9c0,1.6,3.8,0.7,3.9,3.1
						C698.2,389.3,697.3,390.1,695.8,390.1z"/>
					<path d="M702.6,390.1c-1.9,0-3.2-1.3-3.2-3.4s1.3-3.4,3.2-3.4s3.2,1.3,3.2,3.1c0,0.2,0,0.4,0,0.7h-5.3c0.1,1.3,1,2.1,2.1,2.1
						c1,0,1.6-0.5,1.8-1.2h1.2C705.3,389.2,704.2,390.1,702.6,390.1z M700.5,386.2h4.2c0-1.3-0.9-2-2.1-2
						C701.5,384.2,700.6,385,700.5,386.2z"/>
					<path d="M719.9,386.3c0-1.3-0.7-2-1.8-2s-1.9,0.7-1.9,2.1v3.6h-1.1v-3.7c0-1.3-0.7-2-1.8-2s-1.9,0.7-1.9,2.1v3.6h-1.1v-6.6h1.1
						v0.9c0.4-0.7,1.2-1.1,2.1-1.1c1.1,0,2,0.5,2.4,1.5c0.4-0.9,1.3-1.5,2.3-1.5c1.5,0,2.7,0.9,2.7,2.8v3.9h-1.1L719.9,386.3
						L719.9,386.3z"/>
					<path d="M725.5,383.3c1.2,0,2.1,0.6,2.4,1.3v-1.2h1.1v6.6h-1.1v-1.2c-0.4,0.7-1.2,1.3-2.5,1.3c-1.8,0-3.1-1.4-3.1-3.4
						C722.3,384.6,723.7,383.3,725.5,383.3z M725.7,384.3c-1.2,0-2.2,0.9-2.2,2.4s1,2.5,2.2,2.5s2.2-0.9,2.2-2.4
						C727.9,385.2,726.9,384.3,725.7,384.3z"/>
					<path d="M735.7,386.3c0-1.3-0.7-2-1.8-2s-1.9,0.7-1.9,2.1v3.6h-1.1v-6.6h1.1v0.9c0.4-0.7,1.2-1.1,2.1-1.1
						c1.5,0,2.7,0.9,2.7,2.8v3.9h-1.1V386.3z"/>
					<path d="M738.8,384.3h-0.9v-0.9h0.9v-1.7h1.1v1.7h1.7v0.9h-1.7v3.9c0,0.6,0.2,0.9,0.9,0.9h0.8v0.9h-1c-1.2,0-1.8-0.5-1.8-1.8
						V384.3z"/>
					<path d="M745.8,390.1c-1.9,0-3.3-1.3-3.3-3.4s1.3-3.4,3.3-3.4c1.9,0,3.2,1.3,3.2,3.1c0,0.2,0,0.4,0,0.7h-5.3
						c0.1,1.3,1,2.1,2.1,2.1c1,0,1.6-0.5,1.8-1.2h1.2C748.4,389.2,747.4,390.1,745.8,390.1z M743.6,386.2h4.1c0-1.3-0.9-2-2.1-2
						C744.6,384.2,743.8,385,743.6,386.2z"/>
					<path d="M755.2,386.3c0-1.3-0.7-2-1.8-2s-1.9,0.7-1.9,2.1v3.6h-1.1v-6.6h1.1v0.9c0.4-0.7,1.2-1.1,2.1-1.1
						c1.5,0,2.7,0.9,2.7,2.8v3.9h-1.1V386.3z"/>
					<path d="M758,381.1h1.1v3.2c0.4-0.7,1.2-1.1,2.2-1.1c1.5,0,2.6,0.9,2.6,2.8v3.9h-1.1v-3.7c0-1.3-0.7-2-1.8-2s-1.9,0.7-1.9,2.1
						v3.6H758V381.1z"/>
					<path d="M768.4,383.3c1.2,0,2.1,0.6,2.4,1.3v-1.2h1.1v6.6h-1.1v-1.2c-0.4,0.7-1.2,1.3-2.5,1.3c-1.8,0-3.1-1.4-3.1-3.4
						C765.3,384.6,766.7,383.3,768.4,383.3z M768.6,384.3c-1.2,0-2.2,0.9-2.2,2.4s1,2.5,2.2,2.5s2.2-0.9,2.2-2.4
						C770.9,385.2,769.8,384.3,768.6,384.3z"/>
					<path d="M774.2,390.1c-0.4,0-0.7-0.3-0.7-0.7s0.3-0.7,0.7-0.7s0.7,0.3,0.7,0.7S774.6,390.1,774.2,390.1z"/>
				</g>
			</g>
		</g>
	</g>
	<g id="Grupo_1662">
		<g id="Grupo_1661">
			<g id="Grupo_1660">
				<g>
					<g>
						<defs>
							<rect id="SVGID_00000080194114001549526290000003580806718952988863_" x="8.4" y="137" width="16.5" height="128.5"/>
						</defs>
						<clipPath id="SVGID_00000083048106454417426910000000783903360038530997_">
							<use xlink:href="#SVGID_00000080194114001549526290000003580806718952988863_"  style="overflow:visible;"/>
						</clipPath>
						<g id="Grupo_1659" style="clip-path:url(#SVGID_00000083048106454417426910000000783903360038530997_);">
							<g id="Grupo_1658" transform="translate(0 0)">
								<g>
									<g>
										<defs>
											<path id="SVGID_00000076591462040156868270000006881567501235556267_" d="M8.4,265.5h11.1v-52.9c0-3.6,5.5-7.4,5.5-11.3
												c0-3.6-5.5-8-5.5-11.6V137H8.4v55.8c0,1,7.2,7.2,7.2,8.4c0,0.8-7.2,7.5-7.2,8.4V265.5z"/>
										</defs>
										<clipPath id="SVGID_00000078748154084682506680000018423090994768556984_">
											<use xlink:href="#SVGID_00000076591462040156868270000006881567501235556267_"  style="overflow:visible;"/>
										</clipPath>
										<g id="Grupo_1657" style="clip-path:url(#SVGID_00000078748154084682506680000018423090994768556984_);">
											<g id="Grupo_1656" transform="translate(0 0)">
												<g id="Grupo_1655">
													<g>
														<g>
															<defs>
																
																	<rect id="SVGID_00000142862355743681170380000007197912474789955466_" x="8.4" y="137" width="16.5" height="128.5"/>
															</defs>
															<clipPath id="SVGID_00000086670717136153685240000002503183963566575525_">
																<use xlink:href="#SVGID_00000142862355743681170380000007197912474789955466_"  style="overflow:visible;"/>
															</clipPath>
															<g id="Grupo_1654" style="clip-path:url(#SVGID_00000086670717136153685240000002503183963566575525_);">
																
																	<image style="overflow:visible;enable-background:new    ;" width="124" height="952" id="Ret창ngulo_1139" xlink:href="A2F1F6A6.jpg"  transform="matrix(0.1333 0 0 0.1333 8.417 137.8018)">
																</image>
															</g>
														</g>
													</g>
												</g>
											</g>
										</g>
									</g>
								</g>
							</g>
						</g>
					</g>
				</g>
			</g>
		</g>
	</g>
</g>
</svg>
