<?xml version="1.0" encoding="utf-8"?>
<!-- Generator: Adobe Illustrator 26.1.0, SVG Export Plug-In . SVG Version: 6.00 Build 0)  -->
<svg version="1.1" id="Camada_1" xmlns="http://www.w3.org/2000/svg" xmlns:xlink="http://www.w3.org/1999/xlink" x="0px" y="0px"
	 viewBox="0 0 489.9 128.8" style="enable-background:new 0 0 489.9 128.8;" xml:space="preserve">
<style type="text/css">
	.st0{clip-path:url(#SVGID_00000012446445116486324740000014411690412728187273_);}
	.st1{clip-path:url(#SVGID_00000152236084780806328330000005588003547049741739_);}
	.st2{fill:#F4BB2A;}
	.st3{clip-path:url(#SVGID_00000116225450351566775670000002619359636869626753_);}
	.st4{clip-path:url(#SVGID_00000181789565086233253370000011165913705694254001_);}
	.st5{clip-path:url(#SVGID_00000026848095039358880440000014365544111186723999_);}
	.st6{clip-path:url(#SVGID_00000005229394045902598600000018016339282955542200_);}
	.st7{enable-background:new    ;}
	.st8{fill:#FFFFFF;}
	.st9{clip-path:url(#SVGID_00000176037886357111741080000010160346018168782513_);}
	.st10{clip-path:url(#SVGID_00000129916564987705490060000011214845591256745859_);}
	.st11{fill:#108141;}
	.st12{clip-path:url(#SVGID_00000104670763835790338140000002461093373419782795_);}
	.st13{clip-path:url(#SVGID_00000116928248133909046570000017707429492466095270_);}
	.st14{clip-path:url(#SVGID_00000006678579381231375750000013750952184375312782_);}
	.st15{clip-path:url(#SVGID_00000061456180920704326180000013668824855123290790_);}
	.st16{clip-path:url(#SVGID_00000099633017027733467760000001832889830882444983_);}
	.st17{clip-path:url(#SVGID_00000164484937196435883270000010897927677554272692_);}
	.st18{fill:#29696D;}
	.st19{clip-path:url(#SVGID_00000000914013279959794130000016941836331970779811_);}
	.st20{clip-path:url(#SVGID_00000115476998702535813300000009650230868066117273_);}
	.st21{clip-path:url(#SVGID_00000124160648339896050760000010094956443023226031_);}
	.st22{clip-path:url(#SVGID_00000114057418180870210710000013203050625093122999_);}
	.st23{clip-path:url(#SVGID_00000142134482793371942530000009843298757698239876_);}
	.st24{clip-path:url(#SVGID_00000025433365784172465830000009153891969339556487_);}
	.st25{fill:#54BFCD;}
	.st26{clip-path:url(#SVGID_00000121246524523277151220000006301795973503435939_);}
	.st27{clip-path:url(#SVGID_00000173145105900226161920000007093233109518188181_);}
	.st28{clip-path:url(#SVGID_00000156589798391843745880000008353260224859679881_);}
	.st29{clip-path:url(#SVGID_00000170976894084437923480000005148492953142495642_);}
</style>
<g id="img-slide-38" transform="translate(-122 -244)">
	<g id="Grupo_254" transform="translate(122 244)">
		<g>
			<defs>
				<rect id="SVGID_1_" width="28.9" height="128.8"/>
			</defs>
			<clipPath id="SVGID_00000041985538077133660920000004025862895089551501_">
				<use xlink:href="#SVGID_1_"  style="overflow:visible;"/>
			</clipPath>
			<g id="Grupo_253" style="clip-path:url(#SVGID_00000041985538077133660920000004025862895089551501_);">
				<g id="Grupo_242" transform="translate(0 14.893)">
					<g>
						<defs>
							<polygon id="SVGID_00000173143276043569149880000010208890506017714311_" points="0,0 0,41.1 8.4,49.5 0,57.9 0,99 20.5,99 
								20.5,57.9 28.9,49.5 20.5,41.1 20.5,0 							"/>
						</defs>
						<clipPath id="SVGID_00000064355128526631717340000012757683388976843926_">
							<use xlink:href="#SVGID_00000173143276043569149880000010208890506017714311_"  style="overflow:visible;"/>
						</clipPath>
						<g id="Grupo_241" style="clip-path:url(#SVGID_00000064355128526631717340000012757683388976843926_);">
							<path id="Caminho_461" class="st2" d="M-49.5,49.5l64-64l64,64l-64,64L-49.5,49.5z"/>
						</g>
					</g>
				</g>
				<g id="Grupo_252">
					<g>
						<defs>
							<polygon id="SVGID_00000008123727574273345590000000436429160154656910_" points="0,0 0,56 8.4,64.4 0,72.8 0,128.8 
								20.5,128.8 20.5,72.8 28.9,64.4 20.5,56 20.5,0 							"/>
						</defs>
						<clipPath id="SVGID_00000005984683185402134400000016347962229638347936_">
							<use xlink:href="#SVGID_00000008123727574273345590000000436429160154656910_"  style="overflow:visible;"/>
						</clipPath>
						<g id="Grupo_251" style="clip-path:url(#SVGID_00000005984683185402134400000016347962229638347936_);">
							<g id="Grupo_250">
								<g id="Grupo_249">
									<g>
										<defs>
											<rect id="SVGID_00000131351740738564853610000006104627071014635162_" width="16.6" height="128.8"/>
										</defs>
										<clipPath id="SVGID_00000077289910528380107380000016742783056509745593_">
											<use xlink:href="#SVGID_00000131351740738564853610000006104627071014635162_"  style="overflow:visible;"/>
										</clipPath>
										<g id="Grupo_248" style="clip-path:url(#SVGID_00000077289910528380107380000016742783056509745593_);">
											<g id="Grupo_247">
												<g>
													<defs>
														<path id="SVGID_00000181787167039974111800000011338572146719865251_" d="M0,128.8h11.1V75.7c0-3.6,5.5-7.4,5.5-11.4
															c0-3.6-5.5-8-5.5-11.6V0H0v56c0,1,7.2,7.2,7.2,8.4c0,0.8-7.2,7.5-7.2,8.5V128.8z"/>
													</defs>
													<clipPath id="SVGID_00000057862264481798723940000011139567270254974358_">
														<use xlink:href="#SVGID_00000181787167039974111800000011338572146719865251_"  style="overflow:visible;"/>
													</clipPath>
													<g id="Grupo_246" style="clip-path:url(#SVGID_00000057862264481798723940000011139567270254974358_);">
														<g id="Grupo_245">
															<g id="Grupo_244">
																<g>
																	<defs>
																		<rect id="SVGID_00000034785590534602367930000016060831426352472762_" width="16.6" height="128.8"/>
																	</defs>
																	<clipPath id="SVGID_00000161589625521334128510000007190101255944882068_">
																		<use xlink:href="#SVGID_00000034785590534602367930000016060831426352472762_"  style="overflow:visible;"/>
																	</clipPath>
																	<g id="Grupo_243" style="clip-path:url(#SVGID_00000161589625521334128510000007190101255944882068_);">
																		<g id="Retângulo_72" transform="translate(0 -0.021)">
																			
																				<image style="overflow:visible;enable-background:new    ;" width="121" height="941" id="image" xlink:href="C14DF2EE.png"  transform="matrix(0.1369 0 0 0.1369 0 -2.095422e-02)">
																			</image>
																		</g>
																	</g>
																</g>
															</g>
														</g>
													</g>
												</g>
											</g>
										</g>
									</g>
								</g>
							</g>
						</g>
					</g>
				</g>
				<g class="st7">
					<path class="st8" d="M16.8,20v6.3h-0.6v-5.7h-1.5V20H16.8z"/>
				</g>
			</g>
		</g>
	</g>
	<g id="Grupo_255" transform="translate(276 244)">
		<g>
			<defs>
				<rect id="SVGID_00000134222428954559683340000001181228744930005923_" width="28.9" height="128.8"/>
			</defs>
			<clipPath id="SVGID_00000149368845299501722270000015178303728516633253_">
				<use xlink:href="#SVGID_00000134222428954559683340000001181228744930005923_"  style="overflow:visible;"/>
			</clipPath>
			<g id="Grupo_253-2" style="clip-path:url(#SVGID_00000149368845299501722270000015178303728516633253_);">
				<g id="Grupo_242-2" transform="translate(0 14.893)">
					<g>
						<defs>
							<polygon id="SVGID_00000008112623323828824920000005769343182648970391_" points="0,0 0,41.1 8.4,49.5 0,57.9 0,99 20.5,99 
								20.5,57.9 28.9,49.5 20.5,41.1 20.5,0 							"/>
						</defs>
						<clipPath id="SVGID_00000131352484853355729670000008612378186812541117_">
							<use xlink:href="#SVGID_00000008112623323828824920000005769343182648970391_"  style="overflow:visible;"/>
						</clipPath>
						<g id="Grupo_241-2" style="clip-path:url(#SVGID_00000131352484853355729670000008612378186812541117_);">
							
								<rect id="Retângulo_71" x="-30.8" y="4.3" transform="matrix(0.7071 -0.7071 0.7071 0.7071 -30.7664 24.7334)" class="st11" width="90.5" height="90.5"/>
						</g>
					</g>
				</g>
				<g id="Grupo_252-2">
					<g>
						<defs>
							<polygon id="SVGID_00000148624634464016313050000002572963648966053547_" points="0,0 0,56 8.4,64.4 0,72.8 0,128.8 
								20.5,128.8 20.5,72.8 28.9,64.4 20.5,56 20.5,0 							"/>
						</defs>
						<clipPath id="SVGID_00000110459360333135667640000010958108045437852075_">
							<use xlink:href="#SVGID_00000148624634464016313050000002572963648966053547_"  style="overflow:visible;"/>
						</clipPath>
						<g id="Grupo_251-2" style="clip-path:url(#SVGID_00000110459360333135667640000010958108045437852075_);">
							<g id="Grupo_250-2">
								<g id="Grupo_249-2">
									<g>
										<defs>
											<rect id="SVGID_00000000189765054519361120000010497810928284905600_" width="16.6" height="128.8"/>
										</defs>
										<clipPath id="SVGID_00000054250653344940538040000012335898590706470794_">
											<use xlink:href="#SVGID_00000000189765054519361120000010497810928284905600_"  style="overflow:visible;"/>
										</clipPath>
										<g id="Grupo_248-2" style="clip-path:url(#SVGID_00000054250653344940538040000012335898590706470794_);">
											<g id="Grupo_247-2">
												<g>
													<defs>
														<path id="SVGID_00000120546757382191102900000011048334973441136056_" d="M0,128.8h11.1V75.7c0-3.6,5.5-7.4,5.5-11.4
															c0-3.6-5.5-8-5.5-11.6V0H0v56c0,1,7.2,7.2,7.2,8.4c0,0.8-7.2,7.5-7.2,8.5V128.8z"/>
													</defs>
													<clipPath id="SVGID_00000116213021144024410540000008761702415044597947_">
														<use xlink:href="#SVGID_00000120546757382191102900000011048334973441136056_"  style="overflow:visible;"/>
													</clipPath>
													<g id="Grupo_246-2" style="clip-path:url(#SVGID_00000116213021144024410540000008761702415044597947_);">
														<g id="Grupo_245-2">
															<g id="Grupo_244-2">
																<g>
																	<defs>
																		<rect id="SVGID_00000049218660811949177700000016787689092481816213_" width="16.6" height="128.8"/>
																	</defs>
																	<clipPath id="SVGID_00000156562316949367956980000012378553007649652378_">
																		<use xlink:href="#SVGID_00000049218660811949177700000016787689092481816213_"  style="overflow:visible;"/>
																	</clipPath>
																	<g id="Grupo_243-2" style="clip-path:url(#SVGID_00000156562316949367956980000012378553007649652378_);">
																		<g id="Retângulo_72-2" transform="translate(0 -0.021)">
																			
																				<image style="overflow:visible;enable-background:new    ;" width="121" height="941" id="image_00000113342331452084058900000016796187903757849531_" xlink:href="C14DF2F2.png"  transform="matrix(0.1369 0 0 0.1369 0 -2.095422e-02)">
																			</image>
																		</g>
																	</g>
																</g>
															</g>
														</g>
													</g>
												</g>
											</g>
										</g>
									</g>
								</g>
							</g>
						</g>
					</g>
				</g>
				<g class="st7">
					<path class="st8" d="M18.4,25.7v0.6h-4.4v-0.5l2.6-2.6c0.7-0.7,0.8-1.1,0.8-1.6c0-0.7-0.5-1.2-1.5-1.2c-0.7,0-1.3,0.2-1.7,0.7
						l-0.5-0.4C14.2,20.3,15,20,16,20c1.3,0,2.1,0.6,2.1,1.7c0,0.6-0.2,1.1-1,2l-2.1,2.1H18.4z"/>
				</g>
			</g>
		</g>
	</g>
	<g id="Grupo_256" transform="translate(430 244)">
		<g>
			<defs>
				<rect id="SVGID_00000105419227553287243370000016865837073544621728_" width="28.9" height="128.8"/>
			</defs>
			<clipPath id="SVGID_00000052807472430163094630000015485938449870960800_">
				<use xlink:href="#SVGID_00000105419227553287243370000016865837073544621728_"  style="overflow:visible;"/>
			</clipPath>
			<g id="Grupo_253-3" style="clip-path:url(#SVGID_00000052807472430163094630000015485938449870960800_);">
				<g id="Grupo_242-3" transform="translate(0 14.893)">
					<g>
						<defs>
							<polygon id="SVGID_00000094613864994119873120000007731408386966058147_" points="0,0 0,41.1 8.4,49.5 0,57.9 0,99 20.5,99 
								20.5,57.9 28.9,49.5 20.5,41.1 20.5,0 							"/>
						</defs>
						<clipPath id="SVGID_00000125570873243784310100000000066713722729722768_">
							<use xlink:href="#SVGID_00000094613864994119873120000007731408386966058147_"  style="overflow:visible;"/>
						</clipPath>
						<g id="Grupo_241-3" style="clip-path:url(#SVGID_00000125570873243784310100000000066713722729722768_);">
							
								<rect id="Retângulo_71-2" x="-30.8" y="4.3" transform="matrix(0.7071 -0.7071 0.7071 0.7071 -30.7664 24.7334)" class="st18" width="90.5" height="90.5"/>
						</g>
					</g>
				</g>
				<g id="Grupo_252-3">
					<g>
						<defs>
							<polygon id="SVGID_00000003793275741985451390000015229251778281988016_" points="0,0 0,56 8.4,64.4 0,72.8 0,128.8 
								20.5,128.8 20.5,72.8 28.9,64.4 20.5,56 20.5,0 							"/>
						</defs>
						<clipPath id="SVGID_00000069355697107301744950000008002300934562696844_">
							<use xlink:href="#SVGID_00000003793275741985451390000015229251778281988016_"  style="overflow:visible;"/>
						</clipPath>
						<g id="Grupo_251-3" style="clip-path:url(#SVGID_00000069355697107301744950000008002300934562696844_);">
							<g id="Grupo_250-3">
								<g id="Grupo_249-3">
									<g>
										<defs>
											<rect id="SVGID_00000003070358845898520730000013006243566620514460_" width="16.6" height="128.8"/>
										</defs>
										<clipPath id="SVGID_00000110464327931194156000000014571530060824571803_">
											<use xlink:href="#SVGID_00000003070358845898520730000013006243566620514460_"  style="overflow:visible;"/>
										</clipPath>
										<g id="Grupo_248-3" style="clip-path:url(#SVGID_00000110464327931194156000000014571530060824571803_);">
											<g id="Grupo_247-3">
												<g>
													<defs>
														<path id="SVGID_00000150061641502234995710000013946483670769354890_" d="M0,128.8h11.1V75.7c0-3.6,5.5-7.4,5.5-11.4
															c0-3.6-5.5-8-5.5-11.6V0H0v56c0,1,7.2,7.2,7.2,8.4c0,0.8-7.2,7.5-7.2,8.5V128.8z"/>
													</defs>
													<clipPath id="SVGID_00000146469488960006055130000004349956417981742741_">
														<use xlink:href="#SVGID_00000150061641502234995710000013946483670769354890_"  style="overflow:visible;"/>
													</clipPath>
													<g id="Grupo_246-3" style="clip-path:url(#SVGID_00000146469488960006055130000004349956417981742741_);">
														<g id="Grupo_245-3">
															<g id="Grupo_244-3">
																<g>
																	<defs>
																		<rect id="SVGID_00000126292362783186570380000018130379551247645626_" width="16.6" height="128.8"/>
																	</defs>
																	<clipPath id="SVGID_00000106833925156347305990000000202277336829865148_">
																		<use xlink:href="#SVGID_00000126292362783186570380000018130379551247645626_"  style="overflow:visible;"/>
																	</clipPath>
																	<g id="Grupo_243-3" style="clip-path:url(#SVGID_00000106833925156347305990000000202277336829865148_);">
																		<g id="Retângulo_72-3" transform="translate(0 -0.021)">
																			
																				<image style="overflow:visible;enable-background:new    ;" width="121" height="941" id="image_00000034782007195391217260000015977328619271116471_" xlink:href="C14DF2F2.png"  transform="matrix(0.1369 0 0 0.1369 0 -2.095422e-02)">
																			</image>
																		</g>
																	</g>
																</g>
															</g>
														</g>
													</g>
												</g>
											</g>
										</g>
									</g>
								</g>
							</g>
						</g>
					</g>
				</g>
				<g class="st7">
					<path class="st8" d="M18.2,24.5c0,1.1-0.8,1.9-2.3,1.9c-0.9,0-1.8-0.3-2.3-0.8L14,25c0.4,0.4,1.1,0.7,2,0.7
						c1,0,1.6-0.5,1.6-1.3c0-0.8-0.5-1.3-1.7-1.3h-0.5v-0.5l1.7-2.2h-3.2V20H18v0.5l-1.8,2.2C17.6,22.8,18.2,23.5,18.2,24.5z"/>
				</g>
			</g>
		</g>
	</g>
	<g id="Grupo_257" transform="translate(583 244)">
		<g>
			<defs>
				<rect id="SVGID_00000118362479101739029800000010460120630422625439_" width="28.9" height="128.8"/>
			</defs>
			<clipPath id="SVGID_00000142136546459136188590000010716909562816297133_">
				<use xlink:href="#SVGID_00000118362479101739029800000010460120630422625439_"  style="overflow:visible;"/>
			</clipPath>
			<g id="Grupo_253-4" style="clip-path:url(#SVGID_00000142136546459136188590000010716909562816297133_);">
				<g id="Grupo_242-4" transform="translate(0 14.893)">
					<g>
						<defs>
							<polygon id="SVGID_00000116935536675454628870000009729350253088958367_" points="0,0 0,41.1 8.4,49.5 0,57.9 0,99 20.5,99 
								20.5,57.9 28.9,49.5 20.5,41.1 20.5,0 							"/>
						</defs>
						<clipPath id="SVGID_00000140728339168288628290000017809949744816965281_">
							<use xlink:href="#SVGID_00000116935536675454628870000009729350253088958367_"  style="overflow:visible;"/>
						</clipPath>
						<g id="Grupo_241-4" style="clip-path:url(#SVGID_00000140728339168288628290000017809949744816965281_);">
							
								<rect id="Retângulo_71-3" x="-30.8" y="4.3" transform="matrix(0.7071 -0.7071 0.7071 0.7071 -30.7664 24.7334)" class="st25" width="90.5" height="90.5"/>
						</g>
					</g>
				</g>
				<g id="Grupo_252-4">
					<g>
						<defs>
							<polygon id="SVGID_00000051378782555830653330000011813859177509240749_" points="0,0 0,56 8.4,64.4 0,72.8 0,128.8 
								20.5,128.8 20.5,72.8 28.9,64.4 20.5,56 20.5,0 							"/>
						</defs>
						<clipPath id="SVGID_00000170265858036269955250000018118460749078685833_">
							<use xlink:href="#SVGID_00000051378782555830653330000011813859177509240749_"  style="overflow:visible;"/>
						</clipPath>
						<g id="Grupo_251-4" style="clip-path:url(#SVGID_00000170265858036269955250000018118460749078685833_);">
							<g id="Grupo_250-4">
								<g id="Grupo_249-4">
									<g>
										<defs>
											<rect id="SVGID_00000019665144834791570430000007412535516965351870_" width="16.6" height="128.8"/>
										</defs>
										<clipPath id="SVGID_00000072960529446804451580000008722237468246282936_">
											<use xlink:href="#SVGID_00000019665144834791570430000007412535516965351870_"  style="overflow:visible;"/>
										</clipPath>
										<g id="Grupo_248-4" style="clip-path:url(#SVGID_00000072960529446804451580000008722237468246282936_);">
											<g id="Grupo_247-4">
												<g>
													<defs>
														<path id="SVGID_00000083052026233691081240000010733191645060737949_" d="M0,128.8h11.1V75.7c0-3.6,5.5-7.4,5.5-11.4
															c0-3.6-5.5-8-5.5-11.6V0H0v56c0,1,7.2,7.2,7.2,8.4c0,0.8-7.2,7.5-7.2,8.5V128.8z"/>
													</defs>
													<clipPath id="SVGID_00000074400969465582579080000005916327999724967584_">
														<use xlink:href="#SVGID_00000083052026233691081240000010733191645060737949_"  style="overflow:visible;"/>
													</clipPath>
													<g id="Grupo_246-4" style="clip-path:url(#SVGID_00000074400969465582579080000005916327999724967584_);">
														<g id="Grupo_245-4">
															<g id="Grupo_244-4">
																<g>
																	<defs>
																		<rect id="SVGID_00000079479089071122925840000000880743094592141446_" width="16.6" height="128.8"/>
																	</defs>
																	<clipPath id="SVGID_00000077283238771777591260000016203303846153902231_">
																		<use xlink:href="#SVGID_00000079479089071122925840000000880743094592141446_"  style="overflow:visible;"/>
																	</clipPath>
																	<g id="Grupo_243-4" style="clip-path:url(#SVGID_00000077283238771777591260000016203303846153902231_);">
																		<g id="Retângulo_72-4" transform="translate(0 -0.021)">
																			
																				<image style="overflow:visible;enable-background:new    ;" width="121" height="941" id="image_00000036222783200612608530000007532837336763673234_" xlink:href="C14DF2F6.png"  transform="matrix(0.1369 0 0 0.1369 0 -2.095422e-02)">
																			</image>
																		</g>
																	</g>
																</g>
															</g>
														</g>
													</g>
												</g>
											</g>
										</g>
									</g>
								</g>
							</g>
						</g>
					</g>
				</g>
				<g class="st7">
					<path class="st8" d="M18.4,24.7h-1.3v1.7h-0.6v-1.7H13v-0.5l3.3-4.2H17l-3.2,4.1h2.7v-1.5h0.6v1.5h1.3V24.7z"/>
				</g>
			</g>
		</g>
	</g>
</g>
</svg>
