<svg xmlns="http://www.w3.org/2000/svg" width="122.273" height="154.105" viewBox="0 0 122.273 154.105">
  <g id="img-1-slide-61" transform="translate(0 0)">
    <path id="Caminho_1895" data-name="Caminho 1895" d="M84,78.891a64.651,64.651,0,0,1-19.392,24.759q-1.376,1.091-2.8,2.078c-1.022-1.281-1.593-2.026-1.593-2.026L52.33,52.487c8.051,1.7,11.964,2.58,17.124,7.5C72.588,62.962,78.146,70.476,84,78.891" transform="translate(38.276 36.776)" fill="#364866"/>
    <path id="Caminho_1896" data-name="Caminho 1896" d="M97.1,105.845q-1.376,1.091-2.8,2.078a64.753,64.753,0,0,1-76.564-1.9c-.693-.537-1.368-1.073-2.043-1.645A63.265,63.265,0,0,1,7.91,96.616,150.631,150.631,0,0,1,9.157,79.3a137.148,137.148,0,0,0,1.42-16.4c0-.918-.017-1.351-.017-1.351L42.539,49.487l26.075,1.87L84.82,54.681c5.489,4.692,9.384,13.436,11.029,29.071.606,5.61.97,13.453,1.247,22.093" transform="translate(5.786 34.582)" fill="#e9a527"/>
    <path id="Caminho_1897" data-name="Caminho 1897" d="M25.792,9.4s-5.553.665-8.087,7.5c-1.866,5.028-.057,14.232,2.27,25.3s3.861,15.82,5.347,18.912a8.386,8.386,0,0,0,4.725,4.057l.128-13.032-.159-9.09s6.1-7.753,6.962-14.251c1.112-8.361-.537-11.855-.537-11.855Z" transform="translate(12.384 5.265)" fill="#37474f"/>
    <path id="Caminho_1898" data-name="Caminho 1898" d="M22.049,15.6C23.581,8.328,33.982-.36,48.614,1.093S70.486,6.864,75.29,15.6s1.065,15,1.065,15L32.28,28.854Z" transform="translate(16.127 -0.932)" fill="#37474f"/>
    <path id="Caminho_1899" data-name="Caminho 1899" d="M20.63,55c4.72,3.264,9.183-1.531,9.183-1.531l1.028,26.92s-.634,5.163,7.461,10c11.479,6.863,18.017,4.98,22.8,12.052,5.4-9.881,7.412-16.916-1.248-23.421l.029-6.143a49.933,49.933,0,0,0,9.448.27c6.006-.729,9.925-5.34,11.936-11.744,3.227-10.3,3.295-28.48-1.47-47.133C72.1,8,52.571,8.171,38.211,16.6,38.485,28.511,35,33.685,34.878,38a11.285,11.285,0,0,1-2.692,3.257c-2.254,1.823-3.866-3.146-5.634-5.132-1.785-1.972-7.7-4.789-10.887,1.42C12.434,43.873,16.551,52.2,20.63,55" transform="translate(10.608 5.617)" fill="#b16668"/>
    <path id="Caminho_1900" data-name="Caminho 1900" d="M39.5,21.977l-6.238,3.581a3.773,3.773,0,0,1,1.383-5.037A3.508,3.508,0,0,1,39.5,21.977" transform="translate(24.001 13.057)" fill="#263238"/>
    <path id="Caminho_1901" data-name="Caminho 1901" d="M54.327,23.441l-6.886-2.263A3.478,3.478,0,0,1,51.894,18.8a3.808,3.808,0,0,1,2.433,4.644" transform="translate(34.7 12.004)" fill="#263238"/>
    <path id="Caminho_1902" data-name="Caminho 1902" d="M34.746,26.6a2.93,2.93,0,1,0,2.931-2.931A2.931,2.931,0,0,0,34.746,26.6" transform="translate(25.414 15.699)" fill="#263238"/>
    <path id="Caminho_1903" data-name="Caminho 1903" d="M47.235,25.826A2.93,2.93,0,1,0,50.166,22.9a2.67,2.67,0,0,0-2.931,2.931" transform="translate(34.549 15.132)" fill="#263238"/>
    <path id="Caminho_1904" data-name="Caminho 1904" d="M41.417,21.038l2.014,17.79,10.5-2.344A34.7,34.7,0,0,0,41.417,21.038" transform="translate(30.294 13.774)" fill="#9a4a4d"/>
    <path id="Caminho_1905" data-name="Caminho 1905" d="M28.788,26.657C29.6,39.428,33.781,41.1,38.333,41.772c6.027.892,11.614-1.991,19.934-2.665,6.5-.528,8.894,2.026,12.629,3.491,2.76,1.084,4.945,1.037,5.608-2.076a80.865,80.865,0,0,0,.6-17.245c.649,4.083,1.326,17.2.535,23.2-.793,6.022-2.3,11.673-5.575,14.537-4.538,3.965-14.218,4.709-26.29,2.249-11.895-2.424-16.584-6.384-18.1-10.607C22.76,38.952,24.5,32.4,22.883,29.824s5.9-3.167,5.9-3.167" transform="translate(16.571 15.411)" fill="#37474f"/>
    <path id="Caminho_1906" data-name="Caminho 1906" d="M39.19,35l7.985,2.055a4.052,4.052,0,0,1-4.94,3.1A4.318,4.318,0,0,1,39.19,35" transform="translate(28.583 23.984)" fill="#9a4a4d"/>
    <path id="Caminho_1907" data-name="Caminho 1907" d="M40.1,35.8a4.62,4.62,0,0,0-1-.028A4.262,4.262,0,0,0,42.22,39.6a3.97,3.97,0,0,0,1.318.1A3.775,3.775,0,0,0,40.1,35.8" transform="translate(28.597 24.537)" fill="#f28f8f"/>
    <path id="Caminho_1908" data-name="Caminho 1908" d="M58.377,75.259c-2.438-2.945-10.494-7.2-14.184-3.231s-2.575,7.177-5.125,6.94c-3.485-.325-10.577-6.7-14.147-10.588s-6.692-10.79-6.692-10.79a20.979,20.979,0,0,0,5.21-4.879c1.944-2.772,2.3-5.489,4.443-5.653l.235,6.147s1.392,3.063,7.5,7.175,18.322,5.336,22.761,14.88" transform="translate(13.333 32.805)" fill="#364866"/>
    <path id="Caminho_1909" data-name="Caminho 1909" d="M41.941,74.67c2-1.853,4.746-6.5,8.046-5.575s5.044,6.777,5.13,5.011-3.058-12.04-5.573-15.758-6.631-10.115-8.835-10.484L40.7,52.752s5.352,8.349,4.917,11.332-3.279,7.691-3.678,10.586" transform="translate(29.77 33.395)" fill="#364866"/>
    <path id="Caminho_1910" data-name="Caminho 1910" d="M21.411,98.8a63.264,63.264,0,0,1-7.774-7.757A64.133,64.133,0,0,1,.08,64.344c3.446-2.6,8.449-4.744,16.068-7.237,0,0,.052.069.156.225.848,1.316,5.177,8.467,6.562,20.206A65.577,65.577,0,0,1,21.411,98.8" transform="translate(0.058 40.155)" fill="#364866"/>
    <path id="Caminho_1911" data-name="Caminho 1911" d="M24.188,97.6l-.675,3.324a63.046,63.046,0,0,1-9.817-9.4A64.173,64.173,0,0,1,0,64.266c5.212-3.861,12.137-6.233,16.345-7.809C28.222,68.508,24.188,97.6,24.188,97.6" transform="translate(0 39.68)" fill="#364866"/>
  </g>
</svg>
