<?xml version="1.0" encoding="utf-8"?>
<!-- Generator: Adobe Illustrator 26.1.0, SVG Export Plug-In . SVG Version: 6.00 Build 0)  -->
<svg version="1.1" id="Camada_1" xmlns="http://www.w3.org/2000/svg" xmlns:xlink="http://www.w3.org/1999/xlink" x="0px" y="0px"
	 viewBox="0 0 629.9 111.6" style="enable-background:new 0 0 629.9 111.6;" xml:space="preserve">
<style type="text/css">
	.st0{fill:#294667;}
	.st1{enable-background:new    ;}
	.st2{fill:#FFFFFF;}
	.st3{fill:#6DAFCC;}
	.st4{filter:url(#Caminho_893);}
</style>
<filter  filterUnits="userSpaceOnUse" height="111.575" id="Caminho_893" width="100.251" x="270.798" y="0">
	<feOffset  dy="3" input="SourceAlpha"></feOffset>
	<feGaussianBlur  result="blur" stdDeviation="3"></feGaussianBlur>
	<feFlood  flood-opacity="0.161"></feFlood>
	<feComposite  in2="blur" operator="in"></feComposite>
	<feComposite  in="SourceGraphic" operator="over"></feComposite>
</filter>
<g id="img-slide-21" transform="translate(-141 -214)">
	<g id="Grupo_1311" transform="translate(-140 -7)">
		<path id="Retângulo_1002" class="st0" d="M311.5,243h168.9c16.9,0,30.5,13.7,30.5,30.5v0c0,16.9-13.7,30.5-30.5,30.5H311.5
			c-16.9,0-30.5-13.7-30.5-30.5v0C281,256.7,294.7,243,311.5,243z"/>
		<g class="st1">
			<path class="st2" d="M367.1,267.9c1.1,0.6,2,1.4,2.6,2.4c0.6,1.1,0.9,2.3,0.9,3.7s-0.3,2.6-0.9,3.7c-0.6,1-1.5,1.9-2.6,2.4
				c-1.1,0.6-2.4,0.9-3.9,0.9h-4.9v-14h4.9C364.7,267,366,267.3,367.1,267.9z M366.6,277.4c0.8-0.8,1.2-1.9,1.2-3.4
				s-0.4-2.6-1.2-3.4c-0.8-0.8-1.9-1.2-3.4-1.2h-2v9.2h2C364.6,278.6,365.8,278.2,366.6,277.4z"/>
			<path class="st2" d="M372.9,268.1c-0.3-0.3-0.5-0.7-0.5-1.2s0.2-0.9,0.5-1.2s0.7-0.5,1.2-0.5s0.9,0.2,1.2,0.5s0.5,0.7,0.5,1.2
				s-0.2,0.9-0.5,1.2s-0.7,0.5-1.2,0.5S373.2,268.4,372.9,268.1z M375.5,269.9V281h-2.8v-11.1H375.5z"/>
			<path class="st2" d="M378.2,272.4c0.4-0.9,1.1-1.5,1.8-2s1.6-0.7,2.6-0.7c0.8,0,1.5,0.2,2.2,0.5c0.6,0.3,1.1,0.8,1.5,1.3v-1.6
				h2.8V281h-2.8v-1.6c-0.4,0.5-0.9,1-1.5,1.3c-0.6,0.3-1.4,0.5-2.2,0.5c-0.9,0-1.8-0.2-2.6-0.7c-0.8-0.5-1.4-1.2-1.8-2
				c-0.4-0.9-0.7-1.9-0.7-3C377.6,274.3,377.8,273.3,378.2,272.4z M385.9,273.7c-0.3-0.5-0.6-0.9-1.1-1.1s-0.9-0.4-1.5-0.4
				s-1,0.1-1.4,0.4s-0.8,0.6-1.1,1.1c-0.3,0.5-0.4,1.1-0.4,1.7c0,0.7,0.1,1.2,0.4,1.8c0.3,0.5,0.6,0.9,1.1,1.2s0.9,0.4,1.4,0.4
				c0.5,0,1-0.1,1.5-0.4s0.8-0.6,1.1-1.1c0.3-0.5,0.4-1.1,0.4-1.8S386.1,274.2,385.9,273.7z M385.9,267l-4.6,2.1v-2l4.6-2.4V267z"/>
			<path class="st2" d="M394.6,266.2V281h-2.8v-14.8H394.6z"/>
			<path class="st2" d="M399.4,280.5c-0.9-0.5-1.5-1.1-2-2c-0.5-0.9-0.7-1.9-0.7-3c0-1.1,0.2-2.1,0.8-3c0.5-0.9,1.2-1.5,2-2
				s1.8-0.7,2.9-0.7s2,0.2,2.9,0.7s1.6,1.1,2.1,2c0.5,0.9,0.8,1.9,0.8,3c0,1.1-0.3,2.1-0.8,3c-0.5,0.9-1.2,1.5-2.1,2
				c-0.9,0.5-1.9,0.7-2.9,0.7C401.3,281.2,400.3,280.9,399.4,280.5z M403.7,278.4c0.4-0.2,0.8-0.6,1.1-1.1c0.3-0.5,0.4-1.1,0.4-1.8
				c0-1.1-0.3-1.9-0.8-2.4c-0.6-0.6-1.2-0.9-2-0.9c-0.8,0-1.5,0.3-2,0.9s-0.8,1.4-0.8,2.4c0,1.1,0.3,1.9,0.8,2.4
				c0.5,0.6,1.2,0.9,2,0.9C402.8,278.7,403.3,278.6,403.7,278.4z"/>
			<path class="st2" d="M416.7,270.2c0.6,0.3,1.1,0.8,1.5,1.3v-1.6h2.8v11.2c0,1-0.2,1.9-0.6,2.8c-0.4,0.8-1,1.4-1.9,1.9
				c-0.8,0.5-1.8,0.7-3,0.7c-1.6,0-2.9-0.4-3.9-1.1c-1-0.7-1.6-1.7-1.7-3h2.8c0.1,0.5,0.5,0.9,1,1.2c0.5,0.3,1.1,0.4,1.8,0.4
				c0.8,0,1.5-0.2,2-0.7c0.5-0.5,0.8-1.2,0.8-2.2v-1.7c-0.4,0.5-0.9,1-1.5,1.3c-0.6,0.3-1.4,0.5-2.2,0.5c-0.9,0-1.8-0.2-2.6-0.7
				c-0.8-0.5-1.4-1.2-1.8-2c-0.4-0.9-0.7-1.9-0.7-3c0-1.1,0.2-2.1,0.7-3c0.4-0.9,1.1-1.5,1.8-2s1.6-0.7,2.6-0.7
				C415.3,269.7,416.1,269.9,416.7,270.2z M417.8,273.7c-0.3-0.5-0.6-0.9-1.1-1.1s-0.9-0.4-1.5-0.4s-1,0.1-1.4,0.4s-0.8,0.6-1.1,1.1
				c-0.3,0.5-0.4,1.1-0.4,1.7c0,0.7,0.1,1.2,0.4,1.8c0.3,0.5,0.6,0.9,1.1,1.2s0.9,0.4,1.4,0.4c0.5,0,1-0.1,1.5-0.4s0.8-0.6,1.1-1.1
				c0.3-0.5,0.4-1.1,0.4-1.8S418,274.2,417.8,273.7z"/>
			<path class="st2" d="M425.8,280.5c-0.9-0.5-1.5-1.1-2-2c-0.5-0.9-0.7-1.9-0.7-3c0-1.1,0.2-2.1,0.8-3c0.5-0.9,1.2-1.5,2-2
				s1.8-0.7,2.9-0.7s2,0.2,2.9,0.7s1.6,1.1,2.1,2c0.5,0.9,0.8,1.9,0.8,3c0,1.1-0.3,2.1-0.8,3c-0.5,0.9-1.2,1.5-2.1,2
				c-0.9,0.5-1.9,0.7-2.9,0.7C427.6,281.2,426.6,280.9,425.8,280.5z M430.1,278.4c0.4-0.2,0.8-0.6,1.1-1.1c0.3-0.5,0.4-1.1,0.4-1.8
				c0-1.1-0.3-1.9-0.8-2.4c-0.6-0.6-1.2-0.9-2-0.9c-0.8,0-1.5,0.3-2,0.9s-0.8,1.4-0.8,2.4c0,1.1,0.3,1.9,0.8,2.4
				c0.5,0.6,1.2,0.9,2,0.9C429.1,278.7,429.6,278.6,430.1,278.4z"/>
		</g>
	</g>
	<g id="Grupo_1410" transform="translate(260 -7)">
		<path id="Retângulo_1002-2" class="st3" d="M311.5,243h168.9c16.9,0,30.5,13.7,30.5,30.5v0c0,16.9-13.7,30.5-30.5,30.5H311.5
			c-16.9,0-30.5-13.7-30.5-30.5v0C281,256.7,294.7,243,311.5,243z"/>
		<g class="st1">
			<path class="st2" d="M335.6,281l-3.1-5.4h-1.3v5.4h-2.8v-14h5.2c1.1,0,2,0.2,2.8,0.6c0.8,0.4,1.3,0.9,1.7,1.5
				c0.4,0.6,0.6,1.4,0.6,2.2c0,0.9-0.3,1.8-0.8,2.5c-0.5,0.7-1.3,1.2-2.4,1.5l3.3,5.7H335.6z M331.2,273.5h2.3
				c0.8,0,1.3-0.2,1.7-0.5c0.4-0.4,0.6-0.9,0.6-1.5c0-0.6-0.2-1.1-0.6-1.5c-0.4-0.4-0.9-0.5-1.7-0.5h-2.3V273.5z"/>
			<path class="st2" d="M351.4,276.3h-8.1c0.1,0.8,0.3,1.4,0.8,1.9c0.5,0.5,1.1,0.7,1.8,0.7c1,0,1.8-0.4,2.2-1.3h3
				c-0.3,1.1-0.9,1.9-1.8,2.6s-2,1-3.3,1c-1.1,0-2-0.2-2.9-0.7c-0.8-0.5-1.5-1.1-2-2c-0.5-0.9-0.7-1.9-0.7-3c0-1.1,0.2-2.2,0.7-3
				c0.5-0.9,1.1-1.5,2-2c0.8-0.5,1.8-0.7,2.9-0.7c1.1,0,2,0.2,2.8,0.7c0.8,0.5,1.5,1.1,1.9,1.9c0.5,0.8,0.7,1.8,0.7,2.9
				C351.5,275.6,351.5,276,351.4,276.3z M348.6,274.4c0-0.7-0.3-1.3-0.8-1.7c-0.5-0.4-1.1-0.7-1.9-0.7c-0.7,0-1.3,0.2-1.8,0.6
				s-0.8,1-0.9,1.8H348.6z"/>
			<path class="st2" d="M358.6,272.2h-1.9v8.8h-2.8v-8.8h-1.3v-2.3h1.3v-0.6c0-1.4,0.4-2.4,1.2-3c0.8-0.6,1.9-0.9,3.5-0.9v2.4
				c-0.7,0-1.2,0.1-1.4,0.3c-0.3,0.2-0.4,0.7-0.4,1.3v0.5h1.9V272.2z"/>
			<path class="st2" d="M363.2,266.2V281h-2.8v-14.8H363.2z"/>
			<path class="st2" d="M376.2,276.3h-8.1c0.1,0.8,0.3,1.4,0.8,1.9c0.5,0.5,1.1,0.7,1.8,0.7c1,0,1.8-0.4,2.2-1.3h3
				c-0.3,1.1-0.9,1.9-1.8,2.6c-0.9,0.7-2,1-3.3,1c-1.1,0-2-0.2-2.9-0.7c-0.8-0.5-1.5-1.1-2-2c-0.5-0.9-0.7-1.9-0.7-3
				c0-1.1,0.2-2.2,0.7-3c0.5-0.9,1.1-1.5,2-2s1.8-0.7,2.9-0.7c1.1,0,2,0.2,2.8,0.7s1.5,1.1,1.9,1.9c0.5,0.8,0.7,1.8,0.7,2.9
				C376.3,275.6,376.3,276,376.2,276.3z M373.4,274.4c0-0.7-0.3-1.3-0.8-1.7c-0.5-0.4-1.1-0.7-1.9-0.7c-0.7,0-1.3,0.2-1.8,0.6
				c-0.5,0.4-0.8,1-0.9,1.8H373.4z"/>
			<path class="st2" d="M384.5,281l-2.3-3.4l-2,3.4h-3l3.6-5.6l-3.7-5.5h3.2l2.3,3.4l2-3.4h3l-3.6,5.5l3.7,5.6H384.5z"/>
			<path class="st2" d="M389.3,268.1c-0.3-0.3-0.5-0.7-0.5-1.2s0.2-0.9,0.5-1.2c0.3-0.3,0.7-0.5,1.2-0.5s0.9,0.2,1.2,0.5
				c0.3,0.3,0.5,0.7,0.5,1.2s-0.2,0.9-0.5,1.2c-0.3,0.3-0.7,0.5-1.2,0.5S389.7,268.4,389.3,268.1z M391.9,269.9V281h-2.8v-11.1
				H391.9z"/>
			<path class="st2" d="M399.3,278.4l2.8-8.5h3L401,281h-3.4l-4.1-11.1h3L399.3,278.4z"/>
			<path class="st2" d="M406.9,268.1c-0.3-0.3-0.5-0.7-0.5-1.2s0.2-0.9,0.5-1.2c0.3-0.3,0.7-0.5,1.2-0.5s0.9,0.2,1.2,0.5
				c0.3,0.3,0.5,0.7,0.5,1.2s-0.2,0.9-0.5,1.2c-0.3,0.3-0.7,0.5-1.2,0.5S407.2,268.4,406.9,268.1z M409.5,269.9V281h-2.8v-11.1
				H409.5z"/>
			<path class="st2" d="M412.2,272.4c0.4-0.9,1.1-1.5,1.8-2c0.8-0.5,1.6-0.7,2.6-0.7c0.7,0,1.4,0.2,2.1,0.5c0.7,0.3,1.2,0.7,1.6,1.2
				v-5.3h2.8V281h-2.8v-1.6c-0.3,0.5-0.8,1-1.5,1.3c-0.6,0.3-1.4,0.5-2.2,0.5c-0.9,0-1.8-0.2-2.6-0.7c-0.8-0.5-1.4-1.2-1.8-2
				c-0.4-0.9-0.7-1.9-0.7-3C411.5,274.3,411.7,273.3,412.2,272.4z M419.8,273.7c-0.3-0.5-0.6-0.9-1.1-1.1s-0.9-0.4-1.5-0.4
				s-1,0.1-1.4,0.4c-0.4,0.3-0.8,0.6-1.1,1.1c-0.3,0.5-0.4,1.1-0.4,1.7c0,0.7,0.1,1.2,0.4,1.8s0.6,0.9,1.1,1.2
				c0.4,0.3,0.9,0.4,1.4,0.4c0.5,0,1-0.1,1.5-0.4s0.8-0.6,1.1-1.1c0.3-0.5,0.4-1.1,0.4-1.8S420.1,274.2,419.8,273.7z"/>
			<path class="st2" d="M425.7,272.4c0.4-0.9,1.1-1.5,1.8-2c0.8-0.5,1.6-0.7,2.6-0.7c0.8,0,1.6,0.2,2.2,0.5c0.6,0.3,1.1,0.8,1.5,1.3
				v-1.6h2.8V281h-2.8v-1.6c-0.4,0.5-0.9,1-1.5,1.3s-1.4,0.5-2.2,0.5c-0.9,0-1.8-0.2-2.6-0.7c-0.8-0.5-1.4-1.2-1.8-2
				c-0.4-0.9-0.7-1.9-0.7-3C425.1,274.3,425.3,273.3,425.7,272.4z M433.4,273.7c-0.3-0.5-0.6-0.9-1.1-1.1s-0.9-0.4-1.5-0.4
				c-0.5,0-1,0.1-1.4,0.4s-0.8,0.6-1.1,1.1c-0.3,0.5-0.4,1.1-0.4,1.7c0,0.7,0.1,1.2,0.4,1.8c0.3,0.5,0.6,0.9,1.1,1.2
				s0.9,0.4,1.4,0.4c0.5,0,1-0.1,1.5-0.4s0.8-0.6,1.1-1.1c0.3-0.5,0.4-1.1,0.4-1.8S433.7,274.2,433.4,273.7z"/>
			<path class="st2" d="M439.3,272.4c0.4-0.9,1.1-1.5,1.8-2s1.6-0.7,2.6-0.7c0.7,0,1.4,0.2,2.1,0.5s1.2,0.7,1.6,1.2v-5.3h2.8V281
				h-2.8v-1.6c-0.3,0.5-0.8,1-1.5,1.3c-0.6,0.3-1.4,0.5-2.2,0.5c-0.9,0-1.8-0.2-2.6-0.7c-0.8-0.5-1.4-1.2-1.8-2
				c-0.4-0.9-0.7-1.9-0.7-3C438.6,274.3,438.9,273.3,439.3,272.4z M447,273.7c-0.3-0.5-0.6-0.9-1.1-1.1s-0.9-0.4-1.5-0.4
				c-0.5,0-1,0.1-1.4,0.4s-0.8,0.6-1.1,1.1c-0.3,0.5-0.4,1.1-0.4,1.7c0,0.7,0.1,1.2,0.4,1.8s0.6,0.9,1.1,1.2s0.9,0.4,1.4,0.4
				c0.5,0,1-0.1,1.5-0.4s0.8-0.6,1.1-1.1c0.3-0.5,0.4-1.1,0.4-1.8S447.2,274.2,447,273.7z"/>
			<path class="st2" d="M463.1,276.3H455c0.1,0.8,0.3,1.4,0.8,1.9c0.5,0.5,1.1,0.7,1.8,0.7c1,0,1.8-0.4,2.2-1.3h3
				c-0.3,1.1-0.9,1.9-1.8,2.6s-2,1-3.3,1c-1.1,0-2-0.2-2.9-0.7c-0.8-0.5-1.5-1.1-2-2c-0.5-0.9-0.7-1.9-0.7-3c0-1.1,0.2-2.2,0.7-3
				c0.5-0.9,1.1-1.5,2-2c0.8-0.5,1.8-0.7,2.9-0.7c1.1,0,2,0.2,2.8,0.7c0.8,0.5,1.5,1.1,1.9,1.9c0.5,0.8,0.7,1.8,0.7,2.9
				C463.2,275.6,463.2,276,463.1,276.3z M460.3,274.4c0-0.7-0.3-1.3-0.8-1.7c-0.5-0.4-1.1-0.7-1.9-0.7c-0.7,0-1.3,0.2-1.8,0.6
				s-0.8,1-0.9,1.8H460.3z"/>
		</g>
	</g>
	<g transform="matrix(1, 0, 0, 1, 141, 214)" class="st4">
		<path id="Caminho_893-2_00000003826112633494231820000005793066324034109572_" class="st2" d="M362,52.8l-24.5,46.8h-57.7
			l24.5-46.8L279.8,6h57.7L362,52.8z"/>
	</g>
	<path id="Caminho_894" class="st3" d="M487,267.2l-19.5,37.2h-9.6l19.5-37.2L457.8,230h9.6L487,267.2z"/>
	<path id="Caminho_895" class="st0" d="M469.5,267.2L450,304.5h-9.6l19.5-37.2L440.4,230h9.6L469.5,267.2z"/>
</g>
</svg>
