<svg id="img-slide-66" xmlns="http://www.w3.org/2000/svg" xmlns:xlink="http://www.w3.org/1999/xlink" width="250.333" height="246.854" viewBox="0 0 250.333 246.854">
  <defs>
    <clipPath id="clip-path">
      <rect id="Retângulo_1122" data-name="Retângulo 1122" width="250.333" height="246.854" fill="none"/>
    </clipPath>
    <clipPath id="clip-path-3">
      <rect id="Retângulo_1096" data-name="Retângulo 1096" width="64.991" height="16.212" fill="none"/>
    </clipPath>
    <clipPath id="clip-path-4">
      <rect id="Retângulo_1097" data-name="Retângulo 1097" width="41.607" height="21.156" fill="none"/>
    </clipPath>
    <clipPath id="clip-path-5">
      <rect id="Retângulo_1098" data-name="Retângulo 1098" width="11.028" height="21.156" fill="none"/>
    </clipPath>
    <clipPath id="clip-path-6">
      <rect id="Retângulo_1099" data-name="Retângulo 1099" width="5.814" height="21.156" fill="none"/>
    </clipPath>
    <clipPath id="clip-path-7">
      <rect id="Retângulo_1100" data-name="Retângulo 1100" width="50.538" height="19.021" fill="none"/>
    </clipPath>
    <clipPath id="clip-path-8">
      <rect id="Retângulo_1101" data-name="Retângulo 1101" width="47.732" height="14.576" fill="none"/>
    </clipPath>
    <clipPath id="clip-path-9">
      <rect id="Retângulo_1102" data-name="Retângulo 1102" width="30.005" height="13.859" fill="none"/>
    </clipPath>
    <clipPath id="clip-path-10">
      <rect id="Retângulo_1103" data-name="Retângulo 1103" width="114.119" height="24.616" fill="none"/>
    </clipPath>
    <clipPath id="clip-path-11">
      <rect id="Retângulo_1104" data-name="Retângulo 1104" width="68.661" height="18.863" fill="none"/>
    </clipPath>
    <clipPath id="clip-path-12">
      <rect id="Retângulo_1105" data-name="Retângulo 1105" width="18.934" height="24.616" fill="none"/>
    </clipPath>
    <clipPath id="clip-path-13">
      <rect id="Retângulo_1106" data-name="Retângulo 1106" width="120.168" height="29.141" fill="none"/>
    </clipPath>
    <clipPath id="clip-path-14">
      <rect id="Retângulo_1107" data-name="Retângulo 1107" width="71.861" height="22.328" fill="none"/>
    </clipPath>
    <clipPath id="clip-path-15">
      <rect id="Retângulo_1108" data-name="Retângulo 1108" width="11.233" height="29.123" fill="none"/>
    </clipPath>
    <clipPath id="clip-path-17">
      <rect id="Retângulo_1111" data-name="Retângulo 1111" width="73.627" height="22.131" fill="none"/>
    </clipPath>
    <clipPath id="clip-path-18">
      <rect id="Retângulo_1112" data-name="Retângulo 1112" width="70.663" height="16.96" fill="none"/>
    </clipPath>
    <clipPath id="clip-path-19">
      <rect id="Retângulo_1113" data-name="Retângulo 1113" width="31.7" height="16.126" fill="none"/>
    </clipPath>
    <clipPath id="clip-path-21">
      <rect id="Retângulo_1115" data-name="Retângulo 1115" width="10.204" height="11.427" fill="none"/>
    </clipPath>
    <clipPath id="clip-path-22">
      <rect id="Retângulo_1116" data-name="Retângulo 1116" width="8.886" height="5.176" fill="none"/>
    </clipPath>
    <clipPath id="clip-path-23">
      <rect id="Retângulo_1117" data-name="Retângulo 1117" width="9.285" height="4.854" fill="none"/>
    </clipPath>
    <clipPath id="clip-path-24">
      <rect id="Retângulo_1118" data-name="Retângulo 1118" width="4.472" height="6.602" fill="none"/>
    </clipPath>
    <clipPath id="clip-path-25">
      <rect id="Retângulo_1119" data-name="Retângulo 1119" width="2.521" height="0.391" fill="none"/>
    </clipPath>
    <clipPath id="clip-path-26">
      <rect id="Retângulo_1120" data-name="Retângulo 1120" width="2.227" height="0.571" fill="none"/>
    </clipPath>
  </defs>
  <g id="Grupo_1602" data-name="Grupo 1602" clip-path="url(#clip-path)">
    <g id="Grupo_1581" data-name="Grupo 1581">
      <g id="Grupo_1580" data-name="Grupo 1580" clip-path="url(#clip-path)">
        <path id="Caminho_1912" data-name="Caminho 1912" d="M112.919,321.444a1.518,1.518,0,0,1-1.464,1.953H7.405c-3.251,0-3.251-21.156,0-21.156H111.456a1.518,1.518,0,0,1,1.464,1.952c-1.267,4.029-1.267,13.223,0,17.251" transform="translate(-1.258 -76.543)" fill="#e9a527"/>
        <g id="Grupo_1531" data-name="Grupo 1531" transform="translate(46.524 228.17)" opacity="0.8">
          <g id="Grupo_1530" data-name="Grupo 1530">
            <g id="Grupo_1529" data-name="Grupo 1529" clip-path="url(#clip-path-3)">
              <path id="Caminho_1913" data-name="Caminho 1913" d="M127.293,305.551H64.171c-2.492,0-2.492,16.212,0,16.212h63.122a41.507,41.507,0,0,1,0-16.212" transform="translate(-62.303 -305.551)" fill="#fff"/>
            </g>
          </g>
        </g>
        <g id="Grupo_1534" data-name="Grupo 1534" transform="translate(3.709 225.698)" opacity="0.2">
          <g id="Grupo_1533" data-name="Grupo 1533">
            <g id="Grupo_1532" data-name="Grupo 1532" clip-path="url(#clip-path-4)">
              <path id="Caminho_1914" data-name="Caminho 1914" d="M46.5,321.444A1.518,1.518,0,0,1,45.04,323.4H7.4c-3.251,0-3.251-21.156,0-21.156H45.04a1.518,1.518,0,0,1,1.464,1.952c-1.267,4.029-1.267,13.223,0,17.251" transform="translate(-4.967 -302.241)"/>
            </g>
          </g>
        </g>
        <g id="Grupo_1537" data-name="Grupo 1537" transform="translate(11.157 225.698)" opacity="0.8">
          <g id="Grupo_1536" data-name="Grupo 1536">
            <g id="Grupo_1535" data-name="Grupo 1535" clip-path="url(#clip-path-5)">
              <path id="Caminho_1915" data-name="Caminho 1915" d="M25.969,302.24H17.378c-3.251,0-3.251,21.156,0,21.156h8.591c-3.251,0-3.251-21.156,0-21.156" transform="translate(-14.941 -302.24)" fill="#fff"/>
            </g>
          </g>
        </g>
        <g id="Grupo_1540" data-name="Grupo 1540" transform="translate(23.146 225.698)" opacity="0.8">
          <g id="Grupo_1539" data-name="Grupo 1539">
            <g id="Grupo_1538" data-name="Grupo 1538" clip-path="url(#clip-path-6)">
              <path id="Caminho_1916" data-name="Caminho 1916" d="M36.81,302.24H33.434c-3.25,0-3.25,21.156,0,21.156H36.81c-3.251,0-3.251-21.156,0-21.156" transform="translate(-30.996 -302.24)" fill="#fff"/>
            </g>
          </g>
        </g>
        <path id="Caminho_1917" data-name="Caminho 1917" d="M.081,294.035c-.358.872.525,1.756,1.718,1.756H95.356c3.814,0,3.814-19.02,0-19.02H1.8c-1.193,0-2.075.883-1.718,1.755,1.487,3.622,1.487,11.888,0,15.51" transform="translate(0 -70.092)" fill="#50878f"/>
        <g id="Grupo_1543" data-name="Grupo 1543" transform="translate(0 206.677)" opacity="0.2">
          <g id="Grupo_1542" data-name="Grupo 1542">
            <g id="Grupo_1541" data-name="Grupo 1541" clip-path="url(#clip-path-7)">
              <path id="Caminho_1918" data-name="Caminho 1918" d="M.081,294.035c-.358.872.525,1.756,1.718,1.756h45.88c3.813,0,3.813-19.02,0-19.02H1.8c-1.193,0-2.075.883-1.718,1.755,1.487,3.622,1.487,11.888,0,15.51" transform="translate(0 -276.77)"/>
            </g>
          </g>
        </g>
        <g id="Grupo_1546" data-name="Grupo 1546" transform="translate(0.252 208.9)" opacity="0.8">
          <g id="Grupo_1545" data-name="Grupo 1545">
            <g id="Grupo_1544" data-name="Grupo 1544" clip-path="url(#clip-path-8)">
              <path id="Caminho_1919" data-name="Caminho 1919" d="M.337,279.745h45.54c2.924,0,2.924,14.576,0,14.576H.337c1.251-3.658,1.251-10.918,0-14.576" transform="translate(-0.337 -279.745)" fill="#fff"/>
            </g>
          </g>
        </g>
        <g id="Grupo_1549" data-name="Grupo 1549" transform="translate(60.872 209.258)" opacity="0.2">
          <g id="Grupo_1548" data-name="Grupo 1548">
            <g id="Grupo_1547" data-name="Grupo 1547" clip-path="url(#clip-path-9)">
              <path id="Caminho_1920" data-name="Caminho 1920" d="M81.572,281.886c-.283-.842.536-1.661,1.671-1.661h26.194c2.779,0,2.779,13.86,0,13.86H83.243c-1.135,0-1.954-.818-1.671-1.661a20.974,20.974,0,0,0,0-10.538" transform="translate(-81.516 -280.225)" fill="#fff"/>
            </g>
          </g>
        </g>
        <path id="Caminho_1921" data-name="Caminho 1921" d="M296.456,280.949a1.741,1.741,0,0,1-1.547,2.272H184.985c-3.434,0-3.434-24.616,0-24.616H294.91a1.741,1.741,0,0,1,1.547,2.272c-1.339,4.687-1.339,15.385,0,20.073" transform="translate(-46.195 -65.492)" fill="#e9a527"/>
        <g id="Grupo_1552" data-name="Grupo 1552" transform="translate(136.215 193.113)" opacity="0.5">
          <g id="Grupo_1551" data-name="Grupo 1551">
            <g id="Grupo_1550" data-name="Grupo 1550" clip-path="url(#clip-path-10)">
              <path id="Caminho_1922" data-name="Caminho 1922" d="M296.456,280.949a1.741,1.741,0,0,1-1.547,2.272H184.985c-3.434,0-3.434-24.616,0-24.616H294.91a1.741,1.741,0,0,1,1.547,2.272c-1.339,4.687-1.339,15.385,0,20.073" transform="translate(-182.41 -258.605)" fill="#e9a527"/>
            </g>
          </g>
        </g>
        <g id="Grupo_1555" data-name="Grupo 1555" transform="translate(181.447 195.989)" opacity="0.8">
          <g id="Grupo_1554" data-name="Grupo 1554">
            <g id="Grupo_1553" data-name="Grupo 1553" clip-path="url(#clip-path-11)">
              <path id="Caminho_1923" data-name="Caminho 1923" d="M311.643,262.457H244.956c-2.632,0-2.632,18.864,0,18.864h66.686a53.087,53.087,0,0,1,0-18.864" transform="translate(-242.982 -262.457)" fill="#fff"/>
            </g>
          </g>
        </g>
        <path id="Caminho_1924" data-name="Caminho 1924" d="M226.293,280.949a1.741,1.741,0,0,1-1.547,2.272H184.985c-3.434,0-3.434-24.616,0-24.616h39.761a1.741,1.741,0,0,1,1.547,2.272c-1.338,4.687-1.338,15.385,0,20.073" transform="translate(-46.195 -65.492)" fill="#e9a527"/>
        <g id="Grupo_1558" data-name="Grupo 1558" transform="translate(145.108 193.113)" opacity="0.5">
          <g id="Grupo_1557" data-name="Grupo 1557">
            <g id="Grupo_1556" data-name="Grupo 1556" clip-path="url(#clip-path-12)">
              <path id="Caminho_1925" data-name="Caminho 1925" d="M213.174,260.429a1.327,1.327,0,0,0-1.12-1.824H196.895c-3.434,0-3.434,24.617,0,24.617h15.159a1.327,1.327,0,0,0,1.12-1.824c-1.526-4.559-1.526-16.411,0-20.969" transform="translate(-194.319 -258.605)" fill="#fff"/>
            </g>
          </g>
        </g>
        <path id="Caminho_1926" data-name="Caminho 1926" d="M283.856,317.98a2.13,2.13,0,0,1-2.195,2.688l-114.213.02c-4.873,0-4.877-29.121,0-29.122l114.213-.019a2.13,2.13,0,0,1,2.2,2.687c-1.9,5.546-1.9,18.2,0,23.747" transform="translate(-41.48 -73.834)" fill="#82acc9"/>
        <g id="Grupo_1561" data-name="Grupo 1561" transform="translate(122.311 217.713)" opacity="0.2">
          <g id="Grupo_1560" data-name="Grupo 1560">
            <g id="Grupo_1559" data-name="Grupo 1559" clip-path="url(#clip-path-13)">
              <path id="Caminho_1927" data-name="Caminho 1927" d="M283.856,317.98a2.13,2.13,0,0,1-2.195,2.688l-114.213.02c-4.873,0-4.877-29.121,0-29.122l114.213-.019a2.13,2.13,0,0,1,2.2,2.687c-1.9,5.546-1.9,18.2,0,23.747" transform="translate(-163.791 -291.547)" fill="#82acc9"/>
            </g>
          </g>
        </g>
        <g id="Grupo_1564" data-name="Grupo 1564" transform="translate(170.295 221.115)" opacity="0.8">
          <g id="Grupo_1563" data-name="Grupo 1563">
            <g id="Grupo_1562" data-name="Grupo 1562" clip-path="url(#clip-path-14)">
              <path id="Caminho_1928" data-name="Caminho 1928" d="M299.907,296.1l-69.058.012c-3.735,0-3.732,22.317,0,22.316l69.057-.012c-1.6-5.6-1.6-16.716,0-22.316" transform="translate(-228.049 -296.103)" fill="#fff"/>
            </g>
          </g>
        </g>
        <path id="Caminho_1929" data-name="Caminho 1929" d="M209.862,318a2.13,2.13,0,0,1-2.195,2.688l-40.22.007c-4.873,0-4.878-29.121,0-29.122l40.22-.007a2.13,2.13,0,0,1,2.2,2.687c-1.9,5.546-1.9,18.2,0,23.747" transform="translate(-41.48 -73.839)" fill="#506d8f"/>
        <g id="Grupo_1567" data-name="Grupo 1567" transform="translate(133.163 217.729)" opacity="0.5">
          <g id="Grupo_1566" data-name="Grupo 1566">
            <g id="Grupo_1565" data-name="Grupo 1565" clip-path="url(#clip-path-15)">
              <path id="Caminho_1930" data-name="Caminho 1930" d="M189.45,292.581a.674.674,0,0,0-.639-1.011h-6.833c-4.873,0-4.869,29.122,0,29.122h6.833a.675.675,0,0,0,.639-1.012c-2.937-4.491-2.94-22.606,0-27.1" transform="translate(-178.324 -291.57)" fill="#fff"/>
            </g>
          </g>
        </g>
        <g id="Grupo_1570" data-name="Grupo 1570" transform="translate(143.825 217.727)" opacity="0.5">
          <g id="Grupo_1569" data-name="Grupo 1569">
            <g id="Grupo_1568" data-name="Grupo 1568" clip-path="url(#clip-path-15)">
              <path id="Caminho_1931" data-name="Caminho 1931" d="M203.728,292.578a.675.675,0,0,0-.639-1.011h-6.834c-4.873,0-4.869,29.122,0,29.122l6.833,0a.675.675,0,0,0,.638-1.012c-2.937-4.491-2.94-22.606,0-27.1" transform="translate(-192.602 -291.567)" fill="#fff"/>
            </g>
          </g>
        </g>
        <path id="Caminho_1932" data-name="Caminho 1932" d="M322.581,235.7a18.209,18.209,0,0,0-1.442-6.022l.671-.329a18.918,18.918,0,0,1,1.513,6.276Z" transform="translate(-81.329 -58.083)" fill="#50878f"/>
        <rect id="Retângulo_1110" data-name="Retângulo 1110" width="18.549" height="0.747" transform="translate(218.019 168.368)" fill="#50878f"/>
        <path id="Caminho_1933" data-name="Caminho 1933" d="M154.879,249.057c-.378,1.015.554,2.042,1.815,2.042H275.77c4.029,0,4.029-22.131,0-22.131H156.694c-1.261,0-2.192,1.028-1.815,2.042,1.57,4.215,1.57,13.832,0,18.047" transform="translate(-39.202 -57.986)" fill="#50878f"/>
        <g id="Grupo_1573" data-name="Grupo 1573" transform="translate(115.593 170.982)" opacity="0.2">
          <g id="Grupo_1572" data-name="Grupo 1572">
            <g id="Grupo_1571" data-name="Grupo 1571" clip-path="url(#clip-path-17)">
              <path id="Caminho_1934" data-name="Caminho 1934" d="M154.879,249.057c-.378,1.015.554,2.042,1.815,2.042H225.4c4.029,0,4.029-22.131,0-22.131H156.694c-1.261,0-2.192,1.028-1.815,2.042,1.57,4.215,1.57,13.832,0,18.047" transform="translate(-154.795 -228.968)"/>
            </g>
          </g>
        </g>
        <g id="Grupo_1576" data-name="Grupo 1576" transform="translate(115.859 173.567)" opacity="0.8">
          <g id="Grupo_1575" data-name="Grupo 1575">
            <g id="Grupo_1574" data-name="Grupo 1574" clip-path="url(#clip-path-18)">
              <path id="Caminho_1935" data-name="Caminho 1935" d="M155.151,232.431H223.5c3.088,0,3.088,16.959,0,16.959H155.151c1.321-4.255,1.321-12.7,0-16.959" transform="translate(-155.151 -232.431)" fill="#fff"/>
            </g>
          </g>
        </g>
        <g id="Grupo_1579" data-name="Grupo 1579" transform="translate(200.137 173.984)" opacity="0.2">
          <g id="Grupo_1578" data-name="Grupo 1578">
            <g id="Grupo_1577" data-name="Grupo 1577" clip-path="url(#clip-path-19)">
              <path id="Caminho_1936" data-name="Caminho 1936" d="M268.071,234.921a1.618,1.618,0,0,1,1.765-1.932h27.673c2.935,0,2.935,16.126,0,16.126H269.836a1.619,1.619,0,0,1-1.765-1.933,26.82,26.82,0,0,0,0-12.262" transform="translate(-268.011 -232.989)" fill="#fff"/>
            </g>
          </g>
        </g>
      </g>
    </g>
    <g id="Grupo_1601" data-name="Grupo 1601">
      <g id="Grupo_1600" data-name="Grupo 1600" clip-path="url(#clip-path)">
        <path id="Caminho_1937" data-name="Caminho 1937" d="M130.777,9.195c-3.367,3.611-11.587,0-12.849,9.933-1.358,10.7,3.8,15.854-2.858,18.64-10.437,4.368-17.958,21.827-3.406,28.406s45.435-.314,41.952-13.664-2.79-20.5,1.316-26.793c5.418-8.305,4.255-18.987-.155-22.857-6.874-6.032-16.359-1.857-24,6.335" transform="translate(-26.229 0)" fill="#263238"/>
        <path id="Caminho_1938" data-name="Caminho 1938" d="M163.979,53.146a.232.232,0,0,1-.031-.462c2.882-.4,4.6-1.107,5.4-2.24,1-1.414.573-3.511.03-6.166-.886-4.327-2.1-10.252,1.782-17.732,4.708-9.069,3.025-19.017-1.429-22.273a.232.232,0,0,1,.274-.375c4.606,3.367,6.382,13.583,1.567,22.861-3.807,7.334-2.612,13.166-1.741,17.425.567,2.765,1.013,4.949-.1,6.528-.881,1.245-2.7,2.017-5.717,2.431l-.031,0" transform="translate(-41.469 -0.976)" fill="#263238"/>
        <path id="Caminho_1939" data-name="Caminho 1939" d="M113.1,44.184a11.479,11.479,0,0,1-1.411-.093.232.232,0,1,1,.057-.461c2.126.263,3.661-.053,4.7-.965,1.945-1.707,1.968-5.285,2-9.428.031-4.689.066-10,3.1-13.622a.232.232,0,1,1,.355.3c-2.931,3.49-2.965,8.716-3,13.326-.028,4.255-.052,7.929-2.153,9.774a5.316,5.316,0,0,1-3.652,1.169" transform="translate(-28.232 -4.947)" fill="#263238"/>
        <path id="Caminho_1940" data-name="Caminho 1940" d="M206.406,226.688c-4.977-.063-6.938-.375-9.231-.336-2.4.04-2.835.438-5.263.336-1.608-.067-1.622-1.985-1-3.3.484-1.028,1.08-2.064,1.635-3.351l6.32.458c.849,2.41,5.08,3.44,8.778,4.292,1.514.349.754,1.925-1.238,1.9" transform="translate(-48.252 -55.724)" fill="#e9a527"/>
        <path id="Caminho_1941" data-name="Caminho 1941" d="M160.388,105.71s16.715,14.375,33.621,29.622c7.138,6.456-7.835,55.708-7.835,55.708-.317,1.05-5.881-.449-6.743-1.279,0,0-.849-38.228,2.77-45.925-37.458-9.472-43.315-27.862-43.315-27.862l2.682-11.407Z" transform="translate(-35.173 -26.482)" fill="#263238"/>
        <g id="Grupo_1584" data-name="Grupo 1584" transform="translate(106.2 90.427)" opacity="0.2">
          <g id="Grupo_1583" data-name="Grupo 1583">
            <g id="Grupo_1582" data-name="Grupo 1582" clip-path="url(#clip-path-21)">
              <path id="Caminho_1942" data-name="Caminho 1942" d="M142.217,124.691a39.753,39.753,0,0,0,7.385,7.83c3.74-4.371,2.682-11.427,2.682-11.427Z" transform="translate(-142.217 -121.094)"/>
            </g>
          </g>
        </g>
        <path id="Caminho_1943" data-name="Caminho 1943" d="M200.925,216.985c-.1.742-.285,2.063-.382,3.045a.63.63,0,0,1-.64.563,39.747,39.747,0,0,1-7.394-1.284.549.549,0,0,1-.411-.529l-.052-2.726a.631.631,0,0,1,.7-.633l7.7.93a.55.55,0,0,1,.484.633" transform="translate(-48.636 -54.555)" fill="#263238"/>
        <g id="Grupo_1587" data-name="Grupo 1587" transform="translate(143.409 160.863)" opacity="0.3">
          <g id="Grupo_1586" data-name="Grupo 1586">
            <g id="Grupo_1585" data-name="Grupo 1585" clip-path="url(#clip-path-22)">
              <path id="Caminho_1944" data-name="Caminho 1944" d="M200.925,216.985c-.1.742-.285,2.063-.382,3.045a.63.63,0,0,1-.64.563,39.747,39.747,0,0,1-7.394-1.284.549.549,0,0,1-.411-.529l-.052-2.726a.631.631,0,0,1,.7-.633l7.7.93a.55.55,0,0,1,.484.633" transform="translate(-192.045 -215.417)" fill="#fff"/>
            </g>
          </g>
        </g>
        <path id="Caminho_1945" data-name="Caminho 1945" d="M108.486,273.526c-5.064,0-6.754-1.9-9.548-2.422-2.391-.453-3.03-.243-4.956-.581-1.61-.281-1.737-1.381-.771-3.018a22.959,22.959,0,0,0,1.639-3.543l7.676.509c.8,2.051,2.645,6.229,5.458,6.741,2.685.488,2.522,2.314.5,2.314" transform="translate(-23.451 -66.849)" fill="#e9a527"/>
        <path id="Caminho_1946" data-name="Caminho 1946" d="M148.238,105.5s-17.664,31.406-24.769,50.827c-7.462,20.4-19.357,53.8-20.215,67.617-1.267.607-5.433.373-7.676-.509,0,0-2.076-47.781,12.3-66.939,3.425-41,9.116-47.562,15.163-52.555Z" transform="translate(-24.179 -26.324)" fill="#263238"/>
        <path id="Caminho_1947" data-name="Caminho 1947" d="M103.986,260.415a19.647,19.647,0,0,0-.077,2.845.632.632,0,0,1-.581.663,28.651,28.651,0,0,1-8.113-.975.545.545,0,0,1-.414-.518l-.1-2.673a.63.63,0,0,1,.677-.641l8.1.694a.551.551,0,0,1,.51.6" transform="translate(-23.983 -65.621)" fill="#263238"/>
        <g id="Grupo_1590" data-name="Grupo 1590" transform="translate(70.719 193.494)" opacity="0.3">
          <g id="Grupo_1589" data-name="Grupo 1589">
            <g id="Grupo_1588" data-name="Grupo 1588" clip-path="url(#clip-path-23)">
              <path id="Caminho_1948" data-name="Caminho 1948" d="M103.986,260.415a19.647,19.647,0,0,0-.077,2.845.632.632,0,0,1-.581.663,28.651,28.651,0,0,1-8.113-.975.545.545,0,0,1-.414-.518l-.1-2.673a.63.63,0,0,1,.677-.641l8.1.694a.551.551,0,0,1,.51.6" transform="translate(-94.703 -259.115)" fill="#fff"/>
            </g>
          </g>
        </g>
        <path id="Caminho_1949" data-name="Caminho 1949" d="M169.727,64c.756,1.417,1.552,2.974,2.375,4.444.813,1.492,1.65,2.97,2.486,4.443,1.693,2.934,3.451,5.81,5.34,8.521l-1.013-.9a9.057,9.057,0,0,0,2.449,1.213,21.391,21.391,0,0,0,3.24.8c1.148.212,2.349.352,3.565.467s2.492.179,3.66.249l.151.008a2.093,2.093,0,0,1,.545,4.074,28.646,28.646,0,0,1-4.082,1.027,30.6,30.6,0,0,1-4.215.454,22.707,22.707,0,0,1-4.461-.264,14.838,14.838,0,0,1-4.779-1.585,2.877,2.877,0,0,1-.817-.668l-.2-.235c-1.19-1.423-2.345-2.865-3.405-4.353s-2.1-2.984-3.063-4.519-1.9-3.083-2.781-4.659c-.87-1.6-1.717-3.14-2.517-4.864a4.18,4.18,0,0,1,7.476-3.736Z" transform="translate(-40.981 -15.63)" fill="#ffb573"/>
        <path id="Caminho_1950" data-name="Caminho 1950" d="M165.456,56.713c4.876,1.607,5.662,3.792,8.334,11.875-1.775,4.849-8.974,7.3-8.974,7.3s-8.464-13.813.64-19.176" transform="translate(-40.833 -14.363)" fill="#e9a527"/>
        <path id="Caminho_1951" data-name="Caminho 1951" d="M164.388,66.181a107.458,107.458,0,0,1-2.4,12.124c-1.118,5.319-1.137,15.709-2.928,16.231-3.443,1.7-12.062,1.045-27.1-3.6.476-7.765,1.382-13.036-1.2-30.859a6.376,6.376,0,0,1,6.5-7.5c1.088.034,2.239.095,3.415.193a87.06,87.06,0,0,1,12.3,1.636c1.322.3,2.685.652,3.986,1.012a10.29,10.29,0,0,1,7.427,10.761" transform="translate(-33.095 -13.315)" fill="#e9a527"/>
        <path id="Caminho_1952" data-name="Caminho 1952" d="M103.326,108.5l1.514-1.367a2.372,2.372,0,0,0,.768-2.033l-.411-3.561a4.426,4.426,0,0,0-2.264-3.37l-.777-.427c-2.666,2.095-4,6.323-4,6.323l-.515,1.163a1.975,1.975,0,0,0,.951,2.643l2.292,1.05a2.273,2.273,0,0,0,2.447-.42" transform="translate(-24.679 -24.754)" fill="#ffb573"/>
        <path id="Caminho_1953" data-name="Caminho 1953" d="M207.234,87.834l-1.91-.715a2.373,2.373,0,0,0-2.158.255l-2.973,2a4.424,4.424,0,0,0-1.951,3.56l-.022.886c3.087,1.4,7.456.645,7.456.645l1.269-.078a1.974,1.974,0,0,0,1.909-2.06l-.122-2.517a2.273,2.273,0,0,0-1.5-1.98" transform="translate(-50.2 -22.025)" fill="#ffb573"/>
        <path id="Caminho_1954" data-name="Caminho 1954" d="M127.967,63.111l-.961.436-1.039.482c-.7.33-1.387.682-2.074,1.041-1.378.715-2.725,1.485-4.048,2.281s-2.6,1.654-3.833,2.546-2.39,1.859-3.516,2.849l.5-.627a11.846,11.846,0,0,0-.952,1.694c-.329.675-.641,1.412-.939,2.168-.593,1.513-1.175,3.094-1.712,4.7-.556,1.6-1.084,3.23-1.618,4.864l-1.61,4.9,0,.011a2.089,2.089,0,0,1-4.072-.742c.078-1.8.246-3.545.444-5.311s.46-3.519.765-5.282c.323-1.76.668-3.528,1.153-5.318.24-.9.5-1.8.829-2.732a17.261,17.261,0,0,1,1.334-2.981,2.361,2.361,0,0,1,.322-.441l.174-.187a41.321,41.321,0,0,1,3.949-3.815,45.318,45.318,0,0,1,4.314-3.263,50.976,50.976,0,0,1,4.594-2.768c.792-.412,1.59-.815,2.4-1.2.408-.189.815-.384,1.236-.561s.818-.34,1.343-.541a4.177,4.177,0,0,1,3.232,7.7Z" transform="translate(-25.852 -13.939)" fill="#ffb573"/>
        <path id="Caminho_1955" data-name="Caminho 1955" d="M141.367,54.56c-3.66-2.623-5.882-2.906-14.739.938-1.054,5.573,2.394,13.745,2.394,13.745s11.762-6.136,12.345-14.683" transform="translate(-32.018 -13.321)" fill="#e9a527"/>
        <path id="Caminho_1956" data-name="Caminho 1956" d="M146.992,34.439c.545,4.1.9,11.531-2.029,13.831,0,0,3.826-.064,11.133,5.918,2.745-3,1.172-4.282,1.172-4.282-4.353-1.652-4.048-4.945-3.1-7.949Z" transform="translate(-36.712 -8.722)" fill="#ffb573"/>
        <path id="Caminho_1957" data-name="Caminho 1957" d="M153.972,57.232c-2.672.025-4.02,3.876-4.02,3.876s-6.4-5.107-7.285-8.7a26.244,26.244,0,0,0,2.494-1.154s7.48,4.26,8.81,5.978" transform="translate(-36.131 -12.98)" fill="#3f5677"/>
        <path id="Caminho_1958" data-name="Caminho 1958" d="M160.9,57.955s2.021.727,2.682,3.762c1.367-5.7-1.3-6.59-1.3-6.59a3.383,3.383,0,0,0-2.325-.658,2.833,2.833,0,0,1,.943,3.486" transform="translate(-40.509 -13.794)" fill="#3f5677"/>
        <g id="Grupo_1593" data-name="Grupo 1593" transform="translate(112.981 28.784)" opacity="0.2">
          <g id="Grupo_1592" data-name="Grupo 1592">
            <g id="Grupo_1591" data-name="Grupo 1591" clip-path="url(#clip-path-24)">
              <path id="Caminho_1959" data-name="Caminho 1959" d="M151.522,38.546l4.248,4.447a12.4,12.4,0,0,0-.507,2.155c-1.673-.47-3.882-2.648-3.957-4.456a5.96,5.96,0,0,1,.216-2.146" transform="translate(-151.297 -38.546)"/>
            </g>
          </g>
        </g>
        <path id="Caminho_1960" data-name="Caminho 1960" d="M141.439,22.87c1.528,6.382,2.039,9.108,5.867,12.016,5.757,4.374,13.232,1.542,13.635-5.061.362-5.943-2.2-15.381-8.94-17.18A8.4,8.4,0,0,0,141.439,22.87" transform="translate(-35.754 -3.118)" fill="#ffb573"/>
        <path id="Caminho_1961" data-name="Caminho 1961" d="M141.411,26.607c2.348-1.146,4.829-6.8,1.488-9.472a11.127,11.127,0,0,0,8.832-2.484c3.808-2.948,9.422,4.431,7.575.077-2.66-6.269-10.671-7.843-17.9-2.632s-6.76,11.554,0,14.511" transform="translate(-34.484 -2.27)" fill="#263238"/>
        <path id="Caminho_1962" data-name="Caminho 1962" d="M140.494,29.936a.116.116,0,0,1-.046-.223c1.869-.808,9.792-2.494,10.128-2.566a.116.116,0,1,1,.048.227c-.082.018-8.236,1.753-10.083,2.552a.112.112,0,0,1-.046.01" transform="translate(-35.551 -6.875)" fill="#fff"/>
        <g id="Grupo_1596" data-name="Grupo 1596" transform="translate(112.016 20.078)" opacity="0.2">
          <g id="Grupo_1595" data-name="Grupo 1595">
            <g id="Grupo_1594" data-name="Grupo 1594" clip-path="url(#clip-path-25)">
              <path id="Caminho_1963" data-name="Caminho 1963" d="M152.526,27.186a3.3,3.3,0,0,0-2.521-.061,6.533,6.533,0,0,0,2.521.061" transform="translate(-150.005 -26.887)"/>
            </g>
          </g>
        </g>
        <g id="Grupo_1599" data-name="Grupo 1599" transform="translate(112.256 20.922)" opacity="0.2">
          <g id="Grupo_1598" data-name="Grupo 1598">
            <g id="Grupo_1597" data-name="Grupo 1597" clip-path="url(#clip-path-26)">
              <path id="Caminho_1964" data-name="Caminho 1964" d="M152.553,28.072a2.72,2.72,0,0,0-2.227.517,5.379,5.379,0,0,0,2.227-.517" transform="translate(-150.326 -28.018)"/>
            </g>
          </g>
        </g>
        <path id="Caminho_1965" data-name="Caminho 1965" d="M155.251,26.854c.105.541.472.945.82.9s.544-.517.439-1.057-.472-.945-.82-.9-.544.516-.439,1.057" transform="translate(-39.31 -6.532)" fill="#263238"/>
        <path id="Caminho_1966" data-name="Caminho 1966" d="M164.036,25.9c.105.541.472.945.82.9s.544-.516.439-1.057-.472-.945-.82-.9-.544.516-.439,1.057" transform="translate(-41.535 -6.291)" fill="#263238"/>
        <path id="Caminho_1967" data-name="Caminho 1967" d="M164.437,24.728l1.2-.532s-.458,1.1-1.2.532" transform="translate(-41.644 -6.128)" fill="#263238"/>
        <path id="Caminho_1968" data-name="Caminho 1968" d="M162.35,27.654a16.168,16.168,0,0,0,2.375,3.363,2.192,2.192,0,0,1-1.857.489Z" transform="translate(-41.115 -7.003)" fill="#ed893e"/>
        <path id="Caminho_1969" data-name="Caminho 1969" d="M158.17,35.481a5.092,5.092,0,0,0,.907-.032.147.147,0,0,0,.125-.178.174.174,0,0,0-.187-.14,4.575,4.575,0,0,1-3.761-1.251.154.154,0,1,0-.229.205,4.816,4.816,0,0,0,3.144,1.4" transform="translate(-39.249 -8.566)" fill="#263238"/>
        <path id="Caminho_1970" data-name="Caminho 1970" d="M139.262,32.694a4.51,4.51,0,0,0,3.119,1.887c1.547.131,1.889-1.677,1.1-3.282-.712-1.445-2.376-3.254-3.755-2.63-1.358.615-1.468,2.667-.461,4.025" transform="translate(-35.099 -7.228)" fill="#ffb573"/>
        <path id="Caminho_1971" data-name="Caminho 1971" d="M152.334,21.143a.3.3,0,0,0,.22-.107,2.357,2.357,0,0,1,2.045-.9.3.3,0,0,0,.342-.269.35.35,0,0,0-.294-.364,2.94,2.94,0,0,0-2.6,1.111.327.327,0,0,0,.06.452.337.337,0,0,0,.227.081" transform="translate(-38.489 -4.934)" fill="#263238"/>
        <path id="Caminho_1972" data-name="Caminho 1972" d="M164.741,20.679a.3.3,0,0,0,.222-.067.318.318,0,0,0,.02-.45,3.371,3.371,0,0,0-2.7-1.269.292.292,0,0,0-.262.347.348.348,0,0,0,.365.29,2.693,2.693,0,0,1,2.131,1.028.348.348,0,0,0,.229.12" transform="translate(-41.03 -4.783)" fill="#263238"/>
        <path id="Caminho_1973" data-name="Caminho 1973" d="M156.921,29.012c-1.574,0-2.946-1.67-3.095-3.815a4.811,4.811,0,0,1,.662-2.885,2.644,2.644,0,0,1,2.03-1.336c1.65-.118,3.1,1.6,3.25,3.809s-1.055,4.108-2.694,4.221c-.052,0-.1.006-.155.006m-.246-7.81c-.046,0-.093,0-.139,0a2.42,2.42,0,0,0-1.85,1.228,4.581,4.581,0,0,0-.627,2.746c.144,2.086,1.479,3.694,3,3.593s2.622-1.888,2.477-3.973c-.14-2.022-1.41-3.6-2.862-3.6" transform="translate(-38.953 -5.31)" fill="#fff"/>
        <path id="Caminho_1974" data-name="Caminho 1974" d="M166.265,28.481c-1.574,0-2.946-1.67-3.095-3.814a4.81,4.81,0,0,1,.662-2.885,2.643,2.643,0,0,1,2.03-1.336c1.638-.116,3.1,1.6,3.251,3.809a4.814,4.814,0,0,1-.663,2.885,2.642,2.642,0,0,1-2.03,1.336c-.052,0-.1.005-.155.005m-.247-7.809c-.046,0-.093,0-.139,0a2.418,2.418,0,0,0-1.85,1.228,4.581,4.581,0,0,0-.627,2.746c.14,2.021,1.41,3.6,2.862,3.6.046,0,.093,0,.14,0a2.418,2.418,0,0,0,1.85-1.228,4.578,4.578,0,0,0,.627-2.745c-.14-2.022-1.41-3.6-2.863-3.6" transform="translate(-41.32 -5.176)" fill="#fff"/>
        <path id="Caminho_1975" data-name="Caminho 1975" d="M162.882,26.347a.118.118,0,0,1-.1-.054c-.286-.454-1.109.032-1.117.037a.116.116,0,0,1-.119-.2c.042-.025,1.025-.609,1.434.037a.117.117,0,0,1-.1.178" transform="translate(-40.898 -6.55)" fill="#fff"/>
        <path id="Caminho_1976" data-name="Caminho 1976" d="M155.652,25.682l1.205-.532s-.459,1.1-1.205.532" transform="translate(-39.419 -6.369)" fill="#263238"/>
      </g>
    </g>
  </g>
</svg>
