<svg xmlns="http://www.w3.org/2000/svg" width="335" height="317" viewBox="0 0 335 317">
  <g id="img-slide-73" transform="translate(-264 -79)">
    <g id="Grupo_1685" data-name="Grupo 1685" transform="translate(264 79)">
      <g id="Grupo_1684" data-name="Grupo 1684" transform="translate(52.834 58.395)">
        <g id="Grupo_1683" data-name="Grupo 1683" transform="translate(0)">
          <path id="Caminho_2086" data-name="Caminho 2086" d="M62.449,245.38l-8.835,8.332L52.437,241.69" transform="translate(-8.937 -35.772)" fill="none" stroke="#108141" stroke-linecap="round" stroke-linejoin="round" stroke-width="3.5"/>
          <path id="Caminho_2087" data-name="Caminho 2087" d="M211.285,241.658l5.194,10.977-11.8-2.6" transform="translate(-30.524 -35.766)" fill="none" stroke="#3e6d93" stroke-linecap="round" stroke-linejoin="round" stroke-width="3.5"/>
          <path id="Caminho_2088" data-name="Caminho 2088" d="M254.075,99.048,266.12,97.5l-6.114,10.417" transform="translate(-37.528 -15.326)" fill="none" stroke="#1b8992" stroke-linecap="round" stroke-linejoin="round" stroke-width="3.5"/>
          <path id="Caminho_2089" data-name="Caminho 2089" d="M131.574,13.684l2.25-11.934,8.018,9.034" transform="translate(-20.158 -1.75)" fill="none" stroke="#294667" stroke-linecap="round" stroke-linejoin="round" stroke-width="3.5"/>
          <path id="Caminho_2090" data-name="Caminho 2090" d="M12.4,104.551,1.75,98.722l11.069-4.834" transform="translate(-1.75 -14.814)" fill="none" stroke="#f5781d" stroke-linecap="round" stroke-linejoin="round" stroke-width="3.5"/>
          <path id="Caminho_2091" data-name="Caminho 2091" d="M35.584,176.453A93.947,93.947,0,0,1,30.641,114.1" transform="translate(-5.398 -17.679)" fill="none" stroke="#108141" stroke-linecap="round" stroke-linejoin="round" stroke-width="2.5"/>
          <path id="Caminho_2092" data-name="Caminho 2092" d="M137.815,248.493A95.427,95.427,0,0,1,76.03,233.7" transform="translate(-12.282 -34.638)" fill="none" stroke="#3e6d93" stroke-linecap="round" stroke-linejoin="round" stroke-width="2.5"/>
          <path id="Caminho_2093" data-name="Caminho 2093" d="M235.94,162.852a93.944,93.944,0,0,1-32.651,53.35" transform="translate(-30.327 -24.592)" fill="none" stroke="#1b8992" stroke-linecap="round" stroke-linejoin="round" stroke-width="2.5"/>
          <path id="Caminho_2094" data-name="Caminho 2094" d="M188.245,47.266a93.954,93.954,0,0,1,40.65,47.54" transform="translate(-28.193 -8.202)" fill="none" stroke="#294667" stroke-linecap="round" stroke-linejoin="round" stroke-width="2.5"/>
          <path id="Caminho_2095" data-name="Caminho 2095" d="M61.912,58.08a93.946,93.946,0,0,1,57.774-23.97" transform="translate(-10.28 -6.337)" fill="none" stroke="#f5781d" stroke-linecap="round" stroke-linejoin="round" stroke-width="2.5"/>
          <path id="Caminho_2096" data-name="Caminho 2096" d="M51.861,235.011a66.253,66.253,0,0,0-1.985-59A81.463,81.463,0,0,1,44.841,109.8" transform="translate(-7.184 -17.071)" fill="none" stroke="#108141" stroke-linecap="round" stroke-linejoin="round" stroke-width="3.5"/>
          <path id="Caminho_2097" data-name="Caminho 2097" d="M198.395,249.159a66.255,66.255,0,0,0-56.726-16.345,81.46,81.46,0,0,1-64.524-15.671" transform="translate(-12.44 -32.291)" fill="none" stroke="#3e6d93" stroke-linecap="round" stroke-linejoin="round" stroke-width="3.5"/>
          <path id="Caminho_2098" data-name="Caminho 2098" d="M256.889,97.5a66.255,66.255,0,0,0-33.074,48.9,81.461,81.461,0,0,1-34.843,56.523" transform="translate(-28.297 -15.326)" fill="none" stroke="#1b8992" stroke-linecap="round" stroke-linejoin="round" stroke-width="3.5"/>
          <path id="Caminho_2099" data-name="Caminho 2099" d="M134.2,1.75a66.254,66.254,0,0,0,36.285,46.565,81.463,81.463,0,0,1,42.99,50.6" transform="translate(-20.53 -1.749)" fill="none" stroke="#294667" stroke-linecap="round" stroke-linejoin="round" stroke-width="3.5"/>
          <path id="Caminho_2100" data-name="Caminho 2100" d="M1.75,92.02a66.253,66.253,0,0,0,55.5-20.12,81.463,81.463,0,0,1,61.413-25.248" transform="translate(-1.75 -8.111)" fill="none" stroke="#f5781d" stroke-linecap="round" stroke-linejoin="round" stroke-width="3.5"/>
        </g>
        <text id="advertências" transform="translate(61.175 106.751)" fill="#f55151" font-size="14" font-family="Poppins-Bold, Poppins" font-weight="700"><tspan x="-53.76" y="15">ADVERTÊNCIAS</tspan></text>
      </g>
      <circle id="Elipse_24" data-name="Elipse 24" cx="20.5" cy="20.5" r="20.5" transform="translate(142 0)" fill="#294667"/>
      <circle id="Elipse_25" data-name="Elipse 25" cx="20.5" cy="20.5" r="20.5" transform="translate(294 112)" fill="#1b8992"/>
      <circle id="Elipse_28" data-name="Elipse 28" cx="20.5" cy="20.5" r="20.5" transform="translate(0 112)" fill="#f5781d"/>
      <ellipse id="Elipse_26" data-name="Elipse 26" cx="20" cy="20.5" rx="20" ry="20.5" transform="translate(246 276)" fill="#3e6d93"/>
      <circle id="Elipse_27" data-name="Elipse 27" cx="20.5" cy="20.5" r="20.5" transform="translate(46 276)" fill="#108141"/>
    </g>
    <text id="_1" data-name="1" transform="translate(426 105)" fill="#fff" font-size="18" font-family="Poppins-Bold, Poppins" font-weight="700"><tspan x="-3.384" y="0">1</tspan></text>
    <text id="_2" data-name="2" transform="translate(577 218)" fill="#fff" font-size="18" font-family="Poppins-Bold, Poppins" font-weight="700"><tspan x="-5.139" y="0">2</tspan></text>
    <text id="_5" data-name="5" transform="translate(284 218)" fill="#fff" font-size="18" font-family="Poppins-Bold, Poppins" font-weight="700"><tspan x="-5.85" y="0">5</tspan></text>
    <text id="_3" data-name="3" transform="translate(529 383)" fill="#fff" font-size="18" font-family="Poppins-Bold, Poppins" font-weight="700"><tspan x="-5.445" y="0">3</tspan></text>
    <text id="_4" data-name="4" transform="translate(329 383)" fill="#fff" font-size="18" font-family="Poppins-Bold, Poppins" font-weight="700"><tspan x="-6.093" y="0">4</tspan></text>
  </g>
</svg>
