<svg id="img-slide-6" xmlns="http://www.w3.org/2000/svg" xmlns:xlink="http://www.w3.org/1999/xlink" width="331.322" height="336.069" viewBox="0 0 331.322 336.069">
  <defs>
    <clipPath id="clip-path">
      <rect id="Retângulo_1124" data-name="Retângulo 1124" width="331.322" height="336.069" fill="none"/>
    </clipPath>
  </defs>
  <g id="Grupo_1609" data-name="Grupo 1609">
    <g id="Grupo_1608" data-name="Grupo 1608" clip-path="url(#clip-path)">
      <path id="Caminho_1998" data-name="Caminho 1998" d="M295.887,132.7a103.432,103.432,0,0,0-7.52-18.127c-15.854-29.462-43.653-51.682-74.061-64.812-24.137-10.422-54-15.872-79.608-6.483-12.95,4.747-25.141,13.862-32.087,25.97-9.07,15.813-8.195,35.434-15.38,52.053-5.823,13.467-20.311,21.561-31.661,29.831-17.709,12.9-35.15,28.169-41.291,50C6.085,230.27,8.511,264.916,25.111,290.8c12.38,19.307,33.582,25.108,55.458,25.506,20.646.376,45.875-4.841,65.16,4.577,32.827,16.031,76.143,34.023,112.87,21.336,37.853-13.076,56.435-38.541,61.94-71.575s-9.636-60.564-14.454-86.721c-3.042-16.513-5.027-34.762-10.2-51.225" transform="translate(-2.64 -10.44)" fill="#92e3a9"/>
      <path id="Caminho_1999" data-name="Caminho 1999" d="M295.887,132.7a103.432,103.432,0,0,0-7.52-18.127c-15.854-29.462-43.653-51.682-74.061-64.812-24.137-10.422-54-15.872-79.608-6.483-12.95,4.747-25.141,13.862-32.087,25.97-9.07,15.813-8.195,35.434-15.38,52.053-5.823,13.467-20.311,21.561-31.661,29.831-17.709,12.9-35.15,28.169-41.291,50C6.085,230.27,8.511,264.916,25.111,290.8c12.38,19.307,33.582,25.108,55.458,25.506,20.646.376,45.875-4.841,65.16,4.577,32.827,16.031,76.143,34.023,112.87,21.336,37.853-13.076,56.435-38.541,61.94-71.575s-9.636-60.564-14.454-86.721c-3.042-16.513-5.027-34.762-10.2-51.225" transform="translate(-2.64 -10.44)" fill="#d1e1f0"/>
    </g>
  </g>
  <g id="Grupo_1611" data-name="Grupo 1611">
    <g id="Grupo_1610" data-name="Grupo 1610" clip-path="url(#clip-path)">
      <path id="Caminho_2000" data-name="Caminho 2000" d="M22.667,296.144c-.188-2.106-.23-4.044-.254-5.76-.006-.976.009-1.858.031-2.684.754-.614,3.762-3.128,4.6-4.827.821-1.658,1.4-4.006.515-5.78a3.338,3.338,0,0,0-4.7-1.524c-2.353,1.464-2.55,6.491-1.918,8.914.055.209,1.283,3.39,1.322,3.359l.046-.037c-.037.793-.068,1.645-.083,2.575-.014,1.72-.013,3.664.13,5.781.023.353.052.719.079,1.083.262.4.412.648.412.648-.062-.584-.137-1.187-.186-1.748" transform="translate(-5.604 -74.697)" fill="#bababa"/>
      <path id="Caminho_2001" data-name="Caminho 2001" d="M12.057,296.647c-3.162.52-3.568,3.486-.621,5.376,2.5,1.6,6.768,1.718,8.013,1.716-.018-.221-.034-.435-.05-.653-1.194-1.826-4.748-6.864-7.342-6.439" transform="translate(-2.563 -80.539)" fill="#bababa"/>
      <path id="Caminho_2002" data-name="Caminho 2002" d="M88.593,277.559c-2.792-.091-5.73,3.949-6.534,6.3-.069.2-.788,3.506-.737,3.5l.059-.005c-.469.634-.964,1.319-1.49,2.08-.96,1.411-2.032,3.015-3.08,4.841-.118.206-.238.423-.358.634-.052.507-.1.812-.1.812s-.1-.074-.251-.2a52.381,52.381,0,0,0-2.394,4.81,42.474,42.474,0,0,0-2.462,7.213c-.007.03-.009.061-.017.09-.06-.817-.3-3.1-.342-3.269-.543-2.442-3.022-6.864-5.8-7.165a3.241,3.241,0,0,0-3.511,3.384c.018,1.971,1.614,3.825,3.109,4.959,1.686,1.279,6.137,2.3,6.492,2.386a58,58,0,0,0-1.141,7.7c-.13,1.509-.214,3.035-.279,4.565-.074-.705-.146-1.335-.165-1.422-.543-2.442-3.023-6.864-5.8-7.165a3.243,3.243,0,0,0-3.512,3.384c.017,1.971,1.614,3.825,3.109,4.96,1.517,1.15,5.3,2.1,6.3,2.34-.019.587-.044,1.174-.06,1.761-.079,2.82-.146,5.634-.3,8.391-.052.972-.14,1.926-.224,2.881-.067-.626-.128-1.153-.145-1.232-.544-2.443-3.023-6.864-5.8-7.165a3.242,3.242,0,0,0-3.511,3.384c.017,1.971,1.614,3.825,3.109,4.959,1.447,1.1,4.927,2.007,6.118,2.3q-.119,1.006-.256,2,.635.181,1.292.315.243-1.908.387-3.862c1.037.291,4.737,1.272,6.583,1s4.095-1.123,5.016-2.851a3.341,3.341,0,0,0-1.539-4.694c-2.587-1.091-6.8,1.594-8.4,3.48-.1.117-1.094,1.6-1.625,2.429.062-.952.129-1.9.16-2.867.091-2.786.1-5.612.114-8.429.005-.864.02-1.723.032-2.584.369.108,4.742,1.368,6.81,1.066,1.838-.269,4.1-1.123,5.016-2.851a3.341,3.341,0,0,0-1.539-4.694c-2.587-1.091-6.8,1.594-8.4,3.479-.121.142-1.548,2.281-1.883,2.843.026-1.9.072-3.784.191-5.643a58.08,58.08,0,0,1,.934-7.474c.172.051,4.731,1.387,6.849,1.077,1.837-.269,4.095-1.123,5.016-2.851a3.341,3.341,0,0,0-1.539-4.694c-2.586-1.091-6.8,1.593-8.4,3.479-.125.148-1.659,2.449-1.908,2.887.029-.143.043-.294.072-.436a42.131,42.131,0,0,1,2.275-7.176c.52-1.286,1.089-2.486,1.669-3.64.825.336,4.612,1.828,6.552,1.76,1.861-.065,4.2-.664,5.308-2.277a3.33,3.33,0,0,0-1.018-4.827c-2.456-1.367-6.947.834-8.747,2.529-.1.092-.987,1.142-1.625,1.915.27-.517.538-1.056.808-1.545,1-1.842,2.035-3.464,2.962-4.893.534-.809,1.032-1.528,1.506-2.2.975-.09,4.9-.506,6.543-1.442,1.607-.916,3.391-2.532,3.622-4.485a3.365,3.365,0,0,0-3.119-3.851" transform="translate(-16.196 -75.363)" fill="#bababa"/>
      <path id="Caminho_2003" data-name="Caminho 2003" d="M36.715,341.993q.281.563.558,1.125.632-.214,1.244-.412c-.474-.938-.965-1.874-1.482-2.8,1.017-.328,4.611-1.543,5.984-2.789s2.76-3.207,2.567-5.172a3.364,3.364,0,0,0-3.859-3.107c-2.736.508-4.734,5.1-5.013,7.57-.017.154-.019,1.955,0,2.944-.474-.836-.943-1.673-1.449-2.5-1.462-2.4-3.015-4.783-4.554-7.168-.472-.731-.933-1.464-1.4-2.2.363-.112,4.667-1.464,6.207-2.86,1.368-1.241,2.759-3.207,2.567-5.172a3.365,3.365,0,0,0-3.859-3.107c-2.736.508-4.734,5.1-5.013,7.57-.021.187-.019,2.776.014,3.436-1.024-1.613-2.028-3.23-2.954-4.863a59.225,59.225,0,0,1-3.352-6.816c.169-.052,4.669-1.442,6.245-2.872,1.368-1.241,2.759-3.208,2.567-5.172a3.365,3.365,0,0,0-3.859-3.108c-2.737.508-4.734,5.1-5.013,7.57-.023.194-.019,2.981.018,3.487-.055-.136-.127-.271-.181-.407a43.128,43.128,0,0,1-2.081-7.305c-.28-1.371-.473-2.7-.63-3.989.865-.173,4.814-1.005,6.377-2.133,1.5-1.081,3.1-2.879,3.124-4.85a3.367,3.367,0,0,0-3.5-3.507c-2.78.2-5.273,4.538-5.823,6.96-.03.132-.186,1.507-.285,2.511,0,0-.138,0-.361,0,.136,1.618.333,3.32.653,5.08a43.655,43.655,0,0,0,1.947,7.44c.011.028.025.057.036.085-.5-.656-1.958-2.443-2.086-2.567-1.795-1.759-6.279-4.117-8.74-2.837a3.278,3.278,0,0,0-1.032,4.79c1.1,1.652,3.442,2.334,5.3,2.464,2.1.147,6.336-1.445,6.673-1.572a59.575,59.575,0,0,0,3.307,7.122c.725,1.344,1.5,2.676,2.288,4-.45-.553-.857-1.044-.921-1.107-1.8-1.759-6.28-4.117-8.74-2.837a3.279,3.279,0,0,0-1.032,4.79c1.1,1.652,3.442,2.334,5.3,2.464,1.886.132,5.528-1.152,6.488-1.5.309.506.611,1.014.922,1.518,1.49,2.421,2.987,4.83,4.383,7.236.492.848.946,1.7,1.4,2.553-.4-.491-.742-.9-.8-.959-1.795-1.759-6.279-4.117-8.739-2.837a3.278,3.278,0,0,0-1.032,4.79c1.1,1.651,3.442,2.334,5.3,2.464,1.8.126,5.173-1.028,6.315-1.442" transform="translate(-2.629 -79.657)" fill="#bababa"/>
      <path id="Caminho_2004" data-name="Caminho 2004" d="M78.923,288.016c-2.78-1.593-4.968.449-3.876,3.778.935,2.851,4.234,5.666,5.162,6.415.116-.208.231-.409.347-.613.228-2.215.63-8.283-1.633-9.58" transform="translate(-20.299 -78.053)" fill="#bababa"/>
      <path id="Caminho_2005" data-name="Caminho 2005" d="M308.428,446.89c-3.073.077-6.052,4.736-6.788,7.385-.039.141-.275,1.592-.437,2.687,1.45.131,2.9.238,4.347.312a10.914,10.914,0,0,0,2.845-1.126c1.708-1.115,3.57-3.018,3.7-5.195a3.717,3.717,0,0,0-3.669-4.062" transform="translate(-81.783 -121.34)" fill="#bababa"/>
      <path id="Caminho_2006" data-name="Caminho 2006" d="M273.469,390.288c-3.54.015-4.5,3.18-1.614,5.757,2.447,2.185,7.084,3.052,8.443,3.267.018-.244.039-.481.059-.72-.985-2.2-3.984-8.317-6.888-8.3" transform="translate(-73.353 -105.971)" fill="#bababa"/>
      <path id="Caminho_2007" data-name="Caminho 2007" d="M344.236,429.4a3.69,3.69,0,0,0-.862-5.389c-2.631-1.641-7.7.553-9.771,2.331-.156.134-2.085,2.217-2.55,2.773.36-2.063.738-4.116,1.193-6.123a63.887,63.887,0,0,1,2.321-7.99c.178.085,4.919,2.338,7.283,2.368,2.051.028,4.664-.511,5.969-2.235a3.692,3.692,0,0,0-.861-5.389c-2.631-1.641-7.7.553-9.771,2.331-.163.14-2.237,2.383-2.585,2.817.056-.151.1-.313.154-.463A46.429,46.429,0,0,1,338.49,407c.791-1.313,1.62-2.522,2.455-3.68.841.51,4.713,2.8,6.84,3.062,2.04.253,4.7.008,6.187-1.558a3.679,3.679,0,0,0-.269-5.443c-2.441-1.919-7.724-.3-9.983,1.235-.122.083-1.276,1.072-2.106,1.805.385-.516.771-1.057,1.15-1.544,1.415-1.834,2.825-3.424,4.085-4.821.723-.789,1.393-1.488,2.026-2.135,1.079.071,5.43.3,7.389-.433,1.912-.718,4.141-2.171,4.733-4.262a3.718,3.718,0,0,0-2.732-4.744c-3.028-.586-6.939,3.309-8.224,5.729-.111.21-1.472,3.688-1.415,3.691l.066.005c-.622.61-1.282,1.271-1.988,2.008-1.294,1.372-2.742,2.935-4.2,4.745-.165.2-.334.42-.5.629-.146.543-.246.87-.246.87s-.092-.1-.239-.262a58.115,58.115,0,0,0-3.449,4.83,46.878,46.878,0,0,0-3.943,7.44c-.013.031-.022.065-.034.1.077-.9.208-3.43.2-3.626-.168-2.758-2.1-8.014-5.081-8.828a3.583,3.583,0,0,0-4.421,3.079c-.323,2.153,1.095,4.455,2.528,5.952,1.616,1.688,6.293,3.584,6.666,3.734a64.181,64.181,0,0,0-2.586,8.2c-.405,1.625-.763,3.273-1.1,4.932.042-.782.073-1.481.067-1.58-.168-2.758-2.1-8.014-5.08-8.827a3.581,3.581,0,0,0-4.421,3.079c-.324,2.153,1.094,4.455,2.528,5.952,1.455,1.519,5.41,3.216,6.463,3.65-.122.638-.253,1.273-.372,1.911-.495,2.619-.988,5.226-1.52,7.794.436-.058.873-.117,1.308-.181.448-2.454.863-4.93,1.275-7.406.156-.941.322-1.876.485-2.813.383.181,4.935,2.319,7.243,2.349,2.051.027,4.663-.511,5.969-2.236" transform="translate(-87.107 -104.379)" fill="#bababa"/>
      <path id="Caminho_2008" data-name="Caminho 2008" d="M347.891,392.486c-2.754-2.223-5.5-.377-4.887,3.444.523,3.274,3.631,6.92,4.512,7.9.163-.207.323-.406.485-.608.634-2.376,2.132-8.925-.111-10.735" transform="translate(-93.11 -106.308)" fill="#bababa"/>
      <path id="Caminho_2009" data-name="Caminho 2009" d="M284.6,391.641c.162-2.33.454-4.451.727-6.328.165-1.066.334-2.026.5-2.922.93-.539,4.65-2.757,5.864-4.464,1.185-1.665,2.228-4.125,1.569-6.215a3.688,3.688,0,0,0-4.859-2.481c-2.822,1.187-3.913,6.637-3.646,9.389.023.237.809,3.922.857,3.894l.056-.033c-.178.86-.361,1.783-.539,2.8-.315,1.874-.653,3.994-.866,6.329-.037.39-.069.794-.1,1.195.216.482.337.779.337.779.034-.648.058-1.319.1-1.939" transform="translate(-77.155 -100.181)" fill="#bababa"/>
      <path id="Caminho_2010" data-name="Caminho 2010" d="M285.157,454.1a3.391,3.391,0,0,0-2.289,2.835c3.761.741,7.529,1.328,11.289,1.735-1.679-2.231-6.115-5.531-9-4.57" transform="translate(-76.805 -123.25)" fill="#bababa"/>
      <path id="Caminho_2011" data-name="Caminho 2011" d="M320.666,452.3a3.582,3.582,0,0,0-4.421,3.079,5.765,5.765,0,0,0,.725,3.444q4.126-.09,8.2-.55c-.8-2.574-2.388-5.4-4.506-5.973" transform="translate(-85.855 -122.775)" fill="#bababa"/>
      <path id="Caminho_2012" data-name="Caminho 2012" d="M290.668,439.059c-1.177-2.872-2.455-5.743-3.719-8.614-.388-.879-.763-1.759-1.142-2.639.415-.059,5.347-.784,7.269-2.038,1.708-1.115,3.57-3.018,3.7-5.194a3.717,3.717,0,0,0-3.669-4.063c-3.073.077-6.052,4.736-6.789,7.385-.055.2-.5,3.025-.583,3.75-.835-1.938-1.649-3.877-2.375-5.82a65.443,65.443,0,0,1-2.468-8.019c.194-.027,5.344-.76,7.313-2.045,1.709-1.115,3.57-3.017,3.7-5.194a3.717,3.717,0,0,0-3.669-4.062c-3.074.077-6.052,4.735-6.789,7.384-.058.208-.54,3.248-.588,3.807-.036-.158-.092-.318-.127-.476a47.743,47.743,0,0,1-1-8.332c-.067-1.544-.046-3.024.007-4.462.975-.037,5.426-.257,7.328-1.215,1.823-.917,3.884-2.6,4.253-4.745a3.718,3.718,0,0,0-3.209-4.436c-3.068-.263-6.543,4.031-7.565,6.577-.056.138-.466,1.611-.749,2.69,0,0-.151-.02-.395-.059-.133,1.788-.216,3.68-.172,5.656a48.143,48.143,0,0,0,.828,8.455c.007.033.017.066.024.1-.43-.8-1.71-3.006-1.827-3.164-1.652-2.231-6.133-5.586-9.039-4.619a3.622,3.622,0,0,0-1.961,5.046c.914,1.994,3.348,3.146,5.354,3.612,2.26.526,7.162-.471,7.553-.552a65.768,65.768,0,0,0,2.365,8.345c.557,1.592,1.166,3.181,1.8,4.765-.394-.682-.753-1.289-.812-1.368-1.651-2.232-6.133-5.587-9.039-4.619a3.622,3.622,0,0,0-1.96,5.046c.914,1.994,3.347,3.146,5.353,3.612,2.035.473,6.232-.293,7.34-.51.248.605.49,1.212.74,1.817,1.2,2.9,2.416,5.788,3.52,8.657.236.611.455,1.221.669,1.831q.73.076,1.46.143c-.3-.812-.605-1.623-.938-2.435" transform="translate(-72.468 -105.898)" fill="#bababa"/>
    </g>
  </g>
  <g id="Grupo_1613" data-name="Grupo 1613">
    <g id="Grupo_1612" data-name="Grupo 1612" clip-path="url(#clip-path)">
      <path id="Caminho_2013" data-name="Caminho 2013" d="M292.526,132.6l.479,2.878,3.2.28.966-2.725a12.747,12.747,0,0,0,3.081-.667l2.02,2.053,2.784-1.607-.764-2.768a12.859,12.859,0,0,0,2.138-2.33l2.828.521,1.359-2.913-2.218-1.831a12.821,12.821,0,0,0,.4-3.127l2.636-1.2L310.876,116l-2.908-.226a12.753,12.753,0,0,0-1.455-2.756l1.5-2.533-2.273-2.272-2.553,1.515a12.7,12.7,0,0,0-4.873-1.989l-.738-2.915h-3.214l-.74,2.934a12.675,12.675,0,0,0-2.89.919l-2.3-1.989-2.633,1.843,1.085,2.843a12.845,12.845,0,0,0-1.846,2.4l-3.026-.312-1.1,3.02,2.505,1.7a12.861,12.861,0,0,0-.181,2.133c0,.3.015.6.035.9l-2.636,1.472.832,3.1,2.984-.039a12.785,12.785,0,0,0,1.638,2.606l-1.288,2.676,2.462,2.065,2.387-1.708m13.359-15.021a8.026,8.026,0,1,1-6.992-4.084,8.139,8.139,0,0,1,1.153.082m2.713.909a8.043,8.043,0,0,1,1.7,1.249" transform="translate(-76.199 -28.461)" fill="none" stroke="#000" stroke-miterlimit="10" stroke-width="1"/>
      <path id="Caminho_2014" data-name="Caminho 2014" d="M302.947,357.84l.479,2.878,3.2.28.966-2.725a12.745,12.745,0,0,0,3.081-.667l2.02,2.053,2.784-1.607-.764-2.768a12.858,12.858,0,0,0,2.138-2.33l2.828.521,1.359-2.913-2.218-1.831a12.785,12.785,0,0,0,.4-3.127l2.636-1.2-.558-3.165-2.908-.226a12.75,12.75,0,0,0-1.456-2.756l1.5-2.532-2.273-2.273-2.553,1.515a12.7,12.7,0,0,0-4.873-1.989L308,330.06h-3.214l-.74,2.934a12.676,12.676,0,0,0-2.89.919l-2.3-1.989-2.633,1.843,1.085,2.844A12.814,12.814,0,0,0,295.46,339l-3.026-.312-1.1,3.02,2.505,1.7a12.861,12.861,0,0,0-.181,2.133c0,.3.014.6.035.9l-2.636,1.472.832,3.1,2.984-.039a12.786,12.786,0,0,0,1.638,2.606l-1.287,2.676,2.462,2.065,2.387-1.708M313.431,341.6a8.023,8.023,0,1,1-5.838-4m2.713.908a8.044,8.044,0,0,1,1.7,1.249" transform="translate(-79.029 -89.618)" fill="none" stroke="#000" stroke-miterlimit="10" stroke-width="1"/>
      <path id="Caminho_2015" data-name="Caminho 2015" d="M326.614,93.542l.42,1.1q-.316.323-.609.668m-1.072,1.458c-.056.089-.111.178-.165.268l-3.026-.312-1.1,3.02,2.505,1.7a12.867,12.867,0,0,0-.181,2.134c0,.3.015.6.035.9l-2.636,1.472.832,3.1,2.984-.039a12.768,12.768,0,0,0,1.638,2.606l-1.288,2.676,2.462,2.066,2.386-1.709a12.693,12.693,0,0,0,2.874,1.214l.479,2.878,3.2.28.966-2.725a12.712,12.712,0,0,0,3.081-.667l2.02,2.053,2.784-1.607-.764-2.768a12.833,12.833,0,0,0,2.138-2.33l2.828.521,1.359-2.912-2.218-1.832a12.816,12.816,0,0,0,.4-3.127l2.636-1.2-.559-3.165-2.908-.226a12.721,12.721,0,0,0-1.456-2.756l1.5-2.532-2.273-2.273L343.336,93a12.718,12.718,0,0,0-4.874-1.989l-.738-2.915H334.51l-.74,2.934a12.649,12.649,0,0,0-2.89.918l-2.3-1.989L325.95,91.8l.331.87m17.741,12.564a7.941,7.941,0,0,1-.489,1.537m-.6,1.127a8.026,8.026,0,1,1,1.26-4.318c0,.2-.007.391-.021.584" transform="translate(-87.1 -23.919)" fill="none" stroke="#000" stroke-miterlimit="10" stroke-width="1"/>
      <path id="Caminho_2016" data-name="Caminho 2016" d="M61.242,215.227l-2.407,5,4.6,3.861L67.9,220.9a23.705,23.705,0,0,0,5.372,2.268l.894,5.379,5.984.524,1.8-5.094a23.744,23.744,0,0,0,5.759-1.247l3.776,3.837,5.2-3-1.429-5.174a23.989,23.989,0,0,0,4-4.356l5.285.975,2.538-5.444-4.146-3.424a23.885,23.885,0,0,0,.745-5.844l4.927-2.245-1.043-5.915-5.436-.423a23.81,23.81,0,0,0-2.72-5.15l2.8-4.733-4.248-4.248-4.77,2.832a23.755,23.755,0,0,0-9.108-3.717L82.7,171.245H76.7l-1.383,5.483a23.7,23.7,0,0,0-5.4,1.716l-4.294-3.717L60.7,178.173l2.028,5.314a23.971,23.971,0,0,0-3.45,4.477l-5.655-.584-2.055,5.645,4.682,3.176a24.044,24.044,0,0,0-.337,3.987c0,.568.026,1.13.066,1.688l-4.926,2.751,1.555,5.8,5.577-.072a23.843,23.843,0,0,0,2.209,3.754m14.385-28.06a15.021,15.021,0,0,1,2-.557m3.7-.289a14.989,14.989,0,1,1-6.779,1.276" transform="translate(-13.861 -46.497)" fill="none" stroke="#000" stroke-miterlimit="10" stroke-width="1"/>
    </g>
  </g>
  <g id="Grupo_1615" data-name="Grupo 1615">
    <g id="Grupo_1614" data-name="Grupo 1614" clip-path="url(#clip-path)">
      <path id="Caminho_2017" data-name="Caminho 2017" d="M302.625,222.406a59.9,59.9,0,0,1-8.482,7.634c-3.817,2.545-6.478,5.909-2.969,7.634,2.1,1.034,5.089-.424,5.089-.424s-4.665,1.272-5.514,5.513,8.482,2.545,8.482,2.545-6.786,4.665-4.665,6.361,6.361.425,8.482.425,12.723-6.786,15.267-6.786,7.634,5.513,7.634,9.754,6.786,3.816,7.634-9.33-2.545-24.173-8.058-27.566-22.9,4.241-22.9,4.241" transform="translate(-78.615 -59)" fill="#fff"/>
      <path id="Caminho_2018" data-name="Caminho 2018" d="M302.625,222.406a59.9,59.9,0,0,1-8.482,7.634c-3.817,2.545-6.478,5.909-2.969,7.634,2.1,1.034,5.089-.424,5.089-.424s-4.665,1.272-5.514,5.513,8.482,2.545,8.482,2.545-6.786,4.665-4.665,6.361,6.361.425,8.482.425,12.723-6.786,15.267-6.786,7.634,5.513,7.634,9.754,6.786,3.816,7.634-9.33-2.545-24.173-8.058-27.566S302.625,222.406,302.625,222.406Z" transform="translate(-78.615 -59)" fill="none" stroke="#263238" stroke-linecap="round" stroke-miterlimit="10" stroke-width="1"/>
      <path id="Caminho_2019" data-name="Caminho 2019" d="M304.011,241.7l16.926-6.324s7.429-1.615,12.761,7.172" transform="translate(-82.545 -63.879)" fill="none" stroke="#263238" stroke-linecap="round" stroke-miterlimit="10" stroke-width="1"/>
      <path id="Caminho_2020" data-name="Caminho 2020" d="M308.086,250.14l15.267-2.545s6.785-.424,11.026,7.634" transform="translate(-83.652 -67.226)" fill="none" stroke="#263238" stroke-linecap="round" stroke-miterlimit="10" stroke-width="1"/>
      <path id="Caminho_2021" data-name="Caminho 2021" d="M324.832,250.034l-11.45,2.545,6.785,27.142S326.1,291.6,327.8,296.685s19.085,22.053,19.085,22.053l20.356-19.509s-9.33-11.026-9.754-13.571-2.121-32.232-2.121-36.472-8.482-14.42-8.482-14.42a38.664,38.664,0,0,1-5.178-13.473c-1.7-8.482-9.486-11.967-13.727-11.543s-15.871,1.692-20.536,5.084-8.906,7.634-4.662,8.907c7.043,2.11,18.57-7.277,24.131-.79,2.545,2.969,5.553,16.056,5.977,17.752,0,0-2.121,8.058-8.058,9.33h0" transform="translate(-81.737 -56.942)" fill="#fff"/>
      <path id="Caminho_2022" data-name="Caminho 2022" d="M324.832,250.034l-11.45,2.545,6.785,27.142S326.1,291.6,327.8,296.685s19.085,22.053,19.085,22.053l20.356-19.509s-9.33-11.026-9.754-13.571-2.121-32.232-2.121-36.472-8.482-14.42-8.482-14.42a38.664,38.664,0,0,1-5.178-13.473c-1.7-8.482-9.486-11.967-13.727-11.543s-15.871,1.692-20.536,5.084-8.906,7.634-4.662,8.907c7.043,2.11,18.57-7.277,24.131-.79,2.545,2.969,5.553,16.056,5.977,17.752,0,0-2.121,8.058-8.058,9.33h0" transform="translate(-81.737 -56.942)" fill="none" stroke="#263238" stroke-linecap="round" stroke-miterlimit="10" stroke-width="1"/>
      <path id="Caminho_2023" data-name="Caminho 2023" d="M248.754,257.222l-1.96-8.609,5.242-1.193a25.122,25.122,0,0,1,.16-4.44l-5.121-1.584,2.6-8.434,5.138,1.587a25.527,25.527,0,0,1,2.365-3.758l-3.654-3.942,6.475-6,3.65,3.937a25.152,25.152,0,0,1,3.933-2.065l-1.193-5.24,8.609-1.96,1.193,5.242a25.264,25.264,0,0,1,4.44.16l1.584-5.126,8.435,2.606-1.587,5.138a25.521,25.521,0,0,1,3.757,2.365l3.941-3.654,6,6.475-3.932,3.65a25.342,25.342,0,0,1,2.065,3.933l5.24-1.193,1.96,8.609-5.241,1.193a25.467,25.467,0,0,1-.161,4.439l5.121,1.586-2.607,8.435-5.137-1.588a25.645,25.645,0,0,1-2.365,3.758l3.653,3.942-6.475,6-3.648-3.936a25.348,25.348,0,0,1-3.934,2.065l1.193,5.24-8.608,1.96-1.194-5.244a25.4,25.4,0,0,1-4.44-.16l-1.585,5.12-8.435-2.607,1.588-5.137a25.543,25.543,0,0,1-3.753-2.365l-3.939,3.656-6-6.475,3.936-3.648A25.318,25.318,0,0,1,254,256.028Zm32.341,4.984A16.45,16.45,0,1,0,261.4,249.818,16.451,16.451,0,0,0,281.1,262.206" transform="translate(-67.01 -58.518)" fill="#364866"/>
      <path id="Caminho_2024" data-name="Caminho 2024" d="M326.87,302.47c-4.665-6.786-10.6-24.173-13.147-27.566s-9.367-10.9-11.911-18.53-4.2-13.7-4.2-20.063,5.465-7.461,9.706-.676,9.378,17.216,9.378,17.216,3.393,4.24,10.178,2.969" transform="translate(-80.807 -62.727)" fill="#fff"/>
      <path id="Caminho_2025" data-name="Caminho 2025" d="M326.87,302.47c-4.665-6.786-10.6-24.173-13.147-27.566s-9.367-10.9-11.911-18.53-4.2-13.7-4.2-20.063,5.465-7.461,9.706-.676,9.378,17.216,9.378,17.216,3.393,4.24,10.178,2.969" transform="translate(-80.807 -62.727)" fill="none" stroke="#263238" stroke-linecap="round" stroke-miterlimit="10" stroke-width="1"/>
      <path id="Caminho_2026" data-name="Caminho 2026" d="M302.849,234.013l1.418,2.835a10.544,10.544,0,0,0-2.584,1.292,9.241,9.241,0,0,0-3.3,3.2s-2.189-6.1-.251-8.041a3.076,3.076,0,0,1,1.761-.924,2.913,2.913,0,0,1,2.958,1.643" transform="translate(-80.731 -63.086)" fill="#fff"/>
      <path id="Caminho_2027" data-name="Caminho 2027" d="M302.849,234.013l1.418,2.835a10.544,10.544,0,0,0-2.584,1.292,9.241,9.241,0,0,0-3.3,3.2s-2.189-6.1-.251-8.041a3.076,3.076,0,0,1,1.761-.924A2.913,2.913,0,0,1,302.849,234.013Z" transform="translate(-80.731 -63.086)" fill="none" stroke="#263238" stroke-linecap="round" stroke-miterlimit="10" stroke-width="1"/>
      <path id="Caminho_2028" data-name="Caminho 2028" d="M375.458,320.685s-11.232,3.328-17.055,9.152a133.568,133.568,0,0,0-10.816,12.479l10.4,12.064s8.736-9.983,14.559-14.559a112.376,112.376,0,0,1,12.48-8.319Z" transform="translate(-94.377 -87.073)" fill="#fff"/>
      <path id="Caminho_2029" data-name="Caminho 2029" d="M375.458,320.685s-11.232,3.328-17.055,9.152a133.568,133.568,0,0,0-10.816,12.479l10.4,12.064s8.736-9.983,14.559-14.559a112.376,112.376,0,0,1,12.48-8.319Z" transform="translate(-94.377 -87.073)" fill="none" stroke="#263238" stroke-linecap="round" stroke-miterlimit="10" stroke-width="1"/>
      <path id="Caminho_2030" data-name="Caminho 2030" d="M387.873,411.558l-32.862-52.829s8.319-12.48,15.391-18.72a37.667,37.667,0,0,1,16.223-7.9l41.089,39.433" transform="translate(-96.393 -90.174)" fill="#50878f"/>
      <path id="Caminho_2031" data-name="Caminho 2031" d="M313.217,255.794c.221-.028.451-.056.688-.079" transform="translate(-85.045 -69.432)" fill="none" stroke="#263238" stroke-linecap="round" stroke-miterlimit="10" stroke-width="1"/>
      <path id="Caminho_2032" data-name="Caminho 2032" d="M304.5,259.427s.387-2.322,5.054-3.3" transform="translate(-82.679 -69.544)" fill="none" stroke="#263238" stroke-linecap="round" stroke-miterlimit="10" stroke-width="1"/>
      <path id="Caminho_2033" data-name="Caminho 2033" d="M310.124,258.41s-.327.982-3.6,2.291" transform="translate(-83.228 -70.164)" fill="none" stroke="#263238" stroke-linecap="round" stroke-miterlimit="10" stroke-width="1"/>
      <path id="Caminho_2034" data-name="Caminho 2034" d="M309.586,254.139a10.794,10.794,0,0,0-4.541,1.844" transform="translate(-82.826 -69.004)" fill="none" stroke="#263238" stroke-linecap="round" stroke-miterlimit="10" stroke-width="1"/>
    </g>
  </g>
  <g id="Grupo_1617" data-name="Grupo 1617">
    <g id="Grupo_1616" data-name="Grupo 1616" clip-path="url(#clip-path)">
      <path id="Caminho_2035" data-name="Caminho 2035" d="M164.065,138.8a59.887,59.887,0,0,1,11.233,2.01c4.35,1.451,8.641,1.486,7.847-2.343-.476-2.3-3.459-3.757-3.459-3.757s3.868,2.9,7.737.967-3.2-8.257-3.2-8.257,7.848,2.493,7.886-.223-3.57-5.282-4.873-6.956-13.167-5.879-14.728-7.887-.334-9.41,3.014-12.014-1.152-7.7-12.051-.3-17.521,16.848-16.815,23.283S164.065,138.8,164.065,138.8" transform="translate(-39.807 -26.119)" fill="#fff"/>
      <path id="Caminho_2036" data-name="Caminho 2036" d="M164.065,138.8a59.887,59.887,0,0,1,11.233,2.01c4.35,1.451,8.641,1.486,7.847-2.343-.476-2.3-3.459-3.757-3.459-3.757s3.868,2.9,7.737.967-3.2-8.257-3.2-8.257,7.848,2.493,7.886-.223-3.57-5.282-4.873-6.956-13.167-5.879-14.728-7.887-.334-9.41,3.014-12.014-1.152-7.7-12.051-.3-17.521,16.848-16.815,23.283S164.065,138.8,164.065,138.8Z" transform="translate(-39.807 -26.119)" fill="none" stroke="#263238" stroke-linecap="round" stroke-miterlimit="10" stroke-width="1"/>
      <path id="Caminho_2037" data-name="Caminho 2037" d="M181.348,136.356l-15.383-9.48S160.129,122,163.793,112.4" transform="translate(-44.145 -30.519)" fill="none" stroke="#263238" stroke-linecap="round" stroke-miterlimit="10" stroke-width="1"/>
      <path id="Caminho_2038" data-name="Caminho 2038" d="M186.277,128.878,174.9,118.388s-4.5-5.1-.742-13.391" transform="translate(-46.88 -28.509)" fill="none" stroke="#263238" stroke-linecap="round" stroke-miterlimit="10" stroke-width="1"/>
      <path id="Caminho_2039" data-name="Caminho 2039" d="M173.209,87.91l9.038,7.477,17.261-22.018s11.146-5.008,14.083-9.5,5.438-28.653,5.438-28.653L191.1,31.373s-2.851,14.16-4.582,16.072-29.372,14.277-32.72,16.88-6.176,15.547-6.176,15.547a93.286,93.286,0,0,1-5.841,15.274c-6.377,12.908-5.241,11.919-2.3,15.006s10.083,9.373,15.624,10.973,12.435,7.328,10.889.331c-1.587-7.179-17.144-10.192-15.436-18.565.782-3.831,9.266-14.24,10.344-15.616,0,0,7.663-3.272,12.312.634h0" transform="translate(-37.231 -8.518)" fill="#fff"/>
      <path id="Caminho_2040" data-name="Caminho 2040" d="M173.209,87.91l9.038,7.477,17.261-22.018s11.146-5.008,14.083-9.5,5.438-28.653,5.438-28.653L191.1,31.373s-2.851,14.16-4.582,16.072-29.372,14.277-32.72,16.88-6.176,15.547-6.176,15.547a93.286,93.286,0,0,1-5.841,15.274c-6.377,12.908-5.241,11.919-2.3,15.006s10.083,9.373,15.624,10.973,12.435,7.328,10.889.331c-1.587-7.179-17.144-10.192-15.436-18.565.782-3.831,9.266-14.24,10.344-15.616,0,0,7.663-3.272,12.312.634h0" transform="translate(-37.231 -8.518)" fill="none" stroke="#263238" stroke-linecap="round" stroke-miterlimit="10" stroke-width="1"/>
      <path id="Caminho_2041" data-name="Caminho 2041" d="M155.2,162.375l.952-12.479,7.6.579a35.926,35.926,0,0,1,2.076-5.945l-6.279-4.292,7.058-10.331,6.3,4.307a36.252,36.252,0,0,1,4.778-4.1l-3.3-6.869,11.281-5.416,3.291,6.859a35.835,35.835,0,0,1,6.192-1.149l.579-7.6,12.48.952-.579,7.6a35.836,35.836,0,0,1,5.944,2.077l4.293-6.278,10.331,7.063-4.3,6.293a36.308,36.308,0,0,1,4.1,4.778l6.868-3.3,5.416,11.283-6.859,3.293a35.813,35.813,0,0,1,1.149,6.191l7.6.579-.951,12.479-7.607-.58a35.774,35.774,0,0,1-2.077,5.941l6.277,4.291-7.059,10.332-6.3-4.3a36.265,36.265,0,0,1-4.779,4.1l3.3,6.864-11.28,5.416-3.292-6.858a35.978,35.978,0,0,1-6.191,1.148l-.579,7.6-12.48-.951.58-7.6a35.85,35.85,0,0,1-5.946-2.077l-4.292,6.278L169.166,191.5l4.3-6.293a36.306,36.306,0,0,1-4.1-4.778l-6.862,3.294-5.418-11.283,6.859-3.293a35.756,35.756,0,0,1-1.143-6.191Zm41.711,20.3a23.319,23.319,0,1,0-21.478-25.024,23.319,23.319,0,0,0,21.478,25.024" transform="translate(-42.14 -31.48)" fill="#364866"/>
      <path id="Caminho_2042" data-name="Caminho 2042" d="M224.574,75.983c-2.423,7.87-12.939,18.7-14.8,22.513A189.939,189.939,0,0,1,195.528,123.4c-1.81,2.715-3.774,3.1-4.966,4.079-1.746,1.43-2.644,2.95-5.629,5.271-5.022,3.905-9.245.266-6.492-7.248s7.833-17.971,7.833-17.971,1.265-5.281-3.9-9.857" transform="translate(-48.214 -20.631)" fill="#fff"/>
      <path id="Caminho_2043" data-name="Caminho 2043" d="M224.574,75.983c-2.423,7.87-12.939,18.7-14.8,22.513A189.939,189.939,0,0,1,195.528,123.4c-1.81,2.715-3.774,3.1-4.966,4.079-1.746,1.43-2.644,2.95-5.629,5.271-5.022,3.905-9.245.266-6.492-7.248s7.833-17.971,7.833-17.971,1.265-5.281-3.9-9.857" transform="translate(-48.214 -20.631)" fill="none" stroke="#263238" stroke-linecap="round" stroke-miterlimit="10" stroke-width="1"/>
      <path id="Caminho_2044" data-name="Caminho 2044" d="M180.2,149.325l1.368-2.859a10.556,10.556,0,0,0,2.606,1.247,9.249,9.249,0,0,0,4.55.645s-3.474,5.474-6.194,5.134a3.072,3.072,0,0,1-1.811-.823,2.911,2.911,0,0,1-.519-3.343" transform="translate(-48.846 -39.769)" fill="#fff"/>
      <path id="Caminho_2045" data-name="Caminho 2045" d="M180.2,149.325l1.368-2.859a10.556,10.556,0,0,0,2.606,1.247,9.249,9.249,0,0,0,4.55.645s-3.474,5.474-6.194,5.134a3.072,3.072,0,0,1-1.811-.823A2.911,2.911,0,0,1,180.2,149.325Z" transform="translate(-48.846 -39.769)" fill="none" stroke="#263238" stroke-linecap="round" stroke-miterlimit="10" stroke-width="1"/>
      <path id="Caminho_2046" data-name="Caminho 2046" d="M205.812,0l-5.79,37.608a37.671,37.671,0,0,0,16.268,7.81c9.282,1.67,26.206,4.16,26.206,4.16L257.33,0" transform="translate(-54.31)" fill="#4a8047"/>
      <path id="Caminho_2047" data-name="Caminho 2047" d="M252.119,55.435a2.861,2.861,0,1,1-2.861-2.861,2.862,2.862,0,0,1,2.861,2.861" transform="translate(-66.902 -14.275)" fill="#fff"/>
      <circle id="Elipse_23" data-name="Elipse 23" cx="2.861" cy="2.861" r="2.861" transform="matrix(0.526, -0.851, 0.851, 0.526, 178.417, 42.09)" fill="none" stroke="#263238" stroke-linecap="round" stroke-linejoin="round" stroke-width="2"/>
      <path id="Caminho_2048" data-name="Caminho 2048" d="M188.839,137.456q-.239-.235-.486-.495" transform="translate(-51.142 -37.188)" fill="none" stroke="#263238" stroke-linecap="round" stroke-miterlimit="10" stroke-width="1"/>
      <path id="Caminho_2049" data-name="Caminho 2049" d="M196.057,140.821s-2.07,1.12-5.708-1.964" transform="translate(-51.684 -37.703)" fill="none" stroke="#263238" stroke-linecap="round" stroke-miterlimit="10" stroke-width="1"/>
      <path id="Caminho_2050" data-name="Caminho 2050" d="M192.137,137.425s.976-.345,4.019,1.436" transform="translate(-52.169 -37.306)" fill="none" stroke="#263238" stroke-linecap="round" stroke-miterlimit="10" stroke-width="1"/>
      <path id="Caminho_2051" data-name="Caminho 2051" d="M188.88,140.205a10.8,10.8,0,0,0,4.244,2.452" transform="translate(-51.285 -38.069)" fill="none" stroke="#263238" stroke-linecap="round" stroke-miterlimit="10" stroke-width="1"/>
    </g>
  </g>
  <g id="Grupo_1619" data-name="Grupo 1619">
    <g id="Grupo_1618" data-name="Grupo 1618" clip-path="url(#clip-path)">
      <path id="Caminho_2052" data-name="Caminho 2052" d="M175.925,302.082a59.9,59.9,0,0,0,2.176,11.2c1.515,4.329,1.614,8.619-2.226,7.882-2.3-.441-3.808-3.4-3.808-3.4s2.959,3.825,1.083,7.722-8.3-3.076-8.3-3.076,2.609,7.811-.106,7.888-5.334-3.492-7.028-4.768-6.073-13.078-8.1-14.61-9.414-.194-11.968,3.192-7.715-1.038-.477-12.045,16.586-17.769,23.031-17.159,15.732,17.175,15.732,17.175" transform="translate(-36.237 -77.348)" fill="#fff"/>
      <path id="Caminho_2053" data-name="Caminho 2053" d="M175.925,302.082a59.9,59.9,0,0,0,2.176,11.2c1.515,4.329,1.614,8.619-2.226,7.882-2.3-.441-3.808-3.4-3.808-3.4s2.959,3.825,1.083,7.722-8.3-3.076-8.3-3.076,2.609,7.811-.106,7.888-5.334-3.492-7.028-4.768-6.073-13.078-8.1-14.61-9.414-.194-11.968,3.192-7.715-1.038-.477-12.045,16.586-17.769,23.031-17.159S175.925,302.082,175.925,302.082Z" transform="translate(-36.237 -77.348)" fill="none" stroke="#263238" stroke-linecap="round" stroke-miterlimit="10" stroke-width="1"/>
      <path id="Caminho_2054" data-name="Caminho 2054" d="M173.6,319.511l-9.707-15.241s-4.959-5.762-14.506-1.956" transform="translate(-40.562 -81.732)" fill="none" stroke="#263238" stroke-linecap="round" stroke-miterlimit="10" stroke-width="1"/>
      <path id="Caminho_2055" data-name="Caminho 2055" d="M166.2,324.55,155.54,313.326s-5.163-4.424-13.4-.544" transform="translate(-38.594 -84.494)" fill="none" stroke="#263238" stroke-linecap="round" stroke-miterlimit="10" stroke-width="1"/>
      <path id="Caminho_2056" data-name="Caminho 2056" d="M122.639,311.534l7.61,8.926-21.76,17.586s-11.89,5.906-16.308,8.949-28.515,6.118-28.515,6.118l-4.508-27.833s14.088-3.186,15.959-4.962,21.1-24.458,23.652-27.844,15.454-6.406,15.454-6.406a38.656,38.656,0,0,0,12.246-7.64c6.461-5.751,14.779-3.843,17.91-.951s11.653,10.906,13.336,16.424,2.515,11.457-1.64,9.919c-6.894-2.556-10.445-16.991-18.792-15.16-3.819.838-14.1,9.476-15.461,10.575,0,0-3.159,7.71.816,12.3h0" transform="translate(-16.063 -74.587)" fill="#fff"/>
      <path id="Caminho_2057" data-name="Caminho 2057" d="M122.639,311.534l7.61,8.926-21.76,17.586s-11.89,5.906-16.308,8.949-28.515,6.118-28.515,6.118l-4.508-27.833s14.088-3.186,15.959-4.962,21.1-24.458,23.652-27.844,15.454-6.406,15.454-6.406a38.656,38.656,0,0,0,12.246-7.64c6.461-5.751,14.779-3.843,17.91-.951s11.653,10.906,13.336,16.424,2.515,11.457-1.64,9.919c-6.894-2.556-10.445-16.991-18.792-15.16-3.819.838-14.1,9.476-15.461,10.575,0,0-3.159,7.71.816,12.3h0" transform="translate(-16.063 -74.587)" fill="none" stroke="#263238" stroke-linecap="round" stroke-miterlimit="10" stroke-width="1"/>
      <path id="Caminho_2058" data-name="Caminho 2058" d="M148.635,286.737l-2.344-9.9,6.029-1.427a29.152,29.152,0,0,1,.141-5.118l-5.922-1.775,2.92-9.746,5.936,1.779a29.406,29.406,0,0,1,2.688-4.354l-4.249-4.506,7.4-6.98,4.244,4.5a29.154,29.154,0,0,1,4.511-2.419l-1.426-6.026,9.9-2.344,1.427,6.03a29.013,29.013,0,0,1,5.118.141l1.775-5.92,9.746,2.92-1.778,5.936a29.436,29.436,0,0,1,4.353,2.688l4.506-4.249,6.98,7.4-4.5,4.243a29.155,29.155,0,0,1,2.418,4.512l6.027-1.426,2.344,9.9-6.029,1.428a29.225,29.225,0,0,1-.141,5.118l5.922,1.775-2.92,9.746-5.936-1.778a29.6,29.6,0,0,1-2.688,4.353l4.243,4.5-7.4,6.98-4.244-4.5a29.081,29.081,0,0,1-4.511,2.417l1.426,6.027-9.9,2.343-1.427-6.028a29.157,29.157,0,0,1-5.118-.14l-1.775,5.922-9.746-2.921,1.779-5.936a29.5,29.5,0,0,1-4.353-2.687l-4.506,4.248-6.981-7.4,4.5-4.243a29.034,29.034,0,0,1-2.418-4.512Zm37.319,5.426a18.957,18.957,0,1,0-22.814-14.08,18.957,18.957,0,0,0,22.814,14.08" transform="translate(-39.721 -64.736)" fill="#364866"/>
      <path id="Caminho_2059" data-name="Caminho 2059" d="M104.491,358.09c7.809-2.609,23.019-12.917,27.094-14.095s14.038-3.06,20.665-7.623,11.608-8.408,15.436-13.488.129-9.248-7.343-6.384-17.852,8.1-17.852,8.1-5.263,1.343-9.915-3.758" transform="translate(-28.371 -85.683)" fill="#fff"/>
      <path id="Caminho_2060" data-name="Caminho 2060" d="M104.491,358.09c7.809-2.609,23.019-12.917,27.094-14.095s14.038-3.06,20.665-7.623,11.608-8.408,15.436-13.488.129-9.248-7.343-6.384-17.852,8.1-17.852,8.1-5.263,1.343-9.915-3.758" transform="translate(-28.371 -85.683)" fill="none" stroke="#263238" stroke-linecap="round" stroke-miterlimit="10" stroke-width="1"/>
      <path id="Caminho_2061" data-name="Caminho 2061" d="M186.553,318.185l-2.838,1.41A10.529,10.529,0,0,1,185,322.182a9.25,9.25,0,0,1,.712,4.54s5.421-3.555,5.041-6.269a3.08,3.08,0,0,0-.85-1.8,2.912,2.912,0,0,0-3.35-.469" transform="translate(-49.882 -86.306)" fill="#fff"/>
      <path id="Caminho_2062" data-name="Caminho 2062" d="M186.553,318.185l-2.838,1.41A10.529,10.529,0,0,1,185,322.182a9.25,9.25,0,0,1,.712,4.54s5.421-3.555,5.041-6.269a3.08,3.08,0,0,0-.85-1.8A2.912,2.912,0,0,0,186.553,318.185Z" transform="translate(-49.882 -86.306)" fill="none" stroke="#263238" stroke-linecap="round" stroke-miterlimit="10" stroke-width="1"/>
      <path id="Caminho_2063" data-name="Caminho 2063" d="M71.594,335.9s6.964,9.419,8.107,17.575a133.462,133.462,0,0,1,1.122,16.476l-21.258,5.1s-.964-13.231-2.859-20.391a112.434,112.434,0,0,0-4.954-14.156Z" transform="translate(-14.052 -91.204)" fill="#fff"/>
      <path id="Caminho_2064" data-name="Caminho 2064" d="M71.594,335.9s6.964,9.419,8.107,17.575a133.462,133.462,0,0,1,1.122,16.476l-21.258,5.1s-.964-13.231-2.859-20.391a112.434,112.434,0,0,0-4.954-14.156Z" transform="translate(-14.052 -91.204)" fill="none" stroke="#263238" stroke-linecap="round" stroke-miterlimit="10" stroke-width="1"/>
      <path id="Caminho_2065" data-name="Caminho 2065" d="M58.511,352.467a37.668,37.668,0,0,0-8.195-16.078L0,344.4v56.845L59.53,376.68s.871-14.973-1.018-24.213" transform="translate(0 -91.337)" fill="#364866"/>
      <path id="Caminho_2066" data-name="Caminho 2066" d="M60.163,391.527a2.23,2.23,0,1,1-2.23-2.23,2.23,2.23,0,0,1,2.23,2.23" transform="translate(-15.125 -105.702)" fill="#fff"/>
      <path id="Caminho_2067" data-name="Caminho 2067" d="M68.733,387.854a2.23,2.23,0,1,1-2.23-2.23,2.23,2.23,0,0,1,2.23,2.23" transform="translate(-17.452 -104.705)" fill="#fff"/>
      <path id="Caminho_2068" data-name="Caminho 2068" d="M168.031,330.042q-.239-.235-.5-.478" transform="translate(-45.488 -89.483)" fill="none" stroke="#263238" stroke-linecap="round" stroke-miterlimit="10" stroke-width="1"/>
      <path id="Caminho_2069" data-name="Caminho 2069" d="M171.5,337.209s1.089-2.087-2.048-5.678" transform="translate(-46.011 -90.018)" fill="none" stroke="#263238" stroke-linecap="round" stroke-miterlimit="10" stroke-width="1"/>
      <path id="Caminho_2070" data-name="Caminho 2070" d="M168.05,333.339s-.33.981,1.5,4" transform="translate(-45.623 -90.508)" fill="none" stroke="#263238" stroke-linecap="round" stroke-miterlimit="10" stroke-width="1"/>
      <path id="Caminho_2071" data-name="Caminho 2071" d="M170.781,330.042a10.793,10.793,0,0,1,2.515,4.207" transform="translate(-46.371 -89.613)" fill="none" stroke="#263238" stroke-linecap="round" stroke-miterlimit="10" stroke-width="1"/>
    </g>
  </g>
</svg>
