<svg id="img-slide-20" xmlns="http://www.w3.org/2000/svg" xmlns:xlink="http://www.w3.org/1999/xlink" width="205.504" height="205.494" viewBox="0 0 205.504 205.494">
  <defs>
    <clipPath id="clip-path">
      <rect id="Retângulo_1048" data-name="Retângulo 1048" width="205.504" height="205.494" fill="none"/>
    </clipPath>
    <clipPath id="clip-path-5">
      <rect id="Retângulo_1033" data-name="Retângulo 1033" width="24.185" height="11.282" fill="none"/>
    </clipPath>
    <clipPath id="clip-path-6">
      <rect id="Retângulo_1034" data-name="Retângulo 1034" width="13.542" height="4.838" fill="none"/>
    </clipPath>
    <clipPath id="clip-path-7">
      <rect id="Retângulo_1035" data-name="Retângulo 1035" width="7.199" height="4.697" fill="none"/>
    </clipPath>
    <clipPath id="clip-path-8">
      <rect id="Retângulo_1036" data-name="Retângulo 1036" width="25.429" height="7.396" fill="none"/>
    </clipPath>
    <clipPath id="clip-path-9">
      <rect id="Retângulo_1037" data-name="Retângulo 1037" width="17.809" height="17.994" fill="none"/>
    </clipPath>
    <clipPath id="clip-path-10">
      <rect id="Retângulo_1038" data-name="Retângulo 1038" width="8.975" height="30.251" fill="none"/>
    </clipPath>
    <clipPath id="clip-path-11">
      <rect id="Retângulo_1039" data-name="Retângulo 1039" width="44.573" height="56.277" fill="#294667"/>
    </clipPath>
    <clipPath id="clip-path-12">
      <rect id="Retângulo_1041" data-name="Retângulo 1041" width="10.354" height="28.066" fill="none"/>
    </clipPath>
    <clipPath id="clip-path-13">
      <rect id="Retângulo_1042" data-name="Retângulo 1042" width="17.339" height="14.421" fill="none"/>
    </clipPath>
    <clipPath id="clip-path-14">
      <rect id="Retângulo_1043" data-name="Retângulo 1043" width="24.702" height="9.031" fill="none"/>
    </clipPath>
    <clipPath id="clip-path-15">
      <rect id="Retângulo_1044" data-name="Retângulo 1044" width="20.864" height="16.565" fill="none"/>
    </clipPath>
    <clipPath id="clip-path-17">
      <rect id="Retângulo_1046" data-name="Retângulo 1046" width="10.05" height="20.756" fill="none"/>
    </clipPath>
  </defs>
  <g id="Grupo_1407" data-name="Grupo 1407" clip-path="url(#clip-path)">
    <g id="Grupo_1364" data-name="Grupo 1364">
      <g id="Grupo_1363" data-name="Grupo 1363" clip-path="url(#clip-path)">
        <path id="Caminho_1664" data-name="Caminho 1664" d="M338.534,242.038s-4.632-3.193-10.569,7.919a145.838,145.838,0,0,0-8.229,17.542s-1.557,2.322-3.143.754-3.713-5.971-6.474-5.239c-2.863.759-3.862,3.918-3.409,8.6s1.067,14.969,1.119,15.9c.051.913-.5,2.247-1.748,1.352s-8.389-9.161-12.108-5.539-.317,16.452.029,17.862.059,2-.614,2.338-2.81-2.67-4.937-4.938-4.99-4.524-6.96-2.255-2.773,11.831,6.038,27.558l4.559,7.02,8.4-.3c17.942-1.745,25.335-7.861,26.073-10.775s-2.749-3.975-5.825-4.427-6.762-.491-6.872-1.234.214-1.317,1.569-1.839,13.831-5.052,14.681-10.173-10.01-6.263-11.46-6.779-.667-1.728.113-2.207,9.593-5.858,13.694-8.158,6.124-4.924,5.113-7.708c-.975-2.684-5.8-1.918-8-2.324s-1.175-3.011-1.175-3.011a145.826,145.826,0,0,0,9.7-16.77c5.734-11.218.326-13.221.326-13.221" transform="translate(-146.561 -126.372)" fill="#fff"/>
        <path id="Caminho_1665" data-name="Caminho 1665" d="M306.083,340.582c4.244-8.222,10.2-19.531,16.822-32s12.6-23.761,16.886-31.961l5.064-9.716,1.379-2.641.364-.684c.083-.153.132-.229.132-.229s-.033.084-.108.241l-.341.7-1.336,2.663c-1.162,2.311-2.868,5.644-4.991,9.754-4.244,8.222-10.2,19.53-16.82,32s-12.6,23.767-16.889,31.966" transform="translate(-160.093 -137.741)" fill="#e0e0e0"/>
        <path id="Caminho_1666" data-name="Caminho 1666" d="M348.633,299.645a2.711,2.711,0,0,1,.2.572c.114.372.263.915.441,1.587.353,1.346.794,3.216,1.243,5.289l1.129,5.311L352,314.01a2.693,2.693,0,0,1,.106.6,2.746,2.746,0,0,1-.2-.57c-.113-.372-.262-.916-.433-1.59-.34-1.349-.756-3.225-1.2-5.3l-1.167-5.3-.361-1.6a2.742,2.742,0,0,1-.1-.6" transform="translate(-182.346 -156.726)" fill="#e0e0e0"/>
        <path id="Caminho_1667" data-name="Caminho 1667" d="M357.521,326.348c-.019-.07,3.8-1.147,8.523-2.407s8.573-2.226,8.591-2.156-3.8,1.147-8.524,2.407-8.572,2.225-8.591,2.156" transform="translate(-186.997 -168.304)" fill="#e0e0e0"/>
        <path id="Caminho_1668" data-name="Caminho 1668" d="M334.395,370.217a2.815,2.815,0,0,1,.618-.017l1.679.039c1.418.031,3.376.064,5.538.022s4.119-.139,5.534-.224l1.677-.1a2.792,2.792,0,0,1,.618-.007,2.823,2.823,0,0,1-.609.107c-.394.052-.965.117-1.672.182-1.414.133-3.374.264-5.543.3s-4.131-.021-5.549-.1c-.709-.042-1.283-.082-1.678-.121a2.8,2.8,0,0,1-.612-.084" transform="translate(-174.901 -193.482)" fill="#e0e0e0"/>
        <path id="Caminho_1669" data-name="Caminho 1669" d="M320.045,343.63a2.433,2.433,0,0,1,.319.475l.784,1.341c.652,1.138,1.537,2.718,2.5,4.471s1.824,3.348,2.435,4.508l.712,1.381a2.437,2.437,0,0,1,.23.523,2.424,2.424,0,0,1-.319-.475l-.784-1.341c-.652-1.138-1.537-2.718-2.5-4.472s-1.823-3.347-2.434-4.508l-.712-1.381a2.409,2.409,0,0,1-.23-.523" transform="translate(-167.395 -179.731)" fill="#e0e0e0"/>
        <path id="Caminho_1670" data-name="Caminho 1670" d="M295.235,375.631a3.943,3.943,0,0,1,.4.611l1.011,1.714c.844,1.454,1.994,3.47,3.251,5.7s2.381,4.267,3.185,5.743l.939,1.755a3.941,3.941,0,0,1,.313.661,3.91,3.91,0,0,1-.4-.611l-1.011-1.714c-.844-1.453-1.994-3.47-3.251-5.706s-2.381-4.266-3.185-5.742l-.939-1.755a3.962,3.962,0,0,1-.313-.661" transform="translate(-154.418 -196.469)" fill="#e0e0e0"/>
        <path id="Caminho_1671" data-name="Caminho 1671" d="M314.09,407.634a4.5,4.5,0,0,1,.782-.041l2.131-.028c1.8-.026,4.284-.071,7.025-.2s5.222-.3,7.016-.441l2.124-.164a4.437,4.437,0,0,1,.783-.031,4.517,4.517,0,0,1-.772.132c-.5.068-1.222.155-2.119.247-1.791.188-4.273.394-7.02.517s-5.236.144-7.037.122c-.9-.013-1.629-.031-2.132-.054a4.54,4.54,0,0,1-.781-.061" transform="translate(-164.281 -212.731)" fill="#e0e0e0"/>
        <path id="Caminho_1672" data-name="Caminho 1672" d="M33.852,338.367c10.747-5.447,14.762-17.816,15.99-29.27.205-1.912.7-3.889.03-5.686s-2.62-3.238-4.437-2.678c-1.507.465-2.356,2.022-3.339,3.269a11.238,11.238,0,0,1-5.067,3.631,4.28,4.28,0,0,1-3.957-.2c-1.513-1.138-1.385-3.433-1.106-5.324q.783-5.287,1.564-10.573a17.8,17.8,0,0,0,.225-5.7,5.926,5.926,0,0,0-3.127-4.492,3.6,3.6,0,0,0-4.745,1.762,17.612,17.612,0,0,0-.387,2.349,2.012,2.012,0,0,1-1.43,1.709c-.787.115-1.468-.529-1.956-1.163a25.4,25.4,0,0,1-3.551-7.461,35.3,35.3,0,0,0-3.217-7.636,10.336,10.336,0,0,0-6.384-4.871c-2.689-.538-5.814.726-6.876,3.291s.109,5.5,1.5,7.9a42.685,42.685,0,0,0,7.609,9.63,3.51,3.51,0,0,1,1.247,1.791c.232,1.32-1.141,2.4-2.445,2.642a22.115,22.115,0,0,1-4.487-.128c-1.5-.035-3.191.389-3.947,1.7-1.049,1.825.281,4.081,1.686,5.635a36.551,36.551,0,0,0,9.835,7.7,12.33,12.33,0,0,1,3.706,2.5,3.538,3.538,0,0,1,.554,4.171,3.6,3.6,0,0,1-4.089.941,25.461,25.461,0,0,1-3.928-2.174c-2.462-1.35-5.846-1.646-7.83.365A6.049,6.049,0,0,0,.1,317.2a13.945,13.945,0,0,0,2.207,5.084A36.752,36.752,0,0,0,16.3,335.406c5.737,2.947,11.247,4.3,17.554,2.961" transform="translate(0 -139.081)" fill="#fff"/>
        <path id="Caminho_1673" data-name="Caminho 1673" d="M38.632,345.569c.227-4.575-.152-7.457-1.027-13.445a171.108,171.108,0,0,0-4.146-19.212l-1.346-4.98c-.445-1.633-.887-3.253-1.417-4.811a85.478,85.478,0,0,0-3.557-8.777c-1.266-2.737-2.568-5.288-3.8-7.664s-2.437-4.567-3.614-6.518a67.859,67.859,0,0,0-6.232-8.785c-.814-.976-1.47-1.712-1.922-2.205l-.517-.558a1.494,1.494,0,0,0-.185-.182,1.3,1.3,0,0,0,.158.206l.491.581c.434.508,1.073,1.258,1.87,2.246a71.822,71.822,0,0,1,6.124,8.827c1.16,1.954,2.342,4.147,3.568,6.524s2.513,4.933,3.768,7.667a86.478,86.478,0,0,1,3.524,8.75c.525,1.55.961,3.156,1.406,4.794L33.12,313a175.527,175.527,0,0,1,4.165,19.168c.889,5.967,1.293,8.826,1.1,13.385" transform="translate(-5.684 -140.4)" fill="#e0e0e0"/>
        <path id="Caminho_1674" data-name="Caminho 1674" d="M52.231,318.7a3.892,3.892,0,0,0,.3-.781c.174-.509.4-1.253.667-2.177.534-1.847,1.186-4.422,1.893-7.264s1.393-5.4,1.954-7.235c.279-.917.511-1.658.678-2.167a3.809,3.809,0,0,0,.222-.807,3.839,3.839,0,0,0-.35.76c-.207.5-.476,1.227-.786,2.137-.624,1.821-1.351,4.379-2.059,7.226-.691,2.806-1.315,5.345-1.792,7.285-.221.875-.408,1.612-.558,2.2a3.811,3.811,0,0,0-.168.82" transform="translate(-27.316 -156.004)" fill="#e0e0e0"/>
        <path id="Caminho_1675" data-name="Caminho 1675" d="M2.571,324.334a5.292,5.292,0,0,0,.954.254c.617.144,1.51.348,2.605.634,2.195.556,5.2,1.431,8.472,2.541s6.19,2.252,8.276,3.135c1.047.434,1.884.808,2.465,1.063a5.288,5.288,0,0,0,.917.368,5.259,5.259,0,0,0-.858-.493c-.564-.294-1.388-.7-2.425-1.169-2.067-.944-4.981-2.121-8.262-3.241a86.7,86.7,0,0,0-8.527-2.448c-1.106-.256-2.01-.423-2.637-.526a5.233,5.233,0,0,0-.98-.118" transform="translate(-1.345 -169.635)" fill="#e0e0e0"/>
        <path id="Caminho_1676" data-name="Caminho 1676" d="M66.43,368.763a1.253,1.253,0,0,0,.209-.273l.541-.822c.466-.715,1.114-1.768,1.9-3.079,1.569-2.621,3.622-6.31,5.832-10.412s4.228-7.806,5.74-10.456l1.8-3.134.485-.856a1.264,1.264,0,0,0,.149-.311,1.258,1.258,0,0,0-.209.274l-.541.821c-.466.715-1.114,1.768-1.9,3.079-1.569,2.621-3.622,6.311-5.833,10.413s-4.227,7.8-5.739,10.456c-.74,1.287-1.348,2.347-1.8,3.133l-.485.856a1.251,1.251,0,0,0-.149.311" transform="translate(-34.744 -177.53)" fill="#e0e0e0"/>
        <path id="Caminho_1677" data-name="Caminho 1677" d="M1.732,369.487a1.328,1.328,0,0,0,.3.178l.895.447,3.3,1.613c2.789,1.363,6.62,3.288,10.85,5.422s8.084,4.027,10.9,5.331c1.409.653,2.554,1.169,3.353,1.511l.922.387a1.3,1.3,0,0,0,.331.113,1.318,1.318,0,0,0-.3-.178l-.895-.447-3.3-1.612c-2.79-1.362-6.621-3.288-10.852-5.423S9.157,372.8,6.339,371.5c-1.409-.653-2.554-1.17-3.354-1.511l-.922-.387a1.3,1.3,0,0,0-.331-.113" transform="translate(-0.906 -193.255)" fill="#e0e0e0"/>
      </g>
    </g>
    <g id="Grupo_1366" data-name="Grupo 1366">
      <g id="Grupo_1365" data-name="Grupo 1365" clip-path="url(#clip-path)">
        <path id="Caminho_1678" data-name="Caminho 1678" d="M205.5,429.368c0,.069-46.007.124-102.747.124C46,429.492,0,429.437,0,429.368s46-.124,102.757-.124c56.74,0,102.747.055,102.747.124" transform="translate(0 -224.511)" fill="#263238"/>
      </g>
    </g>
    <g id="Grupo_1401" data-name="Grupo 1401">
      <g id="Grupo_1400" data-name="Grupo 1400" clip-path="url(#clip-path)">
        <path id="Caminho_1679" data-name="Caminho 1679" d="M141.705,294.485s-13.563,9.214-14.3,30.726c-.249,7.215,3.294,30.194,3.294,30.194l79.334.318-14.844-61.579-24.956-5.7Z" transform="translate(-66.63 -150.866)" fill="#ffa800"/>
        <path id="Caminho_1680" data-name="Caminho 1680" d="M209.1,334.59l-10.81,45.092,27.013.178Z" transform="translate(-103.712 -175.003)" fill="#263238"/>
        <path id="Caminho_1681" data-name="Caminho 1681" d="M220.043,314.126a9.2,9.2,0,0,1,.145,1.475c.062.988.139,2.211.223,3.564.08,1.393.134,2.656.151,3.571a8.231,8.231,0,0,1-.03,1.482,9.343,9.343,0,0,1-.145-1.475c-.062-.988-.138-2.212-.223-3.565-.08-1.393-.134-2.655-.151-3.57a8.331,8.331,0,0,1,.031-1.482" transform="translate(-115.071 -164.3)" fill="#263238"/>
        <path id="Caminho_1682" data-name="Caminho 1682" d="M228.406,324.451c.006.023-.177.063-.458.228a2.286,2.286,0,0,0-.9,1,1.937,1.937,0,0,0,.094,1.9,2.024,2.024,0,0,0,3.731-.593,1.938,1.938,0,0,0-.5-1.832,2.291,2.291,0,0,0-1.165-.674c-.319-.069-.505-.051-.507-.074,0-.009.045-.018.134-.029a1.441,1.441,0,0,1,.39.009,2.32,2.32,0,0,1,1.817,1.495,2.039,2.039,0,0,1,.052,1.161,2.242,2.242,0,0,1-4.147.66,2.041,2.041,0,0,1-.311-1.12,2.322,2.322,0,0,1,1.263-1.985,1.454,1.454,0,0,1,.368-.129c.088-.017.134-.022.136-.013" transform="translate(-118.54 -169.655)" fill="#263238"/>
        <path id="Caminho_1683" data-name="Caminho 1683" d="M246.54,376.062c.006.023-.177.063-.458.228a2.283,2.283,0,0,0-.9,1,1.937,1.937,0,0,0,.094,1.9,2.024,2.024,0,0,0,3.731-.593,1.938,1.938,0,0,0-.5-1.832,2.29,2.29,0,0,0-1.165-.674c-.319-.069-.505-.051-.506-.074,0-.009.044-.018.133-.029a1.439,1.439,0,0,1,.39.009,2.32,2.32,0,0,1,1.817,1.495,2.043,2.043,0,0,1,.052,1.161,2.242,2.242,0,0,1-4.147.66,2.045,2.045,0,0,1-.311-1.12,2.323,2.323,0,0,1,1.263-1.985,1.457,1.457,0,0,1,.368-.129c.088-.017.134-.021.136-.013" transform="translate(-128.025 -196.65)" fill="#263238"/>
        <path id="Caminho_1684" data-name="Caminho 1684" d="M164.879,338.669a1.124,1.124,0,0,1-.169.212c-.118.133-.289.331-.523.574a21.13,21.13,0,0,1-2.134,1.9,21.991,21.991,0,0,1-8.489,3.991,16.85,16.85,0,0,1-5.178.424,7.88,7.88,0,0,1-3.977-1.442,5.812,5.812,0,0,1-1.824-2.2,4.517,4.517,0,0,1-.258-.737,1.131,1.131,0,0,1-.047-.268c.026-.008.1.363.392.963a5.966,5.966,0,0,0,1.841,2.1,7.82,7.82,0,0,0,3.895,1.356,17.037,17.037,0,0,0,5.1-.438,22.7,22.7,0,0,0,8.437-3.888,25.261,25.261,0,0,0,2.173-1.83l.555-.539a1.136,1.136,0,0,1,.205-.178" transform="translate(-74.417 -177.136)" fill="#263238"/>
        <path id="Caminho_1685" data-name="Caminho 1685" d="M164.879,348.033a1.125,1.125,0,0,1-.169.212c-.118.133-.289.331-.523.574a21.084,21.084,0,0,1-2.134,1.9,21.992,21.992,0,0,1-8.489,3.991,16.845,16.845,0,0,1-5.178.424,7.875,7.875,0,0,1-3.977-1.442,5.808,5.808,0,0,1-1.824-2.2,4.513,4.513,0,0,1-.258-.737,1.131,1.131,0,0,1-.047-.268c.026-.008.1.363.392.963a5.961,5.961,0,0,0,1.841,2.1,7.82,7.82,0,0,0,3.895,1.356,17.04,17.04,0,0,0,5.1-.438,22.7,22.7,0,0,0,8.437-3.888,25.356,25.356,0,0,0,2.173-1.829l.555-.54a1.138,1.138,0,0,1,.205-.178" transform="translate(-74.417 -182.034)" fill="#263238"/>
        <path id="Caminho_1686" data-name="Caminho 1686" d="M161.97,345.2a1.127,1.127,0,0,1,.03.193c.015.14.036.328.062.569.057.513.137,1.248.241,2.187.2,1.9.579,4.642.752,8.062a37.82,37.82,0,0,1-.117,5.6,24.185,24.185,0,0,1-1.437,6.262,16.141,16.141,0,0,1-3.859,5.937,14.34,14.34,0,0,1-3.032,2.242,12.183,12.183,0,0,1-3.662,1.291,11.146,11.146,0,0,1-7.416-1.373,14.361,14.361,0,0,1-5.1-4.9,19.316,19.316,0,0,1-2.406-5.953,27.264,27.264,0,0,1-.653-5.56,53.632,53.632,0,0,1,.573-8.075c.135-.936.241-1.667.315-2.178l.091-.565a1.129,1.129,0,0,1,.04-.191,1.114,1.114,0,0,1-.014.2l-.066.568c-.063.513-.154,1.246-.269,2.184a56.549,56.549,0,0,0-.494,8.059,27.36,27.36,0,0,0,.679,5.518,19.187,19.187,0,0,0,2.4,5.878,14.168,14.168,0,0,0,5.023,4.814,10.92,10.92,0,0,0,7.255,1.341,11.968,11.968,0,0,0,3.587-1.263,14.152,14.152,0,0,0,2.981-2.2,15.955,15.955,0,0,0,3.814-5.844,24.1,24.1,0,0,0,1.445-6.2,38.162,38.162,0,0,0,.147-5.568c-.15-3.409-.5-6.156-.672-8.059-.093-.951-.156-1.691-.194-2.193-.016-.241-.029-.431-.038-.571a1.115,1.115,0,0,1,0-.2" transform="translate(-70.803 -180.553)" fill="#263238"/>
        <g id="Grupo_1369" data-name="Grupo 1369" transform="translate(66.343 188.274)" opacity="0.2">
          <g id="Grupo_1368" data-name="Grupo 1368">
            <g id="Grupo_1367" data-name="Grupo 1367" clip-path="url(#clip-path-5)">
              <path id="Caminho_1687" data-name="Caminho 1687" d="M139.094,394.735a15.987,15.987,0,0,0,2.835,5.986,12.042,12.042,0,0,0,6.178,4.685,11.19,11.19,0,0,0,10.72-1.921c2.913-2.438,3.945-6.188,4.452-8.751-1.272,1.708-2.621,4.135-4.218,5.543a12.534,12.534,0,0,1-5.806,3.011,13.118,13.118,0,0,1-8.718-1.939c-2.447-1.554-3.926-4.34-5.443-6.615" transform="translate(-139.094 -394.735)"/>
            </g>
          </g>
        </g>
        <g id="Grupo_1372" data-name="Grupo 1372" transform="translate(68.386 169.772)" opacity="0.2">
          <g id="Grupo_1371" data-name="Grupo 1371">
            <g id="Grupo_1370" data-name="Grupo 1370" clip-path="url(#clip-path-6)">
              <path id="Caminho_1688" data-name="Caminho 1688" d="M143.378,355.943a8.189,8.189,0,0,0,6,4.708c2.583.477,5.925-.337,7.54-2.759-5.678,1.994-11.322,2.039-13.542-1.948" transform="translate(-143.378 -355.943)"/>
            </g>
          </g>
        </g>
        <path id="Caminho_1689" data-name="Caminho 1689" d="M233.435,335.325a1.036,1.036,0,0,1-.364-.021,6.336,6.336,0,0,1-.971-.211,9.1,9.1,0,0,1-5.129-3.894,6.286,6.286,0,0,1-.464-.879,1.038,1.038,0,0,1-.118-.345c.04-.019.261.448.729,1.128a10.132,10.132,0,0,0,5.035,3.823c.78.268,1.29.356,1.282.4" transform="translate(-118.409 -172.589)" fill="#263238"/>
        <g id="Grupo_1375" data-name="Grupo 1375" transform="translate(108.428 157.712)" opacity="0.2">
          <g id="Grupo_1374" data-name="Grupo 1374">
            <g id="Grupo_1373" data-name="Grupo 1373" clip-path="url(#clip-path-7)">
              <path id="Caminho_1690" data-name="Caminho 1690" d="M227.33,330.66a7.79,7.79,0,0,0,4.772,4.508,2.926,2.926,0,0,0,1.208.179,1.409,1.409,0,0,0,1.04-.578,1.56,1.56,0,0,0-.553-1.986,5.6,5.6,0,0,0-2.127-.756c-1.522-.356-2.9.416-4.158-.866" transform="translate(-227.33 -330.66)"/>
            </g>
          </g>
        </g>
        <g id="Grupo_1378" data-name="Grupo 1378" transform="translate(66.244 149.345)" opacity="0.2">
          <g id="Grupo_1377" data-name="Grupo 1377">
            <g id="Grupo_1376" data-name="Grupo 1376" clip-path="url(#clip-path-8)">
              <path id="Caminho_1691" data-name="Caminho 1691" d="M138.887,317.8c3.557,3.109,8.58,3.242,13.113,1.911s8.472-3.85,12.316-6.595c-4.195.831-7.772,2.747-12,3.37A26,26,0,0,1,140.1,315.8" transform="translate(-138.887 -313.118)"/>
            </g>
          </g>
        </g>
        <path id="Caminho_1692" data-name="Caminho 1692" d="M258.643,389.178s-.029.022-.091.054a2.545,2.545,0,0,1-.281.13,4.182,4.182,0,0,1-1.155.287,6.411,6.411,0,0,1-4.168-1.119,21.635,21.635,0,0,1-4.562-4.578,49.539,49.539,0,0,1-4.443-6.553,55.432,55.432,0,0,1-5.384-13.308c-.456-1.784-.751-3.245-.928-4.258l-.185-1.17a2.524,2.524,0,0,1-.048-.41,2.638,2.638,0,0,1,.1.4l.231,1.16c.206,1.006.526,2.458,1,4.231a57.8,57.8,0,0,0,5.431,13.23,50.9,50.9,0,0,0,4.406,6.533,21.965,21.965,0,0,0,4.479,4.575,6.418,6.418,0,0,0,4.063,1.169,5.689,5.689,0,0,0,1.536-.374" transform="translate(-124.167 -187.379)" fill="#263238"/>
        <g id="Grupo_1381" data-name="Grupo 1381" transform="translate(117.329 184.202)" opacity="0.2">
          <g id="Grupo_1380" data-name="Grupo 1380">
            <g id="Grupo_1379" data-name="Grupo 1379" clip-path="url(#clip-path-9)">
              <path id="Caminho_1693" data-name="Caminho 1693" d="M245.992,386.2s7.037,8.85,12.175,11.022c1.738.735,3.657,1.34,4.843,2.808a3.087,3.087,0,0,1,.743,2.491,1.941,1.941,0,0,1-.1.305c-.741,1.883-4.285,1.618-5.921.425-.708-.517-.289-.185-.861-.615-1.647-1.24-10.456-11.435-10.884-16.437" transform="translate(-245.992 -386.199)"/>
            </g>
          </g>
        </g>
        <path id="Caminho_1694" data-name="Caminho 1694" d="M172.489,134.718l4.493-.894,22.222.263,11.29,2.478,4.306,63.045-49.911,2.333Z" transform="translate(-86.243 -69.995)" fill="#e0e0e0"/>
        <path id="Caminho_1695" data-name="Caminho 1695" d="M247.821,197.715l1.065-28.671-1.772-33.252c7.024,1.809,16.625,3.831,21.931,9.88a31.854,31.854,0,0,1,8.085,17.069c1.471,9.521,3.409,27.782,4.619,37.992" transform="translate(-129.249 -71.024)" fill="#ffa800"/>
        <path id="Caminho_1696" data-name="Caminho 1696" d="M184.389,192.39,149.882,198l-1.22-21.314-1.894-42.129c-10,.408-21.415,8.686-24.836,15.132a44.223,44.223,0,0,0-5.01,14.705c-1.193,9.559-3.221,25.888-4.432,36.1a21.031,21.031,0,0,0,5.788,17.119c5.01,5.166,12.852,6.951,19.9,5.494l52.54-14.806Z" transform="translate(-58.76 -70.377)" fill="#ffa800"/>
        <path id="Caminho_1697" data-name="Caminho 1697" d="M255.7,193.791a.543.543,0,0,1,.027-.12l.1-.345.408-1.331,1.561-4.95,5.414-16.9.069.148-5.6-2.315-.217-.09.2-.129,1.293-.846,4.22-2.76-.051.136-5.393-18.751c-.664-2.348-1.2-4.236-1.571-5.553l-.412-1.5-.1-.39a.6.6,0,0,1-.027-.134.684.684,0,0,1,.049.128l.123.383.453,1.487,1.643,5.532,5.473,18.728.025.087-.076.05-4.218,2.763-1.293.846-.021-.218,5.593,2.32.1.043-.035.106-5.5,16.878-1.629,4.928-.447,1.318-.121.339a.542.542,0,0,1-.048.113" transform="translate(-133.697 -72.158)" fill="#263238"/>
        <g id="Grupo_1384" data-name="Grupo 1384" transform="translate(121.608 92.168)" opacity="0.2">
          <g id="Grupo_1383" data-name="Grupo 1383">
            <g id="Grupo_1382" data-name="Grupo 1382" clip-path="url(#clip-path-10)">
              <path id="Caminho_1698" data-name="Caminho 1698" d="M262.98,193.239a4.984,4.984,0,0,1-1.739,2.6c-.655.379-.28.88.265,1.406.651.627,1.7.8,2.182,1.564a2.969,2.969,0,0,1-.039,2.437,176.9,176.9,0,0,1-8.684,22.239l8.016-24.4-5.594-2.318Z" transform="translate(-254.964 -193.239)"/>
            </g>
          </g>
        </g>
        <path id="Caminho_1699" data-name="Caminho 1699" d="M174.25,193.714a.456.456,0,0,1-.053-.1l-.138-.3-.515-1.163-1.891-4.365-6.45-15.082-.037-.088.078-.055,4.416-3.155,0,.2-2.927-2.317-1.294-1.025-.64-.507-.159-.126c-.03-.029-.045-.024-.088-.082a.323.323,0,0,1-.067-.133,1.713,1.713,0,0,1-.054-.435,24.677,24.677,0,0,1,.3-3.185c.292-2.068.636-4.051.972-5.938.679-3.773,1.348-7.159,1.92-10s1.056-5.136,1.4-6.721l.4-1.822.111-.473a.877.877,0,0,1,.046-.159.783.783,0,0,1-.021.165l-.087.477-.356,1.832c-.314,1.605-.765,3.9-1.32,6.735s-1.2,6.234-1.867,10.007c-.33,1.886-.669,3.869-.956,5.932a24.646,24.646,0,0,0-.29,3.144,1.523,1.523,0,0,0,.042.365c-.01.056.142.143.238.228l.64.506,1.292,1.023,2.922,2.315.129.1-.134.1-4.42,3.148.041-.144,6.368,15.116,1.827,4.392.479,1.178.119.306a.44.44,0,0,1,.034.106" transform="translate(-86.002 -71.491)" fill="#263238"/>
        <path id="Caminho_1700" data-name="Caminho 1700" d="M216.816,257.873l-34.772-5.367a1.149,1.149,0,0,1-.96-1.31l7.5-48.612a1.149,1.149,0,0,1,1.311-.96l34.771,5.367a1.149,1.149,0,0,1,.96,1.31l-7.5,48.612a1.148,1.148,0,0,1-1.31.96" transform="translate(-94.707 -105.449)" fill="#e8505b"/>
        <g id="Grupo_1387" data-name="Grupo 1387" transform="translate(86.364 96.16)" opacity="0.2">
          <g id="Grupo_1386" data-name="Grupo 1386">
            <g id="Grupo_1385" data-name="Grupo 1385" clip-path="url(#clip-path-11)">
              <path id="Caminho_1701" data-name="Caminho 1701" d="M216.816,257.873l-34.772-5.367a1.149,1.149,0,0,1-.96-1.31l7.5-48.612a1.149,1.149,0,0,1,1.311-.96l34.771,5.367a1.149,1.149,0,0,1,.96,1.31l-1.254,8.123-6.25,40.489a1.148,1.148,0,0,1-1.31.96" transform="translate(-181.071 -201.609)" fill="#294667"/>
            </g>
          </g>
        </g>
        <rect id="Retângulo_1040" data-name="Retângulo 1040" width="47.924" height="33.295" transform="matrix(0.153, -0.988, 0.988, 0.153, 88.646, 144.765)" fill="#ebebeb"/>
        <path id="Caminho_1702" data-name="Caminho 1702" d="M234.123,204.391a4.08,4.08,0,0,0-3.266-2.783l.275-2.025a2.8,2.8,0,0,0-5.539-.855l-.324,2.1-.708-.1a4.08,4.08,0,0,0-3.889,1.688l-.548.776,14.326,2.211Zm-5.915-3.7a1.508,1.508,0,1,1,1.721-1.261,1.508,1.508,0,0,1-1.721,1.261" transform="translate(-115.133 -102.7)" fill="#263238"/>
        <path id="Caminho_1703" data-name="Caminho 1703" d="M214.8,220.706a41.126,41.126,0,0,1-4.48-.566,41.212,41.212,0,0,1-4.442-.811,41.178,41.178,0,0,1,4.48.566,41.119,41.119,0,0,1,4.442.811" transform="translate(-107.681 -114.712)" fill="#263238"/>
        <path id="Caminho_1704" data-name="Caminho 1704" d="M209.689,223.135a19.069,19.069,0,0,1-4.3-.664,19.142,19.142,0,0,1,4.3.664" transform="translate(-107.426 -116.349)" fill="#263238"/>
        <path id="Caminho_1705" data-name="Caminho 1705" d="M229.766,235.253c-.011.068-5.578-.735-12.434-1.794s-12.408-1.971-12.4-2.039,5.577.735,12.435,1.794,12.407,1.971,12.4,2.039" transform="translate(-107.188 -121.04)" fill="#263238"/>
        <path id="Caminho_1706" data-name="Caminho 1706" d="M229,240.217c-.01.068-5.578-.735-12.434-1.793s-12.408-1.972-12.4-2.039,5.577.735,12.435,1.794,12.407,1.971,12.4,2.039" transform="translate(-106.788 -123.636)" fill="#263238"/>
        <path id="Caminho_1707" data-name="Caminho 1707" d="M228.234,245.182c-.01.068-5.578-.736-12.434-1.793s-12.408-1.972-12.4-2.04,5.577.735,12.435,1.794,12.407,1.971,12.4,2.039" transform="translate(-106.387 -126.233)" fill="#263238"/>
        <path id="Caminho_1708" data-name="Caminho 1708" d="M227.467,250.146c-.01.068-5.578-.735-12.434-1.793s-12.408-1.972-12.4-2.039,5.577.735,12.435,1.794,12.407,1.971,12.4,2.039" transform="translate(-105.986 -128.829)" fill="#263238"/>
        <path id="Caminho_1709" data-name="Caminho 1709" d="M226.7,255.112c-.01.068-5.578-.736-12.434-1.794s-12.408-1.971-12.4-2.039,5.577.735,12.436,1.794,12.407,1.971,12.4,2.039" transform="translate(-105.585 -131.426)" fill="#263238"/>
        <path id="Caminho_1710" data-name="Caminho 1710" d="M225.934,260.075c-.01.068-5.578-.735-12.434-1.793s-12.408-1.972-12.4-2.04,5.577.735,12.436,1.794,12.407,1.971,12.4,2.039" transform="translate(-105.184 -134.022)" fill="#263238"/>
        <path id="Caminho_1711" data-name="Caminho 1711" d="M212.828,262.632a1.9,1.9,0,0,1-.5-.028c-.317-.034-.773-.091-1.336-.166-1.127-.151-2.681-.377-4.4-.641s-3.264-.518-4.384-.714c-.56-.1-1.013-.181-1.324-.244a1.881,1.881,0,0,1-.48-.123,1.928,1.928,0,0,1,.5.028c.316.034.773.091,1.336.166,1.127.151,2.681.377,4.4.642s3.264.518,4.384.714c.56.1,1.013.181,1.325.244a1.921,1.921,0,0,1,.48.123" transform="translate(-104.823 -136.36)" fill="#263238"/>
        <path id="Caminho_1712" data-name="Caminho 1712" d="M256.8,226.714a16.356,16.356,0,0,1-3.977-.614,16.356,16.356,0,0,1,3.977.614" transform="translate(-132.236 -118.246)" fill="#263238"/>
        <path id="Caminho_1713" data-name="Caminho 1713" d="M205.867,272.626a42.906,42.906,0,0,1-6.45-1,42.9,42.9,0,0,1,6.45,1" transform="translate(-104.303 -142.065)" fill="#263238"/>
        <path id="Caminho_1714" data-name="Caminho 1714" d="M205.5,277.185a44.44,44.44,0,0,1-6.557-1.012,44.428,44.428,0,0,1,6.557,1.012" transform="translate(-104.057 -144.441)" fill="#263238"/>
        <path id="Caminho_1715" data-name="Caminho 1715" d="M248.842,278.551a10.075,10.075,0,0,1-3.117-.481,10.069,10.069,0,0,1,3.117.481" transform="translate(-128.523 -145.426)" fill="#263238"/>
        <path id="Caminho_1716" data-name="Caminho 1716" d="M248.441,282.642a10.067,10.067,0,0,1-3.117-.481,10.068,10.068,0,0,1,3.117.481" transform="translate(-128.314 -147.565)" fill="#263238"/>
        <path id="Caminho_1717" data-name="Caminho 1717" d="M202.353,281.527a9.41,9.41,0,0,1-3.01-.465,9.409,9.409,0,0,1,3.01.465" transform="translate(-104.264 -146.99)" fill="#263238"/>
        <path id="Caminho_1718" data-name="Caminho 1718" d="M248.879,287.545a5.319,5.319,0,0,1-2.257-.348,5.3,5.3,0,0,1,2.257.348" transform="translate(-128.992 -150.194)" fill="#263238"/>
        <path id="Caminho_1719" data-name="Caminho 1719" d="M197.277,289.351a3.566,3.566,0,0,1,.562-.006l1.585.046,5.656.227.128.005-.029.126a2.717,2.717,0,0,1-.991,1.539,2.242,2.242,0,0,1-1.911.435,2.217,2.217,0,0,1-1.566-1.356,1.936,1.936,0,0,1,.579-2.063,1.759,1.759,0,0,1,.757-.4,1.118,1.118,0,0,1,.214-.034.742.742,0,0,1,.232,0,.322.322,0,0,1,.244.18.5.5,0,0,1,.029.258,3.722,3.722,0,0,1-1.575,2.62,2.32,2.32,0,0,1-1.409.469,1.335,1.335,0,0,1-1.144-.824,2.007,2.007,0,0,1-.1-1.333,4.8,4.8,0,0,1,1.336-1.918l.128-.133.023.182a3.248,3.248,0,0,1-.362,1.919,3.444,3.444,0,0,1-.947,1.13,3.046,3.046,0,0,1-.816.448,1.364,1.364,0,0,1-.314.079,4.052,4.052,0,0,0,1.07-.6,3.426,3.426,0,0,0,.883-1.118,3.124,3.124,0,0,0,.312-1.83l.151.049a4.685,4.685,0,0,0-1.263,1.851,1.8,1.8,0,0,0,.1,1.187,1.109,1.109,0,0,0,.959.687,2.1,2.1,0,0,0,1.26-.436,3.488,3.488,0,0,0,1.464-2.449.274.274,0,0,0-.008-.131c-.01-.02-.02-.03-.064-.04a1.049,1.049,0,0,0-.343.032,1.507,1.507,0,0,0-.649.342,1.693,1.693,0,0,0-.512,1.795,1.982,1.982,0,0,0,1.391,1.206,2.012,2.012,0,0,0,1.715-.385,2.507,2.507,0,0,0,.921-1.4l.1.131-5.652-.315-1.583-.105a3.578,3.578,0,0,1-.559-.06" transform="translate(-103.183 -150.211)" fill="#263238"/>
        <path id="Caminho_1720" data-name="Caminho 1720" d="M240.462,294.993a1.21,1.21,0,0,1-.273.284,1.575,1.575,0,0,1-.4.258.93.93,0,0,1-.657.034.65.65,0,0,1-.329-.241.819.819,0,0,1-.134-.42,7.715,7.715,0,0,1,.062-.913l.212-2.126.207.082-1.822,2.465-.456.612-.3.4.074-.488c.192-1.274.372-2.464.528-3.506l.174.1a11.053,11.053,0,0,0-1.957,2.146c-.4.579-.591.936-.615.924a.97.97,0,0,1,.109-.272,7.885,7.885,0,0,1,.4-.72,10.044,10.044,0,0,1,1.922-2.239l.214-.186-.04.282c-.147,1.044-.314,2.235-.494,3.511l-.222-.092.456-.613,1.835-2.454.258-.344-.05.425c-.09.765-.173,1.476-.249,2.122a8.487,8.487,0,0,0-.086.883.542.542,0,0,0,.342.538,1.046,1.046,0,0,0,.965-.219,2.137,2.137,0,0,1,.319-.225" transform="translate(-122.798 -152.297)" fill="#263238"/>
        <path id="Caminho_1721" data-name="Caminho 1721" d="M238.2,296.288a44.017,44.017,0,0,1-4.677.1,44.08,44.08,0,0,1-4.676-.145,44.006,44.006,0,0,1,4.677-.1,44.087,44.087,0,0,1,4.676.145" transform="translate(-119.695 -154.893)" fill="#263238"/>
        <path id="Caminho_1722" data-name="Caminho 1722" d="M243.419,299.54a57.329,57.329,0,0,1-7.5.816,57.358,57.358,0,0,1,7.5-.816" transform="translate(-123.393 -156.661)" fill="#263238"/>
        <g id="Grupo_1390" data-name="Grupo 1390" transform="translate(77.732 93.774)" opacity="0.2">
          <g id="Grupo_1389" data-name="Grupo 1389">
            <g id="Grupo_1388" data-name="Grupo 1388" clip-path="url(#clip-path-12)">
              <path id="Caminho_1723" data-name="Caminho 1723" d="M163.789,196.606a4.065,4.065,0,0,0,1.525,3.7,4.677,4.677,0,0,0-2.339,4.122,12.055,12.055,0,0,0,1.154,4.81,76.791,76.791,0,0,0,9.2,15.439s-1.6-4.3-2.051-5.295c-2.073-4.528-3.9-9.079-5.972-13.607-.23-.5-.64-1.867-.64-1.867a4.806,4.806,0,0,0,.619-.427c1.162-.927,3.689-2.625,3.689-2.625s-5.182-4.1-5.182-4.246" transform="translate(-162.973 -196.606)"/>
            </g>
          </g>
        </g>
        <path id="Caminho_1724" data-name="Caminho 1724" d="M163.65,217c.069,0-.052,5.508-.27,12.3s-.45,12.291-.518,12.288.052-5.507.27-12.3.45-12.29.518-12.288" transform="translate(-85.173 -113.5)" fill="#263238"/>
        <path id="Caminho_1725" data-name="Caminho 1725" d="M181.266,154.622l-.477-.018c.007-.182.691-18.226,1.228-25.405a3.709,3.709,0,0,1,1.258-2.654,5.779,5.779,0,0,1,3.808-1.1l-.038.476a5.385,5.385,0,0,0-3.462.99,3.252,3.252,0,0,0-1.091,2.325c-.536,7.172-1.22,25.207-1.227,25.388" transform="translate(-94.56 -65.606)" fill="#263238"/>
        <path id="Caminho_1726" data-name="Caminho 1726" d="M190.2,234.169h-.846v-.954h.845a3.347,3.347,0,0,0,3.343-3.342l0-10.1h.954l0,10.1a4.3,4.3,0,0,1-4.3,4.3" transform="translate(-99.039 -114.949)" fill="#455a64"/>
        <path id="Caminho_1727" data-name="Caminho 1727" d="M189.6,247.963a1.025,1.025,0,1,1-.919-1.121,1.024,1.024,0,0,1,.919,1.121" transform="translate(-98.098 -129.105)" fill="#263238"/>
        <path id="Caminho_1728" data-name="Caminho 1728" d="M168.209,234.089l-.845,0a4.3,4.3,0,0,1-4.28-4.314l.039-10.1.954,0-.039,10.1a3.342,3.342,0,0,0,3.33,3.356l.845,0Z" transform="translate(-85.299 -114.896)" fill="#455a64"/>
        <path id="Caminho_1729" data-name="Caminho 1729" d="M171.338,247.9a1.025,1.025,0,1,0,.923-1.118,1.025,1.025,0,0,0-.923,1.118" transform="translate(-89.614 -129.075)" fill="#263238"/>
        <path id="Caminho_1730" data-name="Caminho 1730" d="M162.415,203.184l-.12-7.205c-.091-5.489,3.921-10.022,8.942-10.106a8.726,8.726,0,0,1,6.512,2.833,10.385,10.385,0,0,1,2.76,6.97l.12,7.206-1.431.023-.12-7.205a8.956,8.956,0,0,0-2.372-6.014,7.254,7.254,0,0,0-5.445-2.382c-4.233.07-7.612,3.951-7.535,8.651l.12,7.206Z" transform="translate(-84.886 -97.218)" fill="#263238"/>
        <path id="Caminho_1731" data-name="Caminho 1731" d="M241.89,153.448c-.022-.189-2.192-18.943-2.817-24.951l-.044-.439c-.2-2.039-.424-4.35-2.681-4.959l.124-.461c2.577.7,2.829,3.29,3.032,5.374l.043.435c.625,6.006,2.8,24.757,2.817,24.946Z" transform="translate(-123.619 -64.144)" fill="#263238"/>
        <path id="Caminho_1732" data-name="Caminho 1732" d="M247.97,174.884a5.116,5.116,0,1,1-5.116-5.116,5.117,5.117,0,0,1,5.116,5.116" transform="translate(-124.345 -88.795)" fill="#263238"/>
        <path id="Caminho_1733" data-name="Caminho 1733" d="M248.225,177.781a2.474,2.474,0,1,1-2.474-2.474,2.474,2.474,0,0,1,2.474,2.474" transform="translate(-127.243 -91.692)" fill="#455a64"/>
        <path id="Caminho_1734" data-name="Caminho 1734" d="M177.978,256.254l-6.424,15.8L222.8,286.265a16.436,16.436,0,0,0,13.861-2.4c5.361-3.78,6.671-10.4,6.021-16.945l-.909-6.946Z" transform="translate(-89.729 -134.031)" fill="#ffa800"/>
        <path id="Caminho_1735" data-name="Caminho 1735" d="M286.065,276.558c-.057.01-.166-1.079-.694-2.745a13.613,13.613,0,0,0-.493-1.339c-.18-.481-.435-.967-.687-1.486a18.334,18.334,0,0,0-4.717-5.766c-.458-.351-.884-.7-1.32-.968a13.632,13.632,0,0,0-1.215-.748c-1.529-.848-2.574-1.171-2.553-1.224a4.468,4.468,0,0,1,.73.226,6.906,6.906,0,0,1,.835.33,11.424,11.424,0,0,1,1.072.515,12.828,12.828,0,0,1,1.244.73c.446.268.882.611,1.35.962a17.684,17.684,0,0,1,4.777,5.84c.25.528.5,1.024.675,1.514a12.845,12.845,0,0,1,.469,1.364,11.333,11.333,0,0,1,.291,1.153,6.977,6.977,0,0,1,.158.883,4.474,4.474,0,0,1,.076.761" transform="translate(-143.514 -137.182)" fill="#263238"/>
        <g id="Grupo_1393" data-name="Grupo 1393" transform="translate(63.342 115.822)" opacity="0.2">
          <g id="Grupo_1392" data-name="Grupo 1392">
            <g id="Grupo_1391" data-name="Grupo 1391" clip-path="url(#clip-path-13)">
              <path id="Caminho_1736" data-name="Caminho 1736" d="M150.144,255.959c-3.914.323-6.929.684-10.981,1.18-2.521.309-5.142.135-5.965-2.268a8.688,8.688,0,0,1,1.051-7.294c1.351-2.151,3.482-7.174,14.872-3.346Z" transform="translate(-132.804 -242.833)"/>
            </g>
          </g>
        </g>
        <path id="Caminho_1737" data-name="Caminho 1737" d="M180.219,262.191a.389.389,0,0,1,.029-.109c.028-.084.063-.187.106-.313l.432-1.2,1.645-4.442.022-.06.064.005,17.43,1.578,16.866,1.6,5.109.513,1.387.152.361.046a.486.486,0,0,1,.122.023.434.434,0,0,1-.124,0l-.362-.021-1.392-.106-5.116-.435L199.924,257.9,182.5,256.24l.087-.053-1.717,4.415-.474,1.185-.128.3a.4.4,0,0,1-.051.1" transform="translate(-94.261 -133.932)" fill="#263238"/>
        <g id="Grupo_1396" data-name="Grupo 1396" transform="translate(107.042 136.471)" opacity="0.2">
          <g id="Grupo_1395" data-name="Grupo 1395">
            <g id="Grupo_1394" data-name="Grupo 1394" clip-path="url(#clip-path-14)">
              <path id="Caminho_1738" data-name="Caminho 1738" d="M224.424,294.21c7.279,1.951,11.7.818,18.316-2.8a35.277,35.277,0,0,0,3.893-2.642,14.088,14.088,0,0,0,2.493-2.645c-8.515,3.258-15.585,5.706-24.361,8.175" transform="translate(-224.424 -286.125)"/>
            </g>
          </g>
        </g>
        <path id="Caminho_1739" data-name="Caminho 1739" d="M157.3,251.645,158.96,247l-3.869-6.051a4.56,4.56,0,0,0-2.994-2.023l-14.232-2.688a2.3,2.3,0,0,0,1.2,2.8c1.865,1.066,10.255,3.018,10.255,3.018l-12.92-.22s-.4,1.865,1.066,2.532,10.67,1,10.67,1l-11.785,1.661s-.069,1.871,2.626,1.893a78.062,78.062,0,0,0,7.942-.5.422.422,0,0,1,.157.828l-7.836,1.85a1.05,1.05,0,0,0-.08,2.026,1.247,1.247,0,0,0,.437.031c1.333-.133,9.311-1.145,9.311-1.145l.413.93Z" transform="translate(-71.316 -123.559)" fill="#b78876"/>
        <path id="Caminho_1740" data-name="Caminho 1740" d="M162.3,263.838a2.511,2.511,0,0,0-.438-.708,1.983,1.983,0,0,0-.752-.464,2.848,2.848,0,0,0-1.088-.121c-.792.057-1.506.284-2.043.354a1.92,1.92,0,0,1-.876.014,8,8,0,0,1,.843-.186A12.911,12.911,0,0,1,160,262.3a2.841,2.841,0,0,1,1.182.154,1.985,1.985,0,0,1,.8.561,1.01,1.01,0,0,1,.309.826" transform="translate(-82.168 -137.188)" fill="#aa6550"/>
        <path id="Caminho_1741" data-name="Caminho 1741" d="M161.149,256.438c-.022,0-.035-.131-.142-.335a1.639,1.639,0,0,0-.677-.668c-.721-.42-1.936-.281-3.215-.2-1.289.108-2.451.276-3.295.386a7.876,7.876,0,0,1-1.373.137,7.344,7.344,0,0,1,1.345-.311c.838-.155,2-.351,3.3-.46.651-.052,1.269-.084,1.84-.073a2.938,2.938,0,0,1,1.484.365,1.612,1.612,0,0,1,.677.781.586.586,0,0,1,.053.374" transform="translate(-79.735 -133.33)" fill="#aa6550"/>
        <path id="Caminho_1742" data-name="Caminho 1742" d="M165.594,250.852a2.368,2.368,0,0,0-.3-1.077,2.449,2.449,0,0,0-.861-.832,3.657,3.657,0,0,0-1.424-.42c-1.07-.1-2.073.023-2.8-.058a2.542,2.542,0,0,1-1.14-.277c.011-.038.439.089,1.15.1.71.036,1.7-.117,2.816-.014a3.664,3.664,0,0,1,1.514.47,2.481,2.481,0,0,1,.9.942,1.737,1.737,0,0,1,.212.849.574.574,0,0,1-.066.313" transform="translate(-83.199 -129.808)" fill="#aa6550"/>
        <path id="Caminho_1743" data-name="Caminho 1743" d="M269.617,232.5a4.575,4.575,0,0,1,.075-.773c.061-.5.18-1.21.347-2.087.329-1.757.91-4.155,1.525-6.8A60.813,60.813,0,0,0,272.809,216c.059-.442.083-.843.115-1.2s.052-.656.062-.9a4.663,4.663,0,0,1,.067-.773,4.655,4.655,0,0,1,.03.776c0,.25,0,.556-.02.911s-.031.759-.079,1.2a50.536,50.536,0,0,1-1.178,6.88c-.617,2.654-1.223,5.04-1.595,6.783-.188.871-.334,1.577-.424,2.068a4.648,4.648,0,0,1-.171.757" transform="translate(-141.017 -111.473)" fill="#263238"/>
        <path id="Caminho_1744" data-name="Caminho 1744" d="M250.553,311.147a1.189,1.189,0,0,1-.28-.046l-.792-.18-2.9-.714c-2.446-.618-5.816-1.506-9.523-2.539s-7.052-2.018-9.465-2.754l-2.851-.89-.771-.256a.143.143,0,1,1,.015-.048l.784.211,2.874.814,9.482,2.683,9.5,2.609,2.88.79.781.225a1.255,1.255,0,0,1,.268.095" transform="translate(-117.006 -158.826)" fill="#263238"/>
        <path id="Caminho_1745" data-name="Caminho 1745" d="M177.057,13.992c1.047-3.236,6.424-6.163,9.373-7.858,4.41-2.536,8.5-2.026,11.015.228C202,2.541,207.99-1.126,213.741.376s10.414,7.39,9.367,13.24c-.617,3.447-3,6.539-2.865,10.037.095,2.385,1.357,4.538,2.364,6.7s1.781,4.686.884,6.9c-.835,2.059-2.919,3.342-4.041,5.259-.914,1.561-1.125,3.423-1.71,5.134-2.166,6.346-9.657,9.9-16.269,8.787s-12.115-6.09-15.238-12.024-4.155-12.743-4.519-19.439" transform="translate(-92.608 -0.016)" fill="#263238"/>
        <path id="Caminho_1746" data-name="Caminho 1746" d="M187.271,31.1,188.59,84c.473,6.064,6.063,10.486,12.552,9.929,6.553-.562,11.555-5.985,11.178-12.118-.4-6.437-.694-13.221-.694-13.221s8.2-1.912,9.222-12.84c.522-5.6-.385-14.775-1.336-22.068a10.851,10.851,0,0,0-12.6-9.291" transform="translate(-97.95 -12.674)" fill="#b78876"/>
        <path id="Caminho_1747" data-name="Caminho 1747" d="M246.769,59.19a1.39,1.39,0,0,1-1.248,1.486,1.329,1.329,0,0,1-1.511-1.159,1.391,1.391,0,0,1,1.246-1.487,1.332,1.332,0,0,1,1.512,1.16" transform="translate(-127.624 -30.347)" fill="#263238"/>
        <path id="Caminho_1748" data-name="Caminho 1748" d="M246.625,56.095c-.16.192-1.262-.518-2.754-.417-1.492.079-2.538.918-2.712.745-.084-.075.07-.414.524-.791a3.811,3.811,0,0,1,2.157-.82,3.662,3.662,0,0,1,2.206.558c.482.323.659.64.579.726" transform="translate(-126.124 -28.665)" fill="#263238"/>
        <path id="Caminho_1749" data-name="Caminho 1749" d="M216.68,62.336a1.39,1.39,0,0,1-1.247,1.486,1.329,1.329,0,0,1-1.511-1.158,1.391,1.391,0,0,1,1.246-1.487,1.33,1.33,0,0,1,1.512,1.159" transform="translate(-111.886 -31.992)" fill="#263238"/>
        <path id="Caminho_1750" data-name="Caminho 1750" d="M215.9,58.664c-.161.192-1.263-.518-2.754-.417-1.492.079-2.538.917-2.712.745-.084-.076.068-.414.525-.792a3.809,3.809,0,0,1,2.156-.82,3.668,3.668,0,0,1,2.207.558c.48.323.658.64.579.726" transform="translate(-110.051 -30.008)" fill="#263238"/>
        <path id="Caminho_1751" data-name="Caminho 1751" d="M233.129,68.966a9.921,9.921,0,0,1,2.4-.594c.378-.064.734-.163.782-.427a1.941,1.941,0,0,0-.328-1.113L234.665,64c-1.832-4.032-3.185-7.357-3.022-7.429s1.781,3.137,3.613,7.169q.664,1.492,1.268,2.85a2.209,2.209,0,0,1,.294,1.483.957.957,0,0,1-.591.6,2.593,2.593,0,0,1-.642.132,9.728,9.728,0,0,1-2.457.162" transform="translate(-121.151 -29.588)" fill="#263238"/>
        <path id="Caminho_1752" data-name="Caminho 1752" d="M222.172,114.015a27.574,27.574,0,0,1-14.737-2.929s4.1,7.282,14.859,5.571Z" transform="translate(-108.496 -58.102)" fill="#aa6550"/>
        <path id="Caminho_1753" data-name="Caminho 1753" d="M214.507,46.724c-.121.415-1.624.319-3.362.643-1.745.29-3.124.893-3.38.544-.115-.167.107-.565.652-.995a5.949,5.949,0,0,1,5.135-.9c.66.217,1,.516.953.713" transform="translate(-108.654 -23.943)" fill="#263238"/>
        <path id="Caminho_1754" data-name="Caminho 1754" d="M245.313,47.006c-.241.356-1.292.07-2.53.134-1.24.02-2.269.375-2.533.036-.116-.166.027-.516.464-.867a3.669,3.669,0,0,1,4.079-.136c.459.32.626.66.52.833" transform="translate(-125.64 -23.861)" fill="#263238"/>
        <path id="Caminho_1755" data-name="Caminho 1755" d="M228.5,88.448a4.571,4.571,0,0,1,2.742.96,1.735,1.735,0,0,1,.706.7,1.477,1.477,0,0,1-.147,1.3,2.617,2.617,0,0,1-2.474,1.321,2.408,2.408,0,0,1-2.078-1.839,2.232,2.232,0,0,1,1.251-2.44" transform="translate(-118.837 -46.262)" fill="#aa6550"/>
        <path id="Caminho_1756" data-name="Caminho 1756" d="M232,90.335c.018.113-.372.287-1.024.248a5.574,5.574,0,0,1-2.34-.765,6.428,6.428,0,0,1-1.871-1.569c-.39-.5-.508-.9-.41-.959.2-.128,1.182.9,2.724,1.749a11.607,11.607,0,0,0,2.012.921c.532.184.893.244.908.375" transform="translate(-118.375 -45.65)" fill="#263238"/>
        <path id="Caminho_1757" data-name="Caminho 1757" d="M222.736,72.888a.4.4,0,1,1-.4-.4.4.4,0,0,1,.4.4" transform="translate(-116.085 -37.916)" fill="#aa6550"/>
        <path id="Caminho_1758" data-name="Caminho 1758" d="M246.235,68.82a.4.4,0,1,1-.4-.4.4.4,0,0,1,.4.4" transform="translate(-128.375 -35.788)" fill="#aa6550"/>
        <path id="Caminho_1759" data-name="Caminho 1759" d="M250.824,70.983a.4.4,0,1,1-.4-.4.4.4,0,0,1,.4.4" transform="translate(-130.776 -36.92)" fill="#aa6550"/>
        <path id="Caminho_1760" data-name="Caminho 1760" d="M252.222,67.509a.4.4,0,1,1-.4-.4.4.4,0,0,1,.4.4" transform="translate(-131.507 -35.103)" fill="#aa6550"/>
        <path id="Caminho_1761" data-name="Caminho 1761" d="M218.934,76.559a.4.4,0,1,1-.4-.4.4.4,0,0,1,.4.4" transform="translate(-114.096 -39.836)" fill="#aa6550"/>
        <path id="Caminho_1762" data-name="Caminho 1762" d="M215.819,73.216a.4.4,0,1,1-.4-.4.4.4,0,0,1,.4.4" transform="translate(-112.467 -38.088)" fill="#aa6550"/>
        <path id="Caminho_1763" data-name="Caminho 1763" d="M215.055,55.951a11.877,11.877,0,0,0-.262-1.669,6.861,6.861,0,0,0-2.51-3.733,6.774,6.774,0,0,0-6.418-.956,6.79,6.79,0,0,0-3.14,2.361,6.736,6.736,0,0,0,0,7.994,6.785,6.785,0,0,0,3.14,2.361,6.826,6.826,0,0,0,8.929-4.689,11.866,11.866,0,0,0,.262-1.669.372.372,0,0,1,.007.112c0,.089,0,.2,0,.329a3.136,3.136,0,0,1-.042.533,4.913,4.913,0,0,1-.129.72,6.5,6.5,0,0,1-.745,1.858,6.954,6.954,0,0,1-4.681,3.313,7,7,0,0,1-3.674-.29,6.993,6.993,0,0,1-3.259-2.433,6.959,6.959,0,0,1,0-8.282,7,7,0,0,1,3.258-2.433,7,7,0,0,1,3.674-.29,6.952,6.952,0,0,1,4.682,3.313,6.5,6.5,0,0,1,.745,1.859,4.919,4.919,0,0,1,.129.719,3.144,3.144,0,0,1,.042.533c0,.132,0,.239,0,.329a.372.372,0,0,1-.007.112" transform="translate(-105.215 -25.612)" fill="#fff"/>
        <path id="Caminho_1764" data-name="Caminho 1764" d="M233.057,58.746a3.749,3.749,0,0,0-3.188.334c-.02-.021.1-.181.364-.361a2.66,2.66,0,0,1,2.393-.251c.3.121.446.252.431.277" transform="translate(-120.229 -30.49)" fill="#fff"/>
        <path id="Caminho_1765" data-name="Caminho 1765" d="M194.8,17.908A23.131,23.131,0,0,1,179.161,36.9c2.668,3.845.988,11.159,1.056,17.265.064,5.677.061,7.3-3.617,10.193-3.039.733-4.792-7.594-7.05-9.919s-4.42-5.194-4.252-8.431c.078-1.513.67-2.964.753-4.477a21.752,21.752,0,0,0-.742-4.974,18.96,18.96,0,0,1,8.858-19.028,20.835,20.835,0,0,1,21.22.347" transform="translate(-86.326 -7.738)" fill="#263238"/>
        <path id="Caminho_1766" data-name="Caminho 1766" d="M165.288,81.456A20.963,20.963,0,0,0,161.3,73.85l.138.3a9.361,9.361,0,1,0-14.419,11.073,2.195,2.195,0,0,0-2.4,1.761,4.089,4.089,0,0,0,.8,3.111,7.705,7.705,0,0,0,10.5,1.786c2.526,1.712,6.264.714,8.138-1.694a9.826,9.826,0,0,0,1.231-8.727" transform="translate(-75.071 -35.853)" fill="#263238"/>
        <path id="Caminho_1767" data-name="Caminho 1767" d="M166.679,43.336a2.5,2.5,0,0,1-.271-.3,3.129,3.129,0,0,1-.5-1.056,6.267,6.267,0,0,1,.629-4.2,8.284,8.284,0,0,1,1.724-2.419,16.487,16.487,0,0,1,2.6-2.209,13.786,13.786,0,0,1,3.37-1.688c1.238-.421,2.548-.751,3.885-1.086s2.641-.666,3.862-1.094a24.054,24.054,0,0,0,3.42-1.485,25.368,25.368,0,0,0,5.158-3.629,25.792,25.792,0,0,0,2.9-3.124c.317-.393.544-.713.7-.927a2.493,2.493,0,0,1,.252-.319,2.49,2.49,0,0,1-.211.348c-.145.224-.36.553-.666.957a23.709,23.709,0,0,1-2.859,3.195A24.905,24.905,0,0,1,185.5,28a23.841,23.841,0,0,1-3.447,1.513c-1.233.435-2.544.769-3.882,1.1s-2.641.662-3.868,1.075a13.667,13.667,0,0,0-3.319,1.647,16.478,16.478,0,0,0-2.578,2.163,8.171,8.171,0,0,0-1.714,2.352,6.276,6.276,0,0,0-.694,4.1,3.762,3.762,0,0,0,.679,1.385" transform="translate(-86.701 -10.355)" fill="#455a64"/>
        <path id="Caminho_1768" data-name="Caminho 1768" d="M193.823,19.8a1.913,1.913,0,0,1-.224.273c-.151.176-.384.424-.688.743a29.821,29.821,0,0,1-2.752,2.508,19.2,19.2,0,0,1-4.729,2.854,18.271,18.271,0,0,1-3.158.855c-1.111.222-2.269.4-3.452.575a38.66,38.66,0,0,0-6.578,1.383,14.462,14.462,0,0,0-4.761,2.634,9.391,9.391,0,0,0-2.3,2.856,8.664,8.664,0,0,0-.4.923,1.912,1.912,0,0,1-.136.326,1.9,1.9,0,0,1,.088-.342,6.867,6.867,0,0,1,.358-.95,9.121,9.121,0,0,1,2.269-2.946,14.377,14.377,0,0,1,4.8-2.718,37.562,37.562,0,0,1,6.615-1.412c1.184-.178,2.339-.351,3.443-.568a18.366,18.366,0,0,0,3.122-.829,19.52,19.52,0,0,0,4.7-2.779,34.635,34.635,0,0,0,2.793-2.438l.72-.709a1.893,1.893,0,0,1,.26-.239" transform="translate(-86.118 -10.355)" fill="#455a64"/>
        <path id="Caminho_1769" data-name="Caminho 1769" d="M237.792.01c.006.056-.931.087-2.373.471a10.637,10.637,0,0,0-1.16.372c-.417.137-.839.342-1.288.542a15.85,15.85,0,0,0-2.705,1.7A15.855,15.855,0,0,0,228,5.346c-.3.393-.591.757-.818,1.132a10.59,10.59,0,0,0-.624,1.046c-.7,1.318-.942,2.223-1,2.2a3.3,3.3,0,0,1,.165-.633,5.428,5.428,0,0,1,.258-.724,8.855,8.855,0,0,1,.416-.93,9.983,9.983,0,0,1,.607-1.077,13.225,13.225,0,0,1,.813-1.163,15.191,15.191,0,0,1,2.292-2.3,15.194,15.194,0,0,1,2.762-1.712A13.151,13.151,0,0,1,234.19.659a9.944,9.944,0,0,1,1.186-.348,8.87,8.87,0,0,1,1-.2,5.367,5.367,0,0,1,.763-.088,3.277,3.277,0,0,1,.654-.018" transform="translate(-117.975 0)" fill="#455a64"/>
        <path id="Caminho_1770" data-name="Caminho 1770" d="M246.608,51.09a.415.415,0,0,1,.071-.1l.227-.265c.2-.233.5-.572.839-1.041a5.874,5.874,0,0,0,.958-1.857,3.28,3.28,0,0,0,.1-1.284,3.613,3.613,0,0,0-.489-1.357,24.235,24.235,0,0,0-2.135-2.633,15.389,15.389,0,0,1-3.218-7.537,31.741,31.741,0,0,1-.116-4.652,16.217,16.217,0,0,0-.421-4.571,9.162,9.162,0,0,0-2.065-3.69,9.259,9.259,0,0,0-3.105-2.256,8.789,8.789,0,0,0-3.265-.752,9.6,9.6,0,0,0-4.732,1.041,10.212,10.212,0,0,0-1.144.688l-.284.2a.431.431,0,0,1-.1.062,6.825,6.825,0,0,1,1.485-1.038,9.5,9.5,0,0,1,4.783-1.13,8.9,8.9,0,0,1,3.342.739,9.578,9.578,0,0,1,5.321,6.069,16.309,16.309,0,0,1,.435,4.64,32.113,32.113,0,0,0,.109,4.617,15.3,15.3,0,0,0,3.137,7.44,23.562,23.562,0,0,1,2.126,2.673,3.764,3.764,0,0,1,.494,1.426,3.416,3.416,0,0,1-.123,1.34,5.851,5.851,0,0,1-1.014,1.877,12.221,12.221,0,0,1-.88,1.017l-.246.249c-.057.055-.087.082-.09.079" transform="translate(-119.11 -9.896)" fill="#455a64"/>
        <path id="Caminho_1771" data-name="Caminho 1771" d="M249.765,52.427a11.879,11.879,0,0,0-.262-1.669,6.859,6.859,0,0,0-2.51-3.733,6.774,6.774,0,0,0-6.418-.956,6.788,6.788,0,0,0-3.14,2.361,6.738,6.738,0,0,0,0,7.994,6.783,6.783,0,0,0,3.141,2.361A6.826,6.826,0,0,0,249.5,54.1a11.869,11.869,0,0,0,.262-1.669.373.373,0,0,1,.007.112c0,.089,0,.2,0,.329a3.135,3.135,0,0,1-.042.533,4.845,4.845,0,0,1-.129.72,6.5,6.5,0,0,1-.745,1.858,6.955,6.955,0,0,1-4.681,3.313A7,7,0,0,1,240.5,59a6.993,6.993,0,0,1-3.259-2.433,6.959,6.959,0,0,1,0-8.282,7,7,0,0,1,3.258-2.433,7,7,0,0,1,3.674-.29,6.952,6.952,0,0,1,4.682,3.313,6.5,6.5,0,0,1,.745,1.859,4.851,4.851,0,0,1,.129.719,3.144,3.144,0,0,1,.042.533c0,.132,0,.239,0,.329a.373.373,0,0,1-.007.112" transform="translate(-123.37 -23.769)" fill="#fff"/>
        <path id="Caminho_1772" data-name="Caminho 1772" d="M177.853,92.652a1.192,1.192,0,0,1-.233-.158c-.148-.109-.361-.276-.634-.494a19.081,19.081,0,0,1-2.168-2.015,7.825,7.825,0,0,1-2.039-3.872,18.883,18.883,0,0,1-.118-2.595,4.467,4.467,0,0,0-.743-2.559,15.772,15.772,0,0,0-1.865-2.021,7.606,7.606,0,0,1-1.536-2.111,9.3,9.3,0,0,1-.743-2.242,9.133,9.133,0,0,1-.2-2.047c.027-.633.152-1.188.207-1.676a5.462,5.462,0,0,0,.027-1.254c-.08-.687-.213-1.054-.187-1.061a1.174,1.174,0,0,1,.1.262,5,5,0,0,1,.181.787,5.2,5.2,0,0,1,.015,1.281c-.043.5-.155,1.052-.169,1.667a9.821,9.821,0,0,0,.97,4.182,7.439,7.439,0,0,0,1.5,2.042,15.555,15.555,0,0,1,1.9,2.052,4.064,4.064,0,0,1,.6,1.31,6.215,6.215,0,0,1,.176,1.381,19.416,19.416,0,0,0,.1,2.567,7.764,7.764,0,0,0,1.945,3.793,22.184,22.184,0,0,0,2.1,2.058l.6.529a1.217,1.217,0,0,1,.2.2" transform="translate(-87.646 -35.853)" fill="#455a64"/>
        <path id="Caminho_1773" data-name="Caminho 1773" d="M162.452,95.792a.583.583,0,0,1,.008.2c-.008.127,0,.318-.037.559a9,9,0,0,1-.463,2.009,9.809,9.809,0,0,1-10.809,6.471,8.986,8.986,0,0,1-1.989-.541,5.536,5.536,0,0,1-.51-.231c-.114-.057-.172-.091-.169-.1a14.112,14.112,0,0,0,2.693.7,10.208,10.208,0,0,0,3-.048,9.534,9.534,0,0,0,6.16-3.687,10.229,10.229,0,0,0,1.459-2.622,14.121,14.121,0,0,0,.657-2.7" transform="translate(-77.662 -50.103)" fill="#455a64"/>
        <path id="Caminho_1774" data-name="Caminho 1774" d="M159.574,91.094a2.828,2.828,0,0,1-.14.652,9.275,9.275,0,0,1-.673,1.692,10.954,10.954,0,0,1-4.065,4.357,11.821,11.821,0,0,1-5.725,1.678,10.655,10.655,0,0,1-1.817-.094,2.951,2.951,0,0,1-.653-.135,23.784,23.784,0,0,0,2.462.054,12.26,12.26,0,0,0,5.6-1.715,11.311,11.311,0,0,0,4.039-4.226,18.307,18.307,0,0,0,.967-2.262" transform="translate(-76.626 -47.645)" fill="#455a64"/>
        <path id="Caminho_1775" data-name="Caminho 1775" d="M144.661,79.849a1.888,1.888,0,0,1,.429-.248,3.863,3.863,0,0,1,.53-.238,6.634,6.634,0,0,1,.727-.256,9.968,9.968,0,0,1,1.97-.384,11.594,11.594,0,0,1,2.459.05,11.8,11.8,0,0,1,2.387.6,9.646,9.646,0,0,1,1.792.906,5.894,5.894,0,0,1,.628.447,3.539,3.539,0,0,1,.442.378,1.851,1.851,0,0,1,.339.361c-.034.038-.536-.46-1.5-1.036a10.6,10.6,0,0,0-1.779-.84,12.589,12.589,0,0,0-2.34-.566,12.308,12.308,0,0,0-2.406-.068,10.99,10.99,0,0,0-1.942.326c-1.087.289-1.712.618-1.734.572" transform="translate(-75.663 -41.153)" fill="#455a64"/>
        <path id="Caminho_1776" data-name="Caminho 1776" d="M153.123,66.551c-.045.052-3.053-2.506-6.719-5.714s-6.6-5.849-6.556-5.9,3.053,2.506,6.719,5.714,6.6,5.849,6.555,5.9" transform="translate(-73.146 -28.733)" fill="#e8505b"/>
        <path id="Caminho_1777" data-name="Caminho 1777" d="M196.482,66.323A4.377,4.377,0,0,1,198.76,64.5a8.892,8.892,0,0,1-1.14.91,8.866,8.866,0,0,1-1.138.912" transform="translate(-102.765 -33.732)" fill="#fff"/>
        <path id="Caminho_1778" data-name="Caminho 1778" d="M167.692,45.755s-.024-.03-.062-.094l-.161-.29a4.228,4.228,0,0,1-.37-1.222,6.082,6.082,0,0,1,1.256-4.434,7.278,7.278,0,0,1,1.063-1.149,8.47,8.47,0,0,1,1.4-.952,12.3,12.3,0,0,1,3.52-1.211c2.58-.54,5.483-.408,8.444-.85a12.935,12.935,0,0,0,4.138-1.287,12.445,12.445,0,0,0,3.2-2.459,19.616,19.616,0,0,0,3.689-5.783c.784-1.806,1.276-3.327,1.633-4.37l.4-1.2.11-.312a.409.409,0,0,1,.045-.1.368.368,0,0,1-.021.111l-.087.319q-.132.448-.36,1.219a45.848,45.848,0,0,1-1.563,4.41,19.461,19.461,0,0,1-3.685,5.871,12.577,12.577,0,0,1-3.253,2.517,13.109,13.109,0,0,1-4.214,1.317c-3,.446-5.889.307-8.438.829A9.257,9.257,0,0,0,168.5,39.82a6.052,6.052,0,0,0-1.3,4.316,5.364,5.364,0,0,0,.5,1.619" transform="translate(-87.369 -10.478)" fill="#fafafa"/>
        <path id="Caminho_1779" data-name="Caminho 1779" d="M155.219,92.314a7.052,7.052,0,0,1-.589,1.935,8.954,8.954,0,0,1-1.246,2.027,8.356,8.356,0,0,1-2.411,2.029,7.911,7.911,0,0,1-3.691.962,7.233,7.233,0,0,1-4.189-1.227,7.013,7.013,0,0,1-2.777-3.926,6.139,6.139,0,0,1-.145-2.58,6.256,6.256,0,0,1,1-2.468,5.99,5.99,0,0,1,3.546-2.512l.009.24a9.631,9.631,0,0,1-4.094-1.665,7.9,7.9,0,0,1-2.6-3.125,7.371,7.371,0,0,1-.632-3.592,6.074,6.074,0,0,1,1.036-2.973,6.175,6.175,0,0,1,1.887-1.761,5.778,5.778,0,0,1,1.806-.7,4.914,4.914,0,0,1,1.212-.091l.313.033a.364.364,0,0,1,.1.019,6.248,6.248,0,0,0-1.612.124,5.826,5.826,0,0,0-1.759.719,6.109,6.109,0,0,0-1.82,1.744,5.94,5.94,0,0,0-.978,2.9,7.2,7.2,0,0,0,.638,3.488,7.689,7.689,0,0,0,2.543,3.024,9.427,9.427,0,0,0,4,1.613l.616.1-.608.143a5.758,5.758,0,0,0-3.4,2.412,6.023,6.023,0,0,0-.958,2.369,5.9,5.9,0,0,0,.135,2.478,6.8,6.8,0,0,0,2.672,3.8,7.046,7.046,0,0,0,4.057,1.209,7.767,7.767,0,0,0,3.609-.911,8.3,8.3,0,0,0,2.388-1.963,9.107,9.107,0,0,0,1.265-1.979,10.06,10.06,0,0,0,.53-1.393l.1-.375a.536.536,0,0,1,.043-.126" transform="translate(-71.85 -38.122)" fill="#263238"/>
        <path id="Caminho_1780" data-name="Caminho 1780" d="M163.065,42.253a.487.487,0,0,1-.117-.052l-.331-.175a8.777,8.777,0,0,1-1.186-.818,10,10,0,0,1-3.064-4.272,9.934,9.934,0,0,1,3.355-11.278,13.935,13.935,0,0,1,4.476-2.191,25.236,25.236,0,0,1,4.9-.894c1.6-.152,3.15-.222,4.619-.325a39.777,39.777,0,0,0,4.148-.466,18.664,18.664,0,0,0,3.5-.948,12.457,12.457,0,0,0,4.412-2.778,10.81,10.81,0,0,0,.923-1.091l.218-.3a.531.531,0,0,1,.081-.1,7.39,7.39,0,0,1-1.152,1.56A12.232,12.232,0,0,1,183.429,21a18.6,18.6,0,0,1-3.525.987,39.264,39.264,0,0,1-4.168.49c-2.934.234-6.212.258-9.468,1.229a13.759,13.759,0,0,0-4.4,2.146,9.587,9.587,0,0,0-2.884,3.49,9.7,9.7,0,0,0-.453,7.534,10.2,10.2,0,0,0,4.111,5.107l.318.2a.493.493,0,0,1,.1.074" transform="translate(-82.521 -8.664)" fill="#263238"/>
        <path id="Caminho_1781" data-name="Caminho 1781" d="M269.345,30.494a.633.633,0,0,1-.446.22,1.243,1.243,0,0,1-1.166-.758,1.128,1.128,0,0,1,.069-1.04,1.922,1.922,0,0,1,.955-.805,3.022,3.022,0,0,1,2.912.456,3.169,3.169,0,0,1,1.085,1.4,3.337,3.337,0,0,1,.132,1.917,3.169,3.169,0,0,1-1.06,1.761,3.822,3.822,0,0,1-2.008.849,5.267,5.267,0,0,1-4.241-1.673,5.931,5.931,0,0,1-1.359-2.064,4.73,4.73,0,0,1-.241-2.533,11.453,11.453,0,0,1,.771-2.413c.32-.763.617-1.514.866-2.27a19.268,19.268,0,0,0,.954-4.472,13.422,13.422,0,0,0-.249-4.115,10.615,10.615,0,0,0-1.361-3.316,9.372,9.372,0,0,0-3.8-3.486,8.441,8.441,0,0,0-1.334-.492l-.36-.093a.5.5,0,0,1-.122-.04.476.476,0,0,1,.126.015l.367.069a7.5,7.5,0,0,1,1.363.453,9.3,9.3,0,0,1,3.905,3.48,10.717,10.717,0,0,1,1.414,3.364,13.554,13.554,0,0,1,.276,4.18,19.347,19.347,0,0,1-.952,4.529c-.249.763-.55,1.527-.868,2.288a11.226,11.226,0,0,0-.755,2.361,4.485,4.485,0,0,0,.227,2.4,5.709,5.709,0,0,0,1.3,1.98,5.045,5.045,0,0,0,4.041,1.617,3.607,3.607,0,0,0,1.9-.789,2.96,2.96,0,0,0,1-1.64,3.143,3.143,0,0,0-.11-1.8,2.993,2.993,0,0,0-1.012-1.328,2.879,2.879,0,0,0-2.754-.468,1.8,1.8,0,0,0-.9.735,1.025,1.025,0,0,0-.083.943,1.2,1.2,0,0,0,1.074.747.9.9,0,0,0,.45-.171" transform="translate(-135.647 -3.936)" fill="#263238"/>
        <g id="Grupo_1399" data-name="Grupo 1399" transform="translate(129.531 118.916)" opacity="0.2">
          <g id="Grupo_1398" data-name="Grupo 1398">
            <g id="Grupo_1397" data-name="Grupo 1397" clip-path="url(#clip-path-15)">
              <path id="Caminho_1782" data-name="Caminho 1782" d="M272.7,264.907c2.319-.654,4.723,1.427,7.072.889a5.073,5.073,0,0,0,3.157-2.953c.646-1.344,1-2.818,1.685-4.142a4.761,4.761,0,0,1,3.312-2.746c1.353-.185,2.959.451,3.967-.471a2.254,2.254,0,0,0,.052-2.893,6.569,6.569,0,0,0-2.55-1.823,14.426,14.426,0,0,0-3.295-1.305,4.858,4.858,0,0,0-3.449.4c-1.985,1.154-2.392,3.77-2.961,6a12,12,0,0,1-1.947,4.343,6.448,6.448,0,0,1-3.933,2.538,4.278,4.278,0,0,0-1.747.45c-.5.341-.7,1.2-.178,1.522" transform="translate(-271.576 -249.32)"/>
            </g>
          </g>
        </g>
        <path id="Caminho_1783" data-name="Caminho 1783" d="M248.6,241.958l8.69-3.008,7.787-12.177a5.176,5.176,0,0,1,3.4-2.3l13.969-2.638a2.3,2.3,0,0,1-1.2,2.8c-1.865,1.066-10.255,3.018-10.255,3.018l12.92-.22s.4,1.865-1.066,2.532-10.67,1-10.67,1l11.785,1.66s.069,1.871-2.626,1.893a77.934,77.934,0,0,1-7.942-.5.422.422,0,0,0-.157.828l7.836,1.85a1.05,1.05,0,0,1,.08,2.026,1.248,1.248,0,0,1-.438.031c-1.332-.134-9.31-1.145-9.31-1.145s-2.814,9.86-4.638,10.659a22.125,22.125,0,0,1-5.64,1.013l-8.109,3.213Z" transform="translate(-130.026 -116.029)" fill="#b78876"/>
        <path id="Caminho_1784" data-name="Caminho 1784" d="M302.921,233.423a3.583,3.583,0,0,1-.677.067l-1.849.091c-1.562.066-3.72.14-6.1.206l-3.362.083a7.309,7.309,0,0,0-2.665.383,2.849,2.849,0,0,0-1.371,1.128,4.544,4.544,0,0,0-.269.612.457.457,0,0,1,.014-.177,1.888,1.888,0,0,1,.171-.482,2.832,2.832,0,0,1,1.386-1.243,7.182,7.182,0,0,1,2.728-.45l3.361-.1c2.384-.066,4.543-.113,6.106-.134l1.852-.012a3.588,3.588,0,0,1,.68.03" transform="translate(-149.913 -122.073)" fill="#aa6550"/>
        <path id="Caminho_1785" data-name="Caminho 1785" d="M304.831,242.645a3,3,0,0,1-.625-.044l-1.69-.213c-1.425-.19-3.392-.47-5.562-.794-1.086-.151-2.12-.349-3.053-.429a4.1,4.1,0,0,0-2.391.431,3.76,3.76,0,0,0-1.235,1.1c-.229.325-.317.531-.337.522s.008-.057.045-.157a2.878,2.878,0,0,1,.211-.418,3.591,3.591,0,0,1,1.229-1.2,4.188,4.188,0,0,1,2.494-.507c.963.071,1.987.261,3.075.412,2.17.324,4.132.632,5.551.866l1.678.29a3.029,3.029,0,0,1,.61.14" transform="translate(-151.647 -126.01)" fill="#aa6550"/>
        <path id="Caminho_1786" data-name="Caminho 1786" d="M298.815,249.233a8.574,8.574,0,0,1-1.367-.3c-.837-.2-1.99-.508-3.271-.773a5.909,5.909,0,0,0-.922-.135,1.763,1.763,0,0,0-.8.231,2.85,2.85,0,0,0-1.045,1A3.7,3.7,0,0,0,291,250.55a.806.806,0,0,1-.031-.379,2.506,2.506,0,0,1,.289-1,2.89,2.89,0,0,1,1.086-1.109,1.96,1.96,0,0,1,.9-.276,5.619,5.619,0,0,1,.977.135c1.3.268,2.442.6,3.27.847a7.184,7.184,0,0,1,1.32.465" transform="translate(-152.188 -129.601)" fill="#aa6550"/>
        <path id="Caminho_1787" data-name="Caminho 1787" d="M113.35,266.089l26.064-3.2,45.715-7.434,5.9,14.83c-17.188,5.956-34.791,11.323-52.074,16.046a19.424,19.424,0,0,1-4.31.365c-5.752.021-19.988-2.3-21.3-20.6" transform="translate(-59.286 -133.61)" fill="#ffa800"/>
        <path id="Caminho_1788" data-name="Caminho 1788" d="M207.858,270.156s-.046-.087-.121-.262l-.325-.777-1.213-2.976c-1.042-2.589-2.53-6.287-4.336-10.777l.109.062-22.214,3.708c-5.24.9-10.275,1.489-14.837,2.092-2.282.3-4.448.6-6.468.931q-1.515.245-2.918.5a24.263,24.263,0,0,0-2.656.584,10.852,10.852,0,0,0-4.022,2.292,11.251,11.251,0,0,0-3.1,4.782c-.083.242-.136.43-.172.556a1.146,1.146,0,0,1-.062.189,5.82,5.82,0,0,1,.186-.76,10.475,10.475,0,0,1,.87-2.07,10.865,10.865,0,0,1,6.248-5.156,24.167,24.167,0,0,1,2.675-.6q1.4-.262,2.919-.517c2.021-.336,4.188-.647,6.47-.954,4.565-.617,9.591-1.207,14.827-2.111l22.223-3.662.079-.013.03.075,4.255,10.81,1.163,3,.3.788c.066.178.093.273.093.273" transform="translate(-76.114 -133.487)" fill="#263238"/>
        <path id="Caminho_1789" data-name="Caminho 1789" d="M142.751,285.9a1.335,1.335,0,0,1,.208.042l.6.149c.534.115,1.321.3,2.351.422a25.784,25.784,0,0,0,8.726-.42c.906-.193,1.841-.451,2.817-.728l3.043-.857,6.7-1.925c4.717-1.374,9.893-2.917,15.306-4.6,9.081-2.815,17.389-5.571,23.866-7.8l-.059.129-4.264-10.83c-.5-1.282-.888-2.287-1.159-2.982-.126-.335-.225-.595-.3-.782s-.092-.271-.092-.271.045.086.119.26.184.442.322.772l1.208,2.963,4.343,10.8.038.1-.1.034c-6.468,2.257-14.772,5.032-23.856,7.848-5.415,1.684-10.595,3.22-15.316,4.583l-6.712,1.9-3.047.843c-.976.272-1.92.527-2.833.716a25.369,25.369,0,0,1-8.775.344,16.591,16.591,0,0,1-3.15-.71" transform="translate(-74.664 -133.61)" fill="#263238"/>
        <path id="Caminho_1790" data-name="Caminho 1790" d="M145.647,271.024a3.351,3.351,0,0,1-.653.1l-1.788.179-5.9.578-5.893.629-1.787.186a3.341,3.341,0,0,1-.66.037,3.427,3.427,0,0,1,.647-.133c.419-.07,1.026-.16,1.778-.265,1.5-.209,3.585-.466,5.89-.7s4.394-.405,5.909-.506c.757-.05,1.37-.084,1.795-.1a3.377,3.377,0,0,1,.661,0" transform="translate(-67.455 -141.749)" fill="#263238"/>
      </g>
    </g>
    <g id="Grupo_1406" data-name="Grupo 1406">
      <g id="Grupo_1405" data-name="Grupo 1405" clip-path="url(#clip-path)">
        <path id="Caminho_1791" data-name="Caminho 1791" d="M58.791,349.841c-1.318,1.883-3.881,1.26-5.069.11a9.578,9.578,0,0,1-2.148-4.4c-1.044-3.629-2.1-7.437-1.321-11.133a6.186,6.186,0,0,1,1.422-3.027,3.231,3.231,0,0,1,3.062-1.019c1.292.341,2.1,1.607,2.675,2.811a26.535,26.535,0,0,1,2.623,11.389,9.2,9.2,0,0,1-1.245,5.273" transform="translate(-26.144 -172.751)" fill="#e8505b"/>
        <g id="Grupo_1404" data-name="Grupo 1404" transform="translate(23.841 157.533)" opacity="0.2">
          <g id="Grupo_1403" data-name="Grupo 1403">
            <g id="Grupo_1402" data-name="Grupo 1402" clip-path="url(#clip-path-17)">
              <path id="Caminho_1792" data-name="Caminho 1792" d="M58.791,349.841c-1.318,1.883-3.881,1.26-5.069.11a9.578,9.578,0,0,1-2.148-4.4c-1.044-3.629-2.1-7.437-1.321-11.133a6.186,6.186,0,0,1,1.422-3.027,3.231,3.231,0,0,1,3.062-1.019c1.292.341,2.1,1.607,2.675,2.811a26.535,26.535,0,0,1,2.623,11.389,9.2,9.2,0,0,1-1.245,5.273" transform="translate(-49.985 -330.285)"/>
            </g>
          </g>
        </g>
        <path id="Caminho_1793" data-name="Caminho 1793" d="M45.682,390.115a11.425,11.425,0,0,0-7.089-.861,5.887,5.887,0,0,0-3.5,1.563,2.519,2.519,0,0,0-.036,3.5,3.354,3.354,0,0,0,2.208.56c1.874-.021,3.953-.352,5.45.776.854.643,1.423,1.712,2.444,2.029a2.414,2.414,0,0,0,2.656-1.181,4.128,4.128,0,0,0,.3-3.045,4.649,4.649,0,0,0-2.432-3.335" transform="translate(-17.975 -203.49)" fill="#e8505b"/>
        <path id="Caminho_1794" data-name="Caminho 1794" d="M74.512,359.187a6.851,6.851,0,0,1-1.066-6.3,12.149,12.149,0,0,1,3.734-5.417,20.106,20.106,0,0,1,6.687-3.945,7.129,7.129,0,0,1,3.007-.511,3.157,3.157,0,0,1,2.524,1.527c.7,1.342.029,2.97-.7,4.3a50.905,50.905,0,0,1-4.392,6.688,11.891,11.891,0,0,1-4.831,4.139c-2.006.767-4.09.677-5.154-.715" transform="translate(-38.245 -179.396)" fill="#e8505b"/>
        <path id="Caminho_1795" data-name="Caminho 1795" d="M57.843,411.851a4.078,4.078,0,0,1-.119-.856l-.228-2.335a33.744,33.744,0,0,0-.525-3.426,26.414,26.414,0,0,0-1.245-4.042,14.882,14.882,0,0,0-2.064-3.658,7.7,7.7,0,0,0-2.609-2.169,7.309,7.309,0,0,0-2.2-.685,4.084,4.084,0,0,1-.852-.123,4.034,4.034,0,0,1,.867-.013,6.666,6.666,0,0,1,2.292.6,7.7,7.7,0,0,1,2.753,2.189,14.549,14.549,0,0,1,2.14,3.731,24.692,24.692,0,0,1,1.236,4.109,28.925,28.925,0,0,1,.456,3.468c.074.992.1,1.794.116,2.35a4.017,4.017,0,0,1-.018.864" transform="translate(-25.107 -206.357)" fill="#263238"/>
        <path id="Caminho_1796" data-name="Caminho 1796" d="M63.5,384.746a1.7,1.7,0,0,1-.023-.4c0-.3,0-.674,0-1.135,0-.985,0-2.411-.051-4.171-.087-3.521-.39-8.383-.975-13.726s-1.372-10.152-2.085-13.6c-.168-.864-.338-1.643-.5-2.323s-.282-1.272-.408-1.748c-.108-.448-.2-.814-.265-1.1a1.693,1.693,0,0,1-.07-.392,1.675,1.675,0,0,1,.138.372l.329,1.088c.146.472.3,1.057.467,1.737s.365,1.455.55,2.317A128.828,128.828,0,0,1,62.8,365.277c.586,5.354.851,10.229.875,13.759.021,1.765-.017,3.194-.062,4.18-.028.461-.051.837-.069,1.135a1.7,1.7,0,0,1-.048.394" transform="translate(-30.925 -181.048)" fill="#263238"/>
        <path id="Caminho_1797" data-name="Caminho 1797" d="M68.23,378.5a7.6,7.6,0,0,1,.009-1.186c.043-.762.148-1.863.363-3.213a42.351,42.351,0,0,1,1.045-4.681,41.527,41.527,0,0,1,1.957-5.54,29.512,29.512,0,0,1,5.749-8.952,14.667,14.667,0,0,1,1.352-1.257c.207-.176.391-.35.578-.489l.525-.362a7.531,7.531,0,0,1,1-.639,35.373,35.373,0,0,0-3.273,2.919,31.1,31.1,0,0,0-5.605,8.92,44.185,44.185,0,0,0-1.969,5.488,47.62,47.62,0,0,0-1.112,4.635c-.245,1.336-.387,2.426-.472,3.181a7.64,7.64,0,0,1-.145,1.175" transform="translate(-35.678 -184.201)" fill="#263238"/>
      </g>
    </g>
  </g>
</svg>
