<?xml version="1.0" encoding="utf-8"?>
<!-- Generator: Adobe Illustrator 26.1.0, SVG Export Plug-In . SVG Version: 6.00 Build 0)  -->
<svg version="1.1" id="Camada_1" xmlns="http://www.w3.org/2000/svg" xmlns:xlink="http://www.w3.org/1999/xlink" x="0px" y="0px"
	 viewBox="0 0 592.8 105" style="enable-background:new 0 0 592.8 105;" xml:space="preserve">
<style type="text/css">
	.st0{fill:#6AAAC6;}
	.st1{enable-background:new    ;}
	.st2{fill:#FFFFFF;}
	.st3{clip-path:url(#SVGID_00000091007993136580439800000017693751258328476831_);}
	.st4{clip-path:url(#SVGID_00000157281447743646977480000000591553141340374913_);}
</style>
<g id="img-slide-13" transform="translate(-165 -239)">
	<path id="Retângulo_876" class="st0" d="M175,239h572.8c5.5,0,10,4.5,10,10v85c0,5.5-4.5,10-10,10H175c-5.5,0-10-4.5-10-10v-85
		C165,243.5,169.5,239,175,239z"/>
	<g class="st1">
		<path class="st2" d="M298.7,283.2c-4.7,0-8.4-2.2-8.6-6.8h6.3c0.1,1.6,1,2.1,2.1,2.1c1,0,1.9-0.5,1.9-1.5c0-3.4-10.3-1.8-10.2-9.1
			c0-4.1,3.4-6.4,7.9-6.4c4.9,0,8,2.4,8.2,6.6h-6.4c-0.1-1.3-0.9-1.9-2-1.9c-0.9,0-1.6,0.5-1.6,1.5c0,3.1,10.2,2.1,10.2,8.9
			C306.5,280.3,303.7,283.2,298.7,283.2z"/>
		<path class="st2" d="M315.5,266c2.4,0,4.1,1,4.9,2.5v-2.3h5.9V283h-5.9v-2.3c-0.9,1.5-2.6,2.5-4.9,2.5c-4,0-7.2-3.3-7.2-8.6
			S311.5,266,315.5,266z M317.4,271.1c-1.7,0-3.1,1.2-3.1,3.5c0,2.2,1.4,3.5,3.1,3.5c1.6,0,3.1-1.2,3.1-3.5
			C320.4,272.3,319,271.1,317.4,271.1z"/>
		<path class="st2" d="M346.9,283H341v-2.4c-1,1.4-2.7,2.6-5.1,2.6c-3.9,0-6.3-2.8-6.3-7.2v-9.8h5.8v9c0,2,1.1,3.1,2.8,3.1
			c1.7,0,2.8-1.1,2.8-3.1v-9h5.9V283z M341.9,257.7v4.4l-7.5,2.9v-4L341.9,257.7z"/>
		<path class="st2" d="M356.5,266c2.2,0,4,1,4.9,2.5v-7.7h5.9V283h-5.9v-2.3c-0.9,1.5-2.5,2.5-4.9,2.5c-4,0-7.2-3.3-7.2-8.6
			S352.5,266,356.5,266z M358.4,271.1c-1.7,0-3.1,1.2-3.1,3.5c0,2.2,1.4,3.5,3.1,3.5c1.6,0,3.1-1.2,3.1-3.5
			C361.4,272.3,360,271.1,358.4,271.1z"/>
		<path class="st2" d="M378.2,283.2c-5,0-8.5-3.3-8.5-8.6c0-5.3,3.5-8.6,8.5-8.6c5,0,8.5,3.2,8.5,8.4c0,0.4,0,0.9-0.1,1.4h-11.1
			c0.1,2,1.2,2.7,2.5,2.7c1.1,0,1.8-0.6,2.1-1.3h6.3C385.6,280.6,382.4,283.2,378.2,283.2z M375.5,272.9h5.2c0-1.5-1.2-2.3-2.5-2.3
			C376.8,270.6,375.8,271.4,375.5,272.9z"/>
		<path class="st2" d="M402.5,283.2c-5,0-8.5-3.3-8.5-8.6c0-5.3,3.5-8.6,8.5-8.6c5,0,8.5,3.2,8.5,8.4c0,0.4,0,0.9-0.1,1.4h-11.1
			c0.1,2,1.2,2.7,2.5,2.7c1.1,0,1.8-0.6,2.1-1.3h6.3C409.8,280.6,406.7,283.2,402.5,283.2z M406.1,257.5v4.4l-7.5,2.9v-4
			L406.1,257.5z M399.8,272.9h5.2c0-1.5-1.2-2.3-2.5-2.3C401,270.6,400,271.4,399.8,272.9z"/>
		<path class="st2" d="M425.3,266c2.2,0,4,1,4.9,2.5v-7.7h5.9V283h-5.9v-2.3c-0.9,1.5-2.5,2.5-4.9,2.5c-4,0-7.2-3.3-7.2-8.6
			S421.3,266,425.3,266z M427.2,271.1c-1.7,0-3.1,1.2-3.1,3.5c0,2.2,1.4,3.5,3.1,3.5c1.6,0,3.1-1.2,3.1-3.5
			C430.2,272.3,428.8,271.1,427.2,271.1z"/>
		<path class="st2" d="M447.1,283.2c-5,0-8.5-3.3-8.5-8.6c0-5.3,3.5-8.6,8.5-8.6c5,0,8.5,3.2,8.5,8.4c0,0.4,0,0.9-0.1,1.4h-11.1
			c0.1,2,1.2,2.7,2.5,2.7c1.1,0,1.8-0.6,2.1-1.3h6.3C454.4,280.6,451.3,283.2,447.1,283.2z M444.4,272.9h5.2c0-1.5-1.2-2.3-2.5-2.3
			C445.6,270.6,444.6,271.4,444.4,272.9z"/>
		<path class="st2" d="M480.9,274c0-1.8-1.1-2.9-2.8-2.9c-1.7,0-2.8,1-2.8,2.9v9h-5.9v-9c0-1.8-1.1-2.9-2.8-2.9
			c-1.7,0-2.8,1-2.8,2.9v9H458v-16.8h5.9v2.2c1-1.3,2.6-2.4,4.9-2.4c2.5,0,4.5,1.1,5.6,3.1c1.1-1.7,3.1-3.1,5.6-3.1
			c4.3,0,6.8,2.8,6.8,7.2v9.8h-5.9V274z"/>
		<path class="st2" d="M497.8,283.2c-5,0-8.8-3.3-8.8-8.6c0-5.3,3.8-8.6,8.8-8.6s8.8,3.3,8.8,8.6
			C506.6,279.9,502.8,283.2,497.8,283.2z M497.8,278.1c1.5,0,2.9-1.1,2.9-3.5c0-2.4-1.3-3.5-2.8-3.5s-2.8,1.1-2.8,3.5
			C495,277,496.3,278.1,497.8,278.1z"/>
		<path class="st2" d="M516.6,266c4.3,0,7.4,2.4,8.2,6.7h-6.2c-0.3-1-1-1.6-2.1-1.6c-1.4,0-2.4,1.2-2.4,3.6c0,2.4,1,3.6,2.4,3.6
			c1.1,0,1.8-0.6,2.1-1.7h6.2c-0.8,4.2-4,6.7-8.2,6.7c-5,0-8.5-3.3-8.5-8.6C508.1,269.2,511.6,266,516.6,266z"/>
		<path class="st2" d="M533.1,283h-5.9v-16.8h5.9v3c1.3-1.8,3.2-3.1,5.4-3.1v6.3h-1.7c-2.4,0-3.8,0.8-3.8,3.4V283z"/>
		<path class="st2" d="M546.9,266c2.4,0,4.1,1,4.9,2.5v-2.3h5.9V283h-5.9v-2.3c-0.9,1.5-2.6,2.5-4.9,2.5c-4,0-7.2-3.3-7.2-8.6
			S542.9,266,546.9,266z M548.8,271.1c-1.7,0-3.1,1.2-3.1,3.5c0,2.2,1.4,3.5,3.1,3.5c1.6,0,3.1-1.2,3.1-3.5
			C551.8,272.3,550.4,271.1,548.8,271.1z"/>
		<path class="st2" d="M568.6,266c4.3,0,7.4,2.4,8.2,6.7h-6.2c-0.3-1-1-1.6-2.1-1.6c-1.4,0-2.4,1.2-2.4,3.6c0,2.4,1,3.6,2.4,3.6
			c1.1,0,1.8-0.6,2.1-1.7h6.2c-0.8,4.2-4,6.7-8.2,6.7c-5,0-8.5-3.3-8.5-8.6C560.1,269.2,563.6,266,568.6,266z"/>
		<path class="st2" d="M578.8,261.6c0-1.7,1.3-3.1,3.4-3.1c2.1,0,3.4,1.4,3.4,3.1c0,1.7-1.3,3-3.4,3
			C580.1,264.6,578.8,263.3,578.8,261.6z M579.3,266.2h5.9V283h-5.9V266.2z"/>
		<path class="st2" d="M594.7,266c2.4,0,4.1,1,4.9,2.5v-2.3h5.9V283h-5.9v-2.3c-0.9,1.5-2.6,2.5-4.9,2.5c-4,0-7.2-3.3-7.2-8.6
			S590.7,266,594.7,266z M596.6,271.1c-1.7,0-3.1,1.2-3.1,3.5c0,2.2,1.4,3.5,3.1,3.5c1.6,0,3.1-1.2,3.1-3.5
			C599.7,272.3,598.3,271.1,596.6,271.1z"/>
		<path class="st2" d="M609.8,277.3h5.9l-3.9,10.3H608L609.8,277.3z"/>
	</g>
	<g class="st1">
		<path class="st2" d="M296.9,301c2.2,0,4,1,4.9,2.5v-7.7h5.9V318h-5.9v-2.3c-0.9,1.5-2.5,2.5-4.9,2.5c-4,0-7.2-3.3-7.2-8.6
			S292.9,301,296.9,301z M298.8,306.1c-1.7,0-3.1,1.2-3.1,3.5c0,2.2,1.4,3.5,3.1,3.5c1.6,0,3.1-1.2,3.1-3.5
			C301.8,307.3,300.4,306.1,298.8,306.1z"/>
		<path class="st2" d="M318.7,318.2c-5,0-8.5-3.3-8.5-8.6c0-5.3,3.5-8.6,8.5-8.6c5,0,8.5,3.2,8.5,8.4c0,0.4,0,0.9-0.1,1.4h-11.1
			c0.1,2,1.2,2.7,2.5,2.7c1.1,0,1.8-0.6,2.1-1.3h6.3C326,315.6,322.9,318.2,318.7,318.2z M316,307.9h5.2c0-1.5-1.2-2.3-2.5-2.3
			C317.2,305.6,316.2,306.4,316,307.9z"/>
		<path class="st2" d="M352.5,309c0-1.8-1.1-2.9-2.8-2.9c-1.7,0-2.8,1-2.8,2.9v9H341v-9c0-1.8-1.1-2.9-2.8-2.9c-1.7,0-2.8,1-2.8,2.9
			v9h-5.9v-16.8h5.9v2.2c1-1.3,2.6-2.4,4.9-2.4c2.5,0,4.5,1.1,5.6,3.1c1.1-1.7,3.1-3.1,5.6-3.1c4.3,0,6.8,2.8,6.8,7.2v9.8h-5.9V309z
			"/>
		<path class="st2" d="M369.4,318.2c-5,0-8.8-3.3-8.8-8.6c0-5.3,3.8-8.6,8.8-8.6s8.8,3.3,8.8,8.6
			C378.2,314.9,374.4,318.2,369.4,318.2z M369.4,313.1c1.5,0,2.9-1.1,2.9-3.5c0-2.4-1.4-3.5-2.9-3.5s-2.8,1.1-2.8,3.5
			C366.6,312,367.9,313.1,369.4,313.1z"/>
		<path class="st2" d="M388.2,301c4.3,0,7.4,2.4,8.2,6.7h-6.2c-0.3-1-1-1.6-2.1-1.6c-1.4,0-2.4,1.2-2.4,3.6c0,2.4,1,3.6,2.4,3.6
			c1.1,0,1.8-0.6,2.1-1.7h6.2c-0.8,4.2-4,6.7-8.2,6.7c-5,0-8.5-3.3-8.5-8.6C379.7,304.2,383.2,301,388.2,301z"/>
		<path class="st2" d="M404.7,318h-5.9v-16.8h5.9v3c1.3-1.8,3.2-3.1,5.4-3.1v6.3h-1.6c-2.4,0-3.8,0.8-3.8,3.4V318z"/>
		<path class="st2" d="M418.5,301c2.4,0,4.1,1,4.9,2.5v-2.3h5.9V318h-5.9v-2.3c-0.9,1.5-2.6,2.5-4.9,2.5c-4,0-7.2-3.3-7.2-8.6
			S414.5,301,418.5,301z M420.4,306.1c-1.7,0-3.1,1.2-3.1,3.5c0,2.2,1.4,3.5,3.1,3.5c1.6,0,3.1-1.2,3.1-3.5
			C423.4,307.3,422,306.1,420.4,306.1z"/>
		<path class="st2" d="M440.2,301c4.3,0,7.4,2.4,8.2,6.7h-6.2c-0.3-1-1-1.6-2.1-1.6c-1.4,0-2.4,1.2-2.4,3.6c0,2.4,1,3.6,2.4,3.6
			c1.1,0,1.8-0.6,2.1-1.7h6.2c-0.8,4.2-4,6.7-8.2,6.7c-5,0-8.5-3.3-8.5-8.6C431.7,304.2,435.2,301,440.2,301z"/>
		<path class="st2" d="M450.4,296.6c0-1.7,1.3-3.1,3.4-3.1c2.1,0,3.4,1.4,3.4,3.1c0,1.7-1.4,3-3.4,3
			C451.7,299.6,450.4,298.3,450.4,296.6z M450.9,301.2h5.9V318h-5.9V301.2z"/>
		<path class="st2" d="M466.3,301c2.4,0,4.1,1,4.9,2.5v-2.3h5.9V318h-5.9v-2.3c-0.9,1.5-2.6,2.5-4.9,2.5c-4,0-7.2-3.3-7.2-8.6
			S462.3,301,466.3,301z M468.2,306.1c-1.7,0-3.1,1.2-3.1,3.5c0,2.2,1.4,3.5,3.1,3.5c1.6,0,3.1-1.2,3.1-3.5
			C471.3,307.3,469.9,306.1,468.2,306.1z"/>
		<path class="st2" d="M493.8,318.2c-5,0-8.5-3.3-8.5-8.6c0-5.3,3.5-8.6,8.5-8.6c5,0,8.5,3.2,8.5,8.4c0,0.4,0,0.9-0.1,1.4h-11.1
			c0.1,2,1.2,2.7,2.5,2.7c1.1,0,1.8-0.6,2.1-1.3h6.3C501.2,315.6,498,318.2,493.8,318.2z M497.5,292.5v4.4l-7.5,2.9v-4L497.5,292.5z
			 M491.1,307.9h5.2c0-1.5-1.2-2.3-2.5-2.3C492.4,305.6,491.4,306.4,491.1,307.9z"/>
		<path class="st2" d="M517.6,318.2c-4.7,0-7.8-2.5-8-5.9h5.7c0.2,1.1,1.1,1.7,2.3,1.7c1,0,1.6-0.5,1.6-1.1c0-2.5-8.9-0.5-8.9-6.6
			c0-2.9,2.4-5.4,7-5.4c4.6,0,7,2.5,7.4,5.9h-5.3c-0.2-1.1-0.9-1.7-2.2-1.7c-1,0-1.5,0.4-1.5,1c0,2.4,9,0.5,9,6.9
			C524.6,316,522,318.2,517.6,318.2z"/>
		<path class="st2" d="M533.7,301c2.4,0,4.1,1,4.9,2.5v-2.3h5.9V318h-5.9v-2.3c-0.9,1.5-2.6,2.5-4.9,2.5c-4,0-7.2-3.3-7.2-8.6
			S529.7,301,533.7,301z M535.6,306.1c-1.7,0-3.1,1.2-3.1,3.5c0,2.2,1.4,3.5,3.1,3.5c1.6,0,3.1-1.2,3.1-3.5
			C538.7,307.3,537.2,306.1,535.6,306.1z"/>
		<path class="st2" d="M565.1,318h-5.9v-2.4c-1,1.4-2.7,2.6-5.1,2.6c-3.9,0-6.3-2.8-6.3-7.2v-9.8h5.8v9c0,2,1.1,3.1,2.8,3.1
			c1.7,0,2.8-1.1,2.8-3.1v-9h5.9V318z M560.2,292.7v4.4l-7.5,2.9v-4L560.2,292.7z"/>
		<path class="st2" d="M574.7,301c2.2,0,4,1,4.9,2.5v-7.7h5.9V318h-5.9v-2.3c-0.9,1.5-2.5,2.5-4.9,2.5c-4,0-7.2-3.3-7.2-8.6
			S570.7,301,574.7,301z M576.6,306.1c-1.7,0-3.1,1.2-3.1,3.5c0,2.2,1.4,3.5,3.1,3.5c1.7,0,3.1-1.2,3.1-3.5
			C579.6,307.3,578.2,306.1,576.6,306.1z"/>
		<path class="st2" d="M596.5,318.2c-5,0-8.5-3.3-8.5-8.6c0-5.3,3.5-8.6,8.5-8.6c5,0,8.5,3.2,8.5,8.4c0,0.4,0,0.9-0.1,1.4h-11.1
			c0.1,2,1.2,2.7,2.5,2.7c1.1,0,1.8-0.6,2.1-1.3h6.3C603.8,315.6,600.7,318.2,596.5,318.2z M593.8,307.9h5.2c0-1.5-1.2-2.3-2.5-2.3
			C595,305.6,594,306.4,593.8,307.9z"/>
		<path class="st2" d="M610.2,318.2c-2.1,0-3.5-1.3-3.5-3s1.3-3.1,3.5-3.1c2.1,0,3.4,1.3,3.4,3.1S612.3,318.2,610.2,318.2z"/>
	</g>
	<g id="Grupo_1330" transform="translate(187 256.708)">
		<g>
			<defs>
				<rect id="SVGID_1_" y="0.3" width="69.2" height="69.2"/>
			</defs>
			<clipPath id="SVGID_00000162336687678646668120000002530656170586250166_">
				<use xlink:href="#SVGID_1_"  style="overflow:visible;"/>
			</clipPath>
			<g id="Grupo_1329" style="clip-path:url(#SVGID_00000162336687678646668120000002530656170586250166_);">
				
					<image style="overflow:visible;enable-background:new    ;" width="64" height="64" id="Retângulo_1012" xlink:href="F8DE3D5.png"  transform="matrix(1.0819 0 0 1.0819 0 0.292)">
				</image>
			</g>
		</g>
	</g>
	<g id="Grupo_1332" transform="translate(575.932 256)">
		<g>
			<defs>
				<rect id="SVGID_00000053531139564119789330000016035015485708273024_" x="90.1" width="70" height="70"/>
			</defs>
			<clipPath id="SVGID_00000047781097113021803510000015319238727172583855_">
				<use xlink:href="#SVGID_00000053531139564119789330000016035015485708273024_"  style="overflow:visible;"/>
			</clipPath>
			<g id="Grupo_1331" style="clip-path:url(#SVGID_00000047781097113021803510000015319238727172583855_);">
				
					<image style="overflow:visible;enable-background:new    ;" width="128" height="128" id="Retângulo_1014" xlink:href="F8DE3D7.png"  transform="matrix(0.5469 0 0 0.5469 90.068 0)">
				</image>
			</g>
		</g>
	</g>
</g>
</svg>
