<svg xmlns="http://www.w3.org/2000/svg" xmlns:xlink="http://www.w3.org/1999/xlink" width="118.43" height="152.298" viewBox="0 0 118.43 152.298">
  <defs>
    <clipPath id="clip-path">
      <rect id="Retângulo_1082" data-name="Retângulo 1082" width="36.724" height="53.778" fill="none"/>
    </clipPath>
    <clipPath id="clip-path-2">
      <rect id="Retângulo_1083" data-name="Retângulo 1083" width="29.071" height="52.618" fill="none"/>
    </clipPath>
    <clipPath id="clip-path-3">
      <rect id="Retângulo_1084" data-name="Retângulo 1084" width="37.82" height="71.681" fill="none"/>
    </clipPath>
    <clipPath id="clip-path-4">
      <rect id="Retângulo_1085" data-name="Retângulo 1085" width="31.68" height="51.977" fill="none"/>
    </clipPath>
  </defs>
  <g id="img-3-slide-61" transform="translate(0 0)">
    <path id="Caminho_1844" data-name="Caminho 1844" d="M177.575,100.547c9.826,2.606,24.784,2.7,32.04-5.7,6.858-7.937,7.241-16.843,7.535-26.813a12.712,12.712,0,0,1,.552-3.78,56.081,56.081,0,0,0,1.75-10.165q.631-5.135.8-10.311a144.252,144.252,0,0,0-.8-20.481,43.387,43.387,0,0,0-2.23-10.818A17.57,17.57,0,0,0,210.642,3.8a15.542,15.542,0,0,0-8.062-2.346,21.262,21.262,0,0,0-17.015,8.855c-3.9,5.624-4.107,12.918-4.29,19.756a631.479,631.479,0,0,1-5.437,67.463,2.847,2.847,0,0,0,.374,2.355,2.747,2.747,0,0,0,1.363.661" transform="translate(-155.525 -1.454)" fill="#37474f"/>
    <path id="Caminho_1845" data-name="Caminho 1845" d="M204.04,4.7c-1.674-1.66-9.005-.693-13.292,3.733s-5.689,11.078-3.122,13.147S206.89,9.643,204.04,4.7" transform="translate(-147.785 0.362)" fill="#e9a527"/>
    <path id="Caminho_1846" data-name="Caminho 1846" d="M211.263,52.015l3.93,41.346s5.541,6.354,10.769,12.432A64.888,64.888,0,0,0,247.987,80.7c-4.121-6.354-8.051-12.155-10.146-14.734-6.787-8.345-9.523-12.4-26.577-13.955" transform="translate(-129.557 35.528)" fill="#364866"/>
    <g id="Grupo_1494" data-name="Grupo 1494" transform="translate(81.706 87.543)" opacity="0.4">
      <g id="Grupo_1493" data-name="Grupo 1493">
        <g id="Grupo_1492" data-name="Grupo 1492" clip-path="url(#clip-path)">
          <path id="Caminho_1847" data-name="Caminho 1847" d="M211.263,52.015l3.93,41.346s5.541,6.354,10.769,12.432A64.888,64.888,0,0,0,247.987,80.7c-4.121-6.354-8.051-12.155-10.146-14.734-6.787-8.345-9.523-12.4-26.577-13.955" transform="translate(-211.263 -52.016)" fill="#364866"/>
        </g>
      </g>
    </g>
    <path id="Caminho_1848" data-name="Caminho 1848" d="M176.488,87.39c1.4,6.025,3.22,14.042,4.986,22.422a64.028,64.028,0,0,0,30.508,9.921c1.368.087,2.753.139,4.138.139a64.447,64.447,0,0,0,36.066-10.977A59.769,59.769,0,0,0,258,104.479a62.711,62.711,0,0,0,7.861-7.9c.017-.208.035-.4.035-.606.19-9.817-2.372-15.081-11.185-26.214a189.479,189.479,0,0,0-14.3-16.137c-.156-.156-.294-.329-.45-.467a2.647,2.647,0,0,0-.312-.312,1.838,1.838,0,0,0-.26-.26,4.809,4.809,0,0,0-.433-.416,1.663,1.663,0,0,0-.26-.242c-.017-.035-.052-.052-.069-.069l-.017-.017-25.885-4.069-8.761,2.736-13.973,4.346c-3.913,1.333-18.647,10.337-13.505,32.533" transform="translate(-155.78 32.427)" fill="#fafafa"/>
    <path id="Caminho_1849" data-name="Caminho 1849" d="M211.923,50.135c.017.017.052.035.069.069a1.663,1.663,0,0,1,.26.242,4.811,4.811,0,0,1,.433.416,1.838,1.838,0,0,1,.26.26,2.646,2.646,0,0,1,.312.312c.156.139.294.312.45.467,5.818,6.51,12.016,19.929,14.371,28.378,1.7,3.861,2.684,12.207,3.22,22.474a62.707,62.707,0,0,0,7.861-7.9c.641-.744,1.247-1.524,1.835-2.3a34.151,34.151,0,0,0-3.463-12.362c-4.086-7.757-19.479-26.751-25.608-30.058" transform="translate(-129.074 34.153)" fill="#e9a527"/>
    <g id="Grupo_1497" data-name="Grupo 1497" transform="translate(82.849 84.288)" opacity="0.2">
      <g id="Grupo_1496" data-name="Grupo 1496">
        <g id="Grupo_1495" data-name="Grupo 1495" clip-path="url(#clip-path-2)">
          <path id="Caminho_1850" data-name="Caminho 1850" d="M211.923,50.135c.017.017.052.035.069.069a1.663,1.663,0,0,1,.26.242,4.811,4.811,0,0,1,.433.416,1.838,1.838,0,0,1,.26.26,2.646,2.646,0,0,1,.312.312c.156.139.294.312.45.467,5.818,6.51,12.016,19.929,14.371,28.378,1.7,3.861,2.684,12.207,3.22,22.474a62.707,62.707,0,0,0,7.861-7.9c.641-.744,1.247-1.524,1.835-2.3a34.151,34.151,0,0,0-3.463-12.362c-4.086-7.757-19.479-26.751-25.608-30.058" transform="translate(-211.923 -50.136)" fill="#e9a527"/>
        </g>
      </g>
    </g>
    <path id="Caminho_1851" data-name="Caminho 1851" d="M206.871,53.867c4.306,2.954,23.568,16.189,27.4,41.963,0-11.363-4.277-25.281-8.337-31.882-4.945-8.041-11.521-15.548-18.9-17.735Z" transform="translate(-132.769 31.283)" fill="#e9a527"/>
    <path id="Caminho_1852" data-name="Caminho 1852" d="M177.263,106.388c.727.571,1.454,1.108,2.2,1.628.831.589,1.68,1.143,2.528,1.679a64.028,64.028,0,0,0,30.508,9.921c.035-2.528.035-5.09.017-7.67-.121-17.5-7.757-54-7.965-58.851-.052-1.125-.069-2.008-.069-2.7a9.164,9.164,0,0,1,.069-2.459l-11.1,4.64s-7.532,1.991-12.276,3.463c-5.731,1.8-5.194,8.657-6.112,16.293-1.108,9.419.571,22.18,2.2,34.057" transform="translate(-156.295 32.544)" fill="#e9a527"/>
    <g id="Grupo_1500" data-name="Grupo 1500" transform="translate(18.412 80.479)" opacity="0.2">
      <g id="Grupo_1499" data-name="Grupo 1499">
        <g id="Grupo_1498" data-name="Grupo 1498" clip-path="url(#clip-path-3)">
          <path id="Caminho_1853" data-name="Caminho 1853" d="M177.263,106.388c.727.571,1.454,1.108,2.2,1.628.831.589,1.68,1.143,2.528,1.679a64.028,64.028,0,0,0,30.508,9.921c.035-2.528.035-5.09.017-7.67-.121-17.5-7.757-54-7.965-58.851-.052-1.125-.069-2.008-.069-2.7a9.164,9.164,0,0,1,.069-2.459l-11.1,4.64s-7.532,1.991-12.276,3.463c-5.731,1.8-5.194,8.657-6.112,16.293-1.108,9.419.571,22.18,2.2,34.057" transform="translate(-174.707 -47.936)" fill="#e9a527"/>
        </g>
      </g>
    </g>
    <path id="Caminho_1854" data-name="Caminho 1854" d="M243.593,14.5c11.743.509,18.41,18.2,10.33,30.556-14.324,21.908-48.695,8.96-48.695,8.96L198.87,72.627s-6.482-7.17-10.884-13.1c-7.933-10.686-8.792-36.116,4.119-38.642C190.2,7.783,226.3-8.269,243.593,14.5" transform="translate(-150.828 -0.284)" fill="#455a64"/>
    <path id="Caminho_1855" data-name="Caminho 1855" d="M242.553,15.263c1.91,3.859,6.465,9.694,5.755,31.112-.556,16.726-6.373,20.386-11.867,22.519-2.691,1.044-6.817,1.032-12.57.407l-.151,7.842s10.427,9.6,7.121,28.918c-32.4-13.514-32.783-29.978-32.783-29.978l-.883-26.143c-1.053,1.707-6.186,4.013-10.222-1.144-4.746-6.062-3.686-13.3.537-15.962,4.372-2.76,9.377-.14,11.308,4.8,4.548,1.892,10.582-2.824,10.29-20.417,5.553-2.907,16.364,1.2,19.83.812,5.2-.589,8.276-5.634,13.635-2.77" transform="translate(-149.62 8.008)" fill="#ffbda7"/>
    <path id="Caminho_1856" data-name="Caminho 1856" d="M187.107,33.795a2.4,2.4,0,1,0,2.717-2.022,2.386,2.386,0,0,0-2.717,2.022" transform="translate(-147.243 20.704)" fill="#e9a527"/>
    <path id="Caminho_1857" data-name="Caminho 1857" d="M216.846,52.206c-14.073-3.035-21.968-8.749-23.409-14.445,0,0,.892,7.449,4.843,10.735,5.542,4.607,18.492,7.6,18.492,7.6Z" transform="translate(-142.595 25.102)" fill="#f0997a"/>
    <path id="Caminho_1858" data-name="Caminho 1858" d="M215.579,39.134,205.76,35.51a4.978,4.978,0,0,0,2.885,6.654,5.519,5.519,0,0,0,6.934-3.03" transform="translate(-133.876 23.456)" fill="#b16668"/>
    <path id="Caminho_1859" data-name="Caminho 1859" d="M210.866,41.432a5.318,5.318,0,0,1-2.24-.3,4.947,4.947,0,0,1-3.241-4.207,6.029,6.029,0,0,1,5.482,4.509" transform="translate(-133.857 24.489)" fill="#f28f8f"/>
    <path id="Caminho_1860" data-name="Caminho 1860" d="M203.69,29.06a2.849,2.849,0,1,0,2.848-2.827,2.838,2.838,0,0,0-2.848,2.827" transform="translate(-135.096 16.67)" fill="#263238"/>
    <path id="Caminho_1861" data-name="Caminho 1861" d="M215.217,28.506a2.848,2.848,0,1,0,2.848-2.827,2.838,2.838,0,0,0-2.848,2.827" transform="translate(-126.665 16.265)" fill="#263238"/>
    <path id="Caminho_1862" data-name="Caminho 1862" d="M209.873,24.246,211.391,43.3l9.067-3.593Z" transform="translate(-130.574 15.217)" fill="#f0997a"/>
    <path id="Caminho_1863" data-name="Caminho 1863" d="M222.25,26.567l-6.531-2.254a3.326,3.326,0,0,1,4.287-2.182,3.6,3.6,0,0,1,2.244,4.436" transform="translate(-126.297 13.533)" fill="#263238"/>
    <path id="Caminho_1864" data-name="Caminho 1864" d="M202.285,27.263,208.71,24.5a3.369,3.369,0,0,0-4.495-1.884,3.641,3.641,0,0,0-1.931,4.647" transform="translate(-136.305 13.819)" fill="#263238"/>
    <path id="Caminho_1865" data-name="Caminho 1865" d="M196.5,45.04c-2.161-.1-2.724,1.224-5.582,4.477a41.522,41.522,0,0,1-5.381,5.173c2.642,16.066,15.294,36.1,18.9,54.971.156-15.275-3.936-36.273-7.805-59.611Z" transform="translate(-148.375 30.422)" fill="#364866"/>
    <path id="Caminho_1866" data-name="Caminho 1866" d="M164.074,75.106a64.792,64.792,0,0,0,23.165,29.486c2.859-5.212,5.09-9,5.09-9s9.609-26.837-3.376-42.974c-10.891,2.58-16.587,5.783-20.015,12.691-1.506,3.047-3.169,6.285-4.864,9.8" transform="translate(-164.072 35.967)" fill="#364866"/>
    <g id="Grupo_1503" data-name="Grupo 1503" transform="translate(0 88.582)" opacity="0.4">
      <g id="Grupo_1502" data-name="Grupo 1502">
        <g id="Grupo_1501" data-name="Grupo 1501" clip-path="url(#clip-path-4)">
          <path id="Caminho_1867" data-name="Caminho 1867" d="M164.074,75.106a64.792,64.792,0,0,0,23.165,29.486c2.859-5.212,5.09-9,5.09-9s9.609-26.837-3.376-42.974c-10.891,2.58-16.587,5.783-20.015,12.691-1.506,3.047-3.169,6.285-4.864,9.8" transform="translate(-164.072 -52.616)" fill="#364866"/>
        </g>
      </g>
    </g>
  </g>
</svg>
