<?xml version="1.0" encoding="utf-8"?>
<!-- Generator: Adobe Illustrator 26.1.0, SVG Export Plug-In . SVG Version: 6.00 Build 0)  -->
<svg version="1.1" id="Camada_1" xmlns="http://www.w3.org/2000/svg" xmlns:xlink="http://www.w3.org/1999/xlink" x="0px" y="0px"
	 viewBox="0 0 687 293" style="enable-background:new 0 0 687 293;" xml:space="preserve">
<style type="text/css">
	.st0{opacity:0.8;fill:#6AAAC6;enable-background:new    ;}
	.st1{enable-background:new    ;}
	.st2{fill:#294667;}
	.st3{opacity:0.6;fill:#E4E4E4;enable-background:new    ;}
</style>
<g id="img-slide-8" transform="translate(-94 -154.25)">
	<g id="Grupo_1623" transform="translate(-52 46)">
		<path id="Caminho_1528" class="st0" d="M303,316.6v-28.7h17.5c0.8-4.8,2.1-9.4,3.7-14l-15.1-8.7l14.4-24.9l15.1,8.7
			c3.1-3.7,6.5-7.1,10.2-10.2l-8.7-15.1l24.9-14.4l8.7,15.1c4.5-1.6,9.2-2.9,14-3.7v-17.5h28.7v17.5c4.8,0.8,9.4,2.1,14,3.7
			l8.7-15.1l24.9,14.4l-8.7,15.2c3.7,3.1,7.1,6.5,10.2,10.2l15.1-8.7l14.4,24.9l-15.1,8.7c1.6,4.5,2.9,9.2,3.7,14H501v28.7h-17.5
			c-0.8,4.8-2.1,9.4-3.7,14l15.1,8.7l-14.4,24.9l-15.2-8.7c-3.1,3.7-6.5,7.1-10.2,10.2l8.7,15.1L439,395.2l-8.7-15.1
			c-4.5,1.6-9.2,2.9-14,3.7v17.5h-28.7v-17.5c-4.8-0.8-9.4-2.1-14-3.7l-8.7,15.1L340,380.8l8.7-15.2c-3.7-3.1-7.1-6.5-10.2-10.2
			l-15.1,8.7l-14.4-24.9l15.1-8.7c-1.6-4.5-2.9-9.2-3.7-14H303z M402,355.8c29.6,0,53.5-24,53.5-53.5s-24-53.5-53.5-53.5
			c-29.6,0-53.5,24-53.5,53.5c0,0,0,0,0,0C348.5,331.8,372.4,355.8,402,355.8"/>
		<g class="st1">
			<path class="st2" d="M349.5,278.3h-3.6v2h3.2v1.8h-3.2v2.2h3.6v1.9h-6v-9.8h6V278.3z"/>
			<path class="st2" d="M354.2,286.4c-2.1,0-3.5-1.2-3.6-2.7h2.4c0.1,0.5,0.5,0.9,1.2,0.9c0.6,0,0.9-0.3,0.9-0.6
				c0-1.3-4.3-0.4-4.3-3.2c0-1.3,1.1-2.4,3.2-2.4c2,0,3.1,1.1,3.3,2.7h-2.2c-0.1-0.5-0.5-0.9-1.1-0.9c-0.6,0-0.9,0.2-0.9,0.6
				c0,1.2,4.2,0.4,4.3,3.3C357.4,285.3,356.2,286.4,354.2,286.4z"/>
			<path class="st2" d="M363.6,278.3c1.9,0,3.4,1.5,3.4,4c0,2.5-1.5,4-3.4,4c-1.1,0-2-0.5-2.4-1.2v4.8h-2.4v-11.5h2.4v1.1
				C361.7,278.9,362.5,278.3,363.6,278.3z M362.9,280.4c-0.9,0-1.7,0.7-1.7,1.9c0,1.2,0.8,1.9,1.7,1.9c0.9,0,1.7-0.7,1.7-1.9
				C364.7,281.1,363.8,280.4,362.9,280.4z"/>
			<path class="st2" d="M371.8,286.4c-2.3,0-4-1.5-4-4s1.6-4,4-4c2.3,0,3.9,1.5,3.9,3.9c0,0.2,0,0.5,0,0.7h-5.4
				c0.1,1,0.7,1.5,1.5,1.5c0.7,0,1.1-0.3,1.2-0.8h2.5C375.2,285.2,373.8,286.4,371.8,286.4z M370.3,281.6h3c0-0.9-0.7-1.3-1.5-1.3
				C371,280.2,370.4,280.7,370.3,281.6z"/>
			<path class="st2" d="M380.4,278.3c2,0,3.3,1.1,3.8,2.9h-2.5c-0.2-0.5-0.6-0.9-1.2-0.9c-0.9,0-1.4,0.7-1.4,2s0.6,2,1.4,2
				c0.7,0,1-0.3,1.2-0.9h2.5c-0.4,1.8-1.8,2.9-3.8,2.9c-2.3,0-3.9-1.5-3.9-4C376.5,279.9,378.1,278.3,380.4,278.3z"/>
			<path class="st2" d="M385.2,276.3c0-0.7,0.6-1.3,1.4-1.3c0.8,0,1.4,0.6,1.4,1.3c0,0.7-0.6,1.3-1.4,1.3
				C385.8,277.6,385.2,277,385.2,276.3z M385.4,278.4h2.4v7.8h-2.4V278.4z"/>
			<path class="st2" d="M392.5,278.3c1.2,0,2,0.5,2.4,1.2v-1.1h2.4v7.8H395v-1.1c-0.4,0.7-1.3,1.2-2.4,1.2c-1.9,0-3.4-1.6-3.4-4
				C389.1,279.9,390.6,278.3,392.5,278.3z M393.2,280.4c-0.9,0-1.7,0.7-1.7,1.9c0,1.2,0.8,1.9,1.7,1.9c0.9,0,1.7-0.7,1.7-1.9
				C395,281.1,394.2,280.4,393.2,280.4z"/>
			<path class="st2" d="M399.1,275.9h2.4v10.4h-2.4V275.9z"/>
			<path class="st2" d="M403,276.3c0-0.7,0.6-1.3,1.4-1.3c0.8,0,1.4,0.6,1.4,1.3c0,0.7-0.6,1.3-1.4,1.3
				C403.6,277.6,403,277,403,276.3z M403.2,278.4h2.4v7.8h-2.4V278.4z"/>
			<path class="st2" d="M412.9,280.3l-3.3,3.9h3.4v2h-6.1v-1.9l3.2-3.9h-3.2v-2h6V280.3z"/>
			<path class="st2" d="M417.3,278.3c1.2,0,2,0.5,2.4,1.2v-1.1h2.4v7.8h-2.4v-1.1c-0.4,0.7-1.3,1.2-2.4,1.2c-1.9,0-3.4-1.6-3.4-4
				C413.8,279.9,415.3,278.3,417.3,278.3z M418,280.4c-0.9,0-1.7,0.7-1.7,1.9c0,1.2,0.8,1.9,1.7,1.9c0.9,0,1.7-0.7,1.7-1.9
				C419.7,281.1,418.9,280.4,418,280.4z"/>
			<path class="st2" d="M427.2,278.3c2,0,3.3,1.1,3.8,2.9h-2.5c-0.2-0.5-0.6-0.9-1.2-0.9c-0.9,0-1.4,0.7-1.4,2s0.6,2,1.4,2
				c0.7,0,1-0.3,1.2-0.9h2.5c-0.4,1.6-1.5,2.6-3.1,2.9v0.5c0.8,0,1.8,0.4,1.8,1.6c0,1.1-1,1.6-1.9,1.6h-2.2v-1.3h1.8
				c0.4,0,0.6-0.1,0.6-0.4c0-0.3-0.2-0.4-0.6-0.4h-1v-1.7c-1.9-0.3-3.2-1.8-3.2-4C423.3,279.9,424.9,278.3,427.2,278.3z"/>
			<path class="st2" d="M435.2,278.3c1.2,0,2,0.5,2.4,1.2v-1.1h2.4v7.8h-2.4v-1.1c-0.4,0.7-1.3,1.2-2.4,1.2c-1.9,0-3.4-1.6-3.4-4
				C431.8,279.9,433.3,278.3,435.2,278.3z M435.3,275.7c0.8,0,1.3,0.6,1.8,0.6c0.3,0,0.5-0.2,0.6-0.6h1.2c-0.2,1.5-1,2.1-1.9,2.1
				c-0.8,0-1.3-0.6-1.8-0.6c-0.3,0-0.5,0.2-0.6,0.6h-1.2C433.6,276.3,434.3,275.7,435.3,275.7z M435.9,280.4c-0.9,0-1.7,0.7-1.7,1.9
				c0,1.2,0.8,1.9,1.7,1.9c0.9,0,1.7-0.7,1.7-1.9C437.6,281.1,436.8,280.4,435.9,280.4z"/>
			<path class="st2" d="M445.3,286.4c-2.3,0-4-1.5-4-4s1.8-4,4.1-4c2.3,0,4.1,1.5,4.1,4S447.6,286.4,445.3,286.4z M445.3,284.3
				c0.9,0,1.7-0.6,1.7-1.9c0-1.3-0.8-1.9-1.6-1.9c-0.9,0-1.6,0.6-1.6,1.9C443.7,283.7,444.5,284.3,445.3,284.3z"/>
			<path class="st2" d="M457.1,286.4c-2.3,0-4-1.5-4-4s1.6-4,4-4c2.3,0,3.9,1.5,3.9,3.9c0,0.2,0,0.5,0,0.7h-5.4
				c0.1,1,0.7,1.5,1.5,1.5c0.7,0,1.1-0.3,1.2-0.8h2.5C460.5,285.2,459.1,286.4,457.1,286.4z M455.6,281.6h3c0-0.9-0.7-1.3-1.5-1.3
				C456.3,280.2,455.7,280.7,455.6,281.6z"/>
		</g>
		<g class="st1">
			<path class="st2" d="M349.1,301.4h-0.9v-2h0.9v-0.2c0-2,1.3-3.1,3.6-2.9v2c-0.9-0.1-1.2,0.2-1.2,1v0.1h1.3v2h-1.3v5.8h-2.4V301.4
				z"/>
			<path class="st2" d="M356.3,307.2h-2.4v-7.8h2.4v1.3c0.5-0.8,1.4-1.4,2.5-1.4v2.5h-0.7c-1.1,0-1.8,0.4-1.8,1.7V307.2z"/>
			<path class="st2" d="M362.9,299.3c1.2,0,2,0.5,2.4,1.2v-1.1h2.4v7.8h-2.4v-1.1c-0.4,0.7-1.3,1.2-2.4,1.2c-1.9,0-3.4-1.6-3.4-4
				C359.4,300.9,361,299.3,362.9,299.3z M363.6,301.4c-0.9,0-1.7,0.7-1.7,1.9c0,1.2,0.8,1.9,1.7,1.9c0.9,0,1.7-0.7,1.7-1.9
				C365.3,302.1,364.5,301.4,363.6,301.4z"/>
			<path class="st2" d="M372.4,299.3c1.1,0,2,0.5,2.4,1.2v-1.1h2.4v7.8c0,2.1-1.2,3.9-3.9,3.9c-2.3,0-3.8-1.2-4-3h2.4
				c0.2,0.6,0.7,1,1.6,1c0.9,0,1.6-0.5,1.6-1.8v-1.1c-0.4,0.7-1.3,1.2-2.4,1.2c-1.9,0-3.4-1.6-3.4-4
				C368.9,300.9,370.5,299.3,372.4,299.3z M373.1,301.4c-0.9,0-1.7,0.7-1.7,1.9c0,1.2,0.8,1.9,1.7,1.9c0.9,0,1.7-0.7,1.7-1.9
				C374.8,302.1,374,301.4,373.1,301.4z"/>
			<path class="st2" d="M389.7,303c0-1-0.6-1.6-1.5-1.6c-0.9,0-1.5,0.6-1.5,1.6v4.2h-2.4V303c0-1-0.6-1.6-1.5-1.6
				c-0.9,0-1.5,0.6-1.5,1.6v4.2h-2.4v-7.8h2.4v1c0.5-0.6,1.3-1.1,2.3-1.1c1.2,0,2.1,0.5,2.7,1.5c0.5-0.8,1.5-1.5,2.6-1.5
				c1.9,0,3.2,1.2,3.2,3.3v4.6h-2.4V303z"/>
			<path class="st2" d="M397.2,307.4c-2.3,0-4-1.5-4-4s1.6-4,4-4c2.3,0,3.9,1.5,3.9,3.9c0,0.2,0,0.5,0,0.7h-5.4
				c0.1,1,0.7,1.5,1.5,1.5c0.7,0,1.1-0.3,1.2-0.8h2.5C400.6,306.2,399.2,307.4,397.2,307.4z M395.7,302.6h3c0-0.9-0.7-1.3-1.5-1.3
				C396.4,301.2,395.8,301.7,395.7,302.6z"/>
			<path class="st2" d="M407.8,303c0-1.1-0.6-1.7-1.5-1.7s-1.5,0.6-1.5,1.7v4.2h-2.4v-7.8h2.4v1c0.5-0.7,1.3-1.1,2.4-1.1
				c1.8,0,3,1.2,3,3.3v4.6h-2.4V303z"/>
			<path class="st2" d="M412.2,301.4h-1v-2h1v-1.9h2.4v1.9h1.6v2h-1.6v3.1c0,0.5,0.2,0.7,0.7,0.7h0.9v2h-1.2c-1.6,0-2.8-0.7-2.8-2.7
				V301.4z"/>
			<path class="st2" d="M420.5,299.3c1.2,0,2,0.5,2.4,1.2v-1.1h2.4v7.8h-2.4v-1.1c-0.4,0.7-1.3,1.2-2.4,1.2c-1.9,0-3.4-1.6-3.4-4
				C417,300.9,418.5,299.3,420.5,299.3z M421.2,301.4c-0.9,0-1.7,0.7-1.7,1.9c0,1.2,0.8,1.9,1.7,1.9c0.9,0,1.7-0.7,1.7-1.9
				C422.9,302.1,422.1,301.4,421.2,301.4z"/>
			<path class="st2" d="M430.4,299.3c2,0,3.3,1.1,3.8,2.9h-2.5c-0.2-0.5-0.6-0.9-1.2-0.9c-0.9,0-1.4,0.7-1.4,2s0.6,2,1.4,2
				c0.7,0,1-0.3,1.2-0.9h2.5c-0.4,1.6-1.5,2.6-3.1,2.9v0.5c0.8,0,1.8,0.4,1.8,1.6c0,1.1-1,1.6-1.9,1.6h-2.2v-1.3h1.8
				c0.3,0,0.6-0.1,0.6-0.4c0-0.3-0.2-0.4-0.6-0.4h-1v-1.7c-1.9-0.3-3.2-1.8-3.2-4C426.5,300.9,428.1,299.3,430.4,299.3z"/>
			<path class="st2" d="M438.4,299.3c1.2,0,2,0.5,2.4,1.2v-1.1h2.4v7.8h-2.4v-1.1c-0.4,0.7-1.3,1.2-2.4,1.2c-1.9,0-3.4-1.6-3.4-4
				C435,300.9,436.5,299.3,438.4,299.3z M438.5,296.7c0.8,0,1.3,0.6,1.8,0.6c0.3,0,0.5-0.2,0.6-0.6h1.2c-0.2,1.5-1,2.1-1.9,2.1
				c-0.8,0-1.3-0.6-1.8-0.6c-0.3,0-0.5,0.2-0.6,0.6h-1.2C436.8,297.3,437.5,296.7,438.5,296.7z M439.1,301.4c-0.9,0-1.7,0.7-1.7,1.9
				c0,1.2,0.8,1.9,1.7,1.9c0.9,0,1.7-0.7,1.7-1.9C440.8,302.1,440,301.4,439.1,301.4z"/>
			<path class="st2" d="M448.5,307.4c-2.3,0-4-1.5-4-4s1.8-4,4.1-4c2.3,0,4.1,1.5,4.1,4S450.8,307.4,448.5,307.4z M448.5,305.3
				c0.9,0,1.7-0.6,1.7-1.9c0-1.3-0.8-1.9-1.6-1.9c-0.9,0-1.6,0.6-1.6,1.9C446.9,304.7,447.7,305.3,448.5,305.3z"/>
		</g>
		<g class="st1">
			<path class="st2" d="M361.8,320.3c1,0,1.9,0.5,2.4,1.2v-3.6h2.4v10.4h-2.4v-1.1c-0.4,0.7-1.3,1.2-2.4,1.2c-1.9,0-3.4-1.6-3.4-4
				C358.4,321.9,359.9,320.3,361.8,320.3z M362.5,322.4c-0.9,0-1.7,0.7-1.7,1.9c0,1.2,0.8,1.9,1.7,1.9c0.9,0,1.7-0.7,1.7-1.9
				C364.2,323.1,363.4,322.4,362.5,322.4z"/>
			<path class="st2" d="M371.9,328.4c-2.3,0-4-1.5-4-4s1.8-4,4.1-4c2.3,0,4.1,1.5,4.1,4S374.2,328.4,371.9,328.4z M371.9,326.3
				c0.9,0,1.7-0.6,1.7-1.9c0-1.3-0.8-1.9-1.6-1.9c-0.9,0-1.6,0.6-1.6,1.9C370.3,325.7,371.1,326.3,371.9,326.3z"/>
			<path class="st2" d="M380.6,322.4h-1v-2h1v-1.9h2.4v1.9h1.6v2H383v3.1c0,0.5,0.2,0.7,0.7,0.7h0.9v2h-1.2c-1.6,0-2.8-0.7-2.8-2.7
				V322.4z"/>
			<path class="st2" d="M388.3,328.2h-2.4v-7.8h2.4v1.3c0.5-0.8,1.4-1.4,2.5-1.4v2.5h-0.7c-1.1,0-1.8,0.4-1.8,1.7V328.2z"/>
			<path class="st2" d="M394.9,320.3c1.2,0,2,0.5,2.4,1.2v-1.1h2.4v7.8h-2.4v-1.1c-0.4,0.7-1.3,1.2-2.4,1.2c-1.9,0-3.4-1.6-3.4-4
				C391.5,321.9,393,320.3,394.9,320.3z M395.6,322.4c-0.9,0-1.7,0.7-1.7,1.9c0,1.2,0.8,1.9,1.7,1.9c0.9,0,1.7-0.7,1.7-1.9
				C397.3,323.1,396.5,322.4,395.6,322.4z"/>
			<path class="st2" d="M406.2,320.3c1.9,0,3.4,1.5,3.4,4c0,2.5-1.5,4-3.4,4c-1.1,0-2-0.5-2.4-1.2v1.1h-2.4v-10.4h2.4v3.7
				C404.3,320.8,405.1,320.3,406.2,320.3z M405.5,322.4c-0.9,0-1.7,0.7-1.7,1.9c0,1.2,0.8,1.9,1.7,1.9c0.9,0,1.7-0.7,1.7-1.9
				C407.2,323.1,406.4,322.4,405.5,322.4z"/>
			<path class="st2" d="M413.9,320.3c1.2,0,2,0.5,2.4,1.2v-1.1h2.4v7.8h-2.4v-1.1c-0.4,0.7-1.3,1.2-2.4,1.2c-1.9,0-3.4-1.6-3.4-4
				C410.5,321.9,412,320.3,413.9,320.3z M414.6,322.4c-0.9,0-1.7,0.7-1.7,1.9c0,1.2,0.8,1.9,1.7,1.9c0.9,0,1.7-0.7,1.7-1.9
				C416.3,323.1,415.5,322.4,414.6,322.4z"/>
			<path class="st2" d="M420.4,317.9h2.4v10.4h-2.4V317.9z"/>
			<path class="st2" d="M424.6,317.9h2.4v3.6c0.5-0.7,1.3-1.1,2.4-1.1c1.8,0,3,1.2,3,3.3v4.6H430V324c0-1.1-0.6-1.7-1.5-1.7
				c-0.9,0-1.5,0.6-1.5,1.7v4.2h-2.4V317.9z"/>
			<path class="st2" d="M437.6,328.4c-2.3,0-4-1.5-4-4s1.8-4,4.1-4c2.3,0,4.1,1.5,4.1,4S439.9,328.4,437.6,328.4z M437.6,326.3
				c0.9,0,1.7-0.6,1.7-1.9c0-1.3-0.8-1.9-1.6-1.9c-0.9,0-1.6,0.6-1.6,1.9C436,325.7,436.7,326.3,437.6,326.3z"/>
			<path class="st2" d="M444,328.4c-0.9,0-1.4-0.6-1.4-1.3c0-0.7,0.6-1.3,1.4-1.3c0.8,0,1.4,0.6,1.4,1.3
				C445.5,327.8,444.9,328.4,444,328.4z"/>
		</g>
	</g>
	<g id="Grupo_1695" transform="translate(280 -27)">
		<path id="Caminho_1528-2" class="st0" d="M303,316.6v-28.7h17.5c0.8-4.8,2.1-9.4,3.7-14l-15.1-8.7l14.4-24.9l15.1,8.7
			c3.1-3.7,6.5-7.1,10.2-10.2l-8.7-15.1l24.9-14.4l8.7,15.1c4.5-1.6,9.2-2.9,14-3.7v-17.5h28.7v17.5c4.8,0.8,9.4,2.1,14,3.7
			l8.7-15.1l24.9,14.4l-8.7,15.2c3.7,3.1,7.1,6.5,10.2,10.2l15.1-8.7l14.4,24.9l-15.1,8.7c1.6,4.5,2.9,9.2,3.7,14H501v28.7h-17.5
			c-0.8,4.8-2.1,9.4-3.7,14l15.1,8.7l-14.4,24.9l-15.2-8.7c-3.1,3.7-6.5,7.1-10.2,10.2l8.7,15.1L439,395.2l-8.7-15.1
			c-4.5,1.6-9.2,2.9-14,3.7v17.5h-28.7v-17.5c-4.8-0.8-9.4-2.1-14-3.7l-8.7,15.1L340,380.8l8.7-15.2c-3.7-3.1-7.1-6.5-10.2-10.2
			l-15.1,8.7l-14.4-24.9l15.1-8.7c-1.6-4.5-2.9-9.2-3.7-14H303z M402,355.8c29.6,0,53.5-24,53.5-53.5s-24-53.5-53.5-53.5
			c-29.6,0-53.5,24-53.5,53.5c0,0,0,0,0,0C348.5,331.8,372.4,355.8,402,355.8"/>
		<g class="st1">
			<path class="st2" d="M329.2,291.7c0,2.7-1.9,4.6-4.8,4.6H321v-9.1h3.4C327.3,287.1,329.2,289,329.2,291.7z M324.3,294.3
				c1.7,0,2.7-1,2.7-2.6c0-1.7-1-2.7-2.7-2.7h-1.1v5.3H324.3z"/>
			<path class="st2" d="M330.2,287c0-0.7,0.5-1.2,1.3-1.2c0.8,0,1.3,0.5,1.3,1.2c0,0.7-0.5,1.2-1.3,1.2
				C330.8,288.2,330.2,287.7,330.2,287z M330.4,289h2.2v7.3h-2.2V289z"/>
			<path class="st2" d="M337.2,296.4c-1.9,0-3.2-1.1-3.3-2.5h2.2c0.1,0.5,0.5,0.8,1.1,0.8c0.6,0,0.9-0.3,0.9-0.6c0-1.2-4-0.3-4-3
				c0-1.2,1.1-2.2,3-2.2c1.9,0,2.9,1,3.1,2.5h-2.1c-0.1-0.5-0.4-0.8-1.1-0.8c-0.5,0-0.8,0.2-0.8,0.6c0,1.2,3.9,0.3,4,3
				C340.2,295.4,339.1,296.4,337.2,296.4z"/>
			<path class="st2" d="M341.9,290.8H341V289h0.9v-1.8h2.2v1.8h1.5v1.8h-1.5v2.9c0,0.4,0.2,0.6,0.7,0.6h0.8v1.9h-1.1
				c-1.5,0-2.6-0.6-2.6-2.5V290.8z"/>
			<path class="st2" d="M346.6,287c0-0.7,0.5-1.2,1.3-1.2c0.8,0,1.3,0.5,1.3,1.2c0,0.7-0.5,1.2-1.3,1.2
				C347.1,288.2,346.6,287.7,346.6,287z M346.8,289h2.2v7.3h-2.2V289z"/>
			<path class="st2" d="M355.7,292.3c0-1-0.5-1.5-1.4-1.5s-1.4,0.5-1.4,1.5v3.9h-2.2V289h2.2v1c0.4-0.6,1.2-1,2.2-1
				c1.7,0,2.8,1.1,2.8,3.1v4.2h-2.2V292.3z"/>
			<path class="st2" d="M362.6,288.9c1.8,0,3.1,1,3.5,2.7h-2.4c-0.2-0.5-0.5-0.8-1.2-0.8c-0.8,0-1.3,0.6-1.3,1.8s0.5,1.8,1.3,1.8
				c0.6,0,1-0.3,1.2-0.8h2.4c-0.3,1.5-1.4,2.5-2.8,2.7v0.5c0.8,0,1.7,0.4,1.7,1.5c0,1.1-0.9,1.5-1.8,1.5h-2v-1.2h1.7
				c0.3,0,0.5-0.1,0.5-0.3c0-0.2-0.2-0.3-0.5-0.3h-0.9v-1.6c-1.8-0.3-3-1.6-3-3.7C359,290.3,360.5,288.9,362.6,288.9z"/>
			<path class="st2" d="M370,288.9c1.1,0,1.8,0.5,2.2,1.1v-1h2.2v7.3h-2.2v-1c-0.4,0.6-1.2,1.1-2.2,1.1c-1.8,0-3.2-1.5-3.2-3.7
				C366.8,290.3,368.3,288.9,370,288.9z M370.1,286.5c0.8,0,1.2,0.6,1.7,0.6c0.3,0,0.5-0.2,0.6-0.6h1.1c-0.2,1.4-0.9,1.9-1.8,1.9
				c-0.8,0-1.2-0.6-1.7-0.6c-0.3,0-0.5,0.2-0.6,0.6h-1.1C368.6,287,369.2,286.5,370.1,286.5z M370.7,290.8c-0.8,0-1.6,0.6-1.6,1.8
				c0,1.2,0.8,1.8,1.6,1.8c0.8,0,1.6-0.6,1.6-1.8S371.5,290.8,370.7,290.8z"/>
			<path class="st2" d="M379.4,296.4c-2.1,0-3.7-1.4-3.7-3.7s1.7-3.7,3.8-3.7c2.1,0,3.8,1.4,3.8,3.7S381.5,296.4,379.4,296.4z
				 M379.4,294.4c0.8,0,1.5-0.6,1.5-1.8c0-1.2-0.7-1.8-1.5-1.8c-0.8,0-1.5,0.6-1.5,1.8C377.9,293.8,378.6,294.4,379.4,294.4z"/>
			<path class="st2" d="M389.9,288.9c1,0,1.8,0.4,2.2,1.1v-3.4h2.2v9.6h-2.2v-1c-0.4,0.7-1.2,1.1-2.2,1.1c-1.8,0-3.2-1.5-3.2-3.7
				C386.7,290.3,388.1,288.9,389.9,288.9z M390.5,290.8c-0.8,0-1.6,0.6-1.6,1.8c0,1.2,0.8,1.8,1.6,1.8c0.8,0,1.6-0.6,1.6-1.8
				S391.4,290.8,390.5,290.8z"/>
			<path class="st2" d="M399.2,296.4c-2.1,0-3.7-1.4-3.7-3.7s1.5-3.7,3.7-3.7c2.1,0,3.6,1.4,3.6,3.6c0,0.2,0,0.4,0,0.7h-5
				c0.1,0.9,0.7,1.4,1.4,1.4c0.6,0,1-0.3,1.2-0.7h2.4C402.3,295.3,401,296.4,399.2,296.4z M397.7,291.9h2.8c0-0.8-0.6-1.2-1.4-1.2
				C398.4,290.7,397.9,291.1,397.7,291.9z"/>
			<path class="st2" d="M411.2,288.9c1.8,0,3.2,1.4,3.2,3.7c0,2.3-1.4,3.7-3.2,3.7c-1.1,0-1.8-0.5-2.2-1.1v4.5h-2.2V289h2.2v1
				C409.4,289.4,410.1,288.9,411.2,288.9z M410.5,290.8c-0.8,0-1.6,0.6-1.6,1.8s0.8,1.8,1.6,1.8c0.8,0,1.6-0.7,1.6-1.8
				C412.1,291.5,411.4,290.8,410.5,290.8z"/>
			<path class="st2" d="M418.9,296.4c-2.1,0-3.7-1.4-3.7-3.7s1.7-3.7,3.8-3.7c2.1,0,3.8,1.4,3.8,3.7S421,296.4,418.9,296.4z
				 M418.9,294.4c0.8,0,1.5-0.6,1.5-1.8c0-1.2-0.7-1.8-1.5-1.8c-0.8,0-1.5,0.6-1.5,1.8C417.4,293.8,418.1,294.4,418.9,294.4z"/>
			<path class="st2" d="M426.6,288.9c1,0,1.8,0.4,2.2,1.1v-3.4h2.2v9.6h-2.2v-1c-0.4,0.7-1.2,1.1-2.2,1.1c-1.8,0-3.2-1.5-3.2-3.7
				C423.4,290.3,424.8,288.9,426.6,288.9z M427.2,290.8c-0.8,0-1.6,0.6-1.6,1.8c0,1.2,0.8,1.8,1.6,1.8c0.8,0,1.6-0.6,1.6-1.8
				S428.1,290.8,427.2,290.8z"/>
			<path class="st2" d="M435.9,296.4c-2.1,0-3.7-1.4-3.7-3.7s1.5-3.7,3.7-3.7c2.1,0,3.6,1.4,3.6,3.6c0,0.2,0,0.4,0,0.7h-5
				c0.1,0.9,0.7,1.4,1.4,1.4c0.6,0,1-0.3,1.2-0.7h2.4C439,295.3,437.7,296.4,435.9,296.4z M434.4,291.9h2.8c0-0.8-0.6-1.2-1.4-1.2
				C435.1,290.7,434.6,291.1,434.4,291.9z"/>
			<path class="st2" d="M442.9,296.2h-2.2V289h2.2v1.2c0.5-0.8,1.3-1.3,2.3-1.3v2.4h-0.6c-1.1,0-1.7,0.4-1.7,1.6V296.2z"/>
			<path class="st2" d="M452.2,296.4c-2.1,0-3.7-1.4-3.7-3.7s1.5-3.7,3.7-3.7c2.1,0,3.6,1.4,3.6,3.6c0,0.2,0,0.4,0,0.7h-5
				c0.1,0.9,0.7,1.4,1.4,1.4c0.6,0,1-0.3,1.2-0.7h2.4C455.3,295.3,454,296.4,452.2,296.4z M450.8,291.9h2.8c0-0.8-0.6-1.2-1.4-1.2
				C451.5,290.7,450.9,291.1,450.8,291.9z"/>
			<path class="st2" d="M462,292.3c0-1-0.5-1.5-1.4-1.5c-0.8,0-1.4,0.5-1.4,1.5v3.9H457V289h2.2v1c0.4-0.6,1.2-1,2.2-1
				c1.7,0,2.8,1.1,2.8,3.1v4.2H462V292.3z"/>
			<path class="st2" d="M466.1,290.8h-0.9V289h0.9v-1.8h2.2v1.8h1.5v1.8h-1.5v2.9c0,0.4,0.2,0.6,0.7,0.6h0.8v1.9h-1.1
				c-1.5,0-2.6-0.6-2.6-2.5V290.8z"/>
			<path class="st2" d="M473.3,296.2H471V289h2.2v1.2c0.5-0.8,1.3-1.3,2.3-1.3v2.4h-0.6c-1.1,0-1.7,0.4-1.7,1.6V296.2z"/>
			<path class="st2" d="M479.8,296.4c-2.1,0-3.7-1.4-3.7-3.7s1.5-3.7,3.7-3.7c2.1,0,3.6,1.4,3.6,3.6c0,0.2,0,0.4,0,0.7h-5
				c0.1,0.9,0.7,1.4,1.4,1.4c0.6,0,1-0.3,1.2-0.7h2.4C482.9,295.3,481.6,296.4,479.8,296.4z M478.4,291.9h2.8c0-0.8-0.6-1.2-1.4-1.2
				C479.1,290.7,478.5,291.1,478.4,291.9z"/>
		</g>
		<g class="st1">
			<path class="st2" d="M325.5,308.9c1,0,1.8,0.4,2.2,1.1v-3.4h2.2v9.6h-2.2v-1c-0.4,0.7-1.2,1.1-2.2,1.1c-1.8,0-3.2-1.5-3.2-3.7
				C322.3,310.3,323.8,308.9,325.5,308.9z M326.2,310.8c-0.8,0-1.6,0.6-1.6,1.8c0,1.2,0.8,1.8,1.6,1.8c0.8,0,1.6-0.6,1.6-1.8
				S327,310.8,326.2,310.8z"/>
			<path class="st2" d="M331.4,307c0-0.7,0.5-1.2,1.3-1.2c0.8,0,1.3,0.5,1.3,1.2c0,0.7-0.5,1.2-1.3,1.2
				C331.9,308.2,331.4,307.7,331.4,307z M331.6,309h2.2v7.3h-2.2V309z"/>
			<path class="st2" d="M337.7,316.2h-2.2V309h2.2v1.2c0.5-0.8,1.3-1.3,2.3-1.3v2.4h-0.6c-1.1,0-1.7,0.4-1.7,1.6V316.2z"/>
			<path class="st2" d="M340.8,307c0-0.7,0.5-1.2,1.3-1.2c0.8,0,1.3,0.5,1.3,1.2c0,0.7-0.5,1.2-1.3,1.2
				C341.3,308.2,340.8,307.7,340.8,307z M341,309h2.2v7.3H341V309z"/>
			<path class="st2" d="M347.6,308.9c1.1,0,1.8,0.5,2.2,1.1v-1h2.2v7.2c0,1.9-1.1,3.6-3.6,3.6c-2.2,0-3.6-1.1-3.8-2.8h2.2
				c0.1,0.5,0.7,0.9,1.5,0.9c0.8,0,1.5-0.4,1.5-1.7v-1c-0.4,0.6-1.2,1.1-2.2,1.1c-1.8,0-3.2-1.5-3.2-3.7
				C344.4,310.3,345.8,308.9,347.6,308.9z M348.2,310.8c-0.8,0-1.6,0.6-1.6,1.8c0,1.2,0.8,1.8,1.6,1.8c0.8,0,1.6-0.6,1.6-1.8
				S349.1,310.8,348.2,310.8z"/>
			<path class="st2" d="M356.9,316.4c-2.1,0-3.7-1.4-3.7-3.7s1.5-3.7,3.7-3.7c2.1,0,3.6,1.4,3.6,3.6c0,0.2,0,0.4,0,0.7h-5
				c0.1,0.9,0.7,1.4,1.4,1.4c0.6,0,1-0.3,1.2-0.7h2.4C360,315.3,358.7,316.4,356.9,316.4z M355.4,311.9h2.8c0-0.8-0.6-1.2-1.4-1.2
				C356.1,310.7,355.6,311.1,355.4,311.9z"/>
			<path class="st2" d="M366.7,312.3c0-1-0.5-1.5-1.4-1.5c-0.8,0-1.4,0.5-1.4,1.5v3.9h-2.2V309h2.2v1c0.4-0.6,1.2-1,2.2-1
				c1.7,0,2.8,1.1,2.8,3.1v4.2h-2.2V312.3z"/>
			<path class="st2" d="M370.8,310.8h-0.9V309h0.9v-1.8h2.2v1.8h1.5v1.8H373v2.9c0,0.4,0.2,0.6,0.7,0.6h0.8v1.9h-1.1
				c-1.5,0-2.6-0.6-2.6-2.5V310.8z"/>
			<path class="st2" d="M378.9,316.4c-2.1,0-3.7-1.4-3.7-3.7s1.5-3.7,3.7-3.7c2.1,0,3.6,1.4,3.6,3.6c0,0.2,0,0.4,0,0.7h-5
				c0.1,0.9,0.7,1.4,1.4,1.4c0.6,0,1-0.3,1.2-0.7h2.4C382,315.3,380.7,316.4,378.9,316.4z M377.5,311.9h2.8c0-0.8-0.6-1.2-1.4-1.2
				C378.2,310.7,377.6,311.1,377.5,311.9z"/>
			<path class="st2" d="M386.7,316.4c-1.9,0-3.2-1.1-3.3-2.5h2.2c0.1,0.5,0.5,0.8,1.1,0.8c0.6,0,0.9-0.3,0.9-0.6c0-1.2-4-0.3-4-3
				c0-1.2,1.1-2.2,3-2.2c1.9,0,2.9,1,3.1,2.5h-2.1c-0.1-0.5-0.4-0.8-1.1-0.8c-0.5,0-0.8,0.2-0.8,0.6c0,1.2,3.9,0.3,4,3
				C389.6,315.4,388.5,316.4,386.7,316.4z"/>
			<path class="st2" d="M397,316.4c-2.1,0-3.7-1.4-3.7-3.7s1.5-3.7,3.7-3.7c2.1,0,3.6,1.4,3.6,3.6c0,0.2,0,0.4,0,0.7h-5
				c0.1,0.9,0.7,1.4,1.4,1.4c0.6,0,1-0.3,1.2-0.7h2.4C400,315.3,398.8,316.4,397,316.4z M395.5,311.9h2.8c0-0.8-0.6-1.2-1.4-1.2
				C396.2,310.7,395.6,311.1,395.5,311.9z"/>
			<path class="st2" d="M407.7,316.4c-2.1,0-3.7-1.4-3.7-3.7s1.5-3.7,3.7-3.7c2.1,0,3.6,1.4,3.6,3.6c0,0.2,0,0.4,0,0.7h-5
				c0.1,0.9,0.7,1.4,1.4,1.4c0.6,0,1-0.3,1.2-0.7h2.4C410.8,315.3,409.5,316.4,407.7,316.4z M406.3,311.9h2.8c0-0.8-0.6-1.2-1.4-1.2
				C407,310.7,406.4,311.1,406.3,311.9z"/>
			<path class="st2" d="M415.4,314.2l-1.2,2h-2.4l2.4-3.7l-2.5-3.5h2.5l1.4,2l1.2-2h2.4l-2.4,3.7l2.5,3.6h-2.5L415.4,314.2z"/>
			<path class="st2" d="M423.4,316.4c-2.1,0-3.7-1.4-3.7-3.7s1.5-3.7,3.7-3.7c2.1,0,3.6,1.4,3.6,3.6c0,0.2,0,0.4,0,0.7h-5
				c0.1,0.9,0.7,1.4,1.4,1.4c0.6,0,1-0.3,1.2-0.7h2.4C426.5,315.3,425.2,316.4,423.4,316.4z M421.9,311.9h2.8c0-0.8-0.6-1.2-1.4-1.2
				C422.6,310.7,422.1,311.1,421.9,311.9z"/>
			<path class="st2" d="M431.4,308.9c1.8,0,3.1,1,3.5,2.7h-2.4c-0.2-0.5-0.5-0.8-1.2-0.8c-0.8,0-1.3,0.6-1.3,1.8s0.5,1.8,1.3,1.8
				c0.6,0,1-0.3,1.2-0.8h2.4c-0.4,1.7-1.7,2.7-3.5,2.7c-2.1,0-3.6-1.4-3.6-3.7C427.7,310.3,429.2,308.9,431.4,308.9z"/>
			<path class="st2" d="M443.2,316.2H441v-1c-0.4,0.6-1.2,1.1-2.2,1.1c-1.7,0-2.8-1.2-2.8-3.1V309h2.2v3.9c0,1,0.6,1.5,1.4,1.5
				c0.9,0,1.4-0.5,1.4-1.5V309h2.2V316.2z"/>
			<path class="st2" d="M445.1,310.8h-0.9V309h0.9v-1.8h2.2v1.8h1.5v1.8h-1.5v2.9c0,0.4,0.2,0.6,0.7,0.6h0.8v1.9h-1.1
				c-1.5,0-2.6-0.6-2.6-2.5V310.8z"/>
			<path class="st2" d="M453.4,316.4c-2.1,0-3.7-1.4-3.7-3.7s1.7-3.7,3.8-3.7c2.1,0,3.8,1.4,3.8,3.7S455.5,316.4,453.4,316.4z
				 M453.4,314.4c0.8,0,1.5-0.6,1.5-1.8c0-1.2-0.7-1.8-1.5-1.8c-0.8,0-1.5,0.6-1.5,1.8C451.9,313.8,452.6,314.4,453.4,314.4z"/>
			<path class="st2" d="M460.6,316.2h-2.2V309h2.2v1.2c0.5-0.8,1.3-1.3,2.3-1.3v2.4h-0.6c-1.1,0-1.7,0.4-1.7,1.6V316.2z"/>
			<path class="st2" d="M467.1,316.4c-2.1,0-3.7-1.4-3.7-3.7s1.5-3.7,3.7-3.7c2.1,0,3.6,1.4,3.6,3.6c0,0.2,0,0.4,0,0.7h-5
				c0.1,0.9,0.7,1.4,1.4,1.4c0.6,0,1-0.3,1.2-0.7h2.4C470.2,315.3,468.9,316.4,467.1,316.4z M465.7,311.9h2.8c0-0.8-0.6-1.2-1.4-1.2
				C466.4,310.7,465.8,311.1,465.7,311.9z"/>
			<path class="st2" d="M474.9,316.4c-1.9,0-3.2-1.1-3.3-2.5h2.2c0.1,0.5,0.5,0.8,1.1,0.8c0.6,0,0.9-0.3,0.9-0.6c0-1.2-4-0.3-4-3
				c0-1.2,1.1-2.2,3-2.2c1.9,0,2.9,1,3.1,2.5h-2.1c-0.1-0.5-0.4-0.8-1.1-0.8c-0.5,0-0.8,0.2-0.8,0.6c0,1.2,3.9,0.3,4,3
				C477.8,315.4,476.7,316.4,474.9,316.4z"/>
			<path class="st2" d="M480.2,316.4c-0.8,0-1.3-0.5-1.3-1.2c0-0.7,0.5-1.2,1.3-1.2c0.8,0,1.3,0.5,1.3,1.2
				C481.5,315.8,481,316.4,480.2,316.4z"/>
		</g>
	</g>
	<g id="Grupo_1621" transform="translate(-188 -57.75)">
		<path id="Caminho_2072" class="st3" d="M599,306.7v-24h14.6c0.7-4,1.7-7.9,3.1-11.7l-12.6-7.3l12-20.8l12.7,7.3
			c2.6-3.1,5.4-5.9,8.5-8.5l-7.3-12.7l20.8-12l7.3,12.6c3.8-1.4,7.7-2.4,11.7-3.1V212h24v14.6c4,0.7,7.9,1.7,11.7,3.1l7.3-12.6
			l20.8,12l-7.3,12.7c3.1,2.6,5.9,5.5,8.5,8.5l12.7-7.3l12,20.8l-12.6,7.3c1.4,3.8,2.4,7.7,3.1,11.7h14.6v24h-14.6
			c-0.7,4-1.7,7.9-3.1,11.7l12.6,7.3l-12,20.8l-12.7-7.3c-2.6,3.1-5.4,5.9-8.5,8.5l7.3,12.7l-20.8,12l-7.3-12.6
			c-3.8,1.4-7.7,2.4-11.7,3.1v14.6h-24v-14.6c-4-0.7-7.9-1.7-11.7-3.1l-7.3,12.6l-20.8-12l7.3-12.7c-3.1-2.6-5.9-5.5-8.5-8.5
			l-12.7,7.3l-12-20.8l12.6-7.3c-1.4-3.8-2.4-7.7-3.1-11.7H599z M681.8,339.5c24.7,0,44.7-20,44.7-44.7s-20-44.7-44.7-44.7
			c-24.7,0-44.7,20-44.7,44.7c0,0,0,0,0,0C637,319.5,657,339.5,681.8,339.5"/>
		<g class="st1">
			<path class="st2" d="M609,271.1h-3.6v2h3.2v1.8h-3.2v2.2h3.6v1.9h-6v-9.8h6V271.1z"/>
			<path class="st2" d="M610.6,268.6h2.4V279h-2.4V268.6z"/>
			<path class="st2" d="M618.2,279.1c-2.3,0-4-1.5-4-4s1.6-4,4-4c2.3,0,3.9,1.5,3.9,3.9c0,0.2,0,0.5,0,0.7h-5.4
				c0.1,1,0.7,1.5,1.5,1.5c0.7,0,1.1-0.3,1.2-0.8h2.5C621.5,277.9,620.1,279.1,618.2,279.1z M616.6,274.3h3c0-0.9-0.7-1.3-1.5-1.3
				C617.4,273,616.8,273.5,616.6,274.3z"/>
			<path class="st2" d="M623.1,269.1c0-0.7,0.6-1.3,1.4-1.3c0.8,0,1.4,0.6,1.4,1.3c0,0.7-0.6,1.3-1.4,1.3
				C623.7,270.4,623.1,269.8,623.1,269.1z M623.3,271.2h2.4v7.8h-2.4V271.2z"/>
			<path class="st2" d="M630.9,271.1c2,0,3.3,1.1,3.8,2.9h-2.5c-0.2-0.5-0.6-0.9-1.2-0.9c-0.9,0-1.4,0.7-1.4,2s0.6,2,1.4,2
				c0.7,0,1-0.3,1.2-0.9h2.5c-0.4,1.6-1.5,2.6-3.1,2.9v0.5c0.8,0,1.8,0.4,1.8,1.6c0,1.1-1,1.6-1.9,1.6h-2.2v-1.3h1.8
				c0.3,0,0.6-0.1,0.6-0.4c0-0.3-0.2-0.4-0.6-0.4h-1v-1.7c-1.9-0.3-3.2-1.8-3.2-4C627,272.6,628.6,271.1,630.9,271.1z"/>
			<path class="st2" d="M638.9,271.1c1.2,0,2,0.5,2.4,1.2v-1.1h2.4v7.8h-2.4v-1.1c-0.4,0.7-1.3,1.2-2.4,1.2c-1.9,0-3.4-1.6-3.4-4
				C635.5,272.6,637,271.1,638.9,271.1z M639,268.5c0.8,0,1.3,0.6,1.8,0.6c0.3,0,0.5-0.2,0.6-0.6h1.2c-0.2,1.5-1,2.1-1.9,2.1
				c-0.8,0-1.3-0.6-1.8-0.6c-0.3,0-0.5,0.2-0.6,0.6h-1.2C637.3,269.1,638,268.5,639,268.5z M639.6,273.2c-0.9,0-1.7,0.7-1.7,1.9
				c0,1.2,0.8,1.9,1.7,1.9c0.9,0,1.7-0.7,1.7-1.9C641.3,273.8,640.5,273.2,639.6,273.2z"/>
			<path class="st2" d="M649,279.1c-2.3,0-4-1.5-4-4s1.8-4,4.1-4c2.3,0,4.1,1.5,4.1,4S651.3,279.1,649,279.1z M649,277
				c0.9,0,1.7-0.6,1.7-1.9c0-1.3-0.8-1.9-1.6-1.9c-0.9,0-1.6,0.6-1.6,1.9C647.4,276.4,648.1,277,649,277z"/>
			<path class="st2" d="M660.8,279.1c-2.3,0-4-1.5-4-4s1.6-4,4-4c2.3,0,3.9,1.5,3.9,3.9c0,0.2,0,0.5,0,0.7h-5.4
				c0.1,1,0.7,1.5,1.5,1.5c0.7,0,1.1-0.3,1.2-0.8h2.5C664.1,277.9,662.7,279.1,660.8,279.1z M659.2,274.3h3c0-0.9-0.7-1.3-1.5-1.3
				C660,273,659.4,273.5,659.2,274.3z"/>
			<path class="st2" d="M669.3,273.2h-1v-2h1v-1.9h2.4v1.9h1.6v2h-1.6v3.1c0,0.5,0.2,0.7,0.7,0.7h0.9v2H672c-1.6,0-2.8-0.7-2.8-2.7
				V273.2z"/>
			<path class="st2" d="M677,279h-2.4v-7.8h2.4v1.3c0.5-0.8,1.4-1.4,2.5-1.4v2.5h-0.7c-1.1,0-1.8,0.4-1.8,1.7V279z"/>
			<path class="st2" d="M684.1,279.1c-2.3,0-4-1.5-4-4s1.6-4,4-4c2.3,0,3.9,1.5,3.9,3.9c0,0.2,0,0.5,0,0.7h-5.4
				c0.1,1,0.7,1.5,1.5,1.5c0.7,0,1.1-0.3,1.2-0.8h2.5C687.4,277.9,686,279.1,684.1,279.1z M682.5,274.3h3c0-0.9-0.7-1.3-1.5-1.3
				C683.2,273,682.6,273.5,682.5,274.3z"/>
			<path class="st2" d="M689,269.1c0-0.7,0.6-1.3,1.4-1.3c0.8,0,1.4,0.6,1.4,1.3c0,0.7-0.6,1.3-1.4,1.3
				C689.6,270.4,689,269.8,689,269.1z M689.2,271.2h2.4v7.8h-2.4V271.2z"/>
			<path class="st2" d="M698.7,274.8c0-1.1-0.6-1.7-1.5-1.7s-1.5,0.6-1.5,1.7v4.2h-2.4v-7.8h2.4v1c0.5-0.7,1.3-1.1,2.4-1.1
				c1.8,0,3,1.2,3,3.3v4.6h-2.4V274.8z"/>
			<path class="st2" d="M705.7,271.1c1.2,0,2,0.5,2.4,1.2v-1.1h2.4v7.8h-2.4v-1.1c-0.4,0.7-1.3,1.2-2.4,1.2c-1.9,0-3.4-1.6-3.4-4
				C702.3,272.6,703.8,271.1,705.7,271.1z M706.4,273.2c-0.9,0-1.7,0.7-1.7,1.9c0,1.2,0.8,1.9,1.7,1.9c0.9,0,1.7-0.7,1.7-1.9
				C708.2,273.8,707.4,273.2,706.4,273.2z"/>
			<path class="st2" d="M723.1,274.8c0-1-0.6-1.6-1.5-1.6c-0.9,0-1.5,0.6-1.5,1.6v4.2h-2.4v-4.2c0-1-0.6-1.6-1.5-1.6
				c-0.9,0-1.5,0.6-1.5,1.6v4.2h-2.4v-7.8h2.4v1c0.5-0.6,1.3-1.1,2.3-1.1c1.2,0,2.1,0.5,2.7,1.5c0.5-0.8,1.5-1.5,2.6-1.5
				c1.9,0,3.2,1.2,3.2,3.3v4.6h-2.4V274.8z"/>
			<path class="st2" d="M730.6,279.1c-2.3,0-4-1.5-4-4s1.6-4,4-4c2.3,0,3.9,1.5,3.9,3.9c0,0.2,0,0.5,0,0.7H729
				c0.1,1,0.7,1.5,1.5,1.5c0.7,0,1.1-0.3,1.2-0.8h2.5C733.9,277.9,732.5,279.1,730.6,279.1z M729,274.3h3c0-0.9-0.7-1.3-1.5-1.3
				C729.8,273,729.2,273.5,729,274.3z"/>
			<path class="st2" d="M741.1,274.8c0-1.1-0.6-1.7-1.5-1.7s-1.5,0.6-1.5,1.7v4.2h-2.4v-7.8h2.4v1c0.5-0.7,1.3-1.1,2.4-1.1
				c1.8,0,3,1.2,3,3.3v4.6h-2.4V274.8z"/>
			<path class="st2" d="M745.5,273.2h-1v-2h1v-1.9h2.4v1.9h1.6v2h-1.6v3.1c0,0.5,0.2,0.7,0.7,0.7h0.9v2h-1.2c-1.6,0-2.8-0.7-2.8-2.7
				V273.2z"/>
			<path class="st2" d="M754.4,279.1c-2.3,0-4-1.5-4-4s1.8-4,4.1-4c2.3,0,4.1,1.5,4.1,4S756.7,279.1,754.4,279.1z M754.4,277
				c0.9,0,1.7-0.6,1.7-1.9c0-1.3-0.8-1.9-1.6-1.9c-0.9,0-1.6,0.6-1.6,1.9C752.8,276.4,753.5,277,754.4,277z"/>
		</g>
		<g class="st1">
			<path class="st2" d="M591.3,292.1c1,0,1.9,0.5,2.4,1.2v-3.6h2.4V300h-2.4v-1.1c-0.4,0.7-1.3,1.2-2.4,1.2c-1.9,0-3.4-1.6-3.4-4
				C587.9,293.6,589.4,292.1,591.3,292.1z M592,294.2c-0.9,0-1.7,0.7-1.7,1.9c0,1.2,0.8,1.9,1.7,1.9c0.9,0,1.7-0.7,1.7-1.9
				C593.7,294.8,592.9,294.2,592,294.2z"/>
			<path class="st2" d="M601.4,300.1c-2.3,0-4-1.5-4-4s1.8-4,4.1-4c2.3,0,4.1,1.5,4.1,4S603.7,300.1,601.4,300.1z M601.4,298
				c0.9,0,1.7-0.6,1.7-1.9c0-1.3-0.8-1.9-1.6-1.9c-0.9,0-1.6,0.6-1.6,1.9C599.8,297.4,600.6,298,601.4,298z"/>
			<path class="st2" d="M609.8,289.6h2.4v3.6c0.5-0.7,1.3-1.1,2.4-1.1c1.8,0,3,1.2,3,3.3v4.6h-2.4v-4.2c0-1.1-0.6-1.7-1.5-1.7
				c-0.9,0-1.5,0.6-1.5,1.7v4.2h-2.4V289.6z"/>
			<path class="st2" d="M622.8,300.1c-2.3,0-4-1.5-4-4s1.8-4,4.1-4c2.3,0,4.1,1.5,4.1,4S625.1,300.1,622.8,300.1z M622.8,298
				c0.9,0,1.7-0.6,1.7-1.9c0-1.3-0.8-1.9-1.6-1.9c-0.9,0-1.6,0.6-1.6,1.9C621.2,297.4,621.9,298,622.8,298z"/>
			<path class="st2" d="M638.9,295.8c0-1-0.6-1.6-1.5-1.6s-1.5,0.6-1.5,1.6v4.2h-2.4v-4.2c0-1-0.6-1.6-1.5-1.6s-1.5,0.6-1.5,1.6v4.2
				h-2.4v-7.8h2.4v1c0.5-0.6,1.3-1.1,2.3-1.1c1.2,0,2.1,0.5,2.7,1.5c0.5-0.8,1.5-1.5,2.6-1.5c1.9,0,3.2,1.2,3.2,3.3v4.6h-2.4V295.8z
				"/>
			<path class="st2" d="M646.4,300.1c-2.3,0-4-1.5-4-4s1.6-4,4-4c2.3,0,3.9,1.5,3.9,3.9c0,0.2,0,0.5,0,0.7h-5.4
				c0.1,1,0.7,1.5,1.5,1.5c0.7,0,1.1-0.3,1.2-0.8h2.5C649.7,298.9,648.4,300.1,646.4,300.1z M644.9,295.3h3c0-0.9-0.7-1.3-1.5-1.3
				C645.6,294,645,294.5,644.9,295.3z"/>
			<path class="st2" d="M662.3,295.8c0-1-0.6-1.6-1.5-1.6c-0.9,0-1.5,0.6-1.5,1.6v4.2H657v-4.2c0-1-0.6-1.6-1.5-1.6
				c-0.9,0-1.5,0.6-1.5,1.6v4.2h-2.4v-7.8h2.4v1c0.5-0.6,1.3-1.1,2.3-1.1c1.2,0,2.1,0.5,2.7,1.5c0.5-0.8,1.5-1.5,2.6-1.5
				c1.9,0,3.2,1.2,3.2,3.3v4.6h-2.4V295.8z"/>
			<path class="st2" d="M666.7,297.6h2.5l-1.8,4.5h-1.6L666.7,297.6z"/>
			<path class="st2" d="M676.4,292.1c1.2,0,2,0.5,2.4,1.2v-1.1h2.4v7.8h-2.4v-1.1c-0.4,0.7-1.3,1.2-2.4,1.2c-1.9,0-3.4-1.6-3.4-4
				C672.9,293.6,674.5,292.1,676.4,292.1z M677.1,294.2c-0.9,0-1.7,0.7-1.7,1.9c0,1.2,0.8,1.9,1.7,1.9c0.9,0,1.7-0.7,1.7-1.9
				C678.8,294.8,678,294.2,677.1,294.2z"/>
			<path class="st2" d="M685.9,292.1c1,0,1.9,0.5,2.4,1.2v-3.6h2.4V300h-2.4v-1.1c-0.4,0.7-1.3,1.2-2.4,1.2c-1.9,0-3.4-1.6-3.4-4
				C682.4,293.6,684,292.1,685.9,292.1z M686.6,294.2c-0.9,0-1.7,0.7-1.7,1.9c0,1.2,0.8,1.9,1.7,1.9c0.9,0,1.7-0.7,1.7-1.9
				C688.3,294.8,687.5,294.2,686.6,294.2z"/>
			<path class="st2" d="M695.9,300.1c-2.3,0-3.9-1.5-3.9-4s1.6-4,3.9-4c2.3,0,3.9,1.5,3.9,3.9c0,0.2,0,0.5,0,0.7h-5.4
				c0.1,1,0.7,1.5,1.5,1.5c0.7,0,1.1-0.3,1.2-0.8h2.5C699.2,298.9,697.8,300.1,695.9,300.1z M694.3,295.3h3c0-0.9-0.7-1.3-1.5-1.3
				C695.1,294,694.5,294.5,694.3,295.3z"/>
			<path class="st2" d="M704.1,292.1c1,0,1.8,0.4,2.3,1v-0.9h2.4v11.5h-2.4V299c-0.5,0.6-1.3,1.1-2.3,1.1c-1.9,0-3.5-1.6-3.5-4
				C700.6,293.7,702.2,292.1,704.1,292.1z M704.7,294.2c-0.8,0-1.7,0.6-1.7,1.9c0,1.3,0.9,1.9,1.7,1.9c0.8,0,1.7-0.6,1.7-1.9
				S705.5,294.2,704.7,294.2z"/>
			<path class="st2" d="M718.3,300h-2.4v-1.1c-0.5,0.7-1.3,1.1-2.4,1.1c-1.8,0-3-1.2-3-3.3v-4.6h2.4v4.2c0,1.1,0.6,1.7,1.5,1.7
				c0.9,0,1.5-0.6,1.5-1.7v-4.2h2.4V300z"/>
			<path class="st2" d="M723,292.1c1.2,0,2,0.5,2.4,1.2v-1.1h2.4v7.8h-2.4v-1.1c-0.4,0.7-1.3,1.2-2.4,1.2c-1.9,0-3.4-1.6-3.4-4
				C719.5,293.6,721,292.1,723,292.1z M723.7,294.2c-0.9,0-1.7,0.7-1.7,1.9c0,1.2,0.8,1.9,1.7,1.9c0.9,0,1.7-0.7,1.7-1.9
				C725.4,294.8,724.6,294.2,723.7,294.2z"/>
			<path class="st2" d="M734.9,295.8c0-1.1-0.6-1.7-1.5-1.7s-1.5,0.6-1.5,1.7v4.2h-2.4v-7.8h2.4v1c0.5-0.7,1.3-1.1,2.4-1.1
				c1.8,0,3,1.2,3,3.3v4.6h-2.4V295.8z"/>
			<path class="st2" d="M741.9,292.1c1,0,1.9,0.5,2.4,1.2v-3.6h2.4V300h-2.4v-1.1c-0.4,0.7-1.3,1.2-2.4,1.2c-1.9,0-3.4-1.6-3.4-4
				C738.5,293.6,740,292.1,741.9,292.1z M742.6,294.2c-0.9,0-1.7,0.7-1.7,1.9c0,1.2,0.8,1.9,1.7,1.9c0.9,0,1.7-0.7,1.7-1.9
				C744.3,294.8,743.5,294.2,742.6,294.2z"/>
			<path class="st2" d="M752,300.1c-2.3,0-4-1.5-4-4s1.8-4,4.1-4c2.3,0,4.1,1.5,4.1,4S754.3,300.1,752,300.1z M752,298
				c0.9,0,1.7-0.6,1.7-1.9c0-1.3-0.8-1.9-1.6-1.9c-0.9,0-1.6,0.6-1.6,1.9C750.4,297.4,751.1,298,752,298z"/>
			<path class="st2" d="M757.2,294.1h6.2v2h-6.2V294.1z"/>
			<path class="st2" d="M769,300.1c-2.3,0-4-1.5-4-4s1.8-4,4.1-4c2.3,0,4.1,1.5,4.1,4S771.3,300.1,769,300.1z M769,298
				c0.9,0,1.7-0.6,1.7-1.9c0-1.3-0.8-1.9-1.6-1.9c-0.9,0-1.6,0.6-1.6,1.9C767.4,297.4,768.2,298,769,298z"/>
		</g>
		<g class="st1">
			<path class="st2" d="M652.2,313.1c1.2,0,2,0.5,2.4,1.2v-1.1h2.4v7.8h-2.4v-1.1c-0.4,0.7-1.3,1.2-2.4,1.2c-1.9,0-3.4-1.6-3.4-4
				C648.8,314.6,650.3,313.1,652.2,313.1z M652.9,315.2c-0.9,0-1.7,0.7-1.7,1.9c0,1.2,0.8,1.9,1.7,1.9c0.9,0,1.7-0.7,1.7-1.9
				C654.6,315.8,653.8,315.2,652.9,315.2z M651.4,309.4l3.4,1.6v1.7l-3.4-1.4V309.4z"/>
			<path class="st2" d="M662,315.2h-0.9v-2h0.9V313c0-2,1.3-3.1,3.6-2.9v2c-0.9-0.1-1.2,0.2-1.2,1v0.1h1.3v2h-1.3v5.8H662V315.2z"/>
			<path class="st2" d="M674.5,321h-2.4v-1.1c-0.5,0.7-1.3,1.1-2.4,1.1c-1.8,0-3-1.2-3-3.3v-4.6h2.4v4.2c0,1.1,0.6,1.7,1.5,1.7
				c0.9,0,1.5-0.6,1.5-1.7v-4.2h2.4V321z"/>
			<path class="st2" d="M681.6,316.8c0-1.1-0.6-1.7-1.5-1.7s-1.5,0.6-1.5,1.7v4.2h-2.4v-7.8h2.4v1c0.5-0.7,1.3-1.1,2.4-1.1
				c1.8,0,3,1.2,3,3.3v4.6h-2.4V316.8z"/>
			<path class="st2" d="M689.1,313.1c2,0,3.3,1.1,3.8,2.9h-2.5c-0.2-0.5-0.6-0.9-1.2-0.9c-0.9,0-1.4,0.7-1.4,2s0.6,2,1.4,2
				c0.7,0,1-0.3,1.2-0.9h2.5c-0.4,1.6-1.5,2.6-3.1,2.9v0.5c0.8,0,1.8,0.4,1.8,1.6c0,1.1-1,1.6-1.9,1.6h-2.2v-1.3h1.8
				c0.3,0,0.6-0.1,0.6-0.4c0-0.3-0.2-0.4-0.6-0.4h-1v-1.7c-1.9-0.3-3.2-1.8-3.2-4C685.2,314.6,686.8,313.1,689.1,313.1z"/>
			<path class="st2" d="M697.1,313.1c1.2,0,2,0.5,2.4,1.2v-1.1h2.4v7.8h-2.4v-1.1c-0.4,0.7-1.3,1.2-2.4,1.2c-1.9,0-3.4-1.6-3.4-4
				C693.6,314.6,695.2,313.1,697.1,313.1z M697.2,310.5c0.8,0,1.3,0.6,1.8,0.6c0.3,0,0.5-0.2,0.6-0.6h1.2c-0.2,1.5-1,2.1-1.9,2.1
				c-0.8,0-1.3-0.6-1.8-0.6c-0.3,0-0.5,0.2-0.6,0.6h-1.2C695.5,311.1,696.2,310.5,697.2,310.5z M697.8,315.2c-0.9,0-1.7,0.7-1.7,1.9
				c0,1.2,0.8,1.9,1.7,1.9c0.9,0,1.7-0.7,1.7-1.9C699.5,315.8,698.7,315.2,697.8,315.2z"/>
			<path class="st2" d="M707.2,321.1c-2.3,0-4-1.5-4-4s1.8-4,4.1-4c2.3,0,4.1,1.5,4.1,4S709.5,321.1,707.2,321.1z M707.2,319
				c0.9,0,1.7-0.6,1.7-1.9c0-1.3-0.8-1.9-1.6-1.9c-0.9,0-1.6,0.6-1.6,1.9C705.6,318.4,706.3,319,707.2,319z"/>
			<path class="st2" d="M713.7,321.1c-0.9,0-1.4-0.6-1.4-1.3c0-0.7,0.6-1.3,1.4-1.3c0.8,0,1.4,0.6,1.4,1.3
				C715.1,320.5,714.5,321.1,713.7,321.1z"/>
		</g>
	</g>
	<g id="Grupo_1622" transform="translate(10 -51)">
		<path id="Caminho_2073" class="st3" d="M84,307v-24h14.6c0.7-4,1.7-7.9,3.1-11.7L89.1,264l12-20.8l12.7,7.3
			c2.6-3.1,5.4-5.9,8.5-8.5l-7.3-12.7l20.8-12l7.3,12.6c3.8-1.4,7.7-2.4,11.7-3.1v-14.6h24v14.6c4,0.7,7.9,1.7,11.7,3.1l7.3-12.6
			l20.8,12l-7.3,12.7c3.1,2.6,5.9,5.5,8.5,8.5l12.7-7.3l12,20.8l-12.6,7.3c1.4,3.8,2.4,7.7,3.1,11.7h14.6v24h-14.6
			c-0.7,4-1.7,7.9-3.1,11.7l12.6,7.3l-12,20.8l-12.7-7.3c-2.6,3.1-5.4,5.9-8.5,8.5l7.3,12.7l-20.8,12l-7.3-12.6
			c-3.8,1.4-7.7,2.4-11.7,3.1v14.6h-24v-14.6c-4-0.7-7.9-1.7-11.7-3.1l-7.3,12.6l-20.8-12l7.3-12.7c-3.1-2.6-5.9-5.5-8.5-8.5
			l-12.7,7.3l-12-20.8l12.6-7.3c-1.4-3.8-2.4-7.7-3.1-11.7H84z M166.8,339.7c24.7,0,44.7-20,44.7-44.7s-20-44.7-44.7-44.7
			S122,270.3,122,295c0,0,0,0,0,0C122,319.7,142,339.7,166.8,339.7"/>
		<g class="st1">
			<path class="st2" d="M89.8,285.7h-1.5v3.5h-2.4v-9.8h3.9c2.4,0,3.6,1.4,3.6,3.2C93.4,284.2,92.3,285.7,89.8,285.7z M89.6,283.8
				c1,0,1.4-0.5,1.4-1.2c0-0.8-0.4-1.2-1.4-1.2h-1.3v2.5H89.6z"/>
			<path class="st2" d="M97,289.2h-2.4v-7.8H97v1.3c0.5-0.8,1.4-1.4,2.5-1.4v2.5h-0.7c-1.1,0-1.8,0.4-1.8,1.7V289.2z"/>
			<path class="st2" d="M104.2,289.4c-2.3,0-4-1.5-4-4s1.8-4,4.1-4c2.3,0,4.1,1.5,4.1,4S106.5,289.4,104.2,289.4z M104.2,287.3
				c0.9,0,1.7-0.6,1.7-1.9c0-1.3-0.8-1.9-1.6-1.9c-0.9,0-1.6,0.6-1.6,1.9C102.6,286.7,103.3,287.3,104.2,287.3z"/>
			<path class="st2" d="M112.5,281.3c1.1,0,2,0.5,2.4,1.2v-1.1h2.4v7.8c0,2.1-1.2,3.9-3.9,3.9c-2.3,0-3.8-1.2-4-3h2.4
				c0.2,0.6,0.7,1,1.6,1c0.9,0,1.6-0.5,1.6-1.8v-1.1c-0.4,0.7-1.3,1.2-2.4,1.2c-1.9,0-3.4-1.6-3.4-4
				C109.1,282.9,110.6,281.3,112.5,281.3z M113.2,283.4c-0.9,0-1.7,0.7-1.7,1.9c0,1.2,0.8,1.9,1.7,1.9c0.9,0,1.7-0.7,1.7-1.9
				C114.9,284.1,114.1,283.4,113.2,283.4z"/>
			<path class="st2" d="M121.5,289.2h-2.4v-7.8h2.4v1.3c0.5-0.8,1.4-1.4,2.5-1.4v2.5h-0.7c-1.1,0-1.8,0.4-1.8,1.7V289.2z"/>
			<path class="st2" d="M128,281.3c1.2,0,2,0.5,2.4,1.2v-1.1h2.4v7.8h-2.4v-1.1c-0.4,0.7-1.3,1.2-2.4,1.2c-1.9,0-3.4-1.6-3.4-4
				C124.6,282.9,126.1,281.3,128,281.3z M128.7,283.4c-0.9,0-1.7,0.7-1.7,1.9c0,1.2,0.8,1.9,1.7,1.9c0.9,0,1.7-0.7,1.7-1.9
				C130.4,284.1,129.6,283.4,128.7,283.4z"/>
			<path class="st2" d="M145.3,285c0-1-0.6-1.6-1.5-1.6c-0.9,0-1.5,0.6-1.5,1.6v4.2h-2.4V285c0-1-0.6-1.6-1.5-1.6
				c-0.9,0-1.5,0.6-1.5,1.6v4.2h-2.4v-7.8h2.4v1c0.5-0.6,1.3-1.1,2.3-1.1c1.2,0,2.1,0.5,2.7,1.5c0.5-0.8,1.5-1.5,2.6-1.5
				c1.9,0,3.2,1.2,3.2,3.3v4.6h-2.4V285z"/>
			<path class="st2" d="M152.4,281.3c1.2,0,2,0.5,2.4,1.2v-1.1h2.4v7.8h-2.4v-1.1c-0.4,0.7-1.3,1.2-2.4,1.2c-1.9,0-3.4-1.6-3.4-4
				C148.9,282.9,150.4,281.3,152.4,281.3z M153.1,283.4c-0.9,0-1.7,0.7-1.7,1.9c0,1.2,0.8,1.9,1.7,1.9c0.9,0,1.7-0.7,1.7-1.9
				C154.8,284.1,154,283.4,153.1,283.4z"/>
			<path class="st2" d="M162.3,281.3c2,0,3.3,1.1,3.8,2.9h-2.5c-0.2-0.5-0.6-0.9-1.2-0.9c-0.9,0-1.4,0.7-1.4,2s0.6,2,1.4,2
				c0.7,0,1-0.3,1.2-0.9h2.5c-0.4,1.6-1.5,2.6-3.1,2.9v0.5c0.8,0,1.8,0.4,1.8,1.6c0,1.1-1,1.6-1.9,1.6h-2.2v-1.3h1.8
				c0.4,0,0.6-0.1,0.6-0.4c0-0.3-0.2-0.4-0.6-0.4h-1v-1.7c-1.9-0.3-3.2-1.8-3.2-4C158.4,282.9,160,281.3,162.3,281.3z"/>
			<path class="st2" d="M170.3,281.3c1.2,0,2,0.5,2.4,1.2v-1.1h2.4v7.8h-2.4v-1.1c-0.4,0.7-1.3,1.2-2.4,1.2c-1.9,0-3.4-1.6-3.4-4
				C166.9,282.9,168.4,281.3,170.3,281.3z M170.4,278.7c0.8,0,1.3,0.6,1.8,0.6c0.3,0,0.5-0.2,0.6-0.6h1.2c-0.2,1.5-1,2.1-1.9,2.1
				c-0.8,0-1.3-0.6-1.8-0.6c-0.3,0-0.5,0.2-0.6,0.6h-1.2C168.7,279.3,169.4,278.7,170.4,278.7z M171,283.4c-0.9,0-1.7,0.7-1.7,1.9
				c0,1.2,0.8,1.9,1.7,1.9c0.9,0,1.7-0.7,1.7-1.9C172.7,284.1,171.9,283.4,171,283.4z"/>
			<path class="st2" d="M180.4,289.4c-2.3,0-4-1.5-4-4s1.8-4,4.1-4c2.3,0,4.1,1.5,4.1,4S182.7,289.4,180.4,289.4z M180.4,287.3
				c0.9,0,1.7-0.6,1.7-1.9c0-1.3-0.8-1.9-1.6-1.9c-0.9,0-1.6,0.6-1.6,1.9C178.8,286.7,179.6,287.3,180.4,287.3z"/>
			<path class="st2" d="M193.6,281.3c1.9,0,3.4,1.5,3.4,4c0,2.5-1.5,4-3.4,4c-1.1,0-2-0.5-2.4-1.2v4.8h-2.4v-11.5h2.4v1.1
				C191.6,281.9,192.4,281.3,193.6,281.3z M192.8,283.4c-0.9,0-1.7,0.7-1.7,1.9c0,1.2,0.8,1.9,1.7,1.9c0.9,0,1.7-0.7,1.7-1.9
				C194.6,284.1,193.7,283.4,192.8,283.4z"/>
			<path class="st2" d="M200.6,289.2h-2.4v-7.8h2.4v1.3c0.5-0.8,1.4-1.4,2.5-1.4v2.5h-0.7c-1.1,0-1.8,0.4-1.8,1.7V289.2z"/>
			<path class="st2" d="M207.7,289.4c-2.3,0-4-1.5-4-4s1.6-4,4-4c2.3,0,3.9,1.5,3.9,3.9c0,0.2,0,0.5,0,0.7h-5.4
				c0.1,1,0.7,1.5,1.5,1.5c0.7,0,1.1-0.3,1.2-0.8h2.5C211.1,288.2,209.7,289.4,207.7,289.4z M209.3,277.6v1.9l-3.4,1.4v-1.7
				L209.3,277.6z M206.2,284.6h3c0-0.9-0.7-1.3-1.5-1.3C206.9,283.2,206.3,283.7,206.2,284.6z"/>
			<path class="st2" d="M214.7,281.4l1.7,5.6l1.7-5.6h2.5l-2.8,7.8h-3l-2.8-7.8H214.7z"/>
			<path class="st2" d="M221.4,279.3c0-0.7,0.6-1.3,1.4-1.3c0.8,0,1.4,0.6,1.4,1.3c0,0.7-0.6,1.3-1.4,1.3
				C222,280.6,221.4,280,221.4,279.3z M221.6,281.4h2.4v7.8h-2.4V281.4z"/>
			<path class="st2" d="M228.7,281.3c1.2,0,2,0.5,2.4,1.2v-1.1h2.4v7.8h-2.4v-1.1c-0.4,0.7-1.3,1.2-2.4,1.2c-1.9,0-3.4-1.6-3.4-4
				C225.3,282.9,226.8,281.3,228.7,281.3z M229.4,283.4c-0.9,0-1.7,0.7-1.7,1.9c0,1.2,0.8,1.9,1.7,1.9c0.9,0,1.7-0.7,1.7-1.9
				C231.1,284.1,230.3,283.4,229.4,283.4z"/>
			<path class="st2" d="M241.7,289.4c-2.3,0-4-1.5-4-4s1.6-4,4-4c2.3,0,3.9,1.5,3.9,3.9c0,0.2,0,0.5,0,0.7h-5.4
				c0.1,1,0.7,1.5,1.5,1.5c0.7,0,1.1-0.3,1.2-0.8h2.5C245,288.2,243.7,289.4,241.7,289.4z M240.2,284.6h3c0-0.9-0.7-1.3-1.5-1.3
				C240.9,283.2,240.3,283.7,240.2,284.6z"/>
		</g>
		<g class="st1">
			<path class="st2" d="M107.7,302.3c2,0,3.3,1.1,3.8,2.9h-2.5c-0.2-0.5-0.6-0.9-1.2-0.9c-0.9,0-1.4,0.7-1.4,2s0.6,2,1.4,2
				c0.7,0,1-0.3,1.2-0.9h2.5c-0.4,1.8-1.8,2.9-3.8,2.9c-2.3,0-3.9-1.5-3.9-4C103.8,303.9,105.4,302.3,107.7,302.3z"/>
			<path class="st2" d="M116.3,310.4c-2.3,0-4-1.5-4-4s1.8-4,4.1-4c2.3,0,4.1,1.5,4.1,4S118.6,310.4,116.3,310.4z M116.3,308.3
				c0.9,0,1.7-0.6,1.7-1.9c0-1.3-0.8-1.9-1.6-1.9c-0.9,0-1.6,0.6-1.6,1.9C114.7,307.7,115.4,308.3,116.3,308.3z"/>
			<path class="st2" d="M127,306c0-1.1-0.6-1.7-1.5-1.7c-0.9,0-1.5,0.6-1.5,1.7v4.2h-2.4v-7.8h2.4v1c0.5-0.7,1.3-1.1,2.4-1.1
				c1.8,0,3,1.2,3,3.3v4.6H127V306z"/>
			<path class="st2" d="M131.4,304.4h-1v-2h1v-1.9h2.4v1.9h1.6v2h-1.6v3.1c0,0.5,0.2,0.7,0.7,0.7h0.9v2h-1.2c-1.6,0-2.8-0.7-2.8-2.7
				V304.4z"/>
			<path class="st2" d="M139.1,310.2h-2.4v-7.8h2.4v1.3c0.5-0.8,1.4-1.4,2.5-1.4v2.5h-0.7c-1.1,0-1.8,0.4-1.8,1.7V310.2z"/>
			<path class="st2" d="M146.3,310.4c-2.3,0-4-1.5-4-4s1.8-4,4.1-4c2.3,0,4.1,1.5,4.1,4S148.6,310.4,146.3,310.4z M146.3,308.3
				c0.9,0,1.7-0.6,1.7-1.9c0-1.3-0.8-1.9-1.6-1.9c-0.9,0-1.6,0.6-1.6,1.9C144.7,307.7,145.4,308.3,146.3,308.3z"/>
			<path class="st2" d="M151.6,299.9h2.4v10.4h-2.4V299.9z"/>
			<path class="st2" d="M159.3,310.4c-2.3,0-4-1.5-4-4s1.6-4,4-4c2.3,0,3.9,1.5,3.9,3.9c0,0.2,0,0.5,0,0.7h-5.4
				c0.1,1,0.7,1.5,1.5,1.5c0.7,0,1.1-0.3,1.2-0.8h2.5C162.6,309.2,161.2,310.4,159.3,310.4z M157.7,305.6h3c0-0.9-0.7-1.3-1.5-1.3
				C158.4,304.2,157.8,304.7,157.7,305.6z"/>
			<path class="st2" d="M169.8,310.2h-2.4v-7.8h2.4v1.3c0.5-0.8,1.4-1.4,2.5-1.4v2.5h-0.7c-1.1,0-1.8,0.4-1.8,1.7V310.2z"/>
			<path class="st2" d="M173.1,300.3c0-0.7,0.6-1.3,1.4-1.3c0.8,0,1.4,0.6,1.4,1.3c0,0.7-0.6,1.3-1.4,1.3
				C173.7,301.6,173.1,301,173.1,300.3z M173.4,302.4h2.4v7.8h-2.4V302.4z"/>
			<path class="st2" d="M180.5,302.3c1.1,0,2,0.5,2.4,1.2v-1.1h2.4v7.8c0,2.1-1.2,3.9-3.9,3.9c-2.3,0-3.8-1.2-4-3h2.4
				c0.2,0.6,0.7,1,1.6,1c0.9,0,1.6-0.5,1.6-1.8v-1.1c-0.4,0.7-1.3,1.2-2.4,1.2c-1.9,0-3.4-1.6-3.4-4
				C177,303.9,178.5,302.3,180.5,302.3z M181.2,304.4c-0.9,0-1.7,0.7-1.7,1.9c0,1.2,0.8,1.9,1.7,1.9c0.9,0,1.7-0.7,1.7-1.9
				C182.9,305.1,182.1,304.4,181.2,304.4z"/>
			<path class="st2" d="M190.6,310.4c-2.3,0-4-1.5-4-4s1.8-4,4.1-4c2.3,0,4.1,1.5,4.1,4S192.9,310.4,190.6,310.4z M190.6,308.3
				c0.9,0,1.7-0.6,1.7-1.9c0-1.3-0.8-1.9-1.6-1.9c-0.9,0-1.6,0.6-1.6,1.9C189,307.7,189.7,308.3,190.6,308.3z"/>
			<path class="st2" d="M198.3,310.2h-2.4v-7.8h2.4v1.3c0.5-0.8,1.4-1.4,2.5-1.4v2.5h-0.7c-1.1,0-1.8,0.4-1.8,1.7V310.2z"/>
			<path class="st2" d="M205.5,310.4c-2.3,0-4-1.5-4-4s1.8-4,4.1-4c2.3,0,4.1,1.5,4.1,4S207.8,310.4,205.5,310.4z M205.5,308.3
				c0.9,0,1.7-0.6,1.7-1.9c0-1.3-0.8-1.9-1.6-1.9c-0.9,0-1.6,0.6-1.6,1.9C203.9,307.7,204.6,308.3,205.5,308.3z"/>
			<path class="st2" d="M214,310.4c-2.1,0-3.5-1.2-3.6-2.7h2.4c0.1,0.5,0.5,0.9,1.2,0.9c0.6,0,0.9-0.3,0.9-0.6
				c0-1.3-4.3-0.4-4.3-3.2c0-1.3,1.1-2.4,3.2-2.4c2,0,3.1,1.1,3.3,2.7h-2.2c-0.1-0.5-0.5-0.9-1.1-0.9c-0.6,0-0.9,0.2-0.9,0.6
				c0,1.2,4.2,0.4,4.3,3.3C217.2,309.3,216,310.4,214,310.4z"/>
			<path class="st2" d="M222.2,310.4c-2.3,0-4-1.5-4-4s1.8-4,4.1-4c2.3,0,4.1,1.5,4.1,4S224.5,310.4,222.2,310.4z M222.2,308.3
				c0.9,0,1.7-0.6,1.7-1.9c0-1.3-0.8-1.9-1.6-1.9c-0.9,0-1.6,0.6-1.6,1.9C220.6,307.7,221.3,308.3,222.2,308.3z"/>
			<path class="st2" d="M228.7,310.4c-0.9,0-1.4-0.6-1.4-1.3c0-0.7,0.6-1.3,1.4-1.3c0.8,0,1.4,0.6,1.4,1.3
				C230.1,309.8,229.5,310.4,228.7,310.4z"/>
		</g>
	</g>
</g>
</svg>
