<svg id="img-slide-42" xmlns="http://www.w3.org/2000/svg" xmlns:xlink="http://www.w3.org/1999/xlink" width="387" height="204.356" viewBox="0 0 387 204.356">
  <defs>
    <clipPath id="clip-path">
      <rect id="Retângulo_1234" data-name="Retângulo 1234" width="387" height="204.356" fill="none"/>
    </clipPath>
    <clipPath id="clip-path-3">
      <rect id="Retângulo_1192" data-name="Retângulo 1192" width="32.838" height="10.585" fill="none"/>
    </clipPath>
  </defs>
  <g id="Grupo_1904" data-name="Grupo 1904" clip-path="url(#clip-path)">
    <g id="Grupo_1903" data-name="Grupo 1903" transform="translate(0 0)">
      <g id="Grupo_1902" data-name="Grupo 1902" clip-path="url(#clip-path)">
        <path id="Caminho_2168" data-name="Caminho 2168" d="M389.171,203.845c-22.12,0-344.342.067-344.528-.42l-.031-.062a.292.292,0,0,1-.032-.09C44.456,203.029-5.067,134.621,71.924,87c30.124-18.633-1.885-30.934,22.07-51.677,27.53-23.837,57.574,2.533,88.187-8.277a50.155,50.155,0,0,0,16.27-9.692,59.426,59.426,0,0,1,10-6.969q.825-.462,1.667-.9a71.416,71.416,0,0,1,6.671-3.04q2.312-.915,4.711-1.693h0q3.807-1.236,7.808-2.134A103.506,103.506,0,0,1,240.954.7q2.6-.284,5.237-.448c34.206-2.159,72.7,9.984,92.565,27.732,4,3.574,22.186,22.066,7.85,47.483-9.052,16.048,28.868,31.375,42.342,49.7,34.258,46.591.534,78.072.223,78.679" transform="translate(-24.678 -0.002)" fill="#ebf3fa"/>
        <rect id="Retângulo_1175" data-name="Retângulo 1175" width="20.126" height="20.126" transform="translate(178.813 86.07) rotate(-11.916)" fill="#d9e8fe"/>
        <rect id="Retângulo_1176" data-name="Retângulo 1176" width="20.126" height="20.126" transform="matrix(0.347, -0.938, 0.938, 0.347, 181.011, 105.074)" fill="#f5fbff"/>
        <path id="Caminho_2169" data-name="Caminho 2169" d="M1122.064,315.4H1096.3a2.248,2.248,0,0,1-2.241-2.241V286.147a2.248,2.248,0,0,1,2.241-2.241h25.763a2.248,2.248,0,0,1,2.241,2.241v27.011a2.248,2.248,0,0,1-2.241,2.241" transform="translate(-937.843 -243.368)" fill="#8fadef"/>
        <path id="Caminho_2170" data-name="Caminho 2170" d="M1128.814,322.226h-23.531a2.053,2.053,0,0,1-2.047-2.047V295.508a2.053,2.053,0,0,1,2.047-2.047h23.531a2.053,2.053,0,0,1,2.047,2.047v24.671a2.053,2.053,0,0,1-2.047,2.047" transform="translate(-945.709 -251.559)" fill="#dfebfd"/>
        <path id="Caminho_2171" data-name="Caminho 2171" d="M1195.583,309.554a.628.628,0,1,1,.626.672.651.651,0,0,1-.626-.672" transform="translate(-1024.87 -264.778)" fill="#8fadef"/>
        <path id="Caminho_2172" data-name="Caminho 2172" d="M1230.516,318.17a.6.6,0,0,1,.852-.261.7.7,0,0,1,.243.914.6.6,0,0,1-.852.261.7.7,0,0,1-.243-.914" transform="translate(-1054.747 -272.444)" fill="#8fadef"/>
        <path id="Caminho_2173" data-name="Caminho 2173" d="M1259.6,345.467a.6.6,0,0,1,.866.2.7.7,0,0,1-.187.93.6.6,0,0,1-.866-.2.7.7,0,0,1,.187-.93" transform="translate(-1079.5 -296.047)" fill="#8fadef"/>
        <path id="Caminho_2174" data-name="Caminho 2174" d="M1272.586,386.146a.674.674,0,1,1-.626.672.651.651,0,0,1,.626-.672" transform="translate(-1090.341 -331.01)" fill="#8fadef"/>
        <path id="Caminho_2175" data-name="Caminho 2175" d="M1262.255,431.423a.707.707,0,0,1,0,.951.6.6,0,0,1-.886,0,.707.707,0,0,1,0-.951.6.6,0,0,1,.886,0" transform="translate(-1081.105 -369.653)" fill="#8fadef"/>
        <path id="Caminho_2176" data-name="Caminho 2176" d="M1234.7,461.073a.708.708,0,0,1,0,.951.6.6,0,0,1-.886,0,.708.708,0,0,1,0-.951.6.6,0,0,1,.886,0" transform="translate(-1057.486 -395.069)" fill="#8fadef"/>
        <path id="Caminho_2177" data-name="Caminho 2177" d="M1195.583,473.5a.628.628,0,1,1,.626.672.651.651,0,0,1-.626-.672" transform="translate(-1024.87 -405.316)" fill="#8fadef"/>
        <path id="Caminho_2178" data-name="Caminho 2178" d="M1161.764,318.17a.6.6,0,0,0-.852-.261.7.7,0,0,0-.243.914.6.6,0,0,0,.852.261.7.7,0,0,0,.243-.914" transform="translate(-994.873 -272.444)" fill="#8fadef"/>
        <path id="Caminho_2179" data-name="Caminho 2179" d="M1132.68,345.467a.6.6,0,0,0-.866.2.7.7,0,0,0,.187.93.6.6,0,0,0,.866-.2.7.7,0,0,0-.187-.93" transform="translate(-970.12 -296.047)" fill="#8fadef"/>
        <path id="Caminho_2180" data-name="Caminho 2180" d="M1119.695,386.146a.674.674,0,1,0,.626.672.651.651,0,0,0-.626-.672" transform="translate(-959.28 -331.01)" fill="#8fadef"/>
        <path id="Caminho_2181" data-name="Caminho 2181" d="M1130.026,431.423a.708.708,0,0,0,0,.951.6.6,0,0,0,.886,0,.708.708,0,0,0,0-.951.6.6,0,0,0-.886,0" transform="translate(-968.516 -369.653)" fill="#8fadef"/>
        <path id="Caminho_2182" data-name="Caminho 2182" d="M1157.579,461.073a.708.708,0,0,0,0,.951.6.6,0,0,0,.886,0,.707.707,0,0,0,0-.951.6.6,0,0,0-.886,0" transform="translate(-992.135 -395.069)" fill="#8fadef"/>
        <path id="Caminho_2183" data-name="Caminho 2183" d="M1198.789,386.818a.628.628,0,1,1,.627.672.651.651,0,0,1-.627-.672" transform="translate(-1027.618 -331.01)" fill="#8fadef"/>
        <rect id="Retângulo_1177" data-name="Retângulo 1177" width="0.171" height="8.401" transform="translate(171.712 47.408)" fill="#8fadef"/>
        <path id="Caminho_2184" data-name="Caminho 2184" d="M1201.831,368.7l-.317-.433,4.15-3.5.317.433Z" transform="translate(-1029.954 -312.686)" fill="#8fadef"/>
        <path id="Caminho_2185" data-name="Caminho 2185" d="M1628.159,166.405l-.832-.456a1.838,1.838,0,0,1-.727-2.493l3.828-6.978a1.838,1.838,0,0,1,2.493-.727l1.191.653a.359.359,0,0,1-.346.63l-1.191-.653a1.119,1.119,0,0,0-1.518.442l-3.828,6.978a1.119,1.119,0,0,0,.443,1.518l.831.456a1.119,1.119,0,0,0,1.518-.443l2.541-4.632a.359.359,0,1,1,.63.346l-2.541,4.633a1.838,1.838,0,0,1-2.493.727" transform="translate(-1394.15 -133.318)" fill="#9fc1f4"/>
        <path id="Caminho_2186" data-name="Caminho 2186" d="M1596.426,178.746l-1.491-.818a2.974,2.974,0,0,1-1.035-4.067l5.755-10.492a.359.359,0,1,1,.63.346l-5.754,10.491a2.256,2.256,0,0,0,.75,3.091l1.491.818a2.256,2.256,0,0,0,3.01-1.028l6.555-11.95a2.257,2.257,0,0,0-.751-3.091.359.359,0,0,1,.345-.63,2.974,2.974,0,0,1,1.035,4.067l-6.555,11.95a2.974,2.974,0,0,1-3.986,1.313" transform="translate(-1365.969 -138.33)" fill="#9fc1f4"/>
        <path id="Caminho_2187" data-name="Caminho 2187" d="M2045.15,433.177l.658-.683a1.839,1.839,0,0,1,2.6-.046l5.727,5.527a1.839,1.839,0,0,1,.046,2.6l-.943.978a.359.359,0,1,1-.517-.5l.944-.978a1.119,1.119,0,0,0-.028-1.58l-5.727-5.527a1.119,1.119,0,0,0-1.581.028l-.659.683a1.119,1.119,0,0,0,.028,1.58l3.8,3.669a.359.359,0,0,1-.5.517l-3.8-3.669a1.838,1.838,0,0,1-.046-2.6" transform="translate(-1752.69 -370.26)" fill="#ff8c64"/>
        <path id="Caminho_2188" data-name="Caminho 2188" d="M2000.68,390.808l1.181-1.224a2.974,2.974,0,0,1,4.2.07l8.61,8.31a.359.359,0,0,1-.5.517l-8.61-8.31a2.257,2.257,0,0,0-3.179-.088l-1.181,1.224a2.256,2.256,0,0,0,.2,3.174l9.807,9.465a2.257,2.257,0,0,0,3.179.088.359.359,0,1,1,.518.5,2.974,2.974,0,0,1-4.2-.07L2000.9,395a2.974,2.974,0,0,1-.219-4.191" transform="translate(-1714.356 -333.244)" fill="#ff8c64"/>
        <path id="Caminho_2189" data-name="Caminho 2189" d="M1106.97,774.529s-1.175-19.423-4.534-25.5h17.682V774.49Z" transform="translate(-945.023 -642.076)" fill="#d9e8fe"/>
        <path id="Caminho_2190" data-name="Caminho 2190" d="M1168.887,774.529s-1.175-19.423-4.534-25.5h17.682V774.49Z" transform="translate(-998.099 -642.076)" fill="#bbc9f9"/>
        <rect id="Retângulo_1178" data-name="Retângulo 1178" width="17.113" height="55.206" transform="translate(177.44 96.502)" fill="#35488b"/>
        <rect id="Retângulo_1179" data-name="Retângulo 1179" width="41.268" height="55.206" transform="translate(194.553 96.502)" fill="#2c3a64"/>
        <path id="Caminho_2191" data-name="Caminho 2191" d="M1282.617,706.992a2.856,2.856,0,1,1,2.856,2.856,2.856,2.856,0,0,1-2.856-2.856" transform="translate(-1099.477 -603.595)" fill="#dde7fe"/>
        <path id="Caminho_2192" data-name="Caminho 2192" d="M1288.476,712.014a2.02,2.02,0,1,1,2.02,2.02,2.02,2.02,0,0,1-2.02-2.02" transform="translate(-1104.499 -608.617)" fill="#6c7aff"/>
        <rect id="Retângulo_1180" data-name="Retângulo 1180" width="8.049" height="14.541" transform="translate(182.035 110.278)" fill="#8fadef"/>
        <rect id="Retângulo_1181" data-name="Retângulo 1181" width="32.839" height="10.585" transform="translate(206.992 121.828)" fill="#cde2fc"/>
        <rect id="Retângulo_1182" data-name="Retângulo 1182" width="32.839" height="10.585" transform="translate(239.831 121.828)" fill="#a4c8f4"/>
        <rect id="Retângulo_1183" data-name="Retângulo 1183" width="8.195" height="0.23" transform="translate(206.992 127.006)" fill="#8fadef"/>
        <rect id="Retângulo_1184" data-name="Retângulo 1184" width="22.636" height="0.23" transform="translate(217.196 123.749)" fill="#8fadef"/>
        <rect id="Retângulo_1185" data-name="Retângulo 1185" width="14.488" height="0.23" transform="translate(206.992 129.856)" fill="#8fadef"/>
        <rect id="Retângulo_1186" data-name="Retângulo 1186" width="32.839" height="10.585" transform="translate(196.807 111.243)" fill="#d9e8fe"/>
        <rect id="Retângulo_1187" data-name="Retângulo 1187" width="32.839" height="10.585" transform="translate(229.646 111.243)" fill="#bbc9f9"/>
        <rect id="Retângulo_1188" data-name="Retângulo 1188" width="8.195" height="0.23" transform="translate(196.807 116.421)" fill="#8fadef"/>
        <rect id="Retângulo_1189" data-name="Retângulo 1189" width="22.635" height="0.23" transform="translate(207.011 113.163)" fill="#8fadef"/>
        <rect id="Retângulo_1190" data-name="Retângulo 1190" width="14.488" height="0.23" transform="translate(196.807 119.271)" fill="#8fadef"/>
        <g id="Grupo_1901" data-name="Grupo 1901" transform="translate(215.188 81.401)" opacity="0.5">
          <g id="Grupo_1900" data-name="Grupo 1900">
            <g id="Grupo_1899" data-name="Grupo 1899" clip-path="url(#clip-path-3)">
              <rect id="Retângulo_1191" data-name="Retângulo 1191" width="32.839" height="10.585" transform="translate(-0.001)" fill="#bdd8ff"/>
            </g>
          </g>
        </g>
        <rect id="Retângulo_1193" data-name="Retângulo 1193" width="32.839" height="10.585" transform="translate(248.026 81.401)" fill="#a4c8f4"/>
        <rect id="Retângulo_1194" data-name="Retângulo 1194" width="8.195" height="0.23" transform="translate(215.187 86.579)" fill="#8fadef"/>
        <rect id="Retângulo_1195" data-name="Retângulo 1195" width="22.635" height="0.23" transform="translate(225.391 83.322)" fill="#8fadef"/>
        <rect id="Retângulo_1196" data-name="Retângulo 1196" width="14.488" height="0.23" transform="translate(215.187 89.282)" fill="#8fadef"/>
        <rect id="Retângulo_1197" data-name="Retângulo 1197" width="32.839" height="10.585" transform="translate(205.002 70.816)" fill="#f5fbff"/>
        <rect id="Retângulo_1198" data-name="Retângulo 1198" width="32.839" height="10.585" transform="translate(237.841 70.816)" fill="#bdd8ff"/>
        <rect id="Retângulo_1199" data-name="Retângulo 1199" width="8.195" height="0.23" transform="translate(205.002 75.994)" fill="#8fadef"/>
        <rect id="Retângulo_1200" data-name="Retângulo 1200" width="8.195" height="0.23" transform="translate(236.147 75.994)" fill="#8fadef"/>
        <rect id="Retângulo_1201" data-name="Retângulo 1201" width="22.635" height="0.23" transform="translate(233.118 72.737)" fill="#8fadef"/>
        <rect id="Retângulo_1202" data-name="Retângulo 1202" width="14.488" height="0.23" transform="translate(205.002 78.844)" fill="#8fadef"/>
        <rect id="Retângulo_1203" data-name="Retângulo 1203" width="32.839" height="19.271" transform="translate(241.997 91.972)" fill="#bdd8ff"/>
        <rect id="Retângulo_1204" data-name="Retângulo 1204" width="32.839" height="19.271" transform="translate(209.158 91.972)" fill="#f5fbff"/>
        <rect id="Retângulo_1205" data-name="Retângulo 1205" width="8.195" height="0.31" transform="translate(266.641 101.452)" fill="#8fadef"/>
        <rect id="Retângulo_1206" data-name="Retângulo 1206" width="45.142" height="0.168" transform="translate(219.49 95.594)" fill="#35488b"/>
        <rect id="Retângulo_1207" data-name="Retângulo 1207" width="14.488" height="0.31" transform="translate(260.348 106.64)" fill="#8fadef"/>
        <rect id="Retângulo_1208" data-name="Retângulo 1208" width="15.563" height="0.168" transform="translate(232.463 99.046)" fill="#35488b"/>
        <rect id="Retângulo_1209" data-name="Retângulo 1209" width="96.686" height="71.435" transform="translate(192.293 132.453)" fill="#f77d48"/>
        <rect id="Retângulo_1210" data-name="Retângulo 1210" width="76.659" height="71.435" transform="translate(160.508 132.453)" fill="#ff8c64"/>
        <path id="Caminho_2193" data-name="Caminho 2193" d="M1298.844,980.727h-19.857a2.242,2.242,0,0,1-2.235-2.235v-.29a2.242,2.242,0,0,1,2.235-2.235h19.857a2.242,2.242,0,0,1,2.236,2.235v.29a2.242,2.242,0,0,1-2.236,2.235" transform="translate(-1094.449 -836.612)" fill="#2c3a64"/>
        <rect id="Retângulo_1211" data-name="Retângulo 1211" width="18.38" height="18.38" transform="translate(188.196 173.207) rotate(-80.041)" fill="#9fc1f4"/>
        <rect id="Retângulo_1212" data-name="Retângulo 1212" width="2.97" height="18.38" transform="translate(190.861 158.03) rotate(-80.041)" fill="#8fadef"/>
        <rect id="Retângulo_1213" data-name="Retângulo 1213" width="18.38" height="18.38" transform="translate(210.257 145.154) rotate(-14.719)" fill="#ffb93e"/>
        <rect id="Retângulo_1214" data-name="Retângulo 1214" width="18.38" height="2.97" transform="translate(210.257 145.155) rotate(-14.719)" fill="#ffa412"/>
        <path id="Caminho_2194" data-name="Caminho 2194" d="M1115.589,754.431a23.361,23.361,0,0,0-1.951-5.6l.149-.077a23.564,23.564,0,0,1,1.967,5.643Z" transform="translate(-954.626 -641.846)" fill="#8fadef"/>
        <path id="Caminho_2195" data-name="Caminho 2195" d="M1138.287,761.4a53.56,53.56,0,0,0-3.231-12.539l.154-.067a53.762,53.762,0,0,1,3.243,12.583Z" transform="translate(-972.985 -641.876)" fill="#8fadef"/>
        <rect id="Retângulo_1215" data-name="Retângulo 1215" width="72.837" height="53.815" transform="translate(276.546 150.029)" fill="#8fadef"/>
        <rect id="Retângulo_1216" data-name="Retângulo 1216" width="57.75" height="53.815" transform="translate(252.601 150.029)" fill="#9fc1f4"/>
        <path id="Caminho_2196" data-name="Caminho 2196" d="M1900.713,1090.722h-14.959a1.689,1.689,0,0,1-1.684-1.684v-.218a1.689,1.689,0,0,1,1.684-1.684h14.959a1.689,1.689,0,0,1,1.684,1.684v.218a1.689,1.689,0,0,1-1.684,1.684" transform="translate(-1615.05 -931.908)" fill="#35488b"/>
        <rect id="Retângulo_1217" data-name="Retângulo 1217" width="60.581" height="11.855" transform="translate(249.769 140.872)" fill="#bdd8ff"/>
        <rect id="Retângulo_1218" data-name="Retângulo 1218" width="40.848" height="11.855" transform="translate(310.35 140.872)" fill="#7da4ea"/>
        <rect id="Retângulo_1219" data-name="Retângulo 1219" width="19.153" height="19.153" transform="matrix(0.967, -0.254, 0.254, 0.967, 284.127, 166.131)" fill="#ff8c64"/>
        <rect id="Retângulo_1220" data-name="Retângulo 1220" width="19.153" height="3.095" transform="translate(284.127 166.131) rotate(-14.719)" fill="#f77d48"/>
        <path id="Caminho_2197" data-name="Caminho 2197" d="M2031.524,743.989l15.187-12.228,22.534,2.755v9.472Z" transform="translate(-1741.45 -627.276)" fill="#f77d48"/>
        <rect id="Retângulo_1221" data-name="Retângulo 1221" width="37.721" height="12.345" transform="translate(267.54 104.426)" fill="#ff8c64"/>
        <path id="Caminho_2198" data-name="Caminho 2198" d="M2093.175,761.118a1.952,1.952,0,1,1-1.951,1.952,1.951,1.951,0,0,1,1.951-1.952" transform="translate(-1792.625 -652.441)" fill="#dde7fe"/>
        <path id="Caminho_2199" data-name="Caminho 2199" d="M2098.34,767.144a1.091,1.091,0,1,1-1.091,1.091,1.091,1.091,0,0,1,1.091-1.091" transform="translate(-1797.79 -657.607)" fill="#0b0755"/>
        <rect id="Retângulo_1222" data-name="Retângulo 1222" width="11.675" height="5.5" transform="translate(284.174 107.922)" fill="#bdd8ff"/>
        <rect id="Retângulo_1223" data-name="Retângulo 1223" width="37.383" height="12.05" transform="translate(269.806 128.822)" fill="#dde7fe"/>
        <rect id="Retângulo_1224" data-name="Retângulo 1224" width="37.383" height="12.05" transform="translate(307.188 128.822)" fill="#b5c6e8"/>
        <rect id="Retângulo_1225" data-name="Retângulo 1225" width="9.329" height="0.262" transform="translate(269.806 134.716)" fill="#35488b"/>
        <rect id="Retângulo_1226" data-name="Retângulo 1226" width="25.767" height="0.262" transform="translate(281.421 131.008)" fill="#35488b"/>
        <rect id="Retângulo_1227" data-name="Retângulo 1227" width="16.492" height="0.262" transform="translate(269.806 137.96)" fill="#35488b"/>
        <rect id="Retângulo_1228" data-name="Retângulo 1228" width="37.383" height="12.05" transform="translate(258.212 116.772)" fill="#e9f0ff"/>
        <rect id="Retângulo_1229" data-name="Retângulo 1229" width="37.382" height="12.05" transform="translate(295.594 116.772)" fill="#bbc9f9"/>
        <rect id="Retângulo_1230" data-name="Retângulo 1230" width="9.329" height="0.262" transform="translate(258.212 122.666)" fill="#8fadef"/>
        <rect id="Retângulo_1231" data-name="Retângulo 1231" width="25.767" height="0.262" transform="translate(269.827 118.958)" fill="#8fadef"/>
        <rect id="Retângulo_1232" data-name="Retângulo 1232" width="16.492" height="0.262" transform="translate(258.212 125.91)" fill="#8fadef"/>
        <path id="Caminho_2200" data-name="Caminho 2200" d="M435.674,339.086a1.563,1.563,0,0,1-1.361-.5,1.173,1.173,0,0,1-.14-.911c.677-3.585,12.473-13.79,28.05-24.266,15.205-10.226,32.065-19.17,33.958-16.437a1.172,1.172,0,0,1,.14.911c-.676,3.585-12.473,13.79-28.05,24.266-13.321,8.959-27.913,16.935-32.6,16.935m-1.083-.691c.708,1.022,4.775-.148,10.878-3.131a201.813,201.813,0,0,0,22.613-13.394c15.258-10.262,27.255-20.6,27.906-24.048a.854.854,0,0,0-.085-.656c-.708-1.022-4.774.148-10.878,3.131a201.81,201.81,0,0,0-22.613,13.394c-15.258,10.262-27.255,20.6-27.906,24.048a.853.853,0,0,0,.086.656Z" transform="translate(-372.153 -254.143)" fill="#f99746"/>
        <path id="Caminho_2201" data-name="Caminho 2201" d="M547.921,968.4c-10.591-3.4-78.163,25.675-78.163,25.675s-11,7.812-.5,24.165c8.723,13.578,74.345-27.9,75.535-22.693,2.84,12.441,27.046,36.309,27.046,36.309,4.042,1.326,13.039-4.072,13.039-4.072-9.452-14.36-28.5-56.668-36.959-59.384" transform="translate(-398.362 -829.886)" fill="#2c3a64"/>
        <path id="Caminho_2202" data-name="Caminho 2202" d="M731.1,528.817a12.72,12.72,0,0,1-1.723-4.722c-.239-2.376.134-9.066-1.541-10.627s-6.979-5.424-8.893-4.6,4.364,4.689,4.554,6.645.07,2.172-.661,2.3-3.146-2.746-3.157-1.831,2.35,5.948,3.525,6.957,2.921,8.761,2.921,8.761Z" transform="translate(-615.975 -436.114)" fill="#ed975d"/>
        <path id="Caminho_2203" data-name="Caminho 2203" d="M610.654,626.04s-6.259,0-7.318,5.048a299.591,299.591,0,0,0,2.571,32.457c-13.495-12.75-8.5-12.556-19.469-20.86-4.458-3.374-8.474,8.233-8.363,16.446s28.746,26.981,36.117,24.675c7.995-2.5,9.633-20.409-3.539-57.766" transform="translate(-495.532 -536.65)" fill="#8fadef"/>
        <path id="Caminho_2204" data-name="Caminho 2204" d="M1550.469,1282.936c.035-.025.229-.285.27-.321l12.7-21.331a1.1,1.1,0,0,0-.708-1.664,4.972,4.972,0,0,0-5.017,1.827c-2.542,3.3-8.031,8.437-13.416,7.336-.171-.036-.346-.078-.52-.127-5.545-1.561-3.447,10.006-3.447,10.006s.183.131.5.346c1.713,1.168,8.042,5.046,9.638,3.927" transform="translate(-1320.058 -1079.667)" fill="#2c3a64"/>
        <path id="Caminho_2205" data-name="Caminho 2205" d="M357.674,1193.068s58.846-2.6,81.6,3.3c0,0,22.615,15.907,3.739,21.189-7.345,2.056-32.455,8.074-46.051,8.074-22.317,0-43.673.143-43.673.143-3.439-1.513-3.974-11.687-4.53-14.426-3.865-19.049,8.918-18.276,8.918-18.276" transform="translate(-298.334 -1022.224)" fill="#35488b"/>
        <path id="Caminho_2206" data-name="Caminho 2206" d="M935.508,1217.195s61.679,11.706,85.628,15.446c0,0-2.6,10.06-6.5,12.29,0,0-14.247.933-28.493,1.868-17.589,1.154-34.938-1-45.487-5.238-23.818-9.564-5.152-24.366-5.152-24.366" transform="translate(-795.967 -1043.396)" fill="#35488b"/>
        <path id="Caminho_2207" data-name="Caminho 2207" d="M503.059,620.153c-10.853-.484-25.015-17.188-25.015-17.188A25.9,25.9,0,0,0,491.4,591.422a31.434,31.434,0,0,0,2.726-6.093l3.605,5.982,5.314,8.82s-.481,1.285-1.56,3.548v0c-.36.754-.784,1.62-1.282,2.58-.6,1.155-1.3,2.448-2.1,3.865,3.34,3.824,4.957,10.026,4.957,10.026" transform="translate(-409.786 -501.752)" fill="#ffb27d"/>
        <path id="Caminho_2208" data-name="Caminho 2208" d="M593.648,633.908s-.481,1.285-1.561,3.548a18.812,18.812,0,0,1-8.349-12.717,30.252,30.252,0,0,1,4.6.349Z" transform="translate(-500.388 -535.529)" fill="#ed975d"/>
        <path id="Caminho_2209" data-name="Caminho 2209" d="M595.442,515.562S579.057,509.85,582.77,499.7s4.1-17.722,14.719-14.5,11.223,7.83,10.807,11.519-8.5,20.07-12.854,18.846" transform="translate(-499.089 -415.275)" fill="#ffb27d"/>
        <path id="Caminho_2210" data-name="Caminho 2210" d="M554.073,438.221c-.121-.219-.459-.446-1.27-.663a3.364,3.364,0,0,1,1.624-.12c.413-1.123,1.447-3.048,3.515-3.138a2.549,2.549,0,0,0-1.569,1.555c2.769-1.9,8-2.612,21.276,1.279,17.492,5.128,9.222,15.475,6.632,16.375s-7.6-4.087-11.963-4.634-6.489,5.58-8.125,6.141-.745-.848-2.526-2.161-2.658,1.961-2.538,4.235-3.762,4.223-3.762,4.223a15.313,15.313,0,0,0-1.528-3.231c-2.132-3.549-2.053-16.765-.248-19.207.159-.216.318-.435.481-.654" transform="translate(-473.387 -372.289)" fill="#2b478b"/>
        <path id="Caminho_2211" data-name="Caminho 2211" d="M356.884,706.012c-1.233,31.79-11.9,26.883-6.353,36.293,3.535,5.993-3.851,10.724-11.96,16.833-.238.178-.476.36-.714.541-2.326,1.769-4.787,3.5-7.248,5.074a63.391,63.391,0,0,1-10.97,5.782c-3.4,1.3-6.291,1.774-8.152.966-.059-.024-.114-.046-.168-.073-1.59-.784-2.91-2.91-3.989-5.791-1.939-5.133-4.141-25.437-4.768-31.5-.111-1.09-.173-1.72-.173-1.72-3.6-44.258,33.142-59.8,33.142-59.8s3.216,9.607,13.6,9.017c.019.016,8.273,10.913,7.751,24.384" transform="translate(-259 -576.572)" fill="#9fc1f4"/>
        <path id="Caminho_2212" data-name="Caminho 2212" d="M341.1,896.638c-.238.178-.476.359-.714.541-2.326,1.769-4.787,3.5-7.248,5.074a63.384,63.384,0,0,1-10.97,5.782c-3.686,1.047-6.737,1.509-8.152.966-.06-.024-.114-.046-.168-.073-1.59-.784-2.91-2.91-3.989-5.791-1.939-5.133-4.141-25.437-4.768-31.5,4.509-12.977,10.707-27.644,17.588-34.213,13.566-12.955,17.7,6.775,17.7,6.775s-10.494,25.888.72,52.442" transform="translate(-261.529 -714.071)" fill="#8fadef"/>
        <path id="Caminho_2213" data-name="Caminho 2213" d="M379.349,740.256c-5.379,13.372-16.549,39.163-12.575,51.709,0,0,16.085,4.245,16.552-.733,2.61-27.825,26.548-58.262,8.071-57.666-5.169.167-10.117,1.891-12.047,6.689" transform="translate(-313.686 -628.817)" fill="#9fc1f4"/>
        <path id="Caminho_2214" data-name="Caminho 2214" d="M571.735,746.9s12.827,38.737,5.4,76.1L566.1,826.794l-2.7-7.845s14.3-36.544,6.556-71.639Z" transform="translate(-482.953 -640.251)" fill="#f77d48"/>
        <path id="Caminho_2215" data-name="Caminho 2215" d="M434.844,1361.59s4.192,5.724,9.331,4.913,7.032.677,9.331,1.893,2.931,1.858,2.108,2.18c-.62.242-11.846.12-17.359.044-1.81-.025-6.994-4.861-6.994-4.861Z" transform="translate(-369.682 -1167.174)" fill="#ffb27d"/>
        <path id="Caminho_2216" data-name="Caminho 2216" d="M366.768,1095.081c-.781,20.9,6.426,35.162,8.381,42.469,0,0,2.377,1.127,4.225.518,4.042-1.331,3.994-4.538,3.994-4.538s.108-26,.619-35.553c.5-9.308-17.057-7.259-17.22-2.9" transform="translate(-314.348 -935.561)" fill="#9fc1f4"/>
        <path id="Caminho_2217" data-name="Caminho 2217" d="M521.3,655.492a9.368,9.368,0,0,0-5.154,3.872s1.343,5.8,14.46,9.049l-.5-1.517s-7.494-3.682-8.811-11.4" transform="translate(-442.446 -561.897)" fill="#f77d48"/>
        <path id="Caminho_2218" data-name="Caminho 2218" d="M609.974,726.72a22.969,22.969,0,0,0,3.238-1.439,5.351,5.351,0,0,1,.4,2.772s-.866.543-3.139.184-.5-1.517-.5-1.517" transform="translate(-522.311 -621.721)" fill="#f77d48"/>
        <path id="Caminho_2219" data-name="Caminho 2219" d="M604.294,734.829s-2.614-.223-2.885.114,1.528,3.425,2.419,3.276,1.187-3.029.466-3.39" transform="translate(-515.513 -629.844)" fill="#f77d48"/>
        <path id="Caminho_2220" data-name="Caminho 2220" d="M438.426,341.641a1.563,1.563,0,0,1-1.361-.5l.278-.193c1.369,1.976,15.153-4.192,33.491-16.525,15.258-10.262,27.255-20.6,27.905-24.048a.853.853,0,0,0-.086-.656l.278-.193a1.171,1.171,0,0,1,.14.911c-.676,3.585-12.473,13.79-28.049,24.266-13.321,8.959-27.913,16.935-32.6,16.935" transform="translate(-374.658 -256.76)" fill="#f99746"/>
        <path id="Caminho_2221" data-name="Caminho 2221" d="M396.417,394.459a40.872,40.872,0,0,1-8.761-.753c-2.339-.537-3.7-1.351-4.055-2.418a2.128,2.128,0,0,1,.28-1.779c1.588-2.717,7.974-5.451,11.64-6.839a152.113,152.113,0,0,1,23.468-6.418,150.172,150.172,0,0,1,27.374-3.094,41.129,41.129,0,0,1,8.886.753c2.339.537,3.7,1.351,4.055,2.418a2.13,2.13,0,0,1-.28,1.78c-1.588,2.717-7.974,5.451-11.64,6.839a152.123,152.123,0,0,1-23.468,6.418,150.171,150.171,0,0,1-27.373,3.094h-.126m50.069-20.88h-.122a149.761,149.761,0,0,0-27.293,3.086c-17.806,3.506-32.453,9-34.826,13.056a1.731,1.731,0,0,0-.244,1.435c.6,1.832,5.128,2.881,12.419,2.881h.122a149.765,149.765,0,0,0,27.293-3.086c17.806-3.506,32.453-9,34.826-13.057a1.73,1.73,0,0,0,.244-1.435c-.6-1.832-5.128-2.881-12.419-2.881" transform="translate(-328.751 -319.877)" fill="#f99746"/>
        <path id="Caminho_2222" data-name="Caminho 2222" d="M454.1,429.735l-1.057.839,1.309.329.471,1.264.717-1.143,1.348-.057-.866-1.035.362-1.3-1.252.5-1.124-.746Z" transform="translate(-388.356 -367.221)" fill="#ffb93e"/>
        <path id="Caminho_2223" data-name="Caminho 2223" d="M836.169,324.768l-.432,1.278,1.278-.435,1.082.806-.019-1.349,1.1-.78-1.289-.4-.4-1.288-.778,1.1-1.349-.016Z" transform="translate(-716.083 -276.538)" fill="#ffb93e"/>
        <path id="Caminho_2224" data-name="Caminho 2224" d="M734.886,261.165l-.57,1.223,1.317-.292.987.92.13-1.343,1.18-.655-1.237-.538-.258-1.324-.894,1.011L734.2,260Z" transform="translate(-629.367 -222.152)" fill="#f99746"/>
        <path id="Caminho_2225" data-name="Caminho 2225" d="M849.728,497.247l-.57,1.223,1.318-.292.987.92.13-1.343,1.18-.655-1.237-.538-.258-1.324-.894,1.01-1.339-.164Z" transform="translate(-727.811 -424.525)" fill="#f99746"/>
        <path id="Caminho_2226" data-name="Caminho 2226" d="M480.173,564.755l-1.118.755,1.28.428.373,1.3.8-1.085,1.349.046-.784-1.1.461-1.268-1.287.406-1.064-.83Z" transform="translate(-410.652 -482.96)" fill="#ffb93e"/>
        <path id="Caminho_2227" data-name="Caminho 2227" d="M298.258,511.938l7.165,2.425-.842-2.926,4.193.8-7.363-3.68,1.282,3.419Z" transform="translate(-255.671 -435.941)" fill="#f99746"/>
        <path id="Caminho_2228" data-name="Caminho 2228" d="M628.637,239.706l-.466,11.579,3.937-2.5.639,6.508,2.225-12.414-4.47,3.362Z" transform="translate(-538.477 -205.48)" fill="#f99746"/>
        <path id="Caminho_2229" data-name="Caminho 2229" d="M1709.137,1320.534c.207.5.588,3.136,1.4,5.344v0a5.43,5.43,0,0,0,1.987,2.952c2.278,1.218,6.31-.431,6.31-.431s6.691,1.15,7.364.875,1.886-10.346,1.886-10.346-4.937-5.732-5.4-5.914-4.406,1.628-5.061,1.592-4.351-2.752-5.415-2.181-3.406,7.308-3.075,8.106" transform="translate(-1465.068 -1124.964)" fill="#fff"/>
        <path id="Caminho_2230" data-name="Caminho 2230" d="M1768.79,1318.542a19.086,19.086,0,0,0,1.337,2.959c.314.251,3.723-4.551,3.723-4.551-.459-.182-4.406,1.628-5.061,1.592" transform="translate(-1516.231 -1128.897)" fill="#f2f7fe"/>
        <path id="Caminho_2231" data-name="Caminho 2231" d="M1723.77,1331.331s4.541,4.7,4.455,5.108-5.362,3.083-5.543,2.969,1.283-3.412,1.253-3.986-.165-4.09-.165-4.09" transform="translate(-1476.692 -1141.235)" fill="#f2f7fe"/>
        <path id="Caminho_2232" data-name="Caminho 2232" d="M1709.137,1321.008c.207.5.588,3.136,1.4,5.344v0h0l-.3-4.973,1.97-8.479c-1.064.574-3.406,7.308-3.075,8.106" transform="translate(-1465.068 -1125.438)" fill="#f2f7fe"/>
        <path id="Caminho_2233" data-name="Caminho 2233" d="M1777.244,1367.916s6.691,1.15,7.364.875,1.886-10.346,1.886-10.346-1.752,5.1-1.8,5.359-2.088-.424-2.088-.424Z" transform="translate(-1523.478 -1164.478)" fill="#f2f7fe"/>
        <path id="Caminho_2234" data-name="Caminho 2234" d="M1815.092,1357.765l-.9,2.639-1.543-.085,1.208-1.062Z" transform="translate(-1553.83 -1163.895)" fill="#f2f7fe"/>
        <path id="Caminho_2235" data-name="Caminho 2235" d="M1974.159,1352.771c.161.339.458,2.127,1.088,3.628v0a3.79,3.79,0,0,0,1.542,2.018c1.768.85,4.894-.219,4.894-.219a46.207,46.207,0,0,0,5.712.677c.521-.178,1.459-6.972,1.459-6.972s-3.832-3.932-4.188-4.06-3.417,1.05-3.925,1.018-3.376-1.911-4.2-1.537-2.64,4.9-2.383,5.444" transform="translate(-1692.254 -1154.905)" fill="#fff"/>
        <path id="Caminho_2236" data-name="Caminho 2236" d="M2020.418,1352.213a12.39,12.39,0,0,0,1.038,2.016c.244.173,2.887-3.034,2.887-3.034-.356-.128-3.417,1.05-3.925,1.018" transform="translate(-1731.93 -1158.255)" fill="#c4d9e8"/>
        <path id="Caminho_2237" data-name="Caminho 2237" d="M1985.513,1360.073s3.524,3.227,3.458,3.5a20.922,20.922,0,0,1-4.3,1.943c-.141-.079.995-2.292.97-2.68s-.129-2.767-.129-2.767" transform="translate(-1701.277 -1165.873)" fill="#dfebf5"/>
        <path id="Caminho_2238" data-name="Caminho 2238" d="M1974.159,1353.066c.161.339.458,2.127,1.088,3.628v0h0l-.232-3.365,1.526-5.709c-.825.376-2.64,4.9-2.383,5.444" transform="translate(-1692.254 -1155.2)" fill="#c4d9e8"/>
        <path id="Caminho_2239" data-name="Caminho 2239" d="M2027.009,1385.981a46.132,46.132,0,0,0,5.712.676c.521-.178,1.459-6.972,1.459-6.972s-1.357,3.43-1.393,3.6-1.619-.311-1.619-.311Z" transform="translate(-1737.58 -1182.685)" fill="#dfebf5"/>
        <path id="Caminho_2240" data-name="Caminho 2240" d="M2056.35,1379.084l-.694,1.774-1.2-.075.937-.7Z" transform="translate(-1761.11 -1182.17)" fill="#dfebf5"/>
        <path id="Caminho_2241" data-name="Caminho 2241" d="M2028.325,659.048c.161.339.458,2.127,1.089,3.628v0a3.787,3.787,0,0,0,1.542,2.018c1.768.849,4.894-.219,4.894-.219a46.231,46.231,0,0,0,5.712.677c.521-.178,1.459-6.972,1.459-6.972s-3.832-3.932-4.188-4.059-3.417,1.05-3.925,1.018-3.376-1.91-4.2-1.536-2.64,4.9-2.383,5.444" transform="translate(-1738.687 -560.236)" fill="#fff"/>
        <path id="Caminho_2242" data-name="Caminho 2242" d="M2074.585,658.492a12.4,12.4,0,0,0,1.039,2.016c.244.173,2.886-3.034,2.886-3.034-.356-.128-3.417,1.05-3.925,1.018" transform="translate(-1778.362 -563.587)" fill="#c4d9e8"/>
        <path id="Caminho_2243" data-name="Caminho 2243" d="M2039.68,666.351s3.524,3.227,3.458,3.5a20.951,20.951,0,0,1-4.3,1.943c-.141-.079.994-2.292.97-2.68s-.129-2.767-.129-2.767" transform="translate(-1747.71 -571.205)" fill="#dfebf5"/>
        <path id="Caminho_2244" data-name="Caminho 2244" d="M2028.325,659.343c.161.339.458,2.127,1.089,3.628v0h0l-.232-3.365,1.525-5.709c-.825.376-2.64,4.9-2.383,5.444" transform="translate(-1738.687 -560.531)" fill="#c4d9e8"/>
        <path id="Caminho_2245" data-name="Caminho 2245" d="M2081.176,692.259a46.181,46.181,0,0,0,5.712.676c.521-.178,1.46-6.972,1.46-6.972s-1.358,3.429-1.393,3.6-1.62-.311-1.62-.311Z" transform="translate(-1784.012 -588.018)" fill="#dfebf5"/>
        <path id="Caminho_2246" data-name="Caminho 2246" d="M2110.517,685.362l-.695,1.774-1.2-.076.937-.7Z" transform="translate(-1807.542 -587.502)" fill="#dfebf5"/>
        <path id="Caminho_2247" data-name="Caminho 2247" d="M386.561,1425.038H.438A.44.44,0,0,1,0,1424.6v-.15a.44.44,0,0,1,.438-.438H386.561a.44.44,0,0,1,.438.438v.15a.44.44,0,0,1-.438.438" transform="translate(0 -1220.682)" fill="#233862"/>
      </g>
    </g>
  </g>
</svg>
