<svg xmlns="http://www.w3.org/2000/svg" xmlns:xlink="http://www.w3.org/1999/xlink" width="744" height="74" viewBox="0 0 744 74">
  <defs>
    <clipPath id="clip-path">
      <rect id="Retângulo_1066" data-name="Retângulo 1066" width="64.08" height="63.96" transform="translate(208.065 7.47)" fill="#fff"/>
    </clipPath>
    <clipPath id="clip-path-2">
      <rect id="Retângulo_1067" data-name="Retângulo 1067" width="63.96" height="63.96" transform="translate(396.75 0.032)" fill="#fff"/>
    </clipPath>
  </defs>
  <g id="img-slide-58" transform="translate(-72 -173)">
    <rect id="Retângulo_459" data-name="Retângulo 459" width="186" height="74" transform="translate(72 173)" fill="#284565"/>
    <rect id="Retângulo_461" data-name="Retângulo 461" width="186" height="74" transform="translate(258 173)" fill="#f29f00"/>
    <rect id="Retângulo_462" data-name="Retângulo 462" width="186" height="74" transform="translate(444 173)" fill="#1b8891"/>
    <rect id="Retângulo_876" data-name="Retângulo 876" width="186" height="74" transform="translate(630 173)" fill="#6aaac6"/>
    <path id="Caminho_1819" data-name="Caminho 1819" d="M58.012,31.987a3.418,3.418,0,0,1-1.325-2.966c.048-4.618.014-9.238.017-13.857,0-2.365-1.047-4.3-3.423-4.373-2.36-.07-2.846-1.062-3.023-3.03-.193-2.148-1.59-3.2-3.741-3.076s-3.43,1.373-3.343,3.5c.082,2.031-.725,2.48-2.607,2.495-1.833.015-2.41-.473-2.405-2.349A3.459,3.459,0,0,0,34.379,4.67a3.428,3.428,0,0,0-3.507,3.668c.049,1.9-.589,2.35-2.405,2.342-1.89-.009-2.6-.485-2.615-2.5a3.531,3.531,0,0,0-5.043-3.288c-1.8.761-2.231,2.4-2.247,4.084-.021,2.3-1.662,1.481-2.814,1.635-1.344.181-1.855-.321-1.915-1.767-.12-2.864-1.492-4.229-3.807-4.176-2.342.054-3.352,1.208-3.541,4.356-.068,1.139-.378,1.724-1.575,1.588C2.467,10.337,1.1,11.767.032,13.668v2.476c1.5.888,2.065-.24,2.67-1.242.476-.789.949-1.69,1.992-1.627,1.3.078,1.021,1.306,1.213,2.108a3.979,3.979,0,0,0,3.77,3.344,4.181,4.181,0,0,0,4.5-2.752,6.843,6.843,0,0,0,.41-1.422c.175-.885.532-1.552,1.594-1.536,1.027.016,1.423.683,1.681,1.522a12.768,12.768,0,0,0,.622,1.876,4.321,4.321,0,0,0,6.9,1.087,5.917,5.917,0,0,0,1.254-3.168A1.594,1.594,0,0,1,28.436,13a1.456,1.456,0,0,1,1.588,1.249c.087.4.132.816.256,1.209a4.4,4.4,0,0,0,4.168,3.278,4.228,4.228,0,0,0,4.125-2.975,7.674,7.674,0,0,0,.392-1.429A1.549,1.549,0,0,1,40.746,13a1.629,1.629,0,0,1,1.7,1.467c.075.405.144.812.252,1.21a3.9,3.9,0,0,0,3.988,3.064,3.865,3.865,0,0,0,4.022-2.671c.248-.612.359-1.27.612-1.88.494-1.187,1.281-1.148,2.148-.445.89.721,1.342,4.431.762,5.926-.614,1.581-2.031,1.187-3.189,1.19-15.114.032-30.229.006-45.343.041-1.642,0-2.808-.279-3.428-2.058C1.9,17.777.916,17.368.032,18.62V52.292c1.188,2.494,3.211,3.128,5.875,3.1,9.671-.114,19.345-.026,29.017-.065a6.479,6.479,0,0,1,4.1,1.261,15.6,15.6,0,0,0,17.051.511c.616-.409,1.814-.707,1.2-1.774-.638-1.1-1.449-.175-2.1.189A13.811,13.811,0,0,1,34.354,41.149,14.114,14.114,0,0,1,49.028,30.064a13.842,13.842,0,0,1,12.6,13.8,13.356,13.356,0,0,1-2.471,7.882c-.4.581-1.1,1.341-.3,1.949,1.019.776,1.342-.447,1.886-.952a2,2,0,0,0,.279-.408,15.491,15.491,0,0,0-3.013-20.349M11.94,11.3c0,1.07.011,2.139-.006,3.208A1.773,1.773,0,0,1,10.1,16.423c-1.162.008-1.706-.862-1.713-2-.013-1.974-.01-3.948,0-5.922,0-1.132.513-2.036,1.675-2.037a1.833,1.833,0,0,1,1.889,2.119c-.014.9,0,1.809-.006,2.714m12.276,3.155A1.9,1.9,0,0,1,22.4,16.434c-1.277.022-1.906-.9-1.946-2.1-.064-1.886-.046-3.775-.015-5.661.02-1.2.579-2.2,1.833-2.221,1.415-.029,1.924,1.066,1.982,2.339.042.9.008,1.8.008,2.707h-.023c0,.985.069,1.975-.018,2.952m12.059.2a1.756,1.756,0,1,1-3.509-.042c-.05-2.125-.037-4.251,0-6.376a1.7,1.7,0,0,1,1.655-1.808,1.729,1.729,0,0,1,1.855,1.851c.056,1.06.012,2.125.009,3.188s.031,2.126-.011,3.187m12.262.056a1.818,1.818,0,0,1-1.78,1.738,1.711,1.711,0,0,1-1.849-1.636c-.126-2.2-.121-4.424-.027-6.631a1.751,1.751,0,0,1,1.773-1.735,1.853,1.853,0,0,1,1.912,1.873c.108,1.139.024,2.3.024,3.443h-.028a26.08,26.08,0,0,1-.025,2.947M28.5,23.2c4.38,0,4.38,0,4.38,4.473,0,4.4,0,4.4-4.686,4.4-4.345,0-4.345,0-4.345-4.215,0-4.658,0-4.658,4.651-4.658M32.87,38.906c-.231,3.926-.286,3.977-4.284,3.978H28.34c-4.486,0-4.486,0-4.486-4.531,0-4.369,0-4.369,4.407-4.369,4.9,0,4.9,0,4.609,4.922M6.116,23.2H6.61c4.369,0,4.369,0,4.369,4.454,0,4.419,0,4.419-4.393,4.419-4.627,0-4.627,0-4.627-4.689,0-4.184,0-4.184,4.157-4.184m4.862,15.432c0,4.255,0,4.255-4.512,4.255s-4.506,0-4.506-4.516c0-4.384,0-4.384,4.4-4.384,4.62,0,4.62,0,4.62,4.645M7.083,53.671c-4.929.028-5.128-.216-5.124-5.694,0-3.174,0-3.174,4.658-3.174,4.362,0,4.384,0,4.354,5.43-.022,3.98.519,3.413-3.888,3.438M17.276,23.2c4.651,0,4.651,0,4.651,4.677,0,4.2,0,4.2-4.626,4.2-4.393,0-4.393,0-4.393-4.42,0-4.453,0-4.453,4.368-4.453m.275,30.481c-4.643,0-4.643,0-4.643-4.675,0-4.2,0-4.2,4.612-4.2,4.407,0,4.407,0,4.407,4.414,0,4.461,0,4.461-4.376,4.461m-.088-10.794c-4.554,0-4.554,0-4.554-4.459,0-4.441,0-4.441,4.579-4.441,4.441,0,4.441,0,4.441,4.342,0,4.558,0,4.558-4.466,4.558M34.915,53.162c-1.315,1.275-3.4.168-4.735.517-6.334,0-6.173-.007-6.4-5.882-.1-2.634.781-3.309,3.181-3.025,1.548.183,3.31-.354,4.65.206,1.515.634.873,2.776,1.571,4.133s2.117,3.679,1.733,4.051m6.819-23.588a11,11,0,0,0-3.376,1.968,3.108,3.108,0,0,1-3.046.344c-.929-.389-.413-1.453-.5-2.219a15.208,15.208,0,0,1-.013-1.722c0-4.751,0-4.751,4.882-4.749a2.517,2.517,0,0,1,.737.01c1.228.4,3.322-1.057,3.58,1.31.213,1.953.89,4.328-2.264,5.058m11.6-.377a13.321,13.321,0,0,0-6.039-.916c-1.337.1-1.725-.5-1.512-1.536.254-1.237-1.1-3.207,1.381-3.522a25.65,25.65,0,0,1,3.211-.023v-.01c.082,0,.164,0,.247,0,4.866.1,4.384-.972,4.43,4.751.011,1.308-.29,1.845-1.718,1.256" transform="translate(132.968 182.426)" fill="#fff"/>
    <g id="Grupo_1459" data-name="Grupo 1459" transform="translate(110.935 171.447)" clip-path="url(#clip-path)">
      <path id="Caminho_1822" data-name="Caminho 1822" d="M232.8,12.144c-1.874,3.967-.793,7.347,2.06,10.463-3.856,1.646-5.351,4.579-5.079,8.537.034.492,0,.989,0,1.483,0,4.846,0,4.825-4.746,4.994-.689.025-.858-.329-1.005-.8a8.631,8.631,0,0,0-2.708-3.758c4.918-4.888,5.486-9.915,1.563-13.672a8.39,8.39,0,0,0-11.982.324c-3.662,3.894-2.931,8.885,2,13.328-2.627,1.97-3.386,4.681-3.3,7.841.11,4.118.048,8.242.018,12.362a6.276,6.276,0,0,0,1.606,4.785c.959.935.634,1.6.145,2.552-1.072,2.086-2.89,3.844-2.786,6.467.1,2.58,1.174,3.805,3.781,3.809,18.646.023,37.291,0,55.937.039a4.8,4.8,0,0,0,3.72-2.006v-3.96c-1.27-1.309-1.824-3.068-2.855-4.524a1.541,1.541,0,0,1,.187-2.326A6.372,6.372,0,0,0,271,53.328c-.019-4.271-.068-8.542.016-12.811a8.553,8.553,0,0,0-3.388-7.53,11.553,11.553,0,0,0,4.4-5.673v-3.96c-1.17-2.049-2.229-4.167-4.479-5.336a8.5,8.5,0,0,0-10.813,2.521,8.2,8.2,0,0,0,1.247,11.151c1.32,1.112,1.338,1.7.078,2.629a1.132,1.132,0,0,0-.45.577c-.776,3.619-3.515,2.176-5.676,2.212-1.1.018-1.086-.772-1.088-1.535-.005-1.483-.077-2.97.009-4.447.231-3.954-1.248-6.878-5.1-8.527,2.673-2.87,3.8-6.037,2.385-9.792-1.045-2.766-3.373-4.1-5.843-5.294h-3.964c-2.185,1.136-4.388,2.212-5.531,4.631M210.715,25.622a6.348,6.348,0,1,1,6.434,6.15,6.342,6.342,0,0,1-6.434-6.15m1.052,27.811c-.038-4.613-.093-9.229.016-13.841.085-3.592,2.649-5.971,5.783-5.626,3.25.358,5.078,3.043,4.6,6.754a1.334,1.334,0,0,1-.439-.185c-.73-.719-.957-2.7-2.391-1.693-1.241.872.292,2.005.665,3,.114.3.365.558.475.863,1.137,3.167,3.312,4.5,6.676,3.914a10.627,10.627,0,0,1,2.469.015A1.526,1.526,0,0,1,231.2,48.2a1.442,1.442,0,0,1-1.623,1.481q-3.71.015-7.42-.008c-1.256-.009-1.865-.9-2.412-1.853q-1.6-2.784-3.2-5.568c-.335-.578-.725-1.256-1.512-.906-.912.406-.679,1.177-.338,1.892a.8.8,0,0,0,.129.21c4.817,5.112,1.573,9.271-1.633,13.442-1.256-.808-1.418-2.139-1.429-3.457m58.1,14.1c.014,1.362-1.224,1.3-2.231,1.3q-27.246,0-54.493,0c-1.057,0-2.46.172-2.36-1.389.085-1.326,1.424-.8,2.214-.8,9.082-.038,18.165-.024,27.247-.024,9.165,0,18.33-.015,27.495.025.774,0,2.112-.541,2.128.9M257.219,25.594a6.35,6.35,0,1,1,6.4,6.178,6.346,6.346,0,0,1-6.4-6.178m3.842,15.549c.295-.8,1.262-1.706.2-2.382-1.1-.7-1.506.514-2,1.228-.18.258-.36.517-.829,1.193-.352-4.427,1.613-7.109,4.946-7.253,3.2-.138,5.453,2.356,5.5,6.226.049,4.284.024,8.57,0,12.854a4.607,4.607,0,0,1-1.613,4.07c-1.482-2.583-2.931-5.091-4.364-7.609-.419-.738.212-1.234.507-1.778.785-1.447,1.614-2.871,2.43-4.3.392-.688.692-1.481-.1-1.973-.873-.544-1.318.242-1.7.9-1.071,1.853-2.163,3.7-3.194,5.571A3.066,3.066,0,0,1,257.9,49.72c-2.144-.046-4.289-.016-6.433-.01-1.1,0-2.094-.31-2.027-1.585.063-1.208,1.032-1.564,2.144-1.521a3.118,3.118,0,0,1,.493,0c4.713,1,7.438-1.253,8.986-5.463M252.476,39.2c1.716,0,4.509,2.786,4.465,4.427-.021.8-.606.874-1.2.88-1.486.017-2.974-.027-4.458.032-2.372.1-3.929,1.481-4.021,3.5a3.558,3.558,0,0,0,3.705,3.793c3.113.045,6.289.59,9.332-.464.841-.291,1.186-.092,1.564.57,2.321,4.056,4.659,8.1,7.193,12.5H211.607c1.746-3.056,3.444-5.818,4.93-8.689,1.446-2.793,2.646-5.371,6.759-3.957,1.844.634,4.1.178,6.154.074,2.409-.121,3.893-1.569,3.921-3.618.029-2.122-1.573-3.615-4.059-3.713-1.4-.055-2.807-.029-4.21-.019-1.49.011-1.6-.563-1.029-1.839,1.114-2.477,2.58-3.689,5.621-3.575,7.585.283,15.187.089,22.782.1m-3.77-9.862c.131,2.131.045,4.277.044,6.416,0,.66.045,1.329-.953,1.365-1.157.042-1.1-.732-1.1-1.481-.013-1.81,0-3.621-.025-5.431-.01-.687-.165-1.357-1.04-1.4-.95-.049-1.024.7-1.042,1.347-.049,1.809-.069,3.621-.026,5.43.028,1.166-.45,1.5-1.606,1.574-6.671.412-6.657.443-6.9-6.171-.03-.816.356-2.114-.969-2.138-1.51-.028-1.1,1.351-1.133,2.255-.057,1.562-.014,3.127-.022,4.69,0,.683-.032,1.309-1.006,1.329s-1.051-.561-1.048-1.274c.011-2.221-.092-4.45.061-6.662a5.14,5.14,0,0,1,4.87-4.741c1.224-.119,2.469-.02,3.7-.02v-.009c1.071,0,2.149-.084,3.21.016a5.193,5.193,0,0,1,4.983,4.907m-8.225-19.7a6.466,6.466,0,0,1,6.182,6.442,6.349,6.349,0,1,1-12.694-.331,6.48,6.48,0,0,1,6.512-6.111" fill="#fff"/>
    </g>
    <g id="Grupo_1461" data-name="Grupo 1461" transform="translate(108.25 177.968)" clip-path="url(#clip-path-2)">
      <path id="Caminho_1823" data-name="Caminho 1823" d="M437.983,63.47c4.7,0,9.4.019,14.1.033a1.082,1.082,0,0,1,0-.341,13.329,13.329,0,0,0,.465-3.913c-.016-5.2-.2-10.4.057-15.589a26.01,26.01,0,0,0-2.036-11.044,3.474,3.474,0,0,1,.4-3.882,7.6,7.6,0,0,0,1.558-4.859c.026-3.96.019-7.92,0-11.88-.006-1.677-.451-3.094-2.106-3.876-.526-.248-1.178-.57-1.283-1.1-.52-2.647-2.984-3.321-4.673-4.777a2.611,2.611,0,0,0-1.789-.736c-1.953.053-5.959,3.947-6.03,5.91-.082,2.226.012,4.454-.049,6.681a2.824,2.824,0,0,1-.665,2.19v.107c-.027-.017-.051-.028-.078-.044a2.126,2.126,0,0,1-1.665.11,2.175,2.175,0,0,0-2.452,1.274,2.092,2.092,0,0,0,.368,2.734c1.942,1.6,2.6,3.717,2.955,6.042a2.6,2.6,0,0,0,.586,1.352c2.42,2.61,1.308,5.414.3,8.076a11.072,11.072,0,0,0-.812,4.061c.026,7.342-.04,14.685.037,22.027a3.694,3.694,0,0,1-.245,1.936h.99c.564-.7,1.355-.488,2.073-.488m-1.561-38.9a4.32,4.32,0,0,0-2.392-4.5c-.526-.3-1.332-.816-.829-1.536.647-.926,1.39-.112,1.837.342a4.465,4.465,0,0,0,3.721,1.518,3.873,3.873,0,0,1,2.795,1.4c.591.547,1.347.91,1.966.262.724-.759.2-1.514-.4-2.153a6.5,6.5,0,0,0-3.39-1.93A1.423,1.423,0,0,1,438.4,16.3c.037-3.052,0-6.105.027-9.156.006-.588-.241-1.567.762-1.472.889.084.618,1.027.626,1.637.03,2.309,0,4.619.019,6.928.006.9-.086,2.062,1.179,2.047,1.172-.014,1.261-1.155,1.274-2.054.042-2.887-.009-5.775.039-8.661a2.649,2.649,0,0,1,1.014-2.747c0,3.724,0,6.918,0,10.112,0,.66-.013,1.321.019,1.979.033.718.3,1.341,1.106,1.4.951.068,1.317-.591,1.329-1.416.033-2.31,0-4.62.03-6.929a3.317,3.317,0,0,1,.383-2.3c.9.513.615,1.24.627,1.829.041,1.9-.02,3.8.029,5.691.031,1.175-.353,2.989,1.237,3.036,1.836.053,1.016-1.836,1.226-2.932.2-1.061-.526-2.985.77-2.968,1.32.018.578,1.916.61,2.949.106,3.543.048,7.092.037,10.639-.006,1.8-.333,3.455-2.06,4.468a4,4,0,0,0-.558.481c-.724.634.261,2.28-1.232,2.358-2.219.114-4.448.021-6.673,0-.149,0-.423-.111-.426-.181-.136-2.675-3.652-3.58-3.371-6.476m12.763,10.056c.056.73-.339,1.068-1.024,1.07q-4.31.018-8.62,0c-.635,0-1.137-.205-1.128-.973s.522-.949,1.152-.953c1.478-.01,2.956,0,4.433,0,1.4,0,2.792-.008,4.187.007.545.006.953.235,1,.846m-12.357,5.8c-.022-1.7.452-2.338,2.219-2.27,3.21.124,6.43.115,9.641,0,1.683-.058,2.111.6,2.066,2.166-.094,3.213-.028,6.43-.031,9.645s.014,6.431-.015,9.647c-.006.757.274,1.865-1.05,1.77-1.1-.079-.74-1.073-.832-1.752a2,2,0,0,0,0-.246c-.262-.982.714-2.7-1.07-2.765-1.9-.067-1.426,1.716-1.364,2.824.1,1.7-.62,2.149-2.176,2.055a37.584,37.584,0,0,0-5.188.006c-1.8.141-2.215-.623-2.194-2.286q.117-9.4,0-18.8" fill="#fff"/>
      <path id="Caminho_1824" data-name="Caminho 1824" d="M435.165,62.022c-.077-7.342-.01-14.685-.037-22.027a11.072,11.072,0,0,1,.812-4.061c1.01-2.662,2.123-5.466-.3-8.076a2.583,2.583,0,0,1-.586-1.352c-.357-2.325-1.014-4.446-2.955-6.042a2.091,2.091,0,0,1-.368-2.734,2.173,2.173,0,0,1,2.451-1.274,2.13,2.13,0,0,0,1.666-.11c-1.954-1.2-3.375-1.12-4.624.458-.894,1.128-1.258,2.592-.286,3.357,2.6,2.05,3.065,4.955,3.893,7.8A6.162,6.162,0,0,0,436.3,29.9a1.343,1.343,0,0,1,.262,1.511c-1.068,3.554-2.464,6.969-2.266,10.893.314,6.25.085,12.528.079,18.794a4.655,4.655,0,0,0,.54,2.858,3.694,3.694,0,0,0,.245-1.936" fill="#fff"/>
      <path id="Caminho_1825" data-name="Caminho 1825" d="M436.593,14.093c.061-2.227-.033-4.456.049-6.682.071-1.962,4.076-5.856,6.03-5.909a2.6,2.6,0,0,1,1.788.736c1.689,1.455,4.154,2.13,4.674,4.776.105.535.757.856,1.283,1.105,1.655.782,2.1,2.2,2.106,3.876.016,3.96.023,7.92,0,11.88a7.611,7.611,0,0,1-1.558,4.859,3.473,3.473,0,0,0-.4,3.881A26,26,0,0,1,452.6,43.659c-.256,5.185-.073,10.392-.056,15.59a13.356,13.356,0,0,1-.465,3.912,1.081,1.081,0,0,0,0,.341h.261c1.063-.635.852-1.691.854-2.659q.015-11.007,0-22.014a5.107,5.107,0,0,0-.285-2.171c-1.526-3.084-3.348-6.07-.282-9.337a3.79,3.79,0,0,0,.566-2.357q.078-7.048.011-14.1c-.018-1.689-.653-3.081-2.563-3.4-.746-.125-1.262-.472-1.275-1.252-.03-1.948-1.525-2.362-2.778-3.425-2.851-2.422-4.509-2.3-7.62-.1-2.072,1.465-3.055,2.507-3.042,4.8.015,2.8,0,5.607,0,8.788a2.825,2.825,0,0,0,.665-2.189" fill="#fff"/>
      <path id="Caminho_1826" data-name="Caminho 1826" d="M425.872,57.32a24.833,24.833,0,0,0-2.191-11.737A2.679,2.679,0,0,1,424.1,42.4a7.267,7.267,0,0,0,1.72-5.27c-.033-3.88-.017-7.76-.007-11.639.005-1.679-.389-3.1-2-3.945-.439-.229-.97-.519-1.065-.99-.576-2.855-3.323-3.456-5.123-5.033a2.286,2.286,0,0,0-1.582-.606c-2.184.049-6.071,3.851-6.156,6.076-.088,2.309.025,4.622-.06,6.933-.051,1.353-.5,2.221-2.114,1.932a2.372,2.372,0,0,0-2.807,1.508,2.515,2.515,0,0,0,.935,3.084,6.466,6.466,0,0,1,2.294,4.493,4,4,0,0,0,.8,2.316c2.478,2.519,1.347,5.275.365,7.812a13.748,13.748,0,0,0-.939,4.775c-.082,3.37.276,6.748-.179,10.11h17.826a21.284,21.284,0,0,1-.134-6.638M409.566,35.955c-.033-1.227-1.32-1.785-2.25-2.467-.5-.365-1.313-.792-.838-1.547.582-.926,1.188-.044,1.605.294a6.016,6.016,0,0,0,4.234,1.6c1.09-.049,1.935.8,2.712,1.57.464.458,1,1.021,1.678.359a1.416,1.416,0,0,0,.057-2.016,5.221,5.221,0,0,0-3.26-2.091c-1.525-.285-1.9-1.165-1.845-2.624.107-2.8.02-5.608.046-8.413.006-.626-.048-1.523.867-1.453.78.06.517.91.523,1.432.031,2.474.014,4.949.018,7.424,0,.844-.031,1.787,1.184,1.727,1.063-.052,1.285-.869,1.286-1.769,0-2.97-.02-5.94.022-8.909.011-.773-.305-1.634,1.013-2.319q0,4.635,0,9.269c0,.66,0,1.32.006,1.98,0,.908.243,1.71,1.3,1.747,1.222.042,1.159-.917,1.162-1.75.008-2.475-.012-4.95.018-7.424.006-.522-.246-1.377.543-1.415.9-.043.842.851.849,1.482.027,2.392-.007,4.785.028,7.177.011.766-.267,1.839.97,1.9s1.4-1,1.458-1.891c.083-1.4.022-2.813.022-4.7a2.332,2.332,0,0,1,1.033,2.455c.028,3.959-.031,7.92.035,11.878a4.94,4.94,0,0,1-1.7,4.177c-.126.106-.316.2-.351.34-.926,3.6-3.819,2.648-6.262,2.71-1.532.039-2.34-.257-3.457-1.927-1.481-2.214-2.638-4.129-2.71-6.8m14.549,22.9c-.18,2.227-.776,2.883-2.868,2.656a39.09,39.09,0,0,0-4.194-.03c-1.729,0-3.459-.052-5.185.016-1.261.051-1.805-.4-1.739-1.7a28.267,28.267,0,0,0-.013-4.442c-.281-2.605.119-4.391,3.39-3.8a1.2,1.2,0,0,0,1.531-1.2c0-.928-.713-1.168-1.531-1.244-.739-.069-1.876.3-1.788-1.029.083-1.26,1.188-.883,1.929-.9,2.3-.043,4.609-.02,6.913-.011.836,0,1.678,0,1.913,1.1.749,3.49,1.944,6.848,1.642,10.581" fill="#fff"/>
      <path id="Caminho_1827" data-name="Caminho 1827" d="M426.476,61.32c-.542-4.439,1.1-8.994-1.334-13.4-1.1-1.987-2.119-4.827.772-6.925.649-.471.61-1.805.6-2.823-.034-4.455-.247-8.927.058-13.361.252-3.674-4.442-3.889-4.493-7.22-.01-.689-1.006-1-1.757-1.162-.16-.034-.4.023-.48-.069-2.453-2.689-4.419-2.565-7.527-.241-1.978,1.478-3.1,2.526-3.1,4.828-.007,2.8,0,5.593,0,8.561a9.886,9.886,0,0,1-1.329-.36c-1.533-.682-2.552.152-3.4,1.219-.914,1.149-1.2,2.736-.06,3.6,2.385,1.805,3.033,4.239,3.46,6.932a4.733,4.733,0,0,0,1.67,2.406,1.432,1.432,0,0,1,.308,1.721c-.99,3.143-2.689,6.115-2.227,9.635.4,3.078-.563,6.251.545,9.3.455-3.363.1-6.74.179-10.11a13.717,13.717,0,0,1,.94-4.775c.981-2.537,2.113-5.294-.366-7.812a4,4,0,0,1-.8-2.316,6.472,6.472,0,0,0-2.294-4.494,2.516,2.516,0,0,1-.936-3.084,2.375,2.375,0,0,1,2.807-1.508c1.613.289,2.064-.578,2.114-1.932.086-2.31-.027-4.623.061-6.933.085-2.224,3.972-6.027,6.155-6.075a2.29,2.29,0,0,1,1.583.606c1.8,1.577,4.547,2.178,5.123,5.033.1.471.625.761,1.064.99,1.616.842,2.009,2.266,2.005,3.944-.011,3.88-.026,7.76.006,11.639a7.265,7.265,0,0,1-1.72,5.27,2.683,2.683,0,0,0-.419,3.182,24.827,24.827,0,0,1,2.191,11.736,21.322,21.322,0,0,0,.135,6.639,4.406,4.406,0,0,0,.469-2.638" fill="#fff"/>
      <path id="Caminho_1828" data-name="Caminho 1828" d="M438.566,63.712c-.886.028-1.809-.241-2.656.245h16.341a1.023,1.023,0,0,1-.171-.433c-4.5.416-9.011.044-13.514.188" fill="#fff"/>
      <path id="Caminho_1829" data-name="Caminho 1829" d="M452.08,63.524a1.025,1.025,0,0,0,.17.434c.026-.152.056-.3.09-.454-.087.008-.174.012-.26.02" fill="#fff"/>
      <path id="Caminho_1830" data-name="Caminho 1830" d="M438.566,63.712c4.5-.144,9.015.228,13.514-.188,0-.007,0-.015,0-.022-4.7-.014-9.4-.034-14.1-.032-.718,0-1.509-.209-2.073.487.847-.486,1.77-.217,2.656-.245" fill="#fff"/>
      <path id="Caminho_1831" data-name="Caminho 1831" d="M452.08,63.5c0,.007,0,.014,0,.021.087-.008.173-.011.26-.02h-.26" fill="#fff"/>
      <path id="Caminho_1832" data-name="Caminho 1832" d="M447.54,55.016c.792.089,1.257-.258,1.239-1.083a1.135,1.135,0,0,0-.962-1.222,1.4,1.4,0,0,0-1.314,1.213c-.1.652.4,1.02,1.037,1.092" fill="#fff"/>
      <path id="Caminho_1833" data-name="Caminho 1833" d="M417.668,49.254c-.761-.045-1.142.489-1.284,1.18.163.609.417,1.089,1.124,1.12a1.1,1.1,0,0,0,1.256-1.179,1.127,1.127,0,0,0-1.1-1.121" fill="#fff"/>
    </g>
    <g id="Grupo_2152" data-name="Grupo 2152" transform="translate(6)">
      <path id="Caminho_1834" data-name="Caminho 1834" d="M486.177,10.865c-.618-.034-1.171-.231-1.191-.967-.02-.771.553-.926,1.169-.941.824-.021,1.648-.021,2.471-.011.737.009,1.674-.066,1.683.949s-.914.973-1.662.991c-.329.008-.659,0-.988,0V10.87c-.494,0-.99.022-1.482-.005m2.163,6.279c-.539-.089-1.045-.559-.8-1a6.835,6.835,0,0,1,3.427-3.294c.49-.186.927.2.933.826,0,.715-2.905,3.578-3.563,3.47M491.5,6.854a.865.865,0,0,1-1.122-.1c-.881-.84-1.739-1.7-2.586-2.58a.786.786,0,0,1-.09-1.1c.183-.213.64-.467.8-.381a11.4,11.4,0,0,1,3.527,3.373,2.866,2.866,0,0,1-.531.79" transform="translate(202.015 178.076)" fill="#fff"/>
      <path id="Caminho_1837" data-name="Caminho 1837" d="M540.2,51.634c-.243-.362-.532-.645-1.006-.515-.589.162-.606.649-.692,1.159-.143.845,1.02,2.219-.565,2.439-1.107.154-2.694.888-3.421-.921a.75.75,0,0,0-.993-.475.864.864,0,0,0-.592.98c.5,2.822-1.134,3.077-3.3,2.909-1.325-.1-2.549.527-3.887.946V52.432c.679-.171,1.139.263,1.677.428,1.147.353,2.422,1.38,3.481.465,1.094-.944,1.094-2.488.826-3.93-.331-1.778.981-2.8,2.745-2.082a9.491,9.491,0,0,1,1.822,1.256c.608.443,1.14,1.556,2,.562.66-.765-.127-1.436-.7-1.825-1.492-1.013-.862-1.662.153-2.573a7.939,7.939,0,0,0,2.722-5.9A2.819,2.819,0,0,1,542,36.1c2.207-1.348,2.852-4.6.871-5.886-2.488-1.615-2.326-3.766-2.685-6.031a4.512,4.512,0,0,1,1.149-4.266,12.84,12.84,0,0,0,2.938-4.828c.392-1.177.6-2.46-.417-3.491-1.044-1.057-2.216-.8-3.424-.257-.413.186-.8.815-1.37-.093-1.69-2.675-2.777-2.837-5.515-1.192-.447.269-.788,1.257-1.544.245-1.631-2.186-3.21-1.259-4.78.152-.549.493-.853,1.522-1.972.971-4.131-2.038-8.128-2.562-11.764,1.418.507.146,1.277-.2,2.443-1.128,2.193-1.75,4.871-1.47,7.307-.394,1.868.825,3.394.953,4.9-.633a1.984,1.984,0,0,1,2.9-.3c1.154,1,2.158.81,3.348.08,1.611-.99,3.121-1.059,4.14.923.555,1.08,1.458.752,2.375.582,2.385-.441,3.256.489,2.661,2.841a14.81,14.81,0,0,1-2.811,4.906,8.368,8.368,0,0,0,1.01,10.265c1.56,1.416,2.125,3.418.754,4.531-2.137,1.733-2.742,3.913-3.125,6.385a5.236,5.236,0,0,1-1.786,2.913c-1.353,1.266-1.91,2.611-.484,4.309-1.513-.806-2.734-1.813-4.488-1.436-2.656.57-1.337,2.527-1.484,3.974-.171,1.674-.994,2.374-2.679,1.851-.473-.146-.948-.286-1.418-.437-1.476-.472-1.894.315-2.049,1.6-.378,3.113.079,4.828,1.387,4.876a3.153,3.153,0,0,0,.97-.183,19.027,19.027,0,0,1,4.124-.777c1.086-.065,1.94-.48,2.11-1.682.15-1.057.552-1.015,1.5-.7,2.824.954,3.717.38,4.554-2.5.106,3.781.826,7.619-1.148,11.208,1.815-1.688,3.011-10.342,1.7-12.29" transform="translate(202.015 178.076)" fill="#fff"/>
      <g id="Grupo_2151" data-name="Grupo 2151">
        <path id="Caminho_1836" data-name="Caminho 1836" d="M512.281,47.864c1.191-1.286,1.48-2.2.061-3.463a7.881,7.881,0,0,1-2.5-4.987,6.087,6.087,0,0,0-2.116-4.061,3.588,3.588,0,0,1-1.067-3.832c.689-3.1.489-3.335-2.712-3.409a17.58,17.58,0,0,1-2.714-.137c-.829-.15-1.847-.353-2.079-1.151-.637-2.2-1.971-4.262-2.133-6.453a9.609,9.609,0,0,0-1.465-4.531,9.028,9.028,0,0,1,.022-10.152c-.329,1.308-.9,2.576-1.1,3.944-.616,4.039,2.407,8.371,5.834,8.333.91-.011,1.894-.013,2.344-1.013a2.713,2.713,0,0,0-.318-2.81c-.487-.694-1.455-1.085-1.4-2.5,1.555,2.1,3.149,1.838,4.829.238a2.494,2.494,0,0,1-.8,1.54c-1.1,1.089-1.794,2.475-.752,3.734,1.146,1.384,2.85.979,4.334.307a5.138,5.138,0,0,0,1.95-1.86A8.962,8.962,0,0,0,508.4,3.47c-2.8-2.014-5.806-1.88-8.957-1.166a7.646,7.646,0,0,1,4.9-1.026,9.017,9.017,0,0,1,8.192,8.777c.066,1.422.246,2.369.743,2.7.005-1.194.034-2.04-.008-2.866a9.983,9.983,0,0,0-13.826-8.563c-.71.309-1.858.525-1.49,1.6.411,1.2,1.351.47,2.049.159a7.826,7.826,0,0,1,4.361-.575,7.661,7.661,0,0,1,6.663,5.508,7.811,7.811,0,0,1-2.021,8.429c-.876.854-4.178,1.235-4.535.469-.658-1.412-.1-2.466,1.245-3.253a2.519,2.519,0,0,0,1.062-1.89c.081-.575.158-1.215-.6-1.413-.577-.151-.843.268-1.14.706-1.626,2.4-1.836,2.393-3.553-.113-.313-.457-.584-.8-1.158-.6-.6.215-.549.761-.515,1.25a3.288,3.288,0,0,0,1.915,2.7c.994.549.615,1.452.575,2.2-.053.993-.941.636-1.536.754-1.991.4-3.321-.544-4.308-2.132a8.073,8.073,0,0,1-.23-8.671c.361-.661,1.281-1.476.1-2.055-1.035-.506-1.41.6-1.766,1.267a9.841,9.841,0,0,0,.024,9.924c.91,1.636,2.556,2.9,1.551,5.182-.281.639.333,1.6,1.031,2.123a2,2,0,0,1,.714,1.929c-.044,2.607,1.082,3.743,3.689,3.865,1.07.049,2.147.054,3.216,0,1.684-.087,2.384.277,1.4,2.091-.9,1.659-.9,3.66.7,4.714,1.863,1.229,2.133,2.861,2.395,4.728a10.365,10.365,0,0,0,.818,2.313c.6,1.491,2.746,2.37,2.692,3.583s-2,2.168-2.74,3.581c-1.542,2.941-1.052,6.108-1.212,9.217a4.963,4.963,0,0,0,2.414,5.01c.093-1.316-1.463-1.769-1.574-2.946-.434-4.628-.923-9.316,2.6-13.114" transform="translate(202.015 178.076)" fill="#fff"/>
        <g id="Grupo_2138" data-name="Grupo 2138">
          <path id="Caminho_1835" data-name="Caminho 1835" d="M539.643,52.717c-.837,2.875-1.73,3.449-4.554,2.5-.945-.319-1.346-.361-1.5.7-.17,1.2-1.025,1.617-2.11,1.682a19.024,19.024,0,0,0-4.125.777,3.142,3.142,0,0,1-.969.183c-1.308-.048-1.765-1.763-1.388-4.875.156-1.284.574-2.071,2.049-1.6.471.151.946.291,1.419.438,1.684.522,2.508-.177,2.678-1.852.148-1.447-1.171-3.4,1.484-3.974,1.755-.377,2.976.63,4.488,1.436-1.425-1.7-.869-3.043.485-4.309A5.236,5.236,0,0,0,539.39,40.9c.382-2.471.988-4.652,3.125-6.385,1.371-1.112.8-3.115-.754-4.53a8.367,8.367,0,0,1-1.01-10.266,14.8,14.8,0,0,0,2.81-4.905c.6-2.352-.275-3.283-2.661-2.841-.917.169-1.82.5-2.375-.583-1.018-1.982-2.528-1.913-4.139-.923-1.191.731-2.194.918-3.349-.08a1.983,1.983,0,0,0-2.9.3c-1.51,1.586-3.037,1.458-4.9.633-2.435-1.076-5.114-1.356-7.306.394-1.167.931-1.936,1.274-2.444,1.128-.068.076-.138.141-.206.22,0-.114,0-.207,0-.314-.5-.327-.677-1.274-.743-2.7a9.019,9.019,0,0,0-8.192-8.778,7.647,7.647,0,0,0-4.9,1.027c3.151-.714,6.161-.848,8.957,1.166A8.96,8.96,0,0,1,510.5,15.6a5.133,5.133,0,0,1-1.95,1.861c-1.484.672-3.188,1.077-4.334-.308-1.042-1.259-.349-2.644.752-3.734a2.491,2.491,0,0,0,.8-1.539c-1.681,1.6-3.275,1.858-4.83-.238-.052,1.41.916,1.8,1.4,2.5a2.715,2.715,0,0,1,.317,2.81c-.45,1-1.434,1-2.344,1.012-3.427.039-6.45-4.294-5.834-8.332.209-1.369.775-2.637,1.1-3.944a9.026,9.026,0,0,0-.022,10.151,9.616,9.616,0,0,1,1.465,4.532c.162,2.19,1.5,4.257,2.133,6.453.232.8,1.25,1,2.079,1.15a17.334,17.334,0,0,0,2.714.137c3.2.075,3.4.311,2.712,3.41a3.586,3.586,0,0,0,1.067,3.831,6.1,6.1,0,0,1,2.117,4.061,7.885,7.885,0,0,0,2.5,4.988c1.419,1.258,1.131,2.177-.061,3.463-3.518,3.8-3.03,8.486-2.6,13.113.111,1.178,1.667,1.631,1.574,2.946h27.236c1.973-3.589,1.254-7.427,1.148-11.207m1.029-21.776c1.753,1.433,1.77,1.882,0,3.676Zm-19.125,16.7h6.023c-1.43,1.961-3.384,2.059-6.023,0m.422,3.1c-.615.522-1.372,1.073-1.974.7-.8-.5-.315-1.433-.254-2.283a3.58,3.58,0,0,1,2.228,1.585m7.976.288c-.763,1.28-1.479-.069-2.295-.251.744-.547,1-1.929,2.161-1.324.446.232.4,1.12.134,1.575M504.822,26.8c-.571,0-1.143,0-1.714,0v-.008c-.572,0-1.144.008-1.715,0-.937-.015-1.608-.4-1.642-1.414s.619-1.472,1.549-1.511c1.141-.048,2.285-.023,3.428-.024,1.036,0,2.077.1,2.118,1.445s-.963,1.52-2.024,1.514m2.431-4.885c-1.314.054-2.631.014-3.946.014s-2.633.043-3.946-.016a1.307,1.307,0,0,1-1.371-1.423,1.272,1.272,0,0,1,1.234-1.319q4.061-.1,8.123-.01a1.261,1.261,0,0,1,1.249,1.3,1.315,1.315,0,0,1-1.343,1.454m1.512,12.842c-1.525-2-1.525-2-.145-4.013a10.971,10.971,0,0,1,.145,4.013m1-6.16c-1.234.145-1.9-.263-1.391-1.427.722-1.66-.241-3.835,1.691-5.151.368-.251.366-1.24.32-1.873-.21-2.875.85-4.376,3.845-5.227.629-.179.86-.712,1.228-1.142A6.825,6.825,0,0,1,524,12.878c.728.522.561.893.107,1.355-.575.586-1.186,1.137-1.793,1.689-.5.455-1.562.741-.756,1.663.636.726,1.369.186,1.982-.233,1.811-1.24,2.859-3.167,4.274-4.764.612-.691,1.173-1.964,2.29-1.434.921.438.409,1.633.367,2.5-.034.707-.568,1.6.375,1.957,1.138.426,1.216-.79,1.657-1.394.388-.531.681-1.139,1.113-1.627.824-.929,1.844-2.124,3.1-1.5,1.385.685.278,2.041.08,3.076-.137.718-.665,1.469.247,1.946.782.41,1.137-.39,1.6-.811.668-.611,1.3-1.261,1.992-1.845.5-.426,1.133-.914,1.77-.457.705.5.177,1.236-.02,1.807-2.068,5.994-9.587,11.184-16.115,11.158-3.376-.02-6.6-.67-9.258-2.86-1.667-1.372-2.181-.636-2.635.982-.661,2.361-1.865,4.192-4.606,4.513m1.072,9.686c-.105-1.477-.012-2.968-.094-4.449-.11-2.023-.179-3.924,2.418-4.561a2.347,2.347,0,0,0,1.386-1.335c1.046-3.016,2.6-2.289,5.014-1.381,6.01,2.263,11.957,1.955,17.309-2.15.364-.279.666-.772,1.5-.575.212,4.918.728,9.758.254,14.629-.411,4.216-3.138,6.995-7.4,7.107q-6.423.169-12.853,0a7.391,7.391,0,0,1-7.537-7.288m12.61,23.43c-.249.526-.867.3-1.324.309-1.481.027-2.963.01-4.445.011h-3.21c-3.588-.005-3.959-.416-3.71-3.971.054-.771,0-1.607,1.107-1.456.974.133,2.6-.682,2.8.632.33,2.209,1.727,1.767,3.063,1.817,1.776.067,3.682-.39,5.1,1.171.371.408.916.862.619,1.487m.074-4.147c-1.929.381-4.1-.368-6.21-.525-1.1-.081-.491-1.361-.586-2.1-.084-.656.043-1.435-.733-1.665-.682-.2-.881.479-1.235.942-.922,1.206-2.383.785-3.381.462-1.213-.394-.5-1.671-.247-2.554.9-3.135,3.435-5.26,5.631-4.846,1.041.2,1.729.433,1.129,1.722a3.924,3.924,0,0,0-.179,1.7c.086,2.793.957,3.393,3.545,2.477.759-.269,1.512-.557,2.244-.828.107.185.181.254.186.328.114,1.715.548,4.743-.164,4.884M535.4,62.03c-1.153.005-2.306,0-3.459,0-1.565,0-3.131.015-4.7-.012-.387-.006-.956-.025-1.116-.26-.3-.443.043-.93.355-1.326.837-1.062,2.008-1.226,3.271-1.427,1.855-.294,4.527,1.44,5.268-2.137.147-.712,1.979-.341,3.006-.222s.75,1.11.78,1.8c.138,3.121-.3,3.571-3.41,3.583" transform="translate(202.015 178.076)" fill="#fff"/>
          <path id="Caminho_1838" data-name="Caminho 1838" d="M490.969,12.848a6.833,6.833,0,0,0-3.426,3.294c-.249.443.258.913.8,1,.659.108,3.563-2.755,3.563-3.47-.006-.625-.443-1.012-.933-.826" transform="translate(202.015 178.076)" fill="#fff"/>
          <path id="Caminho_1839" data-name="Caminho 1839" d="M487.658,10.887c.329,0,.659.007.989,0,.747-.018,1.669.011,1.661-.992s-.946-.939-1.682-.948c-.824-.01-1.648-.01-2.471.011-.617.015-1.19.17-1.169.941.019.736.572.933,1.19.967.492.026.988.005,1.482.005Z" transform="translate(202.015 178.076)" fill="#fff"/>
          <path id="Caminho_1840" data-name="Caminho 1840" d="M488.5,2.691c-.163-.087-.62.168-.8.381a.785.785,0,0,0,.09,1.1c.846.875,1.7,1.74,2.587,2.579a.862.862,0,0,0,1.12.1,2.859,2.859,0,0,0,.531-.79A11.4,11.4,0,0,0,488.5,2.691" transform="translate(202.015 178.076)" fill="#fff"/>
        </g>
      </g>
      <path id="Caminho_1841" data-name="Caminho 1841" d="M524.753,39.826a4.041,4.041,0,0,0,3.687-2.04,1.027,1.027,0,0,0-.077-1.357.825.825,0,0,0-1.286.124c-1.549,1.912-3.058,2-4.611,0a.831.831,0,0,0-1.292-.128.937.937,0,0,0-.091,1.325,4.063,4.063,0,0,0,3.67,2.076" transform="translate(202.015 178.076)" fill="#fff"/>
      <path id="Caminho_1842" data-name="Caminho 1842" d="M519.169,31.719c.031-.957-.183-1.792-1.3-2.064-1.013.178-1.265.939-1.276,1.8-.012.922.1,2,1.251,2.03.914.02,1.3-.873,1.329-1.765" transform="translate(202.015 178.076)" fill="#fff"/>
      <path id="Caminho_1843" data-name="Caminho 1843" d="M531.731,33.485c1.04-.1,1.349-1.089,1.292-2.063-.049-.858-.326-1.609-1.444-1.765-1.012.3-1.188,1.154-1.142,2.1.043.856.283,1.829,1.294,1.732" transform="translate(202.015 178.076)" fill="#fff"/>
    </g>
  </g>
</svg>
