<svg id="img-slide-9" xmlns="http://www.w3.org/2000/svg" xmlns:xlink="http://www.w3.org/1999/xlink" width="321.626" height="293.369" viewBox="0 0 321.626 293.369">
  <defs>
    <clipPath id="clip-path">
      <rect id="Retângulo_1339" data-name="Retângulo 1339" width="321.626" height="293.369" fill="none"/>
    </clipPath>
    <clipPath id="clip-path-4">
      <rect id="Retângulo_1322" data-name="Retângulo 1322" width="47.266" height="26.036" fill="none"/>
    </clipPath>
    <clipPath id="clip-path-5">
      <rect id="Retângulo_1323" data-name="Retângulo 1323" width="7.655" height="7.655" fill="none"/>
    </clipPath>
    <clipPath id="clip-path-11">
      <rect id="Retângulo_1334" data-name="Retângulo 1334" width="12.231" height="16.44" fill="none"/>
    </clipPath>
    <clipPath id="clip-path-14">
      <rect id="Retângulo_1337" data-name="Retângulo 1337" width="123.203" height="205.507" fill="none"/>
    </clipPath>
  </defs>
  <g id="Grupo_2130" data-name="Grupo 2130" clip-path="url(#clip-path)">
    <g id="Grupo_2101" data-name="Grupo 2101">
      <g id="Grupo_2100" data-name="Grupo 2100" clip-path="url(#clip-path)">
        <path id="Caminho_3466" data-name="Caminho 3466" d="M158.455,140.836a7.505,7.505,0,0,1-.191-1.686,13.876,13.876,0,0,0-.226-2.026,19.868,19.868,0,0,0-.532-2.722,25.525,25.525,0,0,0-2.827-7,26.218,26.218,0,0,0-6.51-7.5,25.944,25.944,0,0,0-24.454-4.2,24.329,24.329,0,0,0-6.614,3.374,23.648,23.648,0,0,0-5.583,5.359,25.736,25.736,0,0,0-.743,30.507A29.53,29.53,0,0,0,113.227,158a29.235,29.235,0,0,0,2.865,2.566,24.292,24.292,0,0,0,6.444,3.692,26.14,26.14,0,0,0,31.5-10.186,25.5,25.5,0,0,0,3.162-6.856,19.813,19.813,0,0,0,.664-2.692,13.894,13.894,0,0,0,.324-2.012,7.469,7.469,0,0,1,.273-1.675,7.42,7.42,0,0,1,.02,1.7,11.907,11.907,0,0,1-.189,2.057,18.452,18.452,0,0,1-.544,2.772,24.97,24.97,0,0,1-3.019,7.138,26.89,26.89,0,0,1-18.431,12.456,27.138,27.138,0,0,1-14.244-1.452,25.523,25.523,0,0,1-6.811-3.845,24.93,24.93,0,0,1-5.632-5.907,27.042,27.042,0,0,1,.784-32.2,24.9,24.9,0,0,1,5.911-5.624,25.5,25.5,0,0,1,6.989-3.509,27.133,27.133,0,0,1,14.3-.759A26.892,26.892,0,0,1,155.39,127a24.966,24.966,0,0,1,2.669,7.277,18.393,18.393,0,0,1,.409,2.8,11.848,11.848,0,0,1,.089,2.064,7.385,7.385,0,0,1-.1,1.7" transform="translate(-29.745 -32.126)" fill="#ebebeb"/>
        <path id="Caminho_3467" data-name="Caminho 3467" d="M155.859,128.3c.059.082-.42.5-1.344,1.185l-1.707,1.226c-.339.232-.693.494-1.087.741l-1.306.683a29.948,29.948,0,0,1-15.6,3.928l-2.361-.105-2.266-.354c-.37-.063-.74-.112-1.1-.185l-1.058-.281c-.7-.193-1.384-.356-2.039-.567a34.138,34.138,0,0,1-6.617-3.049c-3.556-2.15-5.286-4.105-5.152-4.231.144-.164,2.076,1.473,5.657,3.332a39.91,39.91,0,0,0,6.514,2.666c.634.184,1.3.324,1.968.5l1.016.253,1.055.159,2.165.319,2.251.091a32.3,32.3,0,0,0,15.1-3.391l1.321-.574c.4-.21.768-.436,1.12-.63l1.811-1c1.006-.533,1.6-.792,1.654-.71" transform="translate(-32.457 -36.169)" fill="#ebebeb"/>
        <path id="Caminho_3468" data-name="Caminho 3468" d="M113.1,170.684c-.059-.082.42-.5,1.344-1.185l1.707-1.225c.339-.232.692-.494,1.087-.741l1.306-.683a29.948,29.948,0,0,1,15.6-3.927l2.36.1,2.266.354c.37.063.74.112,1.1.185l1.058.281c.7.193,1.384.356,2.039.567a34.158,34.158,0,0,1,6.617,3.049c3.556,2.15,5.286,4.105,5.151,4.231-.143.165-2.075-1.472-5.657-3.331a39.933,39.933,0,0,0-6.514-2.666c-.635-.184-1.3-.324-1.968-.5l-1.016-.253-1.055-.159-2.165-.319-2.25-.091a32.286,32.286,0,0,0-15.1,3.392l-1.322.573c-.4.21-.767.436-1.12.63l-1.81,1c-1.006.533-1.6.792-1.654.71" transform="translate(-32.137 -46.293)" fill="#ebebeb"/>
        <path id="Caminho_3469" data-name="Caminho 3469" d="M158.725,152.084c-.01.4-11.894.441-26.54.085s-26.517-.971-26.507-1.374,11.891-.44,26.542-.084,26.514.971,26.5,1.373" transform="translate(-30.03 -42.758)" fill="#ebebeb"/>
        <path id="Caminho_3470" data-name="Caminho 3470" d="M140.89,166.933c-.4-.01-.441-11.89-.085-26.531s.97-26.508,1.373-26.5.441,11.887.085,26.534-.971,26.506-1.373,26.5" transform="translate(-39.943 -32.367)" fill="#ebebeb"/>
        <path id="Caminho_3471" data-name="Caminho 3471" d="M135.784,166.886c-.1.154-3.022-1.828-6.4-6.314a35.688,35.688,0,0,1-4.741-8.609,32,32,0,0,1-2.053-11.886,30.438,30.438,0,0,1,2.678-11.767,36.866,36.866,0,0,1,5.181-8.344c3.573-4.317,6.519-6.231,6.618-6.077.143.166-2.525,2.337-5.805,6.713a39.744,39.744,0,0,0-4.76,8.242,30.565,30.565,0,0,0-2.452,11.261,32.3,32.3,0,0,0,1.856,11.4,38.273,38.273,0,0,0,4.321,8.474c3.07,4.522,5.7,6.75,5.554,6.911" transform="translate(-34.835 -32.361)" fill="#ebebeb"/>
        <path id="Caminho_3472" data-name="Caminho 3472" d="M143.138,113.91c.1-.154,3.023,1.828,6.4,6.314a35.687,35.687,0,0,1,4.741,8.609,32,32,0,0,1,2.053,11.886,30.438,30.438,0,0,1-2.678,11.767,36.866,36.866,0,0,1-5.181,8.344c-3.573,4.317-6.519,6.231-6.618,6.077-.143-.166,2.525-2.338,5.805-6.713a39.746,39.746,0,0,0,4.76-8.242,30.583,30.583,0,0,0,2.453-11.261,32.317,32.317,0,0,0-1.857-11.4,38.275,38.275,0,0,0-4.321-8.474c-3.07-4.522-5.7-6.75-5.554-6.911" transform="translate(-40.308 -32.367)" fill="#ebebeb"/>
        <rect id="Retângulo_1318" data-name="Retângulo 1318" width="29.224" height="43.357" transform="translate(7.608 284.731) rotate(-79.009)" fill="#ebebeb"/>
        <path id="Caminho_3473" data-name="Caminho 3473" d="M61.07,366.47a3.01,3.01,0,0,1-.47.3l-1.387.808-5.14,2.911L37,379.993l-.14.078-.105-.122-.253-.3L23.717,364.537l-3.841-4.609-1.029-1.266a3.108,3.108,0,0,1-.339-.459,3.068,3.068,0,0,1,.4.407l1.085,1.218,3.936,4.528L36.805,379.4l.253.3-.245-.044,17.126-9.4,5.2-2.8,1.422-.744a3.1,3.1,0,0,1,.508-.236" transform="translate(-5.259 -101.79)" fill="#e0e0e0"/>
        <path id="Caminho_3474" data-name="Caminho 3474" d="M10.724,392.53c-.068-.084,3.9-3.4,8.853-7.394s9.033-7.173,9.1-7.088-3.9,3.394-8.854,7.395-9.033,7.172-9.1,7.087" transform="translate(-3.047 -107.428)" fill="#e0e0e0"/>
        <path id="Caminho_3475" data-name="Caminho 3475" d="M55.667,381.386c.1-.049,2.5,4.468,5.369,10.09s5.116,10.221,5.019,10.27-2.5-4.467-5.37-10.091-5.115-10.219-5.019-10.269" transform="translate(-15.818 -108.377)" fill="#e0e0e0"/>
        <path id="Caminho_3476" data-name="Caminho 3476" d="M438.789,228.826a13.243,13.243,0,1,0-24.658,6.69h-.007l.037.05c.508.855,1.144,1.467,1.787,2.367l7.689,10.186a2.391,2.391,0,0,0,3.817,0l7.561-10.017a28.507,28.507,0,0,0,1.923-2.548l.028-.036h-.006a13.159,13.159,0,0,0,1.828-6.69m-13.243,5.766a5.828,5.828,0,1,1,5.828-5.828,5.829,5.829,0,0,1-5.828,5.828" transform="translate(-117.163 -61.262)" fill="#f5f5f5"/>
        <path id="Caminho_3477" data-name="Caminho 3477" d="M117.729,256.354s-4.842,1.961.742,12.239a135.46,135.46,0,0,0,9.4,15.34s1.006,2.394-1.02,2.823-6.526-.17-7.369,2.344c-.874,2.608,1.066,5,4.926,7.036s12.153,6.817,12.9,7.252,1.489,1.533.155,2.047-11.387,1.826-10.478,6.56,12.6,8.647,13.865,9.1,1.583.978,1.5,1.67-3.505.815-6.35,1.306-6.056,1.558-5.3,4.245,7.758,8.192,24.453,9.393l7.773.049,4.056-6.67c7.81-14.8,6.843-23.66,4.961-25.721s-4.488.1-6.408,2.256-3.834,4.993-4.467,4.7-.912-.839-.624-2.155,3.146-13.305-.39-16.58-9.969,4.564-11.11,5.424-1.681-.365-1.654-1.214c.026-.865.357-10.43.668-14.785s-.691-7.264-3.366-7.9c-2.579-.615-4.452,3.521-5.886,5.014s-2.935-.626-2.935-.626a135.34,135.34,0,0,0-8.048-16.09c-5.77-10.176-10.085-7.005-10.085-7.005" transform="translate(-32.901 -72.728)" fill="#ebebeb"/>
        <path id="Caminho_3478" data-name="Caminho 3478" d="M166.124,343.4c-4.208-7.49-11.464-20.927-17.753-32.431s-11.989-21.907-16.159-29.417l-4.947-8.889-1.344-2.418-.344-.632c-.077-.142-.11-.219-.11-.219s.048.068.132.207l.365.621,1.383,2.4c1.2,2.082,2.912,5.107,5.014,8.853,4.208,7.489,9.935,17.884,16.222,29.384s13.521,24.953,17.69,32.464" transform="translate(-35.653 -76.552)" fill="#e0e0e0"/>
        <path id="Caminho_3479" data-name="Caminho 3479" d="M129.7,303.788a2.513,2.513,0,0,1,.545.137c.347.1.844.263,1.456.469,1.224.413,2.9,1.027,4.736,1.738l4.7,1.837,1.425.547a2.523,2.523,0,0,1,.516.222,2.536,2.536,0,0,1-.546-.132c-.346-.1-.844-.264-1.455-.477-1.22-.425-2.886-1.061-4.723-1.772l-4.706-1.8-1.43-.54a2.537,2.537,0,0,1-.515-.226" transform="translate(-36.856 -86.326)" fill="#e0e0e0"/>
        <path id="Caminho_3480" data-name="Caminho 3480" d="M149.106,303.8c-.063-.021,1.05-3.531,2.487-7.839s2.652-7.784,2.716-7.762-1.05,3.53-2.487,7.839-2.653,7.783-2.716,7.762" transform="translate(-42.37 -81.896)" fill="#e0e0e0"/>
        <path id="Caminho_3481" data-name="Caminho 3481" d="M161.484,330.394a2.6,2.6,0,0,1,.3-.487l.888-1.283c.747-1.084,1.774-2.585,2.845-4.283s2-3.265,2.653-4.405l.78-1.351a2.639,2.639,0,0,1,.31-.482,2.586,2.586,0,0,1-.227.527c-.161.332-.4.808-.714,1.389-.619,1.164-1.519,2.751-2.6,4.452s-2.125,3.193-2.91,4.253c-.394.528-.719.953-.951,1.239a2.587,2.587,0,0,1-.379.432" transform="translate(-45.888 -90.394)" fill="#e0e0e0"/>
        <path id="Caminho_3482" data-name="Caminho 3482" d="M142.7,333.524a2.287,2.287,0,0,1,.53,0l1.44.077c1.215.075,2.893.2,4.745.344s3.528.3,4.739.415l1.435.153a2.28,2.28,0,0,1,.523.089,2.289,2.289,0,0,1-.531,0l-1.44-.077c-1.215-.075-2.893-.2-4.745-.344s-3.527-.3-4.739-.415l-1.434-.153a2.253,2.253,0,0,1-.523-.089" transform="translate(-40.549 -94.773)" fill="#e0e0e0"/>
        <path id="Caminho_3483" data-name="Caminho 3483" d="M150.787,357.233a3.651,3.651,0,0,1,.679,0l1.846.092c1.558.087,3.709.226,6.084.393s4.525.332,6.08.463l1.84.168a3.7,3.7,0,0,1,.673.094,3.652,3.652,0,0,1-.679,0l-1.846-.092c-1.558-.087-3.709-.225-6.085-.393s-4.524-.332-6.079-.463l-1.84-.168a3.681,3.681,0,0,1-.673-.094" transform="translate(-42.849 -101.51)" fill="#e0e0e0"/>
        <path id="Caminho_3484" data-name="Caminho 3484" d="M174.255,352.431a4.2,4.2,0,0,1,.368-.627l1.067-1.667c.9-1.408,2.133-3.358,3.435-5.548s2.434-4.2,3.241-5.665l.957-1.732a4.2,4.2,0,0,1,.376-.623,4.26,4.26,0,0,1-.292.666c-.2.422-.5,1.027-.89,1.769-.77,1.485-1.877,3.515-3.185,5.708s-2.563,4.133-3.5,5.519c-.47.691-.855,1.248-1.131,1.626a4.2,4.2,0,0,1-.446.575" transform="translate(-49.517 -95.641)" fill="#e0e0e0"/>
        <path id="Caminho_3485" data-name="Caminho 3485" d="M349.673,157.219s-5.668-3.025-10.969,10.35a166.586,166.586,0,0,0-7.072,20.967s-1.467,2.836-3.469,1.261-4.984-6.3-8.022-5.109c-3.15,1.231-3.876,4.946-2.758,10.2s3.145,16.849,3.324,17.9c.176,1.031-.274,2.615-1.81,1.76s-10.7-9.311-14.454-4.721,1.766,18.709,2.339,20.264.326,2.266-.394,2.732-3.534-2.667-6.239-4.966-6.246-4.489-8.189-1.66-1.618,13.783,10.41,30.492l6.08,7.377,9.495-1.429c20.134-4.3,27.733-12.193,28.195-15.594s-3.633-4.157-7.181-4.272-7.737.316-7.957-.512.073-1.523,1.543-2.289,15.042-7.519,15.345-13.44-12.168-5.814-13.879-6.213-.981-1.874-.158-2.519c.838-.657,10.129-7.886,14.485-11.025s6.314-6.378,4.807-9.407c-1.453-2.92-6.835-1.427-9.375-1.6s-1.722-3.265-1.722-3.265a166.507,166.507,0,0,0,8.846-20.283c5.058-13.469-1.337-15.044-1.337-15.044" transform="translate(-82.711 -44.593)" fill="#ebebeb"/>
        <path id="Caminho_3486" data-name="Caminho 3486" d="M313.449,270.787c3.753-9.878,10.719-27.321,16.622-42.328s11.231-28.59,15.034-38.447l4.492-11.679,1.223-3.175.326-.823c.074-.185.12-.277.12-.277s-.027.1-.092.288-.17.476-.3.833l-1.171,3.195c-1.02,2.773-2.525,6.775-4.4,11.713-3.753,9.877-9.052,23.479-14.954,38.48s-12.9,32.438-16.7,42.3" transform="translate(-89.072 -49.462)" fill="#e0e0e0"/>
        <path id="Caminho_3487" data-name="Caminho 3487" d="M337.139,205.173a3.09,3.09,0,0,1,.3.623c.177.408.417,1,.706,1.744.574,1.481,1.316,3.547,2.092,5.841.758,2.265,1.443,4.314,1.967,5.881.241.7.444,1.3.607,1.777a3.059,3.059,0,0,1,.2.662,3.091,3.091,0,0,1-.3-.621c-.177-.409-.416-1.005-.7-1.749-.56-1.487-1.274-3.561-2.051-5.855-.773-2.258-1.473-4.3-2.009-5.864l-.616-1.775a3.067,3.067,0,0,1-.193-.664" transform="translate(-95.803 -58.303)" fill="#e0e0e0"/>
        <path id="Caminho_3488" data-name="Caminho 3488" d="M346.585,225.45c-.03-.077,4.162-1.792,9.361-3.832s9.44-3.633,9.47-3.556-4.161,1.792-9.362,3.833-9.44,3.631-9.47,3.556" transform="translate(-98.488 -61.965)" fill="#e0e0e0"/>
        <path id="Caminho_3489" data-name="Caminho 3489" d="M332.473,259.068a3.233,3.233,0,0,1,.7-.1l1.911-.173c1.613-.148,3.839-.363,6.286-.69s4.655-.69,6.25-.969l1.891-.329a3.235,3.235,0,0,1,.7-.087,3.2,3.2,0,0,1-.677.2c-.44.11-1.079.257-1.874.422-1.587.333-3.795.735-6.251,1.057s-4.69.51-6.309.606c-.81.044-1.466.073-1.92.079a3.3,3.3,0,0,1-.706-.017" transform="translate(-94.478 -72.95)" fill="#e0e0e0"/>
        <path id="Caminho_3490" data-name="Caminho 3490" d="M319.308,240.888a2.79,2.79,0,0,1,.423.5l1.063,1.42c.887,1.206,2.1,2.886,3.415,4.75s2.5,3.563,3.345,4.8l.986,1.475a2.78,2.78,0,0,1,.329.564,2.761,2.761,0,0,1-.423-.5l-1.062-1.419c-.887-1.207-2.1-2.886-3.416-4.752s-2.5-3.563-3.344-4.8l-.986-1.475a2.767,2.767,0,0,1-.329-.564" transform="translate(-90.736 -68.452)" fill="#e0e0e0"/>
        <path id="Caminho_3491" data-name="Caminho 3491" d="M303.3,267.218a4.476,4.476,0,0,1,.535.642l1.369,1.815c1.145,1.54,2.712,3.68,4.425,6.054s3.254,4.534,4.356,6.105l1.292,1.87a4.483,4.483,0,0,1,.441.709,4.487,4.487,0,0,1-.535-.641l-1.369-1.815c-1.145-1.54-2.711-3.68-4.426-6.055s-3.253-4.533-4.354-6.1l-1.293-1.87a4.479,4.479,0,0,1-.441-.709" transform="translate(-86.188 -75.934)" fill="#e0e0e0"/>
        <path id="Caminho_3492" data-name="Caminho 3492" d="M320.4,289.122a5.136,5.136,0,0,1,.883-.147l2.414-.307c2.038-.261,4.852-.633,7.946-1.132s5.886-1.015,7.9-1.406l2.39-.462a5.133,5.133,0,0,1,.884-.136,5.2,5.2,0,0,1-.86.249c-.558.142-1.367.334-2.372.554-2.008.444-4.8,1-7.9,1.493s-5.923.84-7.969,1.048c-1.024.1-1.853.175-2.427.213a5.2,5.2,0,0,1-.894.032" transform="translate(-91.047 -81.138)" fill="#e0e0e0"/>
      </g>
    </g>
    <rect id="Retângulo_1320" data-name="Retângulo 1320" width="52.275" height="41.792" transform="matrix(0.972, -0.233, 0.233, 0.972, 18.758, 222.114)" fill="#ebebeb"/>
    <g id="Grupo_2109" data-name="Grupo 2109">
      <g id="Grupo_2108" data-name="Grupo 2108" clip-path="url(#clip-path)">
        <path id="Caminho_3493" data-name="Caminho 3493" d="M76.976,293.277s-.084.026-.245.067l-.712.178-2.758.677-10.4,2.528L26.17,305.585l.1-.163c2.9,12.1,6.229,25.962,9.749,40.635v0l-.183-.112L86.681,333.8l-.093.152c-2.9-12.244-5.313-22.394-7-29.492-.837-3.551-1.493-6.338-1.942-8.246-.22-.948-.39-1.677-.507-2.177s-.167-.757-.167-.757.067.241.188.724l.529,2.147c.462,1.9,1.137,4.67,2,8.2l7.142,29.539.03.122-.123.029-50.831,12.2-.147.036-.035-.148v0c-3.51-14.676-6.825-28.545-9.718-40.643l-.032-.132.132-.031,36.809-8.747,10.386-2.45,2.74-.64.7-.16c.157-.035.233-.048.233-.048" transform="translate(-7.381 -83.34)" fill="#263238"/>
        <rect id="Retângulo_1321" data-name="Retângulo 1321" width="48.603" height="36.531" transform="translate(21.123 224.253) rotate(-13.47)" fill="#4a8047"/>
        <g id="Grupo_2104" data-name="Grupo 2104" transform="translate(29.632 233.742)" opacity="0.3">
          <g id="Grupo_2103" data-name="Grupo 2103">
            <g id="Grupo_2102" data-name="Grupo 2102" clip-path="url(#clip-path-4)">
              <path id="Caminho_3494" data-name="Caminho 3494" d="M41.4,352.568l11.219-26.036L66.15,337.9l5.167-9.047,17.344,12.4Z" transform="translate(-41.395 -326.531)"/>
            </g>
          </g>
        </g>
        <g id="Grupo_2107" data-name="Grupo 2107" transform="translate(47.222 224.611)" opacity="0.3">
          <g id="Grupo_2106" data-name="Grupo 2106">
            <g id="Grupo_2105" data-name="Grupo 2105" clip-path="url(#clip-path-5)">
              <path id="Caminho_3495" data-name="Caminho 3495" d="M73.516,316.712a3.827,3.827,0,1,1-4.613-2.83,3.826,3.826,0,0,1,4.613,2.83" transform="translate(-65.967 -313.776)"/>
            </g>
          </g>
        </g>
      </g>
    </g>
    <g id="Grupo_2111" data-name="Grupo 2111">
      <g id="Grupo_2110" data-name="Grupo 2110" clip-path="url(#clip-path)">
        <path id="Caminho_3496" data-name="Caminho 3496" d="M392,357.876H324.343a3.259,3.259,0,0,1-3.259-3.26V306.825a3.848,3.848,0,0,1,3.848-3.848h66.476a3.848,3.848,0,0,1,3.848,3.848v47.791a3.26,3.26,0,0,1-3.26,3.26" transform="translate(-91.241 -86.096)" fill="#fff"/>
        <path id="Caminho_3497" data-name="Caminho 3497" d="M395.256,315.009H321.084v-8.184a3.848,3.848,0,0,1,3.848-3.848h66.476a3.848,3.848,0,0,1,3.848,3.848Z" transform="translate(-91.241 -86.096)" fill="#e0e0e0"/>
        <path id="Caminho_3498" data-name="Caminho 3498" d="M333.126,311.39a2.2,2.2,0,1,1-2.2-2.2,2.2,2.2,0,0,1,2.2,2.2" transform="translate(-93.416 -87.863)" fill="#fff"/>
        <path id="Caminho_3499" data-name="Caminho 3499" d="M342.541,311.39a2.2,2.2,0,1,1-2.2-2.2,2.2,2.2,0,0,1,2.2,2.2" transform="translate(-96.091 -87.863)" fill="#fff"/>
        <path id="Caminho_3500" data-name="Caminho 3500" d="M351.955,311.39a2.2,2.2,0,1,1-2.2-2.2,2.2,2.2,0,0,1,2.2,2.2" transform="translate(-98.766 -87.863)" fill="#fff"/>
        <path id="Caminho_3501" data-name="Caminho 3501" d="M391.922,357.8c0-.016.223,0,.643-.083a3.318,3.318,0,0,0,1.636-.9,3.476,3.476,0,0,0,.925-2.825c-.005-1.229-.011-2.644-.017-4.238-.014-6.387-.034-15.611-.059-27.007q-.006-4.277-.012-8.949,0-2.333-.006-4.76c0-.805.006-1.631-.011-2.442a3.691,3.691,0,0,0-.837-2.2,3.732,3.732,0,0,0-2.036-1.25,5.233,5.233,0,0,0-1.241-.092h-1.294l-5.276.005-11.015.008-23.653.011-12.511,0H325.9a13.007,13.007,0,0,0-1.6.047,3.648,3.648,0,0,0-3.063,3.058,12.486,12.486,0,0,0-.047,1.583q0,3.222,0,6.4,0,6.356,0,12.514c0,8.2-.007,16.118-.011,23.658q0,1.413,0,2.809,0,.7,0,1.391a3.074,3.074,0,0,0,.278,1.271,3.123,3.123,0,0,0,1.883,1.674,3.77,3.77,0,0,0,1.289.144h1.344l10.39.009,18.651.023,27.006.059,7.342.034,1.909.019c.43.006.651.019.651.019s-.22.013-.651.019l-1.909.018-7.342.035-27.006.059-18.651.023-10.39.009h-1.344a4.11,4.11,0,0,1-1.389-.156,3.457,3.457,0,0,1-2.09-1.852,3.421,3.421,0,0,1-.309-1.409q0-.693,0-1.392,0-1.395,0-2.809c0-7.539-.007-15.453-.011-23.658q0-6.154,0-12.514,0-3.178,0-6.4a12.729,12.729,0,0,1,.051-1.639,4.022,4.022,0,0,1,3.376-3.37,13.21,13.21,0,0,1,1.654-.051h11.254l12.511,0,23.653.011,11.015.008,5.276,0h1.294a5.557,5.557,0,0,1,1.311.1,4.046,4.046,0,0,1,2.205,1.359,4,4,0,0,1,.9,2.381c.015.835,0,1.643.005,2.454q0,2.426-.005,4.76-.007,4.668-.012,8.949c-.025,11.4-.045,20.62-.059,27.007-.006,1.593-.012,3.009-.017,4.238a3.552,3.552,0,0,1-.983,2.878,3.3,3.3,0,0,1-1.681.883,2.6,2.6,0,0,1-.651.046" transform="translate(-91.167 -86.021)" fill="#263238"/>
        <rect id="Retângulo_1325" data-name="Retângulo 1325" width="26.791" height="26.791" transform="translate(236.483 236.81)" fill="#e0e0e0"/>
        <rect id="Retângulo_1326" data-name="Retângulo 1326" width="27.59" height="2.293" transform="translate(270.029 238.438)" fill="#e0e0e0"/>
        <rect id="Retângulo_1327" data-name="Retângulo 1327" width="27.59" height="2.293" transform="translate(270.029 243.682)" fill="#e0e0e0"/>
        <rect id="Retângulo_1328" data-name="Retângulo 1328" width="27.59" height="2.292" transform="translate(270.029 248.928)" fill="#e0e0e0"/>
        <rect id="Retângulo_1329" data-name="Retângulo 1329" width="27.59" height="2.292" transform="translate(270.029 254.172)" fill="#e0e0e0"/>
      </g>
    </g>
    <g id="Grupo_2113" data-name="Grupo 2113">
      <g id="Grupo_2112" data-name="Grupo 2112" clip-path="url(#clip-path)">
        <path id="Caminho_3502" data-name="Caminho 3502" d="M255.367,289.471l-93.587-.058c-11.255-.006-20.376-9.6-20.373-21.428l.046-246.566c0-11.836,9.135-21.426,20.4-21.42l93.587.058c11.256.007,20.376,9.6,20.373,21.428l-.046,246.567c0,11.835-9.135,21.426-20.4,21.419" transform="translate(-40.183 0)" fill="#263238"/>
        <path id="Caminho_3503" data-name="Caminho 3503" d="M257.8,12.241l-18.145-.011a4.636,4.636,0,0,0-4.406,4.838v3.459a4.636,4.636,0,0,1-4.407,4.838l-35.368-.022a4.641,4.641,0,0,1-4.405-4.843V17.04a4.641,4.641,0,0,0-4.406-4.843l-6.381,0-15.882-.01c-7.886,0-14.284,6.712-14.285,15l-.044,240.666c0,8.285,6.385,15,14.269,15.007l93.4.057c7.886.005,14.284-6.712,14.285-15l.045-240.667c0-8.284-6.386-15-14.269-15.007" transform="translate(-42.645 -3.462)" fill="#fff"/>
        <path id="Caminho_3504" data-name="Caminho 3504" d="M174.873,363.486v7.063a.775.775,0,0,1-1.19.656l-5.553-3.531a.778.778,0,0,1,0-1.312l5.553-3.531a.775.775,0,0,1,1.19.656" transform="translate(-47.675 -103.07)" fill="#e0e0e0"/>
        <path id="Caminho_3505" data-name="Caminho 3505" d="M237.566,366.7a4.868,4.868,0,1,1-4.868-4.879,4.874,4.874,0,0,1,4.868,4.879" transform="translate(-64.742 -102.818)" fill="#e0e0e0"/>
        <path id="Caminho_3506" data-name="Caminho 3506" d="M297.9,371.71h-6.305a1.338,1.338,0,0,1-1.339-1.339v-6.325a1.338,1.338,0,0,1,1.339-1.339H297.9a1.339,1.339,0,0,1,1.339,1.339v6.325a1.338,1.338,0,0,1-1.339,1.339" transform="translate(-82.481 -103.07)" fill="#e0e0e0"/>
      </g>
    </g>
    <g id="Grupo_2115" data-name="Grupo 2115">
      <g id="Grupo_2114" data-name="Grupo 2114" clip-path="url(#clip-path)">
        <path id="Caminho_3507" data-name="Caminho 3507" d="M339.279,60.527H293.99a3.26,3.26,0,0,1-3.26-3.26V26.029a3.849,3.849,0,0,1,3.849-3.848h44.11a3.848,3.848,0,0,1,3.848,3.848V57.268a3.26,3.26,0,0,1-3.259,3.26" transform="translate(-82.616 -6.303)" fill="#fff"/>
        <path id="Caminho_3508" data-name="Caminho 3508" d="M342.538,30.586H290.73V26.029a3.848,3.848,0,0,1,3.848-3.848h44.111a3.848,3.848,0,0,1,3.848,3.848Z" transform="translate(-82.616 -6.303)" fill="#e0e0e0"/>
        <path id="Caminho_3509" data-name="Caminho 3509" d="M299.142,28.058a1.533,1.533,0,1,1-1.533-1.533,1.533,1.533,0,0,1,1.533,1.533" transform="translate(-84.135 -7.538)" fill="#fff"/>
        <path id="Caminho_3510" data-name="Caminho 3510" d="M305.718,28.058a1.533,1.533,0,1,1-1.533-1.533,1.533,1.533,0,0,1,1.533,1.533" transform="translate(-86.003 -7.538)" fill="#fff"/>
        <path id="Caminho_3511" data-name="Caminho 3511" d="M312.294,28.058a1.533,1.533,0,1,1-1.533-1.533,1.533,1.533,0,0,1,1.533,1.533" transform="translate(-87.872 -7.538)" fill="#fff"/>
        <path id="Caminho_3512" data-name="Caminho 3512" d="M339.2,60.453c0-.011.152-.009.445-.053a3.162,3.162,0,0,0,1.218-.451,3.223,3.223,0,0,0,1.324-1.6,8.765,8.765,0,0,0,.2-2.881c-.014-4.421-.035-10.8-.059-18.667q-.008-2.956-.012-6.185,0-1.614-.006-3.291c-.008-.553.014-1.136-.019-1.679a3.569,3.569,0,0,0-.5-1.561,3.692,3.692,0,0,0-2.737-1.79c-1.156-.057-2.4-.013-3.626-.025l-7.614.008-16.347.011-8.648,0h-7.778a6.684,6.684,0,0,0-1.1.047,3.669,3.669,0,0,0-2.987,2.7,9.132,9.132,0,0,0-.121,2.162v2.2q0,4.393,0,8.65c0,5.67-.009,11.14-.012,16.351q0,.977,0,1.941a5.433,5.433,0,0,0,.165,1.843,3.106,3.106,0,0,0,2.646,2.086c2.438.031,4.856.014,7.166.024l12.891.023,18.666.059,5.074.035,1.32.018c.3.006.45.019.45.019s-.153.013-.45.019l-1.32.018-5.074.035-18.666.059-12.891.023c-2.324,0-4.7.021-7.2-.006a3.437,3.437,0,0,1-2.934-2.3,5.711,5.711,0,0,1-.187-1.951q0-.964,0-1.941c0-5.211-.008-10.681-.011-16.351q0-4.253,0-8.65,0-1.1,0-2.2V26.091a4.263,4.263,0,0,1,.132-1.147,4.041,4.041,0,0,1,3.292-2.973,7.091,7.091,0,0,1,1.151-.051h7.778l8.648,0,16.347.011,7.614.008c1.241.016,2.432-.029,3.664.037a4,4,0,0,1,2.965,1.949,3.9,3.9,0,0,1,.536,1.692c.033.593.007,1.14.014,1.7q0,1.677-.006,3.291-.006,3.226-.012,6.185c-.025,7.871-.045,14.246-.059,18.667q-.005.826-.009,1.56a3.526,3.526,0,0,1-.234,1.362,3.282,3.282,0,0,1-1.387,1.625,3.066,3.066,0,0,1-1.251.424,2.344,2.344,0,0,1-.45.016" transform="translate(-82.542 -6.229)" fill="#263238"/>
        <path id="Caminho_3513" data-name="Caminho 3513" d="M332.936,47.892a6.243,6.243,0,0,0-1.585-3.4,5.993,5.993,0,0,0-3.117-1.94,4.839,4.839,0,0,0-5.342,2.463,4.837,4.837,0,0,0-5.213-2.329,5.992,5.992,0,0,0-3.136,1.908,6.24,6.24,0,0,0-1.62,3.382,7.6,7.6,0,0,0,.921,4.678,10.748,10.748,0,0,0,3.685,3.488c2.412,1.47,5.588,3.311,5.588,3.311s2.7-2,5.13-3.445a10.743,10.743,0,0,0,3.721-3.45,7.6,7.6,0,0,0,.969-4.669" transform="translate(-88.907 -12.06)" fill="#ff725e"/>
      </g>
    </g>
    <g id="Grupo_2117" data-name="Grupo 2117">
      <g id="Grupo_2116" data-name="Grupo 2116" clip-path="url(#clip-path)">
        <path id="Caminho_3514" data-name="Caminho 3514" d="M80.212,78.923H28.675a3.26,3.26,0,0,1-3.26-3.26V39.8a3.848,3.848,0,0,1,3.848-3.848h50.36A3.848,3.848,0,0,1,83.472,39.8V75.664a3.26,3.26,0,0,1-3.26,3.26" transform="translate(-7.222 -10.216)" fill="#fff"/>
        <path id="Caminho_3515" data-name="Caminho 3515" d="M83.472,45.37H25.415V39.8a3.848,3.848,0,0,1,3.848-3.848h50.36A3.848,3.848,0,0,1,83.472,39.8Z" transform="translate(-7.222 -10.216)" fill="#e0e0e0"/>
        <path id="Caminho_3516" data-name="Caminho 3516" d="M34.842,42.538a1.718,1.718,0,1,1-1.718-1.719,1.718,1.718,0,0,1,1.718,1.719" transform="translate(-8.924 -11.599)" fill="#fff"/>
        <path id="Caminho_3517" data-name="Caminho 3517" d="M42.211,42.538a1.718,1.718,0,1,1-1.719-1.719,1.718,1.718,0,0,1,1.719,1.719" transform="translate(-11.018 -11.599)" fill="#fff"/>
        <path id="Caminho_3518" data-name="Caminho 3518" d="M49.58,42.538a1.718,1.718,0,1,1-1.718-1.719,1.718,1.718,0,0,1,1.718,1.719" transform="translate(-13.112 -11.599)" fill="#fff"/>
        <path id="Caminho_3519" data-name="Caminho 3519" d="M80.137,78.849c0-.014.173,0,.5-.062a3.273,3.273,0,0,0,1.346-.561,3.24,3.24,0,0,0,1.279-1.941,7.086,7.086,0,0,0,.069-1.523q0-.825-.009-1.755c-.014-4.969-.034-12.141-.059-21q-.006-3.325-.012-6.958,0-1.815-.006-3.7c-.007-.623.011-1.274-.016-1.892a3.649,3.649,0,0,0-.586-1.744,3.72,3.72,0,0,0-3.243-1.68l-4.1,0-8.564.008-18.388.011-9.727,0h-8.75a8.3,8.3,0,0,0-1.235.047,3.676,3.676,0,0,0-3.087,3.22c-.044,1.629-.013,3.318-.023,4.956q0,4.941,0,9.73c0,6.378-.008,12.531-.011,18.393q0,1.1,0,2.184a5.7,5.7,0,0,0,.195,2.072,3.136,3.136,0,0,0,3.16,2.021l8.078.009,14.5.023,20.995.059,5.709.034,1.484.019c.335.006.506.019.506.019s-.171.013-.506.019l-1.484.018-5.709.035-20.995.059L36.943,79l-8.078.009a3.565,3.565,0,0,1-2.09-.528,3.408,3.408,0,0,1-1.386-1.7,3.262,3.262,0,0,1-.213-1.1l-.006-1.086,0-2.184c0-5.862-.007-12.015-.011-18.393q0-4.785,0-9.73c.011-1.656-.026-3.287.023-5a4.049,4.049,0,0,1,3.4-3.548,8.528,8.528,0,0,1,1.291-.05h8.75l9.727,0,18.388.011,8.564.008,4.1,0a4.04,4.04,0,0,1,3.5,1.83,3.964,3.964,0,0,1,.63,1.891c.028.661.006,1.281.011,1.914q0,1.887,0,3.7-.006,3.629-.012,6.958c-.025,8.856-.045,16.028-.059,21q0,.929-.009,1.755a7.167,7.167,0,0,1-.089,1.546,3.3,3.3,0,0,1-1.344,1.979,3.208,3.208,0,0,1-1.384.536,2.178,2.178,0,0,1-.506.024" transform="translate(-7.148 -10.142)" fill="#263238"/>
        <path id="Caminho_3520" data-name="Caminho 3520" d="M73.659,70.892l-1.79-2.535a9.063,9.063,0,0,1-1.659-5.223l0-5.7a9.3,9.3,0,0,0-7.883-9.186V45.532a1.251,1.251,0,1,0-2.5,0V48.21a9.3,9.3,0,0,0-8.2,9.233l0,5.9a9.057,9.057,0,0,1-1.932,5.595L48.149,70.9Z" transform="translate(-13.682 -12.583)" fill="#e4b93d"/>
        <path id="Caminho_3521" data-name="Caminho 3521" d="M63.215,86.3a4.031,4.031,0,0,0,4.171-.717,3.914,3.914,0,0,0,1.054-1.616l-7.43-.052A4.043,4.043,0,0,0,63.215,86.3" transform="translate(-17.337 -23.844)" fill="#e4b93d"/>
      </g>
    </g>
    <g id="Grupo_2122" data-name="Grupo 2122">
      <g id="Grupo_2121" data-name="Grupo 2121" clip-path="url(#clip-path)">
        <path id="Caminho_3522" data-name="Caminho 3522" d="M411.4,105.181l-26.252-6.428a3.381,3.381,0,0,1-2.48-4.089l8.9-36.337a3.383,3.383,0,0,1,4.09-2.48L412.3,59.923l9.636,16.439-6.45,26.338a3.381,3.381,0,0,1-4.089,2.48" transform="translate(-108.713 -15.842)" fill="#82acc9"/>
        <g id="Grupo_2120" data-name="Grupo 2120" transform="translate(300.994 44.081)" opacity="0.3">
          <g id="Grupo_2119" data-name="Grupo 2119">
            <g id="Grupo_2118" data-name="Grupo 2118" clip-path="url(#clip-path-11)">
              <path id="Caminho_3523" data-name="Caminho 3523" d="M423.077,61.58l-2.5,10.226a3.145,3.145,0,0,0,2.307,3.8l9.833,2.409Z" transform="translate(-420.481 -61.58)"/>
            </g>
          </g>
        </g>
        <path id="Caminho_3524" data-name="Caminho 3524" d="M412.854,73.343a40.089,40.089,0,0,1-6.131-1.249,40.149,40.149,0,0,1-6.014-1.724,79.766,79.766,0,0,1,12.146,2.974" transform="translate(-113.868 -19.991)" fill="#fafafa"/>
        <path id="Caminho_3525" data-name="Caminho 3525" d="M418.721,83.343c-.032.132-4.533-.858-10.052-2.209s-9.969-2.554-9.937-2.686,4.533.858,10.054,2.21,9.968,2.553,9.936,2.685" transform="translate(-113.306 -22.289)" fill="#fafafa"/>
        <path id="Caminho_3526" data-name="Caminho 3526" d="M418.869,90.53c-.032.132-4.936-.956-10.953-2.43s-10.869-2.775-10.837-2.906,4.936.956,10.954,2.43S418.9,90.4,418.869,90.53" transform="translate(-112.837 -24.206)" fill="#fafafa"/>
        <path id="Caminho_3527" data-name="Caminho 3527" d="M417.311,96.894c-.032.132-4.936-.956-10.952-2.43s-10.87-2.775-10.838-2.906,4.936.956,10.954,2.43,10.869,2.774,10.836,2.906" transform="translate(-112.394 -26.015)" fill="#fafafa"/>
        <path id="Caminho_3528" data-name="Caminho 3528" d="M415.753,103.257c-.032.132-4.936-.956-10.952-2.43s-10.87-2.775-10.838-2.906,4.936.956,10.954,2.43,10.868,2.775,10.836,2.906" transform="translate(-111.951 -27.823)" fill="#fafafa"/>
        <path id="Caminho_3529" data-name="Caminho 3529" d="M414.195,109.621c-.032.132-4.936-.956-10.952-2.43s-10.87-2.775-10.838-2.906,4.936.956,10.954,2.43,10.869,2.774,10.836,2.906" transform="translate(-111.508 -29.631)" fill="#fafafa"/>
      </g>
    </g>
    <g id="Grupo_2124" data-name="Grupo 2124">
      <g id="Grupo_2123" data-name="Grupo 2123" clip-path="url(#clip-path)">
        <path id="Caminho_3530" data-name="Caminho 3530" d="M98.7,247.048l-25.331-5.573H15.832l35.586,6.133H98.539c.657,0,.795-.464.165-.559" transform="translate(-4.499 -68.619)" fill="#e0e0e0"/>
        <path id="Caminho_3531" data-name="Caminho 3531" d="M.127,189.68l11.206,36.053H68.875l-11.206-37.67A2.779,2.779,0,0,0,55,186.076H2.781a2.779,2.779,0,0,0-2.654,3.6" transform="translate(0 -52.877)" fill="#e0e0e0"/>
        <path id="Caminho_3532" data-name="Caminho 3532" d="M14.661,241.417c0-.1,13.022-.186,29.081-.186s29.084.083,29.084.186-13.019.186-29.084.186-29.081-.083-29.081-.186" transform="translate(-4.166 -68.55)" fill="#263238"/>
        <path id="Caminho_3533" data-name="Caminho 3533" d="M49.092,211.683a3.258,3.258,0,1,1-3.258-3.258,3.258,3.258,0,0,1,3.258,3.258" transform="translate(-12.098 -59.227)" fill="#fff"/>
        <path id="Caminho_3534" data-name="Caminho 3534" d="M126.828,204.063c.068.077-4.78,4.518-10.826,9.92s-11.007,9.72-11.075,9.642,4.777-4.518,10.827-9.921,11.005-9.718,11.075-9.642" transform="translate(-29.816 -57.988)" fill="#263238"/>
        <path id="Caminho_3535" data-name="Caminho 3535" d="M106.611,201.793c.1.036-1.019,3.251-2.491,7.179s-2.744,7.085-2.84,7.049,1.019-3.25,2.492-7.18,2.743-7.085,2.84-7.048" transform="translate(-28.779 -57.343)" fill="#263238"/>
        <path id="Caminho_3536" data-name="Caminho 3536" d="M127.592,233.788c.016.1-3.712.752-8.323,1.454s-8.365,1.187-8.38,1.085,3.711-.753,8.324-1.454,8.364-1.187,8.38-1.085" transform="translate(-31.511 -66.431)" fill="#263238"/>
        <path id="Caminho_3537" data-name="Caminho 3537" d="M113.245,231.586a2.86,2.86,0,0,1-.486-.082l-1.391-.3-5.175-1.169L88.505,225.92l-.1-.024-.03-.1-2.266-7.66-6.627-22.648c-.824-2.879-1.494-5.22-1.967-6.876q-.327-1.185-.517-1.874c-.051-.2-.092-.359-.126-.49a.6.6,0,0,1-.03-.171.641.641,0,0,1,.067.16l.16.48q.215.68.584,1.855c.5,1.647,1.21,3.976,2.081,6.842l6.732,22.617c.782,2.655,1.541,5.235,2.256,7.663l-.132-.125,17.659,4.244,5.15,1.273,1.377.356a2.8,2.8,0,0,1,.472.145" transform="translate(-21.835 -52.877)" fill="#263238"/>
      </g>
    </g>
    <path id="Caminho_3538" data-name="Caminho 3538" d="M151.87,174.317l3.481-18.514,9.935-1.424-.757,19.938Z" transform="translate(-43.156 -43.869)" fill="#cc675d"/>
    <g id="Grupo_2129" data-name="Grupo 2129">
      <g id="Grupo_2128" data-name="Grupo 2128" clip-path="url(#clip-path)">
        <path id="Caminho_3539" data-name="Caminho 3539" d="M165.077,147.116s5.1-3.117,7.231-6.81,7.386-5.966,6.96-6.961-2.841-1.562-4.261-.71-4.686,4.709-6.107,2.863-1.616-10.862-1.9-13.7-1.329-5.308-2.323-4.636-1.407,1.14-1.119,4.467c.271,3.143.369,8.879-.483,7.885s-1.137-14.063-2.273-14.347a2.144,2.144,0,0,0-2.557,2.311c.142,1.666.124,14.025-.009,12.319s-.845-7.212-1.762-9.506c-.694-1.734-2.464.419-2.18,1.981s1.963,11.5,1.253,11.36c0,0-1.563-7.954-2.273-8.381s-1.9,1.543-1.563,3.268c.526,2.7,1.42,7.954,1.7,11.364s1.847,7.67,2.841,8.1,8.82-.861,8.82-.861" transform="translate(-43.094 -32.711)" fill="#cc675d"/>
        <path id="Caminho_3540" data-name="Caminho 3540" d="M162.792,149.294c-.021-.009.03-.185.169-.484a5.237,5.237,0,0,1,.787-1.158,6.132,6.132,0,0,1,4.083-2.025c.926-.064,1.764.137,2.5.081a4.2,4.2,0,0,0,1.848-.618c.975-.6,1.525-1.082,1.566-1.028.016.019-.1.155-.341.38a8.587,8.587,0,0,1-1.085.871,4.221,4.221,0,0,1-1.962.738c-.8.076-1.649-.116-2.5-.052a6.249,6.249,0,0,0-3.917,1.835,15.1,15.1,0,0,0-1.148,1.46" transform="translate(-46.259 -40.937)" fill="#9c4741"/>
        <g id="Grupo_2127" data-name="Grupo 2127" transform="translate(113.111 55.767)" opacity="0.3">
          <g id="Grupo_2126" data-name="Grupo 2126">
            <g id="Grupo_2125" data-name="Grupo 2125" clip-path="url(#clip-path-14)">
              <path id="Caminho_3541" data-name="Caminho 3541" d="M280.087,219.43c-2.1-2.348-5.846-1.465-8.983-1.178-9.59.878-18.534-6.024-23.051-14.53s-5.529-18.373-6.459-27.958c-.349-3.6-.508-7.747,2.112-10.239,2.158-2.053,5.429-2.207,8.393-2.5a51.57,51.57,0,0,0,18.882-5.691c2.853-1.506,5.646-3.361,7.41-6.062s2.289-6.415.565-9.142c-1.878-2.971-5.683-3.954-9.133-4.628a281.213,281.213,0,0,0-41.76-4.946c.674-8.394,1.346-16.871.157-25.208s-4.414-16.641-10.5-22.466-15.332-8.715-23.257-5.866a18.985,18.985,0,0,0-.99,35.343c5.019,2.129,11.569,2.59,14.1,7.421,1.7,3.251.692,7.375-1.475,10.334s-5.306,5.024-8.318,7.118a183.726,183.726,0,0,0-31.533,27.779l-8.106,12.27c-.933,3.862,3.4,7.34,7.372,7.156s7.38-2.735,10.528-5.158,6.609-4.933,10.581-5.014c5.312-.107,9.843,4.374,11.539,9.41s1.179,10.515.593,15.8c-1.015,9.145-3.037,19.606-11.07,24.093-4.241,2.369-9.326,2.508-14.006,3.806s-9.551,4.63-9.765,9.482c-.191,4.329,3.427,7.888,7.2,10.015s19.548,2.671,22.621,5.725c3.621,3.6,1.071,7.067.882,14.078-.115,4.24,1.072,8.9,4.22,11.74s4.284,3.832,8.222,2.257c6.332-2.533,7.586-10.715,10.881-16.685,1.99-3.606,5.174-6.743,9.161-7.776s8.747.492,10.693,4.121c1.5,2.8,1.586,6.822,4.493,8.1,3.292,1.447,6.677-2.464,6.9-6.052s-1.261-7.131-.97-10.715c.607-7.465,8.269-12.071,15.183-14.95s14.831-6.115,17.313-13.181c.711-2.024.8-4.5-.626-6.1" transform="translate(-158.013 -77.905)"/>
            </g>
          </g>
        </g>
        <path id="Caminho_3542" data-name="Caminho 3542" d="M258.675,313.692l10.962-4.888L261.5,291.339l-11.65,6.155Z" transform="translate(-70.999 -82.789)" fill="#ffbf9d"/>
        <path id="Caminho_3543" data-name="Caminho 3543" d="M241.908,299.754l-16.777,9.459-6.794.943c-2.578.359-1.8,2.381-1.442,4.96l4.37,31.461s3.365,1.045,4.03-1.414,7.925-21.4,7.925-21.4l16.016-7.715Z" transform="translate(-61.522 -85.18)" fill="#e0e0e0"/>
        <path id="Caminho_3544" data-name="Caminho 3544" d="M241.855,299.754s.047.086.133.268l.382.822,1.47,3.2L249.287,316l.046.1-.1.048-16,7.745.073-.079c-1.457,3.858-3.018,7.988-4.653,12.317-.808,2.168-1.634,4.387-2.442,6.657q-.3.85-.593,1.713c-.1.291-.165.564-.28.873a1.794,1.794,0,0,1-.2.445l-.13.211-.168.184a2.634,2.634,0,0,1-1.773.731,5.743,5.743,0,0,1-1.9-.215l-.1-.027-.014-.106c-.014-.1-.03-.213-.045-.325-1.184-8.551-2.312-16.7-3.34-24.134q-.383-2.785-.748-5.431c-.124-.881-.23-1.749-.375-2.6a8.113,8.113,0,0,1-.176-2.578,1.65,1.65,0,0,1,.7-1.105,3.133,3.133,0,0,1,1.205-.4l2.354-.322,4.432-.606-.042.014,12.34-6.884,3.339-1.85.864-.473c.194-.1.291-.15.291-.15s-.1.067-.3.183l-.872.505-3.335,1.913-12.211,6.959-.019.011-.022,0-4.429.626-2.353.331a2.869,2.869,0,0,0-1.092.366,1.373,1.373,0,0,0-.587.936,7.987,7.987,0,0,0,.185,2.48c.149.853.258,1.724.384,2.6q.37,2.641.761,5.429c1.036,7.429,2.173,15.581,3.364,24.131.016.111.031.222.045.324l-.113-.132a5.476,5.476,0,0,0,1.78.2,2.312,2.312,0,0,0,1.561-.633,3.872,3.872,0,0,0,.707-1.588q.291-.868.6-1.719c.81-2.273,1.639-4.491,2.45-6.659l4.677-12.312.02-.054.053-.026,16.03-7.684-.054.148-5.3-11.945-1.431-3.248c-.158-.364-.281-.647-.369-.85s-.122-.3-.122-.3" transform="translate(-61.469 -85.18)" fill="#263238"/>
        <path id="Caminho_3545" data-name="Caminho 3545" d="M251.214,296.845l-4.035,2.6a1.432,1.432,0,0,0-.5,1.853l7.548,14.854a1.434,1.434,0,0,0,1.792.688l4.357-1.679a1.433,1.433,0,0,0,.767-1.976l-7.869-15.774a1.432,1.432,0,0,0-2.057-.565" transform="translate(-70.053 -84.289)" fill="#e0e0e0"/>
        <path id="Caminho_3546" data-name="Caminho 3546" d="M254.5,318.5a15.5,15.5,0,0,1-1.437-2.146c-.835-1.359-1.942-3.266-3.052-5.434s-2-4.19-2.582-5.676c-.292-.742-.515-1.348-.655-1.772a2.417,2.417,0,0,1-.181-.672,20.539,20.539,0,0,1,1.092,2.337c.648,1.452,1.571,3.445,2.676,5.605s2.17,4.08,2.943,5.473a18.526,18.526,0,0,1,1.2,2.286" transform="translate(-70.073 -86.044)" fill="#263238"/>
        <path id="Caminho_3547" data-name="Caminho 3547" d="M248.515,304.482a7.247,7.247,0,0,1,6.689-2.937,11.487,11.487,0,0,0-6.689,2.937" transform="translate(-70.618 -85.662)" fill="#263238"/>
        <path id="Caminho_3548" data-name="Caminho 3548" d="M251.425,312.305a26.307,26.307,0,0,1,7.1-3.743,28.942,28.942,0,0,1-3.513,1.946,28.911,28.911,0,0,1-3.59,1.8" transform="translate(-71.446 -87.681)" fill="#263238"/>
        <path id="Caminho_3549" data-name="Caminho 3549" d="M256.5,319.869a9.721,9.721,0,0,0,5.937-4.523,2.456,2.456,0,0,1-.426,1.075,7.241,7.241,0,0,1-4.362,3.322,2.462,2.462,0,0,1-1.15.125" transform="translate(-72.888 -89.61)" fill="#263238"/>
        <path id="Caminho_3550" data-name="Caminho 3550" d="M217.752,321.233c-.016-.062.58-.211,1.451-.641a8.566,8.566,0,0,0,4.591-5.679c.237-.943.258-1.556.322-1.553a3.713,3.713,0,0,1-.052,1.612,7.895,7.895,0,0,1-4.747,5.873,3.725,3.725,0,0,1-1.566.388" transform="translate(-61.878 -89.047)" fill="#263238"/>
        <path id="Caminho_3551" data-name="Caminho 3551" d="M221.354,351.958a2.5,2.5,0,0,1,1.11-.454,5.111,5.111,0,0,1,2.9.184,7.088,7.088,0,0,1,2.432,1.571c.527.518.789.893.754.926s-.377-.265-.937-.718a8.713,8.713,0,0,0-2.383-1.41,5.674,5.674,0,0,0-2.712-.28,6.77,6.77,0,0,1-1.16.181" transform="translate(-62.901 -99.849)" fill="#263238"/>
        <path id="Caminho_3552" data-name="Caminho 3552" d="M183.319,261.278s-16.45-2.055-21.69-.984-15.126,7.265-14.173,16.674,7.17,16.156,14.793,17.347,50.182,5.5,66.671,5.282c13.956-.188,21.534-3.722,19.945-5.893,0,0,14.7-5.591,16.228-6.247,1.184-.507,22.781-11.2,25.044-15.133s7.622-17.269-1.787-23.939-25.487-2.144-28.346,0c-1.4,1.052-3.906,1.784-8.941,5.458l-4.8-3.3c-.341.256-39.019,2.962-54.327,3.659-2.6.118-8.616,7.081-8.616,7.081" transform="translate(-41.884 -69.588)" fill="#506d8f"/>
        <path id="Caminho_3553" data-name="Caminho 3553" d="M261.909,296.7c-.425-1.82-.616-2.49-.148-3.67a10.633,10.633,0,0,1,2.191-3.09,3.174,3.174,0,0,1,2.1-1.324c1.079-.014,1.833,1.02,2.4,1.935q3.144,5.037,6.7,9.8a16.936,16.936,0,0,0,4.78,4.8c.721.419,1.623.928,1.583,1.762-.032.657-.66,1.106-1.235,1.427a25.615,25.615,0,0,1-3.369,1.577,5.314,5.314,0,0,1-6.435-1.03,26.18,26.18,0,0,1-8.693-12.588" transform="translate(-74.306 -82.014)" fill="#263238"/>
        <path id="Caminho_3554" data-name="Caminho 3554" d="M261.761,296.253a.614.614,0,0,1,.065.15l.161.447c.136.394.35.972.667,1.7a25.085,25.085,0,0,0,3.456,5.712,28.874,28.874,0,0,0,3.158,3.367c.615.556,1.266,1.127,1.97,1.649a5.131,5.131,0,0,0,2.415,1.054,6.3,6.3,0,0,0,2.753-.443,25.164,25.164,0,0,0,2.74-1.18c.448-.229.915-.467,1.339-.732a1.581,1.581,0,0,0,.842-1.083,1.375,1.375,0,0,0-.72-1.155c-.414-.3-.908-.538-1.361-.856a19.174,19.174,0,0,1-4.349-4.619c-1.218-1.641-2.357-3.251-3.412-4.805s-2.025-3.052-2.909-4.469a7.168,7.168,0,0,0-1.435-1.872,1.8,1.8,0,0,0-.964-.417,1.692,1.692,0,0,0-.977.228,6.51,6.51,0,0,0-1.462,1.333,15.82,15.82,0,0,0-1.147,1.378,4.888,4.888,0,0,0-1.062,2.6,8.605,8.605,0,0,0,.242,1.793c.038.19.068.343.092.467a.082.082,0,1,1-.032.007c-.033-.122-.074-.272-.124-.459a7.78,7.78,0,0,1-.3-1.81,4.971,4.971,0,0,1,1.04-2.7,15.755,15.755,0,0,1,1.142-1.411,6.61,6.61,0,0,1,1.5-1.394,1.922,1.922,0,0,1,1.11-.268,2.047,2.047,0,0,1,1.1.46,7.346,7.346,0,0,1,1.508,1.926c.893,1.408,1.869,2.9,2.928,4.444s2.2,3.149,3.42,4.784a19.031,19.031,0,0,0,4.276,4.54c.433.3.916.536,1.369.863a2.593,2.593,0,0,1,.61.591,1.3,1.3,0,0,1,.242.853,1.883,1.883,0,0,1-.99,1.327c-.457.284-.91.513-1.371.747a25.242,25.242,0,0,1-2.78,1.188,6.56,6.56,0,0,1-2.89.447,5.4,5.4,0,0,1-2.549-1.12,25.667,25.667,0,0,1-1.984-1.681,28.52,28.52,0,0,1-3.156-3.422,24.116,24.116,0,0,1-3.392-5.805,17.444,17.444,0,0,1-.613-1.725l-.13-.458a.651.651,0,0,1-.034-.159" transform="translate(-74.282 -81.967)" fill="#455a64"/>
        <path id="Caminho_3555" data-name="Caminho 3555" d="M303.8,252.021c-.006.026-.155-.023-.445.036a10.5,10.5,0,0,0-1.244.3c-1.072.308-2.6.827-4.485,1.495-.931.332-2,.705-3.085,1.047a11.607,11.607,0,0,0-2.858,2.323c-1.906,1.83-3.989,3.853-6.153,6-4.329,4.3-8.133,8.3-10.8,11.273-1.339,1.483-2.4,2.705-3.129,3.548q-.523.6-.842.974a2.26,2.26,0,0,1-.312.325,2.4,2.4,0,0,1,.261-.367c.2-.257.466-.593.8-1.013.7-.87,1.737-2.117,3.054-3.621,2.626-3.018,6.408-7.052,10.74-11.351,2.166-2.15,4.258-4.168,6.175-5.986a11.691,11.691,0,0,1,2.959-2.354c1.154-.354,2.162-.691,3.118-1.017,1.893-.641,3.439-1.127,4.527-1.4a8.387,8.387,0,0,1,1.271-.238,1.027,1.027,0,0,1,.339,0,.315.315,0,0,1,.112.024" transform="translate(-76.853 -71.605)" fill="#455a64"/>
        <path id="Caminho_3556" data-name="Caminho 3556" d="M220.575,288.718a2.519,2.519,0,0,1-.429-.186l-1.2-.591-4.383-2.228-6.482-3.342a64.178,64.178,0,0,0-8.058-3.771,23,23,0,0,0-4.47-1.047,7.008,7.008,0,0,1-2.14-.659,5.719,5.719,0,0,1-1.6-1.429,6.172,6.172,0,0,0-3.187-1.984,11.641,11.641,0,0,0-3.326-.37c-2.063.067-3.737.3-4.9.3-.583.011-1.034-.01-1.34-.034a2.409,2.409,0,0,1-.463-.063,2.611,2.611,0,0,1,.466,0c.3,0,.754,0,1.333-.026,1.158-.039,2.815-.309,4.9-.407a11.69,11.69,0,0,1,3.4.339,7.376,7.376,0,0,1,1.78.729,6.2,6.2,0,0,1,1.56,1.316,5.469,5.469,0,0,0,1.527,1.355,6.756,6.756,0,0,0,2.047.618,22.984,22.984,0,0,1,4.522,1.053,61.716,61.716,0,0,1,8.09,3.813l6.449,3.4,4.336,2.32,1.171.645a2.527,2.527,0,0,1,.4.245" transform="translate(-50.75 -77.542)" fill="#455a64"/>
        <path id="Caminho_3557" data-name="Caminho 3557" d="M243.934,316.193l-11.267-2.3,3.986-18.023,12.174,3.338Z" transform="translate(-66.116 -84.077)" fill="#cc675d"/>
        <path id="Caminho_3558" data-name="Caminho 3558" d="M251.819,300.81l17.655,5.364,5.472-.442a3.1,3.1,0,0,1,3.343,2.845l2.558,31.739s-3.728.857-4.861-1.3-11.057-17.549-11.057-17.549l-16.581-3.89Z" transform="translate(-70.572 -85.48)" fill="#e0e0e0"/>
        <path id="Caminho_3559" data-name="Caminho 3559" d="M251.766,300.81s-.015.108-.052.306-.1.5-.169.873c-.154.775-.377,1.9-.662,3.336-.585,2.9-1.428,7.075-2.477,12.269l-.085-.133,16.588,3.858.058.014.032.05,6.726,10.495c1.171,1.85,2.368,3.742,3.556,5.69.3.482.584,1,.87,1.48a2.387,2.387,0,0,0,1.245.989,6.459,6.459,0,0,0,3.362.121l-.125.172c-.005-.06-.011-.125-.016-.19-.652-8.15-1.275-15.922-1.842-23.006q-.21-2.656-.411-5.179-.1-1.261-.2-2.484c-.037-.4-.051-.825-.112-1.2a2.916,2.916,0,0,0-.42-1.058,2.978,2.978,0,0,0-1.775-1.271,7.46,7.46,0,0,0-2.2.015l-4.23.331h-.023l-.021-.006-12.864-3.975-3.517-1.1-.921-.292c-.208-.068-.319-.11-.319-.11s.1.022.3.08l.906.262,3.507,1.036,12.972,3.873-.043,0,4.228-.351,1.112-.092a3.529,3.529,0,0,1,1.171.074,3.243,3.243,0,0,1,1.939,1.379,3.19,3.19,0,0,1,.464,1.154c.069.424.079.815.12,1.226q.1,1.223.2,2.483.206,2.52.425,5.178c.574,7.084,1.2,14.855,1.866,23,.005.065.01.13.015.19l.011.145-.137.027a6.747,6.747,0,0,1-3.551-.134,2.717,2.717,0,0,1-1.407-1.125c-.3-.508-.569-.991-.869-1.48-1.183-1.945-2.378-3.838-3.546-5.687l-6.7-10.506.089.063-16.573-3.923-.108-.026.023-.107,2.614-12.314.712-3.3c.08-.362.142-.644.187-.848s.069-.279.069-.279" transform="translate(-70.519 -85.48)" fill="#263238"/>
        <path id="Caminho_3560" data-name="Caminho 3560" d="M249,297.237l5.017,1.853a1.446,1.446,0,0,1,.9,1.716L250.73,317.09a1.446,1.446,0,0,1-1.615,1.069l-4.659-.7a1.446,1.446,0,0,1-1.188-1.78l4.425-17.75a.994.994,0,0,1,1.309-.692" transform="translate(-69.116 -84.447)" fill="#e0e0e0"/>
        <path id="Caminho_3561" data-name="Caminho 3561" d="M248.939,297.227a1.4,1.4,0,0,0-.529-.011.967.967,0,0,0-.529.324,1.8,1.8,0,0,0-.294.813l-1.336,5.574-2.022,8.256q-.288,1.165-.589,2.385l-.3,1.223a1.277,1.277,0,0,0,.3,1.072,1.3,1.3,0,0,0,.468.338,2.415,2.415,0,0,0,.6.132l1.324.2,2.7.406a2.634,2.634,0,0,0,.646.058,1.274,1.274,0,0,0,.571-.195,1.323,1.323,0,0,0,.417-.431,2.192,2.192,0,0,0,.2-.595l.664-2.572,1.26-4.86,2.151-8.225a2.187,2.187,0,0,0,.13-.829,1.35,1.35,0,0,0-.3-.709c-.312-.408-.855-.492-1.295-.686l-2.3-.88-1.451-.568a3.341,3.341,0,0,1-.5-.219,3.341,3.341,0,0,1,.521.158l1.472.511,2.323.828.7.253A1.557,1.557,0,0,1,255,300.265a2.385,2.385,0,0,1-.125.911c-.595,2.356-1.3,5.146-2.083,8.243l-1.241,4.865-.659,2.573a2.459,2.459,0,0,1-.238.678,1.624,1.624,0,0,1-.522.54,1.587,1.587,0,0,1-.715.245,1.664,1.664,0,0,1-.382-.009l-.342-.052-2.7-.407-1.324-.2a2.671,2.671,0,0,1-.681-.155,1.61,1.61,0,0,1-.584-.424,1.592,1.592,0,0,1-.368-1.338c.1-.437.205-.831.306-1.242q.307-1.218.6-2.382c.785-3.1,1.493-5.885,2.09-8.24l1.437-5.549a1.86,1.86,0,0,1,.344-.845,1.021,1.021,0,0,1,.59-.325.926.926,0,0,1,.412.021.373.373,0,0,1,.129.054" transform="translate(-69.054 -84.437)" fill="#263238"/>
        <path id="Caminho_3562" data-name="Caminho 3562" d="M255.49,304.4a7.308,7.308,0,0,0-7.231-1.43,11.584,11.584,0,0,1,7.231,1.43" transform="translate(-70.547 -85.974)" fill="#263238"/>
        <path id="Caminho_3563" data-name="Caminho 3563" d="M253.7,312.842a15.556,15.556,0,0,0-3.6-1.322,15.392,15.392,0,0,0-3.748-.756,91.7,91.7,0,0,0,7.347,2.078" transform="translate(-70.004 -88.303)" fill="#263238"/>
        <path id="Caminho_3564" data-name="Caminho 3564" d="M251.277,321.361a9.815,9.815,0,0,1-6.838-3.157c-.038.026.168.427.654.966a7.312,7.312,0,0,0,5.024,2.319,2.47,2.47,0,0,0,1.16-.128" transform="translate(-69.46 -90.422)" fill="#263238"/>
        <path id="Caminho_3565" data-name="Caminho 3565" d="M287.315,314.314c0-.062-.586-.077-1.49-.3a8.205,8.205,0,0,1-5.472-4.359c-.418-.832-.564-1.4-.624-1.385a3.552,3.552,0,0,0,.383,1.5,7.564,7.564,0,0,0,5.659,4.508,3.549,3.549,0,0,0,1.545.038" transform="translate(-79.486 -87.601)" fill="#263238"/>
        <path id="Caminho_3566" data-name="Caminho 3566" d="M290.25,343.413a2.4,2.4,0,0,0-1.132-.194,4.9,4.9,0,0,0-2.67.773,6.779,6.779,0,0,0-1.949,1.974,2.828,2.828,0,0,0-.513,1.022c.049.03.3-.326.728-.865a8.341,8.341,0,0,1,1.935-1.814,5.443,5.443,0,0,1,2.479-.825,6.477,6.477,0,0,0,1.122-.072" transform="translate(-80.698 -97.531)" fill="#263238"/>
        <path id="Caminho_3567" data-name="Caminho 3567" d="M235.2,314.638c3.239-4.225,4.551-9.657,4.786-14.976a6.647,6.647,0,0,0-.523-3.477,6.182,6.182,0,0,0-2.014-2.014,22.031,22.031,0,0,0-3.828-2.132,1.433,1.433,0,0,0-1.228-.119c-.44.243-.506.835-.527,1.336a50.009,50.009,0,0,1-4.413,18.488,1.765,1.765,0,0,0,1.374,2.49c1.035.132,2.2.284,3.055.4a11.014,11.014,0,0,0,3.319,0" transform="translate(-64.589 -82.926)" fill="#263238"/>
        <path id="Caminho_3568" data-name="Caminho 3568" d="M235.156,314.574a.466.466,0,0,1-.146.041c-.1.02-.246.044-.44.068a10.97,10.97,0,0,1-1.707.055c-.744-.031-1.641-.17-2.682-.291-.525-.074-1.066-.112-1.679-.229a1.876,1.876,0,0,1-1.261-2.439c.132-.341.276-.646.417-.982.281-.662.563-1.356.833-2.082.543-1.451,1.057-3.027,1.508-4.709a51.587,51.587,0,0,0,1.687-11.195,1.8,1.8,0,0,1,.249-.785.947.947,0,0,1,.752-.429,3.568,3.568,0,0,1,1.478.464,22.049,22.049,0,0,1,2.561,1.4,11.111,11.111,0,0,1,2.231,1.747,4.326,4.326,0,0,1,1.1,2.5,14.132,14.132,0,0,1-.005,2.576c-.051.83-.135,1.632-.233,2.406a30.75,30.75,0,0,1-.863,4.249,22.511,22.511,0,0,1-2.459,5.761,15.41,15.41,0,0,1-.962,1.413l-.274.349c-.062.077-.1.114-.1.109a.672.672,0,0,1,.079-.135l.246-.368c.22-.311.53-.8.9-1.432a23.509,23.509,0,0,0,2.346-5.757,31.37,31.37,0,0,0,.818-4.223c.092-.768.17-1.565.215-2.389a14.074,14.074,0,0,0-.007-2.522,4.022,4.022,0,0,0-1.028-2.329,10.885,10.885,0,0,0-2.171-1.687,22.2,22.2,0,0,0-2.526-1.378,3.4,3.4,0,0,0-1.321-.433c-.437,0-.658.45-.7.927a50.786,50.786,0,0,1-1.721,11.235c-.461,1.691-.987,3.272-1.545,4.727-.277.729-.566,1.423-.855,2.086-.142.328-.3.661-.421.964a1.616,1.616,0,0,0-.062.931,1.645,1.645,0,0,0,1.151,1.226c.554.114,1.136.168,1.648.248,1.042.138,1.933.3,2.665.344a12.88,12.88,0,0,0,1.694.006l.44-.035a.633.633,0,0,1,.151-.008" transform="translate(-64.543 -82.862)" fill="#455a64"/>
        <path id="Caminho_3569" data-name="Caminho 3569" d="M229.917,286.307c-.074.039-.608-.939-1.648-2.392a27.37,27.37,0,0,0-10.579-8.833c-1.614-.764-2.672-1.115-2.646-1.195a2.453,2.453,0,0,1,.771.161,16.648,16.648,0,0,1,2.018.717,24.014,24.014,0,0,1,10.723,8.954,16.587,16.587,0,0,1,1.065,1.858,2.438,2.438,0,0,1,.3.729" transform="translate(-61.108 -77.827)" fill="#455a64"/>
        <path id="Caminho_3570" data-name="Caminho 3570" d="M274.007,271.426a16.7,16.7,0,0,1-1.628,1.914c-1.022,1.161-2.389,2.8-3.762,4.715s-2.486,3.739-3.256,5.08a16.558,16.558,0,0,1-1.29,2.156,10.409,10.409,0,0,1,.984-2.321,40.418,40.418,0,0,1,7.07-9.866,10.424,10.424,0,0,1,1.882-1.679" transform="translate(-75.038 -77.13)" fill="#455a64"/>
        <path id="Caminho_3571" data-name="Caminho 3571" d="M213.331,53.953a5.168,5.168,0,0,0-4.482-.967,2.964,2.964,0,0,1-1.886.187,4.139,4.139,0,0,1-1.028-.911,2.62,2.62,0,0,0-3.741.386,3.09,3.09,0,0,1-.639.817c-1.155.808-2.824-1.329-3.97-.51a2.958,2.958,0,0,1,1.52.9,1.334,1.334,0,0,1,.062,1.651c-1.025,1.165-3.225-.855-4.4.154-.636.544-.578,1.736-1.361,2.035a2.869,2.869,0,0,1-.964.055,2.147,2.147,0,0,0-2.027,2.122c.026.927.635,1.985.026,2.687a2.015,2.015,0,0,1-1.608.447,5.552,5.552,0,0,0,.918,2.347,3.351,3.351,0,0,0-.535,4.626,7.177,7.177,0,0,0-1.67,2.217,2.489,2.489,0,0,0,.323,2.619,2.259,2.259,0,0,1,.419.472,1.251,1.251,0,0,1,.089.671,11.489,11.489,0,0,0-.193,2.632c.14.872.916,1.746,1.782,1.557.2-.044.417-.142.6-.053a.585.585,0,0,1,.263.37,5.975,5.975,0,0,1,.118,1.89,2.527,2.527,0,0,0,.52,1.782,1.088,1.088,0,0,0,1.649-.016q-.184,1.51-.368,3.019c-.073.6-.1,1.314.377,1.682.626.483,1.57-.085,1.9-.8s.339-1.554.692-2.261a4.727,4.727,0,0,0,.427-.867,1.563,1.563,0,0,1,.235-.718c.351-.374,1.027.093,1.04.606a2.706,2.706,0,0,1-.609,1.387,1.3,1.3,0,0,0-.137,1.435c.153.195.4.3.546.5.512.688-.485,1.551-.5,2.407a2.063,2.063,0,0,0,1.016,1.518c.615.47,1.724.769,1.977.038a7.137,7.137,0,0,0,.065-.8,1.943,1.943,0,0,1,.514-.777,4.012,4.012,0,0,0,.927-2.112c-.543.882-1.088,2.025-.508,2.883a4.293,4.293,0,0,0,.975.848c.665.529,1.132,1.271,1.789,1.81a1.99,1.99,0,0,0,2.344.326,1.914,1.914,0,0,0,3.426,1.466,1.664,1.664,0,0,1,.458-.526,1.364,1.364,0,0,1,.744-.078A4.151,4.151,0,0,0,214.213,93l-.789-.166a9.671,9.671,0,0,0,4.095-1.8,3.291,3.291,0,0,0,.884-4.042c-.354-.547-.964-1.075-.8-1.706.112-.435.555-.686.956-.888L223.6,81.85a5,5,0,0,0,2.15-1.638,1.712,1.712,0,0,0-.449-2.386,4.9,4.9,0,0,1,1.574-2.214c.81-.641,1.8-1.01,2.641-1.613a2.785,2.785,0,0,0,1.348-2.6c-.2-1.011-1.711-1.616-2.318-.781-.06-1.554,2.671-2.007,2.708-3.562.029-1.263-1.643-1.7-2.586-2.543.111-.452.516-.785.64-1.233.261-.941-.784-1.71-1.714-2.012s-2.054-.584-2.389-1.5c-.344-.937.345-2.137-.281-2.916a1.109,1.109,0,0,0-1.49-.17c-.936-1.677-4.1.091-5.292-1.42a.689.689,0,0,1-.17-.414.74.74,0,0,1,.125-.369,7.782,7.782,0,0,1,1.325-1.315,1.51,1.51,0,0,0,.473-1.679c-.3-.549-1.394-.386-1.3.23a1.377,1.377,0,0,0-2.018.795,1.491,1.491,0,0,0-1.868.073,4.328,4.328,0,0,0-1.122,1.671" transform="translate(-53.23 -14.536)" fill="#263238"/>
        <path id="Caminho_3572" data-name="Caminho 3572" d="M215.458,80.516c.28-2.607,1.943-4.872,3.855-6.674a6.728,6.728,0,0,1,2.757-1.759,2.828,2.828,0,0,1,2.991.85l.044,1.839c.54,2.871-1.444,5.546-2.224,8.362-.339,1.226-.568,2.678-1.678,3.3a2.745,2.745,0,0,1-1.95.19c-2.562-.589-4.076-3.5-3.8-6.112" transform="translate(-61.217 -20.452)" fill="#50878f"/>
        <path id="Caminho_3573" data-name="Caminho 3573" d="M216.522,92.458a5.846,5.846,0,0,1-.164-7.512c-1.193-1.242-1-3.344-.031-4.77a11.512,11.512,0,0,1,4.005-3.2,7.915,7.915,0,0,1,8.657-6.579c1.765-3.174,6.064-4.041,9.636-3.349a9.305,9.305,0,0,0,2.635.325,15.165,15.165,0,0,0,1.9-.442c3.5-.8,7.236,1.362,8.917,4.519a6.539,6.539,0,0,0,.891,1.459,8.888,8.888,0,0,0,1.877,1.233,5.653,5.653,0,0,1,2.546,3.968c.183,1.364-.121,2.859.572,4.05.347.6.917,1.052,1.2,1.681.827,1.823-1.09,3.939-.523,5.858.116.392.33.746.477,1.127a3.482,3.482,0,0,1,.01,2.45,5,5,0,0,0-.608,1.818,5.673,5.673,0,0,0,.417,1.4c.346,1.145-1.767,5.875-2.72,6.6l-30.195,3.042a5.656,5.656,0,0,1-4.813-4.446,2.068,2.068,0,0,0-.384-1.082,2.418,2.418,0,0,0-.874-.459c-2.041-.863-2.52-3.5-2.515-5.716a2.684,2.684,0,0,0-.1-.918,3.379,3.379,0,0,0-.817-1.064" transform="translate(-61.116 -18.973)" fill="#263238"/>
        <path id="Caminho_3574" data-name="Caminho 3574" d="M228.805,94.6a16.194,16.194,0,0,1,7.289-14.852,20.124,20.124,0,0,1,7.551-2.568,12.317,12.317,0,0,1,7.264.836c1.7.237,8.316,5.248,9.186,11.266.967,6.684,1.883,14.884,1.49,19.962-.792,10.211-8.438,12.121-8.438,12.121,0-.015,1.032,7.623,1.032,7.623l-10.644,6.344-11.289-4.766Z" transform="translate(-64.997 -21.867)" fill="#cc675d"/>
        <path id="Caminho_3575" data-name="Caminho 3575" d="M253.883,121.374a1.98,1.98,0,0,1,.516-1.3,2.038,2.038,0,0,1,2.424-.472,2.244,2.244,0,0,1,1.016,2.251c-.338.626-.568,1.232-1.263,1.389a3,3,0,0,1-.329.055,2.221,2.221,0,0,1-1.564-.384,1.972,1.972,0,0,1-.8-1.534" transform="translate(-72.145 -33.925)" fill="#9c4741"/>
        <path id="Caminho_3576" data-name="Caminho 3576" d="M263.564,105.4c.137-.19,1.212.4,2.6.2,1.387-.174,2.308-1.025,2.482-.876.084.065-.037.389-.437.772a3.58,3.58,0,0,1-1.959.908,3.435,3.435,0,0,1-2.1-.37c-.471-.268-.657-.551-.589-.637" transform="translate(-74.892 -29.755)" fill="#263238"/>
        <path id="Caminho_3577" data-name="Caminho 3577" d="M259.307,111.534a9.352,9.352,0,0,1,2.233-.591c.354-.066.685-.163.726-.411a1.808,1.808,0,0,0-.323-1.033l-1.273-2.62c-1.774-3.733-3.09-6.814-2.938-6.884s1.713,2.9,3.488,6.631q.642,1.382,1.229,2.639a2.058,2.058,0,0,1,.3,1.379.9.9,0,0,1-.544.567,2.442,2.442,0,0,1-.6.133,9.124,9.124,0,0,1-2.3.189" transform="translate(-73.236 -28.415)" fill="#263238"/>
        <path id="Caminho_3578" data-name="Caminho 3578" d="M257.356,138a25.974,25.974,0,0,1-13.879-2.5s4.179,6.813,14.223,5.05Z" transform="translate(-69.188 -38.506)" fill="#9c4741"/>
        <path id="Caminho_3579" data-name="Caminho 3579" d="M268.009,95.172c-.207.359-1.294.218-2.534.423-1.246.165-2.248.616-2.548.332-.134-.14-.024-.482.381-.858a3.992,3.992,0,0,1,4.095-.608c.494.243.7.539.606.712" transform="translate(-74.7 -26.753)" fill="#263238"/>
        <path id="Caminho_3580" data-name="Caminho 3580" d="M249.541,106.844c-.181-.148-1.071.694-2.461.86-1.386.186-2.493-.4-2.623-.213-.065.084.135.367.618.635a3.576,3.576,0,0,0,2.125.379,3.436,3.436,0,0,0,1.933-.895c.387-.379.495-.7.407-.766" transform="translate(-69.463 -30.357)" fill="#263238"/>
        <path id="Caminho_3581" data-name="Caminho 3581" d="M242.591,97.745c.311.282,1.345-.172,2.633-.34,1.283-.209,2.407-.072,2.62-.43.091-.173-.118-.468-.631-.709a4.008,4.008,0,0,0-2.2-.261,3.967,3.967,0,0,0-2.028.882c-.417.378-.528.719-.389.859" transform="translate(-68.92 -27.268)" fill="#263238"/>
        <path id="Caminho_3582" data-name="Caminho 3582" d="M229.747,113.764c-.062-.751-1.076-2.45-1.829-2.505-2.011-.147-5.577.3-5.2,5.332.51,6.877,7.33,4.944,7.327,4.745,0-.155-.078-4.98-.294-7.571" transform="translate(-63.28 -31.61)" fill="#cc675d"/>
        <path id="Caminho_3583" data-name="Caminho 3583" d="M228.74,119.91c-.032-.02-.114.093-.31.2a1.205,1.205,0,0,1-.9.085,2.967,2.967,0,0,1-1.573-2.557,3.946,3.946,0,0,1,.209-1.74,1.386,1.386,0,0,1,.836-.986.613.613,0,0,1,.733.275c.107.185.073.326.111.335.02.016.14-.126.063-.405a.764.764,0,0,0-.3-.412.911.911,0,0,0-.677-.125,1.692,1.692,0,0,0-1.176,1.16,4.063,4.063,0,0,0-.274,1.948,3.115,3.115,0,0,0,1.973,2.839,1.3,1.3,0,0,0,1.085-.263c.2-.185.226-.342.2-.353" transform="translate(-64.068 -32.555)" fill="#9c4741"/>
        <path id="Caminho_3584" data-name="Caminho 3584" d="M260.74,88.03a4.01,4.01,0,0,1-2.5-3.5c-.9.349-1.935-.759-2.538-1.512s-1.3-1.1-1.334-2.064a1.077,1.077,0,0,0-.115-.552,1.175,1.175,0,0,0-.788-.377,4.623,4.623,0,0,1-3.3-2.951,9.83,9.83,0,0,1-4.662,1.163,3.752,3.752,0,0,1-6.341.242,3.357,3.357,0,0,1-2.106,1.829,9.984,9.984,0,0,1-2.847.389,3.953,3.953,0,0,1-2.239,4.676c-.238.1-.516.193-.611.432s.054.516.169.757a3.113,3.113,0,0,1-1.762,4.12,2.316,2.316,0,0,1,.085,3.641c-.238.172-.55.38-.488.666a.649.649,0,0,0,.175.281,4.515,4.515,0,0,1,1.272,2.183A1.669,1.669,0,0,1,229.6,99.4a2.2,2.2,0,0,1,1,1.434c.059.6-.994,1.927-1.571,1.757-.245-.072-3.4-1.329-3.4-1.329-2.165-2.48.051-5.6-.023-8.886a21.345,21.345,0,0,1,2.223-9.528A15.646,15.646,0,0,1,230,79.334a20.9,20.9,0,0,1,3.564-3.092,19.1,19.1,0,0,1,5.316-3.08c3.649-1.178,7.624-.147,11.224,1.168a16.25,16.25,0,0,1,3.924,1.9,14.66,14.66,0,0,1,3.49,3.85,18.24,18.24,0,0,1,3.069,6.831" transform="translate(-63.843 -20.643)" fill="#263238"/>
        <path id="Caminho_3585" data-name="Caminho 3585" d="M259.139,83.809a2.625,2.625,0,0,0-.432-.707c-.165-.217-.393-.466-.616-.791a3.2,3.2,0,0,1-.492-1.251,9.965,9.965,0,0,1-.111-1.7,7.517,7.517,0,0,0-.223-2.036,5.729,5.729,0,0,0-1.085-2.09,5.665,5.665,0,0,0-.928-.9,8.446,8.446,0,0,0-1.156-.717,4.28,4.28,0,0,1-1.122-.814,5.547,5.547,0,0,1-.759-1.239,9.267,9.267,0,0,0-4.735-4.345,8.264,8.264,0,0,0-1.711-.484,7.461,7.461,0,0,0-1.829-.054,8.526,8.526,0,0,0-.922.15c-.3.074-.6.163-.9.243a4.469,4.469,0,0,1-1.843.155c-.627-.07-1.25-.242-1.9-.347a12.162,12.162,0,0,0-4-.032,10.493,10.493,0,0,0-1.991.54,6.823,6.823,0,0,0-3.281,2.571l-.228.36.106-.053a7.771,7.771,0,0,0-5.835,1.689,7.676,7.676,0,0,0-2.936,4.98l.049-.073a21.945,21.945,0,0,0-2.311,1.472,7.294,7.294,0,0,0-1.827,1.923,4.726,4.726,0,0,0-.7,2.447,3.248,3.248,0,0,0,.852,2.268l0-.115a5.7,5.7,0,0,0-1.294,3.66,5.835,5.835,0,0,0,1,3.355,5.616,5.616,0,0,0,.515.642,7.574,7.574,0,0,1,.525.574,1.471,1.471,0,0,1,.3.653,4.189,4.189,0,0,1,.039.715,11.252,11.252,0,0,0,.291,2.6,5.458,5.458,0,0,0,.843,1.928,3.385,3.385,0,0,0,1.165,1.026c.375.2.7.269.883.382a1.579,1.579,0,0,1,.268.187.8.8,0,0,0-.255-.21c-.185-.122-.509-.2-.872-.4a3.378,3.378,0,0,1-1.127-1.024,5.42,5.42,0,0,1-.809-1.907,11.311,11.311,0,0,1-.266-2.579,4.25,4.25,0,0,0-.036-.737,1.6,1.6,0,0,0-.321-.709,7.376,7.376,0,0,0-.531-.588,5.594,5.594,0,0,1-.5-.628,5.7,5.7,0,0,1-.959-3.275,5.549,5.549,0,0,1,1.268-3.55l.051-.059-.054-.056a3.074,3.074,0,0,1-.8-2.15,4.542,4.542,0,0,1,.679-2.348,7.085,7.085,0,0,1,1.784-1.868,21.753,21.753,0,0,1,2.293-1.455l.043-.024.006-.049a7.484,7.484,0,0,1,2.866-4.843,7.571,7.571,0,0,1,5.678-1.644l.067.009.039-.062.22-.346a6.619,6.619,0,0,1,3.182-2.493,10.389,10.389,0,0,1,1.948-.529,12.017,12.017,0,0,1,3.936.028c.638.1,1.266.274,1.913.346a4.8,4.8,0,0,0,.973.019,5.739,5.739,0,0,0,.942-.183c.3-.082.6-.171.9-.243a8.262,8.262,0,0,1,.9-.148,7.275,7.275,0,0,1,1.78.048,8.11,8.11,0,0,1,1.672.469,9.1,9.1,0,0,1,4.659,4.249,5.747,5.747,0,0,0,.79,1.269,4.411,4.411,0,0,0,1.164.839,8.422,8.422,0,0,1,1.143.7,5.516,5.516,0,0,1,.911.875,5.623,5.623,0,0,1,1.076,2.037,7.523,7.523,0,0,1,.236,2.006,9.936,9.936,0,0,0,.13,1.716,3.247,3.247,0,0,0,.521,1.271c.233.326.465.571.634.782a4.05,4.05,0,0,1,.359.5c.072.119.1.184.106.182" transform="translate(-61.087 -18.937)" fill="#455a64"/>
        <path id="Caminho_3586" data-name="Caminho 3586" d="M238.858,68.906c.012.014.173-.12.495-.311a4.665,4.665,0,0,1,1.466-.563,4.382,4.382,0,0,1,2.294.14,4.5,4.5,0,0,1,2.217,1.689,3.792,3.792,0,0,1,.408.749.861.861,0,0,1,.01.728l-.149.248.272-.1a2.872,2.872,0,0,1,2.152.074,2.755,2.755,0,0,1,1.275,1.174,3,3,0,0,1,.364,1.109c.033.275.024.428.039.429s.014-.037.022-.111a1.864,1.864,0,0,0,.009-.324A2.877,2.877,0,0,0,248.1,71.4a3.021,3.021,0,0,0-2.3-.1l.123.146a1.05,1.05,0,0,0,.009-.9,3.948,3.948,0,0,0-.43-.795,4.624,4.624,0,0,0-2.328-1.753,4.434,4.434,0,0,0-2.386-.1,4.36,4.36,0,0,0-1.479.639,3.08,3.08,0,0,0-.346.268c-.074.068-.11.105-.105.111" transform="translate(-67.875 -19.258)" fill="#455a64"/>
        <path id="Caminho_3587" data-name="Caminho 3587" d="M224.156,81.685c-.007.01.082.094.261.225a4.441,4.441,0,0,0,.825.475,3.32,3.32,0,0,0,1.409.3,2.482,2.482,0,0,0,1.669-.659l-.155-.011.225.265c.082.086.171.167.258.251a4.183,4.183,0,0,0,1.812.923,4.3,4.3,0,0,0,1.659.068,3.8,3.8,0,0,0,1.066-.338,1.383,1.383,0,0,0,.344-.221,6.014,6.014,0,0,1-1.43.414,4.385,4.385,0,0,1-1.593-.108,4.128,4.128,0,0,1-1.719-.893c-.082-.08-.167-.156-.244-.237l-.214-.249-.076-.088-.079.077a2.331,2.331,0,0,1-1.53.623,3.334,3.334,0,0,1-1.35-.24c-.733-.3-1.119-.6-1.139-.573" transform="translate(-63.698 -23.212)" fill="#455a64"/>
        <path id="Caminho_3588" data-name="Caminho 3588" d="M219.81,90.6c-.007,0,0,.044.027.125a1.191,1.191,0,0,0,.181.319,1.845,1.845,0,0,0,1.173.643,3.523,3.523,0,0,0,1.951-.378,11.14,11.14,0,0,0,1.052-.519,1.889,1.889,0,0,0,.88-.944l.034-.115-.158.063a7.924,7.924,0,0,0,2.147,1.052,3.571,3.571,0,0,0,1.952.037,2.573,2.573,0,0,0,1.147-.641,1.56,1.56,0,0,0,.228-.276c.044-.069.064-.106.058-.11s-.112.13-.341.327a2.688,2.688,0,0,1-1.13.558,3.526,3.526,0,0,1-1.863-.079,8.133,8.133,0,0,1-2.086-1.044l-.117-.077-.042.14c-.009.03-.019.062-.028.1a1.71,1.71,0,0,1-.788.837c-.336.2-.694.363-1.025.519a3.489,3.489,0,0,1-1.852.407,1.836,1.836,0,0,1-1.131-.55,3.056,3.056,0,0,1-.271-.392" transform="translate(-62.462 -25.444)" fill="#455a64"/>
        <path id="Caminho_3589" data-name="Caminho 3589" d="M206.639,57.589c0,.014.12-.005.332.031a1.573,1.573,0,0,1,.81.431,2.143,2.143,0,0,1,.628,1.269,6.273,6.273,0,0,1-.1,1.9l-.017.112.115-.013a3.944,3.944,0,0,1,2.444.527,3.046,3.046,0,0,1,1.507,2.3,2.825,2.825,0,0,1-.812,2.373l-.217.2.295-.027a3.576,3.576,0,0,1,2.709.927,3.4,3.4,0,0,1,1.057,2.036,3.7,3.7,0,0,1-.105,1.537c-.1.349-.2.528-.181.535s.032-.039.078-.125a2.423,2.423,0,0,0,.168-.389,3.542,3.542,0,0,0,.167-1.574,3.5,3.5,0,0,0-1.065-2.145,3.728,3.728,0,0,0-2.846-1l.078.174a3.013,3.013,0,0,0,.883-2.543,3.09,3.09,0,0,0-.531-1.446,3.477,3.477,0,0,0-1.08-1,4.085,4.085,0,0,0-2.568-.53l.1.1a6.247,6.247,0,0,0,.069-1.943,2.227,2.227,0,0,0-.7-1.321,1.564,1.564,0,0,0-.87-.409,1.024,1.024,0,0,0-.255,0c-.057.009-.086.015-.085.019" transform="translate(-58.72 -16.357)" fill="#455a64"/>
        <path id="Caminho_3590" data-name="Caminho 3590" d="M191.188,78.921c0,.005.037.024.117.057a3.729,3.729,0,0,0,.357.129,4.927,4.927,0,0,0,1.414.2,5.5,5.5,0,0,0,2.144-.44,5.241,5.241,0,0,0,2.2-1.711h-.157a4.4,4.4,0,0,0,3.279,1.862,3.342,3.342,0,0,0,3.281-2.107l-.18.008a2.767,2.767,0,0,0,.927,1.1,3.687,3.687,0,0,0,1.183.543,5.1,5.1,0,0,0,2.117.044,10.055,10.055,0,0,0,1.336-.331,2.6,2.6,0,0,0,.462-.168,3.286,3.286,0,0,0-.479.108,12.842,12.842,0,0,1-1.336.276A5.1,5.1,0,0,1,205.8,78.4a2.991,2.991,0,0,1-1.976-1.563l-.1-.224-.079.231a3.158,3.158,0,0,1-3.09,1.961,4.235,4.235,0,0,1-3.13-1.767l-.079-.107-.079.108a5.124,5.124,0,0,1-2.105,1.674,5.5,5.5,0,0,1-2.081.471,6.425,6.425,0,0,1-1.887-.264" transform="translate(-54.329 -21.771)" fill="#455a64"/>
        <path id="Caminho_3591" data-name="Caminho 3591" d="M202.455,90.266s.015.053.091.118a.716.716,0,0,0,.405.141,3.207,3.207,0,0,0,1.5-.379,3.757,3.757,0,0,0,1.632-1.607,3.824,3.824,0,0,0,.281-2.775l-.005-.021-.14.125a4.509,4.509,0,0,0,2.794.15,5.02,5.02,0,0,0,2.019-1.076,5.578,5.578,0,0,0,1.014-1.157,2.02,2.02,0,0,0,.268-.495,8.282,8.282,0,0,1-1.378,1.54,5.017,5.017,0,0,1-1.971,1,4.393,4.393,0,0,1-2.668-.157l-.193-.077.053.2.005.019a3.627,3.627,0,0,1-1.781,4.195,3.362,3.362,0,0,1-1.43.429.711.711,0,0,1-.5-.178" transform="translate(-57.531 -23.668)" fill="#455a64"/>
        <path id="Caminho_3592" data-name="Caminho 3592" d="M226.005,56.192a5.849,5.849,0,0,1,.487,2.085,4.739,4.739,0,0,1-3.974,4.785l-.127.021.048.117a6.035,6.035,0,0,1,.437,2.2,6.173,6.173,0,0,1-.248,1.776,4.492,4.492,0,0,1-.231.637.521.521,0,0,1-.341.31.346.346,0,0,1-.283-.061c-.053-.045-.065-.084-.073-.081s0,.045.047.107a.37.37,0,0,0,.32.1.587.587,0,0,0,.42-.331,4.077,4.077,0,0,0,.266-.647,5.976,5.976,0,0,0,.3-1.815,6.042,6.042,0,0,0-.424-2.274l-.079.138a4.853,4.853,0,0,0,1.612-.556,4.9,4.9,0,0,0,2.014-2.1,4.821,4.821,0,0,0,.464-2.333,4.675,4.675,0,0,0-.352-1.564,3.468,3.468,0,0,0-.2-.389c-.051-.086-.08-.129-.087-.125" transform="translate(-62.999 -15.968)" fill="#455a64"/>
        <path id="Caminho_3593" data-name="Caminho 3593" d="M254.619,119.074c.192-.053.475,1.246,1.79,1.928s2.669.241,2.719.421c.036.077-.255.319-.837.46a3.329,3.329,0,0,1-2.255-.278,2.876,2.876,0,0,1-1.416-1.634c-.168-.532-.092-.885,0-.9" transform="translate(-72.326 -33.837)" fill="#263238"/>
        <path id="Caminho_3594" data-name="Caminho 3594" d="M262.618,103.974,234.74,106.61a4.769,4.769,0,0,1-5.2-4.3l-.52-5.505a4.769,4.769,0,0,1,4.3-5.2L261.2,88.974a4.768,4.768,0,0,1,5.2,4.3l.521,5.505a4.768,4.768,0,0,1-4.3,5.2" transform="translate(-65.075 -25.277)" fill="#e0e0e0"/>
        <path id="Caminho_3595" data-name="Caminho 3595" d="M224.573,108.133s-.82-1,.566-4.14c1.644-3.731,3.108-7.14,3.108-7.14l3.773,11.866-3.213-1.569Z" transform="translate(-63.748 -27.522)" fill="#e0e0e0"/>
        <path id="Caminho_3596" data-name="Caminho 3596" d="M263.765,102.255l-27.877,2.636a4.769,4.769,0,0,1-5.2-4.3l-.52-5.505a4.769,4.769,0,0,1,4.3-5.2l27.877-2.636a4.768,4.768,0,0,1,5.2,4.3l.521,5.5a4.768,4.768,0,0,1-4.3,5.2" transform="translate(-65.401 -24.789)" fill="#455a64"/>
        <path id="Caminho_3597" data-name="Caminho 3597" d="M263.694,102.2c0-.026.341-.039.954-.229a4.842,4.842,0,0,0,2.256-1.578,4.736,4.736,0,0,0,.873-1.79,4.825,4.825,0,0,0,.139-1.134c-.011-.394-.059-.814-.1-1.248q-.13-1.3-.277-2.779l-.15-1.517a5.61,5.61,0,0,0-.3-1.539,4.615,4.615,0,0,0-3.808-3.023,8.685,8.685,0,0,0-1.864.074l-8.2.793-18.794,1.792a4.6,4.6,0,0,0-3.721,2.627,4.533,4.533,0,0,0-.418,2.268q.11,1.2.218,2.375t.219,2.337a7.248,7.248,0,0,0,.405,2.2,4.614,4.614,0,0,0,3.126,2.711,5.335,5.335,0,0,0,2.075.077l2.083-.193,3.983-.367,7.149-.654,10.355-.92,2.818-.231.733-.051a1.237,1.237,0,0,1,.251,0,1.23,1.23,0,0,1-.248.042l-.73.088-2.81.3-10.343,1.038-7.145.7-3.981.386-2.082.2a5.7,5.7,0,0,1-2.191-.078,4.962,4.962,0,0,1-3.372-2.909,7.56,7.56,0,0,1-.436-2.3q-.109-1.158-.223-2.336t-.222-2.382a4.9,4.9,0,0,1,.45-2.453,4.97,4.97,0,0,1,4.022-2.84l18.8-1.763,8.2-.758a8.848,8.848,0,0,1,1.928-.063,4.889,4.889,0,0,1,4.021,3.231,5.889,5.889,0,0,1,.3,1.6q.07.78.137,1.518.131,1.475.248,2.782c.039.434.082.85.088,1.268a4.939,4.939,0,0,1-.16,1.177,4.793,4.793,0,0,1-3.279,3.4,3.7,3.7,0,0,1-.976.157" transform="translate(-65.33 -24.73)" fill="#263238"/>
        <path id="Caminho_3598" data-name="Caminho 3598" d="M245.985,102.089a39.148,39.148,0,0,1,3.267-4.294,39.159,39.159,0,0,1,3.556-4.058,39.191,39.191,0,0,1-3.268,4.294,39.1,39.1,0,0,1-3.556,4.058" transform="translate(-69.9 -26.637)" fill="#263238"/>
        <path id="Caminho_3599" data-name="Caminho 3599" d="M249.43,102.456a57.735,57.735,0,0,1,3.955-5.221,57.462,57.462,0,0,1,4.246-4.988,57.782,57.782,0,0,1-3.956,5.221,57.67,57.67,0,0,1-4.246,4.988" transform="translate(-70.879 -26.213)" fill="#263238"/>
        <path id="Caminho_3600" data-name="Caminho 3600" d="M256.662,102.774a19.1,19.1,0,0,1,2-3.183,19.186,19.186,0,0,1,2.309-2.969,19.059,19.059,0,0,1-2,3.183,19.1,19.1,0,0,1-2.309,2.969" transform="translate(-72.933 -27.456)" fill="#263238"/>
        <path id="Caminho_3601" data-name="Caminho 3601" d="M343,101.887a51.577,51.577,0,0,1-2.927,11.462l-11.157,1.391s-5.245-8.873-6.688-12.382a6.6,6.6,0,0,0-1.651-2.472,1.7,1.7,0,0,1,1.853-2.806,10.4,10.4,0,0,1,2.173,2.234,33.514,33.514,0,0,1,2.093,3.5,7.935,7.935,0,0,0,1.167-3.579c.066-2.052-1.044-9.821-1.1-11.963s1.221-2.363,2.405-1.951,1,9.543,2.065,9.914c0,0,1.816-.832,2.871-.373a5.717,5.717,0,0,1,1.8,1.321s1.08-1.226,2.183-.968a4.062,4.062,0,0,1,1.969,1.571s1-1.141,1.762-.8,1.5,2.151,1.172,5.9" transform="translate(-90.934 -24.197)" fill="#cc675d"/>
        <path id="Caminho_3602" data-name="Caminho 3602" d="M331.153,124.638c-.152.51,3.3,7.54.018,17.306a8.091,8.091,0,0,0-.629,2.331l8.07,3.324,5.516-2.893-1.284-20.892Z" transform="translate(-93.928 -35.184)" fill="#cc675d"/>
        <path id="Caminho_3603" data-name="Caminho 3603" d="M339.936,115.9c-.061.019-.266-.732-.774-1.853a7.5,7.5,0,0,0-1.143-1.8,4.939,4.939,0,0,0-2.133-1.405,9.235,9.235,0,0,0-4.717-.092,1.43,1.43,0,0,1-.895-.039,1.238,1.238,0,0,1-.5-.457c-.19-.3-.243-.492-.226-.5s.127.155.342.417a1.166,1.166,0,0,0,.461.352,1.254,1.254,0,0,0,.757-.026,8.715,8.715,0,0,1,4.894,0,5.1,5.1,0,0,1,2.271,1.533,7.073,7.073,0,0,1,1.126,1.921,10.1,10.1,0,0,1,.45,1.418,1.46,1.46,0,0,1,.082.54" transform="translate(-93.647 -31.187)" fill="#9c4741"/>
        <path id="Caminho_3604" data-name="Caminho 3604" d="M340,100.363a1.544,1.544,0,0,1,.137.57,7.376,7.376,0,0,1,.034,1.6,8.214,8.214,0,0,1-.535,2.316,3.687,3.687,0,0,1-.729,1.245,1.415,1.415,0,0,1-1.542.414,2.061,2.061,0,0,1-1.112-1.132,7.838,7.838,0,0,1-.435-1.348,10.055,10.055,0,0,1-.276-2.354,8.719,8.719,0,0,1,.14-1.587,1.556,1.556,0,0,1,.16-.563c.064.009-.1.826-.036,2.145a11.115,11.115,0,0,0,.346,2.277,8.048,8.048,0,0,0,.432,1.276,1.724,1.724,0,0,0,.91.938,1.052,1.052,0,0,0,1.152-.319,3.446,3.446,0,0,0,.672-1.119,8.8,8.8,0,0,0,.592-2.215c.167-1.306.024-2.131.09-2.137" transform="translate(-95.35 -28.28)" fill="#9c4741"/>
        <path id="Caminho_3605" data-name="Caminho 3605" d="M346.052,101.083a2,2,0,0,1,.1.62,15.88,15.88,0,0,1,.064,1.706,8.507,8.507,0,0,1-.4,2.523,3.738,3.738,0,0,1-.762,1.35,2.084,2.084,0,0,1-1.548.7,1.616,1.616,0,0,1-.868-.248,1.529,1.529,0,0,1-.563-.676,3.994,3.994,0,0,1-.243-1.528c-.016-.919-.032-1.765-.045-2.518a14.307,14.307,0,0,1,.053-2.324,14.339,14.339,0,0,1,.21,2.315c.037.752.079,1.6.125,2.515a3.843,3.843,0,0,0,.232,1.389,1.162,1.162,0,0,0,1.1.7,1.729,1.729,0,0,0,1.279-.576,3.471,3.471,0,0,0,.7-1.213,8.99,8.99,0,0,0,.46-2.422c.077-1.419.039-2.313.1-2.314" transform="translate(-97.123 -28.612)" fill="#9c4741"/>
        <path id="Caminho_3606" data-name="Caminho 3606" d="M350.984,107.019c.039-.005.113.381-.133.936a2.368,2.368,0,0,1-1.828,1.362,1.29,1.29,0,0,1-1.238-.5,1.775,1.775,0,0,1-.321-1.02,1.685,1.685,0,0,1,.165-.925c.061,0,.036.366.1.9a1.664,1.664,0,0,0,.33.831.968.968,0,0,0,.924.342,2.309,2.309,0,0,0,1.636-1.113c.277-.463.3-.821.366-.815" transform="translate(-98.738 -30.369)" fill="#9c4741"/>
        <path id="Caminho_3607" data-name="Caminho 3607" d="M261.5,184.85l2.4-37.294c-6.283-2.6-18.541-2.717-18.541-2.717s-.222,6.936-9.788,7.356c-10.414.458-11.791-6.011-11.791-6.011l-19.277,4.35a19.091,19.091,0,0,0-5.179,3.556l5.219,33.748,5,24.452-7.813,16.45s21.329,7.094,33.545,7.728,30.019-12.77,30.019-12.77l-5.915-12.9Z" transform="translate(-56.641 -41.158)" fill="#e4b93d"/>
        <path id="Caminho_3608" data-name="Caminho 3608" d="M185.485,157.026l-21.752,17.44L150.477,175s-3.246,19.965-1.136,22.4,3.673,4.778,8.317,4.615,4.953-1.226,11.648-6.076c6.861-4.97,23.492-17.506,23.492-17.506Z" transform="translate(-42.235 -44.622)" fill="#e4b93d"/>
        <path id="Caminho_3609" data-name="Caminho 3609" d="M286.937,148.229s8.586,1.457,15.109,2.625a108.191,108.191,0,0,0,13.317,1.537v-2.78l17.825-1.493s1.274,20.49-1.669,24.742-45.777,1.014-45.777,1.014Z" transform="translate(-81.198 -42.09)" fill="#e4b93d"/>
        <path id="Caminho_3610" data-name="Caminho 3610" d="M288.451,159.932c.1.01-.2,3.994-.669,8.9s-.938,8.872-1.041,8.862.2-3.993.67-8.9.938-8.871,1.04-8.861" transform="translate(-81.477 -45.447)" fill="#263238"/>
        <path id="Caminho_3611" data-name="Caminho 3611" d="M200.741,172.67c.1-.021.983,3.7,1.971,8.316s1.709,8.372,1.608,8.395-.983-3.7-1.972-8.317-1.708-8.372-1.607-8.394" transform="translate(-57.041 -49.067)" fill="#263238"/>
        <path id="Caminho_3612" data-name="Caminho 3612" d="M331.036,167.223a2.243,2.243,0,0,1-.383-.536c-.229-.356-.53-.89-.873-1.566a27.573,27.573,0,0,1-2.9-11.4c-.021-.757-.013-1.37.019-1.792a2.249,2.249,0,0,1,.08-.654c.061,0,.055.935.164,2.432a32.891,32.891,0,0,0,2.871,11.3c.619,1.369,1.07,2.185,1.017,2.216" transform="translate(-92.887 -42.988)" fill="#263238"/>
        <path id="Caminho_3613" data-name="Caminho 3613" d="M170.456,198.6c-.061-.016.191-.966.446-2.523a29.838,29.838,0,0,0-.518-12.216c-.387-1.53-.717-2.454-.658-2.475a2.492,2.492,0,0,1,.3.625,17.786,17.786,0,0,1,.613,1.782,25.8,25.8,0,0,1,.523,12.332,17.847,17.847,0,0,1-.462,1.828,2.459,2.459,0,0,1-.244.648" transform="translate(-48.229 -51.545)" fill="#263238"/>
      </g>
    </g>
  </g>
</svg>
