<svg xmlns="http://www.w3.org/2000/svg" xmlns:xlink="http://www.w3.org/1999/xlink" width="118.43" height="157.333" viewBox="0 0 118.43 157.333">
  <defs>
    <clipPath id="clip-path">
      <rect id="Retângulo_1086" data-name="Retângulo 1086" width="36.724" height="53.778" fill="none"/>
    </clipPath>
    <clipPath id="clip-path-2">
      <rect id="Retângulo_1087" data-name="Retângulo 1087" width="29.071" height="52.618" fill="none"/>
    </clipPath>
    <clipPath id="clip-path-3">
      <rect id="Retângulo_1088" data-name="Retângulo 1088" width="37.819" height="71.681" fill="none"/>
    </clipPath>
    <clipPath id="clip-path-4">
      <rect id="Retângulo_1089" data-name="Retângulo 1089" width="31.679" height="51.977" fill="none"/>
    </clipPath>
  </defs>
  <g id="img-2-slide-61" transform="translate(0 0)">
    <path id="Caminho_1868" data-name="Caminho 1868" d="M129.782,53.469l3.93,41.346s5.541,6.354,10.769,12.432a64.888,64.888,0,0,0,22.024-25.088C162.385,75.8,158.454,70,156.359,67.424c-6.787-8.345-9.523-12.4-26.577-13.955" transform="translate(-48.076 39.109)" fill="#364866"/>
    <g id="Grupo_1506" data-name="Grupo 1506" transform="translate(81.706 92.578)" opacity="0.4">
      <g id="Grupo_1505" data-name="Grupo 1505">
        <g id="Grupo_1504" data-name="Grupo 1504" clip-path="url(#clip-path)">
          <path id="Caminho_1869" data-name="Caminho 1869" d="M129.782,53.469l3.93,41.346s5.541,6.354,10.769,12.432a64.888,64.888,0,0,0,22.024-25.088C162.385,75.8,158.454,70,156.359,67.424c-6.787-8.345-9.523-12.4-26.577-13.955" transform="translate(-129.782 -53.47)" fill="#364866"/>
        </g>
      </g>
    </g>
    <path id="Caminho_1870" data-name="Caminho 1870" d="M95.007,88.844c1.4,6.025,3.22,14.042,4.987,22.422a64.028,64.028,0,0,0,30.508,9.921c1.368.087,2.753.139,4.138.139A64.447,64.447,0,0,0,170.7,110.348a59.768,59.768,0,0,0,5.818-4.415,62.707,62.707,0,0,0,7.861-7.9c.017-.208.035-.4.035-.606.19-9.817-2.372-15.081-11.185-26.214a189.472,189.472,0,0,0-14.3-16.137c-.156-.156-.294-.329-.45-.467a2.649,2.649,0,0,0-.312-.312,1.836,1.836,0,0,0-.26-.26,4.8,4.8,0,0,0-.433-.416,1.662,1.662,0,0,0-.26-.242c-.017-.035-.052-.052-.069-.069l-.017-.017-25.885-4.069-8.761,2.736-13.973,4.346C104.6,57.644,89.865,66.647,95.007,88.844" transform="translate(-74.299 36.007)" fill="#fafafa"/>
    <path id="Caminho_1871" data-name="Caminho 1871" d="M130.442,51.589c.017.017.052.035.069.069a1.662,1.662,0,0,1,.26.242,4.8,4.8,0,0,1,.433.416,1.836,1.836,0,0,1,.26.26,2.649,2.649,0,0,1,.312.312c.156.139.294.312.45.467,5.818,6.51,12.016,19.929,14.371,28.378,1.7,3.861,2.684,12.207,3.22,22.474a62.706,62.706,0,0,0,7.861-7.9c.641-.745,1.247-1.524,1.835-2.3a34.151,34.151,0,0,0-3.463-12.362c-4.086-7.757-19.479-26.75-25.608-30.058" transform="translate(-47.593 37.733)" fill="#e9a527"/>
    <g id="Grupo_1509" data-name="Grupo 1509" transform="translate(82.849 89.323)" opacity="0.2">
      <g id="Grupo_1508" data-name="Grupo 1508">
        <g id="Grupo_1507" data-name="Grupo 1507" clip-path="url(#clip-path-2)">
          <path id="Caminho_1872" data-name="Caminho 1872" d="M130.442,51.589c.017.017.052.035.069.069a1.662,1.662,0,0,1,.26.242,4.8,4.8,0,0,1,.433.416,1.836,1.836,0,0,1,.26.26,2.649,2.649,0,0,1,.312.312c.156.139.294.312.45.467,5.818,6.51,12.016,19.929,14.371,28.378,1.7,3.861,2.684,12.207,3.22,22.474a62.706,62.706,0,0,0,7.861-7.9c.641-.745,1.247-1.524,1.835-2.3a34.151,34.151,0,0,0-3.463-12.362c-4.086-7.757-19.479-26.75-25.608-30.058" transform="translate(-130.442 -51.59)" fill="#e9a527"/>
        </g>
      </g>
    </g>
    <path id="Caminho_1873" data-name="Caminho 1873" d="M125.389,55.321c4.306,2.954,23.568,16.189,27.4,41.961,0-11.362-4.277-25.279-8.337-31.882-4.945-8.039-11.521-15.546-18.9-17.733Z" transform="translate(-51.289 34.864)" fill="#e9a527"/>
    <path id="Caminho_1874" data-name="Caminho 1874" d="M95.782,107.842c.727.571,1.454,1.108,2.2,1.628.831.589,1.679,1.143,2.528,1.679a64.028,64.028,0,0,0,30.508,9.921c.035-2.528.035-5.09.017-7.67-.121-17.5-7.757-54-7.965-58.851-.052-1.125-.069-2.008-.069-2.7a9.163,9.163,0,0,1,.069-2.459l-11.1,4.64s-7.532,1.991-12.276,3.463c-5.731,1.8-5.194,8.657-6.112,16.293-1.108,9.419.571,22.18,2.2,34.057" transform="translate(-74.814 36.124)" fill="#e9a527"/>
    <g id="Grupo_1512" data-name="Grupo 1512" transform="translate(18.411 85.514)" opacity="0.2">
      <g id="Grupo_1511" data-name="Grupo 1511">
        <g id="Grupo_1510" data-name="Grupo 1510" clip-path="url(#clip-path-3)">
          <path id="Caminho_1875" data-name="Caminho 1875" d="M95.782,107.842c.727.571,1.454,1.108,2.2,1.628.831.589,1.679,1.143,2.528,1.679a64.028,64.028,0,0,0,30.508,9.921c.035-2.528.035-5.09.017-7.67-.121-17.5-7.757-54-7.965-58.851-.052-1.125-.069-2.008-.069-2.7a9.163,9.163,0,0,1,.069-2.459l-11.1,4.64s-7.532,1.991-12.276,3.463c-5.731,1.8-5.194,8.657-6.112,16.293-1.108,9.419.571,22.18,2.2,34.057" transform="translate(-93.225 -49.39)" fill="#e9a527"/>
        </g>
      </g>
    </g>
    <path id="Caminho_1876" data-name="Caminho 1876" d="M115.016,46.494c-2.161-.1-2.724,1.224-5.582,4.477a41.666,41.666,0,0,1-5.381,5.174c2.642,16.066,15.294,36.1,18.9,54.969.156-15.273-3.936-36.272-7.805-59.609Z" transform="translate(-66.895 34.003)" fill="#364866"/>
    <path id="Caminho_1877" data-name="Caminho 1877" d="M82.592,76.56a64.8,64.8,0,0,0,23.167,29.486c2.857-5.212,5.09-9,5.09-9s9.609-26.837-3.376-42.974c-10.891,2.58-16.587,5.783-20.015,12.691-1.506,3.047-3.169,6.285-4.865,9.8" transform="translate(-82.592 39.547)" fill="#364866"/>
    <g id="Grupo_1515" data-name="Grupo 1515" transform="translate(0 93.617)" opacity="0.4">
      <g id="Grupo_1514" data-name="Grupo 1514">
        <g id="Grupo_1513" data-name="Grupo 1513" clip-path="url(#clip-path-4)">
          <path id="Caminho_1878" data-name="Caminho 1878" d="M82.592,76.56a64.8,64.8,0,0,0,23.167,29.486c2.857-5.212,5.09-9,5.09-9s9.609-26.837-3.376-42.974c-10.891,2.58-16.587,5.783-20.015,12.691-1.506,3.047-3.169,6.285-4.865,9.8" transform="translate(-82.592 -54.07)" fill="#364866"/>
        </g>
      </g>
    </g>
    <path id="Caminho_1879" data-name="Caminho 1879" d="M171.148,36.28c7.132-26.3-17.11-39.75-41.236-35.51-7.946,1.4-18.2,5.941-19.3,17.266-10.5,3.291-15.545,17.34-9.062,32.34,4.7,10.882,14.1,16.3,18.357,22.985Z" transform="translate(-70.836 0)" fill="#e0e0e0"/>
    <path id="Caminho_1880" data-name="Caminho 1880" d="M107.235,31.641c6.744-2.943,10.139,4.116,10.139,4.116,4.386,2.736,6.912-6.06,7.875-8.709,1.681-4.63,3.271-11.221,8.4-13.14,3.809-1.427,8.115-.01,11.6,2.079a8.867,8.867,0,0,0,6.979.928c2.083-.57,2.743-3.833,4.647-4.855,5.482-2.942,9.215,6.2,10.486,10.4,1.579,5.222,1.759,10.854,1.65,16.268-.4,19.6-5.25,28.25-10.679,30.572-3.472,1.486-7.431,2.28-13.986,1.74l.1,5.785s6.979,8.674,4.7,20.166c-10.924-1.247-26.92-7.227-32.18-17.124l.04-29.057c-1.236,2.566-7.047,3.783-10.643-.821-4.661-5.966-5.593-15.526.873-18.35" transform="translate(-67.938 8.402)" fill="#b78876"/>
    <path id="Caminho_1881" data-name="Caminho 1881" d="M134.52,37.968,125.335,35.9a4.845,4.845,0,0,0,3.439,5.965,4.948,4.948,0,0,0,5.747-3.9" transform="translate(-51.434 26.26)" fill="#b16668"/>
    <path id="Caminho_1882" data-name="Caminho 1882" d="M130.736,40.833a4.418,4.418,0,0,1-2.026.033,4.616,4.616,0,0,1-3.432-3.57,5.374,5.374,0,0,1,5.457,3.537" transform="translate(-51.369 27.263)" fill="#f28f8f"/>
    <path id="Caminho_1883" data-name="Caminho 1883" d="M135.117,49.81c-6.349-.977-17.943-4.076-19.87-9.3,0,0-.289,4.244,4.623,7.984,4.1,3.123,15.308,5.075,15.308,5.075Z" transform="translate(-58.709 29.631)" fill="#aa6550"/>
    <path id="Caminho_1884" data-name="Caminho 1884" d="M140.989,21.278,134.444,19.4a3.269,3.269,0,0,1,4.1-2.393,3.579,3.579,0,0,1,2.447,4.275" transform="translate(-44.666 12.341)" fill="#455a64"/>
    <path id="Caminho_1885" data-name="Caminho 1885" d="M121.511,22.44,128,20.36a3.268,3.268,0,0,0-4.169-2.266,3.577,3.577,0,0,0-2.315,4.346" transform="translate(-54.221 13.117)" fill="#455a64"/>
    <path id="Caminho_1886" data-name="Caminho 1886" d="M140.291,26.365a2.768,2.768,0,1,1-2.983-2.656,2.814,2.814,0,0,1,2.983,2.656" transform="translate(-44.43 17.336)" fill="#263238"/>
    <path id="Caminho_1887" data-name="Caminho 1887" d="M128.233,27.266a2.768,2.768,0,1,1-2.983-2.656,2.814,2.814,0,0,1,2.983,2.656" transform="translate(-53.25 17.995)" fill="#263238"/>
    <path id="Caminho_1888" data-name="Caminho 1888" d="M124.362,25.977a.743.743,0,0,0-.407-.294c-.293-.121-.589-.218-.888-.32-.388-.135-.776-.277-1.164-.414-.331-.119-.665-.234-1-.326a4.878,4.878,0,0,0-.632-.133,2.231,2.231,0,0,0-.835.054c-.213.047-.253.331-.206.5a.712.712,0,0,0,.481.492c.163.042.313.113.481.145.109.023.218.043.327.068l.139.031.068.016c.1.028.2.054.3.083.353.1.7.223,1.051.338a5.835,5.835,0,0,0,1.387.346,1.372,1.372,0,0,0,.7-.1.381.381,0,0,0,.2-.483" transform="translate(-55.809 17.899)" fill="#aa6550"/>
    <path id="Caminho_1889" data-name="Caminho 1889" d="M124.179,26.87a1.429,1.429,0,0,0-1-.577,8.371,8.371,0,0,0-1.705-.1c-.653.019-1.307.04-1.955.093s-.26.992.208,1.046a15.5,15.5,0,0,0,2.438-.036c.326-.016.653-.024.98-.009.149.007.3.012.447.012a1.208,1.208,0,0,0,.294-.033c.173-.04.156-.061.279-.17a.2.2,0,0,0,.019-.23" transform="translate(-55.832 19.156)" fill="#aa6550"/>
    <path id="Caminho_1890" data-name="Caminho 1890" d="M123.6,27.422c-.161-.161-.414-.076-.606-.04a3.288,3.288,0,0,0-.428.107c-.289.1-.58.184-.869.274-.274.085-.549.161-.826.232-.138.035-.206.05-.341.081s-.294.1-.443.151a.337.337,0,0,0-.232.339l0,.083a.571.571,0,0,0,.282.469.764.764,0,0,0,.388.076c.04-.005.078-.012.118-.019a3.636,3.636,0,0,0,.386-.055c.147-.036.294-.076.442-.116.291-.08.582-.166.867-.265a2.912,2.912,0,0,0,1.039-.537.854.854,0,0,0,.256-.334.443.443,0,0,0-.035-.447" transform="translate(-55.339 19.988)" fill="#aa6550"/>
    <path id="Caminho_1891" data-name="Caminho 1891" d="M165.954,22.483a5.939,5.939,0,0,1-1.321,2.916,2.682,2.682,0,0,0-.528,1.042c-.5,1.967-.961,5.669-1.915,7.784a9.288,9.288,0,0,1-8.37,5.913A11.841,11.841,0,0,1,151,40.054c-.073-.01-.144-.023-.211-.035a7.605,7.605,0,0,1-2.279-.776l-.135-.078c-.066-.036-.13-.073-.194-.113s-.112-.071-.242-.158c-.078-.05-.151-.1-.225-.159s-.166-.123-.246-.189-.158-.126-.235-.2c-.152-.135-.3-.277-.435-.426a9.665,9.665,0,0,1-1.8-2.822c-1.151-2.621-.784-6.4-2.743-6.727a1.448,1.448,0,0,0-.235-.023,2.108,2.108,0,0,0-.255,0c-2.673.184-2.44,4.263-3.981,7.269s-4.055,6-9.854,6.394c-.26.019-.511.026-.751.035-.2,0-.4,0-.6-.009a10.093,10.093,0,0,1-1.394-.121c-.149-.026-.294-.05-.436-.078s-.284-.064-.417-.1c-.088-.019-.177-.045-.263-.069a7.293,7.293,0,0,1-1.558-.653c-.182-.106-.351-.213-.521-.326a6.622,6.622,0,0,1-.9-.746,8.408,8.408,0,0,1-1.714-2.621c-.869-1.981-1.046-5.648-1.465-7.537a3.059,3.059,0,0,0-.426-1.084,4.821,4.821,0,0,1-1.262-2.677,2.589,2.589,0,0,1,1.653-2.5c.455-.09.932-.18,1.423-.267,4.583-.8,10.555-1.37,14.106-.6,4.457.98,5.986,2.327,8.481,2.157,2.334-.182,3.871-1.749,8.131-3.362,3.4-1.281,8.974-1.551,13.226-1.392.455.016.9.038,1.318.066.727.047,1.482,1.11,1.375,2.341m-29.476,4.391a3.469,3.469,0,0,0-1.257-.97,2.345,2.345,0,0,0-.229-.114c-.042-.023-.083-.042-.125-.061-.2-.092-.407-.182-.627-.263-.184-.071-.377-.14-.58-.206a15.635,15.635,0,0,0-1.9-.5c-.248-.05-.5-.1-.758-.137a18.024,18.024,0,0,0-1.96-.2c-.159-.007-.313-.014-.459-.01-4.3-.118-7.007,1.044-8,1.979-1.027.971-.63,4.921-.253,6.917.01.05.019.1.029.149s.019.1.029.154c.045.241.1.514.171.805.04.161.085.327.132.5l.007.021c.074.267.166.544.275.828v0c.035.093.074.189.113.282.021.055.047.111.074.17s.054.123.087.187.074.158.114.234.09.175.142.26.1.182.166.275.118.184.184.275c1.046,1.487,2.833,2.691,5.977,2.511a8.927,8.927,0,0,0,6.4-2.767l0,0A9.8,9.8,0,0,0,136.385,33c.566-2.292.914-4.943.093-6.126M161.849,23.4a3.365,3.365,0,0,0-1.042-.609.78.78,0,0,0-.081-.031c-.144-.057-.3-.109-.464-.158-.088-.026-.185-.054-.282-.076-.076-.017-.158-.04-.235-.052-.054-.016-.107-.024-.158-.035a.212.212,0,0,0-.061-.01c-.076-.016-.156-.029-.234-.042a9.082,9.082,0,0,0-.989-.109c-.173-.014-.353-.023-.537-.024-.106,0-.213,0-.326-.005-.081,0-.164,0-.248,0-.222.005-.452.014-.687.029-.083.005-.166.012-.253.019l-.235.019a19.657,19.657,0,0,0-1.989.294c-3.078.611-6.309,2.208-7.166,3.513s-.708,3.916-.343,6.141a9.743,9.743,0,0,0,.365,1.484c.009.035.024.074.038.114s.033.1.052.151c.014.033.023.066.036.1q.034.091.073.177c.05.125.1.242.159.364.048.1.1.206.156.308.019.038.04.074.061.109.038.066.078.137.123.206s.071.118.113.178l.017.028c1.042,1.579,2.93,2.886,6.351,2.573a7.994,7.994,0,0,0,3.236-.947c3.077-1.716,3.91-5.186,4.3-6.794.492-2.06,1.15-6.089.253-6.917" transform="translate(-57.98 14.654)" fill="#37474f"/>
    <path id="Caminho_1892" data-name="Caminho 1892" d="M122.687,22.267l-13.31,2.469a10.323,10.323,0,0,1,2.545,2.677l10.83-1.844Z" transform="translate(-63.001 16.287)" fill="#37474f"/>
    <path id="Caminho_1893" data-name="Caminho 1893" d="M130.352,25.218l1.738,15.957,9.386-3.3L131.284,24.851a2.114,2.114,0,0,0-.932.367" transform="translate(-47.659 18.177)" fill="#aa6550"/>
    <path id="Caminho_1894" data-name="Caminho 1894" d="M111.488,33.4A2.486,2.486,0,1,1,109,30.912a2.487,2.487,0,0,1,2.486,2.486" transform="translate(-65.094 22.61)" fill="#fafafa"/>
  </g>
</svg>
